<?xml version="1.0" encoding="UTF-8" standalone="no"?>
<!DOCTYPE svg PUBLIC "-//W3C//DTD SVG 1.1//EN"
 "http://www.w3.org/Graphics/SVG/1.1/DTD/svg11.dtd">
<!-- Generated by graphviz version 2.38.0 (20140413.2041)
 -->
<!-- Title: common/app_cfg.h Pages: 1 -->
<svg width="318pt" height="140pt"
 viewBox="0.00 0.00 317.50 140.00" xmlns="http://www.w3.org/2000/svg" xmlns:xlink="http://www.w3.org/1999/xlink">
<g id="graph0" class="graph" transform="scale(1 1) rotate(0) translate(4 136)">
<title>common/app_cfg.h</title>
<polygon fill="white" stroke="none" points="-4,4 -4,-136 313.5,-136 313.5,4 -4,4"/>
<!-- Node1 -->
<g id="node1" class="node"><title>Node1</title>
<g id="a_node1"><a xlink:title=" ">
<polygon fill="#bfbfbf" stroke="black" points="132,-112.5 132,-131.5 231,-131.5 231,-112.5 132,-112.5"/>
<text text-anchor="middle" x="181.5" y="-119.5" font-family="Helvetica,sans-Serif" font-size="10.00">common/app_cfg.h</text>
</a>
</g>
</g>
<!-- Node2 -->
<g id="node2" class="node"><title>Node2</title>
<g id="a_node2"><a xlink:href="frame__cfg_8c.html" target="_top" xlink:title=" ">
<polygon fill="white" stroke="black" points="0,-56.5 0,-75.5 107,-75.5 107,-56.5 0,-56.5"/>
<text text-anchor="middle" x="53.5" y="-63.5" font-family="Helvetica,sans-Serif" font-size="10.00">common/frame_cfg.c</text>
</a>
</g>
</g>
<!-- Node1&#45;&gt;Node2 -->
<g id="edge1" class="edge"><title>Node1&#45;&gt;Node2</title>
<path fill="none" stroke="midnightblue" d="M151.877,-108.503C127.881,-98.3795 94.716,-84.388 73.6871,-75.5164"/>
<polygon fill="midnightblue" stroke="midnightblue" points="150.644,-111.781 161.218,-112.444 153.365,-105.332 150.644,-111.781"/>
</g>
<!-- Node3 -->
<g id="node3" class="node"><title>Node3</title>
<g id="a_node3"><a xlink:href="mm_wave___x_s_s_8h.html" target="_top" xlink:title=" ">
<polygon fill="white" stroke="black" points="163.5,-56.5 163.5,-75.5 293.5,-75.5 293.5,-56.5 163.5,-56.5"/>
<text text-anchor="middle" x="228.5" y="-63.5" font-family="Helvetica,sans-Serif" font-size="10.00">common/mmWave_XSS.h</text>
</a>
</g>
</g>
<!-- Node1&#45;&gt;Node3 -->
<g id="edge2" class="edge"><title>Node1&#45;&gt;Node3</title>
<path fill="none" stroke="midnightblue" d="M195.921,-104.431C204.158,-94.9673 214.154,-83.4827 220.883,-75.7511"/>
<polygon fill="midnightblue" stroke="midnightblue" points="193.186,-102.242 189.261,-112.083 198.466,-106.838 193.186,-102.242"/>
</g>
<!-- Node4 -->
<g id="node4" class="node"><title>Node4</title>
<g id="a_node4"><a xlink:href="mss__cli_8c.html" target="_top" xlink:title=" ">
<polygon fill="white" stroke="black" points="111,-0.5 111,-19.5 170,-19.5 170,-0.5 111,-0.5"/>
<text text-anchor="middle" x="140.5" y="-7.5" font-family="Helvetica,sans-Serif" font-size="10.00">mss_cli.c</text>
</a>
</g>
</g>
<!-- Node1&#45;&gt;Node4 -->
<g id="edge5" class="edge"><title>Node1&#45;&gt;Node4</title>
<path fill="none" stroke="midnightblue" d="M169.454,-103.952C164.19,-95.815 158.35,-85.7445 154.5,-76 146.865,-56.6754 143.045,-32.391 141.45,-19.6753"/>
<polygon fill="midnightblue" stroke="midnightblue" points="166.718,-106.155 175.217,-112.481 172.519,-102.236 166.718,-106.155"/>
</g>
<!-- Node5 -->
<g id="node5" class="node"><title>Node5</title>
<g id="a_node5"><a xlink:href="mss__main_8c.html" target="_top" xlink:title=" ">
<polygon fill="white" stroke="black" points="239.5,-0.5 239.5,-19.5 309.5,-19.5 309.5,-0.5 239.5,-0.5"/>
<text text-anchor="middle" x="274.5" y="-7.5" font-family="Helvetica,sans-Serif" font-size="10.00">mss_main.c</text>
</a>
</g>
</g>
<!-- Node1&#45;&gt;Node5 -->
<g id="edge6" class="edge"><title>Node1&#45;&gt;Node5</title>
<path fill="none" stroke="midnightblue" d="M241.067,-113.508C264.194,-107.362 288.454,-96.2101 302.5,-76 315.263,-57.6369 295.726,-32.5307 283.365,-19.5506"/>
<polygon fill="midnightblue" stroke="midnightblue" points="240.173,-110.123 231.258,-115.847 241.797,-116.932 240.173,-110.123"/>
</g>
<!-- Node3&#45;&gt;Node4 -->
<g id="edge3" class="edge"><title>Node3&#45;&gt;Node4</title>
<path fill="none" stroke="midnightblue" d="M205.523,-50.9005C189.387,-40.9986 168.319,-28.0705 154.604,-19.6545"/>
<polygon fill="midnightblue" stroke="midnightblue" points="204.007,-54.0769 214.361,-56.324 207.669,-48.1106 204.007,-54.0769"/>
</g>
<!-- Node3&#45;&gt;Node5 -->
<g id="edge4" class="edge"><title>Node3&#45;&gt;Node5</title>
<path fill="none" stroke="midnightblue" d="M242.614,-48.4314C250.676,-38.9673 260.459,-27.4827 267.045,-19.7511"/>
<polygon fill="midnightblue" stroke="midnightblue" points="239.916,-46.2009 236.096,-56.083 245.245,-50.7402 239.916,-46.2009"/>
</g>
</g>
</svg>
