<?xml version="1.0" encoding="UTF-8" standalone="no"?>
<!DOCTYPE svg PUBLIC "-//W3C//DTD SVG 1.1//EN"
 "http://www.w3.org/Graphics/SVG/1.1/DTD/svg11.dtd">
<!-- Generated by graphviz version 2.38.0 (20140413.2041)
 -->
<!-- Title: common/cfg.c Pages: 1 -->
<svg width="1118pt" height="162pt"
 viewBox="0.00 0.00 1117.50 162.00" xmlns="http://www.w3.org/2000/svg" xmlns:xlink="http://www.w3.org/1999/xlink">
<g id="graph0" class="graph" transform="scale(1 1) rotate(0) translate(4 158)">
<title>common/cfg.c</title>
<polygon fill="white" stroke="none" points="-4,4 -4,-158 1113.5,-158 1113.5,4 -4,4"/>
<!-- Node1 -->
<g id="node1" class="node"><title>Node1</title>
<g id="a_node1"><a xlink:title=" ">
<polygon fill="#bfbfbf" stroke="black" points="352.5,-134.5 352.5,-153.5 430.5,-153.5 430.5,-134.5 352.5,-134.5"/>
<text text-anchor="middle" x="391.5" y="-141.5" font-family="Helvetica,sans-Serif" font-size="10.00">common/cfg.c</text>
</a>
</g>
</g>
<!-- Node2 -->
<g id="node2" class="node"><title>Node2</title>
<g id="a_node2"><a xlink:title=" ">
<polygon fill="white" stroke="#bfbfbf" points="0,-73 0,-92 49,-92 49,-73 0,-73"/>
<text text-anchor="middle" x="24.5" y="-80" font-family="Helvetica,sans-Serif" font-size="10.00">stdint.h</text>
</a>
</g>
</g>
<!-- Node1&#45;&gt;Node2 -->
<g id="edge1" class="edge"><title>Node1&#45;&gt;Node2</title>
<path fill="none" stroke="midnightblue" d="M352.366,-141.117C289.43,-137.336 162.271,-126.576 58.5,-98 56.2031,-97.3675 53.8574,-96.6135 51.5253,-95.7865"/>
<polygon fill="midnightblue" stroke="midnightblue" points="52.762,-92.512 42.1752,-92.1007 50.1949,-99.0243 52.762,-92.512"/>
</g>
<!-- Node3 -->
<g id="node3" class="node"><title>Node3</title>
<g id="a_node3"><a xlink:title=" ">
<polygon fill="white" stroke="#bfbfbf" points="67.5,-73 67.5,-92 115.5,-92 115.5,-73 67.5,-73"/>
<text text-anchor="middle" x="91.5" y="-80" font-family="Helvetica,sans-Serif" font-size="10.00">stdlib.h</text>
</a>
</g>
</g>
<!-- Node1&#45;&gt;Node3 -->
<g id="edge2" class="edge"><title>Node1&#45;&gt;Node3</title>
<path fill="none" stroke="midnightblue" d="M352.083,-139.265C299.573,-133.629 204.15,-121.072 125.5,-98 123.349,-97.3689 121.151,-96.64 118.96,-95.8517"/>
<polygon fill="midnightblue" stroke="midnightblue" points="120.148,-92.5575 109.561,-92.1351 117.574,-99.0671 120.148,-92.5575"/>
</g>
<!-- Node4 -->
<g id="node4" class="node"><title>Node4</title>
<g id="a_node4"><a xlink:title=" ">
<polygon fill="white" stroke="#bfbfbf" points="134,-73 134,-92 185,-92 185,-73 134,-73"/>
<text text-anchor="middle" x="159.5" y="-80" font-family="Helvetica,sans-Serif" font-size="10.00">stddef.h</text>
</a>
</g>
</g>
<!-- Node1&#45;&gt;Node4 -->
<g id="edge3" class="edge"><title>Node1&#45;&gt;Node4</title>
<path fill="none" stroke="midnightblue" d="M352.48,-136.097C312.357,-128.534 248.313,-115.159 194.5,-98 192.362,-97.3182 190.171,-96.5604 187.981,-95.7592"/>
<polygon fill="midnightblue" stroke="midnightblue" points="189.128,-92.4495 178.54,-92.0681 186.579,-98.969 189.128,-92.4495"/>
</g>
<!-- Node5 -->
<g id="node5" class="node"><title>Node5</title>
<g id="a_node5"><a xlink:title=" ">
<polygon fill="white" stroke="#bfbfbf" points="203,-73 203,-92 252,-92 252,-73 203,-73"/>
<text text-anchor="middle" x="227.5" y="-80" font-family="Helvetica,sans-Serif" font-size="10.00">string.h</text>
</a>
</g>
</g>
<!-- Node1&#45;&gt;Node5 -->
<g id="edge4" class="edge"><title>Node1&#45;&gt;Node5</title>
<path fill="none" stroke="midnightblue" d="M365.16,-134.483C338.759,-125.805 297.041,-111.711 261.5,-98 259.854,-97.3648 258.168,-96.6988 256.472,-96.0159"/>
<polygon fill="midnightblue" stroke="midnightblue" points="257.401,-92.6122 246.823,-92.017 254.721,-99.0788 257.401,-92.6122"/>
</g>
<!-- Node6 -->
<g id="node6" class="node"><title>Node6</title>
<g id="a_node6"><a xlink:title=" ">
<polygon fill="white" stroke="#bfbfbf" points="270.5,-73 270.5,-92 316.5,-92 316.5,-73 270.5,-73"/>
<text text-anchor="middle" x="293.5" y="-80" font-family="Helvetica,sans-Serif" font-size="10.00">stdio.h</text>
</a>
</g>
</g>
<!-- Node1&#45;&gt;Node6 -->
<g id="edge5" class="edge"><title>Node1&#45;&gt;Node6</title>
<path fill="none" stroke="midnightblue" d="M377.459,-134.475C361.449,-124.755 335.05,-108.727 316.126,-97.2372"/>
<polygon fill="midnightblue" stroke="midnightblue" points="317.879,-94.2072 307.515,-92.0091 314.246,-100.191 317.879,-94.2072"/>
</g>
<!-- Node7 -->
<g id="node7" class="node"><title>Node7</title>
<g id="a_node7"><a xlink:title=" ">
<polygon fill="white" stroke="#bfbfbf" points="335,-73 335,-92 448,-92 448,-73 335,-73"/>
<text text-anchor="middle" x="391.5" y="-80" font-family="Helvetica,sans-Serif" font-size="10.00">xdc/runtime/System.h</text>
</a>
</g>
</g>
<!-- Node1&#45;&gt;Node7 -->
<g id="edge6" class="edge"><title>Node1&#45;&gt;Node7</title>
<path fill="none" stroke="midnightblue" d="M391.5,-134.475C391.5,-126.08 391.5,-112.981 391.5,-102.163"/>
<polygon fill="midnightblue" stroke="midnightblue" points="395,-102.009 391.5,-92.0091 388,-102.009 395,-102.009"/>
</g>
<!-- Node8 -->
<g id="node8" class="node"><title>Node8</title>
<g id="a_node8"><a xlink:title=" ">
<polygon fill="white" stroke="#bfbfbf" points="506.5,-6 506.5,-25 638.5,-25 638.5,-6 506.5,-6"/>
<text text-anchor="middle" x="572.5" y="-13" font-family="Helvetica,sans-Serif" font-size="10.00">ti/common/sys_common.h</text>
</a>
</g>
</g>
<!-- Node1&#45;&gt;Node8 -->
<g id="edge7" class="edge"><title>Node1&#45;&gt;Node8</title>
<path fill="none" stroke="midnightblue" d="M404.847,-134.315C418.321,-125.45 439.636,-111.162 457.5,-98 475.326,-84.8656 478.596,-80.0278 496.5,-67 514.109,-54.1868 534.721,-40.5727 550.034,-30.7126"/>
<polygon fill="midnightblue" stroke="midnightblue" points="552.271,-33.4363 558.809,-25.0991 548.499,-27.5396 552.271,-33.4363"/>
</g>
<!-- Node9 -->
<g id="node9" class="node"><title>Node9</title>
<g id="a_node9"><a xlink:title=" ">
<polygon fill="white" stroke="#bfbfbf" points="505,-73 505,-92 614,-92 614,-73 505,-73"/>
<text text-anchor="middle" x="559.5" y="-80" font-family="Helvetica,sans-Serif" font-size="10.00">ti/drivers/uart/UART.h</text>
</a>
</g>
</g>
<!-- Node1&#45;&gt;Node9 -->
<g id="edge8" class="edge"><title>Node1&#45;&gt;Node9</title>
<path fill="none" stroke="midnightblue" d="M415.57,-134.475C444.513,-124.225 493.262,-106.959 525.902,-95.3994"/>
<polygon fill="midnightblue" stroke="midnightblue" points="527.217,-98.6468 535.474,-92.0091 524.88,-92.0484 527.217,-98.6468"/>
</g>
<!-- Node10 -->
<g id="node10" class="node"><title>Node10</title>
<g id="a_node10"><a xlink:title=" ">
<polygon fill="white" stroke="#bfbfbf" points="632.5,-67.5 632.5,-97.5 742.5,-97.5 742.5,-67.5 632.5,-67.5"/>
<text text-anchor="start" x="640.5" y="-85.5" font-family="Helvetica,sans-Serif" font-size="10.00">ti/control/mmwavelink</text>
<text text-anchor="middle" x="687.5" y="-74.5" font-family="Helvetica,sans-Serif" font-size="10.00">/mmwavelink.h</text>
</a>
</g>
</g>
<!-- Node1&#45;&gt;Node10 -->
<g id="edge9" class="edge"><title>Node1&#45;&gt;Node10</title>
<path fill="none" stroke="midnightblue" d="M430.571,-135.807C474.758,-127.586 549.109,-113.499 622.49,-98.1769"/>
<polygon fill="midnightblue" stroke="midnightblue" points="623.297,-101.584 632.366,-96.1061 621.86,-94.7329 623.297,-101.584"/>
</g>
<!-- Node11 -->
<g id="node11" class="node"><title>Node11</title>
<g id="a_node11"><a xlink:title=" ">
<polygon fill="white" stroke="#bfbfbf" points="761,-73 761,-92 838,-92 838,-73 761,-73"/>
<text text-anchor="middle" x="799.5" y="-80" font-family="Helvetica,sans-Serif" font-size="10.00">ti/utils/cli/cli.h</text>
</a>
</g>
</g>
<!-- Node1&#45;&gt;Node11 -->
<g id="edge10" class="edge"><title>Node1&#45;&gt;Node11</title>
<path fill="none" stroke="midnightblue" d="M430.749,-140.277C497.296,-135.176 636.275,-122.422 751.5,-98 755.668,-97.1167 759.996,-96.0412 764.271,-94.8793"/>
<polygon fill="midnightblue" stroke="midnightblue" points="765.41,-98.1936 774.05,-92.0612 763.472,-91.4673 765.41,-98.1936"/>
</g>
<!-- Node12 -->
<g id="node12" class="node"><title>Node12</title>
<g id="a_node12"><a xlink:href="mrr__config__consts_8h.html" target="_top" xlink:title=" ">
<polygon fill="white" stroke="black" points="856.5,-73 856.5,-92 960.5,-92 960.5,-73 856.5,-73"/>
<text text-anchor="middle" x="908.5" y="-80" font-family="Helvetica,sans-Serif" font-size="10.00">mrr_config_consts.h</text>
</a>
</g>
</g>
<!-- Node1&#45;&gt;Node12 -->
<g id="edge11" class="edge"><title>Node1&#45;&gt;Node12</title>
<path fill="none" stroke="midnightblue" d="M430.773,-140.915C510.01,-136.316 694.504,-123.613 847.5,-98 853.484,-96.9983 859.753,-95.7455 865.9,-94.3984"/>
<polygon fill="midnightblue" stroke="midnightblue" points="867.093,-97.7158 876.059,-92.0699 865.529,-90.8927 867.093,-97.7158"/>
</g>
<!-- Node12&#45;&gt;Node8 -->
<g id="edge13" class="edge"><title>Node12&#45;&gt;Node8</title>
<path fill="none" stroke="midnightblue" d="M874.052,-72.9827C865.403,-70.935 856.128,-68.8164 847.5,-67 774.164,-51.5611 689.263,-36.3766 633.419,-26.755"/>
<polygon fill="midnightblue" stroke="midnightblue" points="633.787,-23.2671 623.339,-25.0244 632.603,-30.1662 633.787,-23.2671"/>
</g>
<!-- Node13 -->
<g id="node13" class="node"><title>Node13</title>
<g id="a_node13"><a xlink:href="mrr__defines_8h.html" target="_top" xlink:title=" ">
<polygon fill="white" stroke="black" points="754,-6 754,-25 829,-25 829,-6 754,-6"/>
<text text-anchor="middle" x="791.5" y="-13" font-family="Helvetica,sans-Serif" font-size="10.00">mrr_defines.h</text>
</a>
</g>
</g>
<!-- Node12&#45;&gt;Node13 -->
<g id="edge12" class="edge"><title>Node12&#45;&gt;Node13</title>
<path fill="none" stroke="midnightblue" d="M892.721,-72.7338C872.985,-61.7695 838.986,-42.8809 815.889,-30.0495"/>
<polygon fill="midnightblue" stroke="midnightblue" points="817.47,-26.9242 807.029,-25.1273 814.071,-33.0433 817.47,-26.9242"/>
</g>
<!-- Node14 -->
<g id="node14" class="node"><title>Node14</title>
<g id="a_node14"><a xlink:href="mrr__config__chirp__design___m_r_r120_8h.html" target="_top" xlink:title=" ">
<polygon fill="white" stroke="black" points="847.5,-0.5 847.5,-30.5 969.5,-30.5 969.5,-0.5 847.5,-0.5"/>
<text text-anchor="start" x="855.5" y="-18.5" font-family="Helvetica,sans-Serif" font-size="10.00">mrr_config_chirp_design</text>
<text text-anchor="middle" x="908.5" y="-7.5" font-family="Helvetica,sans-Serif" font-size="10.00">_MRR120.h</text>
</a>
</g>
</g>
<!-- Node12&#45;&gt;Node14 -->
<g id="edge14" class="edge"><title>Node12&#45;&gt;Node14</title>
<path fill="none" stroke="midnightblue" d="M908.5,-72.7338C908.5,-64.5406 908.5,-51.9225 908.5,-40.7136"/>
<polygon fill="midnightblue" stroke="midnightblue" points="912,-40.589 908.5,-30.589 905,-40.5891 912,-40.589"/>
</g>
<!-- Node15 -->
<g id="node15" class="node"><title>Node15</title>
<g id="a_node15"><a xlink:href="mrr__config__chirp__design___u_s_r_r30_8h.html" target="_top" xlink:title=" ">
<polygon fill="white" stroke="black" points="987.5,-0.5 987.5,-30.5 1109.5,-30.5 1109.5,-0.5 987.5,-0.5"/>
<text text-anchor="start" x="995.5" y="-18.5" font-family="Helvetica,sans-Serif" font-size="10.00">mrr_config_chirp_design</text>
<text text-anchor="middle" x="1048.5" y="-7.5" font-family="Helvetica,sans-Serif" font-size="10.00">_USRR30.h</text>
</a>
</g>
</g>
<!-- Node12&#45;&gt;Node15 -->
<g id="edge15" class="edge"><title>Node12&#45;&gt;Node15</title>
<path fill="none" stroke="midnightblue" d="M927.091,-72.8685C947.917,-63.1995 982.272,-47.2486 1009.13,-34.778"/>
<polygon fill="midnightblue" stroke="midnightblue" points="1010.69,-37.9138 1018.29,-30.5281 1007.74,-31.5647 1010.69,-37.9138"/>
</g>
</g>
</svg>
