<?xml version="1.0" encoding="UTF-8" standalone="no"?>
<!DOCTYPE svg PUBLIC "-//W3C//DTD SVG 1.1//EN"
 "http://www.w3.org/Graphics/SVG/1.1/DTD/svg11.dtd">
<!-- Generated by graphviz version 2.38.0 (20140413.2041)
 -->
<!-- Title: common/frame_cfg.c Pages: 1 -->
<svg width="1118pt" height="162pt"
 viewBox="0.00 0.00 1117.50 162.00" xmlns="http://www.w3.org/2000/svg" xmlns:xlink="http://www.w3.org/1999/xlink">
<g id="graph0" class="graph" transform="scale(1 1) rotate(0) translate(4 158)">
<title>common/frame_cfg.c</title>
<polygon fill="white" stroke="none" points="-4,4 -4,-158 1113.5,-158 1113.5,4 -4,4"/>
<!-- Node1 -->
<g id="node1" class="node"><title>Node1</title>
<g id="a_node1"><a xlink:title=" ">
<polygon fill="#bfbfbf" stroke="black" points="484.5,-134.5 484.5,-153.5 591.5,-153.5 591.5,-134.5 484.5,-134.5"/>
<text text-anchor="middle" x="538" y="-141.5" font-family="Helvetica,sans-Serif" font-size="10.00">common/frame_cfg.c</text>
</a>
</g>
</g>
<!-- Node2 -->
<g id="node2" class="node"><title>Node2</title>
<g id="a_node2"><a xlink:href="app__cfg_8h.html" target="_top" xlink:title=" ">
<polygon fill="white" stroke="black" points="119.5,-73 119.5,-92 218.5,-92 218.5,-73 119.5,-73"/>
<text text-anchor="middle" x="169" y="-80" font-family="Helvetica,sans-Serif" font-size="10.00">common/app_cfg.h</text>
</a>
</g>
</g>
<!-- Node1&#45;&gt;Node2 -->
<g id="edge1" class="edge"><title>Node1&#45;&gt;Node2</title>
<path fill="none" stroke="midnightblue" d="M485.131,-134.475C417.228,-123.526 299.689,-104.573 228.656,-93.1192"/>
<polygon fill="midnightblue" stroke="midnightblue" points="228.954,-89.6222 218.524,-91.4856 227.839,-96.5329 228.954,-89.6222"/>
</g>
<!-- Node4 -->
<g id="node4" class="node"><title>Node4</title>
<g id="a_node4"><a xlink:title=" ">
<polygon fill="white" stroke="#bfbfbf" points="234,-6 234,-25 366,-25 366,-6 234,-6"/>
<text text-anchor="middle" x="300" y="-13" font-family="Helvetica,sans-Serif" font-size="10.00">ti/common/sys_common.h</text>
</a>
</g>
</g>
<!-- Node1&#45;&gt;Node4 -->
<g id="edge11" class="edge"><title>Node1&#45;&gt;Node4</title>
<path fill="none" stroke="midnightblue" d="M484.307,-140.369C422.048,-136.074 325.001,-125.117 302,-98 287.374,-80.7571 290.223,-53.2976 294.433,-35.0868"/>
<polygon fill="midnightblue" stroke="midnightblue" points="297.835,-35.9118 297.017,-25.3487 291.069,-34.1168 297.835,-35.9118"/>
</g>
<!-- Node6 -->
<g id="node6" class="node"><title>Node6</title>
<g id="a_node6"><a xlink:title=" ">
<polygon fill="white" stroke="#bfbfbf" points="310.5,-73 310.5,-92 359.5,-92 359.5,-73 310.5,-73"/>
<text text-anchor="middle" x="335" y="-80" font-family="Helvetica,sans-Serif" font-size="10.00">stdint.h</text>
</a>
</g>
</g>
<!-- Node1&#45;&gt;Node6 -->
<g id="edge5" class="edge"><title>Node1&#45;&gt;Node6</title>
<path fill="none" stroke="midnightblue" d="M499.61,-134.434C465.048,-126.332 413.066,-113.176 369,-98 367.134,-97.3574 365.226,-96.6601 363.313,-95.9303"/>
<polygon fill="midnightblue" stroke="midnightblue" points="364.457,-92.6177 353.874,-92.1152 361.834,-99.1076 364.457,-92.6177"/>
</g>
<!-- Node7 -->
<g id="node7" class="node"><title>Node7</title>
<g id="a_node7"><a xlink:title=" ">
<polygon fill="white" stroke="#bfbfbf" points="378,-73 378,-92 426,-92 426,-73 378,-73"/>
<text text-anchor="middle" x="402" y="-80" font-family="Helvetica,sans-Serif" font-size="10.00">stdlib.h</text>
</a>
</g>
</g>
<!-- Node1&#45;&gt;Node7 -->
<g id="edge6" class="edge"><title>Node1&#45;&gt;Node7</title>
<path fill="none" stroke="midnightblue" d="M518.515,-134.475C495.59,-124.445 457.315,-107.7 430.925,-96.1546"/>
<polygon fill="midnightblue" stroke="midnightblue" points="432.014,-92.8108 421.449,-92.0091 429.208,-99.2239 432.014,-92.8108"/>
</g>
<!-- Node8 -->
<g id="node8" class="node"><title>Node8</title>
<g id="a_node8"><a xlink:title=" ">
<polygon fill="white" stroke="#bfbfbf" points="444.5,-73 444.5,-92 495.5,-92 495.5,-73 444.5,-73"/>
<text text-anchor="middle" x="470" y="-80" font-family="Helvetica,sans-Serif" font-size="10.00">stddef.h</text>
</a>
</g>
</g>
<!-- Node1&#45;&gt;Node8 -->
<g id="edge7" class="edge"><title>Node1&#45;&gt;Node8</title>
<path fill="none" stroke="midnightblue" d="M528.257,-134.475C517.653,-125.197 500.481,-110.171 487.521,-98.831"/>
<polygon fill="midnightblue" stroke="midnightblue" points="489.555,-95.9601 479.725,-92.0091 484.946,-101.228 489.555,-95.9601"/>
</g>
<!-- Node9 -->
<g id="node9" class="node"><title>Node9</title>
<g id="a_node9"><a xlink:title=" ">
<polygon fill="white" stroke="#bfbfbf" points="513.5,-73 513.5,-92 562.5,-92 562.5,-73 513.5,-73"/>
<text text-anchor="middle" x="538" y="-80" font-family="Helvetica,sans-Serif" font-size="10.00">string.h</text>
</a>
</g>
</g>
<!-- Node1&#45;&gt;Node9 -->
<g id="edge8" class="edge"><title>Node1&#45;&gt;Node9</title>
<path fill="none" stroke="midnightblue" d="M538,-134.475C538,-126.08 538,-112.981 538,-102.163"/>
<polygon fill="midnightblue" stroke="midnightblue" points="541.5,-102.009 538,-92.0091 534.5,-102.009 541.5,-102.009"/>
</g>
<!-- Node10 -->
<g id="node10" class="node"><title>Node10</title>
<g id="a_node10"><a xlink:title=" ">
<polygon fill="white" stroke="#bfbfbf" points="581,-73 581,-92 627,-92 627,-73 581,-73"/>
<text text-anchor="middle" x="604" y="-80" font-family="Helvetica,sans-Serif" font-size="10.00">stdio.h</text>
</a>
</g>
</g>
<!-- Node1&#45;&gt;Node10 -->
<g id="edge9" class="edge"><title>Node1&#45;&gt;Node10</title>
<path fill="none" stroke="midnightblue" d="M547.456,-134.475C557.748,-125.197 574.416,-110.171 586.994,-98.831"/>
<polygon fill="midnightblue" stroke="midnightblue" points="589.478,-101.305 594.561,-92.0091 584.79,-96.1054 589.478,-101.305"/>
</g>
<!-- Node11 -->
<g id="node11" class="node"><title>Node11</title>
<g id="a_node11"><a xlink:title=" ">
<polygon fill="white" stroke="#bfbfbf" points="645.5,-73 645.5,-92 758.5,-92 758.5,-73 645.5,-73"/>
<text text-anchor="middle" x="702" y="-80" font-family="Helvetica,sans-Serif" font-size="10.00">xdc/runtime/System.h</text>
</a>
</g>
</g>
<!-- Node1&#45;&gt;Node11 -->
<g id="edge10" class="edge"><title>Node1&#45;&gt;Node11</title>
<path fill="none" stroke="midnightblue" d="M561.497,-134.475C589.629,-124.269 636.929,-107.108 668.789,-95.5492"/>
<polygon fill="midnightblue" stroke="midnightblue" points="670.34,-98.7098 678.546,-92.0091 667.952,-92.1295 670.34,-98.7098"/>
</g>
<!-- Node12 -->
<g id="node12" class="node"><title>Node12</title>
<g id="a_node12"><a xlink:title=" ">
<polygon fill="white" stroke="#bfbfbf" points="776.5,-73 776.5,-92 885.5,-92 885.5,-73 776.5,-73"/>
<text text-anchor="middle" x="831" y="-80" font-family="Helvetica,sans-Serif" font-size="10.00">ti/drivers/uart/UART.h</text>
</a>
</g>
</g>
<!-- Node1&#45;&gt;Node12 -->
<g id="edge12" class="edge"><title>Node1&#45;&gt;Node12</title>
<path fill="none" stroke="midnightblue" d="M583.911,-134.479C630.401,-125.743 704.326,-111.553 768,-98 773.42,-96.8463 779.093,-95.5983 784.72,-94.3352"/>
<polygon fill="midnightblue" stroke="midnightblue" points="785.756,-97.6892 794.733,-92.0625 784.206,-90.8628 785.756,-97.6892"/>
</g>
<!-- Node13 -->
<g id="node13" class="node"><title>Node13</title>
<g id="a_node13"><a xlink:title=" ">
<polygon fill="white" stroke="#bfbfbf" points="904,-67.5 904,-97.5 1014,-97.5 1014,-67.5 904,-67.5"/>
<text text-anchor="start" x="912" y="-85.5" font-family="Helvetica,sans-Serif" font-size="10.00">ti/control/mmwavelink</text>
<text text-anchor="middle" x="959" y="-74.5" font-family="Helvetica,sans-Serif" font-size="10.00">/mmwavelink.h</text>
</a>
</g>
</g>
<!-- Node1&#45;&gt;Node13 -->
<g id="edge13" class="edge"><title>Node1&#45;&gt;Node13</title>
<path fill="none" stroke="midnightblue" d="M591.771,-137.872C659.872,-131.01 780.994,-117.589 894.048,-98.0621"/>
<polygon fill="midnightblue" stroke="midnightblue" points="894.662,-101.508 903.911,-96.3392 893.458,-94.6123 894.662,-101.508"/>
</g>
<!-- Node14 -->
<g id="node14" class="node"><title>Node14</title>
<g id="a_node14"><a xlink:title=" ">
<polygon fill="white" stroke="#bfbfbf" points="1032.5,-73 1032.5,-92 1109.5,-92 1109.5,-73 1032.5,-73"/>
<text text-anchor="middle" x="1071" y="-80" font-family="Helvetica,sans-Serif" font-size="10.00">ti/utils/cli/cli.h</text>
</a>
</g>
</g>
<!-- Node1&#45;&gt;Node14 -->
<g id="edge14" class="edge"><title>Node1&#45;&gt;Node14</title>
<path fill="none" stroke="midnightblue" d="M591.605,-141.537C681.551,-138.303 868.216,-128.241 1023,-98 1027.23,-97.1737 1031.62,-96.1249 1035.95,-94.9704"/>
<polygon fill="midnightblue" stroke="midnightblue" points="1037.18,-98.2576 1045.83,-92.14 1035.25,-91.528 1037.18,-98.2576"/>
</g>
<!-- Node3 -->
<g id="node3" class="node"><title>Node3</title>
<g id="a_node3"><a xlink:href="device__cfg_8h.html" target="_top" xlink:title="This file holds constants related to the system chirp configuration as well as the calling the profil...">
<polygon fill="white" stroke="black" points="0,-6 0,-25 70,-25 70,-6 0,-6"/>
<text text-anchor="middle" x="35" y="-13" font-family="Helvetica,sans-Serif" font-size="10.00">device_cfg.h</text>
</a>
</g>
</g>
<!-- Node2&#45;&gt;Node3 -->
<g id="edge2" class="edge"><title>Node2&#45;&gt;Node3</title>
<path fill="none" stroke="midnightblue" d="M151.206,-72.8685C128.38,-61.7961 88.5716,-42.4862 62.0017,-29.5978"/>
<polygon fill="midnightblue" stroke="midnightblue" points="63.3927,-26.3826 52.8678,-25.1672 60.3376,-32.6807 63.3927,-26.3826"/>
</g>
<!-- Node2&#45;&gt;Node4 -->
<g id="edge3" class="edge"><title>Node2&#45;&gt;Node4</title>
<path fill="none" stroke="midnightblue" d="M186.396,-72.8685C208.613,-61.8447 247.287,-42.6554 273.26,-29.7678"/>
<polygon fill="midnightblue" stroke="midnightblue" points="275.13,-32.7473 282.532,-25.1672 272.019,-26.4767 275.13,-32.7473"/>
</g>
<!-- Node5 -->
<g id="node5" class="node"><title>Node5</title>
<g id="a_node5"><a xlink:href="config__chirp__design___u_s_r_r30_8h.html" target="_top" xlink:title=" ">
<polygon fill="white" stroke="black" points="88,-0.5 88,-30.5 216,-30.5 216,-0.5 88,-0.5"/>
<text text-anchor="start" x="96" y="-18.5" font-family="Helvetica,sans-Serif" font-size="10.00">common/profiles/config</text>
<text text-anchor="middle" x="152" y="-7.5" font-family="Helvetica,sans-Serif" font-size="10.00">_chirp_design_USRR30.h</text>
</a>
</g>
</g>
<!-- Node2&#45;&gt;Node5 -->
<g id="edge4" class="edge"><title>Node2&#45;&gt;Node5</title>
<path fill="none" stroke="midnightblue" d="M166.707,-72.7338C164.542,-64.4561 161.196,-51.6619 158.242,-40.3674"/>
<polygon fill="midnightblue" stroke="midnightblue" points="161.601,-39.378 155.685,-30.589 154.829,-41.1492 161.601,-39.378"/>
</g>
</g>
</svg>
