<?xml version="1.0" encoding="UTF-8" standalone="no"?>
<!DOCTYPE svg PUBLIC "-//W3C//DTD SVG 1.1//EN"
 "http://www.w3.org/Graphics/SVG/1.1/DTD/svg11.dtd">
<!-- Generated by graphviz version 2.38.0 (20140413.2041)
 -->
<!-- Title: common/mmWave_XSS.h Pages: 1 -->
<svg width="156pt" height="84pt"
 viewBox="0.00 0.00 155.50 84.00" xmlns="http://www.w3.org/2000/svg" xmlns:xlink="http://www.w3.org/1999/xlink">
<g id="graph0" class="graph" transform="scale(1 1) rotate(0) translate(4 80)">
<title>common/mmWave_XSS.h</title>
<polygon fill="white" stroke="none" points="-4,4 -4,-80 151.5,-80 151.5,4 -4,4"/>
<!-- Node1 -->
<g id="node1" class="node"><title>Node1</title>
<g id="a_node1"><a xlink:title=" ">
<polygon fill="#bfbfbf" stroke="black" points="5.5,-56.5 5.5,-75.5 135.5,-75.5 135.5,-56.5 5.5,-56.5"/>
<text text-anchor="middle" x="70.5" y="-63.5" font-family="Helvetica,sans-Serif" font-size="10.00">common/mmWave_XSS.h</text>
</a>
</g>
</g>
<!-- Node2 -->
<g id="node2" class="node"><title>Node2</title>
<g id="a_node2"><a xlink:href="mss__cli_8c.html" target="_top" xlink:title=" ">
<polygon fill="white" stroke="black" points="0,-0.5 0,-19.5 59,-19.5 59,-0.5 0,-0.5"/>
<text text-anchor="middle" x="29.5" y="-7.5" font-family="Helvetica,sans-Serif" font-size="10.00">mss_cli.c</text>
</a>
</g>
</g>
<!-- Node1&#45;&gt;Node2 -->
<g id="edge1" class="edge"><title>Node1&#45;&gt;Node2</title>
<path fill="none" stroke="midnightblue" d="M57.4828,-47.8554C50.3833,-38.5048 41.896,-27.3265 36.1443,-19.7511"/>
<polygon fill="midnightblue" stroke="midnightblue" points="54.895,-50.235 63.7297,-56.083 60.4701,-46.002 54.895,-50.235"/>
</g>
<!-- Node3 -->
<g id="node3" class="node"><title>Node3</title>
<g id="a_node3"><a xlink:href="mss__main_8c.html" target="_top" xlink:title=" ">
<polygon fill="white" stroke="black" points="77.5,-0.5 77.5,-19.5 147.5,-19.5 147.5,-0.5 77.5,-0.5"/>
<text text-anchor="middle" x="112.5" y="-7.5" font-family="Helvetica,sans-Serif" font-size="10.00">mss_main.c</text>
</a>
</g>
</g>
<!-- Node1&#45;&gt;Node3 -->
<g id="edge2" class="edge"><title>Node1&#45;&gt;Node3</title>
<path fill="none" stroke="midnightblue" d="M83.6102,-48.144C90.9278,-38.7357 99.7409,-27.4046 105.694,-19.7511"/>
<polygon fill="midnightblue" stroke="midnightblue" points="80.8122,-46.0406 77.4354,-56.083 86.3376,-50.3383 80.8122,-46.0406"/>
</g>
</g>
</svg>
