<?xml version="1.0" encoding="UTF-8" standalone="no"?>
<!DOCTYPE svg PUBLIC "-//W3C//DTD SVG 1.1//EN"
 "http://www.w3.org/Graphics/SVG/1.1/DTD/svg11.dtd">
<!-- Generated by graphviz version 2.38.0 (20140413.2041)
 -->
<!-- Title: mmWave_XSS.h Pages: 1 -->
<svg width="1994pt" height="95pt"
 viewBox="0.00 0.00 1993.50 95.00" xmlns="http://www.w3.org/2000/svg" xmlns:xlink="http://www.w3.org/1999/xlink">
<g id="graph0" class="graph" transform="scale(1 1) rotate(0) translate(4 91)">
<title>mmWave_XSS.h</title>
<polygon fill="white" stroke="none" points="-4,4 -4,-91 1989.5,-91 1989.5,4 -4,4"/>
<!-- Node1 -->
<g id="node1" class="node"><title>Node1</title>
<g id="a_node1"><a xlink:title=" ">
<polygon fill="#bfbfbf" stroke="black" points="914.5,-67.5 914.5,-86.5 1003.5,-86.5 1003.5,-67.5 914.5,-67.5"/>
<text text-anchor="middle" x="959" y="-74.5" font-family="Helvetica,sans-Serif" font-size="10.00">mmWave_XSS.h</text>
</a>
</g>
</g>
<!-- Node2 -->
<g id="node2" class="node"><title>Node2</title>
<g id="a_node2"><a xlink:title=" ">
<polygon fill="white" stroke="#bfbfbf" points="0,-6 0,-25 136,-25 136,-6 0,-6"/>
<text text-anchor="middle" x="68" y="-13" font-family="Helvetica,sans-Serif" font-size="10.00">ti/common/mmwave_error.h</text>
</a>
</g>
</g>
<!-- Node1&#45;&gt;Node2 -->
<g id="edge1" class="edge"><title>Node1&#45;&gt;Node2</title>
<path fill="none" stroke="midnightblue" d="M914.26,-75.5793C791.109,-73.9792 436.901,-66.3984 145,-31 136.17,-29.9292 126.826,-28.4593 117.809,-26.8642"/>
<polygon fill="midnightblue" stroke="midnightblue" points="118.278,-23.3919 107.81,-25.0245 117.012,-30.2764 118.278,-23.3919"/>
</g>
<!-- Node3 -->
<g id="node3" class="node"><title>Node3</title>
<g id="a_node3"><a xlink:title=" ">
<polygon fill="white" stroke="#bfbfbf" points="154,-6 154,-25 252,-25 252,-6 154,-6"/>
<text text-anchor="middle" x="203" y="-13" font-family="Helvetica,sans-Serif" font-size="10.00">ti/drivers/soc/soc.h</text>
</a>
</g>
</g>
<!-- Node1&#45;&gt;Node3 -->
<g id="edge2" class="edge"><title>Node1&#45;&gt;Node3</title>
<path fill="none" stroke="midnightblue" d="M914.19,-75.9052C802.942,-75.0654 505.464,-69.1181 261,-31 255.087,-30.078 248.896,-28.8359 242.851,-27.4645"/>
<polygon fill="midnightblue" stroke="midnightblue" points="243.433,-24.0048 232.892,-25.0683 241.796,-30.8105 243.433,-24.0048"/>
</g>
<!-- Node4 -->
<g id="node4" class="node"><title>Node4</title>
<g id="a_node4"><a xlink:title=" ">
<polygon fill="white" stroke="#bfbfbf" points="270,-6 270,-25 364,-25 364,-6 270,-6"/>
<text text-anchor="middle" x="317" y="-13" font-family="Helvetica,sans-Serif" font-size="10.00">ti/drivers/crc/crc.h</text>
</a>
</g>
</g>
<!-- Node1&#45;&gt;Node4 -->
<g id="edge3" class="edge"><title>Node1&#45;&gt;Node4</title>
<path fill="none" stroke="midnightblue" d="M914.201,-75.2527C815.681,-73.0221 573.041,-64.3102 373,-31 367.428,-30.0721 361.6,-28.8519 355.899,-27.5127"/>
<polygon fill="midnightblue" stroke="midnightblue" points="356.405,-24.0319 345.856,-25.0109 354.713,-30.8243 356.405,-24.0319"/>
</g>
<!-- Node5 -->
<g id="node5" class="node"><title>Node5</title>
<g id="a_node5"><a xlink:title=" ">
<polygon fill="white" stroke="#bfbfbf" points="382.5,-6 382.5,-25 491.5,-25 491.5,-6 382.5,-6"/>
<text text-anchor="middle" x="437" y="-13" font-family="Helvetica,sans-Serif" font-size="10.00">ti/drivers/uart/UART.h</text>
</a>
</g>
</g>
<!-- Node1&#45;&gt;Node5 -->
<g id="edge4" class="edge"><title>Node1&#45;&gt;Node5</title>
<path fill="none" stroke="midnightblue" d="M914.227,-73.463C831.974,-68.3898 651.447,-55.3363 501,-31 494.579,-29.9613 487.839,-28.6647 481.241,-27.2769"/>
<polygon fill="midnightblue" stroke="midnightblue" points="481.574,-23.767 471.057,-25.045 480.076,-30.6047 481.574,-23.767"/>
</g>
<!-- Node6 -->
<g id="node6" class="node"><title>Node6</title>
<g id="a_node6"><a xlink:title=" ">
<polygon fill="white" stroke="#bfbfbf" points="510,-6 510,-25 640,-25 640,-6 510,-6"/>
<text text-anchor="middle" x="575" y="-13" font-family="Helvetica,sans-Serif" font-size="10.00">ti/drivers/pinmux/pinmux.h</text>
</a>
</g>
</g>
<!-- Node1&#45;&gt;Node6 -->
<g id="edge5" class="edge"><title>Node1&#45;&gt;Node6</title>
<path fill="none" stroke="midnightblue" d="M914.486,-70.2407C854.179,-62.2777 743.22,-47.0595 649,-31 641.813,-29.775 634.252,-28.3969 626.818,-26.9902"/>
<polygon fill="midnightblue" stroke="midnightblue" points="627.289,-23.5167 616.808,-25.0659 625.968,-30.3909 627.289,-23.5167"/>
</g>
<!-- Node7 -->
<g id="node7" class="node"><title>Node7</title>
<g id="a_node7"><a xlink:title=" ">
<polygon fill="white" stroke="#bfbfbf" points="658,-6 658,-25 762,-25 762,-6 658,-6"/>
<text text-anchor="middle" x="710" y="-13" font-family="Helvetica,sans-Serif" font-size="10.00">ti/drivers/esm/esm.h</text>
</a>
</g>
</g>
<!-- Node1&#45;&gt;Node7 -->
<g id="edge6" class="edge"><title>Node1&#45;&gt;Node7</title>
<path fill="none" stroke="midnightblue" d="M923.324,-67.4751C879.133,-56.9153 803.787,-38.911 755.485,-27.3689"/>
<polygon fill="midnightblue" stroke="midnightblue" points="756.149,-23.9291 745.609,-25.0091 754.522,-30.7374 756.149,-23.9291"/>
</g>
<!-- Node8 -->
<g id="node8" class="node"><title>Node8</title>
<g id="a_node8"><a xlink:title=" ">
<polygon fill="white" stroke="#bfbfbf" points="780.5,-0.5 780.5,-30.5 869.5,-30.5 869.5,-0.5 780.5,-0.5"/>
<text text-anchor="start" x="788.5" y="-18.5" font-family="Helvetica,sans-Serif" font-size="10.00">ti/drivers/mailbox</text>
<text text-anchor="middle" x="825" y="-7.5" font-family="Helvetica,sans-Serif" font-size="10.00">/mailbox.h</text>
</a>
</g>
</g>
<!-- Node1&#45;&gt;Node8 -->
<g id="edge7" class="edge"><title>Node1&#45;&gt;Node8</title>
<path fill="none" stroke="midnightblue" d="M939.801,-67.4751C920.635,-58.9648 890.58,-45.6193 866.029,-34.718"/>
<polygon fill="midnightblue" stroke="midnightblue" points="867.141,-31.3824 856.581,-30.523 864.3,-37.7801 867.141,-31.3824"/>
</g>
<!-- Node9 -->
<g id="node9" class="node"><title>Node9</title>
<g id="a_node9"><a xlink:title=" ">
<polygon fill="white" stroke="#bfbfbf" points="887.5,-6 887.5,-25 1030.5,-25 1030.5,-6 887.5,-6"/>
<text text-anchor="middle" x="959" y="-13" font-family="Helvetica,sans-Serif" font-size="10.00">ti/control/mmwave/mmwave.h</text>
</a>
</g>
</g>
<!-- Node1&#45;&gt;Node9 -->
<g id="edge8" class="edge"><title>Node1&#45;&gt;Node9</title>
<path fill="none" stroke="midnightblue" d="M959,-67.4751C959,-59.0803 959,-45.9806 959,-35.1631"/>
<polygon fill="midnightblue" stroke="midnightblue" points="962.5,-35.0091 959,-25.0091 955.5,-35.0091 962.5,-35.0091"/>
</g>
<!-- Node10 -->
<g id="node10" class="node"><title>Node10</title>
<g id="a_node10"><a xlink:title=" ">
<polygon fill="white" stroke="#bfbfbf" points="1048.5,-6 1048.5,-25 1155.5,-25 1155.5,-6 1048.5,-6"/>
<text text-anchor="middle" x="1102" y="-13" font-family="Helvetica,sans-Serif" font-size="10.00">ti/drivers/cbuff/cbuff.h</text>
</a>
</g>
</g>
<!-- Node1&#45;&gt;Node10 -->
<g id="edge9" class="edge"><title>Node1&#45;&gt;Node10</title>
<path fill="none" stroke="midnightblue" d="M979.488,-67.4751C1003.81,-57.3571 1044.55,-40.4046 1072.32,-28.8507"/>
<polygon fill="midnightblue" stroke="midnightblue" points="1073.66,-32.0822 1081.55,-25.0091 1070.97,-25.6193 1073.66,-32.0822"/>
</g>
<!-- Node11 -->
<g id="node11" class="node"><title>Node11</title>
<g id="a_node11"><a xlink:title=" ">
<polygon fill="white" stroke="#bfbfbf" points="1174,-6 1174,-25 1304,-25 1304,-6 1174,-6"/>
<text text-anchor="middle" x="1239" y="-13" font-family="Helvetica,sans-Serif" font-size="10.00">ti/drivers/adcbuf/ADCBuf.h</text>
</a>
</g>
</g>
<!-- Node1&#45;&gt;Node11 -->
<g id="edge10" class="edge"><title>Node1&#45;&gt;Node11</title>
<path fill="none" stroke="midnightblue" d="M999.117,-67.4751C1049.12,-56.849 1134.6,-38.6847 1188.87,-27.1524"/>
<polygon fill="midnightblue" stroke="midnightblue" points="1189.9,-30.5113 1198.96,-25.0091 1188.45,-23.6642 1189.9,-30.5113"/>
</g>
<!-- Node12 -->
<g id="node12" class="node"><title>Node12</title>
<g id="a_node12"><a xlink:title=" ">
<polygon fill="white" stroke="#bfbfbf" points="1322.5,-6 1322.5,-25 1437.5,-25 1437.5,-6 1322.5,-6"/>
<text text-anchor="middle" x="1380" y="-13" font-family="Helvetica,sans-Serif" font-size="10.00">ti/drivers/edma/edma.h</text>
</a>
</g>
</g>
<!-- Node1&#45;&gt;Node12 -->
<g id="edge11" class="edge"><title>Node1&#45;&gt;Node12</title>
<path fill="none" stroke="midnightblue" d="M1003.61,-71.5836C1070.92,-64.6377 1202.32,-49.9737 1313,-31 1319.62,-29.8651 1326.58,-28.5258 1333.4,-27.1275"/>
<polygon fill="midnightblue" stroke="midnightblue" points="1334.19,-30.5391 1343.25,-25.0534 1332.74,-23.6894 1334.19,-30.5391"/>
</g>
<!-- Node13 -->
<g id="node13" class="node"><title>Node13</title>
<g id="a_node13"><a xlink:title=" ">
<polygon fill="white" stroke="#bfbfbf" points="1455.5,-6 1455.5,-25 1574.5,-25 1574.5,-6 1455.5,-6"/>
<text text-anchor="middle" x="1515" y="-13" font-family="Helvetica,sans-Serif" font-size="10.00">ti/drivers/osal/DebugP.h</text>
</a>
</g>
</g>
<!-- Node1&#45;&gt;Node13 -->
<g id="edge12" class="edge"><title>Node1&#45;&gt;Node13</title>
<path fill="none" stroke="midnightblue" d="M1003.62,-73.654C1089.73,-68.7362 1284.66,-55.7046 1447,-31 1454.14,-29.9138 1461.65,-28.5436 1468.98,-27.0814"/>
<polygon fill="midnightblue" stroke="midnightblue" points="1469.71,-30.5033 1478.8,-25.0486 1468.29,-23.6487 1469.71,-30.5033"/>
</g>
<!-- Node14 -->
<g id="node14" class="node"><title>Node14</title>
<g id="a_node14"><a xlink:title=" ">
<polygon fill="white" stroke="#bfbfbf" points="1592.5,-6 1592.5,-25 1727.5,-25 1727.5,-6 1592.5,-6"/>
<text text-anchor="middle" x="1660" y="-13" font-family="Helvetica,sans-Serif" font-size="10.00">ti/sysbios/knl/Semaphore.h</text>
</a>
</g>
</g>
<!-- Node1&#45;&gt;Node14 -->
<g id="edge13" class="edge"><title>Node1&#45;&gt;Node14</title>
<path fill="none" stroke="midnightblue" d="M1003.51,-74.5787C1106.2,-70.9111 1367.46,-59.3543 1584,-31 1592.42,-29.8969 1601.32,-28.4538 1609.95,-26.906"/>
<polygon fill="midnightblue" stroke="midnightblue" points="1610.72,-30.3237 1619.91,-25.055 1609.44,-23.4416 1610.72,-30.3237"/>
</g>
<!-- Node15 -->
<g id="node15" class="node"><title>Node15</title>
<g id="a_node15"><a xlink:title=" ">
<polygon fill="white" stroke="#bfbfbf" points="1746,-6 1746,-25 1856,-25 1856,-6 1746,-6"/>
<text text-anchor="middle" x="1801" y="-13" font-family="Helvetica,sans-Serif" font-size="10.00">ti/sysbios/knl/Event.h</text>
</a>
</g>
</g>
<!-- Node1&#45;&gt;Node15 -->
<g id="edge14" class="edge"><title>Node1&#45;&gt;Node15</title>
<path fill="none" stroke="midnightblue" d="M1003.55,-75.9872C1122.98,-75.4005 1460.03,-70.1134 1737,-31 1743.82,-30.0367 1750.99,-28.7195 1757.96,-27.2693"/>
<polygon fill="midnightblue" stroke="midnightblue" points="1758.96,-30.6349 1767.98,-25.0751 1757.46,-23.7971 1758.96,-30.6349"/>
</g>
<!-- Node16 -->
<g id="node16" class="node"><title>Node16</title>
<g id="a_node16"><a xlink:title=" ">
<polygon fill="white" stroke="#bfbfbf" points="1874.5,-0.5 1874.5,-30.5 1985.5,-30.5 1985.5,-0.5 1874.5,-0.5"/>
<text text-anchor="start" x="1882.5" y="-18.5" font-family="Helvetica,sans-Serif" font-size="10.00">../common/mrr_config</text>
<text text-anchor="middle" x="1930" y="-7.5" font-family="Helvetica,sans-Serif" font-size="10.00">_consts.h</text>
</a>
</g>
</g>
<!-- Node1&#45;&gt;Node16 -->
<g id="edge15" class="edge"><title>Node1&#45;&gt;Node16</title>
<path fill="none" stroke="midnightblue" d="M1003.55,-76.4552C1134.37,-77.2261 1528.69,-75.5059 1864.52,-30.8777"/>
<polygon fill="midnightblue" stroke="midnightblue" points="1865,-34.3456 1874.44,-29.5448 1864.07,-27.408 1865,-34.3456"/>
</g>
</g>
</svg>
