<?xml version="1.0" encoding="UTF-8" standalone="no"?>
<!DOCTYPE svg PUBLIC "-//W3C//DTD SVG 1.1//EN"
 "http://www.w3.org/Graphics/SVG/1.1/DTD/svg11.dtd">
<!-- Generated by graphviz version 2.38.0 (20140413.2041)
 -->
<!-- Title: common/mmWave_XSS.h Pages: 1 -->
<svg width="2144pt" height="162pt"
 viewBox="0.00 0.00 2144.00 162.00" xmlns="http://www.w3.org/2000/svg" xmlns:xlink="http://www.w3.org/1999/xlink">
<g id="graph0" class="graph" transform="scale(1 1) rotate(0) translate(4 158)">
<title>common/mmWave_XSS.h</title>
<polygon fill="white" stroke="none" points="-4,4 -4,-158 2140,-158 2140,4 -4,4"/>
<!-- Node1 -->
<g id="node1" class="node"><title>Node1</title>
<g id="a_node1"><a xlink:title=" ">
<polygon fill="#bfbfbf" stroke="black" points="894,-134.5 894,-153.5 1024,-153.5 1024,-134.5 894,-134.5"/>
<text text-anchor="middle" x="959" y="-141.5" font-family="Helvetica,sans-Serif" font-size="10.00">common/mmWave_XSS.h</text>
</a>
</g>
</g>
<!-- Node2 -->
<g id="node2" class="node"><title>Node2</title>
<g id="a_node2"><a xlink:title=" ">
<polygon fill="white" stroke="#bfbfbf" points="0,-73 0,-92 136,-92 136,-73 0,-73"/>
<text text-anchor="middle" x="68" y="-80" font-family="Helvetica,sans-Serif" font-size="10.00">ti/common/mmwave_error.h</text>
</a>
</g>
</g>
<!-- Node1&#45;&gt;Node2 -->
<g id="edge1" class="edge"><title>Node1&#45;&gt;Node2</title>
<path fill="none" stroke="midnightblue" d="M893.854,-142.288C755.464,-140.142 422.148,-131.609 145,-98 136.17,-96.9292 126.826,-95.4593 117.809,-93.8642"/>
<polygon fill="midnightblue" stroke="midnightblue" points="118.278,-90.3919 107.81,-92.0245 117.012,-97.2764 118.278,-90.3919"/>
</g>
<!-- Node3 -->
<g id="node3" class="node"><title>Node3</title>
<g id="a_node3"><a xlink:title=" ">
<polygon fill="white" stroke="#bfbfbf" points="154,-73 154,-92 252,-92 252,-73 154,-73"/>
<text text-anchor="middle" x="203" y="-80" font-family="Helvetica,sans-Serif" font-size="10.00">ti/drivers/soc/soc.h</text>
</a>
</g>
</g>
<!-- Node1&#45;&gt;Node3 -->
<g id="edge2" class="edge"><title>Node1&#45;&gt;Node3</title>
<path fill="none" stroke="midnightblue" d="M893.616,-142.709C769.531,-141.292 491.666,-133.967 261,-98 255.087,-97.078 248.896,-95.8359 242.851,-94.4645"/>
<polygon fill="midnightblue" stroke="midnightblue" points="243.433,-91.0048 232.892,-92.0683 241.796,-97.8105 243.433,-91.0048"/>
</g>
<!-- Node4 -->
<g id="node4" class="node"><title>Node4</title>
<g id="a_node4"><a xlink:title=" ">
<polygon fill="white" stroke="#bfbfbf" points="270,-73 270,-92 364,-92 364,-73 270,-73"/>
<text text-anchor="middle" x="317" y="-80" font-family="Helvetica,sans-Serif" font-size="10.00">ti/drivers/crc/crc.h</text>
</a>
</g>
</g>
<!-- Node1&#45;&gt;Node4 -->
<g id="edge3" class="edge"><title>Node1&#45;&gt;Node4</title>
<path fill="none" stroke="midnightblue" d="M893.637,-141.64C785.058,-138.563 560.955,-128.734 374,-98 368.191,-97.045 362.107,-95.7846 356.167,-94.405"/>
<polygon fill="midnightblue" stroke="midnightblue" points="356.926,-90.9874 346.38,-92.0032 355.257,-97.7857 356.926,-90.9874"/>
</g>
<!-- Node5 -->
<g id="node5" class="node"><title>Node5</title>
<g id="a_node5"><a xlink:title=" ">
<polygon fill="white" stroke="#bfbfbf" points="382.5,-73 382.5,-92 491.5,-92 491.5,-73 382.5,-73"/>
<text text-anchor="middle" x="437" y="-80" font-family="Helvetica,sans-Serif" font-size="10.00">ti/drivers/uart/UART.h</text>
</a>
</g>
</g>
<!-- Node1&#45;&gt;Node5 -->
<g id="edge4" class="edge"><title>Node1&#45;&gt;Node5</title>
<path fill="none" stroke="midnightblue" d="M893.822,-139.166C804.702,-133.34 640.011,-120.486 501,-98 494.579,-96.9613 487.839,-95.6647 481.241,-94.2769"/>
<polygon fill="midnightblue" stroke="midnightblue" points="481.574,-90.767 471.057,-92.045 480.076,-97.6047 481.574,-90.767"/>
</g>
<!-- Node6 -->
<g id="node6" class="node"><title>Node6</title>
<g id="a_node6"><a xlink:title=" ">
<polygon fill="white" stroke="#bfbfbf" points="510,-73 510,-92 640,-92 640,-73 510,-73"/>
<text text-anchor="middle" x="575" y="-80" font-family="Helvetica,sans-Serif" font-size="10.00">ti/drivers/pinmux/pinmux.h</text>
</a>
</g>
</g>
<!-- Node1&#45;&gt;Node6 -->
<g id="edge5" class="edge"><title>Node1&#45;&gt;Node6</title>
<path fill="none" stroke="midnightblue" d="M893.837,-134.492C831.005,-126.065 733.302,-112.369 649,-98 641.813,-96.775 634.252,-95.3969 626.818,-93.9902"/>
<polygon fill="midnightblue" stroke="midnightblue" points="627.289,-90.5167 616.808,-92.0659 625.968,-97.3909 627.289,-90.5167"/>
</g>
<!-- Node7 -->
<g id="node7" class="node"><title>Node7</title>
<g id="a_node7"><a xlink:title=" ">
<polygon fill="white" stroke="#bfbfbf" points="658,-73 658,-92 762,-92 762,-73 658,-73"/>
<text text-anchor="middle" x="710" y="-80" font-family="Helvetica,sans-Serif" font-size="10.00">ti/drivers/esm/esm.h</text>
</a>
</g>
</g>
<!-- Node1&#45;&gt;Node7 -->
<g id="edge6" class="edge"><title>Node1&#45;&gt;Node7</title>
<path fill="none" stroke="midnightblue" d="M923.324,-134.475C879.133,-123.915 803.787,-105.911 755.485,-94.3689"/>
<polygon fill="midnightblue" stroke="midnightblue" points="756.149,-90.9291 745.609,-92.0091 754.522,-97.7374 756.149,-90.9291"/>
</g>
<!-- Node8 -->
<g id="node8" class="node"><title>Node8</title>
<g id="a_node8"><a xlink:title=" ">
<polygon fill="white" stroke="#bfbfbf" points="780.5,-67.5 780.5,-97.5 869.5,-97.5 869.5,-67.5 780.5,-67.5"/>
<text text-anchor="start" x="788.5" y="-85.5" font-family="Helvetica,sans-Serif" font-size="10.00">ti/drivers/mailbox</text>
<text text-anchor="middle" x="825" y="-74.5" font-family="Helvetica,sans-Serif" font-size="10.00">/mailbox.h</text>
</a>
</g>
</g>
<!-- Node1&#45;&gt;Node8 -->
<g id="edge7" class="edge"><title>Node1&#45;&gt;Node8</title>
<path fill="none" stroke="midnightblue" d="M939.801,-134.475C920.635,-125.965 890.58,-112.619 866.029,-101.718"/>
<polygon fill="midnightblue" stroke="midnightblue" points="867.141,-98.3824 856.581,-97.523 864.3,-104.78 867.141,-98.3824"/>
</g>
<!-- Node9 -->
<g id="node9" class="node"><title>Node9</title>
<g id="a_node9"><a xlink:title=" ">
<polygon fill="white" stroke="#bfbfbf" points="887.5,-73 887.5,-92 1030.5,-92 1030.5,-73 887.5,-73"/>
<text text-anchor="middle" x="959" y="-80" font-family="Helvetica,sans-Serif" font-size="10.00">ti/control/mmwave/mmwave.h</text>
</a>
</g>
</g>
<!-- Node1&#45;&gt;Node9 -->
<g id="edge8" class="edge"><title>Node1&#45;&gt;Node9</title>
<path fill="none" stroke="midnightblue" d="M959,-134.475C959,-126.08 959,-112.981 959,-102.163"/>
<polygon fill="midnightblue" stroke="midnightblue" points="962.5,-102.009 959,-92.0091 955.5,-102.009 962.5,-102.009"/>
</g>
<!-- Node10 -->
<g id="node10" class="node"><title>Node10</title>
<g id="a_node10"><a xlink:title=" ">
<polygon fill="white" stroke="#bfbfbf" points="1048.5,-73 1048.5,-92 1155.5,-92 1155.5,-73 1048.5,-73"/>
<text text-anchor="middle" x="1102" y="-80" font-family="Helvetica,sans-Serif" font-size="10.00">ti/drivers/cbuff/cbuff.h</text>
</a>
</g>
</g>
<!-- Node1&#45;&gt;Node10 -->
<g id="edge9" class="edge"><title>Node1&#45;&gt;Node10</title>
<path fill="none" stroke="midnightblue" d="M979.488,-134.475C1003.81,-124.357 1044.55,-107.405 1072.32,-95.8507"/>
<polygon fill="midnightblue" stroke="midnightblue" points="1073.66,-99.0822 1081.55,-92.0091 1070.97,-92.6193 1073.66,-99.0822"/>
</g>
<!-- Node11 -->
<g id="node11" class="node"><title>Node11</title>
<g id="a_node11"><a xlink:title=" ">
<polygon fill="white" stroke="#bfbfbf" points="1174,-73 1174,-92 1304,-92 1304,-73 1174,-73"/>
<text text-anchor="middle" x="1239" y="-80" font-family="Helvetica,sans-Serif" font-size="10.00">ti/drivers/adcbuf/ADCBuf.h</text>
</a>
</g>
</g>
<!-- Node1&#45;&gt;Node11 -->
<g id="edge10" class="edge"><title>Node1&#45;&gt;Node11</title>
<path fill="none" stroke="midnightblue" d="M999.117,-134.475C1049.12,-123.849 1134.6,-105.685 1188.87,-94.1524"/>
<polygon fill="midnightblue" stroke="midnightblue" points="1189.9,-97.5113 1198.96,-92.0091 1188.45,-90.6642 1189.9,-97.5113"/>
</g>
<!-- Node12 -->
<g id="node12" class="node"><title>Node12</title>
<g id="a_node12"><a xlink:title=" ">
<polygon fill="white" stroke="#bfbfbf" points="1322.5,-73 1322.5,-92 1437.5,-92 1437.5,-73 1322.5,-73"/>
<text text-anchor="middle" x="1380" y="-80" font-family="Helvetica,sans-Serif" font-size="10.00">ti/drivers/edma/edma.h</text>
</a>
</g>
</g>
<!-- Node1&#45;&gt;Node12 -->
<g id="edge11" class="edge"><title>Node1&#45;&gt;Node12</title>
<path fill="none" stroke="midnightblue" d="M1024.17,-136.428C1095.38,-128.849 1212.71,-115.194 1313,-98 1319.62,-96.8651 1326.58,-95.5258 1333.4,-94.1275"/>
<polygon fill="midnightblue" stroke="midnightblue" points="1334.19,-97.5391 1343.25,-92.0534 1332.74,-90.6894 1334.19,-97.5391"/>
</g>
<!-- Node13 -->
<g id="node13" class="node"><title>Node13</title>
<g id="a_node13"><a xlink:title=" ">
<polygon fill="white" stroke="#bfbfbf" points="1455.5,-73 1455.5,-92 1574.5,-92 1574.5,-73 1455.5,-73"/>
<text text-anchor="middle" x="1515" y="-80" font-family="Helvetica,sans-Serif" font-size="10.00">ti/drivers/osal/DebugP.h</text>
</a>
</g>
</g>
<!-- Node1&#45;&gt;Node13 -->
<g id="edge12" class="edge"><title>Node1&#45;&gt;Node13</title>
<path fill="none" stroke="midnightblue" d="M1024.02,-139.454C1117.84,-133.784 1296.44,-120.913 1447,-98 1454.14,-96.9138 1461.65,-95.5436 1468.98,-94.0814"/>
<polygon fill="midnightblue" stroke="midnightblue" points="1469.71,-97.5033 1478.8,-92.0486 1468.29,-90.6487 1469.71,-97.5033"/>
</g>
<!-- Node14 -->
<g id="node14" class="node"><title>Node14</title>
<g id="a_node14"><a xlink:title=" ">
<polygon fill="white" stroke="#bfbfbf" points="1592.5,-73 1592.5,-92 1727.5,-92 1727.5,-73 1592.5,-73"/>
<text text-anchor="middle" x="1660" y="-80" font-family="Helvetica,sans-Serif" font-size="10.00">ti/sysbios/knl/Semaphore.h</text>
</a>
</g>
</g>
<!-- Node1&#45;&gt;Node14 -->
<g id="edge13" class="edge"><title>Node1&#45;&gt;Node14</title>
<path fill="none" stroke="midnightblue" d="M1024.03,-140.817C1137.91,-136.438 1380.67,-124.624 1584,-98 1592.42,-96.8969 1601.32,-95.4538 1609.95,-93.906"/>
<polygon fill="midnightblue" stroke="midnightblue" points="1610.72,-97.3237 1619.91,-92.055 1609.44,-90.4416 1610.72,-97.3237"/>
</g>
<!-- Node15 -->
<g id="node15" class="node"><title>Node15</title>
<g id="a_node15"><a xlink:title=" ">
<polygon fill="white" stroke="#bfbfbf" points="1746,-73 1746,-92 1856,-92 1856,-73 1746,-73"/>
<text text-anchor="middle" x="1801" y="-80" font-family="Helvetica,sans-Serif" font-size="10.00">ti/sysbios/knl/Event.h</text>
</a>
</g>
</g>
<!-- Node1&#45;&gt;Node15 -->
<g id="edge14" class="edge"><title>Node1&#45;&gt;Node15</title>
<path fill="none" stroke="midnightblue" d="M1024.16,-142.851C1158.27,-141.751 1474.59,-135.056 1737,-98 1743.82,-97.0367 1750.99,-95.7195 1757.96,-94.2693"/>
<polygon fill="midnightblue" stroke="midnightblue" points="1758.96,-97.6349 1767.98,-92.0751 1757.46,-90.7971 1758.96,-97.6349"/>
</g>
<!-- Node16 -->
<g id="node16" class="node"><title>Node16</title>
<g id="a_node16"><a xlink:href="app__cfg_8h.html" target="_top" xlink:title=" ">
<polygon fill="white" stroke="black" points="1874.5,-73 1874.5,-92 1973.5,-92 1973.5,-73 1874.5,-73"/>
<text text-anchor="middle" x="1924" y="-80" font-family="Helvetica,sans-Serif" font-size="10.00">common/app_cfg.h</text>
</a>
</g>
</g>
<!-- Node1&#45;&gt;Node16 -->
<g id="edge15" class="edge"><title>Node1&#45;&gt;Node16</title>
<path fill="none" stroke="midnightblue" d="M1024.22,-141.382C1203.74,-136.672 1702.55,-121.773 1865,-98 1871.23,-97.0879 1877.77,-95.8123 1884.13,-94.3924"/>
<polygon fill="midnightblue" stroke="midnightblue" points="1884.98,-97.7872 1893.9,-92.0739 1883.36,-90.9762 1884.98,-97.7872"/>
</g>
<!-- Node17 -->
<g id="node17" class="node"><title>Node17</title>
<g id="a_node17"><a xlink:href="device__cfg_8h.html" target="_top" xlink:title="This file holds constants related to the system chirp configuration as well as the calling the profil...">
<polygon fill="white" stroke="black" points="1770,-6 1770,-25 1840,-25 1840,-6 1770,-6"/>
<text text-anchor="middle" x="1805" y="-13" font-family="Helvetica,sans-Serif" font-size="10.00">device_cfg.h</text>
</a>
</g>
</g>
<!-- Node16&#45;&gt;Node17 -->
<g id="edge16" class="edge"><title>Node16&#45;&gt;Node17</title>
<path fill="none" stroke="midnightblue" d="M1907.95,-72.7338C1887.88,-61.7695 1853.3,-42.8809 1829.81,-30.0495"/>
<polygon fill="midnightblue" stroke="midnightblue" points="1831.25,-26.8494 1820.79,-25.1273 1827.89,-32.9927 1831.25,-26.8494"/>
</g>
<!-- Node18 -->
<g id="node18" class="node"><title>Node18</title>
<g id="a_node18"><a xlink:title=" ">
<polygon fill="white" stroke="#bfbfbf" points="1858,-6 1858,-25 1990,-25 1990,-6 1858,-6"/>
<text text-anchor="middle" x="1924" y="-13" font-family="Helvetica,sans-Serif" font-size="10.00">ti/common/sys_common.h</text>
</a>
</g>
</g>
<!-- Node16&#45;&gt;Node18 -->
<g id="edge17" class="edge"><title>Node16&#45;&gt;Node18</title>
<path fill="none" stroke="midnightblue" d="M1924,-72.7338C1924,-63.1826 1924,-47.6183 1924,-35.2829"/>
<polygon fill="midnightblue" stroke="midnightblue" points="1927.5,-35.1273 1924,-25.1273 1920.5,-35.1273 1927.5,-35.1273"/>
</g>
<!-- Node19 -->
<g id="node19" class="node"><title>Node19</title>
<g id="a_node19"><a xlink:href="config__chirp__design___u_s_r_r30_8h.html" target="_top" xlink:title=" ">
<polygon fill="white" stroke="black" points="2008,-0.5 2008,-30.5 2136,-30.5 2136,-0.5 2008,-0.5"/>
<text text-anchor="start" x="2016" y="-18.5" font-family="Helvetica,sans-Serif" font-size="10.00">common/profiles/config</text>
<text text-anchor="middle" x="2072" y="-7.5" font-family="Helvetica,sans-Serif" font-size="10.00">_chirp_design_USRR30.h</text>
</a>
</g>
</g>
<!-- Node16&#45;&gt;Node19 -->
<g id="edge18" class="edge"><title>Node16&#45;&gt;Node19</title>
<path fill="none" stroke="midnightblue" d="M1943.65,-72.8685C1965.77,-63.1572 2002.31,-47.1092 2030.75,-34.6148"/>
<polygon fill="midnightblue" stroke="midnightblue" points="2032.31,-37.7539 2040.06,-30.5281 2029.5,-31.3447 2032.31,-37.7539"/>
</g>
</g>
</svg>
