<?xml version="1.0" encoding="UTF-8" standalone="no"?>
<!DOCTYPE svg PUBLIC "-//W3C//DTD SVG 1.1//EN"
 "http://www.w3.org/Graphics/SVG/1.1/DTD/svg11.dtd">
<!-- Generated by graphviz version 2.38.0 (20140413.2041)
 -->
<!-- Title: common/mrr_config_consts.h Pages: 1 -->
<svg width="514pt" height="95pt"
 viewBox="0.00 0.00 513.50 95.00" xmlns="http://www.w3.org/2000/svg" xmlns:xlink="http://www.w3.org/1999/xlink">
<g id="graph0" class="graph" transform="scale(1 1) rotate(0) translate(4 91)">
<title>common/mrr_config_consts.h</title>
<polygon fill="white" stroke="none" points="-4,4 -4,-91 509.5,-91 509.5,4 -4,4"/>
<!-- Node1 -->
<g id="node1" class="node"><title>Node1</title>
<g id="a_node1"><a xlink:title=" ">
<polygon fill="#bfbfbf" stroke="black" points="159,-67.5 159,-86.5 304,-86.5 304,-67.5 159,-67.5"/>
<text text-anchor="middle" x="231.5" y="-74.5" font-family="Helvetica,sans-Serif" font-size="10.00">common/mrr_config_consts.h</text>
</a>
</g>
</g>
<!-- Node2 -->
<g id="node2" class="node"><title>Node2</title>
<g id="a_node2"><a xlink:href="mrr__defines_8h.html" target="_top" xlink:title=" ">
<polygon fill="white" stroke="black" points="0,-6 0,-25 75,-25 75,-6 0,-6"/>
<text text-anchor="middle" x="37.5" y="-13" font-family="Helvetica,sans-Serif" font-size="10.00">mrr_defines.h</text>
</a>
</g>
</g>
<!-- Node1&#45;&gt;Node2 -->
<g id="edge1" class="edge"><title>Node1&#45;&gt;Node2</title>
<path fill="none" stroke="midnightblue" d="M203.587,-67.475C174.014,-58.4383 125.957,-43.7406 84.5,-31 81.3983,-30.0468 78.1818,-29.0571 74.9529,-28.0627"/>
<polygon fill="midnightblue" stroke="midnightblue" points="75.9191,-24.6981 65.3318,-25.0974 73.8573,-31.3876 75.9191,-24.6981"/>
</g>
<!-- Node3 -->
<g id="node3" class="node"><title>Node3</title>
<g id="a_node3"><a xlink:title=" ">
<polygon fill="white" stroke="#bfbfbf" points="93.5,-6 93.5,-25 225.5,-25 225.5,-6 93.5,-6"/>
<text text-anchor="middle" x="159.5" y="-13" font-family="Helvetica,sans-Serif" font-size="10.00">ti/common/sys_common.h</text>
</a>
</g>
</g>
<!-- Node1&#45;&gt;Node3 -->
<g id="edge2" class="edge"><title>Node1&#45;&gt;Node3</title>
<path fill="none" stroke="midnightblue" d="M221.184,-67.4751C209.849,-58.1082 191.427,-42.8839 177.661,-31.5081"/>
<polygon fill="midnightblue" stroke="midnightblue" points="179.735,-28.6813 169.797,-25.0091 175.276,-34.0773 179.735,-28.6813"/>
</g>
<!-- Node4 -->
<g id="node4" class="node"><title>Node4</title>
<g id="a_node4"><a xlink:href="mrr__config__chirp__design___m_r_r120_8h.html" target="_top" xlink:title=" ">
<polygon fill="white" stroke="black" points="243.5,-0.5 243.5,-30.5 365.5,-30.5 365.5,-0.5 243.5,-0.5"/>
<text text-anchor="start" x="251.5" y="-18.5" font-family="Helvetica,sans-Serif" font-size="10.00">mrr_config_chirp_design</text>
<text text-anchor="middle" x="304.5" y="-7.5" font-family="Helvetica,sans-Serif" font-size="10.00">_MRR120.h</text>
</a>
</g>
</g>
<!-- Node1&#45;&gt;Node4 -->
<g id="edge3" class="edge"><title>Node1&#45;&gt;Node4</title>
<path fill="none" stroke="midnightblue" d="M241.959,-67.4751C251.661,-59.5673 266.485,-47.4847 279.266,-37.0675"/>
<polygon fill="midnightblue" stroke="midnightblue" points="281.755,-39.5539 287.295,-30.523 277.333,-34.1279 281.755,-39.5539"/>
</g>
<!-- Node5 -->
<g id="node5" class="node"><title>Node5</title>
<g id="a_node5"><a xlink:href="mrr__config__chirp__design___u_s_r_r30_8h.html" target="_top" xlink:title=" ">
<polygon fill="white" stroke="black" points="383.5,-0.5 383.5,-30.5 505.5,-30.5 505.5,-0.5 383.5,-0.5"/>
<text text-anchor="start" x="391.5" y="-18.5" font-family="Helvetica,sans-Serif" font-size="10.00">mrr_config_chirp_design</text>
<text text-anchor="middle" x="444.5" y="-7.5" font-family="Helvetica,sans-Serif" font-size="10.00">_USRR30.h</text>
</a>
</g>
</g>
<!-- Node1&#45;&gt;Node5 -->
<g id="edge4" class="edge"><title>Node1&#45;&gt;Node5</title>
<path fill="none" stroke="midnightblue" d="M262.018,-67.4751C293.899,-58.5694 344.734,-44.3688 384.663,-33.2151"/>
<polygon fill="midnightblue" stroke="midnightblue" points="385.611,-36.5844 394.3,-30.523 383.727,-29.8425 385.611,-36.5844"/>
</g>
</g>
</svg>
