<?xml version="1.0" encoding="UTF-8" standalone="no"?>
<!DOCTYPE svg PUBLIC "-//W3C//DTD SVG 1.1//EN"
 "http://www.w3.org/Graphics/SVG/1.1/DTD/svg11.dtd">
<!-- Generated by graphviz version 2.38.0 (20140413.2041)
 -->
<!-- Title: common/mrr_config_chirp_design_USRR30.h Pages: 1 -->
<svg width="288pt" height="207pt"
 viewBox="0.00 0.00 288.00 207.00" xmlns="http://www.w3.org/2000/svg" xmlns:xlink="http://www.w3.org/1999/xlink">
<g id="graph0" class="graph" transform="scale(1 1) rotate(0) translate(4 203)">
<title>common/mrr_config_chirp_design_USRR30.h</title>
<polygon fill="white" stroke="none" points="-4,4 -4,-203 284,-203 284,4 -4,4"/>
<!-- Node1 -->
<g id="node1" class="node"><title>Node1</title>
<g id="a_node1"><a xlink:title=" ">
<polygon fill="#bfbfbf" stroke="black" points="88,-168.5 88,-198.5 216,-198.5 216,-168.5 88,-168.5"/>
<text text-anchor="start" x="96" y="-186.5" font-family="Helvetica,sans-Serif" font-size="10.00">common/mrr_config_chirp</text>
<text text-anchor="middle" x="152" y="-175.5" font-family="Helvetica,sans-Serif" font-size="10.00">_design_USRR30.h</text>
</a>
</g>
</g>
<!-- Node2 -->
<g id="node2" class="node"><title>Node2</title>
<g id="a_node2"><a xlink:href="mrr__config__consts_8h.html" target="_top" xlink:title=" ">
<polygon fill="white" stroke="black" points="79.5,-112.5 79.5,-131.5 224.5,-131.5 224.5,-112.5 79.5,-112.5"/>
<text text-anchor="middle" x="152" y="-119.5" font-family="Helvetica,sans-Serif" font-size="10.00">common/mrr_config_consts.h</text>
</a>
</g>
</g>
<!-- Node1&#45;&gt;Node2 -->
<g id="edge1" class="edge"><title>Node1&#45;&gt;Node2</title>
<path fill="none" stroke="midnightblue" d="M152,-158.289C152,-148.857 152,-138.655 152,-131.658"/>
<polygon fill="midnightblue" stroke="midnightblue" points="148.5,-158.399 152,-168.399 155.5,-158.399 148.5,-158.399"/>
</g>
<!-- Node3 -->
<g id="node3" class="node"><title>Node3</title>
<g id="a_node3"><a xlink:href="cfg_8c.html" target="_top" xlink:title=" ">
<polygon fill="white" stroke="black" points="0,-56.5 0,-75.5 78,-75.5 78,-56.5 0,-56.5"/>
<text text-anchor="middle" x="39" y="-63.5" font-family="Helvetica,sans-Serif" font-size="10.00">common/cfg.c</text>
</a>
</g>
</g>
<!-- Node2&#45;&gt;Node3 -->
<g id="edge2" class="edge"><title>Node2&#45;&gt;Node3</title>
<path fill="none" stroke="midnightblue" d="M124.997,-108.096C103.886,-98.0073 75.1385,-84.2697 56.8214,-75.5164"/>
<polygon fill="midnightblue" stroke="midnightblue" points="123.563,-111.29 134.095,-112.444 126.581,-104.974 123.563,-111.29"/>
</g>
<!-- Node4 -->
<g id="node4" class="node"><title>Node4</title>
<g id="a_node4"><a xlink:href="mm_wave___x_s_s_8h.html" target="_top" xlink:title=" ">
<polygon fill="white" stroke="black" points="134,-56.5 134,-75.5 264,-75.5 264,-56.5 134,-56.5"/>
<text text-anchor="middle" x="199" y="-63.5" font-family="Helvetica,sans-Serif" font-size="10.00">common/mmWave_XSS.h</text>
</a>
</g>
</g>
<!-- Node2&#45;&gt;Node4 -->
<g id="edge3" class="edge"><title>Node2&#45;&gt;Node4</title>
<path fill="none" stroke="midnightblue" d="M166.421,-104.431C174.658,-94.9673 184.654,-83.4827 191.383,-75.7511"/>
<polygon fill="midnightblue" stroke="midnightblue" points="163.686,-102.242 159.761,-112.083 168.966,-106.838 163.686,-102.242"/>
</g>
<!-- Node5 -->
<g id="node5" class="node"><title>Node5</title>
<g id="a_node5"><a xlink:href="mss__cli_8c.html" target="_top" xlink:title=" ">
<polygon fill="white" stroke="black" points="81.5,-0.5 81.5,-19.5 140.5,-19.5 140.5,-0.5 81.5,-0.5"/>
<text text-anchor="middle" x="111" y="-7.5" font-family="Helvetica,sans-Serif" font-size="10.00">mss_cli.c</text>
</a>
</g>
</g>
<!-- Node2&#45;&gt;Node5 -->
<g id="edge6" class="edge"><title>Node2&#45;&gt;Node5</title>
<path fill="none" stroke="midnightblue" d="M139.954,-103.952C134.69,-95.815 128.85,-85.7445 125,-76 117.365,-56.6754 113.545,-32.391 111.95,-19.6753"/>
<polygon fill="midnightblue" stroke="midnightblue" points="137.218,-106.155 145.717,-112.481 143.019,-102.236 137.218,-106.155"/>
</g>
<!-- Node6 -->
<g id="node6" class="node"><title>Node6</title>
<g id="a_node6"><a xlink:href="mss__main_8c.html" target="_top" xlink:title=" ">
<polygon fill="white" stroke="black" points="210,-0.5 210,-19.5 280,-19.5 280,-0.5 210,-0.5"/>
<text text-anchor="middle" x="245" y="-7.5" font-family="Helvetica,sans-Serif" font-size="10.00">mss_main.c</text>
</a>
</g>
</g>
<!-- Node2&#45;&gt;Node6 -->
<g id="edge7" class="edge"><title>Node2&#45;&gt;Node6</title>
<path fill="none" stroke="midnightblue" d="M224.781,-109.439C243.535,-102.802 261.62,-92.3739 273,-76 285.763,-57.6369 266.226,-32.5307 253.865,-19.5506"/>
<polygon fill="midnightblue" stroke="midnightblue" points="223.705,-106.109 215.247,-112.489 225.838,-112.776 223.705,-106.109"/>
</g>
<!-- Node4&#45;&gt;Node5 -->
<g id="edge4" class="edge"><title>Node4&#45;&gt;Node5</title>
<path fill="none" stroke="midnightblue" d="M176.023,-50.9005C159.887,-40.9986 138.819,-28.0705 125.104,-19.6545"/>
<polygon fill="midnightblue" stroke="midnightblue" points="174.507,-54.0769 184.861,-56.324 178.169,-48.1106 174.507,-54.0769"/>
</g>
<!-- Node4&#45;&gt;Node6 -->
<g id="edge5" class="edge"><title>Node4&#45;&gt;Node6</title>
<path fill="none" stroke="midnightblue" d="M213.114,-48.4314C221.176,-38.9673 230.959,-27.4827 237.545,-19.7511"/>
<polygon fill="midnightblue" stroke="midnightblue" points="210.416,-46.2009 206.596,-56.083 215.745,-50.7402 210.416,-46.2009"/>
</g>
</g>
</svg>
