<?xml version="1.0" encoding="UTF-8" standalone="no"?>
<!DOCTYPE svg PUBLIC "-//W3C//DTD SVG 1.1//EN"
 "http://www.w3.org/Graphics/SVG/1.1/DTD/svg11.dtd">
<!-- Generated by graphviz version 2.38.0 (20140413.2041)
 -->
<!-- Title: ti_sysbios_gates_GateHwi_create Pages: 1 -->
<svg width="313pt" height="88pt"
 viewBox="0.00 0.00 313.00 88.00" xmlns="http://www.w3.org/2000/svg" xmlns:xlink="http://www.w3.org/1999/xlink">
<g id="graph0" class="graph" transform="scale(1 1) rotate(0) translate(4 84)">
<title>ti_sysbios_gates_GateHwi_create</title>
<polygon fill="white" stroke="none" points="-4,4 -4,-84 309,-84 309,4 -4,4"/>
<!-- Node1 -->
<g id="node1" class="node"><title>Node1</title>
<g id="a_node1"><a xlink:title=" ">
<polygon fill="#bfbfbf" stroke="black" points="173,-24.5 173,-54.5 305,-54.5 305,-24.5 173,-24.5"/>
<text text-anchor="start" x="181" y="-42.5" font-family="Helvetica,sans-Serif" font-size="10.00">ti_sysbios_gates_GateHwi</text>
<text text-anchor="middle" x="239" y="-31.5" font-family="Helvetica,sans-Serif" font-size="10.00">_create</text>
</a>
</g>
</g>
<!-- Node2 -->
<g id="node2" class="node"><title>Node2</title>
<g id="a_node2"><a xlink:href="mss__per4f_8c.html#a559f795b314f49ffc6e4b34ebd9851e1" target="_top" xlink:title=" ">
<polygon fill="white" stroke="black" points="2,-49.5 2,-79.5 135,-79.5 135,-49.5 2,-49.5"/>
<text text-anchor="start" x="10" y="-67.5" font-family="Helvetica,sans-Serif" font-size="10.00">xdc_runtime_Main_Module</text>
<text text-anchor="middle" x="68.5" y="-56.5" font-family="Helvetica,sans-Serif" font-size="10.00">_GateProxy_create</text>
</a>
</g>
</g>
<!-- Node1&#45;&gt;Node2 -->
<g id="edge1" class="edge"><title>Node1&#45;&gt;Node2</title>
<path fill="none" stroke="midnightblue" d="M162.863,-50.648C153.582,-52.025 144.151,-53.4242 135.029,-54.7776"/>
<polygon fill="midnightblue" stroke="midnightblue" points="163.475,-54.0955 172.854,-49.1657 162.448,-47.1712 163.475,-54.0955"/>
</g>
<!-- Node3 -->
<g id="node3" class="node"><title>Node3</title>
<g id="a_node3"><a xlink:href="mss__per4f_8c.html#a2c1ec47c14dbcd30b844dd4dc1ce449a" target="_top" xlink:title=" ">
<polygon fill="white" stroke="black" points="0,-0.5 0,-30.5 137,-30.5 137,-0.5 0,-0.5"/>
<text text-anchor="start" x="8" y="-18.5" font-family="Helvetica,sans-Serif" font-size="10.00">xdc_runtime_System</text>
<text text-anchor="middle" x="68.5" y="-7.5" font-family="Helvetica,sans-Serif" font-size="10.00">_Module_GateProxy_create</text>
</a>
</g>
</g>
<!-- Node1&#45;&gt;Node3 -->
<g id="edge2" class="edge"><title>Node1&#45;&gt;Node3</title>
<path fill="none" stroke="midnightblue" d="M162.907,-28.8042C154.366,-27.5877 145.698,-26.3531 137.26,-25.1512"/>
<polygon fill="midnightblue" stroke="midnightblue" points="162.46,-32.2758 172.854,-30.221 163.447,-25.3458 162.46,-32.2758"/>
</g>
</g>
</svg>
