<?xml version="1.0" encoding="UTF-8" standalone="no"?>
<!DOCTYPE svg PUBLIC "-//W3C//DTD SVG 1.1//EN"
 "http://www.w3.org/Graphics/SVG/1.1/DTD/svg11.dtd">
<!-- Generated by graphviz version 2.38.0 (20140413.2041)
 -->
<!-- Title: mss_mrr_cli.c Pages: 1 -->
<svg width="3247pt" height="162pt"
 viewBox="0.00 0.00 3247.00 162.00" xmlns="http://www.w3.org/2000/svg" xmlns:xlink="http://www.w3.org/1999/xlink">
<g id="graph0" class="graph" transform="scale(1 1) rotate(0) translate(4 158)">
<title>mss_mrr_cli.c</title>
<polygon fill="white" stroke="none" points="-4,4 -4,-158 3243,-158 3243,4 -4,4"/>
<!-- Node1 -->
<g id="node1" class="node"><title>Node1</title>
<g id="a_node1"><a xlink:title=" ">
<polygon fill="#bfbfbf" stroke="black" points="1958.5,-134.5 1958.5,-153.5 2036.5,-153.5 2036.5,-134.5 1958.5,-134.5"/>
<text text-anchor="middle" x="1997.5" y="-141.5" font-family="Helvetica,sans-Serif" font-size="10.00">mss_mrr_cli.c</text>
</a>
</g>
</g>
<!-- Node2 -->
<g id="node2" class="node"><title>Node2</title>
<g id="a_node2"><a xlink:href="mm_wave___x_s_s_8h.html" target="_top" xlink:title=" ">
<polygon fill="white" stroke="black" points="1018,-73 1018,-92 1107,-92 1107,-73 1018,-73"/>
<text text-anchor="middle" x="1062.5" y="-80" font-family="Helvetica,sans-Serif" font-size="10.00">mmWave_XSS.h</text>
</a>
</g>
</g>
<!-- Node1&#45;&gt;Node2 -->
<g id="edge1" class="edge"><title>Node1&#45;&gt;Node2</title>
<path fill="none" stroke="midnightblue" d="M1958.22,-140.5C1810.55,-131.103 1288.42,-97.8766 1117.27,-86.9854"/>
<polygon fill="midnightblue" stroke="midnightblue" points="1117.43,-83.4886 1107.23,-86.3463 1116.99,-90.4744 1117.43,-83.4886"/>
</g>
<!-- Node6 -->
<g id="node6" class="node"><title>Node6</title>
<g id="a_node6"><a xlink:title=" ">
<polygon fill="white" stroke="#bfbfbf" points="0,-6 0,-25 109,-25 109,-6 0,-6"/>
<text text-anchor="middle" x="54.5" y="-13" font-family="Helvetica,sans-Serif" font-size="10.00">ti/drivers/uart/UART.h</text>
</a>
</g>
</g>
<!-- Node1&#45;&gt;Node6 -->
<g id="edge31" class="edge"><title>Node1&#45;&gt;Node6</title>
<path fill="none" stroke="midnightblue" d="M1958.19,-143.305C1759.94,-144.293 850.503,-142.26 117.5,-31 111.019,-30.0163 104.216,-28.7267 97.5753,-27.322"/>
<polygon fill="midnightblue" stroke="midnightblue" points="97.8643,-23.8008 87.343,-25.0472 96.3452,-30.634 97.8643,-23.8008"/>
</g>
<!-- Node14 -->
<g id="node14" class="node"><title>Node14</title>
<g id="a_node14"><a xlink:title=" ">
<polygon fill="white" stroke="#bfbfbf" points="1455,-6 1455,-25 1574,-25 1574,-6 1455,-6"/>
<text text-anchor="middle" x="1514.5" y="-13" font-family="Helvetica,sans-Serif" font-size="10.00">ti/drivers/osal/DebugP.h</text>
</a>
</g>
</g>
<!-- Node1&#45;&gt;Node14 -->
<g id="edge32" class="edge"><title>Node1&#45;&gt;Node14</title>
<path fill="none" stroke="midnightblue" d="M1958.31,-141.611C1896.93,-138.529 1774.93,-128.74 1676.5,-98 1623.62,-81.4862 1566.9,-49.1707 1536.6,-30.577"/>
<polygon fill="midnightblue" stroke="midnightblue" points="1538.07,-27.369 1527.73,-25.0597 1534.37,-33.3132 1538.07,-27.369"/>
</g>
<!-- Node15 -->
<g id="node15" class="node"><title>Node15</title>
<g id="a_node15"><a xlink:title=" ">
<polygon fill="white" stroke="#bfbfbf" points="1592,-6 1592,-25 1727,-25 1727,-6 1592,-6"/>
<text text-anchor="middle" x="1659.5" y="-13" font-family="Helvetica,sans-Serif" font-size="10.00">ti/sysbios/knl/Semaphore.h</text>
</a>
</g>
</g>
<!-- Node1&#45;&gt;Node15 -->
<g id="edge26" class="edge"><title>Node1&#45;&gt;Node15</title>
<path fill="none" stroke="midnightblue" d="M1958.26,-141.09C1888.57,-137.029 1746.73,-125.553 1706.5,-98 1684.43,-82.8838 1671.36,-53.7544 1664.81,-34.7271"/>
<polygon fill="midnightblue" stroke="midnightblue" points="1668.12,-33.5824 1661.76,-25.1112 1661.45,-35.7015 1668.12,-33.5824"/>
</g>
<!-- Node16 -->
<g id="node16" class="node"><title>Node16</title>
<g id="a_node16"><a xlink:title=" ">
<polygon fill="white" stroke="#bfbfbf" points="1745.5,-6 1745.5,-25 1855.5,-25 1855.5,-6 1745.5,-6"/>
<text text-anchor="middle" x="1800.5" y="-13" font-family="Helvetica,sans-Serif" font-size="10.00">ti/sysbios/knl/Event.h</text>
</a>
</g>
</g>
<!-- Node1&#45;&gt;Node16 -->
<g id="edge25" class="edge"><title>Node1&#45;&gt;Node16</title>
<path fill="none" stroke="midnightblue" d="M1958.41,-142.692C1888.85,-141.223 1748,-133.788 1717.5,-98 1695.42,-72.0896 1738.4,-44.9659 1770.34,-29.4602"/>
<polygon fill="midnightblue" stroke="midnightblue" points="1772.23,-32.4388 1779.81,-25.0353 1769.27,-26.0966 1772.23,-32.4388"/>
</g>
<!-- Node17 -->
<g id="node17" class="node"><title>Node17</title>
<g id="a_node17"><a xlink:title=" ">
<polygon fill="white" stroke="#bfbfbf" points="1874,-0.5 1874,-30.5 1985,-30.5 1985,-0.5 1874,-0.5"/>
<text text-anchor="start" x="1882" y="-18.5" font-family="Helvetica,sans-Serif" font-size="10.00">../common/mrr_config</text>
<text text-anchor="middle" x="1929.5" y="-7.5" font-family="Helvetica,sans-Serif" font-size="10.00">_consts.h</text>
</a>
</g>
</g>
<!-- Node1&#45;&gt;Node17 -->
<g id="edge35" class="edge"><title>Node1&#45;&gt;Node17</title>
<path fill="none" stroke="midnightblue" d="M1958.34,-142.4C1890.96,-140.447 1757.49,-132.241 1728.5,-98 1719.6,-87.4846 1720.03,-77.8647 1728.5,-67 1730.68,-64.2089 1806.16,-45.7605 1863.98,-31.9628"/>
<polygon fill="midnightblue" stroke="midnightblue" points="1864.9,-35.3408 1873.82,-29.6188 1863.28,-28.5313 1864.9,-35.3408"/>
</g>
<!-- Node18 -->
<g id="node18" class="node"><title>Node18</title>
<g id="a_node18"><a xlink:title=" ">
<polygon fill="white" stroke="#bfbfbf" points="1737,-73 1737,-92 1786,-92 1786,-73 1737,-73"/>
<text text-anchor="middle" x="1761.5" y="-80" font-family="Helvetica,sans-Serif" font-size="10.00">stdint.h</text>
</a>
</g>
</g>
<!-- Node1&#45;&gt;Node18 -->
<g id="edge17" class="edge"><title>Node1&#45;&gt;Node18</title>
<path fill="none" stroke="midnightblue" d="M1958.21,-136.462C1917.08,-129.107 1850.91,-115.82 1795.5,-98 1793.58,-97.3811 1791.61,-96.695 1789.64,-95.9676"/>
<polygon fill="midnightblue" stroke="midnightblue" points="1790.56,-92.5636 1779.97,-92.1061 1787.96,-99.0646 1790.56,-92.5636"/>
</g>
<!-- Node19 -->
<g id="node19" class="node"><title>Node19</title>
<g id="a_node19"><a xlink:title=" ">
<polygon fill="white" stroke="#bfbfbf" points="1804.5,-73 1804.5,-92 1852.5,-92 1852.5,-73 1804.5,-73"/>
<text text-anchor="middle" x="1828.5" y="-80" font-family="Helvetica,sans-Serif" font-size="10.00">stdlib.h</text>
</a>
</g>
</g>
<!-- Node1&#45;&gt;Node19 -->
<g id="edge18" class="edge"><title>Node1&#45;&gt;Node19</title>
<path fill="none" stroke="midnightblue" d="M1969.6,-134.431C1942.14,-125.825 1899.11,-111.883 1862.5,-98 1860.85,-97.3743 1859.16,-96.7157 1857.46,-96.0385"/>
<polygon fill="midnightblue" stroke="midnightblue" points="1858.39,-92.6334 1847.81,-92.056 1855.72,-99.1046 1858.39,-92.6334"/>
</g>
<!-- Node20 -->
<g id="node20" class="node"><title>Node20</title>
<g id="a_node20"><a xlink:title=" ">
<polygon fill="white" stroke="#bfbfbf" points="1871,-73 1871,-92 1922,-92 1922,-73 1871,-73"/>
<text text-anchor="middle" x="1896.5" y="-80" font-family="Helvetica,sans-Serif" font-size="10.00">stddef.h</text>
</a>
</g>
</g>
<!-- Node1&#45;&gt;Node20 -->
<g id="edge19" class="edge"><title>Node1&#45;&gt;Node20</title>
<path fill="none" stroke="midnightblue" d="M1983.03,-134.475C1966.53,-124.755 1939.32,-108.727 1919.82,-97.2372"/>
<polygon fill="midnightblue" stroke="midnightblue" points="1921.34,-94.0693 1910.94,-92.0091 1917.78,-100.101 1921.34,-94.0693"/>
</g>
<!-- Node21 -->
<g id="node21" class="node"><title>Node21</title>
<g id="a_node21"><a xlink:title=" ">
<polygon fill="white" stroke="#bfbfbf" points="1940,-73 1940,-92 1989,-92 1989,-73 1940,-73"/>
<text text-anchor="middle" x="1964.5" y="-80" font-family="Helvetica,sans-Serif" font-size="10.00">string.h</text>
</a>
</g>
</g>
<!-- Node1&#45;&gt;Node21 -->
<g id="edge20" class="edge"><title>Node1&#45;&gt;Node21</title>
<path fill="none" stroke="midnightblue" d="M1992.77,-134.475C1987.92,-125.727 1980.23,-111.869 1974.1,-100.809"/>
<polygon fill="midnightblue" stroke="midnightblue" points="1977.13,-99.0566 1969.22,-92.0091 1971.01,-102.452 1977.13,-99.0566"/>
</g>
<!-- Node22 -->
<g id="node22" class="node"><title>Node22</title>
<g id="a_node22"><a xlink:title=" ">
<polygon fill="white" stroke="#bfbfbf" points="2007.5,-73 2007.5,-92 2053.5,-92 2053.5,-73 2007.5,-73"/>
<text text-anchor="middle" x="2030.5" y="-80" font-family="Helvetica,sans-Serif" font-size="10.00">stdio.h</text>
</a>
</g>
</g>
<!-- Node1&#45;&gt;Node22 -->
<g id="edge21" class="edge"><title>Node1&#45;&gt;Node22</title>
<path fill="none" stroke="midnightblue" d="M2002.23,-134.475C2007.08,-125.727 2014.77,-111.869 2020.9,-100.809"/>
<polygon fill="midnightblue" stroke="midnightblue" points="2023.99,-102.452 2025.78,-92.0091 2017.87,-99.0566 2023.99,-102.452"/>
</g>
<!-- Node23 -->
<g id="node23" class="node"><title>Node23</title>
<g id="a_node23"><a xlink:title=" ">
<polygon fill="white" stroke="#bfbfbf" points="2072,-73 2072,-92 2185,-92 2185,-73 2072,-73"/>
<text text-anchor="middle" x="2128.5" y="-80" font-family="Helvetica,sans-Serif" font-size="10.00">xdc/runtime/System.h</text>
</a>
</g>
</g>
<!-- Node1&#45;&gt;Node23 -->
<g id="edge22" class="edge"><title>Node1&#45;&gt;Node23</title>
<path fill="none" stroke="midnightblue" d="M2016.27,-134.475C2038.35,-124.445 2075.22,-107.7 2100.64,-96.1546"/>
<polygon fill="midnightblue" stroke="midnightblue" points="2102.11,-99.3313 2109.77,-92.0091 2099.21,-92.9579 2102.11,-99.3313"/>
</g>
<!-- Node24 -->
<g id="node24" class="node"><title>Node24</title>
<g id="a_node24"><a xlink:title=" ">
<polygon fill="white" stroke="#bfbfbf" points="2203,-73 2203,-92 2296,-92 2296,-73 2203,-73"/>
<text text-anchor="middle" x="2249.5" y="-80" font-family="Helvetica,sans-Serif" font-size="10.00">ti/sysbios/BIOS.h</text>
</a>
</g>
</g>
<!-- Node1&#45;&gt;Node24 -->
<g id="edge23" class="edge"><title>Node1&#45;&gt;Node24</title>
<path fill="none" stroke="midnightblue" d="M2036.46,-134.5C2076.27,-125.722 2139.82,-111.448 2194.5,-98 2198.88,-96.9228 2203.45,-95.7685 2208,-94.5988"/>
<polygon fill="midnightblue" stroke="midnightblue" points="2209.05,-97.9419 2217.84,-92.0376 2207.29,-91.1672 2209.05,-97.9419"/>
</g>
<!-- Node25 -->
<g id="node25" class="node"><title>Node25</title>
<g id="a_node25"><a xlink:title=" ">
<polygon fill="white" stroke="#bfbfbf" points="2314,-73 2314,-92 2421,-92 2421,-73 2314,-73"/>
<text text-anchor="middle" x="2367.5" y="-80" font-family="Helvetica,sans-Serif" font-size="10.00">ti/sysbios/knl/Task.h</text>
</a>
</g>
</g>
<!-- Node1&#45;&gt;Node25 -->
<g id="edge24" class="edge"><title>Node1&#45;&gt;Node25</title>
<path fill="none" stroke="midnightblue" d="M2036.57,-138.368C2095.22,-131.173 2209.4,-116.224 2305.5,-98 2311.27,-96.9049 2317.33,-95.6391 2323.29,-94.3209"/>
<polygon fill="midnightblue" stroke="midnightblue" points="2324.2,-97.703 2333.18,-92.0737 2322.65,-90.877 2324.2,-97.703"/>
</g>
<!-- Node26 -->
<g id="node26" class="node"><title>Node26</title>
<g id="a_node26"><a xlink:title=" ">
<polygon fill="white" stroke="#bfbfbf" points="2439.5,-73 2439.5,-92 2549.5,-92 2549.5,-73 2439.5,-73"/>
<text text-anchor="middle" x="2494.5" y="-80" font-family="Helvetica,sans-Serif" font-size="10.00">ti/sysbios/knl/Clock.h</text>
</a>
</g>
</g>
<!-- Node1&#45;&gt;Node26 -->
<g id="edge27" class="edge"><title>Node1&#45;&gt;Node26</title>
<path fill="none" stroke="midnightblue" d="M2036.52,-140.511C2112.66,-135.31 2286.2,-121.758 2430.5,-98 2436.92,-96.9433 2443.66,-95.6367 2450.25,-94.2443"/>
<polygon fill="midnightblue" stroke="midnightblue" points="2451.42,-97.5716 2460.44,-92.0091 2449.92,-90.7344 2451.42,-97.5716"/>
</g>
<!-- Node27 -->
<g id="node27" class="node"><title>Node27</title>
<g id="a_node27"><a xlink:title=" ">
<polygon fill="white" stroke="#bfbfbf" points="2567.5,-73 2567.5,-92 2703.5,-92 2703.5,-73 2567.5,-73"/>
<text text-anchor="middle" x="2635.5" y="-80" font-family="Helvetica,sans-Serif" font-size="10.00">ti/sysbios/heaps/HeapBuf.h</text>
</a>
</g>
</g>
<!-- Node1&#45;&gt;Node27 -->
<g id="edge28" class="edge"><title>Node1&#45;&gt;Node27</title>
<path fill="none" stroke="midnightblue" d="M2036.76,-141.286C2128.43,-136.971 2363.6,-124.093 2558.5,-98 2566.93,-96.8713 2575.84,-95.4288 2584.48,-93.8933"/>
<polygon fill="midnightblue" stroke="midnightblue" points="2585.27,-97.3082 2594.47,-92.0611 2584,-90.4231 2585.27,-97.3082"/>
</g>
<!-- Node28 -->
<g id="node28" class="node"><title>Node28</title>
<g id="a_node28"><a xlink:title=" ">
<polygon fill="white" stroke="#bfbfbf" points="2722,-73 2722,-92 2865,-92 2865,-73 2722,-73"/>
<text text-anchor="middle" x="2793.5" y="-80" font-family="Helvetica,sans-Serif" font-size="10.00">ti/sysbios/heaps/HeapMem.h</text>
</a>
</g>
</g>
<!-- Node1&#45;&gt;Node28 -->
<g id="edge29" class="edge"><title>Node1&#45;&gt;Node28</title>
<path fill="none" stroke="midnightblue" d="M2036.78,-142.103C2144.92,-139.295 2455.96,-128.932 2712.5,-98 2721.77,-96.8823 2731.59,-95.3901 2741.07,-93.7876"/>
<polygon fill="midnightblue" stroke="midnightblue" points="2741.93,-97.1894 2751.18,-92.0178 2740.72,-90.2942 2741.93,-97.1894"/>
</g>
<!-- Node29 -->
<g id="node29" class="node"><title>Node29</title>
<g id="a_node29"><a xlink:title=" ">
<polygon fill="white" stroke="#bfbfbf" points="2883.5,-73 2883.5,-92 3015.5,-92 3015.5,-73 2883.5,-73"/>
<text text-anchor="middle" x="2949.5" y="-80" font-family="Helvetica,sans-Serif" font-size="10.00">ti/common/sys_common.h</text>
</a>
</g>
</g>
<!-- Node1&#45;&gt;Node29 -->
<g id="edge30" class="edge"><title>Node1&#45;&gt;Node29</title>
<path fill="none" stroke="midnightblue" d="M2036.57,-142.937C2160.01,-142.321 2552.52,-137.19 2874.5,-98 2883.02,-96.9635 2892.02,-95.5249 2900.71,-93.9537"/>
<polygon fill="midnightblue" stroke="midnightblue" points="2901.56,-97.3563 2910.74,-92.0645 2900.26,-90.4775 2901.56,-97.3563"/>
</g>
<!-- Node30 -->
<g id="node30" class="node"><title>Node30</title>
<g id="a_node30"><a xlink:title=" ">
<polygon fill="white" stroke="#bfbfbf" points="3033.5,-67.5 3033.5,-97.5 3143.5,-97.5 3143.5,-67.5 3033.5,-67.5"/>
<text text-anchor="start" x="3041.5" y="-85.5" font-family="Helvetica,sans-Serif" font-size="10.00">ti/control/mmwavelink</text>
<text text-anchor="middle" x="3088.5" y="-74.5" font-family="Helvetica,sans-Serif" font-size="10.00">/mmwavelink.h</text>
</a>
</g>
</g>
<!-- Node1&#45;&gt;Node30 -->
<g id="edge33" class="edge"><title>Node1&#45;&gt;Node30</title>
<path fill="none" stroke="midnightblue" d="M2036.64,-142.223C2197.47,-138.887 2808.64,-124.778 3023.53,-97.9171"/>
<polygon fill="midnightblue" stroke="midnightblue" points="3023.99,-101.386 3033.46,-96.6284 3023.09,-94.4447 3023.99,-101.386"/>
</g>
<!-- Node31 -->
<g id="node31" class="node"><title>Node31</title>
<g id="a_node31"><a xlink:title=" ">
<polygon fill="white" stroke="#bfbfbf" points="3162,-73 3162,-92 3239,-92 3239,-73 3162,-73"/>
<text text-anchor="middle" x="3200.5" y="-80" font-family="Helvetica,sans-Serif" font-size="10.00">ti/utils/cli/cli.h</text>
</a>
</g>
</g>
<!-- Node1&#45;&gt;Node31 -->
<g id="edge34" class="edge"><title>Node1&#45;&gt;Node31</title>
<path fill="none" stroke="midnightblue" d="M2036.74,-142.809C2212.79,-141.746 2930.84,-135.172 3152.5,-98 3157.07,-97.2342 3161.81,-96.1607 3166.45,-94.9405"/>
<polygon fill="midnightblue" stroke="midnightblue" points="3167.72,-98.2185 3176.37,-92.0971 3165.79,-91.4898 3167.72,-98.2185"/>
</g>
<!-- Node3 -->
<g id="node3" class="node"><title>Node3</title>
<g id="a_node3"><a xlink:title=" ">
<polygon fill="white" stroke="#bfbfbf" points="802.5,-6 802.5,-25 938.5,-25 938.5,-6 802.5,-6"/>
<text text-anchor="middle" x="870.5" y="-13" font-family="Helvetica,sans-Serif" font-size="10.00">ti/common/mmwave_error.h</text>
</a>
</g>
</g>
<!-- Node2&#45;&gt;Node3 -->
<g id="edge2" class="edge"><title>Node2&#45;&gt;Node3</title>
<path fill="none" stroke="midnightblue" d="M1037,-72.8685C1003.2,-61.4245 943.403,-41.1807 905.421,-28.3223"/>
<polygon fill="midnightblue" stroke="midnightblue" points="906.39,-24.9552 895.796,-25.0637 904.145,-31.5856 906.39,-24.9552"/>
</g>
<!-- Node4 -->
<g id="node4" class="node"><title>Node4</title>
<g id="a_node4"><a xlink:title=" ">
<polygon fill="white" stroke="#bfbfbf" points="956.5,-6 956.5,-25 1054.5,-25 1054.5,-6 956.5,-6"/>
<text text-anchor="middle" x="1005.5" y="-13" font-family="Helvetica,sans-Serif" font-size="10.00">ti/drivers/soc/soc.h</text>
</a>
</g>
</g>
<!-- Node2&#45;&gt;Node4 -->
<g id="edge3" class="edge"><title>Node2&#45;&gt;Node4</title>
<path fill="none" stroke="midnightblue" d="M1054.81,-72.7338C1045.84,-62.5004 1030.81,-45.3642 1019.7,-32.6924"/>
<polygon fill="midnightblue" stroke="midnightblue" points="1022.29,-30.3383 1013.07,-25.1273 1017.03,-34.9536 1022.29,-30.3383"/>
</g>
<!-- Node5 -->
<g id="node5" class="node"><title>Node5</title>
<g id="a_node5"><a xlink:title=" ">
<polygon fill="white" stroke="#bfbfbf" points="1072.5,-6 1072.5,-25 1166.5,-25 1166.5,-6 1072.5,-6"/>
<text text-anchor="middle" x="1119.5" y="-13" font-family="Helvetica,sans-Serif" font-size="10.00">ti/drivers/crc/crc.h</text>
</a>
</g>
</g>
<!-- Node2&#45;&gt;Node5 -->
<g id="edge4" class="edge"><title>Node2&#45;&gt;Node5</title>
<path fill="none" stroke="midnightblue" d="M1070.19,-72.7338C1079.16,-62.5004 1094.19,-45.3642 1105.3,-32.6924"/>
<polygon fill="midnightblue" stroke="midnightblue" points="1107.97,-34.9536 1111.93,-25.1273 1102.71,-30.3383 1107.97,-34.9536"/>
</g>
<!-- Node2&#45;&gt;Node6 -->
<g id="edge5" class="edge"><title>Node2&#45;&gt;Node6</title>
<path fill="none" stroke="midnightblue" d="M1017.94,-80.1418C855.422,-75.029 294.836,-55.955 117.5,-31 110.705,-30.0438 103.562,-28.7172 96.625,-27.2518"/>
<polygon fill="midnightblue" stroke="midnightblue" points="97.1956,-23.7931 86.6735,-25.0323 95.6718,-30.6252 97.1956,-23.7931"/>
</g>
<!-- Node7 -->
<g id="node7" class="node"><title>Node7</title>
<g id="a_node7"><a xlink:title=" ">
<polygon fill="white" stroke="#bfbfbf" points="1184.5,-6 1184.5,-25 1314.5,-25 1314.5,-6 1184.5,-6"/>
<text text-anchor="middle" x="1249.5" y="-13" font-family="Helvetica,sans-Serif" font-size="10.00">ti/drivers/pinmux/pinmux.h</text>
</a>
</g>
</g>
<!-- Node2&#45;&gt;Node7 -->
<g id="edge6" class="edge"><title>Node2&#45;&gt;Node7</title>
<path fill="none" stroke="midnightblue" d="M1087.33,-72.8685C1120.12,-61.4732 1178,-41.3528 1215.01,-28.4869"/>
<polygon fill="midnightblue" stroke="midnightblue" points="1216.57,-31.653 1224.86,-25.0637 1214.27,-25.041 1216.57,-31.653"/>
</g>
<!-- Node8 -->
<g id="node8" class="node"><title>Node8</title>
<g id="a_node8"><a xlink:title=" ">
<polygon fill="white" stroke="#bfbfbf" points="1332.5,-6 1332.5,-25 1436.5,-25 1436.5,-6 1332.5,-6"/>
<text text-anchor="middle" x="1384.5" y="-13" font-family="Helvetica,sans-Serif" font-size="10.00">ti/drivers/esm/esm.h</text>
</a>
</g>
</g>
<!-- Node2&#45;&gt;Node8 -->
<g id="edge7" class="edge"><title>Node2&#45;&gt;Node8</title>
<path fill="none" stroke="midnightblue" d="M1107.42,-73.4058C1159.51,-63.879 1247.93,-47.2852 1323.5,-31 1328.82,-29.8534 1334.39,-28.6016 1339.91,-27.3294"/>
<polygon fill="midnightblue" stroke="midnightblue" points="1340.78,-30.7203 1349.72,-25.0357 1339.18,-23.9041 1340.78,-30.7203"/>
</g>
<!-- Node9 -->
<g id="node9" class="node"><title>Node9</title>
<g id="a_node9"><a xlink:title=" ">
<polygon fill="white" stroke="#bfbfbf" points="127,-0.5 127,-30.5 216,-30.5 216,-0.5 127,-0.5"/>
<text text-anchor="start" x="135" y="-18.5" font-family="Helvetica,sans-Serif" font-size="10.00">ti/drivers/mailbox</text>
<text text-anchor="middle" x="171.5" y="-7.5" font-family="Helvetica,sans-Serif" font-size="10.00">/mailbox.h</text>
</a>
</g>
</g>
<!-- Node2&#45;&gt;Node9 -->
<g id="edge8" class="edge"><title>Node2&#45;&gt;Node9</title>
<path fill="none" stroke="midnightblue" d="M1017.62,-82.042C892.992,-82.8589 532.194,-80.5512 226.126,-31.0503"/>
<polygon fill="midnightblue" stroke="midnightblue" points="226.609,-27.5829 216.175,-29.421 225.478,-34.4909 226.609,-27.5829"/>
</g>
<!-- Node10 -->
<g id="node10" class="node"><title>Node10</title>
<g id="a_node10"><a xlink:title=" ">
<polygon fill="white" stroke="#bfbfbf" points="234,-6 234,-25 377,-25 377,-6 234,-6"/>
<text text-anchor="middle" x="305.5" y="-13" font-family="Helvetica,sans-Serif" font-size="10.00">ti/control/mmwave/mmwave.h</text>
</a>
</g>
</g>
<!-- Node2&#45;&gt;Node10 -->
<g id="edge9" class="edge"><title>Node2&#45;&gt;Node10</title>
<path fill="none" stroke="midnightblue" d="M1017.98,-79.7957C909.469,-75.2904 622.835,-61.2756 385.5,-31 376.451,-29.8457 366.873,-28.3502 357.609,-26.7592"/>
<polygon fill="midnightblue" stroke="midnightblue" points="358.178,-23.3055 347.72,-25.0071 356.956,-30.1981 358.178,-23.3055"/>
</g>
<!-- Node11 -->
<g id="node11" class="node"><title>Node11</title>
<g id="a_node11"><a xlink:title=" ">
<polygon fill="white" stroke="#bfbfbf" points="395,-6 395,-25 502,-25 502,-6 395,-6"/>
<text text-anchor="middle" x="448.5" y="-13" font-family="Helvetica,sans-Serif" font-size="10.00">ti/drivers/cbuff/cbuff.h</text>
</a>
</g>
</g>
<!-- Node2&#45;&gt;Node11 -->
<g id="edge10" class="edge"><title>Node2&#45;&gt;Node11</title>
<path fill="none" stroke="midnightblue" d="M1017.97,-79.4581C923.92,-74.6993 698.358,-60.9265 511.5,-31 505.1,-29.975 498.382,-28.6746 491.814,-27.2751"/>
<polygon fill="midnightblue" stroke="midnightblue" points="492.207,-23.7769 481.685,-25.0198 490.685,-30.6096 492.207,-23.7769"/>
</g>
<!-- Node12 -->
<g id="node12" class="node"><title>Node12</title>
<g id="a_node12"><a xlink:title=" ">
<polygon fill="white" stroke="#bfbfbf" points="520.5,-6 520.5,-25 650.5,-25 650.5,-6 520.5,-6"/>
<text text-anchor="middle" x="585.5" y="-13" font-family="Helvetica,sans-Serif" font-size="10.00">ti/drivers/adcbuf/ADCBuf.h</text>
</a>
</g>
</g>
<!-- Node2&#45;&gt;Node12 -->
<g id="edge11" class="edge"><title>Node2&#45;&gt;Node12</title>
<path fill="none" stroke="midnightblue" d="M1017.93,-76.9293C943.474,-69.0666 789.171,-51.8035 659.5,-31 652.04,-29.8032 644.183,-28.4091 636.487,-26.9675"/>
<polygon fill="midnightblue" stroke="midnightblue" points="636.989,-23.5001 626.509,-25.0575 635.673,-30.3753 636.989,-23.5001"/>
</g>
<!-- Node13 -->
<g id="node13" class="node"><title>Node13</title>
<g id="a_node13"><a xlink:title=" ">
<polygon fill="white" stroke="#bfbfbf" points="669,-6 669,-25 784,-25 784,-6 669,-6"/>
<text text-anchor="middle" x="726.5" y="-13" font-family="Helvetica,sans-Serif" font-size="10.00">ti/drivers/edma/edma.h</text>
</a>
</g>
</g>
<!-- Node2&#45;&gt;Node13 -->
<g id="edge12" class="edge"><title>Node2&#45;&gt;Node13</title>
<path fill="none" stroke="midnightblue" d="M1017.69,-73.477C964.233,-63.8172 872.214,-46.9029 793.5,-31 787.596,-29.8072 781.408,-28.5193 775.279,-27.2206"/>
<polygon fill="midnightblue" stroke="midnightblue" points="775.591,-23.7083 765.08,-25.0395 774.127,-30.5535 775.591,-23.7083"/>
</g>
<!-- Node2&#45;&gt;Node14 -->
<g id="edge13" class="edge"><title>Node2&#45;&gt;Node14</title>
<path fill="none" stroke="midnightblue" d="M1107.19,-76.7242C1178.82,-68.8179 1323.69,-51.7986 1445.5,-31 1452.23,-29.8511 1459.3,-28.5147 1466.25,-27.127"/>
<polygon fill="midnightblue" stroke="midnightblue" points="1467.18,-30.5079 1476.28,-25.073 1465.78,-23.6501 1467.18,-30.5079"/>
</g>
<!-- Node2&#45;&gt;Node15 -->
<g id="edge14" class="edge"><title>Node2&#45;&gt;Node15</title>
<path fill="none" stroke="midnightblue" d="M1107.18,-78.5125C1197.34,-72.1857 1407.4,-55.9387 1582.5,-31 1590.82,-29.8144 1599.62,-28.356 1608.17,-26.8256"/>
<polygon fill="midnightblue" stroke="midnightblue" points="1608.85,-30.259 1618.05,-25.0081 1607.58,-23.3745 1608.85,-30.259"/>
</g>
<!-- Node2&#45;&gt;Node16 -->
<g id="edge15" class="edge"><title>Node2&#45;&gt;Node16</title>
<path fill="none" stroke="midnightblue" d="M1107.31,-80.432C1215.85,-77.3487 1501.22,-66.2691 1736.5,-31 1743.24,-29.9901 1750.32,-28.6608 1757.22,-27.2165"/>
<polygon fill="midnightblue" stroke="midnightblue" points="1758.11,-30.6035 1767.13,-25.042 1756.61,-23.7661 1758.11,-30.6035"/>
</g>
<!-- Node2&#45;&gt;Node17 -->
<g id="edge16" class="edge"><title>Node2&#45;&gt;Node17</title>
<path fill="none" stroke="midnightblue" d="M1107.09,-81.1354C1227.63,-79.6298 1570.09,-71.9114 1863.94,-30.9058"/>
<polygon fill="midnightblue" stroke="midnightblue" points="1864.52,-34.3586 1873.94,-29.4956 1863.55,-27.4272 1864.52,-34.3586"/>
</g>
</g>
</svg>
