<?xml version="1.0" encoding="UTF-8" standalone="no"?>
<!DOCTYPE svg PUBLIC "-//W3C//DTD SVG 1.1//EN"
 "http://www.w3.org/Graphics/SVG/1.1/DTD/svg11.dtd">
<!-- Generated by graphviz version 2.38.0 (20140413.2041)
 -->
<!-- Title: ti_sysbios_hal_Hwi_HwiProxy_Module__startupDone__S Pages: 1 -->
<svg width="492pt" height="50pt"
 viewBox="0.00 0.00 492.00 50.00" xmlns="http://www.w3.org/2000/svg" xmlns:xlink="http://www.w3.org/1999/xlink">
<g id="graph0" class="graph" transform="scale(1 1) rotate(0) translate(4 46)">
<title>ti_sysbios_hal_Hwi_HwiProxy_Module__startupDone__S</title>
<polygon fill="white" stroke="none" points="-4,4 -4,-46 488,-46 488,4 -4,4"/>
<!-- Node1 -->
<g id="node1" class="node"><title>Node1</title>
<g id="a_node1"><a xlink:title=" ">
<polygon fill="#bfbfbf" stroke="black" points="0,-6 0,-36 180,-36 180,-6 0,-6"/>
<text text-anchor="start" x="8" y="-24" font-family="Helvetica,sans-Serif" font-size="10.00">ti_sysbios_hal_Hwi</text>
<text text-anchor="middle" x="90" y="-13" font-family="Helvetica,sans-Serif" font-size="10.00">_HwiProxy_Module__startupDone__S</text>
</a>
</g>
</g>
<!-- Node2 -->
<g id="node2" class="node"><title>Node2</title>
<g id="a_node2"><a xlink:href="mss__per4f_8c.html#aa01d8667d035d983ccf6a157b30e0fca" target="_top" xlink:title=" ">
<polygon fill="white" stroke="black" points="216,-0.5 216,-41.5 332,-41.5 332,-0.5 216,-0.5"/>
<text text-anchor="start" x="224" y="-29.5" font-family="Helvetica,sans-Serif" font-size="10.00">ti_sysbios_family_arm</text>
<text text-anchor="start" x="224" y="-18.5" font-family="Helvetica,sans-Serif" font-size="10.00">_v7r_vim_Hwi_Module_</text>
<text text-anchor="middle" x="274" y="-7.5" font-family="Helvetica,sans-Serif" font-size="10.00">_startupDone__S</text>
</a>
</g>
</g>
<!-- Node1&#45;&gt;Node2 -->
<g id="edge1" class="edge"><title>Node1&#45;&gt;Node2</title>
<path fill="none" stroke="midnightblue" d="M180.134,-21C188.778,-21 197.445,-21 205.822,-21"/>
<polygon fill="midnightblue" stroke="midnightblue" points="205.875,-24.5001 215.875,-21 205.875,-17.5001 205.875,-24.5001"/>
</g>
<!-- Node3 -->
<g id="node3" class="node"><title>Node3</title>
<g id="a_node3"><a xlink:href="mss__per4f_8c.html#aaa9de3ec00b0b123014bc9c6f2d34fc9" target="_top" xlink:title=" ">
<polygon fill="white" stroke="black" points="368,-0.5 368,-41.5 484,-41.5 484,-0.5 368,-0.5"/>
<text text-anchor="start" x="376" y="-29.5" font-family="Helvetica,sans-Serif" font-size="10.00">ti_sysbios_family_arm</text>
<text text-anchor="start" x="376" y="-18.5" font-family="Helvetica,sans-Serif" font-size="10.00">_v7r_vim_Hwi_Module_</text>
<text text-anchor="middle" x="426" y="-7.5" font-family="Helvetica,sans-Serif" font-size="10.00">_startupDone__F</text>
</a>
</g>
</g>
<!-- Node2&#45;&gt;Node3 -->
<g id="edge2" class="edge"><title>Node2&#45;&gt;Node3</title>
<path fill="none" stroke="midnightblue" d="M332.136,-21C340.377,-21 348.923,-21 357.344,-21"/>
<polygon fill="midnightblue" stroke="midnightblue" points="357.526,-24.5001 367.525,-21 357.525,-17.5001 357.526,-24.5001"/>
</g>
</g>
</svg>
