<?xml version="1.0" encoding="UTF-8" standalone="no"?>
<!DOCTYPE svg PUBLIC "-//W3C//DTD SVG 1.1//EN"
 "http://www.w3.org/Graphics/SVG/1.1/DTD/svg11.dtd">
<!-- Generated by graphviz version 2.38.0 (20140413.2041)
 -->
<!-- Title: ti_sysbios_family_arm_v7r_vim_Hwi_Handle__label__S Pages: 1 -->
<svg width="305pt" height="50pt"
 viewBox="0.00 0.00 305.00 50.00" xmlns="http://www.w3.org/2000/svg" xmlns:xlink="http://www.w3.org/1999/xlink">
<g id="graph0" class="graph" transform="scale(1 1) rotate(0) translate(4 46)">
<title>ti_sysbios_family_arm_v7r_vim_Hwi_Handle__label__S</title>
<polygon fill="white" stroke="none" points="-4,4 -4,-46 301,-46 301,4 -4,4"/>
<!-- Node1 -->
<g id="node1" class="node"><title>Node1</title>
<g id="a_node1"><a xlink:title=" ">
<polygon fill="#bfbfbf" stroke="black" points="182,-0.5 182,-41.5 297,-41.5 297,-0.5 182,-0.5"/>
<text text-anchor="start" x="190" y="-29.5" font-family="Helvetica,sans-Serif" font-size="10.00">ti_sysbios_family_arm</text>
<text text-anchor="start" x="190" y="-18.5" font-family="Helvetica,sans-Serif" font-size="10.00">_v7r_vim_Hwi_Handle_</text>
<text text-anchor="middle" x="239.5" y="-7.5" font-family="Helvetica,sans-Serif" font-size="10.00">_label__S</text>
</a>
</g>
</g>
<!-- Node2 -->
<g id="node2" class="node"><title>Node2</title>
<g id="a_node2"><a xlink:href="mss__per4f_8c.html#a136c3d9e055f53bd665945794a374277" target="_top" xlink:title=" ">
<polygon fill="white" stroke="black" points="0,-6 0,-36 146,-36 146,-6 0,-6"/>
<text text-anchor="start" x="8" y="-24" font-family="Helvetica,sans-Serif" font-size="10.00">ti_sysbios_hal_Hwi</text>
<text text-anchor="middle" x="73" y="-13" font-family="Helvetica,sans-Serif" font-size="10.00">_HwiProxy_Handle__label__S</text>
</a>
</g>
</g>
<!-- Node1&#45;&gt;Node2 -->
<g id="edge1" class="edge"><title>Node1&#45;&gt;Node2</title>
<path fill="none" stroke="midnightblue" d="M171.733,-21C163.295,-21 154.631,-21 146.115,-21"/>
<polygon fill="midnightblue" stroke="midnightblue" points="171.888,-24.5001 181.888,-21 171.888,-17.5001 171.888,-24.5001"/>
</g>
</g>
</svg>
