<?xml version="1.0" encoding="UTF-8" standalone="no"?>
<!DOCTYPE svg PUBLIC "-//W3C//DTD SVG 1.1//EN"
 "http://www.w3.org/Graphics/SVG/1.1/DTD/svg11.dtd">
<!-- Generated by graphviz version 2.38.0 (20140413.2041)
 -->
<!-- Title: main Pages: 1 -->
<svg width="532pt" height="446pt"
 viewBox="0.00 0.00 532.00 446.00" xmlns="http://www.w3.org/2000/svg" xmlns:xlink="http://www.w3.org/1999/xlink">
<g id="graph0" class="graph" transform="scale(1 1) rotate(0) translate(4 442)">
<title>main</title>
<polygon fill="white" stroke="none" points="-4,4 -4,-442 528,-442 528,4 -4,4"/>
<!-- Node1 -->
<g id="node1" class="node"><title>Node1</title>
<g id="a_node1"><a xlink:title="Main Program entrypoint. This is the entrypoint for the MSS firmware which describe the startup seque...">
<polygon fill="#bfbfbf" stroke="black" points="0,-209.5 0,-228.5 38,-228.5 38,-209.5 0,-209.5"/>
<text text-anchor="middle" x="19" y="-216.5" font-family="Helvetica,sans-Serif" font-size="10.00">main</text>
</a>
</g>
</g>
<!-- Node2 -->
<g id="node2" class="node"><title>Node2</title>
<g id="a_node2"><a xlink:href="mss__main_8c.html#a9bf125d212e1f5fc7b6678fcf3b20868" target="_top" xlink:title="Initialize the MCPI Log Message Buffer.">
<polygon fill="white" stroke="black" points="74,-209.5 74,-228.5 196,-228.5 196,-209.5 74,-209.5"/>
<text text-anchor="middle" x="135" y="-216.5" font-family="Helvetica,sans-Serif" font-size="10.00">MSS_mmWaveInitTASK</text>
</a>
</g>
</g>
<!-- Node1&#45;&gt;Node2 -->
<g id="edge1" class="edge"><title>Node1&#45;&gt;Node2</title>
<path fill="none" stroke="midnightblue" d="M38.0636,-219C45.2562,-219 54.0332,-219 63.3255,-219"/>
<polygon fill="midnightblue" stroke="midnightblue" points="63.5603,-222.5 73.5603,-219 63.5602,-215.5 63.5603,-222.5"/>
</g>
<!-- Node3 -->
<g id="node3" class="node"><title>Node3</title>
<g id="a_node3"><a xlink:href="mss__main_8c.html#a2ecebb929cb2a75806536a21aedba1ff" target="_top" xlink:title="mboxCallbackFxn_MSS_ch0 is a callback function. Function is invoked for each received messege from th...">
<polygon fill="white" stroke="black" points="243,-418.5 243,-437.5 386,-437.5 386,-418.5 243,-418.5"/>
<text text-anchor="middle" x="314.5" y="-425.5" font-family="Helvetica,sans-Serif" font-size="10.00">mboxCallbackFxn_MSS_ch0</text>
</a>
</g>
</g>
<!-- Node2&#45;&gt;Node3 -->
<g id="edge2" class="edge"><title>Node2&#45;&gt;Node3</title>
<path fill="none" stroke="midnightblue" d="M137.882,-228.719C144.511,-260.196 169.812,-360.136 232,-409 234.303,-410.809 236.748,-412.451 239.299,-413.942"/>
<polygon fill="midnightblue" stroke="midnightblue" points="237.817,-417.113 248.328,-418.444 240.941,-410.849 237.817,-417.113"/>
</g>
<!-- Node4 -->
<g id="node4" class="node"><title>Node4</title>
<g id="a_node4"><a xlink:href="mss__main_8c.html#aab2ee2281d102f40b9babe34af5e2509" target="_top" xlink:title="The Task is used to handle the recieved messages from the DSS Peer over the mailbox virtual communica...">
<polygon fill="white" stroke="black" points="256.5,-380.5 256.5,-399.5 372.5,-399.5 372.5,-380.5 256.5,-380.5"/>
<text text-anchor="middle" x="314.5" y="-387.5" font-family="Helvetica,sans-Serif" font-size="10.00">mboxIn_uartOut_TASK</text>
</a>
</g>
</g>
<!-- Node2&#45;&gt;Node4 -->
<g id="edge3" class="edge"><title>Node2&#45;&gt;Node4</title>
<path fill="none" stroke="midnightblue" d="M139.144,-228.666C148.496,-255.806 178.843,-333.191 232,-371 236.514,-374.211 241.491,-376.886 246.693,-379.115"/>
<polygon fill="midnightblue" stroke="midnightblue" points="245.655,-382.463 256.248,-382.664 248.092,-375.901 245.655,-382.463"/>
</g>
<!-- Node6 -->
<g id="node6" class="node"><title>Node6</title>
<g id="a_node6"><a xlink:href="mss__main_8c.html#a17166dac98c5ccaa0367b86387448247" target="_top" xlink:title="This is the callback function registered with the ADC Driver which is invoked when a chirp is availab...">
<polygon fill="white" stroke="black" points="258,-342.5 258,-361.5 371,-361.5 371,-342.5 258,-342.5"/>
<text text-anchor="middle" x="314.5" y="-349.5" font-family="Helvetica,sans-Serif" font-size="10.00">MSS_chirpIntCallback</text>
</a>
</g>
</g>
<!-- Node2&#45;&gt;Node6 -->
<g id="edge5" class="edge"><title>Node2&#45;&gt;Node6</title>
<path fill="none" stroke="midnightblue" d="M141.25,-228.761C153.767,-251.042 187.661,-305.818 232,-333 236.999,-336.065 242.448,-338.635 248.079,-340.792"/>
<polygon fill="midnightblue" stroke="midnightblue" points="247.09,-344.151 257.684,-344.043 249.334,-337.521 247.09,-344.151"/>
</g>
<!-- Node7 -->
<g id="node7" class="node"><title>Node7</title>
<g id="a_node7"><a xlink:href="mm_wave___x_s_s_8h.html#a7ea0d0d15e4d7da097e286f887e0fe86" target="_top" xlink:title=" ">
<polygon fill="white" stroke="black" points="279,-304.5 279,-323.5 350,-323.5 350,-304.5 279,-304.5"/>
<text text-anchor="middle" x="314.5" y="-311.5" font-family="Helvetica,sans-Serif" font-size="10.00">MSS_CLIInit</text>
</a>
</g>
</g>
<!-- Node2&#45;&gt;Node7 -->
<g id="edge6" class="edge"><title>Node2&#45;&gt;Node7</title>
<path fill="none" stroke="midnightblue" d="M145.103,-228.564C161.103,-244.791 196.003,-277.641 232,-295 243.348,-300.473 256.36,-304.418 268.607,-307.242"/>
<polygon fill="midnightblue" stroke="midnightblue" points="268.153,-310.724 278.66,-309.361 269.596,-303.874 268.153,-310.724"/>
</g>
<!-- Node8 -->
<g id="node8" class="node"><title>Node8</title>
<g id="a_node8"><a xlink:href="mss__main_8c.html#a1d1f87db58f6210edd691eeafe2a36a9" target="_top" xlink:title="This is a registered event function which is invoked when an event is recieved from the BSS....">
<polygon fill="white" stroke="black" points="273,-266.5 273,-285.5 356,-285.5 356,-266.5 273,-266.5"/>
<text text-anchor="middle" x="314.5" y="-273.5" font-family="Helvetica,sans-Serif" font-size="10.00">MSS_eventFxn</text>
</a>
</g>
</g>
<!-- Node2&#45;&gt;Node8 -->
<g id="edge7" class="edge"><title>Node2&#45;&gt;Node8</title>
<path fill="none" stroke="midnightblue" d="M157.404,-228.531C176.646,-236.842 205.824,-248.817 232,-257 241.983,-260.121 252.797,-262.989 263.184,-265.5"/>
<polygon fill="midnightblue" stroke="midnightblue" points="262.437,-268.919 272.972,-267.794 264.035,-262.104 262.437,-268.919"/>
</g>
<!-- Node9 -->
<g id="node9" class="node"><title>Node9</title>
<g id="a_node9"><a xlink:href="mss__main_8c.html#a16eb8d8fc62e096524db88914f5d5049" target="_top" xlink:title="This is the callback function registered with the ADC Driver which is invoked when a frame is started...">
<polygon fill="white" stroke="black" points="246,-228.5 246,-247.5 383,-247.5 383,-228.5 246,-228.5"/>
<text text-anchor="middle" x="314.5" y="-235.5" font-family="Helvetica,sans-Serif" font-size="10.00">MSS_frameStartIntCallback</text>
</a>
</g>
</g>
<!-- Node2&#45;&gt;Node9 -->
<g id="edge8" class="edge"><title>Node2&#45;&gt;Node9</title>
<path fill="none" stroke="midnightblue" d="M196.093,-225.433C208.837,-226.797 222.463,-228.255 235.754,-229.678"/>
<polygon fill="midnightblue" stroke="midnightblue" points="235.517,-233.172 245.833,-230.757 236.262,-226.212 235.517,-233.172"/>
</g>
<!-- Node10 -->
<g id="node10" class="node"><title>Node10</title>
<g id="a_node10"><a xlink:href="mss__main_8c.html#ace93b406001cf89e20e37723200ac7dc" target="_top" xlink:title="This is the application registered callback function which is invoked after the MSS has been closed.">
<polygon fill="white" stroke="black" points="233,-190.5 233,-209.5 396,-209.5 396,-190.5 233,-190.5"/>
<text text-anchor="middle" x="314.5" y="-197.5" font-family="Helvetica,sans-Serif" font-size="10.00">MSS_mmWaveCloseCallbackFxn</text>
</a>
</g>
</g>
<!-- Node2&#45;&gt;Node10 -->
<g id="edge9" class="edge"><title>Node2&#45;&gt;Node10</title>
<path fill="none" stroke="midnightblue" d="M196.093,-212.567C204.643,-211.652 213.59,-210.695 222.567,-209.734"/>
<polygon fill="midnightblue" stroke="midnightblue" points="223.125,-213.194 232.695,-208.65 222.379,-206.234 223.125,-213.194"/>
</g>
<!-- Node11 -->
<g id="node11" class="node"><title>Node11</title>
<g id="a_node11"><a xlink:href="mss__main_8c.html#a4c87c1a40f978d1cd7c40eaa8b0d41f3" target="_top" xlink:title="This is the application registered callback function which is invoked after the configuration has bee...">
<polygon fill="white" stroke="black" points="232,-152.5 232,-171.5 397,-171.5 397,-152.5 232,-152.5"/>
<text text-anchor="middle" x="314.5" y="-159.5" font-family="Helvetica,sans-Serif" font-size="10.00">MSS_mmWaveConfigCallbackFxn</text>
</a>
</g>
</g>
<!-- Node2&#45;&gt;Node11 -->
<g id="edge10" class="edge"><title>Node2&#45;&gt;Node11</title>
<path fill="none" stroke="midnightblue" d="M157.404,-209.469C176.646,-201.158 205.824,-189.183 232,-181 240.073,-178.476 248.689,-176.118 257.184,-173.98"/>
<polygon fill="midnightblue" stroke="midnightblue" points="258.173,-177.342 267.061,-171.575 256.517,-170.54 258.173,-177.342"/>
</g>
<!-- Node12 -->
<g id="node12" class="node"><title>Node12</title>
<g id="a_node12"><a xlink:href="mss__main_8c.html#af2ef11ef31f2b3b041c0958437846040" target="_top" xlink:title="This is the task which provides an execution context for the mmWave control module.">
<polygon fill="white" stroke="black" points="254.5,-114.5 254.5,-133.5 374.5,-133.5 374.5,-114.5 254.5,-114.5"/>
<text text-anchor="middle" x="314.5" y="-121.5" font-family="Helvetica,sans-Serif" font-size="10.00">MSS_mmWaveCtrlTask</text>
</a>
</g>
</g>
<!-- Node2&#45;&gt;Node12 -->
<g id="edge11" class="edge"><title>Node2&#45;&gt;Node12</title>
<path fill="none" stroke="midnightblue" d="M145.103,-209.436C161.103,-193.209 196.003,-160.359 232,-143 236.989,-140.594 242.3,-138.483 247.726,-136.633"/>
<polygon fill="midnightblue" stroke="midnightblue" points="249.059,-139.884 257.572,-133.577 246.984,-133.199 249.059,-139.884"/>
</g>
<!-- Node13 -->
<g id="node13" class="node"><title>Node13</title>
<g id="a_node13"><a xlink:href="mss__main_8c.html#aa8bb14e64725549ea5c998ab2b606834" target="_top" xlink:title="This is the application registered callback function which is invoked after the MSS has been opened.">
<polygon fill="white" stroke="black" points="234,-76.5 234,-95.5 395,-95.5 395,-76.5 234,-76.5"/>
<text text-anchor="middle" x="314.5" y="-83.5" font-family="Helvetica,sans-Serif" font-size="10.00">MSS_mmWaveOpenCallbackFxn</text>
</a>
</g>
</g>
<!-- Node2&#45;&gt;Node13 -->
<g id="edge12" class="edge"><title>Node2&#45;&gt;Node13</title>
<path fill="none" stroke="midnightblue" d="M141.25,-209.239C153.767,-186.958 187.661,-132.182 232,-105 235.455,-102.882 239.124,-101 242.92,-99.3279"/>
<polygon fill="midnightblue" stroke="midnightblue" points="244.508,-102.466 252.567,-95.588 241.978,-95.9392 244.508,-102.466"/>
</g>
<!-- Node14 -->
<g id="node14" class="node"><title>Node14</title>
<g id="a_node14"><a xlink:href="mss__main_8c.html#a290500bd059ac684393436ad3bb16396" target="_top" xlink:title="Application registered callback function which is invoked on the peer domain just before the mmWave l...">
<polygon fill="white" stroke="black" points="235,-38.5 235,-57.5 394,-57.5 394,-38.5 235,-38.5"/>
<text text-anchor="middle" x="314.5" y="-45.5" font-family="Helvetica,sans-Serif" font-size="10.00">MSS_mmWaveStartCallbackFxn</text>
</a>
</g>
</g>
<!-- Node2&#45;&gt;Node14 -->
<g id="edge13" class="edge"><title>Node2&#45;&gt;Node14</title>
<path fill="none" stroke="midnightblue" d="M139.144,-209.334C148.496,-182.194 178.843,-104.809 232,-67 234.723,-65.0631 237.615,-63.321 240.623,-61.7541"/>
<polygon fill="midnightblue" stroke="midnightblue" points="242.26,-64.8554 249.943,-57.5601 239.387,-58.4719 242.26,-64.8554"/>
</g>
<!-- Node15 -->
<g id="node15" class="node"><title>Node15</title>
<g id="a_node15"><a xlink:href="mss__main_8c.html#ab2dacb1c39819c33438370b35daec7a5" target="_top" xlink:title="This is the application registered callback function which is invoked after the MSS has been stopped....">
<polygon fill="white" stroke="black" points="235.5,-0.5 235.5,-19.5 393.5,-19.5 393.5,-0.5 235.5,-0.5"/>
<text text-anchor="middle" x="314.5" y="-7.5" font-family="Helvetica,sans-Serif" font-size="10.00">MSS_mmWaveStopCallbackFxn</text>
</a>
</g>
</g>
<!-- Node2&#45;&gt;Node15 -->
<g id="edge14" class="edge"><title>Node2&#45;&gt;Node15</title>
<path fill="none" stroke="midnightblue" d="M137.882,-209.281C144.511,-177.804 169.812,-77.8644 232,-29 234.303,-27.1907 236.748,-25.5485 239.299,-24.0584"/>
<polygon fill="midnightblue" stroke="midnightblue" points="240.941,-27.1507 248.328,-19.5556 237.817,-20.8865 240.941,-27.1507"/>
</g>
<!-- Node5 -->
<g id="node5" class="node"><title>Node5</title>
<g id="a_node5"><a xlink:href="mss__main_8c.html#afac751fde1219a4650eaef8a5058fc39" target="_top" xlink:title=" ">
<polygon fill="white" stroke="black" points="433,-380.5 433,-399.5 524,-399.5 524,-380.5 433,-380.5"/>
<text text-anchor="middle" x="478.5" y="-387.5" font-family="Helvetica,sans-Serif" font-size="10.00">MSS_mboxWrite</text>
</a>
</g>
</g>
<!-- Node4&#45;&gt;Node5 -->
<g id="edge4" class="edge"><title>Node4&#45;&gt;Node5</title>
<path fill="none" stroke="midnightblue" d="M372.615,-390C388.831,-390 406.449,-390 422.534,-390"/>
<polygon fill="midnightblue" stroke="midnightblue" points="422.853,-393.5 432.853,-390 422.853,-386.5 422.853,-393.5"/>
</g>
</g>
</svg>
