<?xml version="1.0" encoding="UTF-8" standalone="no"?>
<!DOCTYPE svg PUBLIC "-//W3C//DTD SVG 1.1//EN"
 "http://www.w3.org/Graphics/SVG/1.1/DTD/svg11.dtd">
<!-- Generated by graphviz version 2.38.0 (20140413.2041)
 -->
<!-- Title: ti_sysbios_hal_Cache_CacheProxy_Module__startupDone__S Pages: 1 -->
<svg width="330pt" height="50pt"
 viewBox="0.00 0.00 330.00 50.00" xmlns="http://www.w3.org/2000/svg" xmlns:xlink="http://www.w3.org/1999/xlink">
<g id="graph0" class="graph" transform="scale(1 1) rotate(0) translate(4 46)">
<title>ti_sysbios_hal_Cache_CacheProxy_Module__startupDone__S</title>
<polygon fill="white" stroke="none" points="-4,4 -4,-46 326,-46 326,4 -4,4"/>
<!-- Node1 -->
<g id="node1" class="node"><title>Node1</title>
<g id="a_node1"><a xlink:title=" ">
<polygon fill="#bfbfbf" stroke="black" points="0,-0.5 0,-41.5 152,-41.5 152,-0.5 0,-0.5"/>
<text text-anchor="start" x="8" y="-29.5" font-family="Helvetica,sans-Serif" font-size="10.00">ti_sysbios_hal_Cache</text>
<text text-anchor="start" x="8" y="-18.5" font-family="Helvetica,sans-Serif" font-size="10.00">_CacheProxy_Module__startup</text>
<text text-anchor="middle" x="76" y="-7.5" font-family="Helvetica,sans-Serif" font-size="10.00">Done__S</text>
</a>
</g>
</g>
<!-- Node2 -->
<g id="node2" class="node"><title>Node2</title>
<g id="a_node2"><a xlink:href="mss__per4f_8c.html#a20758b730168edd2370b1279add0065b" target="_top" xlink:title=" ">
<polygon fill="white" stroke="black" points="188,-6 188,-36 322,-36 322,-6 188,-6"/>
<text text-anchor="start" x="196" y="-24" font-family="Helvetica,sans-Serif" font-size="10.00">ti_sysbios_hal_CacheNull</text>
<text text-anchor="middle" x="255" y="-13" font-family="Helvetica,sans-Serif" font-size="10.00">_Module__startupDone__S</text>
</a>
</g>
</g>
<!-- Node1&#45;&gt;Node2 -->
<g id="edge1" class="edge"><title>Node1&#45;&gt;Node2</title>
<path fill="none" stroke="midnightblue" d="M152.064,-21C160.504,-21 169.111,-21 177.568,-21"/>
<polygon fill="midnightblue" stroke="midnightblue" points="177.789,-24.5001 187.789,-21 177.789,-17.5001 177.789,-24.5001"/>
</g>
</g>
</svg>
