<?xml version="1.0" encoding="UTF-8" standalone="no"?>
<!DOCTYPE svg PUBLIC "-//W3C//DTD SVG 1.1//EN"
 "http://www.w3.org/Graphics/SVG/1.1/DTD/svg11.dtd">
<!-- Generated by graphviz version 2.38.0 (20140413.2041)
 -->
<!-- Title: MSS_CLIBasicCfg Pages: 1 -->
<svg width="444pt" height="28pt"
 viewBox="0.00 0.00 444.00 28.00" xmlns="http://www.w3.org/2000/svg" xmlns:xlink="http://www.w3.org/1999/xlink">
<g id="graph0" class="graph" transform="scale(1 1) rotate(0) translate(4 24)">
<title>MSS_CLIBasicCfg</title>
<polygon fill="white" stroke="none" points="-4,4 -4,-24 440,-24 440,4 -4,4"/>
<!-- Node1 -->
<g id="node1" class="node"><title>Node1</title>
<g id="a_node1"><a xlink:title="This is the CLI Handler for basic configuration.">
<polygon fill="#bfbfbf" stroke="black" points="339,-0.5 339,-19.5 436,-19.5 436,-0.5 339,-0.5"/>
<text text-anchor="middle" x="387.5" y="-7.5" font-family="Helvetica,sans-Serif" font-size="10.00">MSS_CLIBasicCfg</text>
</a>
</g>
</g>
<!-- Node2 -->
<g id="node2" class="node"><title>Node2</title>
<g id="a_node2"><a xlink:href="mss__mrr__cli_8c.html#a7ea0d0d15e4d7da097e286f887e0fe86" target="_top" xlink:title="This is the CLI Execution Task.">
<polygon fill="white" stroke="black" points="232,-0.5 232,-19.5 303,-19.5 303,-0.5 232,-0.5"/>
<text text-anchor="middle" x="267.5" y="-7.5" font-family="Helvetica,sans-Serif" font-size="10.00">MSS_CLIInit</text>
</a>
</g>
</g>
<!-- Node1&#45;&gt;Node2 -->
<g id="edge1" class="edge"><title>Node1&#45;&gt;Node2</title>
<path fill="none" stroke="midnightblue" d="M328.7,-10C320.006,-10 311.277,-10 303.269,-10"/>
<polygon fill="midnightblue" stroke="midnightblue" points="328.845,-13.5001 338.845,-10 328.845,-6.5001 328.845,-13.5001"/>
</g>
<!-- Node3 -->
<g id="node3" class="node"><title>Node3</title>
<g id="a_node3"><a xlink:href="mss__main_8c.html#a9bf125d212e1f5fc7b6678fcf3b20868" target="_top" xlink:title="Initialize the MCPI Log Message Buffer.">
<polygon fill="white" stroke="black" points="74,-0.5 74,-19.5 196,-19.5 196,-0.5 74,-0.5"/>
<text text-anchor="middle" x="135" y="-7.5" font-family="Helvetica,sans-Serif" font-size="10.00">MSS_mmWaveInitTASK</text>
</a>
</g>
</g>
<!-- Node2&#45;&gt;Node3 -->
<g id="edge2" class="edge"><title>Node2&#45;&gt;Node3</title>
<path fill="none" stroke="midnightblue" d="M221.699,-10C213.427,-10 204.667,-10 196.029,-10"/>
<polygon fill="midnightblue" stroke="midnightblue" points="221.871,-13.5001 231.871,-10 221.871,-6.5001 221.871,-13.5001"/>
</g>
<!-- Node4 -->
<g id="node4" class="node"><title>Node4</title>
<g id="a_node4"><a xlink:href="mss__main_8c.html#a52d2cba30e6946c95578be946ac12a65" target="_top" xlink:title="Main Program entrypoint. This is the entrypoint for the MSS firmware which describe the startup seque...">
<polygon fill="white" stroke="black" points="0,-0.5 0,-19.5 38,-19.5 38,-0.5 0,-0.5"/>
<text text-anchor="middle" x="19" y="-7.5" font-family="Helvetica,sans-Serif" font-size="10.00">main</text>
</a>
</g>
</g>
<!-- Node3&#45;&gt;Node4 -->
<g id="edge3" class="edge"><title>Node3&#45;&gt;Node4</title>
<path fill="none" stroke="midnightblue" d="M63.9621,-10C54.4658,-10 45.4797,-10 38.1365,-10"/>
<polygon fill="midnightblue" stroke="midnightblue" points="63.9954,-13.5001 73.9954,-10 63.9953,-6.5001 63.9954,-13.5001"/>
</g>
</g>
</svg>
