<?xml version="1.0" encoding="UTF-8" standalone="no"?>
<!DOCTYPE svg PUBLIC "-//W3C//DTD SVG 1.1//EN"
 "http://www.w3.org/Graphics/SVG/1.1/DTD/svg11.dtd">
<!-- Generated by graphviz version 2.38.0 (20140413.2041)
 -->
<!-- Title: _realloc_r Pages: 1 -->
<svg width="391pt" height="72pt"
 viewBox="0.00 0.00 391.00 71.50" xmlns="http://www.w3.org/2000/svg" xmlns:xlink="http://www.w3.org/1999/xlink">
<g id="graph0" class="graph" transform="scale(1 1) rotate(0) translate(4 67.5)">
<title>_realloc_r</title>
<polygon fill="white" stroke="none" points="-4,4 -4,-67.5 387,-67.5 387,4 -4,4"/>
<!-- Node1 -->
<g id="node1" class="node"><title>Node1</title>
<g id="a_node1"><a xlink:title=" ">
<polygon fill="#bfbfbf" stroke="black" points="0,-25 0,-44 59,-44 59,-25 0,-25"/>
<text text-anchor="middle" x="29.5" y="-32" font-family="Helvetica,sans-Serif" font-size="10.00">_realloc_r</text>
</a>
</g>
</g>
<!-- Node2 -->
<g id="node2" class="node"><title>Node2</title>
<g id="a_node2"><a xlink:href="mss__mrr__per4f_8c.html#a557df23fa0d900583a9076c0ce68ddd9" target="_top" xlink:title=" ">
<polygon fill="white" stroke="black" points="95,-25 95,-44 140,-44 140,-25 95,-25"/>
<text text-anchor="middle" x="117.5" y="-32" font-family="Helvetica,sans-Serif" font-size="10.00">realloc</text>
</a>
</g>
</g>
<!-- Node1&#45;&gt;Node2 -->
<g id="edge1" class="edge"><title>Node1&#45;&gt;Node2</title>
<path fill="none" stroke="midnightblue" d="M59.1368,-34.5C67.3135,-34.5 76.2732,-34.5 84.6305,-34.5"/>
<polygon fill="midnightblue" stroke="midnightblue" points="84.7899,-38.0001 94.7899,-34.5 84.7899,-31.0001 84.7899,-38.0001"/>
</g>
<!-- Node3 -->
<g id="node3" class="node"><title>Node3</title>
<g id="a_node3"><a xlink:href="mss__mrr__per4f_8c.html#a0bfc06df0d2bce368449008766dba9f2" target="_top" xlink:title=" ">
<polygon fill="white" stroke="black" points="182.5,-44 182.5,-63 214.5,-63 214.5,-44 182.5,-44"/>
<text text-anchor="middle" x="198.5" y="-51" font-family="Helvetica,sans-Serif" font-size="10.00">free</text>
</a>
</g>
</g>
<!-- Node2&#45;&gt;Node3 -->
<g id="edge2" class="edge"><title>Node2&#45;&gt;Node3</title>
<path fill="none" stroke="midnightblue" d="M140.087,-39.6918C150.092,-42.0981 162.042,-44.9721 172.443,-47.4736"/>
<polygon fill="midnightblue" stroke="midnightblue" points="171.657,-50.8842 182.198,-49.8197 173.293,-44.0783 171.657,-50.8842"/>
</g>
<!-- Node4 -->
<g id="node4" class="node"><title>Node4</title>
<g id="a_node4"><a xlink:href="mss__mrr__per4f_8c.html#a7eb63a8643e6c8cf8876a44f96e96008" target="_top" xlink:title=" ">
<polygon fill="white" stroke="black" points="176,-6 176,-25 221,-25 221,-6 176,-6"/>
<text text-anchor="middle" x="198.5" y="-13" font-family="Helvetica,sans-Serif" font-size="10.00">malloc</text>
</a>
</g>
</g>
<!-- Node2&#45;&gt;Node4 -->
<g id="edge3" class="edge"><title>Node2&#45;&gt;Node4</title>
<path fill="none" stroke="midnightblue" d="M140.087,-29.3082C148.099,-27.3813 157.358,-25.1543 166.071,-23.059"/>
<polygon fill="midnightblue" stroke="midnightblue" points="167.035,-26.427 175.939,-20.6856 165.398,-19.6211 167.035,-26.427"/>
</g>
<!-- Node5 -->
<g id="node5" class="node"><title>Node5</title>
<g id="a_node5"><a xlink:href="mss__mrr__per4f_8c.html#ada11ebf286c23107f25e5752137918b8" target="_top" xlink:title=" ">
<polygon fill="white" stroke="black" points="257,-0.5 257,-30.5 383,-30.5 383,-0.5 257,-0.5"/>
<text text-anchor="start" x="265" y="-18.5" font-family="Helvetica,sans-Serif" font-size="10.00">ti_sysbios_rts_MemAlloc</text>
<text text-anchor="middle" x="320" y="-7.5" font-family="Helvetica,sans-Serif" font-size="10.00">_alloc</text>
</a>
</g>
</g>
<!-- Node4&#45;&gt;Node5 -->
<g id="edge4" class="edge"><title>Node4&#45;&gt;Node5</title>
<path fill="none" stroke="midnightblue" d="M221.141,-15.5C228.599,-15.5 237.417,-15.5 246.656,-15.5"/>
<polygon fill="midnightblue" stroke="midnightblue" points="246.802,-19.0001 256.802,-15.5 246.802,-12.0001 246.802,-19.0001"/>
</g>
</g>
</svg>
