<?xml version="1.0" encoding="UTF-8" standalone="no"?>
<!DOCTYPE svg PUBLIC "-//W3C//DTD SVG 1.1//EN"
 "http://www.w3.org/Graphics/SVG/1.1/DTD/svg11.dtd">
<!-- Generated by graphviz version 2.38.0 (20140413.2041)
 -->
<!-- Title: ti_sysbios_gates_GateHwi_Object__delete__S Pages: 1 -->
<svg width="313pt" height="137pt"
 viewBox="0.00 0.00 313.00 137.00" xmlns="http://www.w3.org/2000/svg" xmlns:xlink="http://www.w3.org/1999/xlink">
<g id="graph0" class="graph" transform="scale(1 1) rotate(0) translate(4 133)">
<title>ti_sysbios_gates_GateHwi_Object__delete__S</title>
<polygon fill="white" stroke="none" points="-4,4 -4,-133 309,-133 309,4 -4,4"/>
<!-- Node1 -->
<g id="node1" class="node"><title>Node1</title>
<g id="a_node1"><a xlink:title=" ">
<polygon fill="#bfbfbf" stroke="black" points="173,-49.5 173,-79.5 305,-79.5 305,-49.5 173,-49.5"/>
<text text-anchor="start" x="181" y="-67.5" font-family="Helvetica,sans-Serif" font-size="10.00">ti_sysbios_gates_GateHwi</text>
<text text-anchor="middle" x="239" y="-56.5" font-family="Helvetica,sans-Serif" font-size="10.00">_Object__delete__S</text>
</a>
</g>
</g>
<!-- Node2 -->
<g id="node2" class="node"><title>Node2</title>
<g id="a_node2"><a xlink:href="mss__mrr__per4f_8c.html#a813475e0ebb3ef526e7b58d409290a42" target="_top" xlink:title=" ">
<polygon fill="white" stroke="black" points="2.5,-98.5 2.5,-128.5 134.5,-128.5 134.5,-98.5 2.5,-98.5"/>
<text text-anchor="start" x="10.5" y="-116.5" font-family="Helvetica,sans-Serif" font-size="10.00">ti_sysbios_gates_GateHwi</text>
<text text-anchor="middle" x="68.5" y="-105.5" font-family="Helvetica,sans-Serif" font-size="10.00">_delete</text>
</a>
</g>
</g>
<!-- Node1&#45;&gt;Node2 -->
<g id="edge1" class="edge"><title>Node1&#45;&gt;Node2</title>
<path fill="none" stroke="midnightblue" d="M176.466,-82.3941C158.343,-87.6644 138.704,-93.3755 121.259,-98.4484"/>
<polygon fill="midnightblue" stroke="midnightblue" points="177.445,-85.7546 186.07,-79.6014 175.49,-79.0331 177.445,-85.7546"/>
</g>
<!-- Node3 -->
<g id="node3" class="node"><title>Node3</title>
<g id="a_node3"><a xlink:href="mss__mrr__per4f_8c.html#a5a52ffc1151286f0d44c05ad1ee8261c" target="_top" xlink:title=" ">
<polygon fill="white" stroke="black" points="2,-49.5 2,-79.5 135,-79.5 135,-49.5 2,-49.5"/>
<text text-anchor="start" x="10" y="-67.5" font-family="Helvetica,sans-Serif" font-size="10.00">xdc_runtime_Main_Module</text>
<text text-anchor="middle" x="68.5" y="-56.5" font-family="Helvetica,sans-Serif" font-size="10.00">_GateProxy_delete</text>
</a>
</g>
</g>
<!-- Node1&#45;&gt;Node3 -->
<g id="edge2" class="edge"><title>Node1&#45;&gt;Node3</title>
<path fill="none" stroke="midnightblue" d="M162.566,-64.5C153.381,-64.5 144.054,-64.5 135.029,-64.5"/>
<polygon fill="midnightblue" stroke="midnightblue" points="162.854,-68.0001 172.854,-64.5 162.853,-61.0001 162.854,-68.0001"/>
</g>
<!-- Node4 -->
<g id="node4" class="node"><title>Node4</title>
<g id="a_node4"><a xlink:href="mss__mrr__per4f_8c.html#a5f25fbf700e4af517df21aa0813cdc10" target="_top" xlink:title=" ">
<polygon fill="white" stroke="black" points="0,-0.5 0,-30.5 137,-30.5 137,-0.5 0,-0.5"/>
<text text-anchor="start" x="8" y="-18.5" font-family="Helvetica,sans-Serif" font-size="10.00">xdc_runtime_System</text>
<text text-anchor="middle" x="68.5" y="-7.5" font-family="Helvetica,sans-Serif" font-size="10.00">_Module_GateProxy_delete</text>
</a>
</g>
</g>
<!-- Node1&#45;&gt;Node4 -->
<g id="edge3" class="edge"><title>Node1&#45;&gt;Node4</title>
<path fill="none" stroke="midnightblue" d="M176.466,-46.6059C158.343,-41.3356 138.704,-35.6245 121.259,-30.5516"/>
<polygon fill="midnightblue" stroke="midnightblue" points="175.49,-49.9669 186.07,-49.3986 177.445,-43.2454 175.49,-49.9669"/>
</g>
</g>
</svg>
