<?xml version="1.0" encoding="UTF-8" standalone="no"?>
<!DOCTYPE svg PUBLIC "-//W3C//DTD SVG 1.1//EN"
 "http://www.w3.org/Graphics/SVG/1.1/DTD/svg11.dtd">
<!-- Generated by graphviz version 2.38.0 (20140413.2041)
 -->
<!-- Title: MSS_mmWaveInitTASK Pages: 1 -->
<svg width="458pt" height="446pt"
 viewBox="0.00 0.00 458.00 446.00" xmlns="http://www.w3.org/2000/svg" xmlns:xlink="http://www.w3.org/1999/xlink">
<g id="graph0" class="graph" transform="scale(1 1) rotate(0) translate(4 442)">
<title>MSS_mmWaveInitTASK</title>
<polygon fill="white" stroke="none" points="-4,4 -4,-442 454,-442 454,4 -4,4"/>
<!-- Node1 -->
<g id="node1" class="node"><title>Node1</title>
<g id="a_node1"><a xlink:title="Initialize the MCPI Log Message Buffer.">
<polygon fill="#bfbfbf" stroke="black" points="0,-209.5 0,-228.5 122,-228.5 122,-209.5 0,-209.5"/>
<text text-anchor="middle" x="61" y="-216.5" font-family="Helvetica,sans-Serif" font-size="10.00">MSS_mmWaveInitTASK</text>
</a>
</g>
</g>
<!-- Node2 -->
<g id="node2" class="node"><title>Node2</title>
<g id="a_node2"><a xlink:href="mss__main_8c.html#a2ecebb929cb2a75806536a21aedba1ff" target="_top" xlink:title="mboxCallbackFxn_MSS_ch0 is a callback function. Function is invoked for each received messege from th...">
<polygon fill="white" stroke="black" points="169,-418.5 169,-437.5 312,-437.5 312,-418.5 169,-418.5"/>
<text text-anchor="middle" x="240.5" y="-425.5" font-family="Helvetica,sans-Serif" font-size="10.00">mboxCallbackFxn_MSS_ch0</text>
</a>
</g>
</g>
<!-- Node1&#45;&gt;Node2 -->
<g id="edge1" class="edge"><title>Node1&#45;&gt;Node2</title>
<path fill="none" stroke="midnightblue" d="M63.8824,-228.719C70.5105,-260.196 95.8119,-360.136 158,-409 160.303,-410.809 162.748,-412.451 165.299,-413.942"/>
<polygon fill="midnightblue" stroke="midnightblue" points="163.817,-417.113 174.328,-418.444 166.941,-410.849 163.817,-417.113"/>
</g>
<!-- Node3 -->
<g id="node3" class="node"><title>Node3</title>
<g id="a_node3"><a xlink:href="mss__main_8c.html#aab2ee2281d102f40b9babe34af5e2509" target="_top" xlink:title="The Task is used to handle the recieved messages from the DSS Peer over the mailbox virtual communica...">
<polygon fill="white" stroke="black" points="182.5,-380.5 182.5,-399.5 298.5,-399.5 298.5,-380.5 182.5,-380.5"/>
<text text-anchor="middle" x="240.5" y="-387.5" font-family="Helvetica,sans-Serif" font-size="10.00">mboxIn_uartOut_TASK</text>
</a>
</g>
</g>
<!-- Node1&#45;&gt;Node3 -->
<g id="edge2" class="edge"><title>Node1&#45;&gt;Node3</title>
<path fill="none" stroke="midnightblue" d="M65.1442,-228.666C74.4957,-255.806 104.843,-333.191 158,-371 162.514,-374.211 167.491,-376.886 172.693,-379.115"/>
<polygon fill="midnightblue" stroke="midnightblue" points="171.655,-382.463 182.248,-382.664 174.092,-375.901 171.655,-382.463"/>
</g>
<!-- Node5 -->
<g id="node5" class="node"><title>Node5</title>
<g id="a_node5"><a xlink:href="mss__main_8c.html#a17166dac98c5ccaa0367b86387448247" target="_top" xlink:title="This is the callback function registered with the ADC Driver which is invoked when a chirp is availab...">
<polygon fill="white" stroke="black" points="184,-342.5 184,-361.5 297,-361.5 297,-342.5 184,-342.5"/>
<text text-anchor="middle" x="240.5" y="-349.5" font-family="Helvetica,sans-Serif" font-size="10.00">MSS_chirpIntCallback</text>
</a>
</g>
</g>
<!-- Node1&#45;&gt;Node5 -->
<g id="edge4" class="edge"><title>Node1&#45;&gt;Node5</title>
<path fill="none" stroke="midnightblue" d="M67.2497,-228.761C79.7671,-251.042 113.661,-305.818 158,-333 162.999,-336.065 168.448,-338.635 174.079,-340.792"/>
<polygon fill="midnightblue" stroke="midnightblue" points="173.09,-344.151 183.684,-344.043 175.334,-337.521 173.09,-344.151"/>
</g>
<!-- Node6 -->
<g id="node6" class="node"><title>Node6</title>
<g id="a_node6"><a xlink:href="mm_wave___x_s_s_8h.html#a7ea0d0d15e4d7da097e286f887e0fe86" target="_top" xlink:title="This is the CLI Execution Task.">
<polygon fill="white" stroke="black" points="205,-304.5 205,-323.5 276,-323.5 276,-304.5 205,-304.5"/>
<text text-anchor="middle" x="240.5" y="-311.5" font-family="Helvetica,sans-Serif" font-size="10.00">MSS_CLIInit</text>
</a>
</g>
</g>
<!-- Node1&#45;&gt;Node6 -->
<g id="edge5" class="edge"><title>Node1&#45;&gt;Node6</title>
<path fill="none" stroke="midnightblue" d="M71.1025,-228.564C87.1033,-244.791 122.003,-277.641 158,-295 169.348,-300.473 182.36,-304.418 194.607,-307.242"/>
<polygon fill="midnightblue" stroke="midnightblue" points="194.153,-310.724 204.66,-309.361 195.596,-303.874 194.153,-310.724"/>
</g>
<!-- Node7 -->
<g id="node7" class="node"><title>Node7</title>
<g id="a_node7"><a xlink:href="mss__main_8c.html#a1d1f87db58f6210edd691eeafe2a36a9" target="_top" xlink:title="This is a registered event function which is invoked when an event is recieved from the BSS....">
<polygon fill="white" stroke="black" points="199,-266.5 199,-285.5 282,-285.5 282,-266.5 199,-266.5"/>
<text text-anchor="middle" x="240.5" y="-273.5" font-family="Helvetica,sans-Serif" font-size="10.00">MSS_eventFxn</text>
</a>
</g>
</g>
<!-- Node1&#45;&gt;Node7 -->
<g id="edge6" class="edge"><title>Node1&#45;&gt;Node7</title>
<path fill="none" stroke="midnightblue" d="M83.4042,-228.531C102.646,-236.842 131.824,-248.817 158,-257 167.983,-260.121 178.797,-262.989 189.184,-265.5"/>
<polygon fill="midnightblue" stroke="midnightblue" points="188.437,-268.919 198.972,-267.794 190.035,-262.104 188.437,-268.919"/>
</g>
<!-- Node8 -->
<g id="node8" class="node"><title>Node8</title>
<g id="a_node8"><a xlink:href="mss__main_8c.html#a16eb8d8fc62e096524db88914f5d5049" target="_top" xlink:title="This is the callback function registered with the ADC Driver which is invoked when a frame is started...">
<polygon fill="white" stroke="black" points="172,-228.5 172,-247.5 309,-247.5 309,-228.5 172,-228.5"/>
<text text-anchor="middle" x="240.5" y="-235.5" font-family="Helvetica,sans-Serif" font-size="10.00">MSS_frameStartIntCallback</text>
</a>
</g>
</g>
<!-- Node1&#45;&gt;Node8 -->
<g id="edge7" class="edge"><title>Node1&#45;&gt;Node8</title>
<path fill="none" stroke="midnightblue" d="M122.093,-225.433C134.837,-226.797 148.463,-228.255 161.754,-229.678"/>
<polygon fill="midnightblue" stroke="midnightblue" points="161.517,-233.172 171.833,-230.757 162.262,-226.212 161.517,-233.172"/>
</g>
<!-- Node9 -->
<g id="node9" class="node"><title>Node9</title>
<g id="a_node9"><a xlink:href="mss__main_8c.html#ace93b406001cf89e20e37723200ac7dc" target="_top" xlink:title="This is the application registered callback function which is invoked after the MSS has been closed.">
<polygon fill="white" stroke="black" points="159,-190.5 159,-209.5 322,-209.5 322,-190.5 159,-190.5"/>
<text text-anchor="middle" x="240.5" y="-197.5" font-family="Helvetica,sans-Serif" font-size="10.00">MSS_mmWaveCloseCallbackFxn</text>
</a>
</g>
</g>
<!-- Node1&#45;&gt;Node9 -->
<g id="edge8" class="edge"><title>Node1&#45;&gt;Node9</title>
<path fill="none" stroke="midnightblue" d="M122.093,-212.567C130.643,-211.652 139.59,-210.695 148.567,-209.734"/>
<polygon fill="midnightblue" stroke="midnightblue" points="149.125,-213.194 158.695,-208.65 148.379,-206.234 149.125,-213.194"/>
</g>
<!-- Node10 -->
<g id="node10" class="node"><title>Node10</title>
<g id="a_node10"><a xlink:href="mss__main_8c.html#a4c87c1a40f978d1cd7c40eaa8b0d41f3" target="_top" xlink:title="This is the application registered callback function which is invoked after the configuration has bee...">
<polygon fill="white" stroke="black" points="158,-152.5 158,-171.5 323,-171.5 323,-152.5 158,-152.5"/>
<text text-anchor="middle" x="240.5" y="-159.5" font-family="Helvetica,sans-Serif" font-size="10.00">MSS_mmWaveConfigCallbackFxn</text>
</a>
</g>
</g>
<!-- Node1&#45;&gt;Node10 -->
<g id="edge9" class="edge"><title>Node1&#45;&gt;Node10</title>
<path fill="none" stroke="midnightblue" d="M83.4042,-209.469C102.646,-201.158 131.824,-189.183 158,-181 166.073,-178.476 174.689,-176.118 183.184,-173.98"/>
<polygon fill="midnightblue" stroke="midnightblue" points="184.173,-177.342 193.061,-171.575 182.517,-170.54 184.173,-177.342"/>
</g>
<!-- Node11 -->
<g id="node11" class="node"><title>Node11</title>
<g id="a_node11"><a xlink:href="mss__main_8c.html#af2ef11ef31f2b3b041c0958437846040" target="_top" xlink:title="This is the task which provides an execution context for the mmWave control module.">
<polygon fill="white" stroke="black" points="180.5,-114.5 180.5,-133.5 300.5,-133.5 300.5,-114.5 180.5,-114.5"/>
<text text-anchor="middle" x="240.5" y="-121.5" font-family="Helvetica,sans-Serif" font-size="10.00">MSS_mmWaveCtrlTask</text>
</a>
</g>
</g>
<!-- Node1&#45;&gt;Node11 -->
<g id="edge10" class="edge"><title>Node1&#45;&gt;Node11</title>
<path fill="none" stroke="midnightblue" d="M71.1025,-209.436C87.1033,-193.209 122.003,-160.359 158,-143 162.989,-140.594 168.3,-138.483 173.726,-136.633"/>
<polygon fill="midnightblue" stroke="midnightblue" points="175.059,-139.884 183.572,-133.577 172.984,-133.199 175.059,-139.884"/>
</g>
<!-- Node12 -->
<g id="node12" class="node"><title>Node12</title>
<g id="a_node12"><a xlink:href="mss__main_8c.html#aa8bb14e64725549ea5c998ab2b606834" target="_top" xlink:title="This is the application registered callback function which is invoked after the MSS has been opened.">
<polygon fill="white" stroke="black" points="160,-76.5 160,-95.5 321,-95.5 321,-76.5 160,-76.5"/>
<text text-anchor="middle" x="240.5" y="-83.5" font-family="Helvetica,sans-Serif" font-size="10.00">MSS_mmWaveOpenCallbackFxn</text>
</a>
</g>
</g>
<!-- Node1&#45;&gt;Node12 -->
<g id="edge11" class="edge"><title>Node1&#45;&gt;Node12</title>
<path fill="none" stroke="midnightblue" d="M67.2497,-209.239C79.7671,-186.958 113.661,-132.182 158,-105 161.455,-102.882 165.124,-101 168.92,-99.3279"/>
<polygon fill="midnightblue" stroke="midnightblue" points="170.508,-102.466 178.567,-95.588 167.978,-95.9392 170.508,-102.466"/>
</g>
<!-- Node13 -->
<g id="node13" class="node"><title>Node13</title>
<g id="a_node13"><a xlink:href="mss__main_8c.html#a290500bd059ac684393436ad3bb16396" target="_top" xlink:title="Application registered callback function which is invoked on the peer domain just before the mmWave l...">
<polygon fill="white" stroke="black" points="161,-38.5 161,-57.5 320,-57.5 320,-38.5 161,-38.5"/>
<text text-anchor="middle" x="240.5" y="-45.5" font-family="Helvetica,sans-Serif" font-size="10.00">MSS_mmWaveStartCallbackFxn</text>
</a>
</g>
</g>
<!-- Node1&#45;&gt;Node13 -->
<g id="edge12" class="edge"><title>Node1&#45;&gt;Node13</title>
<path fill="none" stroke="midnightblue" d="M65.1442,-209.334C74.4957,-182.194 104.843,-104.809 158,-67 160.723,-65.0631 163.615,-63.321 166.623,-61.7541"/>
<polygon fill="midnightblue" stroke="midnightblue" points="168.26,-64.8554 175.943,-57.5601 165.387,-58.4719 168.26,-64.8554"/>
</g>
<!-- Node14 -->
<g id="node14" class="node"><title>Node14</title>
<g id="a_node14"><a xlink:href="mss__main_8c.html#ab2dacb1c39819c33438370b35daec7a5" target="_top" xlink:title="This is the application registered callback function which is invoked after the MSS has been stopped....">
<polygon fill="white" stroke="black" points="161.5,-0.5 161.5,-19.5 319.5,-19.5 319.5,-0.5 161.5,-0.5"/>
<text text-anchor="middle" x="240.5" y="-7.5" font-family="Helvetica,sans-Serif" font-size="10.00">MSS_mmWaveStopCallbackFxn</text>
</a>
</g>
</g>
<!-- Node1&#45;&gt;Node14 -->
<g id="edge13" class="edge"><title>Node1&#45;&gt;Node14</title>
<path fill="none" stroke="midnightblue" d="M63.8824,-209.281C70.5105,-177.804 95.8119,-77.8644 158,-29 160.303,-27.1907 162.748,-25.5485 165.299,-24.0584"/>
<polygon fill="midnightblue" stroke="midnightblue" points="166.941,-27.1507 174.328,-19.5556 163.817,-20.8865 166.941,-27.1507"/>
</g>
<!-- Node4 -->
<g id="node4" class="node"><title>Node4</title>
<g id="a_node4"><a xlink:href="mss__main_8c.html#afac751fde1219a4650eaef8a5058fc39" target="_top" xlink:title=" ">
<polygon fill="white" stroke="black" points="359,-380.5 359,-399.5 450,-399.5 450,-380.5 359,-380.5"/>
<text text-anchor="middle" x="404.5" y="-387.5" font-family="Helvetica,sans-Serif" font-size="10.00">MSS_mboxWrite</text>
</a>
</g>
</g>
<!-- Node3&#45;&gt;Node4 -->
<g id="edge3" class="edge"><title>Node3&#45;&gt;Node4</title>
<path fill="none" stroke="midnightblue" d="M298.615,-390C314.831,-390 332.449,-390 348.534,-390"/>
<polygon fill="midnightblue" stroke="midnightblue" points="348.853,-393.5 358.853,-390 348.853,-386.5 348.853,-393.5"/>
</g>
</g>
</svg>
