<?xml version="1.0" encoding="UTF-8" standalone="no"?>
<!DOCTYPE svg PUBLIC "-//W3C//DTD SVG 1.1//EN"
 "http://www.w3.org/Graphics/SVG/1.1/DTD/svg11.dtd">
<!-- Generated by graphviz version 2.38.0 (20140413.2041)
 -->
<!-- Title: mss_mrr_cli.c Pages: 1 -->
<svg width="2423pt" height="229pt"
 viewBox="0.00 0.00 2423.00 229.00" xmlns="http://www.w3.org/2000/svg" xmlns:xlink="http://www.w3.org/1999/xlink">
<g id="graph0" class="graph" transform="scale(1 1) rotate(0) translate(4 225)">
<title>mss_mrr_cli.c</title>
<polygon fill="white" stroke="none" points="-4,4 -4,-225 2419,-225 2419,4 -4,4"/>
<!-- Node1 -->
<g id="node1" class="node"><title>Node1</title>
<g id="a_node1"><a xlink:title=" ">
<polygon fill="#bfbfbf" stroke="black" points="730.5,-201.5 730.5,-220.5 808.5,-220.5 808.5,-201.5 730.5,-201.5"/>
<text text-anchor="middle" x="769.5" y="-208.5" font-family="Helvetica,sans-Serif" font-size="10.00">mss_mrr_cli.c</text>
</a>
</g>
</g>
<!-- Node2 -->
<g id="node2" class="node"><title>Node2</title>
<g id="a_node2"><a xlink:title=" ">
<polygon fill="white" stroke="#bfbfbf" points="0,-140 0,-159 49,-159 49,-140 0,-140"/>
<text text-anchor="middle" x="24.5" y="-147" font-family="Helvetica,sans-Serif" font-size="10.00">stdint.h</text>
</a>
</g>
</g>
<!-- Node1&#45;&gt;Node2 -->
<g id="edge1" class="edge"><title>Node1&#45;&gt;Node2</title>
<path fill="none" stroke="midnightblue" d="M730.133,-209.262C600.47,-206.555 187.713,-195.685 58.5,-165 55.987,-164.403 53.4237,-163.636 50.8881,-162.766"/>
<polygon fill="midnightblue" stroke="midnightblue" points="51.9983,-159.442 41.4107,-159.048 49.4422,-165.958 51.9983,-159.442"/>
</g>
<!-- Node3 -->
<g id="node3" class="node"><title>Node3</title>
<g id="a_node3"><a xlink:title=" ">
<polygon fill="white" stroke="#bfbfbf" points="67.5,-140 67.5,-159 115.5,-159 115.5,-140 67.5,-140"/>
<text text-anchor="middle" x="91.5" y="-147" font-family="Helvetica,sans-Serif" font-size="10.00">stdlib.h</text>
</a>
</g>
</g>
<!-- Node1&#45;&gt;Node3 -->
<g id="edge2" class="edge"><title>Node1&#45;&gt;Node3</title>
<path fill="none" stroke="midnightblue" d="M730.418,-209.029C609.143,-205.741 240.433,-193.595 124.5,-165 122.142,-164.418 119.74,-163.68 117.362,-162.845"/>
<polygon fill="midnightblue" stroke="midnightblue" points="118.479,-159.522 107.895,-159.03 115.863,-166.014 118.479,-159.522"/>
</g>
<!-- Node4 -->
<g id="node4" class="node"><title>Node4</title>
<g id="a_node4"><a xlink:title=" ">
<polygon fill="white" stroke="#bfbfbf" points="134,-140 134,-159 185,-159 185,-140 134,-140"/>
<text text-anchor="middle" x="159.5" y="-147" font-family="Helvetica,sans-Serif" font-size="10.00">stddef.h</text>
</a>
</g>
</g>
<!-- Node1&#45;&gt;Node4 -->
<g id="edge3" class="edge"><title>Node1&#45;&gt;Node4</title>
<path fill="none" stroke="midnightblue" d="M730.298,-208.594C617.857,-204.298 295.788,-190.09 193.5,-165 191.134,-164.42 188.721,-163.692 186.329,-162.875"/>
<polygon fill="midnightblue" stroke="midnightblue" points="187.361,-159.52 176.772,-159.148 184.818,-166.042 187.361,-159.52"/>
</g>
<!-- Node5 -->
<g id="node5" class="node"><title>Node5</title>
<g id="a_node5"><a xlink:title=" ">
<polygon fill="white" stroke="#bfbfbf" points="203,-140 203,-159 252,-159 252,-140 203,-140"/>
<text text-anchor="middle" x="227.5" y="-147" font-family="Helvetica,sans-Serif" font-size="10.00">string.h</text>
</a>
</g>
</g>
<!-- Node1&#45;&gt;Node5 -->
<g id="edge4" class="edge"><title>Node1&#45;&gt;Node5</title>
<path fill="none" stroke="midnightblue" d="M730.254,-210.678C644.037,-211.27 432.186,-207.809 261.5,-165 259.137,-164.407 256.726,-163.671 254.335,-162.848"/>
<polygon fill="midnightblue" stroke="midnightblue" points="255.369,-159.494 244.782,-159.111 252.82,-166.013 255.369,-159.494"/>
</g>
<!-- Node6 -->
<g id="node6" class="node"><title>Node6</title>
<g id="a_node6"><a xlink:title=" ">
<polygon fill="white" stroke="#bfbfbf" points="270.5,-140 270.5,-159 316.5,-159 316.5,-140 270.5,-140"/>
<text text-anchor="middle" x="293.5" y="-147" font-family="Helvetica,sans-Serif" font-size="10.00">stdio.h</text>
</a>
</g>
</g>
<!-- Node1&#45;&gt;Node6 -->
<g id="edge5" class="edge"><title>Node1&#45;&gt;Node6</title>
<path fill="none" stroke="midnightblue" d="M730.433,-210.247C652.171,-209.83 471.191,-204.261 325.5,-165 323.347,-164.42 321.156,-163.709 318.982,-162.918"/>
<polygon fill="midnightblue" stroke="midnightblue" points="320.308,-159.679 309.73,-159.082 317.627,-166.145 320.308,-159.679"/>
</g>
<!-- Node7 -->
<g id="node7" class="node"><title>Node7</title>
<g id="a_node7"><a xlink:title=" ">
<polygon fill="white" stroke="#bfbfbf" points="335,-140 335,-159 448,-159 448,-140 335,-140"/>
<text text-anchor="middle" x="391.5" y="-147" font-family="Helvetica,sans-Serif" font-size="10.00">xdc/runtime/System.h</text>
</a>
</g>
</g>
<!-- Node1&#45;&gt;Node7 -->
<g id="edge6" class="edge"><title>Node1&#45;&gt;Node7</title>
<path fill="none" stroke="midnightblue" d="M730.306,-205.346C670.878,-198.067 554.512,-182.95 456.5,-165 450.305,-163.865 443.804,-162.557 437.407,-161.201"/>
<polygon fill="midnightblue" stroke="midnightblue" points="438.015,-157.751 427.5,-159.047 436.528,-164.592 438.015,-157.751"/>
</g>
<!-- Node8 -->
<g id="node8" class="node"><title>Node8</title>
<g id="a_node8"><a xlink:title=" ">
<polygon fill="white" stroke="#bfbfbf" points="466,-140 466,-159 559,-159 559,-140 466,-140"/>
<text text-anchor="middle" x="512.5" y="-147" font-family="Helvetica,sans-Serif" font-size="10.00">ti/sysbios/BIOS.h</text>
</a>
</g>
</g>
<!-- Node1&#45;&gt;Node8 -->
<g id="edge7" class="edge"><title>Node1&#45;&gt;Node8</title>
<path fill="none" stroke="midnightblue" d="M730.294,-201.735C689.519,-193.029 623.883,-178.707 567.5,-165 563.118,-163.935 558.548,-162.788 553.998,-161.623"/>
<polygon fill="midnightblue" stroke="midnightblue" points="554.707,-158.191 544.148,-159.067 552.949,-164.966 554.707,-158.191"/>
</g>
<!-- Node9 -->
<g id="node9" class="node"><title>Node9</title>
<g id="a_node9"><a xlink:title=" ">
<polygon fill="white" stroke="#bfbfbf" points="577,-140 577,-159 684,-159 684,-140 577,-140"/>
<text text-anchor="middle" x="630.5" y="-147" font-family="Helvetica,sans-Serif" font-size="10.00">ti/sysbios/knl/Task.h</text>
</a>
</g>
</g>
<!-- Node1&#45;&gt;Node9 -->
<g id="edge8" class="edge"><title>Node1&#45;&gt;Node9</title>
<path fill="none" stroke="midnightblue" d="M749.585,-201.475C726.051,-191.401 686.69,-174.553 659.707,-163.002"/>
<polygon fill="midnightblue" stroke="midnightblue" points="660.949,-159.727 650.378,-159.009 658.194,-166.162 660.949,-159.727"/>
</g>
<!-- Node10 -->
<g id="node10" class="node"><title>Node10</title>
<g id="a_node10"><a xlink:title=" ">
<polygon fill="white" stroke="#bfbfbf" points="396.5,-73 396.5,-92 506.5,-92 506.5,-73 396.5,-73"/>
<text text-anchor="middle" x="451.5" y="-80" font-family="Helvetica,sans-Serif" font-size="10.00">ti/sysbios/knl/Event.h</text>
</a>
</g>
</g>
<!-- Node1&#45;&gt;Node10 -->
<g id="edge9" class="edge"><title>Node1&#45;&gt;Node10</title>
<path fill="none" stroke="midnightblue" d="M767.247,-201.262C762.596,-185.116 750.317,-150.733 726.5,-134 648.658,-79.3106 608.813,-116.517 515.5,-98 509.701,-96.8493 503.624,-95.5694 497.619,-94.2598"/>
<polygon fill="midnightblue" stroke="midnightblue" points="498.164,-90.7958 487.643,-92.0456 496.647,-97.6294 498.164,-90.7958"/>
</g>
<!-- Node11 -->
<g id="node11" class="node"><title>Node11</title>
<g id="a_node11"><a xlink:title=" ">
<polygon fill="white" stroke="#bfbfbf" points="525,-73 525,-92 660,-92 660,-73 525,-73"/>
<text text-anchor="middle" x="592.5" y="-80" font-family="Helvetica,sans-Serif" font-size="10.00">ti/sysbios/knl/Semaphore.h</text>
</a>
</g>
</g>
<!-- Node1&#45;&gt;Node11 -->
<g id="edge10" class="edge"><title>Node1&#45;&gt;Node11</title>
<path fill="none" stroke="midnightblue" d="M771.807,-201.36C775.354,-185.974 780.209,-153.607 764.5,-134 756.507,-124.023 687.916,-106.049 639.81,-94.454"/>
<polygon fill="midnightblue" stroke="midnightblue" points="640.424,-91.0024 629.884,-92.0818 638.797,-97.8106 640.424,-91.0024"/>
</g>
<!-- Node12 -->
<g id="node12" class="node"><title>Node12</title>
<g id="a_node12"><a xlink:title=" ">
<polygon fill="white" stroke="#bfbfbf" points="1097.5,-140 1097.5,-159 1207.5,-159 1207.5,-140 1097.5,-140"/>
<text text-anchor="middle" x="1152.5" y="-147" font-family="Helvetica,sans-Serif" font-size="10.00">ti/sysbios/knl/Clock.h</text>
</a>
</g>
</g>
<!-- Node1&#45;&gt;Node12 -->
<g id="edge11" class="edge"><title>Node1&#45;&gt;Node12</title>
<path fill="none" stroke="midnightblue" d="M808.957,-205.499C869.384,-198.365 988.378,-183.371 1088.5,-165 1094.68,-163.867 1101.16,-162.549 1107.53,-161.179"/>
<polygon fill="midnightblue" stroke="midnightblue" points="1108.39,-164.575 1117.4,-159.002 1106.88,-157.74 1108.39,-164.575"/>
</g>
<!-- Node13 -->
<g id="node13" class="node"><title>Node13</title>
<g id="a_node13"><a xlink:title=" ">
<polygon fill="white" stroke="#bfbfbf" points="1225.5,-140 1225.5,-159 1361.5,-159 1361.5,-140 1225.5,-140"/>
<text text-anchor="middle" x="1293.5" y="-147" font-family="Helvetica,sans-Serif" font-size="10.00">ti/sysbios/heaps/HeapBuf.h</text>
</a>
</g>
</g>
<!-- Node1&#45;&gt;Node13 -->
<g id="edge12" class="edge"><title>Node1&#45;&gt;Node13</title>
<path fill="none" stroke="midnightblue" d="M808.501,-207.206C886.33,-201.38 1066.35,-186.655 1216.5,-165 1224.64,-163.827 1233.22,-162.399 1241.59,-160.903"/>
<polygon fill="midnightblue" stroke="midnightblue" points="1242.44,-164.305 1251.65,-159.057 1241.18,-157.42 1242.44,-164.305"/>
</g>
<!-- Node14 -->
<g id="node14" class="node"><title>Node14</title>
<g id="a_node14"><a xlink:title=" ">
<polygon fill="white" stroke="#bfbfbf" points="1380,-140 1380,-159 1523,-159 1523,-140 1380,-140"/>
<text text-anchor="middle" x="1451.5" y="-147" font-family="Helvetica,sans-Serif" font-size="10.00">ti/sysbios/heaps/HeapMem.h</text>
</a>
</g>
</g>
<!-- Node1&#45;&gt;Node14 -->
<g id="edge13" class="edge"><title>Node1&#45;&gt;Node14</title>
<path fill="none" stroke="midnightblue" d="M808.663,-208.458C904.713,-204.374 1159.52,-191.711 1370.5,-165 1379.56,-163.854 1389.14,-162.376 1398.42,-160.805"/>
<polygon fill="midnightblue" stroke="midnightblue" points="1399.08,-164.242 1408.33,-159.073 1397.87,-157.346 1399.08,-164.242"/>
</g>
<!-- Node15 -->
<g id="node15" class="node"><title>Node15</title>
<g id="a_node15"><a xlink:title=" ">
<polygon fill="white" stroke="#bfbfbf" points="506.5,-6 506.5,-25 638.5,-25 638.5,-6 506.5,-6"/>
<text text-anchor="middle" x="572.5" y="-13" font-family="Helvetica,sans-Serif" font-size="10.00">ti/common/sys_common.h</text>
</a>
</g>
</g>
<!-- Node1&#45;&gt;Node15 -->
<g id="edge14" class="edge"><title>Node1&#45;&gt;Node15</title>
<path fill="none" stroke="midnightblue" d="M761.273,-201.265C743.2,-182.167 700.964,-138.07 692.5,-134 630.992,-104.427 432.842,-149.009 387.5,-98 350.572,-56.4575 430.135,-35.1235 496.191,-24.8933"/>
<polygon fill="midnightblue" stroke="midnightblue" points="496.86,-28.3324 506.239,-23.4044 495.834,-21.408 496.86,-28.3324"/>
</g>
<!-- Node16 -->
<g id="node16" class="node"><title>Node16</title>
<g id="a_node16"><a xlink:title=" ">
<polygon fill="white" stroke="#bfbfbf" points="678,-73 678,-92 787,-92 787,-73 678,-73"/>
<text text-anchor="middle" x="732.5" y="-80" font-family="Helvetica,sans-Serif" font-size="10.00">ti/drivers/uart/UART.h</text>
</a>
</g>
</g>
<!-- Node1&#45;&gt;Node16 -->
<g id="edge15" class="edge"><title>Node1&#45;&gt;Node16</title>
<path fill="none" stroke="midnightblue" d="M778.286,-201.403C791.744,-187.146 814.687,-157.819 802.5,-134 794.021,-117.429 777.29,-105.049 762.31,-96.6948"/>
<polygon fill="midnightblue" stroke="midnightblue" points="763.787,-93.5178 753.299,-92.0119 760.559,-99.7291 763.787,-93.5178"/>
</g>
<!-- Node17 -->
<g id="node17" class="node"><title>Node17</title>
<g id="a_node17"><a xlink:title=" ">
<polygon fill="white" stroke="#bfbfbf" points="805,-73 805,-92 924,-92 924,-73 805,-73"/>
<text text-anchor="middle" x="864.5" y="-80" font-family="Helvetica,sans-Serif" font-size="10.00">ti/drivers/osal/DebugP.h</text>
</a>
</g>
</g>
<!-- Node1&#45;&gt;Node17 -->
<g id="edge16" class="edge"><title>Node1&#45;&gt;Node17</title>
<path fill="none" stroke="midnightblue" d="M780.962,-201.225C791.553,-192.736 807.299,-179.113 818.5,-165 834.393,-144.976 848.127,-118.779 856.351,-101.561"/>
<polygon fill="midnightblue" stroke="midnightblue" points="859.691,-102.68 860.731,-92.1366 853.343,-99.7304 859.691,-102.68"/>
</g>
<!-- Node18 -->
<g id="node18" class="node"><title>Node18</title>
<g id="a_node18"><a xlink:title=" ">
<polygon fill="white" stroke="#bfbfbf" points="1541.5,-134.5 1541.5,-164.5 1651.5,-164.5 1651.5,-134.5 1541.5,-134.5"/>
<text text-anchor="start" x="1549.5" y="-152.5" font-family="Helvetica,sans-Serif" font-size="10.00">ti/control/mmwavelink</text>
<text text-anchor="middle" x="1596.5" y="-141.5" font-family="Helvetica,sans-Serif" font-size="10.00">/mmwavelink.h</text>
</a>
</g>
</g>
<!-- Node1&#45;&gt;Node18 -->
<g id="edge17" class="edge"><title>Node1&#45;&gt;Node18</title>
<path fill="none" stroke="midnightblue" d="M808.633,-209.948C920.196,-209.323 1249.42,-204.151 1531.44,-164.982"/>
<polygon fill="midnightblue" stroke="midnightblue" points="1532.03,-168.433 1541.45,-163.575 1531.06,-161.501 1532.03,-168.433"/>
</g>
<!-- Node19 -->
<g id="node19" class="node"><title>Node19</title>
<g id="a_node19"><a xlink:title=" ">
<polygon fill="white" stroke="#bfbfbf" points="1670,-140 1670,-159 1747,-159 1747,-140 1670,-140"/>
<text text-anchor="middle" x="1708.5" y="-147" font-family="Helvetica,sans-Serif" font-size="10.00">ti/utils/cli/cli.h</text>
</a>
</g>
</g>
<!-- Node1&#45;&gt;Node19 -->
<g id="edge18" class="edge"><title>Node1&#45;&gt;Node19</title>
<path fill="none" stroke="midnightblue" d="M808.715,-209.285C958.313,-206.361 1493.12,-194.063 1660.5,-165 1665.06,-164.208 1669.8,-163.119 1674.44,-161.891"/>
<polygon fill="midnightblue" stroke="midnightblue" points="1675.71,-165.168 1684.36,-159.041 1673.78,-158.44 1675.71,-165.168"/>
</g>
<!-- Node20 -->
<g id="node20" class="node"><title>Node20</title>
<g id="a_node20"><a xlink:href="mrr__config__consts_8h.html" target="_top" xlink:title=" ">
<polygon fill="white" stroke="black" points="942,-73 942,-92 1087,-92 1087,-73 942,-73"/>
<text text-anchor="middle" x="1014.5" y="-80" font-family="Helvetica,sans-Serif" font-size="10.00">common/mrr_config_consts.h</text>
</a>
</g>
</g>
<!-- Node1&#45;&gt;Node20 -->
<g id="edge19" class="edge"><title>Node1&#45;&gt;Node20</title>
<path fill="none" stroke="midnightblue" d="M786.34,-201.305C828.489,-179.542 938.743,-122.615 988.943,-96.6958"/>
<polygon fill="midnightblue" stroke="midnightblue" points="990.587,-99.7862 997.866,-92.0884 987.375,-93.5664 990.587,-99.7862"/>
</g>
<!-- Node24 -->
<g id="node24" class="node"><title>Node24</title>
<g id="a_node24"><a xlink:href="mm_wave___x_s_s_8h.html" target="_top" xlink:title=" ">
<polygon fill="white" stroke="black" points="949.5,-140 949.5,-159 1079.5,-159 1079.5,-140 949.5,-140"/>
<text text-anchor="middle" x="1014.5" y="-147" font-family="Helvetica,sans-Serif" font-size="10.00">common/mmWave_XSS.h</text>
</a>
</g>
</g>
<!-- Node1&#45;&gt;Node24 -->
<g id="edge24" class="edge"><title>Node1&#45;&gt;Node24</title>
<path fill="none" stroke="midnightblue" d="M804.603,-201.475C847.993,-190.937 921.909,-172.986 969.447,-161.441"/>
<polygon fill="midnightblue" stroke="midnightblue" points="970.571,-164.77 979.463,-159.009 968.919,-157.968 970.571,-164.77"/>
</g>
<!-- Node20&#45;&gt;Node15 -->
<g id="edge21" class="edge"><title>Node20&#45;&gt;Node15</title>
<path fill="none" stroke="midnightblue" d="M967.716,-72.9304C956.214,-70.9055 943.923,-68.8106 932.5,-67 834.567,-51.4775 721.248,-35.9872 648.314,-26.3361"/>
<polygon fill="midnightblue" stroke="midnightblue" points="648.669,-22.8526 638.296,-25.0136 647.752,-29.7924 648.669,-22.8526"/>
</g>
<!-- Node21 -->
<g id="node21" class="node"><title>Node21</title>
<g id="a_node21"><a xlink:href="mrr__defines_8h.html" target="_top" xlink:title=" ">
<polygon fill="white" stroke="black" points="860,-6 860,-25 935,-25 935,-6 860,-6"/>
<text text-anchor="middle" x="897.5" y="-13" font-family="Helvetica,sans-Serif" font-size="10.00">mrr_defines.h</text>
</a>
</g>
</g>
<!-- Node20&#45;&gt;Node21 -->
<g id="edge20" class="edge"><title>Node20&#45;&gt;Node21</title>
<path fill="none" stroke="midnightblue" d="M998.721,-72.7338C978.985,-61.7695 944.986,-42.8809 921.889,-30.0495"/>
<polygon fill="midnightblue" stroke="midnightblue" points="923.47,-26.9242 913.029,-25.1273 920.071,-33.0433 923.47,-26.9242"/>
</g>
<!-- Node22 -->
<g id="node22" class="node"><title>Node22</title>
<g id="a_node22"><a xlink:href="mrr__config__chirp__design___m_r_r120_8h.html" target="_top" xlink:title=" ">
<polygon fill="white" stroke="black" points="953.5,-0.5 953.5,-30.5 1075.5,-30.5 1075.5,-0.5 953.5,-0.5"/>
<text text-anchor="start" x="961.5" y="-18.5" font-family="Helvetica,sans-Serif" font-size="10.00">mrr_config_chirp_design</text>
<text text-anchor="middle" x="1014.5" y="-7.5" font-family="Helvetica,sans-Serif" font-size="10.00">_MRR120.h</text>
</a>
</g>
</g>
<!-- Node20&#45;&gt;Node22 -->
<g id="edge22" class="edge"><title>Node20&#45;&gt;Node22</title>
<path fill="none" stroke="midnightblue" d="M1014.5,-72.7338C1014.5,-64.5406 1014.5,-51.9225 1014.5,-40.7136"/>
<polygon fill="midnightblue" stroke="midnightblue" points="1018,-40.589 1014.5,-30.589 1011,-40.5891 1018,-40.589"/>
</g>
<!-- Node23 -->
<g id="node23" class="node"><title>Node23</title>
<g id="a_node23"><a xlink:href="mrr__config__chirp__design___u_s_r_r30_8h.html" target="_top" xlink:title=" ">
<polygon fill="white" stroke="black" points="1093.5,-0.5 1093.5,-30.5 1215.5,-30.5 1215.5,-0.5 1093.5,-0.5"/>
<text text-anchor="start" x="1101.5" y="-18.5" font-family="Helvetica,sans-Serif" font-size="10.00">mrr_config_chirp_design</text>
<text text-anchor="middle" x="1154.5" y="-7.5" font-family="Helvetica,sans-Serif" font-size="10.00">_USRR30.h</text>
</a>
</g>
</g>
<!-- Node20&#45;&gt;Node23 -->
<g id="edge23" class="edge"><title>Node20&#45;&gt;Node23</title>
<path fill="none" stroke="midnightblue" d="M1033.09,-72.8685C1053.92,-63.1995 1088.27,-47.2486 1115.13,-34.778"/>
<polygon fill="midnightblue" stroke="midnightblue" points="1116.69,-37.9138 1124.29,-30.5281 1113.74,-31.5647 1116.69,-37.9138"/>
</g>
<!-- Node24&#45;&gt;Node10 -->
<g id="edge38" class="edge"><title>Node24&#45;&gt;Node10</title>
<path fill="none" stroke="midnightblue" d="M949.176,-144.44C853.532,-137.92 669.971,-123.219 515.5,-98 509.08,-96.952 502.341,-95.6502 495.744,-94.26"/>
<polygon fill="midnightblue" stroke="midnightblue" points="496.077,-90.75 485.56,-92.0263 494.578,-97.5875 496.077,-90.75"/>
</g>
<!-- Node24&#45;&gt;Node11 -->
<g id="edge37" class="edge"><title>Node24&#45;&gt;Node11</title>
<path fill="none" stroke="midnightblue" d="M950.281,-139.98C880.715,-130.552 766.527,-114.497 668.5,-98 661.04,-96.7445 653.184,-95.3396 645.467,-93.9119"/>
<polygon fill="midnightblue" stroke="midnightblue" points="645.921,-90.4362 635.447,-92.0324 644.631,-97.3162 645.921,-90.4362"/>
</g>
<!-- Node24&#45;&gt;Node16 -->
<g id="edge28" class="edge"><title>Node24&#45;&gt;Node16</title>
<path fill="none" stroke="midnightblue" d="M977.343,-139.936C926.516,-128.22 835.289,-107.193 779.688,-94.3768"/>
<polygon fill="midnightblue" stroke="midnightblue" points="780.269,-90.919 769.739,-92.0834 778.697,-97.7401 780.269,-90.919"/>
</g>
<!-- Node24&#45;&gt;Node17 -->
<g id="edge36" class="edge"><title>Node24&#45;&gt;Node17</title>
<path fill="none" stroke="midnightblue" d="M994.581,-139.869C968.805,-128.699 923.685,-109.147 893.947,-96.2602"/>
<polygon fill="midnightblue" stroke="midnightblue" points="895.068,-92.9319 884.501,-92.1672 892.285,-99.3548 895.068,-92.9319"/>
</g>
<!-- Node24&#45;&gt;Node20 -->
<g id="edge39" class="edge"><title>Node24&#45;&gt;Node20</title>
<path fill="none" stroke="midnightblue" d="M1014.5,-139.734C1014.5,-130.183 1014.5,-114.618 1014.5,-102.283"/>
<polygon fill="midnightblue" stroke="midnightblue" points="1018,-102.127 1014.5,-92.1273 1011,-102.127 1018,-102.127"/>
</g>
<!-- Node25 -->
<g id="node25" class="node"><title>Node25</title>
<g id="a_node25"><a xlink:title=" ">
<polygon fill="white" stroke="#bfbfbf" points="1387.5,-73 1387.5,-92 1523.5,-92 1523.5,-73 1387.5,-73"/>
<text text-anchor="middle" x="1455.5" y="-80" font-family="Helvetica,sans-Serif" font-size="10.00">ti/common/mmwave_error.h</text>
</a>
</g>
</g>
<!-- Node24&#45;&gt;Node25 -->
<g id="edge25" class="edge"><title>Node24&#45;&gt;Node25</title>
<path fill="none" stroke="midnightblue" d="M1055.51,-139.934C1066.22,-137.842 1077.77,-135.715 1088.5,-134 1216.75,-113.5 1250.18,-118.027 1378.5,-98 1386.43,-96.7623 1394.8,-95.3247 1402.98,-93.8453"/>
<polygon fill="midnightblue" stroke="midnightblue" points="1403.62,-97.2859 1412.82,-92.0305 1402.35,-90.402 1403.62,-97.2859"/>
</g>
<!-- Node26 -->
<g id="node26" class="node"><title>Node26</title>
<g id="a_node26"><a xlink:title=" ">
<polygon fill="white" stroke="#bfbfbf" points="1541.5,-73 1541.5,-92 1639.5,-92 1639.5,-73 1541.5,-73"/>
<text text-anchor="middle" x="1590.5" y="-80" font-family="Helvetica,sans-Serif" font-size="10.00">ti/drivers/soc/soc.h</text>
</a>
</g>
</g>
<!-- Node24&#45;&gt;Node26 -->
<g id="edge26" class="edge"><title>Node24&#45;&gt;Node26</title>
<path fill="none" stroke="midnightblue" d="M1053.53,-139.998C1064.78,-137.781 1077.09,-135.576 1088.5,-134 1284.62,-106.922 1337.14,-130.117 1532.5,-98 1538.34,-97.04 1544.45,-95.7884 1550.43,-94.4226"/>
<polygon fill="midnightblue" stroke="midnightblue" points="1551.39,-97.7922 1560.29,-92.0478 1549.75,-90.9868 1551.39,-97.7922"/>
</g>
<!-- Node27 -->
<g id="node27" class="node"><title>Node27</title>
<g id="a_node27"><a xlink:title=" ">
<polygon fill="white" stroke="#bfbfbf" points="1657.5,-73 1657.5,-92 1751.5,-92 1751.5,-73 1657.5,-73"/>
<text text-anchor="middle" x="1704.5" y="-80" font-family="Helvetica,sans-Serif" font-size="10.00">ti/drivers/crc/crc.h</text>
</a>
</g>
</g>
<!-- Node24&#45;&gt;Node27 -->
<g id="edge27" class="edge"><title>Node24&#45;&gt;Node27</title>
<path fill="none" stroke="midnightblue" d="M1053.14,-139.95C1064.48,-137.706 1076.95,-135.497 1088.5,-134 1335.84,-101.954 1402.23,-137.434 1648.5,-98 1654.28,-97.0743 1660.33,-95.8183 1666.23,-94.4304"/>
<polygon fill="midnightblue" stroke="midnightblue" points="1667.09,-97.8239 1675.94,-92.0051 1665.39,-91.0325 1667.09,-97.8239"/>
</g>
<!-- Node28 -->
<g id="node28" class="node"><title>Node28</title>
<g id="a_node28"><a xlink:title=" ">
<polygon fill="white" stroke="#bfbfbf" points="1769.5,-73 1769.5,-92 1899.5,-92 1899.5,-73 1769.5,-73"/>
<text text-anchor="middle" x="1834.5" y="-80" font-family="Helvetica,sans-Serif" font-size="10.00">ti/drivers/pinmux/pinmux.h</text>
</a>
</g>
</g>
<!-- Node24&#45;&gt;Node28 -->
<g id="edge29" class="edge"><title>Node24&#45;&gt;Node28</title>
<path fill="none" stroke="midnightblue" d="M1052.74,-139.947C1064.19,-137.675 1076.81,-135.452 1088.5,-134 1385.32,-97.1534 1463.68,-134.847 1760.5,-98 1768.9,-96.9567 1777.79,-95.5149 1786.37,-93.9425"/>
<polygon fill="midnightblue" stroke="midnightblue" points="1787.09,-97.3675 1796.26,-92.0527 1785.78,-90.4919 1787.09,-97.3675"/>
</g>
<!-- Node29 -->
<g id="node29" class="node"><title>Node29</title>
<g id="a_node29"><a xlink:title=" ">
<polygon fill="white" stroke="#bfbfbf" points="1917.5,-73 1917.5,-92 2021.5,-92 2021.5,-73 1917.5,-73"/>
<text text-anchor="middle" x="1969.5" y="-80" font-family="Helvetica,sans-Serif" font-size="10.00">ti/drivers/esm/esm.h</text>
</a>
</g>
</g>
<!-- Node24&#45;&gt;Node29 -->
<g id="edge30" class="edge"><title>Node24&#45;&gt;Node29</title>
<path fill="none" stroke="midnightblue" d="M1052.35,-139.952C1063.9,-137.651 1076.67,-135.411 1088.5,-134 1450.73,-90.8061 1547.2,-148.408 1908.5,-98 1915.01,-97.0919 1921.84,-95.8056 1928.48,-94.37"/>
<polygon fill="midnightblue" stroke="midnightblue" points="1929.72,-97.676 1938.68,-92.0242 1928.15,-90.854 1929.72,-97.676"/>
</g>
<!-- Node30 -->
<g id="node30" class="node"><title>Node30</title>
<g id="a_node30"><a xlink:title=" ">
<polygon fill="white" stroke="#bfbfbf" points="2040,-67.5 2040,-97.5 2129,-97.5 2129,-67.5 2040,-67.5"/>
<text text-anchor="start" x="2048" y="-85.5" font-family="Helvetica,sans-Serif" font-size="10.00">ti/drivers/mailbox</text>
<text text-anchor="middle" x="2084.5" y="-74.5" font-family="Helvetica,sans-Serif" font-size="10.00">/mailbox.h</text>
</a>
</g>
</g>
<!-- Node24&#45;&gt;Node30 -->
<g id="edge31" class="edge"><title>Node24&#45;&gt;Node30</title>
<path fill="none" stroke="midnightblue" d="M1051.97,-139.986C1063.61,-137.656 1076.54,-135.392 1088.5,-134 1501.31,-85.9623 1614.43,-159.517 2029.7,-97.8387"/>
<polygon fill="midnightblue" stroke="midnightblue" points="2030.51,-101.256 2039.87,-96.3089 2029.47,-94.3341 2030.51,-101.256"/>
</g>
<!-- Node31 -->
<g id="node31" class="node"><title>Node31</title>
<g id="a_node31"><a xlink:title=" ">
<polygon fill="white" stroke="#bfbfbf" points="2147,-73 2147,-92 2290,-92 2290,-73 2147,-73"/>
<text text-anchor="middle" x="2218.5" y="-80" font-family="Helvetica,sans-Serif" font-size="10.00">ti/control/mmwave/mmwave.h</text>
</a>
</g>
</g>
<!-- Node24&#45;&gt;Node31 -->
<g id="edge32" class="edge"><title>Node24&#45;&gt;Node31</title>
<path fill="none" stroke="midnightblue" d="M1051.97,-139.957C1063.61,-137.626 1076.53,-135.369 1088.5,-134 1552.42,-80.9381 1674.22,-147.769 2138.5,-98 2148.08,-96.9727 2158.25,-95.4619 2168,-93.7986"/>
<polygon fill="midnightblue" stroke="midnightblue" points="2168.74,-97.2221 2177.97,-92.0238 2167.51,-90.3304 2168.74,-97.2221"/>
</g>
<!-- Node32 -->
<g id="node32" class="node"><title>Node32</title>
<g id="a_node32"><a xlink:title=" ">
<polygon fill="white" stroke="#bfbfbf" points="2308,-73 2308,-92 2415,-92 2415,-73 2308,-73"/>
<text text-anchor="middle" x="2361.5" y="-80" font-family="Helvetica,sans-Serif" font-size="10.00">ti/drivers/cbuff/cbuff.h</text>
</a>
</g>
</g>
<!-- Node24&#45;&gt;Node32 -->
<g id="edge33" class="edge"><title>Node24&#45;&gt;Node32</title>
<path fill="none" stroke="midnightblue" d="M1051.58,-140C1063.33,-137.64 1076.4,-135.356 1088.5,-134 1623.61,-74.029 1765.56,-167.659 2299.5,-98 2306.35,-97.1064 2313.55,-95.7852 2320.52,-94.2984"/>
<polygon fill="midnightblue" stroke="midnightblue" points="2321.52,-97.6594 2330.5,-92.032 2319.97,-90.8332 2321.52,-97.6594"/>
</g>
<!-- Node33 -->
<g id="node33" class="node"><title>Node33</title>
<g id="a_node33"><a xlink:title=" ">
<polygon fill="white" stroke="#bfbfbf" points="1105.5,-73 1105.5,-92 1235.5,-92 1235.5,-73 1105.5,-73"/>
<text text-anchor="middle" x="1170.5" y="-80" font-family="Helvetica,sans-Serif" font-size="10.00">ti/drivers/adcbuf/ADCBuf.h</text>
</a>
</g>
</g>
<!-- Node24&#45;&gt;Node33 -->
<g id="edge34" class="edge"><title>Node24&#45;&gt;Node33</title>
<path fill="none" stroke="midnightblue" d="M1035.22,-139.869C1062.14,-128.65 1109.36,-108.977 1140.28,-96.0925"/>
<polygon fill="midnightblue" stroke="midnightblue" points="1141.81,-99.2442 1149.7,-92.1672 1139.12,-92.7826 1141.81,-99.2442"/>
</g>
<!-- Node34 -->
<g id="node34" class="node"><title>Node34</title>
<g id="a_node34"><a xlink:title=" ">
<polygon fill="white" stroke="#bfbfbf" points="1254,-73 1254,-92 1369,-92 1369,-73 1254,-73"/>
<text text-anchor="middle" x="1311.5" y="-80" font-family="Helvetica,sans-Serif" font-size="10.00">ti/drivers/edma/edma.h</text>
</a>
</g>
</g>
<!-- Node24&#45;&gt;Node34 -->
<g id="edge35" class="edge"><title>Node24&#45;&gt;Node34</title>
<path fill="none" stroke="midnightblue" d="M1053.63,-139.936C1107.28,-128.196 1203.64,-107.105 1262.17,-94.2971"/>
<polygon fill="midnightblue" stroke="midnightblue" points="1263.26,-97.6405 1272.28,-92.0834 1261.76,-90.8024 1263.26,-97.6405"/>
</g>
</g>
</svg>
