<?xml version="1.0" encoding="UTF-8" standalone="no"?>
<!DOCTYPE svg PUBLIC "-//W3C//DTD SVG 1.1//EN"
 "http://www.w3.org/Graphics/SVG/1.1/DTD/svg11.dtd">
<!-- Generated by graphviz version 2.38.0 (20140413.2041)
 -->
<!-- Title: mss_main.c Pages: 1 -->
<svg width="3652pt" height="229pt"
 viewBox="0.00 0.00 3652.00 229.00" xmlns="http://www.w3.org/2000/svg" xmlns:xlink="http://www.w3.org/1999/xlink">
<g id="graph0" class="graph" transform="scale(1 1) rotate(0) translate(4 225)">
<title>mss_main.c</title>
<polygon fill="white" stroke="none" points="-4,4 -4,-225 3648,-225 3648,4 -4,4"/>
<!-- Node1 -->
<g id="node1" class="node"><title>Node1</title>
<g id="a_node1"><a xlink:title=" ">
<polygon fill="#bfbfbf" stroke="black" points="1522.5,-201.5 1522.5,-220.5 1592.5,-220.5 1592.5,-201.5 1522.5,-201.5"/>
<text text-anchor="middle" x="1557.5" y="-208.5" font-family="Helvetica,sans-Serif" font-size="10.00">mss_main.c</text>
</a>
</g>
</g>
<!-- Node2 -->
<g id="node2" class="node"><title>Node2</title>
<g id="a_node2"><a xlink:title=" ">
<polygon fill="white" stroke="#bfbfbf" points="0,-140 0,-159 49,-159 49,-140 0,-140"/>
<text text-anchor="middle" x="24.5" y="-147" font-family="Helvetica,sans-Serif" font-size="10.00">stdint.h</text>
</a>
</g>
</g>
<!-- Node1&#45;&gt;Node2 -->
<g id="edge1" class="edge"><title>Node1&#45;&gt;Node2</title>
<path fill="none" stroke="midnightblue" d="M1522.3,-209.726C1310.09,-207.973 205.505,-197.343 58.5,-165 55.8305,-164.413 53.1082,-163.619 50.4244,-162.705"/>
<polygon fill="midnightblue" stroke="midnightblue" points="51.6239,-159.416 41.0367,-159.014 49.0623,-165.93 51.6239,-159.416"/>
</g>
<!-- Node3 -->
<g id="node3" class="node"><title>Node3</title>
<g id="a_node3"><a xlink:title=" ">
<polygon fill="white" stroke="#bfbfbf" points="67.5,-140 67.5,-159 115.5,-159 115.5,-140 67.5,-140"/>
<text text-anchor="middle" x="91.5" y="-147" font-family="Helvetica,sans-Serif" font-size="10.00">stdlib.h</text>
</a>
</g>
</g>
<!-- Node1&#45;&gt;Node3 -->
<g id="edge2" class="edge"><title>Node1&#45;&gt;Node3</title>
<path fill="none" stroke="midnightblue" d="M1522.18,-209.696C1315.25,-207.805 264.467,-196.696 124.5,-165 121.99,-164.432 119.435,-163.672 116.914,-162.796"/>
<polygon fill="midnightblue" stroke="midnightblue" points="118.111,-159.505 107.527,-159.01 115.492,-165.997 118.111,-159.505"/>
</g>
<!-- Node4 -->
<g id="node4" class="node"><title>Node4</title>
<g id="a_node4"><a xlink:title=" ">
<polygon fill="white" stroke="#bfbfbf" points="134,-140 134,-159 185,-159 185,-140 134,-140"/>
<text text-anchor="middle" x="159.5" y="-147" font-family="Helvetica,sans-Serif" font-size="10.00">stddef.h</text>
</a>
</g>
</g>
<!-- Node1&#45;&gt;Node4 -->
<g id="edge3" class="edge"><title>Node1&#45;&gt;Node4</title>
<path fill="none" stroke="midnightblue" d="M1522.27,-209.614C1321.53,-207.31 326.511,-194.471 193.5,-165 190.831,-164.409 188.11,-163.613 185.426,-162.697"/>
<polygon fill="midnightblue" stroke="midnightblue" points="186.626,-159.408 176.039,-159.003 184.063,-165.922 186.626,-159.408"/>
</g>
<!-- Node5 -->
<g id="node5" class="node"><title>Node5</title>
<g id="a_node5"><a xlink:title=" ">
<polygon fill="white" stroke="#bfbfbf" points="203,-140 203,-159 252,-159 252,-140 203,-140"/>
<text text-anchor="middle" x="227.5" y="-147" font-family="Helvetica,sans-Serif" font-size="10.00">string.h</text>
</a>
</g>
</g>
<!-- Node1&#45;&gt;Node5 -->
<g id="edge4" class="edge"><title>Node1&#45;&gt;Node5</title>
<path fill="none" stroke="midnightblue" d="M1522.45,-209.551C1328.15,-206.958 387.52,-193.037 261.5,-165 258.979,-164.439 256.41,-163.696 253.871,-162.842"/>
<polygon fill="midnightblue" stroke="midnightblue" points="254.976,-159.517 244.388,-159.149 252.436,-166.04 254.976,-159.517"/>
</g>
<!-- Node6 -->
<g id="node6" class="node"><title>Node6</title>
<g id="a_node6"><a xlink:title=" ">
<polygon fill="white" stroke="#bfbfbf" points="270.5,-140 270.5,-159 316.5,-159 316.5,-140 270.5,-140"/>
<text text-anchor="middle" x="293.5" y="-147" font-family="Helvetica,sans-Serif" font-size="10.00">stdio.h</text>
</a>
</g>
</g>
<!-- Node1&#45;&gt;Node6 -->
<g id="edge5" class="edge"><title>Node1&#45;&gt;Node6</title>
<path fill="none" stroke="midnightblue" d="M1522.37,-209.503C1333.79,-206.73 445.645,-192.303 326.5,-165 324.133,-164.457 321.724,-163.746 319.342,-162.93"/>
<polygon fill="midnightblue" stroke="midnightblue" points="320.453,-159.605 309.868,-159.145 317.856,-166.105 320.453,-159.605"/>
</g>
<!-- Node7 -->
<g id="node7" class="node"><title>Node7</title>
<g id="a_node7"><a xlink:title=" ">
<polygon fill="white" stroke="#bfbfbf" points="335,-140 335,-159 382,-159 382,-140 335,-140"/>
<text text-anchor="middle" x="358.5" y="-147" font-family="Helvetica,sans-Serif" font-size="10.00">math.h</text>
</a>
</g>
</g>
<!-- Node1&#45;&gt;Node7 -->
<g id="edge6" class="edge"><title>Node1&#45;&gt;Node7</title>
<path fill="none" stroke="midnightblue" d="M1522.44,-209.427C1340.08,-206.345 503.966,-190.893 391.5,-165 389.133,-164.455 386.725,-163.742 384.344,-162.925"/>
<polygon fill="midnightblue" stroke="midnightblue" points="385.455,-159.599 374.87,-159.138 382.856,-166.099 385.455,-159.599"/>
</g>
<!-- Node8 -->
<g id="node8" class="node"><title>Node8</title>
<g id="a_node8"><a xlink:title=" ">
<polygon fill="white" stroke="#bfbfbf" points="400,-140 400,-159 457,-159 457,-140 400,-140"/>
<text text-anchor="middle" x="428.5" y="-147" font-family="Helvetica,sans-Serif" font-size="10.00">xdc/std.h</text>
</a>
</g>
</g>
<!-- Node1&#45;&gt;Node8 -->
<g id="edge7" class="edge"><title>Node1&#45;&gt;Node8</title>
<path fill="none" stroke="midnightblue" d="M1522.3,-210.071C1359.1,-210.166 675.277,-207.946 466.5,-165 463.418,-164.366 460.257,-163.513 457.139,-162.537"/>
<polygon fill="midnightblue" stroke="midnightblue" points="458.065,-159.152 447.47,-159.116 455.73,-165.752 458.065,-159.152"/>
</g>
<!-- Node9 -->
<g id="node9" class="node"><title>Node9</title>
<g id="a_node9"><a xlink:title=" ">
<polygon fill="white" stroke="#bfbfbf" points="475,-140 475,-159 560,-159 560,-140 475,-140"/>
<text text-anchor="middle" x="517.5" y="-147" font-family="Helvetica,sans-Serif" font-size="10.00">xdc/cfg/global.h</text>
</a>
</g>
</g>
<!-- Node1&#45;&gt;Node9 -->
<g id="edge8" class="edge"><title>Node1&#45;&gt;Node9</title>
<path fill="none" stroke="midnightblue" d="M1522.42,-209.466C1369.3,-206.974 758.757,-195.295 569.5,-165 564.312,-164.17 558.902,-163.007 553.617,-161.699"/>
<polygon fill="midnightblue" stroke="midnightblue" points="554.262,-158.248 543.697,-159.05 552.456,-165.011 554.262,-158.248"/>
</g>
<!-- Node10 -->
<g id="node10" class="node"><title>Node10</title>
<g id="a_node10"><a xlink:title=" ">
<polygon fill="white" stroke="#bfbfbf" points="578.5,-140 578.5,-159 682.5,-159 682.5,-140 578.5,-140"/>
<text text-anchor="middle" x="630.5" y="-147" font-family="Helvetica,sans-Serif" font-size="10.00">xdc/runtime/IHeap.h</text>
</a>
</g>
</g>
<!-- Node1&#45;&gt;Node10 -->
<g id="edge9" class="edge"><title>Node1&#45;&gt;Node10</title>
<path fill="none" stroke="midnightblue" d="M1522.27,-210.403C1404.24,-211.277 1012.24,-210.338 692.5,-165 685.808,-164.051 678.776,-162.728 671.949,-161.265"/>
<polygon fill="midnightblue" stroke="midnightblue" points="672.681,-157.842 662.154,-159.046 671.134,-164.669 672.681,-157.842"/>
</g>
<!-- Node11 -->
<g id="node11" class="node"><title>Node11</title>
<g id="a_node11"><a xlink:title=" ">
<polygon fill="white" stroke="#bfbfbf" points="701,-140 701,-159 814,-159 814,-140 701,-140"/>
<text text-anchor="middle" x="757.5" y="-147" font-family="Helvetica,sans-Serif" font-size="10.00">xdc/runtime/System.h</text>
</a>
</g>
</g>
<!-- Node1&#45;&gt;Node11 -->
<g id="edge10" class="edge"><title>Node1&#45;&gt;Node11</title>
<path fill="none" stroke="midnightblue" d="M1522.16,-209.771C1415.93,-208.668 1090.29,-202.256 823.5,-165 816.311,-163.996 808.741,-162.63 801.395,-161.136"/>
<polygon fill="midnightblue" stroke="midnightblue" points="802.083,-157.705 791.573,-159.042 800.623,-164.551 802.083,-157.705"/>
</g>
<!-- Node12 -->
<g id="node12" class="node"><title>Node12</title>
<g id="a_node12"><a xlink:title=" ">
<polygon fill="white" stroke="#bfbfbf" points="832.5,-140 832.5,-159 932.5,-159 932.5,-140 832.5,-140"/>
<text text-anchor="middle" x="882.5" y="-147" font-family="Helvetica,sans-Serif" font-size="10.00">xdc/runtime/Error.h</text>
</a>
</g>
</g>
<!-- Node1&#45;&gt;Node12 -->
<g id="edge11" class="edge"><title>Node1&#45;&gt;Node12</title>
<path fill="none" stroke="midnightblue" d="M1522.19,-209.492C1427.54,-207.685 1160.47,-199.654 941.5,-165 935.493,-164.049 929.199,-162.791 923.053,-161.413"/>
<polygon fill="midnightblue" stroke="midnightblue" points="923.461,-157.913 912.923,-159.012 921.846,-164.724 923.461,-157.913"/>
</g>
<!-- Node13 -->
<g id="node13" class="node"><title>Node13</title>
<g id="a_node13"><a xlink:title=" ">
<polygon fill="white" stroke="#bfbfbf" points="950.5,-140 950.5,-159 1064.5,-159 1064.5,-140 950.5,-140"/>
<text text-anchor="middle" x="1007.5" y="-147" font-family="Helvetica,sans-Serif" font-size="10.00">xdc/runtime/Memory.h</text>
</a>
</g>
</g>
<!-- Node1&#45;&gt;Node13 -->
<g id="edge12" class="edge"><title>Node1&#45;&gt;Node13</title>
<path fill="none" stroke="midnightblue" d="M1522.47,-208.184C1442.63,-203.73 1241.17,-190.705 1074.5,-165 1067.62,-163.94 1060.4,-162.608 1053.33,-161.183"/>
<polygon fill="midnightblue" stroke="midnightblue" points="1053.67,-157.678 1043.17,-159.051 1052.24,-164.529 1053.67,-157.678"/>
</g>
<!-- Node14 -->
<g id="node14" class="node"><title>Node14</title>
<g id="a_node14"><a xlink:title=" ">
<polygon fill="white" stroke="#bfbfbf" points="1083,-140 1083,-159 1176,-159 1176,-140 1083,-140"/>
<text text-anchor="middle" x="1129.5" y="-147" font-family="Helvetica,sans-Serif" font-size="10.00">ti/sysbios/BIOS.h</text>
</a>
</g>
</g>
<!-- Node1&#45;&gt;Node14 -->
<g id="edge13" class="edge"><title>Node1&#45;&gt;Node14</title>
<path fill="none" stroke="midnightblue" d="M1522.39,-207.32C1456.11,-201.915 1308.23,-188.206 1185.5,-165 1180.33,-164.022 1174.93,-162.837 1169.61,-161.57"/>
<polygon fill="midnightblue" stroke="midnightblue" points="1170.11,-158.088 1159.56,-159.067 1168.42,-164.881 1170.11,-158.088"/>
</g>
<!-- Node15 -->
<g id="node15" class="node"><title>Node15</title>
<g id="a_node15"><a xlink:title=" ">
<polygon fill="white" stroke="#bfbfbf" points="1194,-140 1194,-159 1301,-159 1301,-140 1194,-140"/>
<text text-anchor="middle" x="1247.5" y="-147" font-family="Helvetica,sans-Serif" font-size="10.00">ti/sysbios/knl/Task.h</text>
</a>
</g>
</g>
<!-- Node1&#45;&gt;Node15 -->
<g id="edge14" class="edge"><title>Node1&#45;&gt;Node15</title>
<path fill="none" stroke="midnightblue" d="M1522.18,-203.731C1475,-195.29 1388.84,-179.635 1315.5,-165 1309.36,-163.775 1302.92,-162.452 1296.55,-161.12"/>
<polygon fill="midnightblue" stroke="midnightblue" points="1297.17,-157.672 1286.66,-159.033 1295.72,-164.522 1297.17,-157.672"/>
</g>
<!-- Node16 -->
<g id="node16" class="node"><title>Node16</title>
<g id="a_node16"><a xlink:title=" ">
<polygon fill="white" stroke="#bfbfbf" points="510.5,-73 510.5,-92 620.5,-92 620.5,-73 510.5,-73"/>
<text text-anchor="middle" x="565.5" y="-80" font-family="Helvetica,sans-Serif" font-size="10.00">ti/sysbios/knl/Event.h</text>
</a>
</g>
</g>
<!-- Node1&#45;&gt;Node16 -->
<g id="edge15" class="edge"><title>Node1&#45;&gt;Node16</title>
<path fill="none" stroke="midnightblue" d="M1522.2,-208.398C1478.1,-205.129 1401.4,-195.195 1343.5,-165 1325.66,-155.695 1329.01,-141.902 1310.5,-134 1171.33,-74.5812 780.422,-118.545 630.5,-98 623.496,-97.0402 616.13,-95.7118 608.975,-94.2456"/>
<polygon fill="midnightblue" stroke="midnightblue" points="609.222,-90.7183 598.708,-92.0257 607.743,-97.5602 609.222,-90.7183"/>
</g>
<!-- Node17 -->
<g id="node17" class="node"><title>Node17</title>
<g id="a_node17"><a xlink:title=" ">
<polygon fill="white" stroke="#bfbfbf" points="639,-73 639,-92 774,-92 774,-73 639,-73"/>
<text text-anchor="middle" x="706.5" y="-80" font-family="Helvetica,sans-Serif" font-size="10.00">ti/sysbios/knl/Semaphore.h</text>
</a>
</g>
</g>
<!-- Node1&#45;&gt;Node17 -->
<g id="edge16" class="edge"><title>Node1&#45;&gt;Node17</title>
<path fill="none" stroke="midnightblue" d="M1522.19,-205.564C1485.48,-199.923 1427.11,-188.016 1381.5,-165 1362.04,-155.181 1363.79,-141.968 1343.5,-134 1227.43,-88.4128 907.226,-113.567 783.5,-98 774.773,-96.9019 765.541,-95.4334 756.617,-93.8517"/>
<polygon fill="midnightblue" stroke="midnightblue" points="757.184,-90.3973 746.716,-92.0314 755.918,-97.2819 757.184,-90.3973"/>
</g>
<!-- Node18 -->
<g id="node18" class="node"><title>Node18</title>
<g id="a_node18"><a xlink:title=" ">
<polygon fill="white" stroke="#bfbfbf" points="1961.5,-140 1961.5,-159 2071.5,-159 2071.5,-140 1961.5,-140"/>
<text text-anchor="middle" x="2016.5" y="-147" font-family="Helvetica,sans-Serif" font-size="10.00">ti/sysbios/knl/Clock.h</text>
</a>
</g>
</g>
<!-- Node1&#45;&gt;Node18 -->
<g id="edge17" class="edge"><title>Node1&#45;&gt;Node18</title>
<path fill="none" stroke="midnightblue" d="M1592.61,-207.044C1661.12,-201.033 1817.32,-186.142 1947.5,-165 1954.4,-163.879 1961.66,-162.537 1968.76,-161.128"/>
<polygon fill="midnightblue" stroke="midnightblue" points="1969.92,-164.464 1979.02,-159.033 1968.52,-157.606 1969.92,-164.464"/>
</g>
<!-- Node19 -->
<g id="node19" class="node"><title>Node19</title>
<g id="a_node19"><a xlink:title=" ">
<polygon fill="white" stroke="#bfbfbf" points="2089.5,-140 2089.5,-159 2225.5,-159 2225.5,-140 2089.5,-140"/>
<text text-anchor="middle" x="2157.5" y="-147" font-family="Helvetica,sans-Serif" font-size="10.00">ti/sysbios/heaps/HeapBuf.h</text>
</a>
</g>
</g>
<!-- Node1&#45;&gt;Node19 -->
<g id="edge18" class="edge"><title>Node1&#45;&gt;Node19</title>
<path fill="none" stroke="midnightblue" d="M1592.52,-208.203C1676.83,-203.613 1897.66,-190.018 2080.5,-165 2088.93,-163.847 2097.83,-162.392 2106.48,-160.851"/>
<polygon fill="midnightblue" stroke="midnightblue" points="2107.26,-164.266 2116.46,-159.017 2106,-157.381 2107.26,-164.266"/>
</g>
<!-- Node20 -->
<g id="node20" class="node"><title>Node20</title>
<g id="a_node20"><a xlink:title=" ">
<polygon fill="white" stroke="#bfbfbf" points="2244,-140 2244,-159 2387,-159 2387,-140 2244,-140"/>
<text text-anchor="middle" x="2315.5" y="-147" font-family="Helvetica,sans-Serif" font-size="10.00">ti/sysbios/heaps/HeapMem.h</text>
</a>
</g>
</g>
<!-- Node1&#45;&gt;Node20 -->
<g id="edge19" class="edge"><title>Node1&#45;&gt;Node20</title>
<path fill="none" stroke="midnightblue" d="M1592.51,-209.041C1692.83,-205.999 1989.84,-194.936 2234.5,-165 2243.66,-163.879 2253.36,-162.399 2262.74,-160.815"/>
<polygon fill="midnightblue" stroke="midnightblue" points="2263.51,-164.234 2272.76,-159.065 2262.3,-157.339 2263.51,-164.234"/>
</g>
<!-- Node21 -->
<g id="node21" class="node"><title>Node21</title>
<g id="a_node21"><a xlink:title=" ">
<polygon fill="white" stroke="#bfbfbf" points="2405,-134.5 2405,-164.5 2512,-164.5 2512,-134.5 2405,-134.5"/>
<text text-anchor="start" x="2413" y="-152.5" font-family="Helvetica,sans-Serif" font-size="10.00">ti/sysbios/family/arm</text>
<text text-anchor="middle" x="2458.5" y="-141.5" font-family="Helvetica,sans-Serif" font-size="10.00">/v7a/Pmu.h</text>
</a>
</g>
</g>
<!-- Node1&#45;&gt;Node21 -->
<g id="edge20" class="edge"><title>Node1&#45;&gt;Node21</title>
<path fill="none" stroke="midnightblue" d="M1592.88,-210.323C1707.57,-210.901 2079.36,-209.113 2394.59,-165.108"/>
<polygon fill="midnightblue" stroke="midnightblue" points="2395.43,-168.524 2404.84,-163.659 2394.45,-161.593 2395.43,-168.524"/>
</g>
<!-- Node22 -->
<g id="node22" class="node"><title>Node22</title>
<g id="a_node22"><a xlink:title=" ">
<polygon fill="white" stroke="#bfbfbf" points="2530,-134.5 2530,-164.5 2637,-164.5 2637,-134.5 2530,-134.5"/>
<text text-anchor="start" x="2538" y="-152.5" font-family="Helvetica,sans-Serif" font-size="10.00">ti/sysbios/family/arm</text>
<text text-anchor="middle" x="2583.5" y="-141.5" font-family="Helvetica,sans-Serif" font-size="10.00">/v7r/vim/Hwi.h</text>
</a>
</g>
</g>
<!-- Node1&#45;&gt;Node22 -->
<g id="edge21" class="edge"><title>Node1&#45;&gt;Node22</title>
<path fill="none" stroke="midnightblue" d="M1592.71,-209.221C1741.14,-205.805 2317.11,-191.201 2519.9,-165.018"/>
<polygon fill="midnightblue" stroke="midnightblue" points="2520.4,-168.482 2529.84,-163.682 2519.47,-161.545 2520.4,-168.482"/>
</g>
<!-- Node23 -->
<g id="node23" class="node"><title>Node23</title>
<g id="a_node23"><a xlink:title=" ">
<polygon fill="white" stroke="#bfbfbf" points="2655.5,-134.5 2655.5,-164.5 2765.5,-164.5 2765.5,-134.5 2655.5,-134.5"/>
<text text-anchor="start" x="2663.5" y="-152.5" font-family="Helvetica,sans-Serif" font-size="10.00">ti/control/mmwavelink</text>
<text text-anchor="middle" x="2710.5" y="-141.5" font-family="Helvetica,sans-Serif" font-size="10.00">/mmwavelink.h</text>
</a>
</g>
</g>
<!-- Node1&#45;&gt;Node23 -->
<g id="edge22" class="edge"><title>Node1&#45;&gt;Node23</title>
<path fill="none" stroke="midnightblue" d="M1592.53,-209.408C1752.54,-206.577 2415.76,-193.407 2645.5,-164.918"/>
<polygon fill="midnightblue" stroke="midnightblue" points="2645.99,-168.385 2655.46,-163.637 2645.09,-161.442 2645.99,-168.385"/>
</g>
<!-- Node24 -->
<g id="node24" class="node"><title>Node24</title>
<g id="a_node24"><a xlink:title=" ">
<polygon fill="white" stroke="#bfbfbf" points="792,-73 792,-92 935,-92 935,-73 792,-73"/>
<text text-anchor="middle" x="863.5" y="-80" font-family="Helvetica,sans-Serif" font-size="10.00">ti/control/mmwave/mmwave.h</text>
</a>
</g>
</g>
<!-- Node1&#45;&gt;Node24 -->
<g id="edge23" class="edge"><title>Node1&#45;&gt;Node24</title>
<path fill="none" stroke="midnightblue" d="M1522.31,-202.346C1493.52,-195.203 1452.35,-182.933 1419.5,-165 1400.37,-154.555 1401.71,-142.15 1381.5,-134 1291.13,-97.5641 1041.12,-110.599 944.5,-98 935.449,-96.8198 925.871,-95.3255 916.592,-93.7475"/>
<polygon fill="midnightblue" stroke="midnightblue" points="917.134,-90.2892 906.68,-92.0131 915.927,-97.1844 917.134,-90.2892"/>
</g>
<!-- Node25 -->
<g id="node25" class="node"><title>Node25</title>
<g id="a_node25"><a xlink:title=" ">
<polygon fill="white" stroke="#bfbfbf" points="2783.5,-134.5 2783.5,-164.5 2893.5,-164.5 2893.5,-134.5 2783.5,-134.5"/>
<text text-anchor="start" x="2791.5" y="-152.5" font-family="Helvetica,sans-Serif" font-size="10.00">ti/control/mmwavelink</text>
<text text-anchor="middle" x="2838.5" y="-141.5" font-family="Helvetica,sans-Serif" font-size="10.00">/include/rl_driver.h</text>
</a>
</g>
</g>
<!-- Node1&#45;&gt;Node25 -->
<g id="edge24" class="edge"><title>Node1&#45;&gt;Node25</title>
<path fill="none" stroke="midnightblue" d="M1592.51,-209.584C1763.96,-207.415 2516.73,-196.327 2773.44,-164.922"/>
<polygon fill="midnightblue" stroke="midnightblue" points="2773.98,-168.382 2783.46,-163.653 2773.1,-161.437 2773.98,-168.382"/>
</g>
<!-- Node26 -->
<g id="node26" class="node"><title>Node26</title>
<g id="a_node26"><a xlink:title=" ">
<polygon fill="white" stroke="#bfbfbf" points="2481.5,-6 2481.5,-25 2613.5,-25 2613.5,-6 2481.5,-6"/>
<text text-anchor="middle" x="2547.5" y="-13" font-family="Helvetica,sans-Serif" font-size="10.00">ti/common/sys_common.h</text>
</a>
</g>
</g>
<!-- Node1&#45;&gt;Node26 -->
<g id="edge25" class="edge"><title>Node1&#45;&gt;Node26</title>
<path fill="none" stroke="midnightblue" d="M1592.73,-207.709C1670.04,-202.324 1852.26,-187.588 1909.5,-165 1931.41,-156.351 1930.33,-141.98 1952.5,-134 2065.87,-93.19 2389.3,-158.498 2493.5,-98 2517.77,-83.9059 2533.22,-54.0104 2541.12,-34.6105"/>
<polygon fill="midnightblue" stroke="midnightblue" points="2544.46,-35.6707 2544.73,-25.0795 2537.91,-33.1871 2544.46,-35.6707"/>
</g>
<!-- Node27 -->
<g id="node27" class="node"><title>Node27</title>
<g id="a_node27"><a xlink:title=" ">
<polygon fill="white" stroke="#bfbfbf" points="953.5,-73 953.5,-92 1051.5,-92 1051.5,-73 953.5,-73"/>
<text text-anchor="middle" x="1002.5" y="-80" font-family="Helvetica,sans-Serif" font-size="10.00">ti/drivers/soc/soc.h</text>
</a>
</g>
</g>
<!-- Node1&#45;&gt;Node27 -->
<g id="edge26" class="edge"><title>Node1&#45;&gt;Node27</title>
<path fill="none" stroke="midnightblue" d="M1534,-201.445C1513.16,-193.396 1482.28,-180.314 1457.5,-165 1438.96,-153.541 1439.64,-142.329 1419.5,-134 1271.32,-72.7204 1218.48,-125.518 1060.5,-98 1054.74,-96.9959 1048.7,-95.7308 1042.79,-94.3684"/>
<polygon fill="midnightblue" stroke="midnightblue" points="1043.57,-90.9569 1033.03,-92.0127 1041.93,-97.7614 1043.57,-90.9569"/>
</g>
<!-- Node28 -->
<g id="node28" class="node"><title>Node28</title>
<g id="a_node28"><a xlink:title=" ">
<polygon fill="white" stroke="#bfbfbf" points="1069.5,-73 1069.5,-92 1173.5,-92 1173.5,-73 1069.5,-73"/>
<text text-anchor="middle" x="1121.5" y="-80" font-family="Helvetica,sans-Serif" font-size="10.00">ti/drivers/esm/esm.h</text>
</a>
</g>
</g>
<!-- Node1&#45;&gt;Node28 -->
<g id="edge27" class="edge"><title>Node1&#45;&gt;Node28</title>
<path fill="none" stroke="midnightblue" d="M1545,-201.238C1532.37,-192.314 1512.36,-177.981 1495.5,-165 1478.23,-151.704 1477.51,-142.633 1457.5,-134 1344.32,-85.1785 1303.73,-120.283 1182.5,-98 1176.67,-96.9285 1170.56,-95.6568 1164.55,-94.3185"/>
<polygon fill="midnightblue" stroke="midnightblue" points="1165.14,-90.862 1154.61,-92.027 1163.57,-97.6833 1165.14,-90.862"/>
</g>
<!-- Node29 -->
<g id="node29" class="node"><title>Node29</title>
<g id="a_node29"><a xlink:title=" ">
<polygon fill="white" stroke="#bfbfbf" points="1191.5,-73 1191.5,-92 1285.5,-92 1285.5,-73 1191.5,-73"/>
<text text-anchor="middle" x="1238.5" y="-80" font-family="Helvetica,sans-Serif" font-size="10.00">ti/drivers/crc/crc.h</text>
</a>
</g>
</g>
<!-- Node1&#45;&gt;Node29 -->
<g id="edge28" class="edge"><title>Node1&#45;&gt;Node29</title>
<path fill="none" stroke="midnightblue" d="M1553.09,-201.236C1544.46,-185.046 1523.67,-150.593 1495.5,-134 1417.68,-88.1626 1383.76,-117.145 1295.5,-98 1290.51,-96.9184 1285.3,-95.7066 1280.14,-94.4567"/>
<polygon fill="midnightblue" stroke="midnightblue" points="1280.91,-91.0407 1270.36,-92.0301 1279.22,-97.8348 1280.91,-91.0407"/>
</g>
<!-- Node30 -->
<g id="node30" class="node"><title>Node30</title>
<g id="a_node30"><a xlink:title=" ">
<polygon fill="white" stroke="#bfbfbf" points="1304,-73 1304,-92 1413,-92 1413,-73 1304,-73"/>
<text text-anchor="middle" x="1358.5" y="-80" font-family="Helvetica,sans-Serif" font-size="10.00">ti/drivers/uart/UART.h</text>
</a>
</g>
</g>
<!-- Node1&#45;&gt;Node30 -->
<g id="edge29" class="edge"><title>Node1&#45;&gt;Node30</title>
<path fill="none" stroke="midnightblue" d="M1557.3,-201.358C1556.47,-185.677 1552.42,-152.453 1533.5,-134 1524.12,-124.853 1453.56,-106.388 1404.95,-94.5004"/>
<polygon fill="midnightblue" stroke="midnightblue" points="1405.48,-91.0285 1394.94,-92.0694 1403.83,-97.8308 1405.48,-91.0285"/>
</g>
<!-- Node31 -->
<g id="node31" class="node"><title>Node31</title>
<g id="a_node31"><a xlink:title=" ">
<polygon fill="white" stroke="#bfbfbf" points="2912,-140 2912,-159 3015,-159 3015,-140 2912,-140"/>
<text text-anchor="middle" x="2963.5" y="-147" font-family="Helvetica,sans-Serif" font-size="10.00">ti/drivers/gpio/gpio.h</text>
</a>
</g>
</g>
<!-- Node1&#45;&gt;Node31 -->
<g id="edge30" class="edge"><title>Node1&#45;&gt;Node31</title>
<path fill="none" stroke="midnightblue" d="M1592.78,-209.774C1777.88,-208.444 2638.52,-200.428 2902.5,-165 2909.24,-164.095 2916.33,-162.768 2923.18,-161.279"/>
<polygon fill="midnightblue" stroke="midnightblue" points="2924.05,-164.672 2933,-159.012 2922.47,-157.851 2924.05,-164.672"/>
</g>
<!-- Node32 -->
<g id="node32" class="node"><title>Node32</title>
<g id="a_node32"><a xlink:title=" ">
<polygon fill="white" stroke="#bfbfbf" points="1867,-67.5 1867,-97.5 1956,-97.5 1956,-67.5 1867,-67.5"/>
<text text-anchor="start" x="1875" y="-85.5" font-family="Helvetica,sans-Serif" font-size="10.00">ti/drivers/mailbox</text>
<text text-anchor="middle" x="1911.5" y="-74.5" font-family="Helvetica,sans-Serif" font-size="10.00">/mailbox.h</text>
</a>
</g>
</g>
<!-- Node1&#45;&gt;Node32 -->
<g id="edge31" class="edge"><title>Node1&#45;&gt;Node32</title>
<path fill="none" stroke="midnightblue" d="M1592.69,-204.346C1627.4,-197.898 1681.38,-185.505 1724.5,-165 1745.78,-154.881 1746.61,-144.9 1767.5,-134 1795.84,-119.209 1829.47,-107.141 1857.09,-98.5153"/>
<polygon fill="midnightblue" stroke="midnightblue" points="1858.43,-101.764 1866.97,-95.4946 1856.39,-95.0698 1858.43,-101.764"/>
</g>
<!-- Node33 -->
<g id="node33" class="node"><title>Node33</title>
<g id="a_node33"><a xlink:title=" ">
<polygon fill="white" stroke="#bfbfbf" points="3033,-134.5 3033,-164.5 3154,-164.5 3154,-134.5 3033,-134.5"/>
<text text-anchor="start" x="3041" y="-152.5" font-family="Helvetica,sans-Serif" font-size="10.00">ti/drivers/pinmux/include</text>
<text text-anchor="middle" x="3093.5" y="-141.5" font-family="Helvetica,sans-Serif" font-size="10.00">/pinmux_xwr18xx.h</text>
</a>
</g>
</g>
<!-- Node1&#45;&gt;Node33 -->
<g id="edge32" class="edge"><title>Node1&#45;&gt;Node33</title>
<path fill="none" stroke="midnightblue" d="M1592.71,-209.763C1785.27,-208.343 2713.31,-199.839 3022.35,-165.091"/>
<polygon fill="midnightblue" stroke="midnightblue" points="3023.11,-168.526 3032.64,-163.896 3022.31,-161.573 3023.11,-168.526"/>
</g>
<!-- Node34 -->
<g id="node34" class="node"><title>Node34</title>
<g id="a_node34"><a xlink:title=" ">
<polygon fill="white" stroke="#bfbfbf" points="1974,-73 1974,-92 2093,-92 2093,-73 1974,-73"/>
<text text-anchor="middle" x="2033.5" y="-80" font-family="Helvetica,sans-Serif" font-size="10.00">ti/drivers/osal/DebugP.h</text>
</a>
</g>
</g>
<!-- Node1&#45;&gt;Node34 -->
<g id="edge33" class="edge"><title>Node1&#45;&gt;Node34</title>
<path fill="none" stroke="midnightblue" d="M1592.67,-206.204C1633.97,-200.844 1703.88,-188.915 1759.5,-165 1782.15,-155.261 1782.85,-143.725 1805.5,-134 1809.64,-132.221 1918.23,-108.507 1984.03,-94.2173"/>
<polygon fill="midnightblue" stroke="midnightblue" points="1985.17,-97.5512 1994.2,-92.0096 1983.69,-90.7105 1985.17,-97.5512"/>
</g>
<!-- Node35 -->
<g id="node35" class="node"><title>Node35</title>
<g id="a_node35"><a xlink:title=" ">
<polygon fill="white" stroke="#bfbfbf" points="3172,-140 3172,-159 3285,-159 3285,-140 3172,-140"/>
<text text-anchor="middle" x="3228.5" y="-147" font-family="Helvetica,sans-Serif" font-size="10.00">ti/drivers/canfd/canfd.h</text>
</a>
</g>
</g>
<!-- Node1&#45;&gt;Node35 -->
<g id="edge34" class="edge"><title>Node1&#45;&gt;Node35</title>
<path fill="none" stroke="midnightblue" d="M1592.63,-209.931C1797.96,-209.386 2844.49,-204.679 3163.5,-165 3170.84,-164.088 3178.56,-162.726 3186.03,-161.198"/>
<polygon fill="midnightblue" stroke="midnightblue" points="3186.95,-164.578 3195.98,-159.035 3185.46,-157.738 3186.95,-164.578"/>
</g>
<!-- Node36 -->
<g id="node36" class="node"><title>Node36</title>
<g id="a_node36"><a xlink:title=" ">
<polygon fill="white" stroke="#bfbfbf" points="2111.5,-73 2111.5,-92 2241.5,-92 2241.5,-73 2111.5,-73"/>
<text text-anchor="middle" x="2176.5" y="-80" font-family="Helvetica,sans-Serif" font-size="10.00">ti/drivers/pinmux/pinmux.h</text>
</a>
</g>
</g>
<!-- Node1&#45;&gt;Node36 -->
<g id="edge35" class="edge"><title>Node1&#45;&gt;Node36</title>
<path fill="none" stroke="midnightblue" d="M1592.75,-207.731C1640.48,-203.695 1727.62,-192.88 1796.5,-165 1819.7,-155.612 1820.09,-142.829 1843.5,-134 1952.24,-92.9949 1987.88,-117.181 2102.5,-98 2109.86,-96.7681 2117.62,-95.3656 2125.22,-93.9298"/>
<polygon fill="midnightblue" stroke="midnightblue" points="2125.93,-97.3581 2135.09,-92.0344 2124.61,-90.4837 2125.93,-97.3581"/>
</g>
<!-- Node37 -->
<g id="node37" class="node"><title>Node37</title>
<g id="a_node37"><a xlink:title=" ">
<polygon fill="white" stroke="#bfbfbf" points="2260,-73 2260,-92 2367,-92 2367,-73 2260,-73"/>
<text text-anchor="middle" x="2313.5" y="-80" font-family="Helvetica,sans-Serif" font-size="10.00">ti/drivers/cbuff/cbuff.h</text>
</a>
</g>
</g>
<!-- Node1&#45;&gt;Node37 -->
<g id="edge36" class="edge"><title>Node1&#45;&gt;Node37</title>
<path fill="none" stroke="midnightblue" d="M1592.68,-208.852C1646.33,-206.099 1751.04,-196.749 1833.5,-165 1857.2,-155.875 1857.52,-142.358 1881.5,-134 2037.1,-79.7719 2087.87,-124.535 2250.5,-98 2256.82,-96.9681 2263.46,-95.6753 2269.96,-94.2892"/>
<polygon fill="midnightblue" stroke="midnightblue" points="2270.98,-97.6469 2279.98,-92.0585 2269.46,-90.814 2270.98,-97.6469"/>
</g>
<!-- Node38 -->
<g id="node38" class="node"><title>Node38</title>
<g id="a_node38"><a xlink:title=" ">
<polygon fill="white" stroke="#bfbfbf" points="3303,-134.5 3303,-164.5 3392,-164.5 3392,-134.5 3303,-134.5"/>
<text text-anchor="start" x="3311" y="-152.5" font-family="Helvetica,sans-Serif" font-size="10.00">ti/utils/testlogger</text>
<text text-anchor="middle" x="3347.5" y="-141.5" font-family="Helvetica,sans-Serif" font-size="10.00">/logger.h</text>
</a>
</g>
</g>
<!-- Node1&#45;&gt;Node38 -->
<g id="edge37" class="edge"><title>Node1&#45;&gt;Node38</title>
<path fill="none" stroke="midnightblue" d="M1592.69,-210.243C1805.95,-211.541 2927.97,-215.881 3292.79,-164.976"/>
<polygon fill="midnightblue" stroke="midnightblue" points="3293.44,-168.419 3302.84,-163.532 3292.45,-161.49 3293.44,-168.419"/>
</g>
<!-- Node39 -->
<g id="node39" class="node"><title>Node39</title>
<g id="a_node39"><a xlink:title=" ">
<polygon fill="white" stroke="#bfbfbf" points="3410,-140 3410,-159 3487,-159 3487,-140 3410,-140"/>
<text text-anchor="middle" x="3448.5" y="-147" font-family="Helvetica,sans-Serif" font-size="10.00">ti/utils/cli/cli.h</text>
</a>
</g>
</g>
<!-- Node1&#45;&gt;Node39 -->
<g id="edge38" class="edge"><title>Node1&#45;&gt;Node39</title>
<path fill="none" stroke="midnightblue" d="M1592.68,-209.723C1832,-207.759 3216.81,-195.151 3401.5,-165 3406.08,-164.252 3410.83,-163.169 3415.48,-161.925"/>
<polygon fill="midnightblue" stroke="midnightblue" points="3416.77,-165.195 3425.37,-159.017 3414.79,-158.479 3416.77,-165.195"/>
</g>
<!-- Node40 -->
<g id="node40" class="node"><title>Node40</title>
<g id="a_node40"><a xlink:href="mmw__messages_8h.html" target="_top" xlink:title=" ">
<polygon fill="white" stroke="black" points="3505,-140 3505,-159 3644,-159 3644,-140 3505,-140"/>
<text text-anchor="middle" x="3574.5" y="-147" font-family="Helvetica,sans-Serif" font-size="10.00">common/mmw_messages.h</text>
</a>
</g>
</g>
<!-- Node1&#45;&gt;Node40 -->
<g id="edge39" class="edge"><title>Node1&#45;&gt;Node40</title>
<path fill="none" stroke="midnightblue" d="M1592.56,-209.956C1821.53,-209.556 3106.53,-205.508 3496.5,-165 3505.86,-164.028 3515.77,-162.543 3525.28,-160.887"/>
<polygon fill="midnightblue" stroke="midnightblue" points="3526.19,-164.279 3535.4,-159.04 3524.93,-157.393 3526.19,-164.279"/>
</g>
<!-- Node41 -->
<g id="node41" class="node"><title>Node41</title>
<g id="a_node41"><a xlink:href="mm_wave___x_s_s_8h.html" target="_top" xlink:title=" ">
<polygon fill="white" stroke="black" points="1585.5,-140 1585.5,-159 1715.5,-159 1715.5,-140 1585.5,-140"/>
<text text-anchor="middle" x="1650.5" y="-147" font-family="Helvetica,sans-Serif" font-size="10.00">common/mmWave_XSS.h</text>
</a>
</g>
</g>
<!-- Node1&#45;&gt;Node41 -->
<g id="edge40" class="edge"><title>Node1&#45;&gt;Node41</title>
<path fill="none" stroke="midnightblue" d="M1570.82,-201.475C1585.88,-191.843 1610.62,-176.017 1628.54,-164.552"/>
<polygon fill="midnightblue" stroke="midnightblue" points="1630.66,-167.347 1637.2,-159.009 1626.89,-161.45 1630.66,-167.347"/>
</g>
<!-- Node45 -->
<g id="node45" class="node"><title>Node45</title>
<g id="a_node45"><a xlink:href="app__cfg_8h.html" target="_top" xlink:title=" ">
<polygon fill="white" stroke="black" points="2385,-73 2385,-92 2484,-92 2484,-73 2385,-73"/>
<text text-anchor="middle" x="2434.5" y="-80" font-family="Helvetica,sans-Serif" font-size="10.00">common/app_cfg.h</text>
</a>
</g>
</g>
<!-- Node1&#45;&gt;Node45 -->
<g id="edge59" class="edge"><title>Node1&#45;&gt;Node45</title>
<path fill="none" stroke="midnightblue" d="M1592.61,-209.817C1651.96,-208.458 1775.04,-201.075 1871.5,-165 1895.29,-156.104 1895.44,-142.134 1919.5,-134 2112.51,-68.7458 2175.42,-130.821 2376.5,-98 2382.34,-97.0467 2388.46,-95.7988 2394.44,-94.4348"/>
<polygon fill="midnightblue" stroke="midnightblue" points="2395.39,-97.8045 2404.3,-92.0612 2393.75,-90.9989 2395.39,-97.8045"/>
</g>
<!-- Node41&#45;&gt;Node16 -->
<g id="edge54" class="edge"><title>Node41&#45;&gt;Node16</title>
<path fill="none" stroke="midnightblue" d="M1585.31,-145.422C1364.06,-134.954 654.219,-101.209 630.5,-98 623.495,-97.0522 616.128,-95.7301 608.972,-94.2665"/>
<polygon fill="midnightblue" stroke="midnightblue" points="609.219,-90.7391 598.705,-92.048 607.74,-97.5812 609.219,-90.7391"/>
</g>
<!-- Node41&#45;&gt;Node17 -->
<g id="edge53" class="edge"><title>Node41&#45;&gt;Node17</title>
<path fill="none" stroke="midnightblue" d="M1585.29,-144.931C1390.37,-134.232 823.111,-102.863 783.5,-98 774.671,-96.9161 765.329,-95.4399 756.311,-93.8425"/>
<polygon fill="midnightblue" stroke="midnightblue" points="756.781,-90.3702 746.313,-92.0019 755.514,-97.2546 756.781,-90.3702"/>
</g>
<!-- Node41&#45;&gt;Node24 -->
<g id="edge48" class="edge"><title>Node41&#45;&gt;Node24</title>
<path fill="none" stroke="midnightblue" d="M1585.34,-144.235C1422.63,-133.527 1007.03,-105.811 944.5,-98 935.339,-96.8556 925.641,-95.365 916.262,-93.7758"/>
<polygon fill="midnightblue" stroke="midnightblue" points="916.703,-90.2999 906.249,-92.0245 915.496,-97.1952 916.703,-90.2999"/>
</g>
<!-- Node41&#45;&gt;Node27 -->
<g id="edge42" class="edge"><title>Node41&#45;&gt;Node27</title>
<path fill="none" stroke="midnightblue" d="M1585.43,-143.521C1442.79,-132.521 1111.2,-106.452 1060.5,-98 1054.66,-97.0269 1048.55,-95.768 1042.57,-94.3989"/>
<polygon fill="midnightblue" stroke="midnightblue" points="1043.25,-90.9632 1032.71,-92.0218 1041.61,-97.7682 1043.25,-90.9632"/>
</g>
<!-- Node41&#45;&gt;Node28 -->
<g id="edge46" class="edge"><title>Node41&#45;&gt;Node28</title>
<path fill="none" stroke="midnightblue" d="M1585.44,-142.502C1475.69,-132.213 1258.31,-111.046 1182.5,-98 1176.52,-96.971 1170.25,-95.7028 1164.11,-94.3483"/>
<polygon fill="midnightblue" stroke="midnightblue" points="1164.48,-90.8428 1153.95,-92.0142 1162.91,-97.665 1164.48,-90.8428"/>
</g>
<!-- Node41&#45;&gt;Node29 -->
<g id="edge43" class="edge"><title>Node41&#45;&gt;Node29</title>
<path fill="none" stroke="midnightblue" d="M1585.39,-140.094C1498.56,-128.737 1349.55,-108.686 1295.5,-98 1290.31,-96.9741 1284.89,-95.7698 1279.54,-94.5012"/>
<polygon fill="midnightblue" stroke="midnightblue" points="1279.97,-91.0028 1269.42,-92.0124 1278.3,-97.8002 1279.97,-91.0028"/>
</g>
<!-- Node41&#45;&gt;Node30 -->
<g id="edge44" class="edge"><title>Node41&#45;&gt;Node30</title>
<path fill="none" stroke="midnightblue" d="M1611.76,-139.979C1566.39,-129.985 1488.96,-112.89 1422.5,-98 1417.15,-96.8014 1411.55,-95.5411 1405.98,-94.2845"/>
<polygon fill="midnightblue" stroke="midnightblue" points="1406.58,-90.8321 1396.06,-92.041 1405.04,-97.6599 1406.58,-90.8321"/>
</g>
<!-- Node41&#45;&gt;Node32 -->
<g id="edge47" class="edge"><title>Node41&#45;&gt;Node32</title>
<path fill="none" stroke="midnightblue" d="M1687.03,-139.969C1726.59,-130.653 1791.83,-115.079 1856.96,-98.3601"/>
<polygon fill="midnightblue" stroke="midnightblue" points="1858.18,-101.661 1866.99,-95.7769 1856.43,-94.8824 1858.18,-101.661"/>
</g>
<!-- Node41&#45;&gt;Node34 -->
<g id="edge52" class="edge"><title>Node41&#45;&gt;Node34</title>
<path fill="none" stroke="midnightblue" d="M1709.29,-139.993C1772.68,-130.606 1876.48,-114.615 1965.5,-98 1971.81,-96.8227 1978.43,-95.5091 1984.96,-94.1667"/>
<polygon fill="midnightblue" stroke="midnightblue" points="1986.02,-97.521 1995.09,-92.0487 1984.58,-90.6691 1986.02,-97.521"/>
</g>
<!-- Node41&#45;&gt;Node36 -->
<g id="edge45" class="edge"><title>Node41&#45;&gt;Node36</title>
<path fill="none" stroke="midnightblue" d="M1715.83,-141.87C1822.54,-130.929 2029.62,-109.191 2102.5,-98 2110.23,-96.8124 2118.39,-95.3889 2126.35,-93.9046"/>
<polygon fill="midnightblue" stroke="midnightblue" points="2127.12,-97.3216 2136.28,-92.005 2125.8,-90.4462 2127.12,-97.3216"/>
</g>
<!-- Node41&#45;&gt;Node37 -->
<g id="edge49" class="edge"><title>Node41&#45;&gt;Node37</title>
<path fill="none" stroke="midnightblue" d="M1715.57,-143.55C1860.01,-132.487 2198.73,-106.094 2250.5,-98 2256.9,-96.9988 2263.62,-95.7114 2270.19,-94.3179"/>
<polygon fill="midnightblue" stroke="midnightblue" points="2271.32,-97.6529 2280.32,-92.0667 2269.8,-90.8196 2271.32,-97.6529"/>
</g>
<!-- Node42 -->
<g id="node42" class="node"><title>Node42</title>
<g id="a_node42"><a xlink:title=" ">
<polygon fill="white" stroke="#bfbfbf" points="1431.5,-73 1431.5,-92 1567.5,-92 1567.5,-73 1431.5,-73"/>
<text text-anchor="middle" x="1499.5" y="-80" font-family="Helvetica,sans-Serif" font-size="10.00">ti/common/mmwave_error.h</text>
</a>
</g>
</g>
<!-- Node41&#45;&gt;Node42 -->
<g id="edge41" class="edge"><title>Node41&#45;&gt;Node42</title>
<path fill="none" stroke="midnightblue" d="M1630.45,-139.869C1604.5,-128.699 1559.08,-109.147 1529.14,-96.2602"/>
<polygon fill="midnightblue" stroke="midnightblue" points="1530.2,-92.9063 1519.63,-92.1672 1527.44,-99.3359 1530.2,-92.9063"/>
</g>
<!-- Node43 -->
<g id="node43" class="node"><title>Node43</title>
<g id="a_node43"><a xlink:title=" ">
<polygon fill="white" stroke="#bfbfbf" points="1585.5,-73 1585.5,-92 1715.5,-92 1715.5,-73 1585.5,-73"/>
<text text-anchor="middle" x="1650.5" y="-80" font-family="Helvetica,sans-Serif" font-size="10.00">ti/drivers/adcbuf/ADCBuf.h</text>
</a>
</g>
</g>
<!-- Node41&#45;&gt;Node43 -->
<g id="edge50" class="edge"><title>Node41&#45;&gt;Node43</title>
<path fill="none" stroke="midnightblue" d="M1650.5,-139.734C1650.5,-130.183 1650.5,-114.618 1650.5,-102.283"/>
<polygon fill="midnightblue" stroke="midnightblue" points="1654,-102.127 1650.5,-92.1273 1647,-102.127 1654,-102.127"/>
</g>
<!-- Node44 -->
<g id="node44" class="node"><title>Node44</title>
<g id="a_node44"><a xlink:title=" ">
<polygon fill="white" stroke="#bfbfbf" points="1734,-73 1734,-92 1849,-92 1849,-73 1734,-73"/>
<text text-anchor="middle" x="1791.5" y="-80" font-family="Helvetica,sans-Serif" font-size="10.00">ti/drivers/edma/edma.h</text>
</a>
</g>
</g>
<!-- Node41&#45;&gt;Node44 -->
<g id="edge51" class="edge"><title>Node41&#45;&gt;Node44</title>
<path fill="none" stroke="midnightblue" d="M1669.22,-139.869C1693.35,-128.748 1735.5,-109.317 1763.45,-96.4286"/>
<polygon fill="midnightblue" stroke="midnightblue" points="1765.08,-99.5323 1772.7,-92.1672 1762.15,-93.1752 1765.08,-99.5323"/>
</g>
<!-- Node41&#45;&gt;Node45 -->
<g id="edge55" class="edge"><title>Node41&#45;&gt;Node45</title>
<path fill="none" stroke="midnightblue" d="M1715.63,-144.281C1887.81,-133.086 2344.15,-103.128 2376.5,-98 2382.41,-97.0631 2388.6,-95.8126 2394.64,-94.4375"/>
<polygon fill="midnightblue" stroke="midnightblue" points="2395.7,-97.7833 2404.6,-92.0388 2394.06,-90.9779 2395.7,-97.7833"/>
</g>
<!-- Node45&#45;&gt;Node26 -->
<g id="edge57" class="edge"><title>Node45&#45;&gt;Node26</title>
<path fill="none" stroke="midnightblue" d="M2449.74,-72.7338C2468.72,-61.8182 2501.35,-43.0487 2523.65,-30.2209"/>
<polygon fill="midnightblue" stroke="midnightblue" points="2525.58,-33.1474 2532.5,-25.1273 2522.09,-27.0796 2525.58,-33.1474"/>
</g>
<!-- Node46 -->
<g id="node46" class="node"><title>Node46</title>
<g id="a_node46"><a xlink:href="device__cfg_8h.html" target="_top" xlink:title="This file holds constants related to the system chirp configuration as well as the calling the profil...">
<polygon fill="white" stroke="black" points="2247.5,-6 2247.5,-25 2317.5,-25 2317.5,-6 2247.5,-6"/>
<text text-anchor="middle" x="2282.5" y="-13" font-family="Helvetica,sans-Serif" font-size="10.00">device_cfg.h</text>
</a>
</g>
</g>
<!-- Node45&#45;&gt;Node46 -->
<g id="edge56" class="edge"><title>Node45&#45;&gt;Node46</title>
<path fill="none" stroke="midnightblue" d="M2414.32,-72.8685C2388.2,-61.699 2342.47,-42.1468 2312.34,-29.2602"/>
<polygon fill="midnightblue" stroke="midnightblue" points="2313.34,-25.881 2302.77,-25.1672 2310.59,-32.3173 2313.34,-25.881"/>
</g>
<!-- Node47 -->
<g id="node47" class="node"><title>Node47</title>
<g id="a_node47"><a xlink:href="config__chirp__design___u_s_r_r30_8h.html" target="_top" xlink:title=" ">
<polygon fill="white" stroke="black" points="2335.5,-0.5 2335.5,-30.5 2463.5,-30.5 2463.5,-0.5 2335.5,-0.5"/>
<text text-anchor="start" x="2343.5" y="-18.5" font-family="Helvetica,sans-Serif" font-size="10.00">common/profiles/config</text>
<text text-anchor="middle" x="2399.5" y="-7.5" font-family="Helvetica,sans-Serif" font-size="10.00">_chirp_design_USRR30.h</text>
</a>
</g>
</g>
<!-- Node45&#45;&gt;Node47 -->
<g id="edge58" class="edge"><title>Node45&#45;&gt;Node47</title>
<path fill="none" stroke="midnightblue" d="M2429.78,-72.7338C2425.23,-64.2872 2418.15,-51.1378 2411.98,-39.6778"/>
<polygon fill="midnightblue" stroke="midnightblue" points="2414.91,-37.7344 2407.09,-30.589 2408.75,-41.0531 2414.91,-37.7344"/>
</g>
</g>
</svg>
