<?xml version="1.0" encoding="UTF-8" standalone="no"?>
<!DOCTYPE svg PUBLIC "-//W3C//DTD SVG 1.1//EN"
 "http://www.w3.org/Graphics/SVG/1.1/DTD/svg11.dtd">
<!-- Generated by graphviz version 2.38.0 (20140413.2041)
 -->
<!-- Title: ti_sysbios_hal_Hwi_HwiProxy_Params__init__S Pages: 1 -->
<svg width="306pt" height="50pt"
 viewBox="0.00 0.00 306.00 50.00" xmlns="http://www.w3.org/2000/svg" xmlns:xlink="http://www.w3.org/1999/xlink">
<g id="graph0" class="graph" transform="scale(1 1) rotate(0) translate(4 46)">
<title>ti_sysbios_hal_Hwi_HwiProxy_Params__init__S</title>
<polygon fill="white" stroke="none" points="-4,4 -4,-46 302,-46 302,4 -4,4"/>
<!-- Node1 -->
<g id="node1" class="node"><title>Node1</title>
<g id="a_node1"><a xlink:title=" ">
<polygon fill="#bfbfbf" stroke="black" points="0,-6 0,-36 143,-36 143,-6 0,-6"/>
<text text-anchor="start" x="8" y="-24" font-family="Helvetica,sans-Serif" font-size="10.00">ti_sysbios_hal_Hwi</text>
<text text-anchor="middle" x="71.5" y="-13" font-family="Helvetica,sans-Serif" font-size="10.00">_HwiProxy_Params__init__S</text>
</a>
</g>
</g>
<!-- Node2 -->
<g id="node2" class="node"><title>Node2</title>
<g id="a_node2"><a xlink:href="mss__per4f_8c.html#a6dfcb2bcd430e1c5822c14c8ccfbe2fa" target="_top" xlink:title=" ">
<polygon fill="white" stroke="black" points="179,-0.5 179,-41.5 298,-41.5 298,-0.5 179,-0.5"/>
<text text-anchor="start" x="187" y="-29.5" font-family="Helvetica,sans-Serif" font-size="10.00">ti_sysbios_family_arm</text>
<text text-anchor="start" x="187" y="-18.5" font-family="Helvetica,sans-Serif" font-size="10.00">_v7r_vim_Hwi_Params_</text>
<text text-anchor="middle" x="238.5" y="-7.5" font-family="Helvetica,sans-Serif" font-size="10.00">_init__S</text>
</a>
</g>
</g>
<!-- Node1&#45;&gt;Node2 -->
<g id="edge1" class="edge"><title>Node1&#45;&gt;Node2</title>
<path fill="none" stroke="midnightblue" d="M143.432,-21C151.816,-21 160.361,-21 168.714,-21"/>
<polygon fill="midnightblue" stroke="midnightblue" points="168.783,-24.5001 178.783,-21 168.783,-17.5001 168.783,-24.5001"/>
</g>
</g>
</svg>
