<?xml version="1.0" encoding="UTF-8" standalone="no"?>
<!DOCTYPE svg PUBLIC "-//W3C//DTD SVG 1.1//EN"
 "http://www.w3.org/Graphics/SVG/1.1/DTD/svg11.dtd">
<!-- Generated by graphviz version 2.38.0 (20140413.2041)
 -->
<!-- Title: MSS_CLIInit Pages: 1 -->
<svg width="257pt" height="142pt"
 viewBox="0.00 0.00 257.00 142.00" xmlns="http://www.w3.org/2000/svg" xmlns:xlink="http://www.w3.org/1999/xlink">
<g id="graph0" class="graph" transform="scale(1 1) rotate(0) translate(4 138)">
<title>MSS_CLIInit</title>
<polygon fill="white" stroke="none" points="-4,4 -4,-138 253,-138 253,4 -4,4"/>
<!-- Node1 -->
<g id="node1" class="node"><title>Node1</title>
<g id="a_node1"><a xlink:title="This is the CLI Execution Task.">
<polygon fill="#bfbfbf" stroke="black" points="0,-57.5 0,-76.5 71,-76.5 71,-57.5 0,-57.5"/>
<text text-anchor="middle" x="35.5" y="-64.5" font-family="Helvetica,sans-Serif" font-size="10.00">MSS_CLIInit</text>
</a>
</g>
</g>
<!-- Node2 -->
<g id="node2" class="node"><title>Node2</title>
<g id="a_node2"><a xlink:href="mss__mrr__cli_8c.html#a8014abc639fc64829b5605d6325a2dcd" target="_top" xlink:title="This is the CLI Handler for advanced frame configuration.">
<polygon fill="white" stroke="black" points="107,-114.5 107,-133.5 249,-133.5 249,-114.5 107,-114.5"/>
<text text-anchor="middle" x="178" y="-121.5" font-family="Helvetica,sans-Serif" font-size="10.00">MSS_CLIAdvancedFrameCfg</text>
</a>
</g>
</g>
<!-- Node1&#45;&gt;Node2 -->
<g id="edge1" class="edge"><title>Node1&#45;&gt;Node2</title>
<path fill="none" stroke="midnightblue" d="M51.6859,-76.5107C65.6397,-84.9243 87.1124,-97.0635 107,-105 112.987,-107.389 119.378,-109.582 125.773,-111.563"/>
<polygon fill="midnightblue" stroke="midnightblue" points="125.185,-115.038 135.766,-114.497 127.157,-108.322 125.185,-115.038"/>
</g>
<!-- Node3 -->
<g id="node3" class="node"><title>Node3</title>
<g id="a_node3"><a xlink:href="mss__mrr__cli_8c.html#a48799441879815863aaf4f9de037da00" target="_top" xlink:title="This is the CLI Handler for basic configuration.">
<polygon fill="white" stroke="black" points="129.5,-76.5 129.5,-95.5 226.5,-95.5 226.5,-76.5 129.5,-76.5"/>
<text text-anchor="middle" x="178" y="-83.5" font-family="Helvetica,sans-Serif" font-size="10.00">MSS_CLIBasicCfg</text>
</a>
</g>
</g>
<!-- Node1&#45;&gt;Node3 -->
<g id="edge2" class="edge"><title>Node1&#45;&gt;Node3</title>
<path fill="none" stroke="midnightblue" d="M71.2303,-71.6966C85.7661,-73.6623 103.055,-76.0003 119.399,-78.2106"/>
<polygon fill="midnightblue" stroke="midnightblue" points="119.042,-81.694 129.421,-79.5658 119.98,-74.7572 119.042,-81.694"/>
</g>
<!-- Node4 -->
<g id="node4" class="node"><title>Node4</title>
<g id="a_node4"><a xlink:href="mss__mrr__cli_8c.html#a7c1fc530652ea2ceccb01e6b332eda43" target="_top" xlink:title="This is the CLI Handler for starting the sensor.">
<polygon fill="white" stroke="black" points="123,-38.5 123,-57.5 233,-57.5 233,-38.5 123,-38.5"/>
<text text-anchor="middle" x="178" y="-45.5" font-family="Helvetica,sans-Serif" font-size="10.00">MSS_CLISensorStart</text>
</a>
</g>
</g>
<!-- Node1&#45;&gt;Node4 -->
<g id="edge3" class="edge"><title>Node1&#45;&gt;Node4</title>
<path fill="none" stroke="midnightblue" d="M71.2303,-62.3034C83.7853,-60.6055 98.3943,-58.63 112.674,-56.6988"/>
<polygon fill="midnightblue" stroke="midnightblue" points="113.54,-60.1138 122.98,-55.3051 112.602,-53.1769 113.54,-60.1138"/>
</g>
<!-- Node5 -->
<g id="node5" class="node"><title>Node5</title>
<g id="a_node5"><a xlink:href="mss__mrr__cli_8c.html#afc0b15057f21e8a704adaded5b30373a" target="_top" xlink:title="This is the CLI Handler for stopping the sensor.">
<polygon fill="white" stroke="black" points="123.5,-0.5 123.5,-19.5 232.5,-19.5 232.5,-0.5 123.5,-0.5"/>
<text text-anchor="middle" x="178" y="-7.5" font-family="Helvetica,sans-Serif" font-size="10.00">MSS_CLISensorStop</text>
</a>
</g>
</g>
<!-- Node1&#45;&gt;Node5 -->
<g id="edge4" class="edge"><title>Node1&#45;&gt;Node5</title>
<path fill="none" stroke="midnightblue" d="M51.6859,-57.4893C65.6397,-49.0757 87.1124,-36.9365 107,-29 112.987,-26.6109 119.378,-24.4176 125.773,-22.4373"/>
<polygon fill="midnightblue" stroke="midnightblue" points="127.157,-25.6785 135.766,-19.5031 125.185,-18.962 127.157,-25.6785"/>
</g>
</g>
</svg>
