<?xml version="1.0" encoding="UTF-8" standalone="no"?>
<!DOCTYPE svg PUBLIC "-//W3C//DTD SVG 1.1//EN"
 "http://www.w3.org/Graphics/SVG/1.1/DTD/svg11.dtd">
<!-- Generated by graphviz version 2.38.0 (20140413.2041)
 -->
<!-- Title: realloc Pages: 1 -->
<svg width="296pt" height="72pt"
 viewBox="0.00 0.00 296.00 71.50" xmlns="http://www.w3.org/2000/svg" xmlns:xlink="http://www.w3.org/1999/xlink">
<g id="graph0" class="graph" transform="scale(1 1) rotate(0) translate(4 67.5)">
<title>realloc</title>
<polygon fill="white" stroke="none" points="-4,4 -4,-67.5 292,-67.5 292,4 -4,4"/>
<!-- Node1 -->
<g id="node1" class="node"><title>Node1</title>
<g id="a_node1"><a xlink:title=" ">
<polygon fill="#bfbfbf" stroke="black" points="0,-25 0,-44 45,-44 45,-25 0,-25"/>
<text text-anchor="middle" x="22.5" y="-32" font-family="Helvetica,sans-Serif" font-size="10.00">realloc</text>
</a>
</g>
</g>
<!-- Node2 -->
<g id="node2" class="node"><title>Node2</title>
<g id="a_node2"><a xlink:href="mss__mrr__per4f_8c.html#a0bfc06df0d2bce368449008766dba9f2" target="_top" xlink:title=" ">
<polygon fill="white" stroke="black" points="87.5,-44 87.5,-63 119.5,-63 119.5,-44 87.5,-44"/>
<text text-anchor="middle" x="103.5" y="-51" font-family="Helvetica,sans-Serif" font-size="10.00">free</text>
</a>
</g>
</g>
<!-- Node1&#45;&gt;Node2 -->
<g id="edge1" class="edge"><title>Node1&#45;&gt;Node2</title>
<path fill="none" stroke="midnightblue" d="M45.0871,-39.6918C55.092,-42.0981 67.0421,-44.9721 77.4429,-47.4736"/>
<polygon fill="midnightblue" stroke="midnightblue" points="76.6566,-50.8842 87.1978,-49.8197 78.2935,-44.0783 76.6566,-50.8842"/>
</g>
<!-- Node3 -->
<g id="node3" class="node"><title>Node3</title>
<g id="a_node3"><a xlink:href="mss__mrr__per4f_8c.html#a7eb63a8643e6c8cf8876a44f96e96008" target="_top" xlink:title=" ">
<polygon fill="white" stroke="black" points="81,-6 81,-25 126,-25 126,-6 81,-6"/>
<text text-anchor="middle" x="103.5" y="-13" font-family="Helvetica,sans-Serif" font-size="10.00">malloc</text>
</a>
</g>
</g>
<!-- Node1&#45;&gt;Node3 -->
<g id="edge2" class="edge"><title>Node1&#45;&gt;Node3</title>
<path fill="none" stroke="midnightblue" d="M45.0871,-29.3082C53.099,-27.3813 62.3583,-25.1543 71.0705,-23.059"/>
<polygon fill="midnightblue" stroke="midnightblue" points="72.0347,-26.427 80.939,-20.6856 70.3978,-19.6211 72.0347,-26.427"/>
</g>
<!-- Node4 -->
<g id="node4" class="node"><title>Node4</title>
<g id="a_node4"><a xlink:href="mss__mrr__per4f_8c.html#ada11ebf286c23107f25e5752137918b8" target="_top" xlink:title=" ">
<polygon fill="white" stroke="black" points="162,-0.5 162,-30.5 288,-30.5 288,-0.5 162,-0.5"/>
<text text-anchor="start" x="170" y="-18.5" font-family="Helvetica,sans-Serif" font-size="10.00">ti_sysbios_rts_MemAlloc</text>
<text text-anchor="middle" x="225" y="-7.5" font-family="Helvetica,sans-Serif" font-size="10.00">_alloc</text>
</a>
</g>
</g>
<!-- Node3&#45;&gt;Node4 -->
<g id="edge3" class="edge"><title>Node3&#45;&gt;Node4</title>
<path fill="none" stroke="midnightblue" d="M126.141,-15.5C133.599,-15.5 142.417,-15.5 151.656,-15.5"/>
<polygon fill="midnightblue" stroke="midnightblue" points="151.802,-19.0001 161.802,-15.5 151.802,-12.0001 151.802,-19.0001"/>
</g>
</g>
</svg>
