<?xml version="1.0" encoding="UTF-8" standalone="no"?>
<!DOCTYPE svg PUBLIC "-//W3C//DTD SVG 1.1//EN"
 "http://www.w3.org/Graphics/SVG/1.1/DTD/svg11.dtd">
<!-- Generated by graphviz version 2.38.0 (20140413.2041)
 -->
<!-- Title: Debug/configPkg/package/cfg/mss_per4f.c Pages: 1 -->
<svg width="5305pt" height="106pt"
 viewBox="0.00 0.00 5305.00 106.00" xmlns="http://www.w3.org/2000/svg" xmlns:xlink="http://www.w3.org/1999/xlink">
<g id="graph0" class="graph" transform="scale(1 1) rotate(0) translate(4 102)">
<title>Debug/configPkg/package/cfg/mss_per4f.c</title>
<polygon fill="white" stroke="none" points="-4,4 -4,-102 5301,-102 5301,4 -4,4"/>
<!-- Node1 -->
<g id="node1" class="node"><title>Node1</title>
<g id="a_node1"><a xlink:title=" ">
<polygon fill="#bfbfbf" stroke="black" points="2756.5,-67.5 2756.5,-97.5 2886.5,-97.5 2886.5,-67.5 2756.5,-67.5"/>
<text text-anchor="start" x="2764.5" y="-85.5" font-family="Helvetica,sans-Serif" font-size="10.00">Debug/configPkg/package</text>
<text text-anchor="middle" x="2821.5" y="-74.5" font-family="Helvetica,sans-Serif" font-size="10.00">/cfg/mss_per4f.c</text>
</a>
</g>
</g>
<!-- Node2 -->
<g id="node2" class="node"><title>Node2</title>
<g id="a_node2"><a xlink:title=" ">
<polygon fill="white" stroke="#bfbfbf" points="0,-6 0,-25 57,-25 57,-6 0,-6"/>
<text text-anchor="middle" x="28.5" y="-13" font-family="Helvetica,sans-Serif" font-size="10.00">xdc/std.h</text>
</a>
</g>
</g>
<!-- Node1&#45;&gt;Node2 -->
<g id="edge1" class="edge"><title>Node1&#45;&gt;Node2</title>
<path fill="none" stroke="midnightblue" d="M2756.49,-81.6861C2365.74,-82.6219 336.798,-84.8403 65.5,-31 62.4188,-30.3885 59.2632,-29.5359 56.1571,-28.5472"/>
<polygon fill="midnightblue" stroke="midnightblue" points="57.1497,-25.1839 46.5556,-25.0541 54.7564,-31.7621 57.1497,-25.1839"/>
</g>
<!-- Node3 -->
<g id="node3" class="node"><title>Node3</title>
<g id="a_node3"><a xlink:title=" ">
<polygon fill="white" stroke="#bfbfbf" points="75,-6 75,-25 168,-25 168,-6 75,-6"/>
<text text-anchor="middle" x="121.5" y="-13" font-family="Helvetica,sans-Serif" font-size="10.00">ti/sysbios/BIOS.h</text>
</a>
</g>
</g>
<!-- Node1&#45;&gt;Node3 -->
<g id="edge2" class="edge"><title>Node1&#45;&gt;Node3</title>
<path fill="none" stroke="midnightblue" d="M2756.42,-81.1869C2375.13,-79.2288 438.773,-67.5404 176.5,-31 170.61,-30.1794 164.448,-28.9426 158.468,-27.5307"/>
<polygon fill="midnightblue" stroke="midnightblue" points="159.209,-24.1079 148.655,-25.032 157.482,-30.8914 159.209,-24.1079"/>
</g>
<!-- Node4 -->
<g id="node4" class="node"><title>Node4</title>
<g id="a_node4"><a xlink:title=" ">
<polygon fill="white" stroke="#bfbfbf" points="186,-0.5 186,-30.5 293,-30.5 293,-0.5 186,-0.5"/>
<text text-anchor="start" x="194" y="-18.5" font-family="Helvetica,sans-Serif" font-size="10.00">ti/sysbios/family/arm</text>
<text text-anchor="middle" x="239.5" y="-7.5" font-family="Helvetica,sans-Serif" font-size="10.00">/IntrinsicsSupport.h</text>
</a>
</g>
</g>
<!-- Node1&#45;&gt;Node4 -->
<g id="edge3" class="edge"><title>Node1&#45;&gt;Node4</title>
<path fill="none" stroke="midnightblue" d="M2756.22,-81.0106C2389.86,-78.1562 595.649,-62.7172 303.289,-30.9563"/>
<polygon fill="midnightblue" stroke="midnightblue" points="303.482,-27.4551 293.144,-29.7713 302.67,-34.4079 303.482,-27.4551"/>
</g>
<!-- Node5 -->
<g id="node5" class="node"><title>Node5</title>
<g id="a_node5"><a xlink:title=" ">
<polygon fill="white" stroke="#bfbfbf" points="311,-0.5 311,-30.5 418,-30.5 418,-0.5 311,-0.5"/>
<text text-anchor="start" x="319" y="-18.5" font-family="Helvetica,sans-Serif" font-size="10.00">ti/sysbios/family/arm</text>
<text text-anchor="middle" x="364.5" y="-7.5" font-family="Helvetica,sans-Serif" font-size="10.00">/TaskSupport.h</text>
</a>
</g>
</g>
<!-- Node1&#45;&gt;Node5 -->
<g id="edge4" class="edge"><title>Node1&#45;&gt;Node5</title>
<path fill="none" stroke="midnightblue" d="M2756.26,-80.9377C2401.12,-77.7692 706.781,-61.2419 428.183,-30.9434"/>
<polygon fill="midnightblue" stroke="midnightblue" points="428.483,-27.4547 418.144,-29.7678 427.669,-34.4072 428.483,-27.4547"/>
</g>
<!-- Node6 -->
<g id="node6" class="node"><title>Node6</title>
<g id="a_node6"><a xlink:title=" ">
<polygon fill="white" stroke="#bfbfbf" points="436,-0.5 436,-30.5 543,-30.5 543,-0.5 436,-0.5"/>
<text text-anchor="start" x="444" y="-18.5" font-family="Helvetica,sans-Serif" font-size="10.00">ti/sysbios/family/arm</text>
<text text-anchor="middle" x="489.5" y="-7.5" font-family="Helvetica,sans-Serif" font-size="10.00">/exc/Exception.h</text>
</a>
</g>
</g>
<!-- Node1&#45;&gt;Node6 -->
<g id="edge5" class="edge"><title>Node1&#45;&gt;Node6</title>
<path fill="none" stroke="midnightblue" d="M2756.28,-80.8565C2412.76,-77.3609 819.314,-59.7864 553.429,-30.9687"/>
<polygon fill="midnightblue" stroke="midnightblue" points="553.484,-27.4513 543.145,-29.7639 552.669,-34.4037 553.484,-27.4513"/>
</g>
<!-- Node7 -->
<g id="node7" class="node"><title>Node7</title>
<g id="a_node7"><a xlink:title=" ">
<polygon fill="white" stroke="#bfbfbf" points="561,-0.5 561,-30.5 668,-30.5 668,-0.5 561,-0.5"/>
<text text-anchor="start" x="569" y="-18.5" font-family="Helvetica,sans-Serif" font-size="10.00">ti/sysbios/family/arm</text>
<text text-anchor="middle" x="614.5" y="-7.5" font-family="Helvetica,sans-Serif" font-size="10.00">/v7r/tms570/Core.h</text>
</a>
</g>
</g>
<!-- Node1&#45;&gt;Node7 -->
<g id="edge6" class="edge"><title>Node1&#45;&gt;Node7</title>
<path fill="none" stroke="midnightblue" d="M2756.46,-81.7749C2446.29,-82.8118 1114.74,-84.0991 678.288,-31.0234"/>
<polygon fill="midnightblue" stroke="midnightblue" points="678.501,-27.5231 668.145,-29.7596 677.636,-34.4694 678.501,-27.5231"/>
</g>
<!-- Node8 -->
<g id="node8" class="node"><title>Node8</title>
<g id="a_node8"><a xlink:title=" ">
<polygon fill="white" stroke="#bfbfbf" points="686,-0.5 686,-30.5 793,-30.5 793,-0.5 686,-0.5"/>
<text text-anchor="start" x="694" y="-18.5" font-family="Helvetica,sans-Serif" font-size="10.00">ti/sysbios/family/arm</text>
<text text-anchor="middle" x="739.5" y="-7.5" font-family="Helvetica,sans-Serif" font-size="10.00">/v7r/vim/Hwi.h</text>
</a>
</g>
</g>
<!-- Node1&#45;&gt;Node8 -->
<g id="edge7" class="edge"><title>Node1&#45;&gt;Node8</title>
<path fill="none" stroke="midnightblue" d="M2756.32,-81.6327C2457.31,-81.9732 1214.4,-80.4043 803.471,-30.8922"/>
<polygon fill="midnightblue" stroke="midnightblue" points="803.682,-27.3917 793.328,-29.6388 802.824,-34.3389 803.682,-27.3917"/>
</g>
<!-- Node9 -->
<g id="node9" class="node"><title>Node9</title>
<g id="a_node9"><a xlink:title=" ">
<polygon fill="white" stroke="#bfbfbf" points="811.5,-6 811.5,-25 945.5,-25 945.5,-6 811.5,-6"/>
<text text-anchor="middle" x="878.5" y="-13" font-family="Helvetica,sans-Serif" font-size="10.00">ti/sysbios/gates/GateHwi.h</text>
</a>
</g>
</g>
<!-- Node1&#45;&gt;Node9 -->
<g id="edge8" class="edge"><title>Node1&#45;&gt;Node9</title>
<path fill="none" stroke="midnightblue" d="M2756.29,-81.1496C2469.02,-79.3888 1314.75,-69.9796 954.5,-31 945.379,-30.0131 935.716,-28.5208 926.449,-26.8629"/>
<polygon fill="midnightblue" stroke="midnightblue" points="927.066,-23.4178 916.592,-25.0151 925.776,-30.2979 927.066,-23.4178"/>
</g>
<!-- Node10 -->
<g id="node10" class="node"><title>Node10</title>
<g id="a_node10"><a xlink:title=" ">
<polygon fill="white" stroke="#bfbfbf" points="964,-6 964,-25 1109,-25 1109,-6 964,-6"/>
<text text-anchor="middle" x="1036.5" y="-13" font-family="Helvetica,sans-Serif" font-size="10.00">ti/sysbios/gates/GateMutex.h</text>
</a>
</g>
</g>
<!-- Node1&#45;&gt;Node10 -->
<g id="edge9" class="edge"><title>Node1&#45;&gt;Node10</title>
<path fill="none" stroke="midnightblue" d="M2756.15,-80.8534C2484.56,-77.9673 1444.08,-64.8833 1117.5,-31 1107.8,-29.9933 1097.51,-28.4921 1087.64,-26.8318"/>
<polygon fill="midnightblue" stroke="midnightblue" points="1087.99,-23.3414 1077.54,-25.058 1086.78,-30.2358 1087.99,-23.3414"/>
</g>
<!-- Node11 -->
<g id="node11" class="node"><title>Node11</title>
<g id="a_node11"><a xlink:title=" ">
<polygon fill="white" stroke="#bfbfbf" points="1127,-6 1127,-25 1240,-25 1240,-6 1127,-6"/>
<text text-anchor="middle" x="1183.5" y="-13" font-family="Helvetica,sans-Serif" font-size="10.00">ti/sysbios/hal/Cache.h</text>
</a>
</g>
</g>
<!-- Node1&#45;&gt;Node11 -->
<g id="edge10" class="edge"><title>Node1&#45;&gt;Node11</title>
<path fill="none" stroke="midnightblue" d="M2756.43,-81.0073C2498.6,-78.8074 1548.23,-68.2901 1249.5,-31 1241.97,-30.0603 1234.04,-28.6702 1226.38,-27.1172"/>
<polygon fill="midnightblue" stroke="midnightblue" points="1227.04,-23.6798 1216.53,-25.0058 1225.57,-30.5243 1227.04,-23.6798"/>
</g>
<!-- Node12 -->
<g id="node12" class="node"><title>Node12</title>
<g id="a_node12"><a xlink:title=" ">
<polygon fill="white" stroke="#bfbfbf" points="1258.5,-6 1258.5,-25 1388.5,-25 1388.5,-6 1258.5,-6"/>
<text text-anchor="middle" x="1323.5" y="-13" font-family="Helvetica,sans-Serif" font-size="10.00">ti/sysbios/hal/CacheNull.h</text>
</a>
</g>
</g>
<!-- Node1&#45;&gt;Node12 -->
<g id="edge11" class="edge"><title>Node1&#45;&gt;Node12</title>
<path fill="none" stroke="midnightblue" d="M2756.48,-80.5602C2514.5,-76.8496 1666.14,-61.8872 1397.5,-31 1388.9,-30.0112 1379.81,-28.5658 1371.05,-26.9656"/>
<polygon fill="midnightblue" stroke="midnightblue" points="1371.45,-23.4787 1360.97,-25.0342 1370.13,-30.3537 1371.45,-23.4787"/>
</g>
<!-- Node13 -->
<g id="node13" class="node"><title>Node13</title>
<g id="a_node13"><a xlink:title=" ">
<polygon fill="white" stroke="#bfbfbf" points="1406.5,-6 1406.5,-25 1512.5,-25 1512.5,-6 1406.5,-6"/>
<text text-anchor="middle" x="1459.5" y="-13" font-family="Helvetica,sans-Serif" font-size="10.00">ti/sysbios/hal/Core.h</text>
</a>
</g>
</g>
<!-- Node1&#45;&gt;Node13 -->
<g id="edge12" class="edge"><title>Node1&#45;&gt;Node13</title>
<path fill="none" stroke="midnightblue" d="M2756.3,-80.6138C2527.81,-77.2508 1764.08,-63.7715 1521.5,-31 1514.73,-30.0852 1507.61,-28.7668 1500.71,-27.293"/>
<polygon fill="midnightblue" stroke="midnightblue" points="1501.35,-23.849 1490.82,-25.0516 1499.8,-30.6758 1501.35,-23.849"/>
</g>
<!-- Node14 -->
<g id="node14" class="node"><title>Node14</title>
<g id="a_node14"><a xlink:title=" ">
<polygon fill="white" stroke="#bfbfbf" points="1531,-6 1531,-25 1632,-25 1632,-6 1531,-6"/>
<text text-anchor="middle" x="1581.5" y="-13" font-family="Helvetica,sans-Serif" font-size="10.00">ti/sysbios/hal/Hwi.h</text>
</a>
</g>
</g>
<!-- Node1&#45;&gt;Node14 -->
<g id="edge13" class="edge"><title>Node1&#45;&gt;Node14</title>
<path fill="none" stroke="midnightblue" d="M2756.44,-80.3812C2542.12,-76.434 1859.52,-61.7114 1641.5,-31 1635.09,-30.0975 1628.37,-28.8142 1621.84,-27.3799"/>
<polygon fill="midnightblue" stroke="midnightblue" points="1622.34,-23.902 1611.8,-25.0347 1620.74,-30.7184 1622.34,-23.902"/>
</g>
<!-- Node15 -->
<g id="node15" class="node"><title>Node15</title>
<g id="a_node15"><a xlink:title=" ">
<polygon fill="white" stroke="#bfbfbf" points="1650.5,-6 1650.5,-25 1786.5,-25 1786.5,-6 1650.5,-6"/>
<text text-anchor="middle" x="1718.5" y="-13" font-family="Helvetica,sans-Serif" font-size="10.00">ti/sysbios/heaps/HeapBuf.h</text>
</a>
</g>
</g>
<!-- Node1&#45;&gt;Node15 -->
<g id="edge14" class="edge"><title>Node1&#45;&gt;Node15</title>
<path fill="none" stroke="midnightblue" d="M2756.42,-81.3818C2593.8,-80.4175 2156.8,-73.7064 1795.5,-31 1786.67,-29.9558 1777.32,-28.4991 1768.3,-26.9086"/>
<polygon fill="midnightblue" stroke="midnightblue" points="1768.77,-23.4362 1758.3,-25.0709 1767.51,-30.3209 1768.77,-23.4362"/>
</g>
<!-- Node16 -->
<g id="node16" class="node"><title>Node16</title>
<g id="a_node16"><a xlink:title=" ">
<polygon fill="white" stroke="#bfbfbf" points="1805,-6 1805,-25 1948,-25 1948,-6 1805,-6"/>
<text text-anchor="middle" x="1876.5" y="-13" font-family="Helvetica,sans-Serif" font-size="10.00">ti/sysbios/heaps/HeapMem.h</text>
</a>
</g>
</g>
<!-- Node1&#45;&gt;Node16 -->
<g id="edge15" class="edge"><title>Node1&#45;&gt;Node16</title>
<path fill="none" stroke="midnightblue" d="M2756.24,-80.3289C2611.81,-77.1591 2254.44,-66.1298 1957.5,-31 1948.23,-29.903 1938.41,-28.421 1928.93,-26.8221"/>
<polygon fill="midnightblue" stroke="midnightblue" points="1929.27,-23.3286 1918.82,-25.0539 1928.06,-30.224 1929.27,-23.3286"/>
</g>
<!-- Node17 -->
<g id="node17" class="node"><title>Node17</title>
<g id="a_node17"><a xlink:title=" ">
<polygon fill="white" stroke="#bfbfbf" points="1966.5,-6 1966.5,-25 2076.5,-25 2076.5,-6 1966.5,-6"/>
<text text-anchor="middle" x="2021.5" y="-13" font-family="Helvetica,sans-Serif" font-size="10.00">ti/sysbios/knl/Clock.h</text>
</a>
</g>
</g>
<!-- Node1&#45;&gt;Node17 -->
<g id="edge16" class="edge"><title>Node1&#45;&gt;Node17</title>
<path fill="none" stroke="midnightblue" d="M2756.16,-80.3944C2627.25,-77.4692 2331.34,-67.0631 2085.5,-31 2078.68,-30.0001 2071.52,-28.6636 2064.55,-27.2053"/>
<polygon fill="midnightblue" stroke="midnightblue" points="2065.05,-23.7333 2054.53,-25.0065 2063.55,-30.5703 2065.05,-23.7333"/>
</g>
<!-- Node18 -->
<g id="node18" class="node"><title>Node18</title>
<g id="a_node18"><a xlink:title=" ">
<polygon fill="white" stroke="#bfbfbf" points="2094.5,-6 2094.5,-25 2204.5,-25 2204.5,-6 2094.5,-6"/>
<text text-anchor="middle" x="2149.5" y="-13" font-family="Helvetica,sans-Serif" font-size="10.00">ti/sysbios/knl/Event.h</text>
</a>
</g>
</g>
<!-- Node1&#45;&gt;Node18 -->
<g id="edge17" class="edge"><title>Node1&#45;&gt;Node18</title>
<path fill="none" stroke="midnightblue" d="M2756.36,-79.0821C2644.7,-74.2706 2409.78,-61.2347 2213.5,-31 2206.84,-29.9745 2199.85,-28.6493 2193.02,-27.2174"/>
<polygon fill="midnightblue" stroke="midnightblue" points="2193.73,-23.7887 2183.21,-25.0658 2192.23,-30.6263 2193.73,-23.7887"/>
</g>
<!-- Node19 -->
<g id="node19" class="node"><title>Node19</title>
<g id="a_node19"><a xlink:title=" ">
<polygon fill="white" stroke="#bfbfbf" points="2223,-6 2223,-25 2324,-25 2324,-6 2223,-6"/>
<text text-anchor="middle" x="2273.5" y="-13" font-family="Helvetica,sans-Serif" font-size="10.00">ti/sysbios/knl/Idle.h</text>
</a>
</g>
</g>
<!-- Node1&#45;&gt;Node19 -->
<g id="edge18" class="edge"><title>Node1&#45;&gt;Node19</title>
<path fill="none" stroke="midnightblue" d="M2756.25,-77.6367C2662.12,-71.4143 2483.02,-57.1394 2332.5,-31 2326.71,-29.9941 2320.64,-28.739 2314.69,-27.3907"/>
<polygon fill="midnightblue" stroke="midnightblue" points="2315.41,-23.9625 2304.87,-25.0614 2313.79,-30.7738 2315.41,-23.9625"/>
</g>
<!-- Node20 -->
<g id="node20" class="node"><title>Node20</title>
<g id="a_node20"><a xlink:title=" ">
<polygon fill="white" stroke="#bfbfbf" points="2342,-6 2342,-25 2467,-25 2467,-6 2342,-6"/>
<text text-anchor="middle" x="2404.5" y="-13" font-family="Helvetica,sans-Serif" font-size="10.00">ti/sysbios/knl/Intrinsics.h</text>
</a>
</g>
</g>
<!-- Node1&#45;&gt;Node20 -->
<g id="edge19" class="edge"><title>Node1&#45;&gt;Node20</title>
<path fill="none" stroke="midnightblue" d="M2756.48,-73.036C2687,-63.7459 2573.71,-47.8914 2476.5,-31 2469.42,-29.7694 2461.96,-28.3777 2454.64,-26.9554"/>
<polygon fill="midnightblue" stroke="midnightblue" points="2455.28,-23.514 2444.79,-25.0092 2453.93,-30.3813 2455.28,-23.514"/>
</g>
<!-- Node21 -->
<g id="node21" class="node"><title>Node21</title>
<g id="a_node21"><a xlink:title=" ">
<polygon fill="white" stroke="#bfbfbf" points="2485.5,-6 2485.5,-25 2599.5,-25 2599.5,-6 2485.5,-6"/>
<text text-anchor="middle" x="2542.5" y="-13" font-family="Helvetica,sans-Serif" font-size="10.00">ti/sysbios/knl/Queue.h</text>
</a>
</g>
</g>
<!-- Node1&#45;&gt;Node21 -->
<g id="edge20" class="edge"><title>Node1&#45;&gt;Node21</title>
<path fill="none" stroke="midnightblue" d="M2761.3,-67.476C2709.67,-55.4457 2636.32,-38.3579 2589.07,-27.3493"/>
<polygon fill="midnightblue" stroke="midnightblue" points="2589.64,-23.889 2579.11,-25.0287 2588.05,-30.7064 2589.64,-23.889"/>
</g>
<!-- Node22 -->
<g id="node22" class="node"><title>Node22</title>
<g id="a_node22"><a xlink:title=" ">
<polygon fill="white" stroke="#bfbfbf" points="2618,-6 2618,-25 2753,-25 2753,-6 2618,-6"/>
<text text-anchor="middle" x="2685.5" y="-13" font-family="Helvetica,sans-Serif" font-size="10.00">ti/sysbios/knl/Semaphore.h</text>
</a>
</g>
</g>
<!-- Node1&#45;&gt;Node22 -->
<g id="edge21" class="edge"><title>Node1&#45;&gt;Node22</title>
<path fill="none" stroke="midnightblue" d="M2791.99,-67.396C2768.34,-56.0919 2735.42,-40.3607 2712.47,-29.3903"/>
<polygon fill="midnightblue" stroke="midnightblue" points="2713.83,-26.1614 2703.3,-25.007 2710.81,-32.4771 2713.83,-26.1614"/>
</g>
<!-- Node23 -->
<g id="node23" class="node"><title>Node23</title>
<g id="a_node23"><a xlink:title=" ">
<polygon fill="white" stroke="#bfbfbf" points="2771,-6 2771,-25 2872,-25 2872,-6 2771,-6"/>
<text text-anchor="middle" x="2821.5" y="-13" font-family="Helvetica,sans-Serif" font-size="10.00">ti/sysbios/knl/Swi.h</text>
</a>
</g>
</g>
<!-- Node1&#45;&gt;Node23 -->
<g id="edge22" class="edge"><title>Node1&#45;&gt;Node23</title>
<path fill="none" stroke="midnightblue" d="M2821.5,-67.396C2821.5,-58.0638 2821.5,-45.7143 2821.5,-35.5173"/>
<polygon fill="midnightblue" stroke="midnightblue" points="2825,-35.1945 2821.5,-25.1945 2818,-35.1946 2825,-35.1945"/>
</g>
<!-- Node24 -->
<g id="node24" class="node"><title>Node24</title>
<g id="a_node24"><a xlink:title=" ">
<polygon fill="white" stroke="#bfbfbf" points="2890,-6 2890,-25 2997,-25 2997,-6 2890,-6"/>
<text text-anchor="middle" x="2943.5" y="-13" font-family="Helvetica,sans-Serif" font-size="10.00">ti/sysbios/knl/Task.h</text>
</a>
</g>
</g>
<!-- Node1&#45;&gt;Node24 -->
<g id="edge23" class="edge"><title>Node1&#45;&gt;Node24</title>
<path fill="none" stroke="midnightblue" d="M2847.97,-67.396C2868.9,-56.2433 2897.93,-40.7812 2918.47,-29.8336"/>
<polygon fill="midnightblue" stroke="midnightblue" points="2920.35,-32.7981 2927.53,-25.007 2917.06,-26.6202 2920.35,-32.7981"/>
</g>
<!-- Node25 -->
<g id="node25" class="node"><title>Node25</title>
<g id="a_node25"><a xlink:title=" ">
<polygon fill="white" stroke="#bfbfbf" points="3015.5,-0.5 3015.5,-30.5 3115.5,-30.5 3115.5,-0.5 3015.5,-0.5"/>
<text text-anchor="start" x="3023.5" y="-18.5" font-family="Helvetica,sans-Serif" font-size="10.00">ti/sysbios/timers/rti</text>
<text text-anchor="middle" x="3065.5" y="-7.5" font-family="Helvetica,sans-Serif" font-size="10.00">/Timer.h</text>
</a>
</g>
</g>
<!-- Node1&#45;&gt;Node25 -->
<g id="edge24" class="edge"><title>Node1&#45;&gt;Node25</title>
<path fill="none" stroke="midnightblue" d="M2874.14,-67.476C2912.84,-57.1671 2965.48,-43.1444 3005.76,-32.4156"/>
<polygon fill="midnightblue" stroke="midnightblue" points="3006.69,-35.7891 3015.45,-29.8328 3004.89,-29.025 3006.69,-35.7891"/>
</g>
<!-- Node26 -->
<g id="node26" class="node"><title>Node26</title>
<g id="a_node26"><a xlink:title=" ">
<polygon fill="white" stroke="#bfbfbf" points="3134,-6 3134,-25 3241,-25 3241,-6 3134,-6"/>
<text text-anchor="middle" x="3187.5" y="-13" font-family="Helvetica,sans-Serif" font-size="10.00">xdc/runtime/Assert.h</text>
</a>
</g>
</g>
<!-- Node1&#45;&gt;Node26 -->
<g id="edge25" class="edge"><title>Node1&#45;&gt;Node26</title>
<path fill="none" stroke="midnightblue" d="M2886.73,-71.8078C2948.23,-62.3902 3042.89,-47.1761 3124.5,-31 3130.28,-29.8536 3136.35,-28.5672 3142.33,-27.2464"/>
<polygon fill="midnightblue" stroke="midnightblue" points="3143.28,-30.6212 3152.26,-25.0099 3141.74,-23.7922 3143.28,-30.6212"/>
</g>
<!-- Node27 -->
<g id="node27" class="node"><title>Node27</title>
<g id="a_node27"><a xlink:title=" ">
<polygon fill="white" stroke="#bfbfbf" points="3259,-6 3259,-25 3358,-25 3358,-6 3259,-6"/>
<text text-anchor="middle" x="3308.5" y="-13" font-family="Helvetica,sans-Serif" font-size="10.00">xdc/runtime/Core.h</text>
</a>
</g>
</g>
<!-- Node1&#45;&gt;Node27 -->
<g id="edge26" class="edge"><title>Node1&#45;&gt;Node27</title>
<path fill="none" stroke="midnightblue" d="M2886.57,-76.4469C2970.96,-69.2986 3122.51,-54.4321 3250.5,-31 3255.99,-29.9953 3261.73,-28.7733 3267.37,-27.4695"/>
<polygon fill="midnightblue" stroke="midnightblue" points="3268.45,-30.8094 3277.35,-25.0636 3266.81,-24.0042 3268.45,-30.8094"/>
</g>
<!-- Node28 -->
<g id="node28" class="node"><title>Node28</title>
<g id="a_node28"><a xlink:title=" ">
<polygon fill="white" stroke="#bfbfbf" points="3376.5,-6 3376.5,-25 3490.5,-25 3490.5,-6 3376.5,-6"/>
<text text-anchor="middle" x="3433.5" y="-13" font-family="Helvetica,sans-Serif" font-size="10.00">xdc/runtime/Defaults.h</text>
</a>
</g>
</g>
<!-- Node1&#45;&gt;Node28 -->
<g id="edge27" class="edge"><title>Node1&#45;&gt;Node28</title>
<path fill="none" stroke="midnightblue" d="M2886.54,-78.1007C2989.2,-72.1478 3194.89,-57.8376 3367.5,-31 3374.28,-29.9465 3381.4,-28.6181 3388.36,-27.1953"/>
<polygon fill="midnightblue" stroke="midnightblue" points="3389.32,-30.5687 3398.37,-25.0641 3387.86,-23.7219 3389.32,-30.5687"/>
</g>
<!-- Node29 -->
<g id="node29" class="node"><title>Node29</title>
<g id="a_node29"><a xlink:title=" ">
<polygon fill="white" stroke="#bfbfbf" points="3508.5,-6 3508.5,-25 3612.5,-25 3612.5,-6 3508.5,-6"/>
<text text-anchor="middle" x="3560.5" y="-13" font-family="Helvetica,sans-Serif" font-size="10.00">xdc/runtime/Diags.h</text>
</a>
</g>
</g>
<!-- Node1&#45;&gt;Node29 -->
<g id="edge28" class="edge"><title>Node1&#45;&gt;Node29</title>
<path fill="none" stroke="midnightblue" d="M2886.87,-80.0819C3008.25,-76.6853 3276.43,-65.5956 3499.5,-31 3505.78,-30.0257 3512.37,-28.7411 3518.81,-27.3387"/>
<polygon fill="midnightblue" stroke="midnightblue" points="3519.75,-30.713 3528.71,-25.0655 3518.18,-23.8903 3519.75,-30.713"/>
</g>
<!-- Node30 -->
<g id="node30" class="node"><title>Node30</title>
<g id="a_node30"><a xlink:title=" ">
<polygon fill="white" stroke="#bfbfbf" points="3630.5,-6 3630.5,-25 3730.5,-25 3730.5,-6 3630.5,-6"/>
<text text-anchor="middle" x="3680.5" y="-13" font-family="Helvetica,sans-Serif" font-size="10.00">xdc/runtime/Error.h</text>
</a>
</g>
</g>
<!-- Node1&#45;&gt;Node30 -->
<g id="edge29" class="edge"><title>Node1&#45;&gt;Node30</title>
<path fill="none" stroke="midnightblue" d="M2886.73,-81.2998C3023.68,-80.0218 3350.85,-72.4625 3621.5,-31 3627.51,-30.0791 3633.81,-28.8375 3639.96,-27.4664"/>
<polygon fill="midnightblue" stroke="midnightblue" points="3641.16,-30.7782 3650.09,-25.0703 3639.55,-23.9661 3641.16,-30.7782"/>
</g>
<!-- Node31 -->
<g id="node31" class="node"><title>Node31</title>
<g id="a_node31"><a xlink:title=" ">
<polygon fill="white" stroke="#bfbfbf" points="3748.5,-6 3748.5,-25 3848.5,-25 3848.5,-6 3748.5,-6"/>
<text text-anchor="middle" x="3798.5" y="-13" font-family="Helvetica,sans-Serif" font-size="10.00">xdc/runtime/Gate.h</text>
</a>
</g>
</g>
<!-- Node1&#45;&gt;Node31 -->
<g id="edge30" class="edge"><title>Node1&#45;&gt;Node31</title>
<path fill="none" stroke="midnightblue" d="M2886.75,-82.0592C3037.71,-82.4509 3422.38,-78.2708 3739.5,-31 3745.73,-30.0713 3752.26,-28.7869 3758.62,-27.3631"/>
<polygon fill="midnightblue" stroke="midnightblue" points="3759.48,-30.7577 3768.4,-25.0424 3757.86,-23.947 3759.48,-30.7577"/>
</g>
<!-- Node32 -->
<g id="node32" class="node"><title>Node32</title>
<g id="a_node32"><a xlink:title=" ">
<polygon fill="white" stroke="#bfbfbf" points="3867,-6 3867,-25 3962,-25 3962,-6 3867,-6"/>
<text text-anchor="middle" x="3914.5" y="-13" font-family="Helvetica,sans-Serif" font-size="10.00">xdc/runtime/Log.h</text>
</a>
</g>
</g>
<!-- Node1&#45;&gt;Node32 -->
<g id="edge31" class="edge"><title>Node1&#45;&gt;Node32</title>
<path fill="none" stroke="midnightblue" d="M2886.76,-80.0304C3083.51,-75.3288 3668.96,-59.2844 3857.5,-31 3863.45,-30.1072 3869.68,-28.8569 3875.75,-27.4611"/>
<polygon fill="midnightblue" stroke="midnightblue" points="3876.85,-30.7947 3885.73,-25.0121 3875.19,-23.9964 3876.85,-30.7947"/>
</g>
<!-- Node33 -->
<g id="node33" class="node"><title>Node33</title>
<g id="a_node33"><a xlink:title=" ">
<polygon fill="white" stroke="#bfbfbf" points="3980.5,-6 3980.5,-25 4080.5,-25 4080.5,-6 3980.5,-6"/>
<text text-anchor="middle" x="4030.5" y="-13" font-family="Helvetica,sans-Serif" font-size="10.00">xdc/runtime/Main.h</text>
</a>
</g>
</g>
<!-- Node1&#45;&gt;Node33 -->
<g id="edge32" class="edge"><title>Node1&#45;&gt;Node33</title>
<path fill="none" stroke="midnightblue" d="M2886.74,-80.3264C3097.66,-76.2665 3759.71,-61.3725 3971.5,-31 3977.8,-30.096 3984.42,-28.8119 3990.84,-27.3773"/>
<polygon fill="midnightblue" stroke="midnightblue" points="3991.79,-30.7492 4000.71,-25.0319 3990.17,-23.9388 3991.79,-30.7492"/>
</g>
<!-- Node34 -->
<g id="node34" class="node"><title>Node34</title>
<g id="a_node34"><a xlink:title=" ">
<polygon fill="white" stroke="#bfbfbf" points="4098.5,-6 4098.5,-25 4212.5,-25 4212.5,-6 4098.5,-6"/>
<text text-anchor="middle" x="4155.5" y="-13" font-family="Helvetica,sans-Serif" font-size="10.00">xdc/runtime/Memory.h</text>
</a>
</g>
</g>
<!-- Node1&#45;&gt;Node34 -->
<g id="edge33" class="edge"><title>Node1&#45;&gt;Node34</title>
<path fill="none" stroke="midnightblue" d="M2886.63,-80.4254C3111.33,-76.4805 3853.24,-61.4161 4089.5,-31 4096.86,-30.0526 4104.61,-28.6881 4112.11,-27.1707"/>
<polygon fill="midnightblue" stroke="midnightblue" points="4113.08,-30.5436 4122.12,-25.0312 4111.61,-23.6981 4113.08,-30.5436"/>
</g>
<!-- Node35 -->
<g id="node35" class="node"><title>Node35</title>
<g id="a_node35"><a xlink:title=" ">
<polygon fill="white" stroke="#bfbfbf" points="4231,-6 4231,-25 4346,-25 4346,-6 4231,-6"/>
<text text-anchor="middle" x="4288.5" y="-13" font-family="Helvetica,sans-Serif" font-size="10.00">xdc/runtime/Registry.h</text>
</a>
</g>
</g>
<!-- Node1&#45;&gt;Node35 -->
<g id="edge34" class="edge"><title>Node1&#45;&gt;Node35</title>
<path fill="none" stroke="midnightblue" d="M2886.67,-80.6811C3126.28,-77.4318 3958.15,-63.9825 4221.5,-31 4229.05,-30.0539 4237.02,-28.6753 4244.71,-27.1393"/>
<polygon fill="midnightblue" stroke="midnightblue" points="4245.55,-30.539 4254.62,-25.0527 4244.11,-23.6894 4245.55,-30.539"/>
</g>
<!-- Node36 -->
<g id="node36" class="node"><title>Node36</title>
<g id="a_node36"><a xlink:title=" ">
<polygon fill="white" stroke="#bfbfbf" points="4364.5,-6 4364.5,-25 4474.5,-25 4474.5,-6 4364.5,-6"/>
<text text-anchor="middle" x="4419.5" y="-13" font-family="Helvetica,sans-Serif" font-size="10.00">xdc/runtime/Startup.h</text>
</a>
</g>
</g>
<!-- Node1&#45;&gt;Node36 -->
<g id="edge35" class="edge"><title>Node1&#45;&gt;Node36</title>
<path fill="none" stroke="midnightblue" d="M2886.73,-81.0021C3140.84,-78.8068 4064.78,-68.3735 4355.5,-31 4362.72,-30.0712 4370.33,-28.7019 4377.68,-27.17"/>
<polygon fill="midnightblue" stroke="midnightblue" points="4378.47,-30.5798 4387.48,-25.0064 4376.96,-23.7444 4378.47,-30.5798"/>
</g>
<!-- Node37 -->
<g id="node37" class="node"><title>Node37</title>
<g id="a_node37"><a xlink:title=" ">
<polygon fill="white" stroke="#bfbfbf" points="4493,-6 4493,-25 4604,-25 4604,-6 4493,-6"/>
<text text-anchor="middle" x="4548.5" y="-13" font-family="Helvetica,sans-Serif" font-size="10.00">xdc/runtime/SysStd.h</text>
</a>
</g>
</g>
<!-- Node1&#45;&gt;Node37 -->
<g id="edge36" class="edge"><title>Node1&#45;&gt;Node37</title>
<path fill="none" stroke="midnightblue" d="M2886.64,-81.1662C3153.78,-79.5432 4166.28,-70.8371 4483.5,-31 4490.83,-30.0789 4498.56,-28.7134 4506.02,-27.1829"/>
<polygon fill="midnightblue" stroke="midnightblue" points="4506.95,-30.5636 4515.98,-25.02 4505.46,-23.7233 4506.95,-30.5636"/>
</g>
<!-- Node38 -->
<g id="node38" class="node"><title>Node38</title>
<g id="a_node38"><a xlink:title=" ">
<polygon fill="white" stroke="#bfbfbf" points="4622,-6 4622,-25 4735,-25 4735,-6 4622,-6"/>
<text text-anchor="middle" x="4678.5" y="-13" font-family="Helvetica,sans-Serif" font-size="10.00">xdc/runtime/System.h</text>
</a>
</g>
</g>
<!-- Node1&#45;&gt;Node38 -->
<g id="edge37" class="edge"><title>Node1&#45;&gt;Node38</title>
<path fill="none" stroke="midnightblue" d="M2886.93,-81.3323C3167.41,-80.3553 4269.52,-73.8139 4613.5,-31 4620.84,-30.0869 4628.56,-28.7255 4636.03,-27.1966"/>
<polygon fill="midnightblue" stroke="midnightblue" points="4636.95,-30.5773 4645.98,-25.0343 4635.46,-23.7369 4636.95,-30.5773"/>
</g>
<!-- Node39 -->
<g id="node39" class="node"><title>Node39</title>
<g id="a_node39"><a xlink:title=" ">
<polygon fill="white" stroke="#bfbfbf" points="4753.5,-6 4753.5,-25 4851.5,-25 4851.5,-6 4753.5,-6"/>
<text text-anchor="middle" x="4802.5" y="-13" font-family="Helvetica,sans-Serif" font-size="10.00">xdc/runtime/Text.h</text>
</a>
</g>
</g>
<!-- Node1&#45;&gt;Node39 -->
<g id="edge38" class="edge"><title>Node1&#45;&gt;Node39</title>
<path fill="none" stroke="midnightblue" d="M2886.76,-81.7006C3179.55,-82.3069 4373.89,-81.5715 4744.5,-31 4750.78,-30.1435 4757.36,-28.8713 4763.74,-27.4303"/>
<polygon fill="midnightblue" stroke="midnightblue" points="4764.64,-30.8142 4773.53,-25.0623 4762.99,-24.0103 4764.64,-30.8142"/>
</g>
<!-- Node40 -->
<g id="node40" class="node"><title>Node40</title>
<g id="a_node40"><a xlink:title=" ">
<polygon fill="white" stroke="#bfbfbf" points="4869.5,-6 4869.5,-25 4917.5,-25 4917.5,-6 4869.5,-6"/>
<text text-anchor="middle" x="4893.5" y="-13" font-family="Helvetica,sans-Serif" font-size="10.00">limits.h</text>
</a>
</g>
</g>
<!-- Node1&#45;&gt;Node40 -->
<g id="edge39" class="edge"><title>Node1&#45;&gt;Node40</title>
<path fill="none" stroke="midnightblue" d="M2886.52,-81.3863C3212.86,-80.6147 4664.36,-74.7323 4860.5,-31 4863.01,-30.4399 4865.57,-29.6856 4868.09,-28.8139"/>
<polygon fill="midnightblue" stroke="midnightblue" points="4869.51,-32.0155 4877.48,-25.0328 4866.89,-25.5224 4869.51,-32.0155"/>
</g>
<!-- Node41 -->
<g id="node41" class="node"><title>Node41</title>
<g id="a_node41"><a xlink:title=" ">
<polygon fill="white" stroke="#bfbfbf" points="4936,-6 4936,-25 5041,-25 5041,-6 4936,-6"/>
<text text-anchor="middle" x="4988.5" y="-13" font-family="Helvetica,sans-Serif" font-size="10.00">xdc/runtime/Types.h</text>
</a>
</g>
</g>
<!-- Node1&#45;&gt;Node41 -->
<g id="edge40" class="edge"><title>Node1&#45;&gt;Node41</title>
<path fill="none" stroke="midnightblue" d="M2886.61,-81.741C3195.78,-82.6097 4517.65,-83.1487 4926.5,-31 4933.35,-30.1261 4940.55,-28.8149 4947.52,-27.3321"/>
<polygon fill="midnightblue" stroke="midnightblue" points="4948.53,-30.6933 4957.51,-25.0675 4946.98,-23.8668 4948.53,-30.6933"/>
</g>
<!-- Node42 -->
<g id="node42" class="node"><title>Node42</title>
<g id="a_node42"><a xlink:title=" ">
<polygon fill="white" stroke="#bfbfbf" points="5059.5,-0.5 5059.5,-30.5 5163.5,-30.5 5163.5,-0.5 5059.5,-0.5"/>
<text text-anchor="start" x="5067.5" y="-18.5" font-family="Helvetica,sans-Serif" font-size="10.00">xdc/runtime/System</text>
<text text-anchor="middle" x="5111.5" y="-7.5" font-family="Helvetica,sans-Serif" font-size="10.00">__internal.h</text>
</a>
</g>
</g>
<!-- Node1&#45;&gt;Node42 -->
<g id="edge41" class="edge"><title>Node1&#45;&gt;Node42</title>
<path fill="none" stroke="midnightblue" d="M2886.67,-80.8425C3226.35,-77.3074 4787.91,-59.689 5049.28,-30.8549"/>
<polygon fill="midnightblue" stroke="midnightblue" points="5049.87,-34.3086 5059.39,-29.6494 5049.05,-27.3578 5049.87,-34.3086"/>
</g>
<!-- Node43 -->
<g id="node43" class="node"><title>Node43</title>
<g id="a_node43"><a xlink:title=" ">
<polygon fill="white" stroke="#bfbfbf" points="5181.5,-6 5181.5,-25 5229.5,-25 5229.5,-6 5181.5,-6"/>
<text text-anchor="middle" x="5205.5" y="-13" font-family="Helvetica,sans-Serif" font-size="10.00">_lock.h</text>
</a>
</g>
</g>
<!-- Node1&#45;&gt;Node43 -->
<g id="edge42" class="edge"><title>Node1&#45;&gt;Node43</title>
<path fill="none" stroke="midnightblue" d="M2886.53,-81.6178C3242.2,-82.0599 4944.23,-81.5035 5172.5,-31 5175.01,-30.4441 5177.57,-29.6925 5180.09,-28.8226"/>
<polygon fill="midnightblue" stroke="midnightblue" points="5181.51,-32.0248 5189.48,-25.0442 5178.9,-25.531 5181.51,-32.0248"/>
</g>
<!-- Node44 -->
<g id="node44" class="node"><title>Node44</title>
<g id="a_node44"><a xlink:title=" ">
<polygon fill="white" stroke="#bfbfbf" points="5248,-6 5248,-25 5297,-25 5297,-6 5248,-6"/>
<text text-anchor="middle" x="5272.5" y="-13" font-family="Helvetica,sans-Serif" font-size="10.00">string.h</text>
</a>
</g>
</g>
<!-- Node1&#45;&gt;Node44 -->
<g id="edge43" class="edge"><title>Node1&#45;&gt;Node44</title>
<path fill="none" stroke="midnightblue" d="M2886.56,-81.6179C3248.21,-82.0762 5003.15,-81.6568 5238.5,-31 5241.17,-30.4249 5243.9,-29.6397 5246.58,-28.7303"/>
<polygon fill="midnightblue" stroke="midnightblue" points="5247.94,-31.957 5255.97,-25.0459 5245.38,-25.4408 5247.94,-31.957"/>
</g>
</g>
</svg>
