<?xml version="1.0" encoding="UTF-8" standalone="no"?>
<!DOCTYPE svg PUBLIC "-//W3C//DTD SVG 1.1//EN"
 "http://www.w3.org/Graphics/SVG/1.1/DTD/svg11.dtd">
<!-- Generated by graphviz version 2.38.0 (20140413.2041)
 -->
<!-- Title: ti_sysbios_heaps_HeapMem_Object__delete__S Pages: 1 -->
<svg width="328pt" height="88pt"
 viewBox="0.00 0.00 328.00 88.00" xmlns="http://www.w3.org/2000/svg" xmlns:xlink="http://www.w3.org/1999/xlink">
<g id="graph0" class="graph" transform="scale(1 1) rotate(0) translate(4 84)">
<title>ti_sysbios_heaps_HeapMem_Object__delete__S</title>
<polygon fill="white" stroke="none" points="-4,4 -4,-84 324,-84 324,4 -4,4"/>
<!-- Node1 -->
<g id="node1" class="node"><title>Node1</title>
<g id="a_node1"><a xlink:title=" ">
<polygon fill="#bfbfbf" stroke="black" points="178,-24.5 178,-54.5 320,-54.5 320,-24.5 178,-24.5"/>
<text text-anchor="start" x="186" y="-42.5" font-family="Helvetica,sans-Serif" font-size="10.00">ti_sysbios_heaps_HeapMem</text>
<text text-anchor="middle" x="249" y="-31.5" font-family="Helvetica,sans-Serif" font-size="10.00">_Object__delete__S</text>
</a>
</g>
</g>
<!-- Node2 -->
<g id="node2" class="node"><title>Node2</title>
<g id="a_node2"><a xlink:href="mss__per4f_8c.html#a1a92115e7251459424a87d7515efbefe" target="_top" xlink:title=" ">
<polygon fill="white" stroke="black" points="0,-49.5 0,-79.5 142,-79.5 142,-49.5 0,-49.5"/>
<text text-anchor="start" x="8" y="-67.5" font-family="Helvetica,sans-Serif" font-size="10.00">ti_sysbios_heaps_HeapMem</text>
<text text-anchor="middle" x="71" y="-56.5" font-family="Helvetica,sans-Serif" font-size="10.00">_delete</text>
</a>
</g>
</g>
<!-- Node1&#45;&gt;Node2 -->
<g id="edge1" class="edge"><title>Node1&#45;&gt;Node2</title>
<path fill="none" stroke="midnightblue" d="M167.899,-50.8779C159.294,-52.1003 150.588,-53.337 142.112,-54.5409"/>
<polygon fill="midnightblue" stroke="midnightblue" points="168.526,-54.3241 177.934,-49.4525 167.542,-47.3937 168.526,-54.3241"/>
</g>
<!-- Node3 -->
<g id="node3" class="node"><title>Node3</title>
<g id="a_node3"><a xlink:href="mss__per4f_8c.html#ab4189479a3bcdf719a546e2b034ce628" target="_top" xlink:title=" ">
<polygon fill="white" stroke="black" points="16,-0.5 16,-30.5 126,-30.5 126,-0.5 16,-0.5"/>
<text text-anchor="start" x="24" y="-18.5" font-family="Helvetica,sans-Serif" font-size="10.00">xdc_runtime_Memory</text>
<text text-anchor="middle" x="71" y="-7.5" font-family="Helvetica,sans-Serif" font-size="10.00">_HeapProxy_delete</text>
</a>
</g>
</g>
<!-- Node1&#45;&gt;Node3 -->
<g id="edge2" class="edge"><title>Node1&#45;&gt;Node3</title>
<path fill="none" stroke="midnightblue" d="M167.735,-28.5548C153.634,-26.632 139.267,-24.6728 126.096,-22.8767"/>
<polygon fill="midnightblue" stroke="midnightblue" points="167.553,-32.0623 177.934,-29.9456 168.499,-25.1265 167.553,-32.0623"/>
</g>
</g>
</svg>
