<?xml version="1.0" encoding="UTF-8" standalone="no"?>
<!DOCTYPE svg PUBLIC "-//W3C//DTD SVG 1.1//EN"
 "http://www.w3.org/Graphics/SVG/1.1/DTD/svg11.dtd">
<!-- Generated by graphviz version 2.38.0 (20140413.2041)
 -->
<!-- Title: MSS_CLIBasicCfg Pages: 1 -->
<svg width="292pt" height="218pt"
 viewBox="0.00 0.00 292.00 218.00" xmlns="http://www.w3.org/2000/svg" xmlns:xlink="http://www.w3.org/1999/xlink">
<g id="graph0" class="graph" transform="scale(1 1) rotate(0) translate(4 214)">
<title>MSS_CLIBasicCfg</title>
<polygon fill="white" stroke="none" points="-4,4 -4,-214 288,-214 288,4 -4,4"/>
<!-- Node1 -->
<g id="node1" class="node"><title>Node1</title>
<g id="a_node1"><a xlink:title="This is the CLI Handler for basic configuration.">
<polygon fill="#bfbfbf" stroke="black" points="0,-95.5 0,-114.5 97,-114.5 97,-95.5 0,-95.5"/>
<text text-anchor="middle" x="48.5" y="-102.5" font-family="Helvetica,sans-Serif" font-size="10.00">MSS_CLIBasicCfg</text>
</a>
</g>
</g>
<!-- Node2 -->
<g id="node2" class="node"><title>Node2</title>
<g id="a_node2"><a xlink:href="frame__cfg_8c.html#a97614be092b49866d88d08a85808d653" target="_top" xlink:title="The function initializes the ADCOut configuration with the default parameters.">
<polygon fill="white" stroke="black" points="142,-190.5 142,-209.5 275,-209.5 275,-190.5 142,-190.5"/>
<text text-anchor="middle" x="208.5" y="-197.5" font-family="Helvetica,sans-Serif" font-size="10.00">Cfg_ADCOutCfgInitParams</text>
</a>
</g>
</g>
<!-- Node1&#45;&gt;Node2 -->
<g id="edge1" class="edge"><title>Node1&#45;&gt;Node2</title>
<path fill="none" stroke="midnightblue" d="M57.177,-114.539C70.7315,-130.729 100.555,-163.525 133,-181 137.256,-183.293 141.8,-185.317 146.463,-187.103"/>
<polygon fill="midnightblue" stroke="midnightblue" points="145.557,-190.492 156.152,-190.443 147.839,-183.875 145.557,-190.492"/>
</g>
<!-- Node3 -->
<g id="node3" class="node"><title>Node3</title>
<g id="a_node3"><a xlink:href="frame__cfg_8c.html#a0f19cdd6f9114573831a701ba671fa07" target="_top" xlink:title="The function initializes the channel configuration with the default parameters.">
<polygon fill="white" stroke="black" points="142.5,-152.5 142.5,-171.5 274.5,-171.5 274.5,-152.5 142.5,-152.5"/>
<text text-anchor="middle" x="208.5" y="-159.5" font-family="Helvetica,sans-Serif" font-size="10.00">Cfg_ChannelCfgInitParams</text>
</a>
</g>
</g>
<!-- Node1&#45;&gt;Node3 -->
<g id="edge2" class="edge"><title>Node1&#45;&gt;Node3</title>
<path fill="none" stroke="midnightblue" d="M68.0109,-114.576C84.6774,-122.917 110.013,-134.91 133,-143 139.925,-145.437 147.313,-147.704 154.646,-149.761"/>
<polygon fill="midnightblue" stroke="midnightblue" points="153.996,-153.211 164.562,-152.433 155.817,-146.452 153.996,-153.211"/>
</g>
<!-- Node4 -->
<g id="node4" class="node"><title>Node4</title>
<g id="a_node4"><a xlink:href="frame__cfg_8c.html#a0b5e20fd310136c525f6e983366ee19f" target="_top" xlink:title="The function initializes the chirp configuration with the default parameters.">
<polygon fill="white" stroke="black" points="149,-114.5 149,-133.5 268,-133.5 268,-114.5 149,-114.5"/>
<text text-anchor="middle" x="208.5" y="-121.5" font-family="Helvetica,sans-Serif" font-size="10.00">Cfg_ChirpCfgInitParams</text>
</a>
</g>
</g>
<!-- Node1&#45;&gt;Node4 -->
<g id="edge3" class="edge"><title>Node1&#45;&gt;Node4</title>
<path fill="none" stroke="midnightblue" d="M97.334,-110.752C110.417,-112.325 124.857,-114.062 138.857,-115.745"/>
<polygon fill="midnightblue" stroke="midnightblue" points="138.6,-119.24 148.946,-116.959 139.436,-112.29 138.6,-119.24"/>
</g>
<!-- Node5 -->
<g id="node5" class="node"><title>Node5</title>
<g id="a_node5"><a xlink:href="frame__cfg_8c.html#a285d8a73a5cea5f2e239c1f14b2e0e92" target="_top" xlink:title="The function initializes the frame configuration with the default parameters.">
<polygon fill="white" stroke="black" points="146,-76.5 146,-95.5 271,-95.5 271,-76.5 146,-76.5"/>
<text text-anchor="middle" x="208.5" y="-83.5" font-family="Helvetica,sans-Serif" font-size="10.00">Cfg_FrameCfgInitParams</text>
</a>
</g>
</g>
<!-- Node1&#45;&gt;Node5 -->
<g id="edge4" class="edge"><title>Node1&#45;&gt;Node5</title>
<path fill="none" stroke="midnightblue" d="M97.334,-99.2478C109.374,-97.7999 122.565,-96.2137 135.503,-94.6579"/>
<polygon fill="midnightblue" stroke="midnightblue" points="136.287,-98.0888 145.798,-93.4199 135.452,-91.1389 136.287,-98.0888"/>
</g>
<!-- Node6 -->
<g id="node6" class="node"><title>Node6</title>
<g id="a_node6"><a xlink:href="frame__cfg_8c.html#ade79a8527c5a0769895ee1b6ac9ec327" target="_top" xlink:title="The function initializes the low power configuration with the default parameters.">
<polygon fill="white" stroke="black" points="133,-38.5 133,-57.5 284,-57.5 284,-38.5 133,-38.5"/>
<text text-anchor="middle" x="208.5" y="-45.5" font-family="Helvetica,sans-Serif" font-size="10.00">Cfg_LowPowerModeInitParams</text>
</a>
</g>
</g>
<!-- Node1&#45;&gt;Node6 -->
<g id="edge5" class="edge"><title>Node1&#45;&gt;Node6</title>
<path fill="none" stroke="midnightblue" d="M68.0109,-95.4243C84.6774,-87.083 110.013,-75.0897 133,-67 139.925,-64.5628 147.313,-62.2959 154.646,-60.2385"/>
<polygon fill="midnightblue" stroke="midnightblue" points="155.817,-63.5479 164.562,-57.5666 153.996,-56.789 155.817,-63.5479"/>
</g>
<!-- Node7 -->
<g id="node7" class="node"><title>Node7</title>
<g id="a_node7"><a xlink:href="frame__cfg_8c.html#a35827653f7b672697d2aecbcb643b986" target="_top" xlink:title="The function initializes the profile configuration with the default parameters.">
<polygon fill="white" stroke="black" points="146.5,-0.5 146.5,-19.5 270.5,-19.5 270.5,-0.5 146.5,-0.5"/>
<text text-anchor="middle" x="208.5" y="-7.5" font-family="Helvetica,sans-Serif" font-size="10.00">Cfg_ProfileCfgInitParams</text>
</a>
</g>
</g>
<!-- Node1&#45;&gt;Node7 -->
<g id="edge6" class="edge"><title>Node1&#45;&gt;Node7</title>
<path fill="none" stroke="midnightblue" d="M57.177,-95.4608C70.7315,-79.2711 100.555,-46.4754 133,-29 137.256,-26.7075 141.8,-24.6833 146.463,-22.8975"/>
<polygon fill="midnightblue" stroke="midnightblue" points="147.839,-26.1254 156.152,-19.5569 145.557,-19.5077 147.839,-26.1254"/>
</g>
</g>
</svg>
