<?xml version="1.0" encoding="UTF-8" standalone="no"?>
<!DOCTYPE svg PUBLIC "-//W3C//DTD SVG 1.1//EN"
 "http://www.w3.org/Graphics/SVG/1.1/DTD/svg11.dtd">
<!-- Generated by graphviz version 2.38.0 (20140413.2041)
 -->
<!-- Title: mss_main.c Pages: 1 -->
<svg width="3734pt" height="162pt"
 viewBox="0.00 0.00 3733.50 162.00" xmlns="http://www.w3.org/2000/svg" xmlns:xlink="http://www.w3.org/1999/xlink">
<g id="graph0" class="graph" transform="scale(1 1) rotate(0) translate(4 158)">
<title>mss_main.c</title>
<polygon fill="white" stroke="none" points="-4,4 -4,-158 3729.5,-158 3729.5,4 -4,4"/>
<!-- Node1 -->
<g id="node1" class="node"><title>Node1</title>
<g id="a_node1"><a xlink:title=" ">
<polygon fill="#bfbfbf" stroke="black" points="1522.5,-134.5 1522.5,-153.5 1592.5,-153.5 1592.5,-134.5 1522.5,-134.5"/>
<text text-anchor="middle" x="1557.5" y="-141.5" font-family="Helvetica,sans-Serif" font-size="10.00">mss_main.c</text>
</a>
</g>
</g>
<!-- Node2 -->
<g id="node2" class="node"><title>Node2</title>
<g id="a_node2"><a xlink:title=" ">
<polygon fill="white" stroke="#bfbfbf" points="0,-73 0,-92 49,-92 49,-73 0,-73"/>
<text text-anchor="middle" x="24.5" y="-80" font-family="Helvetica,sans-Serif" font-size="10.00">stdint.h</text>
</a>
</g>
</g>
<!-- Node1&#45;&gt;Node2 -->
<g id="edge1" class="edge"><title>Node1&#45;&gt;Node2</title>
<path fill="none" stroke="midnightblue" d="M1522.3,-142.726C1310.09,-140.973 205.505,-130.343 58.5,-98 55.8305,-97.4127 53.1082,-96.6194 50.4244,-95.7049"/>
<polygon fill="midnightblue" stroke="midnightblue" points="51.6239,-92.4158 41.0367,-92.0136 49.0623,-98.9303 51.6239,-92.4158"/>
</g>
<!-- Node3 -->
<g id="node3" class="node"><title>Node3</title>
<g id="a_node3"><a xlink:title=" ">
<polygon fill="white" stroke="#bfbfbf" points="67.5,-73 67.5,-92 115.5,-92 115.5,-73 67.5,-73"/>
<text text-anchor="middle" x="91.5" y="-80" font-family="Helvetica,sans-Serif" font-size="10.00">stdlib.h</text>
</a>
</g>
</g>
<!-- Node1&#45;&gt;Node3 -->
<g id="edge2" class="edge"><title>Node1&#45;&gt;Node3</title>
<path fill="none" stroke="midnightblue" d="M1522.18,-142.696C1315.25,-140.805 264.467,-129.696 124.5,-98 121.99,-97.4316 119.435,-96.6716 116.914,-95.7963"/>
<polygon fill="midnightblue" stroke="midnightblue" points="118.111,-92.5051 107.527,-92.01 115.492,-98.9968 118.111,-92.5051"/>
</g>
<!-- Node4 -->
<g id="node4" class="node"><title>Node4</title>
<g id="a_node4"><a xlink:title=" ">
<polygon fill="white" stroke="#bfbfbf" points="134,-73 134,-92 185,-92 185,-73 134,-73"/>
<text text-anchor="middle" x="159.5" y="-80" font-family="Helvetica,sans-Serif" font-size="10.00">stddef.h</text>
</a>
</g>
</g>
<!-- Node1&#45;&gt;Node4 -->
<g id="edge3" class="edge"><title>Node1&#45;&gt;Node4</title>
<path fill="none" stroke="midnightblue" d="M1522.27,-142.614C1321.53,-140.31 326.511,-127.471 193.5,-98 190.831,-97.4087 188.11,-96.6128 185.426,-95.6967"/>
<polygon fill="midnightblue" stroke="midnightblue" points="186.626,-92.4077 176.039,-92.0031 184.063,-98.9216 186.626,-92.4077"/>
</g>
<!-- Node5 -->
<g id="node5" class="node"><title>Node5</title>
<g id="a_node5"><a xlink:title=" ">
<polygon fill="white" stroke="#bfbfbf" points="203,-73 203,-92 252,-92 252,-73 203,-73"/>
<text text-anchor="middle" x="227.5" y="-80" font-family="Helvetica,sans-Serif" font-size="10.00">string.h</text>
</a>
</g>
</g>
<!-- Node1&#45;&gt;Node5 -->
<g id="edge4" class="edge"><title>Node1&#45;&gt;Node5</title>
<path fill="none" stroke="midnightblue" d="M1522.45,-142.551C1328.15,-139.958 387.52,-126.037 261.5,-98 258.979,-97.4391 256.41,-96.6961 253.871,-95.8422"/>
<polygon fill="midnightblue" stroke="midnightblue" points="254.976,-92.5167 244.388,-92.1494 252.436,-99.0396 254.976,-92.5167"/>
</g>
<!-- Node6 -->
<g id="node6" class="node"><title>Node6</title>
<g id="a_node6"><a xlink:title=" ">
<polygon fill="white" stroke="#bfbfbf" points="270.5,-73 270.5,-92 316.5,-92 316.5,-73 270.5,-73"/>
<text text-anchor="middle" x="293.5" y="-80" font-family="Helvetica,sans-Serif" font-size="10.00">stdio.h</text>
</a>
</g>
</g>
<!-- Node1&#45;&gt;Node6 -->
<g id="edge5" class="edge"><title>Node1&#45;&gt;Node6</title>
<path fill="none" stroke="midnightblue" d="M1522.37,-142.503C1333.79,-139.73 445.645,-125.303 326.5,-98 324.133,-97.4575 321.724,-96.7462 319.342,-95.9297"/>
<polygon fill="midnightblue" stroke="midnightblue" points="320.453,-92.6045 309.868,-92.1446 317.856,-99.1049 320.453,-92.6045"/>
</g>
<!-- Node7 -->
<g id="node7" class="node"><title>Node7</title>
<g id="a_node7"><a xlink:title=" ">
<polygon fill="white" stroke="#bfbfbf" points="335,-73 335,-92 382,-92 382,-73 335,-73"/>
<text text-anchor="middle" x="358.5" y="-80" font-family="Helvetica,sans-Serif" font-size="10.00">math.h</text>
</a>
</g>
</g>
<!-- Node1&#45;&gt;Node7 -->
<g id="edge6" class="edge"><title>Node1&#45;&gt;Node7</title>
<path fill="none" stroke="midnightblue" d="M1522.44,-142.427C1340.08,-139.345 503.966,-123.893 391.5,-98 389.133,-97.4551 386.725,-96.7421 384.344,-95.9245"/>
<polygon fill="midnightblue" stroke="midnightblue" points="385.455,-92.5994 374.87,-92.1376 382.856,-99.0994 385.455,-92.5994"/>
</g>
<!-- Node8 -->
<g id="node8" class="node"><title>Node8</title>
<g id="a_node8"><a xlink:title=" ">
<polygon fill="white" stroke="#bfbfbf" points="400,-73 400,-92 457,-92 457,-73 400,-73"/>
<text text-anchor="middle" x="428.5" y="-80" font-family="Helvetica,sans-Serif" font-size="10.00">xdc/std.h</text>
</a>
</g>
</g>
<!-- Node1&#45;&gt;Node8 -->
<g id="edge7" class="edge"><title>Node1&#45;&gt;Node8</title>
<path fill="none" stroke="midnightblue" d="M1522.3,-143.071C1359.1,-143.166 675.277,-140.946 466.5,-98 463.418,-97.366 460.257,-96.5134 457.139,-95.5374"/>
<polygon fill="midnightblue" stroke="midnightblue" points="458.065,-92.1524 447.47,-92.1164 455.73,-98.7515 458.065,-92.1524"/>
</g>
<!-- Node9 -->
<g id="node9" class="node"><title>Node9</title>
<g id="a_node9"><a xlink:title=" ">
<polygon fill="white" stroke="#bfbfbf" points="475,-73 475,-92 560,-92 560,-73 475,-73"/>
<text text-anchor="middle" x="517.5" y="-80" font-family="Helvetica,sans-Serif" font-size="10.00">xdc/cfg/global.h</text>
</a>
</g>
</g>
<!-- Node1&#45;&gt;Node9 -->
<g id="edge8" class="edge"><title>Node1&#45;&gt;Node9</title>
<path fill="none" stroke="midnightblue" d="M1522.42,-142.466C1369.3,-139.974 758.757,-128.295 569.5,-98 564.312,-97.1695 558.902,-96.0074 553.617,-94.6986"/>
<polygon fill="midnightblue" stroke="midnightblue" points="554.262,-91.2483 543.697,-92.05 552.456,-98.0113 554.262,-91.2483"/>
</g>
<!-- Node10 -->
<g id="node10" class="node"><title>Node10</title>
<g id="a_node10"><a xlink:title=" ">
<polygon fill="white" stroke="#bfbfbf" points="578.5,-73 578.5,-92 682.5,-92 682.5,-73 578.5,-73"/>
<text text-anchor="middle" x="630.5" y="-80" font-family="Helvetica,sans-Serif" font-size="10.00">xdc/runtime/IHeap.h</text>
</a>
</g>
</g>
<!-- Node1&#45;&gt;Node10 -->
<g id="edge9" class="edge"><title>Node1&#45;&gt;Node10</title>
<path fill="none" stroke="midnightblue" d="M1522.27,-143.403C1404.24,-144.277 1012.24,-143.338 692.5,-98 685.808,-97.0511 678.776,-95.7284 671.949,-94.2645"/>
<polygon fill="midnightblue" stroke="midnightblue" points="672.681,-90.8418 662.154,-92.0459 671.134,-97.6688 672.681,-90.8418"/>
</g>
<!-- Node11 -->
<g id="node11" class="node"><title>Node11</title>
<g id="a_node11"><a xlink:title=" ">
<polygon fill="white" stroke="#bfbfbf" points="701,-73 701,-92 814,-92 814,-73 701,-73"/>
<text text-anchor="middle" x="757.5" y="-80" font-family="Helvetica,sans-Serif" font-size="10.00">xdc/runtime/System.h</text>
</a>
</g>
</g>
<!-- Node1&#45;&gt;Node11 -->
<g id="edge10" class="edge"><title>Node1&#45;&gt;Node11</title>
<path fill="none" stroke="midnightblue" d="M1522.16,-142.771C1415.93,-141.668 1090.29,-135.256 823.5,-98 816.311,-96.9961 808.741,-95.6304 801.395,-94.1364"/>
<polygon fill="midnightblue" stroke="midnightblue" points="802.083,-90.7045 791.573,-92.0417 800.623,-97.5506 802.083,-90.7045"/>
</g>
<!-- Node12 -->
<g id="node12" class="node"><title>Node12</title>
<g id="a_node12"><a xlink:title=" ">
<polygon fill="white" stroke="#bfbfbf" points="832.5,-73 832.5,-92 932.5,-92 932.5,-73 832.5,-73"/>
<text text-anchor="middle" x="882.5" y="-80" font-family="Helvetica,sans-Serif" font-size="10.00">xdc/runtime/Error.h</text>
</a>
</g>
</g>
<!-- Node1&#45;&gt;Node12 -->
<g id="edge11" class="edge"><title>Node1&#45;&gt;Node12</title>
<path fill="none" stroke="midnightblue" d="M1522.19,-142.492C1427.54,-140.685 1160.47,-132.654 941.5,-98 935.493,-97.0494 929.199,-95.7915 923.053,-94.4129"/>
<polygon fill="midnightblue" stroke="midnightblue" points="923.461,-90.9128 912.923,-92.0119 921.846,-97.724 923.461,-90.9128"/>
</g>
<!-- Node13 -->
<g id="node13" class="node"><title>Node13</title>
<g id="a_node13"><a xlink:title=" ">
<polygon fill="white" stroke="#bfbfbf" points="950.5,-73 950.5,-92 1064.5,-92 1064.5,-73 950.5,-73"/>
<text text-anchor="middle" x="1007.5" y="-80" font-family="Helvetica,sans-Serif" font-size="10.00">xdc/runtime/Memory.h</text>
</a>
</g>
</g>
<!-- Node1&#45;&gt;Node13 -->
<g id="edge12" class="edge"><title>Node1&#45;&gt;Node13</title>
<path fill="none" stroke="midnightblue" d="M1522.47,-141.184C1442.63,-136.73 1241.17,-123.705 1074.5,-98 1067.62,-96.9397 1060.4,-95.6076 1053.33,-94.1831"/>
<polygon fill="midnightblue" stroke="midnightblue" points="1053.67,-90.678 1043.17,-92.051 1052.24,-97.529 1053.67,-90.678"/>
</g>
<!-- Node14 -->
<g id="node14" class="node"><title>Node14</title>
<g id="a_node14"><a xlink:title=" ">
<polygon fill="white" stroke="#bfbfbf" points="1083,-73 1083,-92 1176,-92 1176,-73 1083,-73"/>
<text text-anchor="middle" x="1129.5" y="-80" font-family="Helvetica,sans-Serif" font-size="10.00">ti/sysbios/BIOS.h</text>
</a>
</g>
</g>
<!-- Node1&#45;&gt;Node14 -->
<g id="edge13" class="edge"><title>Node1&#45;&gt;Node14</title>
<path fill="none" stroke="midnightblue" d="M1522.39,-140.32C1456.11,-134.915 1308.23,-121.206 1185.5,-98 1180.33,-97.0222 1174.93,-95.8371 1169.61,-94.5705"/>
<polygon fill="midnightblue" stroke="midnightblue" points="1170.11,-91.0884 1159.56,-92.0675 1168.42,-97.8809 1170.11,-91.0884"/>
</g>
<!-- Node15 -->
<g id="node15" class="node"><title>Node15</title>
<g id="a_node15"><a xlink:title=" ">
<polygon fill="white" stroke="#bfbfbf" points="1194,-73 1194,-92 1301,-92 1301,-73 1194,-73"/>
<text text-anchor="middle" x="1247.5" y="-80" font-family="Helvetica,sans-Serif" font-size="10.00">ti/sysbios/knl/Task.h</text>
</a>
</g>
</g>
<!-- Node1&#45;&gt;Node15 -->
<g id="edge14" class="edge"><title>Node1&#45;&gt;Node15</title>
<path fill="none" stroke="midnightblue" d="M1522.18,-136.731C1475,-128.29 1388.84,-112.635 1315.5,-98 1309.36,-96.7753 1302.92,-95.452 1296.55,-94.1202"/>
<polygon fill="midnightblue" stroke="midnightblue" points="1297.17,-90.6722 1286.66,-92.0334 1295.72,-97.5216 1297.17,-90.6722"/>
</g>
<!-- Node16 -->
<g id="node16" class="node"><title>Node16</title>
<g id="a_node16"><a xlink:title=" ">
<polygon fill="white" stroke="#bfbfbf" points="709.5,-6 709.5,-25 819.5,-25 819.5,-6 709.5,-6"/>
<text text-anchor="middle" x="764.5" y="-13" font-family="Helvetica,sans-Serif" font-size="10.00">ti/sysbios/knl/Event.h</text>
</a>
</g>
</g>
<!-- Node1&#45;&gt;Node16 -->
<g id="edge15" class="edge"><title>Node1&#45;&gt;Node16</title>
<path fill="none" stroke="midnightblue" d="M1522.2,-141.398C1478.1,-138.129 1401.4,-128.195 1343.5,-98 1325.66,-88.6949 1328.92,-75.103 1310.5,-67 1212.39,-23.8387 935.53,-46.7099 829.5,-31 822.661,-29.9867 815.47,-28.6556 808.466,-27.2106"/>
<polygon fill="midnightblue" stroke="midnightblue" points="808.912,-23.7264 798.399,-25.0355 807.434,-30.5685 808.912,-23.7264"/>
</g>
<!-- Node17 -->
<g id="node17" class="node"><title>Node17</title>
<g id="a_node17"><a xlink:title=" ">
<polygon fill="white" stroke="#bfbfbf" points="838,-6 838,-25 973,-25 973,-6 838,-6"/>
<text text-anchor="middle" x="905.5" y="-13" font-family="Helvetica,sans-Serif" font-size="10.00">ti/sysbios/knl/Semaphore.h</text>
</a>
</g>
</g>
<!-- Node1&#45;&gt;Node17 -->
<g id="edge16" class="edge"><title>Node1&#45;&gt;Node17</title>
<path fill="none" stroke="midnightblue" d="M1522.19,-138.564C1485.48,-132.923 1427.11,-121.016 1381.5,-98 1362.04,-88.1813 1363.64,-75.3237 1343.5,-67 1194.48,-5.42334 1142.1,-53.9411 982.5,-31 974.363,-29.8304 965.778,-28.4051 957.408,-26.9098"/>
<polygon fill="midnightblue" stroke="midnightblue" points="957.819,-23.4268 947.351,-25.0638 956.555,-30.3118 957.819,-23.4268"/>
</g>
<!-- Node18 -->
<g id="node18" class="node"><title>Node18</title>
<g id="a_node18"><a xlink:title=" ">
<polygon fill="white" stroke="#bfbfbf" points="1883.5,-73 1883.5,-92 1993.5,-92 1993.5,-73 1883.5,-73"/>
<text text-anchor="middle" x="1938.5" y="-80" font-family="Helvetica,sans-Serif" font-size="10.00">ti/sysbios/knl/Clock.h</text>
</a>
</g>
</g>
<!-- Node1&#45;&gt;Node18 -->
<g id="edge17" class="edge"><title>Node1&#45;&gt;Node18</title>
<path fill="none" stroke="midnightblue" d="M1592.71,-138.667C1650.62,-131.373 1769.53,-115.694 1869.5,-98 1876.14,-96.8246 1883.12,-95.4835 1889.98,-94.1025"/>
<polygon fill="midnightblue" stroke="midnightblue" points="1890.81,-97.5056 1899.9,-92.0653 1889.4,-90.6487 1890.81,-97.5056"/>
</g>
<!-- Node19 -->
<g id="node19" class="node"><title>Node19</title>
<g id="a_node19"><a xlink:title=" ">
<polygon fill="white" stroke="#bfbfbf" points="2011.5,-73 2011.5,-92 2147.5,-92 2147.5,-73 2011.5,-73"/>
<text text-anchor="middle" x="2079.5" y="-80" font-family="Helvetica,sans-Serif" font-size="10.00">ti/sysbios/heaps/HeapBuf.h</text>
</a>
</g>
</g>
<!-- Node1&#45;&gt;Node19 -->
<g id="edge18" class="edge"><title>Node1&#45;&gt;Node19</title>
<path fill="none" stroke="midnightblue" d="M1592.53,-140.481C1667.81,-134.842 1850.52,-119.953 2002.5,-98 2010.64,-96.8248 2019.22,-95.3964 2027.59,-93.9"/>
<polygon fill="midnightblue" stroke="midnightblue" points="2028.44,-97.3018 2037.65,-92.0532 2027.18,-90.417 2028.44,-97.3018"/>
</g>
<!-- Node20 -->
<g id="node20" class="node"><title>Node20</title>
<g id="a_node20"><a xlink:title=" ">
<polygon fill="white" stroke="#bfbfbf" points="2166,-73 2166,-92 2309,-92 2309,-73 2166,-73"/>
<text text-anchor="middle" x="2237.5" y="-80" font-family="Helvetica,sans-Serif" font-size="10.00">ti/sysbios/heaps/HeapMem.h</text>
</a>
</g>
</g>
<!-- Node1&#45;&gt;Node20 -->
<g id="edge19" class="edge"><title>Node1&#45;&gt;Node20</title>
<path fill="none" stroke="midnightblue" d="M1592.73,-141.612C1685.38,-137.689 1943.38,-125.01 2156.5,-98 2165.56,-96.8524 2175.14,-95.3745 2184.42,-93.8026"/>
<polygon fill="midnightblue" stroke="midnightblue" points="2185.08,-97.2398 2194.33,-92.0712 2183.87,-90.3442 2185.08,-97.2398"/>
</g>
<!-- Node21 -->
<g id="node21" class="node"><title>Node21</title>
<g id="a_node21"><a xlink:title=" ">
<polygon fill="white" stroke="#bfbfbf" points="2327,-67.5 2327,-97.5 2434,-97.5 2434,-67.5 2327,-67.5"/>
<text text-anchor="start" x="2335" y="-85.5" font-family="Helvetica,sans-Serif" font-size="10.00">ti/sysbios/family/arm</text>
<text text-anchor="middle" x="2380.5" y="-74.5" font-family="Helvetica,sans-Serif" font-size="10.00">/v7a/Pmu.h</text>
</a>
</g>
</g>
<!-- Node1&#45;&gt;Node21 -->
<g id="edge20" class="edge"><title>Node1&#45;&gt;Node21</title>
<path fill="none" stroke="midnightblue" d="M1592.61,-143.047C1699.9,-142.743 2032.91,-138.478 2316.76,-98.0927"/>
<polygon fill="midnightblue" stroke="midnightblue" points="2317.44,-101.531 2326.84,-96.6407 2316.44,-94.6028 2317.44,-101.531"/>
</g>
<!-- Node22 -->
<g id="node22" class="node"><title>Node22</title>
<g id="a_node22"><a xlink:title=" ">
<polygon fill="white" stroke="#bfbfbf" points="2452,-67.5 2452,-97.5 2559,-97.5 2559,-67.5 2452,-67.5"/>
<text text-anchor="start" x="2460" y="-85.5" font-family="Helvetica,sans-Serif" font-size="10.00">ti/sysbios/family/arm</text>
<text text-anchor="middle" x="2505.5" y="-74.5" font-family="Helvetica,sans-Serif" font-size="10.00">/v7r/vim/Hwi.h</text>
</a>
</g>
</g>
<!-- Node1&#45;&gt;Node22 -->
<g id="edge21" class="edge"><title>Node1&#45;&gt;Node22</title>
<path fill="none" stroke="midnightblue" d="M1592.75,-143.465C1711.38,-144.556 2107,-144.346 2441.47,-98.1201"/>
<polygon fill="midnightblue" stroke="midnightblue" points="2442.42,-101.52 2451.84,-96.6685 2441.45,-94.588 2442.42,-101.52"/>
</g>
<!-- Node23 -->
<g id="node23" class="node"><title>Node23</title>
<g id="a_node23"><a xlink:title=" ">
<polygon fill="white" stroke="#bfbfbf" points="2577.5,-67.5 2577.5,-97.5 2687.5,-97.5 2687.5,-67.5 2577.5,-67.5"/>
<text text-anchor="start" x="2585.5" y="-85.5" font-family="Helvetica,sans-Serif" font-size="10.00">ti/control/mmwavelink</text>
<text text-anchor="middle" x="2632.5" y="-74.5" font-family="Helvetica,sans-Serif" font-size="10.00">/mmwavelink.h</text>
</a>
</g>
</g>
<!-- Node1&#45;&gt;Node23 -->
<g id="edge22" class="edge"><title>Node1&#45;&gt;Node23</title>
<path fill="none" stroke="midnightblue" d="M1592.58,-142.279C1745.3,-139.012 2353.75,-124.649 2567.29,-97.9477"/>
<polygon fill="midnightblue" stroke="midnightblue" points="2567.99,-101.386 2577.46,-96.6259 2567.09,-94.4441 2567.99,-101.386"/>
</g>
<!-- Node24 -->
<g id="node24" class="node"><title>Node24</title>
<g id="a_node24"><a xlink:title=" ">
<polygon fill="white" stroke="#bfbfbf" points="991,-6 991,-25 1134,-25 1134,-6 991,-6"/>
<text text-anchor="middle" x="1062.5" y="-13" font-family="Helvetica,sans-Serif" font-size="10.00">ti/control/mmwave/mmwave.h</text>
</a>
</g>
</g>
<!-- Node1&#45;&gt;Node24 -->
<g id="edge23" class="edge"><title>Node1&#45;&gt;Node24</title>
<path fill="none" stroke="midnightblue" d="M1522.31,-135.346C1493.52,-128.203 1452.35,-115.933 1419.5,-98 1400.37,-87.5552 1401.43,-75.8319 1381.5,-67 1283.7,-23.6502 1249.05,-48.4272 1143.5,-31 1135.58,-29.693 1127.24,-28.2615 1119.04,-26.8231"/>
<polygon fill="midnightblue" stroke="midnightblue" points="1119.61,-23.3687 1109.15,-25.0731 1118.39,-30.2617 1119.61,-23.3687"/>
</g>
<!-- Node25 -->
<g id="node25" class="node"><title>Node25</title>
<g id="a_node25"><a xlink:title=" ">
<polygon fill="white" stroke="#bfbfbf" points="2705.5,-67.5 2705.5,-97.5 2815.5,-97.5 2815.5,-67.5 2705.5,-67.5"/>
<text text-anchor="start" x="2713.5" y="-85.5" font-family="Helvetica,sans-Serif" font-size="10.00">ti/control/mmwavelink</text>
<text text-anchor="middle" x="2760.5" y="-74.5" font-family="Helvetica,sans-Serif" font-size="10.00">/include/rl_driver.h</text>
</a>
</g>
</g>
<!-- Node1&#45;&gt;Node25 -->
<g id="edge24" class="edge"><title>Node1&#45;&gt;Node25</title>
<path fill="none" stroke="midnightblue" d="M1592.73,-142.478C1757.65,-139.906 2455.14,-127.536 2695.39,-97.9301"/>
<polygon fill="midnightblue" stroke="midnightblue" points="2695.98,-101.383 2705.46,-96.6437 2695.09,-94.4396 2695.98,-101.383"/>
</g>
<!-- Node26 -->
<g id="node26" class="node"><title>Node26</title>
<g id="a_node26"><a xlink:title=" ">
<polygon fill="white" stroke="#bfbfbf" points="2833.5,-73 2833.5,-92 2965.5,-92 2965.5,-73 2833.5,-73"/>
<text text-anchor="middle" x="2899.5" y="-80" font-family="Helvetica,sans-Serif" font-size="10.00">ti/common/sys_common.h</text>
</a>
</g>
</g>
<!-- Node1&#45;&gt;Node26 -->
<g id="edge25" class="edge"><title>Node1&#45;&gt;Node26</title>
<path fill="none" stroke="midnightblue" d="M1592.74,-142.49C1771.17,-139.793 2576.15,-126.244 2824.5,-98 2833.31,-96.9983 2842.63,-95.5311 2851.6,-93.9099"/>
<polygon fill="midnightblue" stroke="midnightblue" points="2852.35,-97.3298 2861.52,-92.0305 2851.05,-90.4519 2852.35,-97.3298"/>
</g>
<!-- Node27 -->
<g id="node27" class="node"><title>Node27</title>
<g id="a_node27"><a xlink:title=" ">
<polygon fill="white" stroke="#bfbfbf" points="1152.5,-6 1152.5,-25 1250.5,-25 1250.5,-6 1152.5,-6"/>
<text text-anchor="middle" x="1201.5" y="-13" font-family="Helvetica,sans-Serif" font-size="10.00">ti/drivers/soc/soc.h</text>
</a>
</g>
</g>
<!-- Node1&#45;&gt;Node27 -->
<g id="edge26" class="edge"><title>Node1&#45;&gt;Node27</title>
<path fill="none" stroke="midnightblue" d="M1534,-134.445C1513.16,-126.396 1482.28,-113.314 1457.5,-98 1438.96,-86.5412 1439.1,-76.5355 1419.5,-67 1353.96,-35.1119 1330.42,-47.8403 1259.5,-31 1254.82,-29.8894 1249.94,-28.7061 1245.08,-27.5127"/>
<polygon fill="midnightblue" stroke="midnightblue" points="1245.75,-24.0737 1235.2,-25.0691 1244.07,-30.8687 1245.75,-24.0737"/>
</g>
<!-- Node28 -->
<g id="node28" class="node"><title>Node28</title>
<g id="a_node28"><a xlink:title=" ">
<polygon fill="white" stroke="#bfbfbf" points="1268.5,-6 1268.5,-25 1372.5,-25 1372.5,-6 1268.5,-6"/>
<text text-anchor="middle" x="1320.5" y="-13" font-family="Helvetica,sans-Serif" font-size="10.00">ti/drivers/esm/esm.h</text>
</a>
</g>
</g>
<!-- Node1&#45;&gt;Node28 -->
<g id="edge27" class="edge"><title>Node1&#45;&gt;Node28</title>
<path fill="none" stroke="midnightblue" d="M1545,-134.238C1532.37,-125.314 1512.36,-110.981 1495.5,-98 1478.23,-84.7044 1476.43,-77.8059 1457.5,-67 1427.4,-49.8189 1390.38,-36.5863 1362.41,-27.9848"/>
<polygon fill="midnightblue" stroke="midnightblue" points="1363.13,-24.5465 1352.55,-25.0266 1361.12,-31.2516 1363.13,-24.5465"/>
</g>
<!-- Node29 -->
<g id="node29" class="node"><title>Node29</title>
<g id="a_node29"><a xlink:title=" ">
<polygon fill="white" stroke="#bfbfbf" points="1390.5,-6 1390.5,-25 1484.5,-25 1484.5,-6 1390.5,-6"/>
<text text-anchor="middle" x="1437.5" y="-13" font-family="Helvetica,sans-Serif" font-size="10.00">ti/drivers/crc/crc.h</text>
</a>
</g>
</g>
<!-- Node1&#45;&gt;Node29 -->
<g id="edge28" class="edge"><title>Node1&#45;&gt;Node29</title>
<path fill="none" stroke="midnightblue" d="M1551.07,-134.164C1540.28,-119.562 1517.53,-89.752 1495.5,-67 1483.24,-54.3427 1468.21,-41.3151 1456.52,-31.6626"/>
<polygon fill="midnightblue" stroke="midnightblue" points="1458.65,-28.8842 1448.69,-25.2841 1454.23,-34.3124 1458.65,-28.8842"/>
</g>
<!-- Node30 -->
<g id="node30" class="node"><title>Node30</title>
<g id="a_node30"><a xlink:title=" ">
<polygon fill="white" stroke="#bfbfbf" points="1503,-6 1503,-25 1612,-25 1612,-6 1503,-6"/>
<text text-anchor="middle" x="1557.5" y="-13" font-family="Helvetica,sans-Serif" font-size="10.00">ti/drivers/uart/UART.h</text>
</a>
</g>
</g>
<!-- Node1&#45;&gt;Node30 -->
<g id="edge29" class="edge"><title>Node1&#45;&gt;Node30</title>
<path fill="none" stroke="midnightblue" d="M1557.5,-134.305C1557.5,-113.994 1557.5,-63.0532 1557.5,-35.2768"/>
<polygon fill="midnightblue" stroke="midnightblue" points="1561,-35.2557 1557.5,-25.2557 1554,-35.2557 1561,-35.2557"/>
</g>
<!-- Node31 -->
<g id="node31" class="node"><title>Node31</title>
<g id="a_node31"><a xlink:title=" ">
<polygon fill="white" stroke="#bfbfbf" points="2984,-73 2984,-92 3087,-92 3087,-73 2984,-73"/>
<text text-anchor="middle" x="3035.5" y="-80" font-family="Helvetica,sans-Serif" font-size="10.00">ti/drivers/gpio/gpio.h</text>
</a>
</g>
</g>
<!-- Node1&#45;&gt;Node31 -->
<g id="edge30" class="edge"><title>Node1&#45;&gt;Node31</title>
<path fill="none" stroke="midnightblue" d="M1592.76,-142.844C1783.71,-141.851 2695.46,-135.208 2974.5,-98 2981.24,-97.101 2988.33,-95.777 2995.19,-94.2891"/>
<polygon fill="midnightblue" stroke="midnightblue" points="2996.05,-97.6817 3005.01,-92.0222 2994.48,-90.8611 2996.05,-97.6817"/>
</g>
<!-- Node32 -->
<g id="node32" class="node"><title>Node32</title>
<g id="a_node32"><a xlink:title=" ">
<polygon fill="white" stroke="#bfbfbf" points="2066,-0.5 2066,-30.5 2155,-30.5 2155,-0.5 2066,-0.5"/>
<text text-anchor="start" x="2074" y="-18.5" font-family="Helvetica,sans-Serif" font-size="10.00">ti/drivers/mailbox</text>
<text text-anchor="middle" x="2110.5" y="-7.5" font-family="Helvetica,sans-Serif" font-size="10.00">/mailbox.h</text>
</a>
</g>
</g>
<!-- Node1&#45;&gt;Node32 -->
<g id="edge31" class="edge"><title>Node1&#45;&gt;Node32</title>
<path fill="none" stroke="midnightblue" d="M1589.33,-134.464C1615.67,-126.765 1653.63,-114.175 1684.5,-98 1705.37,-87.0667 1705.51,-75.4459 1727.5,-67 1862.14,-15.2977 1910.39,-56.6055 2055.63,-31.1291"/>
<polygon fill="midnightblue" stroke="midnightblue" points="2056.59,-34.5111 2065.8,-29.2653 2055.33,-27.6258 2056.59,-34.5111"/>
</g>
<!-- Node33 -->
<g id="node33" class="node"><title>Node33</title>
<g id="a_node33"><a xlink:title=" ">
<polygon fill="white" stroke="#bfbfbf" points="3105,-67.5 3105,-97.5 3226,-97.5 3226,-67.5 3105,-67.5"/>
<text text-anchor="start" x="3113" y="-85.5" font-family="Helvetica,sans-Serif" font-size="10.00">ti/drivers/pinmux/include</text>
<text text-anchor="middle" x="3165.5" y="-74.5" font-family="Helvetica,sans-Serif" font-size="10.00">/pinmux_xwr18xx.h</text>
</a>
</g>
</g>
<!-- Node1&#45;&gt;Node33 -->
<g id="edge32" class="edge"><title>Node1&#45;&gt;Node33</title>
<path fill="none" stroke="midnightblue" d="M1592.78,-142.821C1791.16,-141.69 2770.06,-134.384 3094.31,-98.0938"/>
<polygon fill="midnightblue" stroke="midnightblue" points="3095.11,-101.525 3104.64,-96.9013 3094.31,-94.5713 3095.11,-101.525"/>
</g>
<!-- Node34 -->
<g id="node34" class="node"><title>Node34</title>
<g id="a_node34"><a xlink:title=" ">
<polygon fill="white" stroke="#bfbfbf" points="2173,-6 2173,-25 2292,-25 2292,-6 2173,-6"/>
<text text-anchor="middle" x="2232.5" y="-13" font-family="Helvetica,sans-Serif" font-size="10.00">ti/drivers/osal/DebugP.h</text>
</a>
</g>
</g>
<!-- Node1&#45;&gt;Node34 -->
<g id="edge33" class="edge"><title>Node1&#45;&gt;Node34</title>
<path fill="none" stroke="midnightblue" d="M1592.77,-136.624C1626.38,-129.765 1677.88,-117.187 1719.5,-98 1741.89,-87.6784 1742.27,-75.2563 1765.5,-67 1933.27,-7.37097 1988.45,-57.6142 2164.5,-31 2171.64,-29.9208 2179.15,-28.5544 2186.48,-27.0938"/>
<polygon fill="midnightblue" stroke="midnightblue" points="2187.22,-30.5158 2196.3,-25.062 2185.8,-23.661 2187.22,-30.5158"/>
</g>
<!-- Node35 -->
<g id="node35" class="node"><title>Node35</title>
<g id="a_node35"><a xlink:title=" ">
<polygon fill="white" stroke="#bfbfbf" points="3244,-73 3244,-92 3357,-92 3357,-73 3244,-73"/>
<text text-anchor="middle" x="3300.5" y="-80" font-family="Helvetica,sans-Serif" font-size="10.00">ti/drivers/canfd/canfd.h</text>
</a>
</g>
</g>
<!-- Node1&#45;&gt;Node35 -->
<g id="edge34" class="edge"><title>Node1&#45;&gt;Node35</title>
<path fill="none" stroke="midnightblue" d="M1592.83,-142.979C1803.99,-142.715 2901.45,-139.346 3235.5,-98 3242.84,-97.0919 3250.56,-95.733 3258.03,-94.205"/>
<polygon fill="midnightblue" stroke="midnightblue" points="3258.95,-97.5858 3267.98,-92.0431 3257.47,-90.7453 3258.95,-97.5858"/>
</g>
<!-- Node36 -->
<g id="node36" class="node"><title>Node36</title>
<g id="a_node36"><a xlink:title=" ">
<polygon fill="white" stroke="#bfbfbf" points="2310.5,-6 2310.5,-25 2440.5,-25 2440.5,-6 2310.5,-6"/>
<text text-anchor="middle" x="2375.5" y="-13" font-family="Helvetica,sans-Serif" font-size="10.00">ti/drivers/pinmux/pinmux.h</text>
</a>
</g>
</g>
<!-- Node1&#45;&gt;Node36 -->
<g id="edge35" class="edge"><title>Node1&#45;&gt;Node36</title>
<path fill="none" stroke="midnightblue" d="M1592.83,-138.922C1633.57,-133.342 1701.92,-121.253 1756.5,-98 1779.52,-88.1924 1779.81,-75.0523 1803.5,-67 2013.61,4.40884 2081.54,-60.3896 2301.5,-31 2309.62,-29.9153 2318.19,-28.4947 2326.5,-26.9673"/>
<polygon fill="midnightblue" stroke="midnightblue" points="2327.31,-30.3774 2336.47,-25.0665 2326,-23.5013 2327.31,-30.3774"/>
</g>
<!-- Node37 -->
<g id="node37" class="node"><title>Node37</title>
<g id="a_node37"><a xlink:title=" ">
<polygon fill="white" stroke="#bfbfbf" points="2459,-6 2459,-25 2566,-25 2566,-6 2459,-6"/>
<text text-anchor="middle" x="2512.5" y="-13" font-family="Helvetica,sans-Serif" font-size="10.00">ti/drivers/cbuff/cbuff.h</text>
</a>
</g>
</g>
<!-- Node1&#45;&gt;Node37 -->
<g id="edge36" class="edge"><title>Node1&#45;&gt;Node37</title>
<path fill="none" stroke="midnightblue" d="M1592.67,-140.523C1639.85,-136.265 1725.55,-125.215 1793.5,-98 1817.08,-88.5583 1817.36,-74.8992 1841.5,-67 1970.13,-24.9009 2315.53,-50.246 2449.5,-31 2456.22,-30.035 2463.28,-28.7168 2470.14,-27.2662"/>
<polygon fill="midnightblue" stroke="midnightblue" points="2471,-30.6616 2480,-25.0718 2469.48,-23.8289 2471,-30.6616"/>
</g>
<!-- Node38 -->
<g id="node38" class="node"><title>Node38</title>
<g id="a_node38"><a xlink:title=" ">
<polygon fill="white" stroke="#bfbfbf" points="3375,-67.5 3375,-97.5 3464,-97.5 3464,-67.5 3375,-67.5"/>
<text text-anchor="start" x="3383" y="-85.5" font-family="Helvetica,sans-Serif" font-size="10.00">ti/utils/testlogger</text>
<text text-anchor="middle" x="3419.5" y="-74.5" font-family="Helvetica,sans-Serif" font-size="10.00">/logger.h</text>
</a>
</g>
</g>
<!-- Node1&#45;&gt;Node38 -->
<g id="edge37" class="edge"><title>Node1&#45;&gt;Node38</title>
<path fill="none" stroke="midnightblue" d="M1592.76,-142.636C1825.8,-140.166 3141.67,-125.167 3364.77,-97.8851"/>
<polygon fill="midnightblue" stroke="midnightblue" points="3365.4,-101.333 3374.84,-96.5348 3364.47,-94.3947 3365.4,-101.333"/>
</g>
<!-- Node39 -->
<g id="node39" class="node"><title>Node39</title>
<g id="a_node39"><a xlink:title=" ">
<polygon fill="white" stroke="#bfbfbf" points="3482,-73 3482,-92 3559,-92 3559,-73 3482,-73"/>
<text text-anchor="middle" x="3520.5" y="-80" font-family="Helvetica,sans-Serif" font-size="10.00">ti/utils/cli/cli.h</text>
</a>
</g>
</g>
<!-- Node1&#45;&gt;Node39 -->
<g id="edge38" class="edge"><title>Node1&#45;&gt;Node39</title>
<path fill="none" stroke="midnightblue" d="M1592.87,-142.756C1838.1,-140.986 3281.28,-129.29 3473.5,-98 3478.08,-97.2544 3482.83,-96.172 3487.48,-94.9293"/>
<polygon fill="midnightblue" stroke="midnightblue" points="3488.77,-98.1992 3497.37,-92.0214 3486.79,-91.4833 3488.77,-98.1992"/>
</g>
<!-- Node40 -->
<g id="node40" class="node"><title>Node40</title>
<g id="a_node40"><a xlink:title=" ">
<polygon fill="white" stroke="#bfbfbf" points="2584,-0.5 2584,-30.5 2695,-30.5 2695,-0.5 2584,-0.5"/>
<text text-anchor="start" x="2592" y="-18.5" font-family="Helvetica,sans-Serif" font-size="10.00">../common/mrr_config</text>
<text text-anchor="middle" x="2639.5" y="-7.5" font-family="Helvetica,sans-Serif" font-size="10.00">_consts.h</text>
</a>
</g>
</g>
<!-- Node1&#45;&gt;Node40 -->
<g id="edge39" class="edge"><title>Node1&#45;&gt;Node40</title>
<path fill="none" stroke="midnightblue" d="M1592.64,-142.33C1646.17,-140.202 1750.48,-131.657 1831.5,-98 1853.26,-88.9621 1852.27,-74.8118 1874.5,-67 2018.71,-16.3153 2405.09,-50.8644 2573.7,-31.0074"/>
<polygon fill="midnightblue" stroke="midnightblue" points="2574.28,-34.4616 2583.76,-29.7211 2573.39,-27.5182 2574.28,-34.4616"/>
</g>
<!-- Node41 -->
<g id="node41" class="node"><title>Node41</title>
<g id="a_node41"><a xlink:title=" ">
<polygon fill="white" stroke="#bfbfbf" points="3577.5,-73 3577.5,-92 3725.5,-92 3725.5,-73 3577.5,-73"/>
<text text-anchor="middle" x="3651.5" y="-80" font-family="Helvetica,sans-Serif" font-size="10.00">../common/mmw_messages.h</text>
</a>
</g>
</g>
<!-- Node1&#45;&gt;Node41 -->
<g id="edge40" class="edge"><title>Node1&#45;&gt;Node41</title>
<path fill="none" stroke="midnightblue" d="M1592.72,-142.938C1827,-142.416 3163.16,-137.713 3568.5,-98 3578.65,-97.0051 3589.44,-95.476 3599.75,-93.7775"/>
<polygon fill="midnightblue" stroke="midnightblue" points="3600.61,-97.1817 3609.87,-92.0362 3599.42,-90.2831 3600.61,-97.1817"/>
</g>
<!-- Node42 -->
<g id="node42" class="node"><title>Node42</title>
<g id="a_node42"><a xlink:href="mm_wave___x_s_s_8h.html" target="_top" xlink:title=" ">
<polygon fill="white" stroke="black" points="1586,-73 1586,-92 1675,-92 1675,-73 1586,-73"/>
<text text-anchor="middle" x="1630.5" y="-80" font-family="Helvetica,sans-Serif" font-size="10.00">mmWave_XSS.h</text>
</a>
</g>
</g>
<!-- Node1&#45;&gt;Node42 -->
<g id="edge41" class="edge"><title>Node1&#45;&gt;Node42</title>
<path fill="none" stroke="midnightblue" d="M1567.96,-134.475C1579.45,-125.108 1598.13,-109.884 1612.09,-98.5081"/>
<polygon fill="midnightblue" stroke="midnightblue" points="1614.52,-101.04 1620.06,-92.0091 1610.1,-95.614 1614.52,-101.04"/>
</g>
<!-- Node42&#45;&gt;Node16 -->
<g id="edge55" class="edge"><title>Node42&#45;&gt;Node16</title>
<path fill="none" stroke="midnightblue" d="M1585.88,-79.0966C1428.44,-70.5604 904.382,-41.6459 829.5,-31 822.578,-30.0159 815.3,-28.6877 808.219,-27.2329"/>
<polygon fill="midnightblue" stroke="midnightblue" points="808.566,-23.727 798.052,-25.0361 807.087,-30.5692 808.566,-23.727"/>
</g>
<!-- Node42&#45;&gt;Node17 -->
<g id="edge54" class="edge"><title>Node42&#45;&gt;Node17</title>
<path fill="none" stroke="midnightblue" d="M1585.73,-78.6461C1459.04,-70.4701 1099.67,-46.5518 982.5,-31 973.971,-29.868 964.956,-28.4102 956.216,-26.8567"/>
<polygon fill="midnightblue" stroke="midnightblue" points="956.596,-23.368 946.128,-25.0029 955.331,-30.2527 956.596,-23.368"/>
</g>
<!-- Node42&#45;&gt;Node24 -->
<g id="edge49" class="edge"><title>Node42&#45;&gt;Node24</title>
<path fill="none" stroke="midnightblue" d="M1585.71,-77.969C1499.75,-70.9447 1305.73,-53.9005 1143.5,-31 1134.87,-29.7813 1125.75,-28.3196 1116.86,-26.8"/>
<polygon fill="midnightblue" stroke="midnightblue" points="1117.42,-23.345 1106.97,-25.0695 1116.22,-30.2403 1117.42,-23.345"/>
</g>
<!-- Node42&#45;&gt;Node27 -->
<g id="edge43" class="edge"><title>Node42&#45;&gt;Node27</title>
<path fill="none" stroke="midnightblue" d="M1585.98,-77.0372C1516.08,-69.6712 1376.47,-53.5123 1259.5,-31 1254.09,-29.9579 1248.42,-28.7239 1242.84,-27.4225"/>
<polygon fill="midnightblue" stroke="midnightblue" points="1243.51,-23.9832 1232.97,-25.0341 1241.86,-30.787 1243.51,-23.9832"/>
</g>
<!-- Node42&#45;&gt;Node28 -->
<g id="edge47" class="edge"><title>Node42&#45;&gt;Node28</title>
<path fill="none" stroke="midnightblue" d="M1585.88,-72.9143C1535.97,-63.2053 1452.79,-46.6983 1381.5,-31 1376.38,-29.8731 1371.03,-28.6573 1365.72,-27.4258"/>
<polygon fill="midnightblue" stroke="midnightblue" points="1366.15,-23.932 1355.61,-25.0577 1364.55,-30.7473 1366.15,-23.932"/>
</g>
<!-- Node42&#45;&gt;Node29 -->
<g id="edge44" class="edge"><title>Node42&#45;&gt;Node29</title>
<path fill="none" stroke="midnightblue" d="M1604.87,-72.8685C1570.89,-61.4245 1510.78,-41.1807 1472.6,-28.3223"/>
<polygon fill="midnightblue" stroke="midnightblue" points="1473.52,-24.9385 1462.93,-25.0637 1471.29,-31.5724 1473.52,-24.9385"/>
</g>
<!-- Node42&#45;&gt;Node30 -->
<g id="edge45" class="edge"><title>Node42&#45;&gt;Node30</title>
<path fill="none" stroke="midnightblue" d="M1620.65,-72.7338C1608.94,-62.3055 1589.18,-44.7088 1574.88,-31.9732"/>
<polygon fill="midnightblue" stroke="midnightblue" points="1576.99,-29.1634 1567.19,-25.1273 1572.33,-34.3913 1576.99,-29.1634"/>
</g>
<!-- Node42&#45;&gt;Node32 -->
<g id="edge48" class="edge"><title>Node42&#45;&gt;Node32</title>
<path fill="none" stroke="midnightblue" d="M1661.56,-72.9822C1670.52,-70.7655 1680.35,-68.5635 1689.5,-67 1848.17,-39.8862 1894.02,-59.9301 2055.51,-31.1724"/>
<polygon fill="midnightblue" stroke="midnightblue" points="2056.59,-34.5327 2065.8,-29.301 2055.34,-27.6455 2056.59,-34.5327"/>
</g>
<!-- Node42&#45;&gt;Node34 -->
<g id="edge53" class="edge"><title>Node42&#45;&gt;Node34</title>
<path fill="none" stroke="midnightblue" d="M1675.33,-74.1658C1691.71,-71.6526 1710.42,-68.9783 1727.5,-67 1921.09,-44.582 1971.7,-59.3788 2164.5,-31 2171.73,-29.9365 2179.33,-28.5659 2186.74,-27.0926"/>
<polygon fill="midnightblue" stroke="midnightblue" points="2187.58,-30.4937 2196.66,-25.0393 2186.16,-23.639 2187.58,-30.4937"/>
</g>
<!-- Node42&#45;&gt;Node36 -->
<g id="edge46" class="edge"><title>Node42&#45;&gt;Node36</title>
<path fill="none" stroke="midnightblue" d="M1675.15,-76.2517C1701.43,-73.2759 1735.32,-69.6329 1765.5,-67 2003.36,-46.247 2064.76,-62.0173 2301.5,-31 2309.71,-29.9239 2318.39,-28.4939 2326.79,-26.9508"/>
<polygon fill="midnightblue" stroke="midnightblue" points="2327.7,-30.3416 2336.86,-25.0285 2326.38,-23.4657 2327.7,-30.3416"/>
</g>
<!-- Node42&#45;&gt;Node37 -->
<g id="edge50" class="edge"><title>Node42&#45;&gt;Node37</title>
<path fill="none" stroke="midnightblue" d="M1675.28,-77.4011C1710.19,-74.2891 1759.9,-70.0412 1803.5,-67 2090.36,-46.9894 2164.79,-71.3955 2449.5,-31 2456.29,-30.036 2463.44,-28.7054 2470.37,-27.2383"/>
<polygon fill="midnightblue" stroke="midnightblue" points="2471.33,-30.6117 2480.32,-25.0179 2469.8,-23.7797 2471.33,-30.6117"/>
</g>
<!-- Node42&#45;&gt;Node40 -->
<g id="edge56" class="edge"><title>Node42&#45;&gt;Node40</title>
<path fill="none" stroke="midnightblue" d="M1675.35,-78.1621C1718.05,-75.0445 1784.14,-70.3775 1841.5,-67 2164.21,-47.9998 2250.14,-74.6937 2573.63,-31.1063"/>
<polygon fill="midnightblue" stroke="midnightblue" points="2574.32,-34.5443 2583.76,-29.7288 2573.38,-27.6081 2574.32,-34.5443"/>
</g>
<!-- Node43 -->
<g id="node43" class="node"><title>Node43</title>
<g id="a_node43"><a xlink:title=" ">
<polygon fill="white" stroke="#bfbfbf" points="1630.5,-6 1630.5,-25 1766.5,-25 1766.5,-6 1630.5,-6"/>
<text text-anchor="middle" x="1698.5" y="-13" font-family="Helvetica,sans-Serif" font-size="10.00">ti/common/mmwave_error.h</text>
</a>
</g>
</g>
<!-- Node42&#45;&gt;Node43 -->
<g id="edge42" class="edge"><title>Node42&#45;&gt;Node43</title>
<path fill="none" stroke="midnightblue" d="M1639.67,-72.7338C1650.48,-62.403 1668.65,-45.0371 1681.94,-32.3315"/>
<polygon fill="midnightblue" stroke="midnightblue" points="1684.66,-34.5672 1689.47,-25.1273 1679.83,-29.5071 1684.66,-34.5672"/>
</g>
<!-- Node44 -->
<g id="node44" class="node"><title>Node44</title>
<g id="a_node44"><a xlink:title=" ">
<polygon fill="white" stroke="#bfbfbf" points="1784.5,-6 1784.5,-25 1914.5,-25 1914.5,-6 1784.5,-6"/>
<text text-anchor="middle" x="1849.5" y="-13" font-family="Helvetica,sans-Serif" font-size="10.00">ti/drivers/adcbuf/ADCBuf.h</text>
</a>
</g>
</g>
<!-- Node42&#45;&gt;Node44 -->
<g id="edge51" class="edge"><title>Node42&#45;&gt;Node44</title>
<path fill="none" stroke="midnightblue" d="M1659.58,-72.8685C1698.55,-61.3027 1767.8,-40.7489 1811.04,-27.9145"/>
<polygon fill="midnightblue" stroke="midnightblue" points="1812.06,-31.2644 1820.65,-25.0637 1810.06,-24.5538 1812.06,-31.2644"/>
</g>
<!-- Node45 -->
<g id="node45" class="node"><title>Node45</title>
<g id="a_node45"><a xlink:title=" ">
<polygon fill="white" stroke="#bfbfbf" points="1933,-6 1933,-25 2048,-25 2048,-6 1933,-6"/>
<text text-anchor="middle" x="1990.5" y="-13" font-family="Helvetica,sans-Serif" font-size="10.00">ti/drivers/edma/edma.h</text>
</a>
</g>
</g>
<!-- Node42&#45;&gt;Node45 -->
<g id="edge52" class="edge"><title>Node42&#45;&gt;Node45</title>
<path fill="none" stroke="midnightblue" d="M1663.15,-72.9298C1671.69,-70.8381 1680.91,-68.712 1689.5,-67 1792.69,-46.4236 1820.03,-50.1373 1923.5,-31 1929.8,-29.8352 1936.41,-28.5194 1942.92,-27.1676"/>
<polygon fill="midnightblue" stroke="midnightblue" points="1943.96,-30.5254 1953.02,-25.0301 1942.51,-23.6771 1943.96,-30.5254"/>
</g>
</g>
</svg>
