<?xml version="1.0" encoding="UTF-8" standalone="no"?>
<!DOCTYPE svg PUBLIC "-//W3C//DTD SVG 1.1//EN"
 "http://www.w3.org/Graphics/SVG/1.1/DTD/svg11.dtd">
<!-- Generated by graphviz version 2.38.0 (20140413.2041)
 -->
<!-- Title: ti_sysbios_gates_GateHwi_Module__startupDone__S Pages: 1 -->
<svg width="363pt" height="100pt"
 viewBox="0.00 0.00 363.00 99.50" xmlns="http://www.w3.org/2000/svg" xmlns:xlink="http://www.w3.org/1999/xlink">
<g id="graph0" class="graph" transform="scale(1 1) rotate(0) translate(4 95.5)">
<title>ti_sysbios_gates_GateHwi_Module__startupDone__S</title>
<polygon fill="white" stroke="none" points="-4,4 -4,-95.5 359,-95.5 359,4 -4,4"/>
<!-- Node1 -->
<g id="node1" class="node"><title>Node1</title>
<g id="a_node1"><a xlink:title=" ">
<polygon fill="#bfbfbf" stroke="black" points="221,-33 221,-63 355,-63 355,-33 221,-33"/>
<text text-anchor="start" x="229" y="-51" font-family="Helvetica,sans-Serif" font-size="10.00">ti_sysbios_gates_GateHwi</text>
<text text-anchor="middle" x="288" y="-40" font-family="Helvetica,sans-Serif" font-size="10.00">_Module__startupDone__S</text>
</a>
</g>
</g>
<!-- Node2 -->
<g id="node2" class="node"><title>Node2</title>
<g id="a_node2"><a xlink:href="mss__per4f_8c.html#a5a9377a936647bb3e00ca59a42678b66" target="_top" xlink:title=" ">
<polygon fill="white" stroke="black" points="0,-61 0,-91 185,-91 185,-61 0,-61"/>
<text text-anchor="start" x="8" y="-79" font-family="Helvetica,sans-Serif" font-size="10.00">xdc_runtime_Main_Module</text>
<text text-anchor="middle" x="92.5" y="-68" font-family="Helvetica,sans-Serif" font-size="10.00">_GateProxy_Module__startupDone__S</text>
</a>
</g>
</g>
<!-- Node1&#45;&gt;Node2 -->
<g id="edge1" class="edge"><title>Node1&#45;&gt;Node2</title>
<path fill="none" stroke="midnightblue" d="M210.837,-59.021C202.443,-60.2356 193.833,-61.4815 185.275,-62.7199"/>
<polygon fill="midnightblue" stroke="midnightblue" points="211.554,-62.4538 220.949,-57.5577 210.551,-55.526 211.554,-62.4538"/>
</g>
<!-- Node3 -->
<g id="node3" class="node"><title>Node3</title>
<g id="a_node3"><a xlink:href="mss__per4f_8c.html#ad75f4ca79ae33d4a59b06d6fe2c1d66a" target="_top" xlink:title=" ">
<polygon fill="white" stroke="black" points="21.5,-0.5 21.5,-41.5 163.5,-41.5 163.5,-0.5 21.5,-0.5"/>
<text text-anchor="start" x="29.5" y="-29.5" font-family="Helvetica,sans-Serif" font-size="10.00">xdc_runtime_System</text>
<text text-anchor="start" x="29.5" y="-18.5" font-family="Helvetica,sans-Serif" font-size="10.00">_Module_GateProxy_Module</text>
<text text-anchor="middle" x="92.5" y="-7.5" font-family="Helvetica,sans-Serif" font-size="10.00">__startupDone__S</text>
</a>
</g>
</g>
<!-- Node1&#45;&gt;Node3 -->
<g id="edge2" class="edge"><title>Node1&#45;&gt;Node3</title>
<path fill="none" stroke="midnightblue" d="M210.832,-37.3719C195.244,-35.1968 178.908,-32.9174 163.547,-30.774"/>
<polygon fill="midnightblue" stroke="midnightblue" points="210.562,-40.868 220.949,-38.7836 211.529,-33.9352 210.562,-40.868"/>
</g>
</g>
</svg>
