<?xml version="1.0" encoding="UTF-8" standalone="no"?>
<!DOCTYPE svg PUBLIC "-//W3C//DTD SVG 1.1//EN"
 "http://www.w3.org/Graphics/SVG/1.1/DTD/svg11.dtd">
<!-- Generated by graphviz version 2.38.0 (20140413.2041)
 -->
<!-- Title: ti_sysbios_BIOS_RtsGateProxy_Params__init__S Pages: 1 -->
<svg width="343pt" height="39pt"
 viewBox="0.00 0.00 343.00 39.00" xmlns="http://www.w3.org/2000/svg" xmlns:xlink="http://www.w3.org/1999/xlink">
<g id="graph0" class="graph" transform="scale(1 1) rotate(0) translate(4 35)">
<title>ti_sysbios_BIOS_RtsGateProxy_Params__init__S</title>
<polygon fill="white" stroke="none" points="-4,4 -4,-35 339,-35 339,4 -4,4"/>
<!-- Node1 -->
<g id="node1" class="node"><title>Node1</title>
<g id="a_node1"><a xlink:title=" ">
<polygon fill="#bfbfbf" stroke="black" points="0,-0.5 0,-30.5 156,-30.5 156,-0.5 0,-0.5"/>
<text text-anchor="start" x="8" y="-18.5" font-family="Helvetica,sans-Serif" font-size="10.00">ti_sysbios_BIOS_RtsGateProxy</text>
<text text-anchor="middle" x="78" y="-7.5" font-family="Helvetica,sans-Serif" font-size="10.00">_Params__init__S</text>
</a>
</g>
</g>
<!-- Node2 -->
<g id="node2" class="node"><title>Node2</title>
<g id="a_node2"><a xlink:href="mss__per4f_8c.html#a8920df2b4b294adce14a6bab3055a8dc" target="_top" xlink:title=" ">
<polygon fill="white" stroke="black" points="192,-0.5 192,-30.5 335,-30.5 335,-0.5 192,-0.5"/>
<text text-anchor="start" x="200" y="-18.5" font-family="Helvetica,sans-Serif" font-size="10.00">ti_sysbios_gates_GateMutex</text>
<text text-anchor="middle" x="263.5" y="-7.5" font-family="Helvetica,sans-Serif" font-size="10.00">_Params__init__S</text>
</a>
</g>
</g>
<!-- Node1&#45;&gt;Node2 -->
<g id="edge1" class="edge"><title>Node1&#45;&gt;Node2</title>
<path fill="none" stroke="midnightblue" d="M156.023,-15.5C164.46,-15.5 173.068,-15.5 181.551,-15.5"/>
<polygon fill="midnightblue" stroke="midnightblue" points="181.816,-19.0001 191.816,-15.5 181.816,-12.0001 181.816,-19.0001"/>
</g>
</g>
</svg>
