<?xml version="1.0" encoding="UTF-8" standalone="no"?>
<!DOCTYPE svg PUBLIC "-//W3C//DTD SVG 1.1//EN"
 "http://www.w3.org/Graphics/SVG/1.1/DTD/svg11.dtd">
<!-- Generated by graphviz version 2.38.0 (20140413.2041)
 -->
<!-- Title: mss_cli.c Pages: 1 -->
<svg width="2269pt" height="229pt"
 viewBox="0.00 0.00 2268.50 229.00" xmlns="http://www.w3.org/2000/svg" xmlns:xlink="http://www.w3.org/1999/xlink">
<g id="graph0" class="graph" transform="scale(1 1) rotate(0) translate(4 225)">
<title>mss_cli.c</title>
<polygon fill="white" stroke="none" points="-4,4 -4,-225 2264.5,-225 2264.5,4 -4,4"/>
<!-- Node1 -->
<g id="node1" class="node"><title>Node1</title>
<g id="a_node1"><a xlink:title=" ">
<polygon fill="#bfbfbf" stroke="black" points="1072.5,-201.5 1072.5,-220.5 1131.5,-220.5 1131.5,-201.5 1072.5,-201.5"/>
<text text-anchor="middle" x="1102" y="-208.5" font-family="Helvetica,sans-Serif" font-size="10.00">mss_cli.c</text>
</a>
</g>
</g>
<!-- Node2 -->
<g id="node2" class="node"><title>Node2</title>
<g id="a_node2"><a xlink:href="app__cfg_8h.html" target="_top" xlink:title=" ">
<polygon fill="white" stroke="black" points="146.5,-73 146.5,-92 245.5,-92 245.5,-73 146.5,-73"/>
<text text-anchor="middle" x="196" y="-80" font-family="Helvetica,sans-Serif" font-size="10.00">common/app_cfg.h</text>
</a>
</g>
</g>
<!-- Node1&#45;&gt;Node2 -->
<g id="edge1" class="edge"><title>Node1&#45;&gt;Node2</title>
<path fill="none" stroke="midnightblue" d="M1072.34,-210.402C980.013,-211.132 689.816,-209.466 455,-165 370.466,-148.992 274.818,-114.383 226.873,-95.8332"/>
<polygon fill="midnightblue" stroke="midnightblue" points="227.976,-92.5064 217.388,-92.1311 225.431,-99.0274 227.976,-92.5064"/>
</g>
<!-- Node4 -->
<g id="node4" class="node"><title>Node4</title>
<g id="a_node4"><a xlink:title=" ">
<polygon fill="white" stroke="#bfbfbf" points="0,-6 0,-25 132,-25 132,-6 0,-6"/>
<text text-anchor="middle" x="66" y="-13" font-family="Helvetica,sans-Serif" font-size="10.00">ti/common/sys_common.h</text>
</a>
</g>
</g>
<!-- Node1&#45;&gt;Node4 -->
<g id="edge18" class="edge"><title>Node1&#45;&gt;Node4</title>
<path fill="none" stroke="midnightblue" d="M1072.32,-209.31C949.544,-206.295 480.996,-193.145 336,-165 244.387,-147.217 214.574,-149.879 137,-98 111.363,-80.8551 89.3805,-52.133 76.9265,-33.7653"/>
<polygon fill="midnightblue" stroke="midnightblue" points="79.7291,-31.6567 71.3136,-25.2201 73.8784,-35.4998 79.7291,-31.6567"/>
</g>
<!-- Node6 -->
<g id="node6" class="node"><title>Node6</title>
<g id="a_node6"><a xlink:title=" ">
<polygon fill="white" stroke="#bfbfbf" points="908.5,-140 908.5,-159 957.5,-159 957.5,-140 908.5,-140"/>
<text text-anchor="middle" x="933" y="-147" font-family="Helvetica,sans-Serif" font-size="10.00">stdint.h</text>
</a>
</g>
</g>
<!-- Node1&#45;&gt;Node6 -->
<g id="edge5" class="edge"><title>Node1&#45;&gt;Node6</title>
<path fill="none" stroke="midnightblue" d="M1074.1,-201.431C1046.64,-192.825 1003.61,-178.883 967,-165 965.35,-164.374 963.662,-163.716 961.963,-163.039"/>
<polygon fill="midnightblue" stroke="midnightblue" points="962.887,-159.633 952.308,-159.056 960.218,-166.105 962.887,-159.633"/>
</g>
<!-- Node7 -->
<g id="node7" class="node"><title>Node7</title>
<g id="a_node7"><a xlink:title=" ">
<polygon fill="white" stroke="#bfbfbf" points="976,-140 976,-159 1024,-159 1024,-140 976,-140"/>
<text text-anchor="middle" x="1000" y="-147" font-family="Helvetica,sans-Serif" font-size="10.00">stdlib.h</text>
</a>
</g>
</g>
<!-- Node1&#45;&gt;Node7 -->
<g id="edge6" class="edge"><title>Node1&#45;&gt;Node7</title>
<path fill="none" stroke="midnightblue" d="M1087.39,-201.475C1070.65,-191.711 1043,-175.581 1023.28,-164.081"/>
<polygon fill="midnightblue" stroke="midnightblue" points="1024.99,-161.025 1014.59,-159.009 1021.46,-167.071 1024.99,-161.025"/>
</g>
<!-- Node8 -->
<g id="node8" class="node"><title>Node8</title>
<g id="a_node8"><a xlink:title=" ">
<polygon fill="white" stroke="#bfbfbf" points="1042.5,-140 1042.5,-159 1093.5,-159 1093.5,-140 1042.5,-140"/>
<text text-anchor="middle" x="1068" y="-147" font-family="Helvetica,sans-Serif" font-size="10.00">stddef.h</text>
</a>
</g>
</g>
<!-- Node1&#45;&gt;Node8 -->
<g id="edge7" class="edge"><title>Node1&#45;&gt;Node8</title>
<path fill="none" stroke="midnightblue" d="M1097.13,-201.475C1092.13,-192.727 1084.21,-178.869 1077.89,-167.809"/>
<polygon fill="midnightblue" stroke="midnightblue" points="1080.86,-165.955 1072.86,-159.009 1074.78,-169.428 1080.86,-165.955"/>
</g>
<!-- Node9 -->
<g id="node9" class="node"><title>Node9</title>
<g id="a_node9"><a xlink:title=" ">
<polygon fill="white" stroke="#bfbfbf" points="1111.5,-140 1111.5,-159 1160.5,-159 1160.5,-140 1111.5,-140"/>
<text text-anchor="middle" x="1136" y="-147" font-family="Helvetica,sans-Serif" font-size="10.00">string.h</text>
</a>
</g>
</g>
<!-- Node1&#45;&gt;Node9 -->
<g id="edge8" class="edge"><title>Node1&#45;&gt;Node9</title>
<path fill="none" stroke="midnightblue" d="M1106.87,-201.475C1111.87,-192.727 1119.79,-178.869 1126.11,-167.809"/>
<polygon fill="midnightblue" stroke="midnightblue" points="1129.22,-169.428 1131.14,-159.009 1123.14,-165.955 1129.22,-169.428"/>
</g>
<!-- Node10 -->
<g id="node10" class="node"><title>Node10</title>
<g id="a_node10"><a xlink:title=" ">
<polygon fill="white" stroke="#bfbfbf" points="1179,-140 1179,-159 1225,-159 1225,-140 1179,-140"/>
<text text-anchor="middle" x="1202" y="-147" font-family="Helvetica,sans-Serif" font-size="10.00">stdio.h</text>
</a>
</g>
</g>
<!-- Node1&#45;&gt;Node10 -->
<g id="edge9" class="edge"><title>Node1&#45;&gt;Node10</title>
<path fill="none" stroke="midnightblue" d="M1116.33,-201.475C1132.66,-191.755 1159.6,-175.727 1178.91,-164.237"/>
<polygon fill="midnightblue" stroke="midnightblue" points="1180.89,-167.13 1187.7,-159.009 1177.32,-161.115 1180.89,-167.13"/>
</g>
<!-- Node11 -->
<g id="node11" class="node"><title>Node11</title>
<g id="a_node11"><a xlink:title=" ">
<polygon fill="white" stroke="#bfbfbf" points="1243.5,-140 1243.5,-159 1356.5,-159 1356.5,-140 1243.5,-140"/>
<text text-anchor="middle" x="1300" y="-147" font-family="Helvetica,sans-Serif" font-size="10.00">xdc/runtime/System.h</text>
</a>
</g>
</g>
<!-- Node1&#45;&gt;Node11 -->
<g id="edge10" class="edge"><title>Node1&#45;&gt;Node11</title>
<path fill="none" stroke="midnightblue" d="M1130.37,-201.475C1164.92,-191.092 1223.42,-173.512 1261.88,-161.954"/>
<polygon fill="midnightblue" stroke="midnightblue" points="1263.11,-165.239 1271.68,-159.009 1261.1,-158.535 1263.11,-165.239"/>
</g>
<!-- Node12 -->
<g id="node12" class="node"><title>Node12</title>
<g id="a_node12"><a xlink:title=" ">
<polygon fill="white" stroke="#bfbfbf" points="1374.5,-140 1374.5,-159 1467.5,-159 1467.5,-140 1374.5,-140"/>
<text text-anchor="middle" x="1421" y="-147" font-family="Helvetica,sans-Serif" font-size="10.00">ti/sysbios/BIOS.h</text>
</a>
</g>
</g>
<!-- Node1&#45;&gt;Node12 -->
<g id="edge11" class="edge"><title>Node1&#45;&gt;Node12</title>
<path fill="none" stroke="midnightblue" d="M1131.86,-205.795C1180.96,-198.684 1281.71,-183.257 1366,-165 1370.76,-163.97 1375.72,-162.799 1380.63,-161.58"/>
<polygon fill="midnightblue" stroke="midnightblue" points="1381.75,-164.907 1390.57,-159.039 1380.01,-158.125 1381.75,-164.907"/>
</g>
<!-- Node13 -->
<g id="node13" class="node"><title>Node13</title>
<g id="a_node13"><a xlink:title=" ">
<polygon fill="white" stroke="#bfbfbf" points="1485.5,-140 1485.5,-159 1592.5,-159 1592.5,-140 1485.5,-140"/>
<text text-anchor="middle" x="1539" y="-147" font-family="Helvetica,sans-Serif" font-size="10.00">ti/sysbios/knl/Task.h</text>
</a>
</g>
</g>
<!-- Node1&#45;&gt;Node13 -->
<g id="edge12" class="edge"><title>Node1&#45;&gt;Node13</title>
<path fill="none" stroke="midnightblue" d="M1131.82,-207.548C1195.52,-202.064 1349.47,-187.495 1477,-165 1483.14,-163.916 1489.59,-162.606 1495.91,-161.221"/>
<polygon fill="midnightblue" stroke="midnightblue" points="1496.7,-164.632 1505.68,-159.006 1495.15,-157.805 1496.7,-164.632"/>
</g>
<!-- Node14 -->
<g id="node14" class="node"><title>Node14</title>
<g id="a_node14"><a xlink:title=" ">
<polygon fill="white" stroke="#bfbfbf" points="264,-73 264,-92 374,-92 374,-73 264,-73"/>
<text text-anchor="middle" x="319" y="-80" font-family="Helvetica,sans-Serif" font-size="10.00">ti/sysbios/knl/Event.h</text>
</a>
</g>
</g>
<!-- Node1&#45;&gt;Node14 -->
<g id="edge13" class="edge"><title>Node1&#45;&gt;Node14</title>
<path fill="none" stroke="midnightblue" d="M1072.31,-209.846C991.169,-208.921 759.199,-202.889 571,-165 488.899,-148.471 396.064,-114.208 349.326,-95.8113"/>
<polygon fill="midnightblue" stroke="midnightblue" points="350.391,-92.4684 339.805,-92.0314 347.808,-98.9744 350.391,-92.4684"/>
</g>
<!-- Node15 -->
<g id="node15" class="node"><title>Node15</title>
<g id="a_node15"><a xlink:title=" ">
<polygon fill="white" stroke="#bfbfbf" points="392.5,-73 392.5,-92 527.5,-92 527.5,-73 392.5,-73"/>
<text text-anchor="middle" x="460" y="-80" font-family="Helvetica,sans-Serif" font-size="10.00">ti/sysbios/knl/Semaphore.h</text>
</a>
</g>
</g>
<!-- Node1&#45;&gt;Node15 -->
<g id="edge14" class="edge"><title>Node1&#45;&gt;Node15</title>
<path fill="none" stroke="midnightblue" d="M1072.25,-209.691C1001.16,-208.357 816.188,-201.364 667,-165 599.658,-148.586 525.005,-115.133 486.386,-96.5971"/>
<polygon fill="midnightblue" stroke="midnightblue" points="487.452,-93.2241 476.927,-92.0081 484.397,-99.5221 487.452,-93.2241"/>
</g>
<!-- Node16 -->
<g id="node16" class="node"><title>Node16</title>
<g id="a_node16"><a xlink:title=" ">
<polygon fill="white" stroke="#bfbfbf" points="1611,-140 1611,-159 1721,-159 1721,-140 1611,-140"/>
<text text-anchor="middle" x="1666" y="-147" font-family="Helvetica,sans-Serif" font-size="10.00">ti/sysbios/knl/Clock.h</text>
</a>
</g>
</g>
<!-- Node1&#45;&gt;Node16 -->
<g id="edge15" class="edge"><title>Node1&#45;&gt;Node16</title>
<path fill="none" stroke="midnightblue" d="M1131.76,-208.705C1209.48,-205.025 1424.86,-192.911 1602,-165 1608.65,-163.952 1615.65,-162.614 1622.47,-161.177"/>
<polygon fill="midnightblue" stroke="midnightblue" points="1623.27,-164.585 1632.28,-159.022 1621.77,-157.748 1623.27,-164.585"/>
</g>
<!-- Node17 -->
<g id="node17" class="node"><title>Node17</title>
<g id="a_node17"><a xlink:title=" ">
<polygon fill="white" stroke="#bfbfbf" points="1739,-140 1739,-159 1875,-159 1875,-140 1739,-140"/>
<text text-anchor="middle" x="1807" y="-147" font-family="Helvetica,sans-Serif" font-size="10.00">ti/sysbios/heaps/HeapBuf.h</text>
</a>
</g>
</g>
<!-- Node1&#45;&gt;Node17 -->
<g id="edge16" class="edge"><title>Node1&#45;&gt;Node17</title>
<path fill="none" stroke="midnightblue" d="M1131.55,-209.086C1221.65,-206.041 1500.73,-194.702 1730,-165 1738.53,-163.895 1747.55,-162.45 1756.29,-160.902"/>
<polygon fill="midnightblue" stroke="midnightblue" points="1757.17,-164.298 1766.38,-159.051 1755.91,-157.413 1757.17,-164.298"/>
</g>
<!-- Node18 -->
<g id="node18" class="node"><title>Node18</title>
<g id="a_node18"><a xlink:title=" ">
<polygon fill="white" stroke="#bfbfbf" points="1893.5,-140 1893.5,-159 2036.5,-159 2036.5,-140 1893.5,-140"/>
<text text-anchor="middle" x="1965" y="-147" font-family="Helvetica,sans-Serif" font-size="10.00">ti/sysbios/heaps/HeapMem.h</text>
</a>
</g>
</g>
<!-- Node1&#45;&gt;Node18 -->
<g id="edge17" class="edge"><title>Node1&#45;&gt;Node18</title>
<path fill="none" stroke="midnightblue" d="M1131.58,-209.572C1235.3,-207.799 1591.95,-199.419 1884,-165 1893.27,-163.907 1903.09,-162.427 1912.57,-160.829"/>
<polygon fill="midnightblue" stroke="midnightblue" points="1913.44,-164.231 1922.68,-159.061 1912.23,-157.336 1913.44,-164.231"/>
</g>
<!-- Node19 -->
<g id="node19" class="node"><title>Node19</title>
<g id="a_node19"><a xlink:title=" ">
<polygon fill="white" stroke="#bfbfbf" points="545.5,-73 545.5,-92 654.5,-92 654.5,-73 545.5,-73"/>
<text text-anchor="middle" x="600" y="-80" font-family="Helvetica,sans-Serif" font-size="10.00">ti/drivers/uart/UART.h</text>
</a>
</g>
</g>
<!-- Node1&#45;&gt;Node19 -->
<g id="edge19" class="edge"><title>Node1&#45;&gt;Node19</title>
<path fill="none" stroke="midnightblue" d="M1072.16,-210.689C1007.84,-211.256 852.171,-207.675 731,-165 687.123,-149.547 642.488,-117.552 618.317,-98.571"/>
<polygon fill="midnightblue" stroke="midnightblue" points="620.373,-95.7336 610.378,-92.2216 616.002,-101.201 620.373,-95.7336"/>
</g>
<!-- Node20 -->
<g id="node20" class="node"><title>Node20</title>
<g id="a_node20"><a xlink:title=" ">
<polygon fill="white" stroke="#bfbfbf" points="672.5,-73 672.5,-92 791.5,-92 791.5,-73 672.5,-73"/>
<text text-anchor="middle" x="732" y="-80" font-family="Helvetica,sans-Serif" font-size="10.00">ti/drivers/osal/DebugP.h</text>
</a>
</g>
</g>
<!-- Node1&#45;&gt;Node20 -->
<g id="edge20" class="edge"><title>Node1&#45;&gt;Node20</title>
<path fill="none" stroke="midnightblue" d="M1072.44,-210.375C996.623,-210.708 797.958,-207.417 751,-165 733.597,-149.28 730.587,-120.983 730.737,-102.218"/>
<polygon fill="midnightblue" stroke="midnightblue" points="734.236,-102.328 731.123,-92.2011 727.241,-102.059 734.236,-102.328"/>
</g>
<!-- Node21 -->
<g id="node21" class="node"><title>Node21</title>
<g id="a_node21"><a xlink:title=" ">
<polygon fill="white" stroke="#bfbfbf" points="2055,-134.5 2055,-164.5 2165,-164.5 2165,-134.5 2055,-134.5"/>
<text text-anchor="start" x="2063" y="-152.5" font-family="Helvetica,sans-Serif" font-size="10.00">ti/control/mmwavelink</text>
<text text-anchor="middle" x="2110" y="-141.5" font-family="Helvetica,sans-Serif" font-size="10.00">/mmwavelink.h</text>
</a>
</g>
</g>
<!-- Node1&#45;&gt;Node21 -->
<g id="edge21" class="edge"><title>Node1&#45;&gt;Node21</title>
<path fill="none" stroke="midnightblue" d="M1131.53,-210.467C1247.18,-211.906 1680.41,-213.629 2045,-164.958"/>
<polygon fill="midnightblue" stroke="midnightblue" points="2045.51,-168.421 2054.95,-163.615 2044.58,-161.484 2045.51,-168.421"/>
</g>
<!-- Node22 -->
<g id="node22" class="node"><title>Node22</title>
<g id="a_node22"><a xlink:title=" ">
<polygon fill="white" stroke="#bfbfbf" points="2183.5,-140 2183.5,-159 2260.5,-159 2260.5,-140 2183.5,-140"/>
<text text-anchor="middle" x="2222" y="-147" font-family="Helvetica,sans-Serif" font-size="10.00">ti/utils/cli/cli.h</text>
</a>
</g>
</g>
<!-- Node1&#45;&gt;Node22 -->
<g id="edge22" class="edge"><title>Node1&#45;&gt;Node22</title>
<path fill="none" stroke="midnightblue" d="M1131.63,-209.761C1282.39,-208.393 1965.31,-200.32 2174,-165 2178.57,-164.227 2183.31,-163.15 2187.95,-161.928"/>
<polygon fill="midnightblue" stroke="midnightblue" points="2189.22,-165.205 2197.86,-159.082 2187.29,-158.477 2189.22,-165.205"/>
</g>
<!-- Node23 -->
<g id="node23" class="node"><title>Node23</title>
<g id="a_node23"><a xlink:href="mm_wave___x_s_s_8h.html" target="_top" xlink:title=" ">
<polygon fill="white" stroke="black" points="760,-140 760,-159 890,-159 890,-140 760,-140"/>
<text text-anchor="middle" x="825" y="-147" font-family="Helvetica,sans-Serif" font-size="10.00">common/mmWave_XSS.h</text>
</a>
</g>
</g>
<!-- Node1&#45;&gt;Node23 -->
<g id="edge23" class="edge"><title>Node1&#45;&gt;Node23</title>
<path fill="none" stroke="midnightblue" d="M1072.36,-203.632C1025.09,-193.48 932.128,-173.511 874.602,-161.155"/>
<polygon fill="midnightblue" stroke="midnightblue" points="875.153,-157.693 864.641,-159.015 873.683,-164.537 875.153,-157.693"/>
</g>
<!-- Node3 -->
<g id="node3" class="node"><title>Node3</title>
<g id="a_node3"><a xlink:href="device__cfg_8h.html" target="_top" xlink:title="This file holds constants related to the system chirp configuration as well as the calling the profil...">
<polygon fill="white" stroke="black" points="296,-6 296,-25 366,-25 366,-6 296,-6"/>
<text text-anchor="middle" x="331" y="-13" font-family="Helvetica,sans-Serif" font-size="10.00">device_cfg.h</text>
</a>
</g>
</g>
<!-- Node2&#45;&gt;Node3 -->
<g id="edge2" class="edge"><title>Node2&#45;&gt;Node3</title>
<path fill="none" stroke="midnightblue" d="M213.927,-72.8685C236.923,-61.7961 277.029,-42.4862 303.797,-29.5978"/>
<polygon fill="midnightblue" stroke="midnightblue" points="305.507,-32.6589 312.999,-25.1672 302.47,-26.3519 305.507,-32.6589"/>
</g>
<!-- Node2&#45;&gt;Node4 -->
<g id="edge3" class="edge"><title>Node2&#45;&gt;Node4</title>
<path fill="none" stroke="midnightblue" d="M178.737,-72.8685C156.689,-61.8447 118.311,-42.6554 92.5356,-29.7678"/>
<polygon fill="midnightblue" stroke="midnightblue" points="93.8439,-26.5089 83.3344,-25.1672 90.7134,-32.7699 93.8439,-26.5089"/>
</g>
<!-- Node5 -->
<g id="node5" class="node"><title>Node5</title>
<g id="a_node5"><a xlink:href="config__chirp__design___u_s_r_r30_8h.html" target="_top" xlink:title=" ">
<polygon fill="white" stroke="black" points="150,-0.5 150,-30.5 278,-30.5 278,-0.5 150,-0.5"/>
<text text-anchor="start" x="158" y="-18.5" font-family="Helvetica,sans-Serif" font-size="10.00">common/profiles/config</text>
<text text-anchor="middle" x="214" y="-7.5" font-family="Helvetica,sans-Serif" font-size="10.00">_chirp_design_USRR30.h</text>
</a>
</g>
</g>
<!-- Node2&#45;&gt;Node5 -->
<g id="edge4" class="edge"><title>Node2&#45;&gt;Node5</title>
<path fill="none" stroke="midnightblue" d="M198.428,-72.7338C200.72,-64.4561 204.263,-51.6619 207.391,-40.3674"/>
<polygon fill="midnightblue" stroke="midnightblue" points="210.803,-41.1604 210.098,-30.589 204.057,-39.2922 210.803,-41.1604"/>
</g>
<!-- Node23&#45;&gt;Node2 -->
<g id="edge38" class="edge"><title>Node23&#45;&gt;Node2</title>
<path fill="none" stroke="midnightblue" d="M759.625,-145.954C653.239,-141.085 436.304,-128.129 255,-98 249.134,-97.0252 242.991,-95.7766 236.976,-94.422"/>
<polygon fill="midnightblue" stroke="midnightblue" points="237.585,-90.9695 227.048,-92.0719 235.973,-97.7812 237.585,-90.9695"/>
</g>
<!-- Node23&#45;&gt;Node14 -->
<g id="edge37" class="edge"><title>Node23&#45;&gt;Node14</title>
<path fill="none" stroke="midnightblue" d="M759.902,-143.299C673.42,-135.881 516.062,-120.606 383,-98 376.661,-96.9231 370.007,-95.6163 363.484,-94.2333"/>
<polygon fill="midnightblue" stroke="midnightblue" points="363.924,-90.7467 353.406,-92.0194 362.422,-97.5836 363.924,-90.7467"/>
</g>
<!-- Node23&#45;&gt;Node15 -->
<g id="edge36" class="edge"><title>Node23&#45;&gt;Node15</title>
<path fill="none" stroke="midnightblue" d="M774.837,-139.978C717.164,-130.123 619.674,-113.292 536,-98 528.914,-96.705 521.462,-95.3164 514.108,-93.93"/>
<polygon fill="midnightblue" stroke="midnightblue" points="514.661,-90.4727 504.185,-92.0501 513.358,-97.3503 514.661,-90.4727"/>
</g>
<!-- Node23&#45;&gt;Node19 -->
<g id="edge27" class="edge"><title>Node23&#45;&gt;Node19</title>
<path fill="none" stroke="midnightblue" d="M795.122,-139.869C755.086,-128.303 683.939,-107.749 639.512,-94.9145"/>
<polygon fill="midnightblue" stroke="midnightblue" points="640.222,-91.4766 629.643,-92.0637 638.279,-98.2016 640.222,-91.4766"/>
</g>
<!-- Node23&#45;&gt;Node20 -->
<g id="edge35" class="edge"><title>Node23&#45;&gt;Node20</title>
<path fill="none" stroke="midnightblue" d="M812.458,-139.734C797.119,-129.013 770.941,-110.716 752.623,-97.9137"/>
<polygon fill="midnightblue" stroke="midnightblue" points="754.545,-94.9873 744.344,-92.1273 750.535,-100.725 754.545,-94.9873"/>
</g>
<!-- Node24 -->
<g id="node24" class="node"><title>Node24</title>
<g id="a_node24"><a xlink:title=" ">
<polygon fill="white" stroke="#bfbfbf" points="1092,-73 1092,-92 1228,-92 1228,-73 1092,-73"/>
<text text-anchor="middle" x="1160" y="-80" font-family="Helvetica,sans-Serif" font-size="10.00">ti/common/mmwave_error.h</text>
</a>
</g>
</g>
<!-- Node23&#45;&gt;Node24 -->
<g id="edge24" class="edge"><title>Node23&#45;&gt;Node24</title>
<path fill="none" stroke="midnightblue" d="M869.14,-139.936C930.106,-128.106 1040,-106.784 1105.85,-94.0063"/>
<polygon fill="midnightblue" stroke="midnightblue" points="1106.88,-97.3725 1116.03,-92.0317 1105.55,-90.5007 1106.88,-97.3725"/>
</g>
<!-- Node25 -->
<g id="node25" class="node"><title>Node25</title>
<g id="a_node25"><a xlink:title=" ">
<polygon fill="white" stroke="#bfbfbf" points="1246,-73 1246,-92 1344,-92 1344,-73 1246,-73"/>
<text text-anchor="middle" x="1295" y="-80" font-family="Helvetica,sans-Serif" font-size="10.00">ti/drivers/soc/soc.h</text>
</a>
</g>
</g>
<!-- Node23&#45;&gt;Node25 -->
<g id="edge25" class="edge"><title>Node23&#45;&gt;Node25</title>
<path fill="none" stroke="midnightblue" d="M865.763,-139.97C876.838,-137.83 888.852,-135.67 900,-134 1048.97,-111.684 1088.69,-124.33 1237,-98 1242.56,-97.0135 1248.37,-95.7919 1254.08,-94.4796"/>
<polygon fill="midnightblue" stroke="midnightblue" points="1255.26,-97.7943 1264.17,-92.0506 1253.63,-90.9888 1255.26,-97.7943"/>
</g>
<!-- Node26 -->
<g id="node26" class="node"><title>Node26</title>
<g id="a_node26"><a xlink:title=" ">
<polygon fill="white" stroke="#bfbfbf" points="1362,-73 1362,-92 1456,-92 1456,-73 1362,-73"/>
<text text-anchor="middle" x="1409" y="-80" font-family="Helvetica,sans-Serif" font-size="10.00">ti/drivers/crc/crc.h</text>
</a>
</g>
</g>
<!-- Node23&#45;&gt;Node26 -->
<g id="edge26" class="edge"><title>Node23&#45;&gt;Node26</title>
<path fill="none" stroke="midnightblue" d="M864.565,-139.994C875.96,-137.777 888.436,-135.572 900,-134 1100.13,-106.789 1153.82,-131.439 1353,-98 1358.51,-97.0751 1364.27,-95.8675 1369.91,-94.5438"/>
<polygon fill="midnightblue" stroke="midnightblue" points="1370.99,-97.8809 1379.85,-92.0717 1369.3,-91.0877 1370.99,-97.8809"/>
</g>
<!-- Node27 -->
<g id="node27" class="node"><title>Node27</title>
<g id="a_node27"><a xlink:title=" ">
<polygon fill="white" stroke="#bfbfbf" points="1474,-73 1474,-92 1604,-92 1604,-73 1474,-73"/>
<text text-anchor="middle" x="1539" y="-80" font-family="Helvetica,sans-Serif" font-size="10.00">ti/drivers/pinmux/pinmux.h</text>
</a>
</g>
</g>
<!-- Node23&#45;&gt;Node27 -->
<g id="edge28" class="edge"><title>Node23&#45;&gt;Node27</title>
<path fill="none" stroke="midnightblue" d="M864.162,-139.952C875.66,-137.708 888.292,-135.499 900,-134 1149.58,-102.054 1215.46,-130.26 1465,-98 1473.22,-96.938 1481.89,-95.5152 1490.3,-93.9748"/>
<polygon fill="midnightblue" stroke="midnightblue" points="1491.2,-97.3657 1500.37,-92.0538 1489.89,-90.4897 1491.2,-97.3657"/>
</g>
<!-- Node28 -->
<g id="node28" class="node"><title>Node28</title>
<g id="a_node28"><a xlink:title=" ">
<polygon fill="white" stroke="#bfbfbf" points="1622,-73 1622,-92 1726,-92 1726,-73 1622,-73"/>
<text text-anchor="middle" x="1674" y="-80" font-family="Helvetica,sans-Serif" font-size="10.00">ti/drivers/esm/esm.h</text>
</a>
</g>
</g>
<!-- Node23&#45;&gt;Node28 -->
<g id="edge29" class="edge"><title>Node23&#45;&gt;Node28</title>
<path fill="none" stroke="midnightblue" d="M863.762,-139.929C875.364,-137.656 888.151,-135.437 900,-134 1214.98,-95.7917 1298.9,-142.876 1613,-98 1619.44,-97.0806 1626.19,-95.8011 1632.76,-94.3795"/>
<polygon fill="midnightblue" stroke="midnightblue" points="1633.9,-97.7084 1642.86,-92.06 1632.34,-90.8858 1633.9,-97.7084"/>
</g>
<!-- Node29 -->
<g id="node29" class="node"><title>Node29</title>
<g id="a_node29"><a xlink:title=" ">
<polygon fill="white" stroke="#bfbfbf" points="1744.5,-67.5 1744.5,-97.5 1833.5,-97.5 1833.5,-67.5 1744.5,-67.5"/>
<text text-anchor="start" x="1752.5" y="-85.5" font-family="Helvetica,sans-Serif" font-size="10.00">ti/drivers/mailbox</text>
<text text-anchor="middle" x="1789" y="-74.5" font-family="Helvetica,sans-Serif" font-size="10.00">/mailbox.h</text>
</a>
</g>
</g>
<!-- Node23&#45;&gt;Node29 -->
<g id="edge30" class="edge"><title>Node23&#45;&gt;Node29</title>
<path fill="none" stroke="midnightblue" d="M863.369,-139.95C875.073,-137.649 888.014,-135.409 900,-134 1265.58,-91.0187 1366.06,-153.359 1734.24,-97.8395"/>
<polygon fill="midnightblue" stroke="midnightblue" points="1735.01,-101.261 1744.37,-96.2916 1733.96,-94.3415 1735.01,-101.261"/>
</g>
<!-- Node30 -->
<g id="node30" class="node"><title>Node30</title>
<g id="a_node30"><a xlink:title=" ">
<polygon fill="white" stroke="#bfbfbf" points="1851.5,-73 1851.5,-92 1994.5,-92 1994.5,-73 1851.5,-73"/>
<text text-anchor="middle" x="1923" y="-80" font-family="Helvetica,sans-Serif" font-size="10.00">ti/control/mmwave/mmwave.h</text>
</a>
</g>
</g>
<!-- Node23&#45;&gt;Node30 -->
<g id="edge31" class="edge"><title>Node23&#45;&gt;Node30</title>
<path fill="none" stroke="midnightblue" d="M862.98,-139.989C874.784,-137.66 887.879,-135.395 900,-134 1316.67,-86.0536 1426.06,-143.514 1843,-98 1852.48,-96.9655 1862.52,-95.4676 1872.17,-93.8228"/>
<polygon fill="midnightblue" stroke="midnightblue" points="1872.82,-97.2633 1882.05,-92.0689 1871.59,-90.3711 1872.82,-97.2633"/>
</g>
<!-- Node31 -->
<g id="node31" class="node"><title>Node31</title>
<g id="a_node31"><a xlink:title=" ">
<polygon fill="white" stroke="#bfbfbf" points="2012.5,-73 2012.5,-92 2119.5,-92 2119.5,-73 2012.5,-73"/>
<text text-anchor="middle" x="2066" y="-80" font-family="Helvetica,sans-Serif" font-size="10.00">ti/drivers/cbuff/cbuff.h</text>
</a>
</g>
</g>
<!-- Node23&#45;&gt;Node31 -->
<g id="edge32" class="edge"><title>Node23&#45;&gt;Node31</title>
<path fill="none" stroke="midnightblue" d="M862.975,-139.948C874.779,-137.617 887.875,-135.361 900,-134 1387.86,-79.2348 1517.29,-162.21 2004,-98 2010.85,-97.0966 2018.05,-95.7703 2025.02,-94.2815"/>
<polygon fill="midnightblue" stroke="midnightblue" points="2026.02,-97.6424 2035,-92.0141 2024.47,-90.8163 2026.02,-97.6424"/>
</g>
<!-- Node32 -->
<g id="node32" class="node"><title>Node32</title>
<g id="a_node32"><a xlink:title=" ">
<polygon fill="white" stroke="#bfbfbf" points="810,-73 810,-92 940,-92 940,-73 810,-73"/>
<text text-anchor="middle" x="875" y="-80" font-family="Helvetica,sans-Serif" font-size="10.00">ti/drivers/adcbuf/ADCBuf.h</text>
</a>
</g>
</g>
<!-- Node23&#45;&gt;Node32 -->
<g id="edge33" class="edge"><title>Node23&#45;&gt;Node32</title>
<path fill="none" stroke="midnightblue" d="M831.743,-139.734C839.54,-129.598 852.546,-112.69 862.265,-100.056"/>
<polygon fill="midnightblue" stroke="midnightblue" points="865.041,-102.188 868.364,-92.1273 859.492,-97.9196 865.041,-102.188"/>
</g>
<!-- Node33 -->
<g id="node33" class="node"><title>Node33</title>
<g id="a_node33"><a xlink:title=" ">
<polygon fill="white" stroke="#bfbfbf" points="958.5,-73 958.5,-92 1073.5,-92 1073.5,-73 958.5,-73"/>
<text text-anchor="middle" x="1016" y="-80" font-family="Helvetica,sans-Serif" font-size="10.00">ti/drivers/edma/edma.h</text>
</a>
</g>
</g>
<!-- Node23&#45;&gt;Node33 -->
<g id="edge34" class="edge"><title>Node23&#45;&gt;Node33</title>
<path fill="none" stroke="midnightblue" d="M850.363,-139.869C883.991,-128.424 943.477,-108.181 981.261,-95.3223"/>
<polygon fill="midnightblue" stroke="midnightblue" points="982.497,-98.5988 990.836,-92.0637 980.242,-91.972 982.497,-98.5988"/>
</g>
</g>
</svg>
