<?xml version="1.0" encoding="UTF-8" standalone="no"?>
<!DOCTYPE svg PUBLIC "-//W3C//DTD SVG 1.1//EN"
 "http://www.w3.org/Graphics/SVG/1.1/DTD/svg11.dtd">
<!-- Generated by graphviz version 2.38.0 (20140413.2041)
 -->
<!-- Title: xdc_runtime_Memory_HeapProxy_Handle__label__S Pages: 1 -->
<svg width="339pt" height="39pt"
 viewBox="0.00 0.00 339.00 39.00" xmlns="http://www.w3.org/2000/svg" xmlns:xlink="http://www.w3.org/1999/xlink">
<g id="graph0" class="graph" transform="scale(1 1) rotate(0) translate(4 35)">
<title>xdc_runtime_Memory_HeapProxy_Handle__label__S</title>
<polygon fill="white" stroke="none" points="-4,4 -4,-35 335,-35 335,4 -4,4"/>
<!-- Node1 -->
<g id="node1" class="node"><title>Node1</title>
<g id="a_node1"><a xlink:title=" ">
<polygon fill="#bfbfbf" stroke="black" points="0,-0.5 0,-30.5 153,-30.5 153,-0.5 0,-0.5"/>
<text text-anchor="start" x="8" y="-18.5" font-family="Helvetica,sans-Serif" font-size="10.00">xdc_runtime_Memory</text>
<text text-anchor="middle" x="76.5" y="-7.5" font-family="Helvetica,sans-Serif" font-size="10.00">_HeapProxy_Handle__label__S</text>
</a>
</g>
</g>
<!-- Node2 -->
<g id="node2" class="node"><title>Node2</title>
<g id="a_node2"><a xlink:href="mss__mrr__per4f_8c.html#a92dbf6b2eb997e0be58eece75aa3a0ad" target="_top" xlink:title=" ">
<polygon fill="white" stroke="black" points="189,-0.5 189,-30.5 331,-30.5 331,-0.5 189,-0.5"/>
<text text-anchor="start" x="197" y="-18.5" font-family="Helvetica,sans-Serif" font-size="10.00">ti_sysbios_heaps_HeapMem</text>
<text text-anchor="middle" x="260" y="-7.5" font-family="Helvetica,sans-Serif" font-size="10.00">_Handle__label__S</text>
</a>
</g>
</g>
<!-- Node1&#45;&gt;Node2 -->
<g id="edge1" class="edge"><title>Node1&#45;&gt;Node2</title>
<path fill="none" stroke="midnightblue" d="M153.158,-15.5C161.595,-15.5 170.21,-15.5 178.702,-15.5"/>
<polygon fill="midnightblue" stroke="midnightblue" points="178.979,-19.0001 188.978,-15.5 178.978,-12.0001 178.979,-19.0001"/>
</g>
</g>
</svg>
