<?xml version="1.0" encoding="UTF-8" standalone="no"?>
<!DOCTYPE svg PUBLIC "-//W3C//DTD SVG 1.1//EN"
 "http://www.w3.org/Graphics/SVG/1.1/DTD/svg11.dtd">
<!-- Generated by graphviz version 2.38.0 (20140413.2041)
 -->
<!-- Title: ti_sysbios_BIOS_startFunc__I Pages: 1 -->
<svg width="348pt" height="127pt"
 viewBox="0.00 0.00 348.00 126.50" xmlns="http://www.w3.org/2000/svg" xmlns:xlink="http://www.w3.org/1999/xlink">
<g id="graph0" class="graph" transform="scale(1 1) rotate(0) translate(4 122.5)">
<title>ti_sysbios_BIOS_startFunc__I</title>
<polygon fill="white" stroke="none" points="-4,4 -4,-122.5 344,-122.5 344,4 -4,4"/>
<!-- Node1 -->
<g id="node1" class="node"><title>Node1</title>
<g id="a_node1"><a xlink:title=" ">
<polygon fill="#bfbfbf" stroke="black" points="0,-55 0,-74 149,-74 149,-55 0,-55"/>
<text text-anchor="middle" x="74.5" y="-62" font-family="Helvetica,sans-Serif" font-size="10.00">ti_sysbios_BIOS_startFunc__I</text>
</a>
</g>
</g>
<!-- Node2 -->
<g id="node2" class="node"><title>Node2</title>
<g id="a_node2"><a xlink:href="mss__per4f_8c.html#a3111187312092118baf5595fc0af26b7" target="_top" xlink:title=" ">
<polygon fill="white" stroke="black" points="185,-99 185,-118 340,-118 340,-99 185,-99"/>
<text text-anchor="middle" x="262.5" y="-106" font-family="Helvetica,sans-Serif" font-size="10.00">ti_sysbios_BIOS_atExitFunc__I</text>
</a>
</g>
</g>
<!-- Node1&#45;&gt;Node2 -->
<g id="edge1" class="edge"><title>Node1&#45;&gt;Node2</title>
<path fill="none" stroke="midnightblue" d="M115.859,-74.0473C143.889,-80.6781 181.432,-89.5591 211.379,-96.6435"/>
<polygon fill="midnightblue" stroke="midnightblue" points="210.682,-100.075 221.22,-98.9713 212.294,-93.2632 210.682,-100.075"/>
</g>
<!-- Node3 -->
<g id="node3" class="node"><title>Node3</title>
<g id="a_node3"><a xlink:href="mss__per4f_8c.html#aff530057f0b9f915b995bfcd84026544" target="_top" xlink:title=" ">
<polygon fill="white" stroke="black" points="199,-49.5 199,-79.5 326,-79.5 326,-49.5 199,-49.5"/>
<text text-anchor="start" x="207" y="-67.5" font-family="Helvetica,sans-Serif" font-size="10.00">ti_sysbios_BIOS_register</text>
<text text-anchor="middle" x="262.5" y="-56.5" font-family="Helvetica,sans-Serif" font-size="10.00">RTSLock</text>
</a>
</g>
</g>
<!-- Node1&#45;&gt;Node3 -->
<g id="edge2" class="edge"><title>Node1&#45;&gt;Node3</title>
<path fill="none" stroke="midnightblue" d="M149.012,-64.5C161.992,-64.5 175.503,-64.5 188.469,-64.5"/>
<polygon fill="midnightblue" stroke="midnightblue" points="188.732,-68.0001 198.731,-64.5 188.731,-61.0001 188.732,-68.0001"/>
</g>
<!-- Node4 -->
<g id="node4" class="node"><title>Node4</title>
<g id="a_node4"><a xlink:href="mss__per4f_8c.html#aa5cdba027ddf69477966dcc02a4a87f7" target="_top" xlink:title=" ">
<polygon fill="white" stroke="black" points="209,-0.5 209,-30.5 316,-30.5 316,-0.5 209,-0.5"/>
<text text-anchor="start" x="217" y="-18.5" font-family="Helvetica,sans-Serif" font-size="10.00">ti_sysbios_timers_rti</text>
<text text-anchor="middle" x="262.5" y="-7.5" font-family="Helvetica,sans-Serif" font-size="10.00">_Timer_startup__E</text>
</a>
</g>
</g>
<!-- Node1&#45;&gt;Node4 -->
<g id="edge3" class="edge"><title>Node1&#45;&gt;Node4</title>
<path fill="none" stroke="midnightblue" d="M111.804,-54.936C136.487,-48.4335 169.787,-39.661 198.712,-32.041"/>
<polygon fill="midnightblue" stroke="midnightblue" points="199.961,-35.3315 208.739,-29.3994 198.177,-28.5624 199.961,-35.3315"/>
</g>
</g>
</svg>
