<?xml version="1.0" encoding="UTF-8" standalone="no"?>
<!DOCTYPE svg PUBLIC "-//W3C//DTD SVG 1.1//EN"
 "http://www.w3.org/Graphics/SVG/1.1/DTD/svg11.dtd">
<!-- Generated by graphviz version 2.38.0 (20140413.2041)
 -->
<!-- Title: ti_sysbios_knl_Clock_TimerProxy_Object2__ Pages: 1 -->
<svg width="129pt" height="336pt"
 viewBox="0.00 0.00 129.00 336.00" xmlns="http://www.w3.org/2000/svg" xmlns:xlink="http://www.w3.org/1999/xlink">
<g id="graph0" class="graph" transform="scale(1 1) rotate(0) translate(4 332)">
<title>ti_sysbios_knl_Clock_TimerProxy_Object2__</title>
<polygon fill="white" stroke="none" points="-4,4 -4,-332 125,-332 125,4 -4,4"/>
<!-- Node1 -->
<g id="node1" class="node"><title>Node1</title>
<g id="a_node1"><a xlink:title=" ">
<polygon fill="#bfbfbf" stroke="black" points="0,-0.5 0,-68.5 121,-68.5 121,-0.5 0,-0.5"/>
<text text-anchor="start" x="8" y="-56.5" font-family="Helvetica,sans-Serif" font-size="10.00">ti_sysbios_knl_Clock</text>
<text text-anchor="middle" x="60.5" y="-45.5" font-family="Helvetica,sans-Serif" font-size="10.00">_TimerProxy_Object2__</text>
<polyline fill="none" stroke="black" points="0,-38.5 121,-38.5 "/>
<text text-anchor="start" x="8" y="-26.5" font-family="Helvetica,sans-Serif" font-size="10.00">+ hdr</text>
<polyline fill="none" stroke="black" points="0,-19.5 121,-19.5 "/>
<text text-anchor="middle" x="60.5" y="-7.5" font-family="Helvetica,sans-Serif" font-size="10.00"> </text>
</a>
</g>
</g>
<!-- Node2 -->
<g id="node2" class="node"><title>Node2</title>
<g id="a_node2"><a xlink:href="structti__sysbios__timers__rti___timer___object____.html" target="_top" xlink:title=" ">
<polygon fill="white" stroke="black" points="7,-116.5 7,-327.5 114,-327.5 114,-116.5 7,-116.5"/>
<text text-anchor="start" x="15" y="-315.5" font-family="Helvetica,sans-Serif" font-size="10.00">ti_sysbios_timers_rti</text>
<text text-anchor="middle" x="60.5" y="-304.5" font-family="Helvetica,sans-Serif" font-size="10.00">_Timer_Object__</text>
<polyline fill="none" stroke="black" points="7,-297.5 114,-297.5 "/>
<text text-anchor="start" x="15" y="-285.5" font-family="Helvetica,sans-Serif" font-size="10.00">+ __fxns</text>
<text text-anchor="start" x="15" y="-274.5" font-family="Helvetica,sans-Serif" font-size="10.00">+ staticInst</text>
<text text-anchor="start" x="15" y="-263.5" font-family="Helvetica,sans-Serif" font-size="10.00">+ id</text>
<text text-anchor="start" x="15" y="-252.5" font-family="Helvetica,sans-Serif" font-size="10.00">+ runMode</text>
<text text-anchor="start" x="15" y="-241.5" font-family="Helvetica,sans-Serif" font-size="10.00">+ startMode</text>
<text text-anchor="start" x="15" y="-230.5" font-family="Helvetica,sans-Serif" font-size="10.00">+ prescale</text>
<text text-anchor="start" x="15" y="-219.5" font-family="Helvetica,sans-Serif" font-size="10.00">+ period</text>
<text text-anchor="start" x="15" y="-208.5" font-family="Helvetica,sans-Serif" font-size="10.00">+ periodType</text>
<text text-anchor="start" x="15" y="-197.5" font-family="Helvetica,sans-Serif" font-size="10.00">+ intNum</text>
<text text-anchor="start" x="15" y="-186.5" font-family="Helvetica,sans-Serif" font-size="10.00">+ arg</text>
<text text-anchor="start" x="15" y="-175.5" font-family="Helvetica,sans-Serif" font-size="10.00">+ tickFxn</text>
<text text-anchor="start" x="15" y="-164.5" font-family="Helvetica,sans-Serif" font-size="10.00">+ extFreq</text>
<text text-anchor="start" x="15" y="-153.5" font-family="Helvetica,sans-Serif" font-size="10.00">+ hwi</text>
<text text-anchor="start" x="15" y="-142.5" font-family="Helvetica,sans-Serif" font-size="10.00">+ createHwi</text>
<polyline fill="none" stroke="black" points="7,-135.5 114,-135.5 "/>
<text text-anchor="middle" x="60.5" y="-123.5" font-family="Helvetica,sans-Serif" font-size="10.00"> </text>
</a>
</g>
</g>
<!-- Node2&#45;&gt;Node1 -->
<g id="edge1" class="edge"><title>Node2&#45;&gt;Node1</title>
<path fill="none" stroke="#404040" d="M60.5,-116.323C60.5,-103.919 60.5,-91.8044 60.5,-80.8864"/>
<polygon fill="none" stroke="#404040" points="60.5001,-80.6737 56.5,-74.6737 60.5,-68.6737 64.5,-74.6737 60.5001,-80.6737"/>
<text text-anchor="middle" x="71.5" y="-90" font-family="Helvetica,sans-Serif" font-size="10.00"> +obj</text>
</g>
</g>
</svg>
