<?xml version="1.0" encoding="UTF-8" standalone="no"?>
<!DOCTYPE svg PUBLIC "-//W3C//DTD SVG 1.1//EN"
 "http://www.w3.org/Graphics/SVG/1.1/DTD/svg11.dtd">
<!-- Generated by graphviz version 2.38.0 (20140413.2041)
 -->
<!-- Title: ti_sysbios_heaps_HeapBuf___S1 Pages: 1 -->
<svg width="186pt" height="491pt"
 viewBox="0.00 0.00 186.00 491.00" xmlns="http://www.w3.org/2000/svg" xmlns:xlink="http://www.w3.org/1999/xlink">
<g id="graph0" class="graph" transform="scale(1 1) rotate(0) translate(4 487)">
<title>ti_sysbios_heaps_HeapBuf___S1</title>
<polygon fill="white" stroke="none" points="-4,4 -4,-487 182,-487 182,4 -4,4"/>
<!-- Node1 -->
<g id="node1" class="node"><title>Node1</title>
<g id="a_node1"><a xlink:title=" ">
<polygon fill="#bfbfbf" stroke="black" points="0,-0.5 0,-57.5 162,-57.5 162,-0.5 0,-0.5"/>
<text text-anchor="middle" x="81" y="-45.5" font-family="Helvetica,sans-Serif" font-size="10.00">ti_sysbios_heaps_HeapBuf___S1</text>
<polyline fill="none" stroke="black" points="0,-38.5 162,-38.5 "/>
<text text-anchor="start" x="8" y="-26.5" font-family="Helvetica,sans-Serif" font-size="10.00">+ c</text>
<polyline fill="none" stroke="black" points="0,-19.5 162,-19.5 "/>
<text text-anchor="middle" x="81" y="-7.5" font-family="Helvetica,sans-Serif" font-size="10.00"> </text>
</a>
</g>
</g>
<!-- Node2 -->
<g id="node2" class="node"><title>Node2</title>
<g id="a_node2"><a xlink:href="structti__sysbios__heaps___heap_buf___object2____.html" target="_top" xlink:title=" ">
<polygon fill="white" stroke="black" points="14,-105.5 14,-173.5 148,-173.5 148,-105.5 14,-105.5"/>
<text text-anchor="start" x="22" y="-161.5" font-family="Helvetica,sans-Serif" font-size="10.00">ti_sysbios_heaps_HeapBuf</text>
<text text-anchor="middle" x="81" y="-150.5" font-family="Helvetica,sans-Serif" font-size="10.00">_Object2__</text>
<polyline fill="none" stroke="black" points="14,-143.5 148,-143.5 "/>
<text text-anchor="start" x="22" y="-131.5" font-family="Helvetica,sans-Serif" font-size="10.00">+ hdr</text>
<polyline fill="none" stroke="black" points="14,-124.5 148,-124.5 "/>
<text text-anchor="middle" x="81" y="-112.5" font-family="Helvetica,sans-Serif" font-size="10.00"> </text>
</a>
</g>
</g>
<!-- Node2&#45;&gt;Node1 -->
<g id="edge1" class="edge"><title>Node2&#45;&gt;Node1</title>
<path fill="none" stroke="#404040" d="M81,-105.357C81,-94.1899 81,-81.6093 81,-69.9724"/>
<polygon fill="none" stroke="#404040" points="81.0001,-69.827 77,-63.827 81,-57.827 85,-63.8269 81.0001,-69.827"/>
<text text-anchor="middle" x="91" y="-79" font-family="Helvetica,sans-Serif" font-size="10.00"> +s0</text>
</g>
<!-- Node3 -->
<g id="node3" class="node"><title>Node3</title>
<g id="a_node3"><a xlink:href="structti__sysbios__heaps___heap_buf___object____.html" target="_top" xlink:title=" ">
<polygon fill="white" stroke="black" points="14,-221.5 14,-366.5 148,-366.5 148,-221.5 14,-221.5"/>
<text text-anchor="start" x="22" y="-354.5" font-family="Helvetica,sans-Serif" font-size="10.00">ti_sysbios_heaps_HeapBuf</text>
<text text-anchor="middle" x="81" y="-343.5" font-family="Helvetica,sans-Serif" font-size="10.00">_Object__</text>
<polyline fill="none" stroke="black" points="14,-336.5 148,-336.5 "/>
<text text-anchor="start" x="22" y="-324.5" font-family="Helvetica,sans-Serif" font-size="10.00">+ __fxns</text>
<text text-anchor="start" x="22" y="-313.5" font-family="Helvetica,sans-Serif" font-size="10.00">+ blockSize</text>
<text text-anchor="start" x="22" y="-302.5" font-family="Helvetica,sans-Serif" font-size="10.00">+ align</text>
<text text-anchor="start" x="22" y="-291.5" font-family="Helvetica,sans-Serif" font-size="10.00">+ numBlocks</text>
<text text-anchor="start" x="22" y="-280.5" font-family="Helvetica,sans-Serif" font-size="10.00">+ bufSize</text>
<text text-anchor="start" x="22" y="-269.5" font-family="Helvetica,sans-Serif" font-size="10.00">+ buf</text>
<text text-anchor="start" x="22" y="-258.5" font-family="Helvetica,sans-Serif" font-size="10.00">+ numFreeBlocks</text>
<text text-anchor="start" x="22" y="-247.5" font-family="Helvetica,sans-Serif" font-size="10.00">+ minFreeBlocks</text>
<polyline fill="none" stroke="black" points="14,-240.5 148,-240.5 "/>
<text text-anchor="middle" x="81" y="-228.5" font-family="Helvetica,sans-Serif" font-size="10.00"> </text>
</a>
</g>
</g>
<!-- Node3&#45;&gt;Node2 -->
<g id="edge2" class="edge"><title>Node3&#45;&gt;Node2</title>
<path fill="none" stroke="#404040" d="M81,-221.216C81,-209.092 81,-196.816 81,-185.622"/>
<polygon fill="none" stroke="#404040" points="81.0001,-185.508 77,-179.508 81,-173.508 85,-179.508 81.0001,-185.508"/>
<text text-anchor="middle" x="92" y="-195" font-family="Helvetica,sans-Serif" font-size="10.00"> +obj</text>
</g>
<!-- Node4 -->
<g id="node4" class="node"><title>Node4</title>
<g id="a_node4"><a xlink:href="structti__sysbios__knl___queue___object____.html" target="_top" xlink:title=" ">
<polygon fill="white" stroke="black" points="24.5,-414.5 24.5,-482.5 137.5,-482.5 137.5,-414.5 24.5,-414.5"/>
<text text-anchor="start" x="32.5" y="-470.5" font-family="Helvetica,sans-Serif" font-size="10.00">ti_sysbios_knl_Queue</text>
<text text-anchor="middle" x="81" y="-459.5" font-family="Helvetica,sans-Serif" font-size="10.00">_Object__</text>
<polyline fill="none" stroke="black" points="24.5,-452.5 137.5,-452.5 "/>
<text text-anchor="start" x="32.5" y="-440.5" font-family="Helvetica,sans-Serif" font-size="10.00">+ elem</text>
<polyline fill="none" stroke="black" points="24.5,-433.5 137.5,-433.5 "/>
<text text-anchor="middle" x="81" y="-421.5" font-family="Helvetica,sans-Serif" font-size="10.00"> </text>
</a>
</g>
</g>
<!-- Node4&#45;&gt;Node3 -->
<g id="edge3" class="edge"><title>Node4&#45;&gt;Node3</title>
<path fill="none" stroke="#404040" d="M81,-414.41C81,-403.722 81,-391.347 81,-378.696"/>
<polygon fill="none" stroke="#404040" points="81.0001,-378.528 77,-372.528 81,-366.528 85,-372.528 81.0001,-378.528"/>
<text text-anchor="middle" x="129.5" y="-388" font-family="Helvetica,sans-Serif" font-size="10.00"> +Object_field_freeList</text>
</g>
</g>
</svg>
