<?xml version="1.0" encoding="UTF-8" standalone="no"?>
<!DOCTYPE svg PUBLIC "-//W3C//DTD SVG 1.1//EN"
 "http://www.w3.org/Graphics/SVG/1.1/DTD/svg11.dtd">
<!-- Generated by graphviz version 2.38.0 (20140413.2041)
 -->
<!-- Title: ti_sysbios_knl_Swi___S1 Pages: 1 -->
<svg width="136pt" height="408pt"
 viewBox="0.00 0.00 136.00 408.00" xmlns="http://www.w3.org/2000/svg" xmlns:xlink="http://www.w3.org/1999/xlink">
<g id="graph0" class="graph" transform="scale(1 1) rotate(0) translate(4 404)">
<title>ti_sysbios_knl_Swi___S1</title>
<polygon fill="white" stroke="none" points="-4,4 -4,-404 132,-404 132,4 -4,4"/>
<!-- Node1 -->
<g id="node1" class="node"><title>Node1</title>
<g id="a_node1"><a xlink:title=" ">
<polygon fill="#bfbfbf" stroke="black" points="0,-0.5 0,-57.5 128,-57.5 128,-0.5 0,-0.5"/>
<text text-anchor="middle" x="64" y="-45.5" font-family="Helvetica,sans-Serif" font-size="10.00">ti_sysbios_knl_Swi___S1</text>
<polyline fill="none" stroke="black" points="0,-38.5 128,-38.5 "/>
<text text-anchor="start" x="8" y="-26.5" font-family="Helvetica,sans-Serif" font-size="10.00">+ c</text>
<polyline fill="none" stroke="black" points="0,-19.5 128,-19.5 "/>
<text text-anchor="middle" x="64" y="-7.5" font-family="Helvetica,sans-Serif" font-size="10.00"> </text>
</a>
</g>
</g>
<!-- Node2 -->
<g id="node2" class="node"><title>Node2</title>
<g id="a_node2"><a xlink:href="structti__sysbios__knl___swi___object2____.html" target="_top" xlink:title=" ">
<polygon fill="white" stroke="black" points="14,-105.5 14,-173.5 114,-173.5 114,-105.5 14,-105.5"/>
<text text-anchor="start" x="22" y="-161.5" font-family="Helvetica,sans-Serif" font-size="10.00">ti_sysbios_knl_Swi</text>
<text text-anchor="middle" x="64" y="-150.5" font-family="Helvetica,sans-Serif" font-size="10.00">_Object2__</text>
<polyline fill="none" stroke="black" points="14,-143.5 114,-143.5 "/>
<text text-anchor="start" x="22" y="-131.5" font-family="Helvetica,sans-Serif" font-size="10.00">+ hdr</text>
<polyline fill="none" stroke="black" points="14,-124.5 114,-124.5 "/>
<text text-anchor="middle" x="64" y="-112.5" font-family="Helvetica,sans-Serif" font-size="10.00"> </text>
</a>
</g>
</g>
<!-- Node2&#45;&gt;Node1 -->
<g id="edge1" class="edge"><title>Node2&#45;&gt;Node1</title>
<path fill="none" stroke="#404040" d="M64,-105.357C64,-94.1899 64,-81.6093 64,-69.9724"/>
<polygon fill="none" stroke="#404040" points="64.0001,-69.827 60,-63.827 64,-57.827 68,-63.8269 64.0001,-69.827"/>
<text text-anchor="middle" x="74" y="-79" font-family="Helvetica,sans-Serif" font-size="10.00"> +s0</text>
</g>
<!-- Node3 -->
<g id="node3" class="node"><title>Node3</title>
<g id="a_node3"><a xlink:href="structti__sysbios__knl___swi___object____.html" target="_top" xlink:title=" ">
<polygon fill="white" stroke="black" points="14,-221.5 14,-399.5 114,-399.5 114,-221.5 14,-221.5"/>
<text text-anchor="start" x="22" y="-387.5" font-family="Helvetica,sans-Serif" font-size="10.00">ti_sysbios_knl_Swi</text>
<text text-anchor="middle" x="64" y="-376.5" font-family="Helvetica,sans-Serif" font-size="10.00">_Object__</text>
<polyline fill="none" stroke="black" points="14,-369.5 114,-369.5 "/>
<text text-anchor="start" x="22" y="-357.5" font-family="Helvetica,sans-Serif" font-size="10.00">+ qElem</text>
<text text-anchor="start" x="22" y="-346.5" font-family="Helvetica,sans-Serif" font-size="10.00">+ fxn</text>
<text text-anchor="start" x="22" y="-335.5" font-family="Helvetica,sans-Serif" font-size="10.00">+ arg0</text>
<text text-anchor="start" x="22" y="-324.5" font-family="Helvetica,sans-Serif" font-size="10.00">+ arg1</text>
<text text-anchor="start" x="22" y="-313.5" font-family="Helvetica,sans-Serif" font-size="10.00">+ priority</text>
<text text-anchor="start" x="22" y="-302.5" font-family="Helvetica,sans-Serif" font-size="10.00">+ mask</text>
<text text-anchor="start" x="22" y="-291.5" font-family="Helvetica,sans-Serif" font-size="10.00">+ posted</text>
<text text-anchor="start" x="22" y="-280.5" font-family="Helvetica,sans-Serif" font-size="10.00">+ initTrigger</text>
<text text-anchor="start" x="22" y="-269.5" font-family="Helvetica,sans-Serif" font-size="10.00">+ trigger</text>
<text text-anchor="start" x="22" y="-258.5" font-family="Helvetica,sans-Serif" font-size="10.00">+ readyQ</text>
<text text-anchor="start" x="22" y="-247.5" font-family="Helvetica,sans-Serif" font-size="10.00">+ hookEnv</text>
<polyline fill="none" stroke="black" points="14,-240.5 114,-240.5 "/>
<text text-anchor="middle" x="64" y="-228.5" font-family="Helvetica,sans-Serif" font-size="10.00"> </text>
</a>
</g>
</g>
<!-- Node3&#45;&gt;Node2 -->
<g id="edge2" class="edge"><title>Node3&#45;&gt;Node2</title>
<path fill="none" stroke="#404040" d="M64,-221.04C64,-208.871 64,-196.812 64,-185.875"/>
<polygon fill="none" stroke="#404040" points="64.0001,-185.612 60,-179.612 64,-173.612 68,-179.612 64.0001,-185.612"/>
<text text-anchor="middle" x="75" y="-195" font-family="Helvetica,sans-Serif" font-size="10.00"> +obj</text>
</g>
</g>
</svg>
