<?xml version="1.0" encoding="UTF-8" standalone="no"?>
<!DOCTYPE svg PUBLIC "-//W3C//DTD SVG 1.1//EN"
 "http://www.w3.org/Graphics/SVG/1.1/DTD/svg11.dtd">
<!-- Generated by graphviz version 2.38.0 (20140413.2041)
 -->
<!-- Title: MmwDemo_CliCfg_t_ Pages: 1 -->
<svg width="1598pt" height="237pt"
 viewBox="0.00 0.00 1598.00 237.00" xmlns="http://www.w3.org/2000/svg" xmlns:xlink="http://www.w3.org/1999/xlink">
<g id="graph0" class="graph" transform="scale(1 1) rotate(0) translate(4 233)">
<title>MmwDemo_CliCfg_t_</title>
<polygon fill="white" stroke="none" points="-4,4 -4,-233 1594,-233 1594,4 -4,4"/>
<!-- Node1 -->
<g id="node1" class="node"><title>Node1</title>
<g id="a_node1"><a xlink:title="Millimeter Wave Demo CLI related configuration.">
<polygon fill="#bfbfbf" stroke="black" points="749,-0.5 749,-57.5 859,-57.5 859,-0.5 749,-0.5"/>
<text text-anchor="middle" x="804" y="-45.5" font-family="Helvetica,sans-Serif" font-size="10.00">MmwDemo_CliCfg_t_</text>
<polyline fill="none" stroke="black" points="749,-38.5 859,-38.5 "/>
<text text-anchor="middle" x="804" y="-26.5" font-family="Helvetica,sans-Serif" font-size="10.00"> </text>
<polyline fill="none" stroke="black" points="749,-19.5 859,-19.5 "/>
<text text-anchor="middle" x="804" y="-7.5" font-family="Helvetica,sans-Serif" font-size="10.00"> </text>
</a>
</g>
</g>
<!-- Node2 -->
<g id="node2" class="node"><title>Node2</title>
<g id="a_node2"><a xlink:href="struct_mmw_demo___clutter_removal_cfg__t.html" target="_top" xlink:title="Clutter removal configuration.">
<polygon fill="white" stroke="black" points="0,-144 0,-201 158,-201 158,-144 0,-144"/>
<text text-anchor="middle" x="79" y="-189" font-family="Helvetica,sans-Serif" font-size="10.00">MmwDemo_ClutterRemovalCfg_t</text>
<polyline fill="none" stroke="black" points="0,-182 158,-182 "/>
<text text-anchor="start" x="8" y="-170" font-family="Helvetica,sans-Serif" font-size="10.00">+ enabled</text>
<polyline fill="none" stroke="black" points="0,-163 158,-163 "/>
<text text-anchor="middle" x="79" y="-151" font-family="Helvetica,sans-Serif" font-size="10.00"> </text>
</a>
</g>
</g>
<!-- Node2&#45;&gt;Node1 -->
<g id="edge1" class="edge"><title>Node2&#45;&gt;Node1</title>
<path fill="none" stroke="#404040" d="M117.122,-143.83C151.505,-120.669 204.448,-89.3319 256,-76 345.118,-52.9531 610.899,-38.5269 736.642,-32.8106"/>
<polygon fill="none" stroke="#404040" points="736.738,-32.8064 742.553,-28.5415 748.726,-32.2685 742.911,-36.5334 736.738,-32.8064"/>
<text text-anchor="middle" x="300" y="-84.5" font-family="Helvetica,sans-Serif" font-size="10.00"> +clutterRemovalCfg</text>
</g>
<!-- Node3 -->
<g id="node3" class="node"><title>Node3</title>
<g id="a_node3"><a xlink:href="struct_mmw_demo___peak_grouping_cfg__t.html" target="_top" xlink:title="Millimeter Wave Demo Peak grouping Configuration.">
<polygon fill="white" stroke="black" points="176.5,-122 176.5,-223 331.5,-223 331.5,-122 176.5,-122"/>
<text text-anchor="middle" x="254" y="-211" font-family="Helvetica,sans-Serif" font-size="10.00">MmwDemo_PeakGroupingCfg_t</text>
<polyline fill="none" stroke="black" points="176.5,-204 331.5,-204 "/>
<text text-anchor="start" x="184.5" y="-192" font-family="Helvetica,sans-Serif" font-size="10.00">+ minRangeIndex</text>
<text text-anchor="start" x="184.5" y="-181" font-family="Helvetica,sans-Serif" font-size="10.00">+ maxRangeIndex</text>
<text text-anchor="start" x="184.5" y="-170" font-family="Helvetica,sans-Serif" font-size="10.00">+ scheme</text>
<text text-anchor="start" x="184.5" y="-159" font-family="Helvetica,sans-Serif" font-size="10.00">+ inRangeDirectionEn</text>
<text text-anchor="start" x="184.5" y="-148" font-family="Helvetica,sans-Serif" font-size="10.00">+ inDopplerDirectionEn</text>
<polyline fill="none" stroke="black" points="176.5,-141 331.5,-141 "/>
<text text-anchor="middle" x="254" y="-129" font-family="Helvetica,sans-Serif" font-size="10.00"> </text>
</a>
</g>
</g>
<!-- Node3&#45;&gt;Node1 -->
<g id="edge2" class="edge"><title>Node3&#45;&gt;Node1</title>
<path fill="none" stroke="#404040" d="M309.468,-121.926C332.012,-104.506 359.265,-86.6394 387,-76 449.179,-52.1471 635.315,-38.8993 736.581,-33.2771"/>
<polygon fill="none" stroke="#404040" points="736.812,-33.2646 742.586,-28.9448 748.795,-32.6132 743.021,-36.933 736.812,-33.2646"/>
<text text-anchor="middle" x="429" y="-84.5" font-family="Helvetica,sans-Serif" font-size="10.00"> +peakGroupingCfg</text>
</g>
<!-- Node4 -->
<g id="node4" class="node"><title>Node4</title>
<g id="a_node4"><a xlink:href="struct_d_s_s___cfar_cfg__t.html" target="_top" xlink:title="Millimeter Wave Demo CFAR Configuration.">
<polygon fill="white" stroke="black" points="350,-116.5 350,-228.5 440,-228.5 440,-116.5 350,-116.5"/>
<text text-anchor="middle" x="395" y="-216.5" font-family="Helvetica,sans-Serif" font-size="10.00">DSS_CfarCfg_t</text>
<polyline fill="none" stroke="black" points="350,-209.5 440,-209.5 "/>
<text text-anchor="start" x="358" y="-197.5" font-family="Helvetica,sans-Serif" font-size="10.00">+ thresholdScale</text>
<text text-anchor="start" x="358" y="-186.5" font-family="Helvetica,sans-Serif" font-size="10.00">+ averageMode</text>
<text text-anchor="start" x="358" y="-175.5" font-family="Helvetica,sans-Serif" font-size="10.00">+ winLen</text>
<text text-anchor="start" x="358" y="-164.5" font-family="Helvetica,sans-Serif" font-size="10.00">+ guardLen</text>
<text text-anchor="start" x="358" y="-153.5" font-family="Helvetica,sans-Serif" font-size="10.00">+ noiseDivShift</text>
<text text-anchor="start" x="358" y="-142.5" font-family="Helvetica,sans-Serif" font-size="10.00">+ cyclicMode</text>
<polyline fill="none" stroke="black" points="350,-135.5 440,-135.5 "/>
<text text-anchor="middle" x="395" y="-123.5" font-family="Helvetica,sans-Serif" font-size="10.00"> </text>
</a>
</g>
</g>
<!-- Node4&#45;&gt;Node1 -->
<g id="edge3" class="edge"><title>Node4&#45;&gt;Node1</title>
<path fill="none" stroke="#404040" d="M440.073,-123.269C443.017,-120.723 446.004,-118.279 449,-116 478.448,-93.6053 487.018,-88.04 522,-76 593.05,-51.5462 678.75,-39.926 736.888,-34.5136"/>
<polygon fill="none" stroke="#404040" points="736.908,-34.512 742.531,-29.9969 748.861,-33.4505 743.238,-37.9656 736.908,-34.512"/>
<text text-anchor="middle" x="558.5" y="-90" font-family="Helvetica,sans-Serif" font-size="10.00"> +cfarCfgDoppler</text>
<text text-anchor="middle" x="558.5" y="-79" font-family="Helvetica,sans-Serif" font-size="10.00">+cfarCfgRange</text>
</g>
<!-- Node5 -->
<g id="node5" class="node"><title>Node5</title>
<g id="a_node5"><a xlink:href="struct_mmw_demo___near_field_correction_cfg__t.html" target="_top" xlink:title="Millimeter Wave Demo near field correction.">
<polygon fill="white" stroke="black" points="458,-127.5 458,-217.5 614,-217.5 614,-127.5 458,-127.5"/>
<text text-anchor="start" x="466" y="-205.5" font-family="Helvetica,sans-Serif" font-size="10.00">MmwDemo_NearFieldCorrection</text>
<text text-anchor="middle" x="536" y="-194.5" font-family="Helvetica,sans-Serif" font-size="10.00">Cfg_t</text>
<polyline fill="none" stroke="black" points="458,-187.5 614,-187.5 "/>
<text text-anchor="start" x="466" y="-175.5" font-family="Helvetica,sans-Serif" font-size="10.00">+ enabled</text>
<text text-anchor="start" x="466" y="-164.5" font-family="Helvetica,sans-Serif" font-size="10.00">+ endRangeIdx</text>
<text text-anchor="start" x="466" y="-153.5" font-family="Helvetica,sans-Serif" font-size="10.00">+ startRangeIdx</text>
<polyline fill="none" stroke="black" points="458,-146.5 614,-146.5 "/>
<text text-anchor="middle" x="536" y="-134.5" font-family="Helvetica,sans-Serif" font-size="10.00"> </text>
</a>
</g>
</g>
<!-- Node5&#45;&gt;Node1 -->
<g id="edge4" class="edge"><title>Node5&#45;&gt;Node1</title>
<path fill="none" stroke="#404040" d="M569.461,-127.213C585.361,-108.94 605.751,-89.0316 628,-76 661.153,-56.5815 702.543,-45.2308 736.854,-38.6652"/>
<polygon fill="none" stroke="#404040" points="736.86,-38.6643 742.056,-33.664 748.67,-36.5371 743.474,-41.5373 736.86,-38.6643"/>
<text text-anchor="middle" x="682" y="-84.5" font-family="Helvetica,sans-Serif" font-size="10.00"> +nearFieldCorrectionCfg</text>
</g>
<!-- Node6 -->
<g id="node6" class="node"><title>Node6</title>
<g id="a_node6"><a xlink:href="struct_d_s_s___multi_obj_beam_forming_cfg__t.html" target="_top" xlink:title="Millimeter Wave Demo multi object beam formaing Configuration.">
<polygon fill="white" stroke="black" points="632.5,-138.5 632.5,-206.5 793.5,-206.5 793.5,-138.5 632.5,-138.5"/>
<text text-anchor="middle" x="713" y="-194.5" font-family="Helvetica,sans-Serif" font-size="10.00">DSS_MultiObjBeamFormingCfg_t</text>
<polyline fill="none" stroke="black" points="632.5,-187.5 793.5,-187.5 "/>
<text text-anchor="start" x="640.5" y="-175.5" font-family="Helvetica,sans-Serif" font-size="10.00">+ enabled</text>
<text text-anchor="start" x="640.5" y="-164.5" font-family="Helvetica,sans-Serif" font-size="10.00">+ multiPeakThrsScal</text>
<polyline fill="none" stroke="black" points="632.5,-157.5 793.5,-157.5 "/>
<text text-anchor="middle" x="713" y="-145.5" font-family="Helvetica,sans-Serif" font-size="10.00"> </text>
</a>
</g>
</g>
<!-- Node6&#45;&gt;Node1 -->
<g id="edge5" class="edge"><title>Node6&#45;&gt;Node1</title>
<path fill="none" stroke="#404040" d="M722.4,-138.221C728.832,-118.944 738.631,-94.8413 752,-76 754.302,-72.7561 756.874,-69.5842 759.609,-66.5196"/>
<polygon fill="none" stroke="#404040" points="759.832,-66.2899 761.144,-59.1991 768.194,-57.6829 766.882,-64.7737 759.832,-66.2899"/>
<text text-anchor="middle" x="812.5" y="-84.5" font-family="Helvetica,sans-Serif" font-size="10.00"> +multiObjBeamFormingCfg</text>
</g>
<!-- Node7 -->
<g id="node7" class="node"><title>Node7</title>
<g id="a_node7"><a xlink:href="struct_mmw_demo___extended_max_velocity_cfg__t.html" target="_top" xlink:title="Millimeter Wave Demo Velocity Disambiguation.">
<polygon fill="white" stroke="black" points="812,-138.5 812,-206.5 978,-206.5 978,-138.5 812,-138.5"/>
<text text-anchor="start" x="820" y="-194.5" font-family="Helvetica,sans-Serif" font-size="10.00">MmwDemo_ExtendedMaxVelocity</text>
<text text-anchor="middle" x="895" y="-183.5" font-family="Helvetica,sans-Serif" font-size="10.00">Cfg_t</text>
<polyline fill="none" stroke="black" points="812,-176.5 978,-176.5 "/>
<text text-anchor="start" x="820" y="-164.5" font-family="Helvetica,sans-Serif" font-size="10.00">+ enabled</text>
<polyline fill="none" stroke="black" points="812,-157.5 978,-157.5 "/>
<text text-anchor="middle" x="895" y="-145.5" font-family="Helvetica,sans-Serif" font-size="10.00"> </text>
</a>
</g>
</g>
<!-- Node7&#45;&gt;Node1 -->
<g id="edge6" class="edge"><title>Node7&#45;&gt;Node1</title>
<path fill="none" stroke="#404040" d="M893.395,-138.094C891.05,-118.54 885.573,-94.1974 873,-76 870.478,-72.3503 867.564,-68.9127 864.388,-65.6892"/>
<polygon fill="none" stroke="#404040" points="864.382,-65.6834 857.246,-64.6439 855.461,-57.6572 862.597,-58.6967 864.382,-65.6834"/>
<text text-anchor="middle" x="943" y="-84.5" font-family="Helvetica,sans-Serif" font-size="10.00"> +extendedMaxVelocityCfg</text>
</g>
<!-- Node8 -->
<g id="node8" class="node"><title>Node8</title>
<g id="a_node8"><a xlink:href="struct_mmw_demo___gui_mon_sel__t.html" target="_top" xlink:title="Millimeter Wave Demo Gui Monitor Selection.">
<polygon fill="white" stroke="black" points="996.5,-116.5 996.5,-228.5 1123.5,-228.5 1123.5,-116.5 996.5,-116.5"/>
<text text-anchor="middle" x="1060" y="-216.5" font-family="Helvetica,sans-Serif" font-size="10.00">MmwDemo_GuiMonSel_t</text>
<polyline fill="none" stroke="black" points="996.5,-209.5 1123.5,-209.5 "/>
<text text-anchor="start" x="1004.5" y="-197.5" font-family="Helvetica,sans-Serif" font-size="10.00">+ detectedObjects</text>
<text text-anchor="start" x="1004.5" y="-186.5" font-family="Helvetica,sans-Serif" font-size="10.00">+ logMagRange</text>
<text text-anchor="start" x="1004.5" y="-175.5" font-family="Helvetica,sans-Serif" font-size="10.00">+ noiseProfile</text>
<text text-anchor="start" x="1004.5" y="-164.5" font-family="Helvetica,sans-Serif" font-size="10.00">+ rangeAzimuthHeatMap</text>
<text text-anchor="start" x="1004.5" y="-153.5" font-family="Helvetica,sans-Serif" font-size="10.00">+ rangeDopplerHeatMap</text>
<text text-anchor="start" x="1004.5" y="-142.5" font-family="Helvetica,sans-Serif" font-size="10.00">+ statsInfo</text>
<polyline fill="none" stroke="black" points="996.5,-135.5 1123.5,-135.5 "/>
<text text-anchor="middle" x="1060" y="-123.5" font-family="Helvetica,sans-Serif" font-size="10.00"> </text>
</a>
</g>
</g>
<!-- Node8&#45;&gt;Node1 -->
<g id="edge7" class="edge"><title>Node8&#45;&gt;Node1</title>
<path fill="none" stroke="#404040" d="M1038.67,-116.025C1030.51,-101.081 1019.75,-86.2378 1006,-76 967.272,-47.1627 913.612,-35.9203 871.331,-31.7492"/>
<polygon fill="none" stroke="#404040" points="871.124,-31.7317 864.806,-35.2067 859.168,-30.7106 865.487,-27.2357 871.124,-31.7317"/>
<text text-anchor="middle" x="1054.5" y="-84.5" font-family="Helvetica,sans-Serif" font-size="10.00"> +guiMonSel</text>
</g>
<!-- Node9 -->
<g id="node9" class="node"><title>Node9</title>
<g id="a_node9"><a xlink:href="struct_mmw_demo___a_d_c_buf_cfg__t.html" target="_top" xlink:title="ADCBUF configuration.">
<polygon fill="white" stroke="black" points="1142,-127.5 1142,-217.5 1270,-217.5 1270,-127.5 1142,-127.5"/>
<text text-anchor="middle" x="1206" y="-205.5" font-family="Helvetica,sans-Serif" font-size="10.00">MmwDemo_ADCBufCfg_t</text>
<polyline fill="none" stroke="black" points="1142,-198.5 1270,-198.5 "/>
<text text-anchor="start" x="1150" y="-186.5" font-family="Helvetica,sans-Serif" font-size="10.00">+ adcFmt</text>
<text text-anchor="start" x="1150" y="-175.5" font-family="Helvetica,sans-Serif" font-size="10.00">+ iqSwapSel</text>
<text text-anchor="start" x="1150" y="-164.5" font-family="Helvetica,sans-Serif" font-size="10.00">+ chInterleave</text>
<text text-anchor="start" x="1150" y="-153.5" font-family="Helvetica,sans-Serif" font-size="10.00">+ chirpThreshold</text>
<polyline fill="none" stroke="black" points="1142,-146.5 1270,-146.5 "/>
<text text-anchor="middle" x="1206" y="-134.5" font-family="Helvetica,sans-Serif" font-size="10.00"> </text>
</a>
</g>
</g>
<!-- Node9&#45;&gt;Node1 -->
<g id="edge8" class="edge"><title>Node9&#45;&gt;Node1</title>
<path fill="none" stroke="#404040" d="M1161.81,-127.293C1140.58,-108.575 1113.75,-88.2921 1086,-76 1016.87,-45.383 930.104,-34.9173 871.2,-31.4608"/>
<polygon fill="none" stroke="#404040" points="871.053,-31.4532 864.852,-35.1335 859.07,-30.8248 865.271,-27.1445 871.053,-31.4532"/>
<text text-anchor="middle" x="1150" y="-84.5" font-family="Helvetica,sans-Serif" font-size="10.00"> +adcBufCfg</text>
</g>
<!-- Node10 -->
<g id="node10" class="node"><title>Node10</title>
<g id="a_node10"><a xlink:href="struct_mmw_demo___lvds_stream_cfg__t.html" target="_top" xlink:title="LVDS streaming configuration.">
<polygon fill="white" stroke="black" points="1288,-133 1288,-212 1432,-212 1432,-133 1288,-133"/>
<text text-anchor="middle" x="1360" y="-200" font-family="Helvetica,sans-Serif" font-size="10.00">MmwDemo_LvdsStreamCfg_t</text>
<polyline fill="none" stroke="black" points="1288,-193 1432,-193 "/>
<text text-anchor="start" x="1296" y="-181" font-family="Helvetica,sans-Serif" font-size="10.00">+ isHeaderEnabled</text>
<text text-anchor="start" x="1296" y="-170" font-family="Helvetica,sans-Serif" font-size="10.00">+ dataFmt</text>
<text text-anchor="start" x="1296" y="-159" font-family="Helvetica,sans-Serif" font-size="10.00">+ isSwEnabled</text>
<polyline fill="none" stroke="black" points="1288,-152 1432,-152 "/>
<text text-anchor="middle" x="1360" y="-140" font-family="Helvetica,sans-Serif" font-size="10.00"> </text>
</a>
</g>
</g>
<!-- Node10&#45;&gt;Node1 -->
<g id="edge9" class="edge"><title>Node10&#45;&gt;Node1</title>
<path fill="none" stroke="#404040" d="M1306.98,-132.825C1297.85,-126.852 1288.3,-121.012 1279,-116 1237.58,-93.6891 1226.53,-87.8425 1181,-76 1074.91,-48.4059 947.625,-37.2519 871.409,-32.8226"/>
<polygon fill="none" stroke="#404040" points="871.15,-32.8083 864.937,-36.4698 859.168,-32.1437 865.38,-28.4821 871.15,-32.8083"/>
<text text-anchor="middle" x="1280" y="-84.5" font-family="Helvetica,sans-Serif" font-size="10.00"> +lvdsStreamCfg</text>
</g>
<!-- Node11 -->
<g id="node11" class="node"><title>Node11</title>
<g id="a_node11"><a xlink:href="struct_d_s_s___calib_dc_range_sig_cfg__t.html" target="_top" xlink:title="Millimeter Wave Demo DC range signature compensation.">
<polygon fill="white" stroke="black" points="1450,-127.5 1450,-217.5 1590,-217.5 1590,-127.5 1450,-127.5"/>
<text text-anchor="middle" x="1520" y="-205.5" font-family="Helvetica,sans-Serif" font-size="10.00">DSS_CalibDcRangeSigCfg_t</text>
<polyline fill="none" stroke="black" points="1450,-198.5 1590,-198.5 "/>
<text text-anchor="start" x="1458" y="-186.5" font-family="Helvetica,sans-Serif" font-size="10.00">+ enabled</text>
<text text-anchor="start" x="1458" y="-175.5" font-family="Helvetica,sans-Serif" font-size="10.00">+ negativeBinIdx</text>
<text text-anchor="start" x="1458" y="-164.5" font-family="Helvetica,sans-Serif" font-size="10.00">+ positiveBinIdx</text>
<text text-anchor="start" x="1458" y="-153.5" font-family="Helvetica,sans-Serif" font-size="10.00">+ numAvgChirps</text>
<polyline fill="none" stroke="black" points="1450,-146.5 1590,-146.5 "/>
<text text-anchor="middle" x="1520" y="-134.5" font-family="Helvetica,sans-Serif" font-size="10.00"> </text>
</a>
</g>
</g>
<!-- Node11&#45;&gt;Node1 -->
<g id="edge10" class="edge"><title>Node11&#45;&gt;Node1</title>
<path fill="none" stroke="#404040" d="M1461.2,-127.447C1454.55,-123.3 1447.74,-119.388 1441,-116 1390.4,-90.5585 1375.46,-87.4796 1320,-76 1161.43,-43.1798 970.666,-33.7715 871.433,-31.0778"/>
<polygon fill="none" stroke="#404040" points="871.208,-31.0722 865.109,-34.9186 859.212,-30.7677 865.312,-26.9212 871.208,-31.0722"/>
<text text-anchor="middle" x="1450" y="-84.5" font-family="Helvetica,sans-Serif" font-size="10.00"> +calibDcRangeSigCfg</text>
</g>
</g>
</svg>
