<?xml version="1.0" encoding="UTF-8" standalone="no"?>
<!DOCTYPE svg PUBLIC "-//W3C//DTD SVG 1.1//EN"
 "http://www.w3.org/Graphics/SVG/1.1/DTD/svg11.dtd">
<!-- Generated by graphviz version 2.38.0 (20140413.2041)
 -->
<!-- Title: ti_sysbios_knl_Semaphore___S1 Pages: 1 -->
<svg width="183pt" height="447pt"
 viewBox="0.00 0.00 182.50 447.00" xmlns="http://www.w3.org/2000/svg" xmlns:xlink="http://www.w3.org/1999/xlink">
<g id="graph0" class="graph" transform="scale(1 1) rotate(0) translate(4 443)">
<title>ti_sysbios_knl_Semaphore___S1</title>
<polygon fill="white" stroke="none" points="-4,4 -4,-443 178.5,-443 178.5,4 -4,4"/>
<!-- Node1 -->
<g id="node1" class="node"><title>Node1</title>
<g id="a_node1"><a xlink:title=" ">
<polygon fill="#bfbfbf" stroke="black" points="0,-0.5 0,-57.5 161,-57.5 161,-0.5 0,-0.5"/>
<text text-anchor="middle" x="80.5" y="-45.5" font-family="Helvetica,sans-Serif" font-size="10.00">ti_sysbios_knl_Semaphore___S1</text>
<polyline fill="none" stroke="black" points="0,-38.5 161,-38.5 "/>
<text text-anchor="start" x="8" y="-26.5" font-family="Helvetica,sans-Serif" font-size="10.00">+ c</text>
<polyline fill="none" stroke="black" points="0,-19.5 161,-19.5 "/>
<text text-anchor="middle" x="80.5" y="-7.5" font-family="Helvetica,sans-Serif" font-size="10.00"> </text>
</a>
</g>
</g>
<!-- Node2 -->
<g id="node2" class="node"><title>Node2</title>
<g id="a_node2"><a xlink:href="structti__sysbios__knl___semaphore___object2____.html" target="_top" xlink:title=" ">
<polygon fill="white" stroke="black" points="13.5,-105.5 13.5,-173.5 147.5,-173.5 147.5,-105.5 13.5,-105.5"/>
<text text-anchor="start" x="21.5" y="-161.5" font-family="Helvetica,sans-Serif" font-size="10.00">ti_sysbios_knl_Semaphore</text>
<text text-anchor="middle" x="80.5" y="-150.5" font-family="Helvetica,sans-Serif" font-size="10.00">_Object2__</text>
<polyline fill="none" stroke="black" points="13.5,-143.5 147.5,-143.5 "/>
<text text-anchor="start" x="21.5" y="-131.5" font-family="Helvetica,sans-Serif" font-size="10.00">+ hdr</text>
<polyline fill="none" stroke="black" points="13.5,-124.5 147.5,-124.5 "/>
<text text-anchor="middle" x="80.5" y="-112.5" font-family="Helvetica,sans-Serif" font-size="10.00"> </text>
</a>
</g>
</g>
<!-- Node2&#45;&gt;Node1 -->
<g id="edge1" class="edge"><title>Node2&#45;&gt;Node1</title>
<path fill="none" stroke="#404040" d="M80.5,-105.357C80.5,-94.1899 80.5,-81.6093 80.5,-69.9724"/>
<polygon fill="none" stroke="#404040" points="80.5001,-69.827 76.5,-63.827 80.5,-57.827 84.5,-63.8269 80.5001,-69.827"/>
<text text-anchor="middle" x="90.5" y="-79" font-family="Helvetica,sans-Serif" font-size="10.00"> +s0</text>
</g>
<!-- Node3 -->
<g id="node3" class="node"><title>Node3</title>
<g id="a_node3"><a xlink:href="structti__sysbios__knl___semaphore___object____.html" target="_top" xlink:title=" ">
<polygon fill="white" stroke="black" points="13.5,-221.5 13.5,-322.5 147.5,-322.5 147.5,-221.5 13.5,-221.5"/>
<text text-anchor="start" x="21.5" y="-310.5" font-family="Helvetica,sans-Serif" font-size="10.00">ti_sysbios_knl_Semaphore</text>
<text text-anchor="middle" x="80.5" y="-299.5" font-family="Helvetica,sans-Serif" font-size="10.00">_Object__</text>
<polyline fill="none" stroke="black" points="13.5,-292.5 147.5,-292.5 "/>
<text text-anchor="start" x="21.5" y="-280.5" font-family="Helvetica,sans-Serif" font-size="10.00">+ event</text>
<text text-anchor="start" x="21.5" y="-269.5" font-family="Helvetica,sans-Serif" font-size="10.00">+ eventId</text>
<text text-anchor="start" x="21.5" y="-258.5" font-family="Helvetica,sans-Serif" font-size="10.00">+ mode</text>
<text text-anchor="start" x="21.5" y="-247.5" font-family="Helvetica,sans-Serif" font-size="10.00">+ count</text>
<polyline fill="none" stroke="black" points="13.5,-240.5 147.5,-240.5 "/>
<text text-anchor="middle" x="80.5" y="-228.5" font-family="Helvetica,sans-Serif" font-size="10.00"> </text>
</a>
</g>
</g>
<!-- Node3&#45;&gt;Node2 -->
<g id="edge2" class="edge"><title>Node3&#45;&gt;Node2</title>
<path fill="none" stroke="#404040" d="M80.5,-221.291C80.5,-209.548 80.5,-197.092 80.5,-185.568"/>
<polygon fill="none" stroke="#404040" points="80.5001,-185.506 76.5,-179.506 80.5,-173.506 84.5,-179.506 80.5001,-185.506"/>
<text text-anchor="middle" x="91.5" y="-195" font-family="Helvetica,sans-Serif" font-size="10.00"> +obj</text>
</g>
<!-- Node4 -->
<g id="node4" class="node"><title>Node4</title>
<g id="a_node4"><a xlink:href="structti__sysbios__knl___queue___object____.html" target="_top" xlink:title=" ">
<polygon fill="white" stroke="black" points="24,-370.5 24,-438.5 137,-438.5 137,-370.5 24,-370.5"/>
<text text-anchor="start" x="32" y="-426.5" font-family="Helvetica,sans-Serif" font-size="10.00">ti_sysbios_knl_Queue</text>
<text text-anchor="middle" x="80.5" y="-415.5" font-family="Helvetica,sans-Serif" font-size="10.00">_Object__</text>
<polyline fill="none" stroke="black" points="24,-408.5 137,-408.5 "/>
<text text-anchor="start" x="32" y="-396.5" font-family="Helvetica,sans-Serif" font-size="10.00">+ elem</text>
<polyline fill="none" stroke="black" points="24,-389.5 137,-389.5 "/>
<text text-anchor="middle" x="80.5" y="-377.5" font-family="Helvetica,sans-Serif" font-size="10.00"> </text>
</a>
</g>
</g>
<!-- Node4&#45;&gt;Node3 -->
<g id="edge3" class="edge"><title>Node4&#45;&gt;Node3</title>
<path fill="none" stroke="#404040" d="M80.5,-370.232C80.5,-359.471 80.5,-347.168 80.5,-335.015"/>
<polygon fill="none" stroke="#404040" points="80.5001,-334.975 76.5,-328.975 80.5,-322.975 84.5,-328.975 80.5001,-334.975"/>
<text text-anchor="middle" x="127.5" y="-344" font-family="Helvetica,sans-Serif" font-size="10.00"> +Object_field_pendQ</text>
</g>
</g>
</svg>
