<?xml version="1.0" encoding="UTF-8" standalone="no"?>
<!DOCTYPE svg PUBLIC "-//W3C//DTD SVG 1.1//EN"
 "http://www.w3.org/Graphics/SVG/1.1/DTD/svg11.dtd">
<!-- Generated by graphviz version 2.38.0 (20140413.2041)
 -->
<!-- Title: ti_sysbios_knl_Swi_Object2__ Pages: 1 -->
<svg width="108pt" height="303pt"
 viewBox="0.00 0.00 108.00 303.00" xmlns="http://www.w3.org/2000/svg" xmlns:xlink="http://www.w3.org/1999/xlink">
<g id="graph0" class="graph" transform="scale(1 1) rotate(0) translate(4 299)">
<title>ti_sysbios_knl_Swi_Object2__</title>
<polygon fill="white" stroke="none" points="-4,4 -4,-299 104,-299 104,4 -4,4"/>
<!-- Node1 -->
<g id="node1" class="node"><title>Node1</title>
<g id="a_node1"><a xlink:title=" ">
<polygon fill="#bfbfbf" stroke="black" points="0,-0.5 0,-68.5 100,-68.5 100,-0.5 0,-0.5"/>
<text text-anchor="start" x="8" y="-56.5" font-family="Helvetica,sans-Serif" font-size="10.00">ti_sysbios_knl_Swi</text>
<text text-anchor="middle" x="50" y="-45.5" font-family="Helvetica,sans-Serif" font-size="10.00">_Object2__</text>
<polyline fill="none" stroke="black" points="0,-38.5 100,-38.5 "/>
<text text-anchor="start" x="8" y="-26.5" font-family="Helvetica,sans-Serif" font-size="10.00">+ hdr</text>
<polyline fill="none" stroke="black" points="0,-19.5 100,-19.5 "/>
<text text-anchor="middle" x="50" y="-7.5" font-family="Helvetica,sans-Serif" font-size="10.00"> </text>
</a>
</g>
</g>
<!-- Node2 -->
<g id="node2" class="node"><title>Node2</title>
<g id="a_node2"><a xlink:href="structti__sysbios__knl___swi___object____.html" target="_top" xlink:title=" ">
<polygon fill="white" stroke="black" points="0,-116.5 0,-294.5 100,-294.5 100,-116.5 0,-116.5"/>
<text text-anchor="start" x="8" y="-282.5" font-family="Helvetica,sans-Serif" font-size="10.00">ti_sysbios_knl_Swi</text>
<text text-anchor="middle" x="50" y="-271.5" font-family="Helvetica,sans-Serif" font-size="10.00">_Object__</text>
<polyline fill="none" stroke="black" points="0,-264.5 100,-264.5 "/>
<text text-anchor="start" x="8" y="-252.5" font-family="Helvetica,sans-Serif" font-size="10.00">+ qElem</text>
<text text-anchor="start" x="8" y="-241.5" font-family="Helvetica,sans-Serif" font-size="10.00">+ fxn</text>
<text text-anchor="start" x="8" y="-230.5" font-family="Helvetica,sans-Serif" font-size="10.00">+ arg0</text>
<text text-anchor="start" x="8" y="-219.5" font-family="Helvetica,sans-Serif" font-size="10.00">+ arg1</text>
<text text-anchor="start" x="8" y="-208.5" font-family="Helvetica,sans-Serif" font-size="10.00">+ priority</text>
<text text-anchor="start" x="8" y="-197.5" font-family="Helvetica,sans-Serif" font-size="10.00">+ mask</text>
<text text-anchor="start" x="8" y="-186.5" font-family="Helvetica,sans-Serif" font-size="10.00">+ posted</text>
<text text-anchor="start" x="8" y="-175.5" font-family="Helvetica,sans-Serif" font-size="10.00">+ initTrigger</text>
<text text-anchor="start" x="8" y="-164.5" font-family="Helvetica,sans-Serif" font-size="10.00">+ trigger</text>
<text text-anchor="start" x="8" y="-153.5" font-family="Helvetica,sans-Serif" font-size="10.00">+ readyQ</text>
<text text-anchor="start" x="8" y="-142.5" font-family="Helvetica,sans-Serif" font-size="10.00">+ hookEnv</text>
<polyline fill="none" stroke="black" points="0,-135.5 100,-135.5 "/>
<text text-anchor="middle" x="50" y="-123.5" font-family="Helvetica,sans-Serif" font-size="10.00"> </text>
</a>
</g>
</g>
<!-- Node2&#45;&gt;Node1 -->
<g id="edge1" class="edge"><title>Node2&#45;&gt;Node1</title>
<path fill="none" stroke="#404040" d="M50,-116.04C50,-103.871 50,-91.8119 50,-80.8748"/>
<polygon fill="none" stroke="#404040" points="50.0001,-80.6118 46,-74.6118 50,-68.6118 54,-74.6118 50.0001,-80.6118"/>
<text text-anchor="middle" x="61" y="-90" font-family="Helvetica,sans-Serif" font-size="10.00"> +obj</text>
</g>
</g>
</svg>
