<?xml version="1.0" encoding="UTF-8" standalone="no"?>
<!DOCTYPE svg PUBLIC "-//W3C//DTD SVG 1.1//EN"
 "http://www.w3.org/Graphics/SVG/1.1/DTD/svg11.dtd">
<!-- Generated by graphviz version 2.38.0 (20140413.2041)
 -->
<!-- Title: ti_sysbios_gates_GateMutex_Object__ Pages: 1 -->
<svg width="174pt" height="353pt"
 viewBox="0.00 0.00 173.50 353.00" xmlns="http://www.w3.org/2000/svg" xmlns:xlink="http://www.w3.org/1999/xlink">
<g id="graph0" class="graph" transform="scale(1 1) rotate(0) translate(4 349)">
<title>ti_sysbios_gates_GateMutex_Object__</title>
<polygon fill="white" stroke="none" points="-4,4 -4,-349 169.5,-349 169.5,4 -4,4"/>
<!-- Node1 -->
<g id="node1" class="node"><title>Node1</title>
<g id="a_node1"><a xlink:title=" ">
<polygon fill="#bfbfbf" stroke="black" points="0,-0.5 0,-79.5 143,-79.5 143,-0.5 0,-0.5"/>
<text text-anchor="start" x="8" y="-67.5" font-family="Helvetica,sans-Serif" font-size="10.00">ti_sysbios_gates_GateMutex</text>
<text text-anchor="middle" x="71.5" y="-56.5" font-family="Helvetica,sans-Serif" font-size="10.00">_Object__</text>
<polyline fill="none" stroke="black" points="0,-49.5 143,-49.5 "/>
<text text-anchor="start" x="8" y="-37.5" font-family="Helvetica,sans-Serif" font-size="10.00">+ __fxns</text>
<text text-anchor="start" x="8" y="-26.5" font-family="Helvetica,sans-Serif" font-size="10.00">+ owner</text>
<polyline fill="none" stroke="black" points="0,-19.5 143,-19.5 "/>
<text text-anchor="middle" x="71.5" y="-7.5" font-family="Helvetica,sans-Serif" font-size="10.00"> </text>
</a>
</g>
</g>
<!-- Node2 -->
<g id="node2" class="node"><title>Node2</title>
<g id="a_node2"><a xlink:href="structti__sysbios__knl___semaphore___object____.html" target="_top" xlink:title=" ">
<polygon fill="white" stroke="black" points="4.5,-127.5 4.5,-228.5 138.5,-228.5 138.5,-127.5 4.5,-127.5"/>
<text text-anchor="start" x="12.5" y="-216.5" font-family="Helvetica,sans-Serif" font-size="10.00">ti_sysbios_knl_Semaphore</text>
<text text-anchor="middle" x="71.5" y="-205.5" font-family="Helvetica,sans-Serif" font-size="10.00">_Object__</text>
<polyline fill="none" stroke="black" points="4.5,-198.5 138.5,-198.5 "/>
<text text-anchor="start" x="12.5" y="-186.5" font-family="Helvetica,sans-Serif" font-size="10.00">+ event</text>
<text text-anchor="start" x="12.5" y="-175.5" font-family="Helvetica,sans-Serif" font-size="10.00">+ eventId</text>
<text text-anchor="start" x="12.5" y="-164.5" font-family="Helvetica,sans-Serif" font-size="10.00">+ mode</text>
<text text-anchor="start" x="12.5" y="-153.5" font-family="Helvetica,sans-Serif" font-size="10.00">+ count</text>
<polyline fill="none" stroke="black" points="4.5,-146.5 138.5,-146.5 "/>
<text text-anchor="middle" x="71.5" y="-134.5" font-family="Helvetica,sans-Serif" font-size="10.00"> </text>
</a>
</g>
</g>
<!-- Node2&#45;&gt;Node1 -->
<g id="edge1" class="edge"><title>Node2&#45;&gt;Node1</title>
<path fill="none" stroke="#404040" d="M71.5,-127.131C71.5,-115.662 71.5,-103.452 71.5,-91.9384"/>
<polygon fill="none" stroke="#404040" points="71.5001,-91.7873 67.5,-85.7873 71.5,-79.7873 75.5,-85.7873 71.5001,-91.7873"/>
<text text-anchor="middle" x="114" y="-101" font-family="Helvetica,sans-Serif" font-size="10.00"> +Object_field_sem</text>
</g>
<!-- Node3 -->
<g id="node3" class="node"><title>Node3</title>
<g id="a_node3"><a xlink:href="structti__sysbios__knl___queue___object____.html" target="_top" xlink:title=" ">
<polygon fill="white" stroke="black" points="15,-276.5 15,-344.5 128,-344.5 128,-276.5 15,-276.5"/>
<text text-anchor="start" x="23" y="-332.5" font-family="Helvetica,sans-Serif" font-size="10.00">ti_sysbios_knl_Queue</text>
<text text-anchor="middle" x="71.5" y="-321.5" font-family="Helvetica,sans-Serif" font-size="10.00">_Object__</text>
<polyline fill="none" stroke="black" points="15,-314.5 128,-314.5 "/>
<text text-anchor="start" x="23" y="-302.5" font-family="Helvetica,sans-Serif" font-size="10.00">+ elem</text>
<polyline fill="none" stroke="black" points="15,-295.5 128,-295.5 "/>
<text text-anchor="middle" x="71.5" y="-283.5" font-family="Helvetica,sans-Serif" font-size="10.00"> </text>
</a>
</g>
</g>
<!-- Node3&#45;&gt;Node2 -->
<g id="edge2" class="edge"><title>Node3&#45;&gt;Node2</title>
<path fill="none" stroke="#404040" d="M71.5,-276.232C71.5,-265.471 71.5,-253.168 71.5,-241.015"/>
<polygon fill="none" stroke="#404040" points="71.5001,-240.975 67.5,-234.975 71.5,-228.975 75.5,-234.975 71.5001,-240.975"/>
<text text-anchor="middle" x="118.5" y="-250" font-family="Helvetica,sans-Serif" font-size="10.00"> +Object_field_pendQ</text>
</g>
</g>
</svg>
