<?xml version="1.0" encoding="UTF-8" standalone="no"?>
<!DOCTYPE svg PUBLIC "-//W3C//DTD SVG 1.1//EN"
 "http://www.w3.org/Graphics/SVG/1.1/DTD/svg11.dtd">
<!-- Generated by graphviz version 2.38.0 (20140413.2041)
 -->
<!-- Title: MmwDemo_CliCommonCfg_t_ Pages: 1 -->
<svg width="503pt" height="215pt"
 viewBox="0.00 0.00 503.00 215.00" xmlns="http://www.w3.org/2000/svg" xmlns:xlink="http://www.w3.org/1999/xlink">
<g id="graph0" class="graph" transform="scale(1 1) rotate(0) translate(4 211)">
<title>MmwDemo_CliCommonCfg_t_</title>
<polygon fill="white" stroke="none" points="-4,4 -4,-211 499,-211 499,4 -4,4"/>
<!-- Node1 -->
<g id="node1" class="node"><title>Node1</title>
<g id="a_node1"><a xlink:title="Millimeter Wave Demo CLI related configuration common across all subframes.">
<polygon fill="#bfbfbf" stroke="black" points="182,-0.5 182,-68.5 331,-68.5 331,-0.5 182,-0.5"/>
<text text-anchor="middle" x="256.5" y="-56.5" font-family="Helvetica,sans-Serif" font-size="10.00">MmwDemo_CliCommonCfg_t_</text>
<polyline fill="none" stroke="black" points="182,-49.5 331,-49.5 "/>
<text text-anchor="start" x="190" y="-37.5" font-family="Helvetica,sans-Serif" font-size="10.00">+ cqSigImgMonCfg</text>
<text text-anchor="start" x="190" y="-26.5" font-family="Helvetica,sans-Serif" font-size="10.00">+ cqSatMonCfg</text>
<polyline fill="none" stroke="black" points="182,-19.5 331,-19.5 "/>
<text text-anchor="middle" x="256.5" y="-7.5" font-family="Helvetica,sans-Serif" font-size="10.00"> </text>
</a>
</g>
</g>
<!-- Node2 -->
<g id="node2" class="node"><title>Node2</title>
<g id="a_node2"><a xlink:href="struct_mmw_demo__comp_rx_channel_bias_cfg__t__.html" target="_top" xlink:title="Range Bias and rx channel gain/phase compensation configuration.">
<polygon fill="white" stroke="black" points="0,-122 0,-201 161,-201 161,-122 0,-122"/>
<text text-anchor="start" x="8" y="-189" font-family="Helvetica,sans-Serif" font-size="10.00">MmwDemo_compRxChannelBias</text>
<text text-anchor="middle" x="80.5" y="-178" font-family="Helvetica,sans-Serif" font-size="10.00">Cfg_t_</text>
<polyline fill="none" stroke="black" points="0,-171 161,-171 "/>
<text text-anchor="start" x="8" y="-159" font-family="Helvetica,sans-Serif" font-size="10.00">+ rangeBias</text>
<text text-anchor="start" x="8" y="-148" font-family="Helvetica,sans-Serif" font-size="10.00">+ rxChPhaseComp</text>
<polyline fill="none" stroke="black" points="0,-141 161,-141 "/>
<text text-anchor="middle" x="80.5" y="-129" font-family="Helvetica,sans-Serif" font-size="10.00"> </text>
</a>
</g>
</g>
<!-- Node2&#45;&gt;Node1 -->
<g id="edge1" class="edge"><title>Node2&#45;&gt;Node1</title>
<path fill="none" stroke="#404040" d="M125.283,-121.786C139.416,-110.158 155.311,-97.6655 170.5,-87 176.157,-83.0278 182.129,-79.0485 188.181,-75.1599"/>
<polygon fill="none" stroke="#404040" points="188.25,-75.1163 191.194,-68.5333 198.403,-68.7185 195.459,-75.3015 188.25,-75.1163"/>
<text text-anchor="middle" x="211.5" y="-90" font-family="Helvetica,sans-Serif" font-size="10.00"> +compRxChanCfg</text>
</g>
<!-- Node3 -->
<g id="node3" class="node"><title>Node3</title>
<g id="a_node3"><a xlink:href="struct_mmw_demo__measure_rx_channel_bias_cfg__t__.html" target="_top" xlink:title="Range Bias and rx channel gain/phase measurement configuration.">
<polygon fill="white" stroke="black" points="179,-116.5 179,-206.5 334,-206.5 334,-116.5 179,-116.5"/>
<text text-anchor="start" x="187" y="-194.5" font-family="Helvetica,sans-Serif" font-size="10.00">MmwDemo_measureRxChannel</text>
<text text-anchor="middle" x="256.5" y="-183.5" font-family="Helvetica,sans-Serif" font-size="10.00">BiasCfg_t_</text>
<polyline fill="none" stroke="black" points="179,-176.5 334,-176.5 "/>
<text text-anchor="start" x="187" y="-164.5" font-family="Helvetica,sans-Serif" font-size="10.00">+ enabled</text>
<text text-anchor="start" x="187" y="-153.5" font-family="Helvetica,sans-Serif" font-size="10.00">+ targetDistance</text>
<text text-anchor="start" x="187" y="-142.5" font-family="Helvetica,sans-Serif" font-size="10.00">+ searchWinSize</text>
<polyline fill="none" stroke="black" points="179,-135.5 334,-135.5 "/>
<text text-anchor="middle" x="256.5" y="-123.5" font-family="Helvetica,sans-Serif" font-size="10.00"> </text>
</a>
</g>
</g>
<!-- Node3&#45;&gt;Node1 -->
<g id="edge2" class="edge"><title>Node3&#45;&gt;Node1</title>
<path fill="none" stroke="#404040" d="M256.5,-116.43C256.5,-104.867 256.5,-92.3802 256.5,-80.7566"/>
<polygon fill="none" stroke="#404040" points="256.5,-80.5672 252.5,-74.5672 256.5,-68.5672 260.5,-74.5671 256.5,-80.5672"/>
<text text-anchor="middle" x="304.5" y="-90" font-family="Helvetica,sans-Serif" font-size="10.00"> +measureRxChanCfg</text>
</g>
<!-- Node4 -->
<g id="node4" class="node"><title>Node4</title>
<g id="a_node4"><a xlink:href="struct_mmw_demo___ana_monitor_cfg__t.html" target="_top" xlink:title="Millimeter Wave Demo analog monitor configuration.">
<polygon fill="white" stroke="black" points="352,-127.5 352,-195.5 495,-195.5 495,-127.5 352,-127.5"/>
<text text-anchor="middle" x="423.5" y="-183.5" font-family="Helvetica,sans-Serif" font-size="10.00">MmwDemo_AnaMonitorCfg_t</text>
<polyline fill="none" stroke="black" points="352,-176.5 495,-176.5 "/>
<text text-anchor="start" x="360" y="-164.5" font-family="Helvetica,sans-Serif" font-size="10.00">+ rxSatMonEn</text>
<text text-anchor="start" x="360" y="-153.5" font-family="Helvetica,sans-Serif" font-size="10.00">+ sigImgMonEn</text>
<polyline fill="none" stroke="black" points="352,-146.5 495,-146.5 "/>
<text text-anchor="middle" x="423.5" y="-134.5" font-family="Helvetica,sans-Serif" font-size="10.00"> </text>
</a>
</g>
</g>
<!-- Node4&#45;&gt;Node1 -->
<g id="edge3" class="edge"><title>Node4&#45;&gt;Node1</title>
<path fill="none" stroke="#404040" d="M397.693,-127.318C386.069,-113.743 371.579,-98.5488 356.5,-87 350.938,-82.7402 344.971,-78.6629 338.822,-74.8006"/>
<polygon fill="none" stroke="#404040" points="338.63,-74.6852 331.427,-75.027 328.341,-68.5095 335.544,-68.1677 338.63,-74.6852"/>
<text text-anchor="middle" x="397.5" y="-90" font-family="Helvetica,sans-Serif" font-size="10.00"> +anaMonCfg</text>
</g>
</g>
</svg>
