<?xml version="1.0" encoding="UTF-8" standalone="no"?>
<!DOCTYPE svg PUBLIC "-//W3C//DTD SVG 1.1//EN"
 "http://www.w3.org/Graphics/SVG/1.1/DTD/svg11.dtd">
<!-- Generated by graphviz version 2.38.0 (20140413.2041)
 -->
<!-- Title: ti_sysbios_heaps_HeapBuf_Object2__ Pages: 1 -->
<svg width="172pt" height="386pt"
 viewBox="0.00 0.00 172.00 386.00" xmlns="http://www.w3.org/2000/svg" xmlns:xlink="http://www.w3.org/1999/xlink">
<g id="graph0" class="graph" transform="scale(1 1) rotate(0) translate(4 382)">
<title>ti_sysbios_heaps_HeapBuf_Object2__</title>
<polygon fill="white" stroke="none" points="-4,4 -4,-382 168,-382 168,4 -4,4"/>
<!-- Node1 -->
<g id="node1" class="node"><title>Node1</title>
<g id="a_node1"><a xlink:title=" ">
<polygon fill="#bfbfbf" stroke="black" points="0,-0.5 0,-68.5 134,-68.5 134,-0.5 0,-0.5"/>
<text text-anchor="start" x="8" y="-56.5" font-family="Helvetica,sans-Serif" font-size="10.00">ti_sysbios_heaps_HeapBuf</text>
<text text-anchor="middle" x="67" y="-45.5" font-family="Helvetica,sans-Serif" font-size="10.00">_Object2__</text>
<polyline fill="none" stroke="black" points="0,-38.5 134,-38.5 "/>
<text text-anchor="start" x="8" y="-26.5" font-family="Helvetica,sans-Serif" font-size="10.00">+ hdr</text>
<polyline fill="none" stroke="black" points="0,-19.5 134,-19.5 "/>
<text text-anchor="middle" x="67" y="-7.5" font-family="Helvetica,sans-Serif" font-size="10.00"> </text>
</a>
</g>
</g>
<!-- Node2 -->
<g id="node2" class="node"><title>Node2</title>
<g id="a_node2"><a xlink:href="structti__sysbios__heaps___heap_buf___object____.html" target="_top" xlink:title=" ">
<polygon fill="white" stroke="black" points="0,-116.5 0,-261.5 134,-261.5 134,-116.5 0,-116.5"/>
<text text-anchor="start" x="8" y="-249.5" font-family="Helvetica,sans-Serif" font-size="10.00">ti_sysbios_heaps_HeapBuf</text>
<text text-anchor="middle" x="67" y="-238.5" font-family="Helvetica,sans-Serif" font-size="10.00">_Object__</text>
<polyline fill="none" stroke="black" points="0,-231.5 134,-231.5 "/>
<text text-anchor="start" x="8" y="-219.5" font-family="Helvetica,sans-Serif" font-size="10.00">+ __fxns</text>
<text text-anchor="start" x="8" y="-208.5" font-family="Helvetica,sans-Serif" font-size="10.00">+ blockSize</text>
<text text-anchor="start" x="8" y="-197.5" font-family="Helvetica,sans-Serif" font-size="10.00">+ align</text>
<text text-anchor="start" x="8" y="-186.5" font-family="Helvetica,sans-Serif" font-size="10.00">+ numBlocks</text>
<text text-anchor="start" x="8" y="-175.5" font-family="Helvetica,sans-Serif" font-size="10.00">+ bufSize</text>
<text text-anchor="start" x="8" y="-164.5" font-family="Helvetica,sans-Serif" font-size="10.00">+ buf</text>
<text text-anchor="start" x="8" y="-153.5" font-family="Helvetica,sans-Serif" font-size="10.00">+ numFreeBlocks</text>
<text text-anchor="start" x="8" y="-142.5" font-family="Helvetica,sans-Serif" font-size="10.00">+ minFreeBlocks</text>
<polyline fill="none" stroke="black" points="0,-135.5 134,-135.5 "/>
<text text-anchor="middle" x="67" y="-123.5" font-family="Helvetica,sans-Serif" font-size="10.00"> </text>
</a>
</g>
</g>
<!-- Node2&#45;&gt;Node1 -->
<g id="edge1" class="edge"><title>Node2&#45;&gt;Node1</title>
<path fill="none" stroke="#404040" d="M67,-116.216C67,-104.092 67,-91.8165 67,-80.6221"/>
<polygon fill="none" stroke="#404040" points="67.0001,-80.508 63,-74.5081 67,-68.508 71,-74.508 67.0001,-80.508"/>
<text text-anchor="middle" x="78" y="-90" font-family="Helvetica,sans-Serif" font-size="10.00"> +obj</text>
</g>
<!-- Node3 -->
<g id="node3" class="node"><title>Node3</title>
<g id="a_node3"><a xlink:href="structti__sysbios__knl___queue___object____.html" target="_top" xlink:title=" ">
<polygon fill="white" stroke="black" points="10.5,-309.5 10.5,-377.5 123.5,-377.5 123.5,-309.5 10.5,-309.5"/>
<text text-anchor="start" x="18.5" y="-365.5" font-family="Helvetica,sans-Serif" font-size="10.00">ti_sysbios_knl_Queue</text>
<text text-anchor="middle" x="67" y="-354.5" font-family="Helvetica,sans-Serif" font-size="10.00">_Object__</text>
<polyline fill="none" stroke="black" points="10.5,-347.5 123.5,-347.5 "/>
<text text-anchor="start" x="18.5" y="-335.5" font-family="Helvetica,sans-Serif" font-size="10.00">+ elem</text>
<polyline fill="none" stroke="black" points="10.5,-328.5 123.5,-328.5 "/>
<text text-anchor="middle" x="67" y="-316.5" font-family="Helvetica,sans-Serif" font-size="10.00"> </text>
</a>
</g>
</g>
<!-- Node3&#45;&gt;Node2 -->
<g id="edge2" class="edge"><title>Node3&#45;&gt;Node2</title>
<path fill="none" stroke="#404040" d="M67,-309.41C67,-298.722 67,-286.347 67,-273.696"/>
<polygon fill="none" stroke="#404040" points="67.0001,-273.528 63,-267.528 67,-261.528 71,-267.528 67.0001,-273.528"/>
<text text-anchor="middle" x="115.5" y="-283" font-family="Helvetica,sans-Serif" font-size="10.00"> +Object_field_freeList</text>
</g>
</g>
</svg>
