<?xml version="1.0" encoding="UTF-8" standalone="no"?>
<!DOCTYPE svg PUBLIC "-//W3C//DTD SVG 1.1//EN"
 "http://www.w3.org/Graphics/SVG/1.1/DTD/svg11.dtd">
<!-- Generated by graphviz version 2.38.0 (20140413.2041)
 -->
<!-- Title: mmWaveMSG_t Pages: 1 -->
<svg width="385pt" height="491pt"
 viewBox="0.00 0.00 384.50 491.00" xmlns="http://www.w3.org/2000/svg" xmlns:xlink="http://www.w3.org/1999/xlink">
<g id="graph0" class="graph" transform="scale(1 1) rotate(0) translate(4 487)">
<title>mmWaveMSG_t</title>
<polygon fill="white" stroke="none" points="-4,4 -4,-487 380.5,-487 380.5,4 -4,4"/>
<!-- Node1 -->
<g id="node1" class="node"><title>Node1</title>
<g id="a_node1"><a xlink:title="The structure defines the message structure used for communication between MSS and DSS.">
<polygon fill="#bfbfbf" stroke="black" points="86,-0.5 86,-68.5 175,-68.5 175,-0.5 86,-0.5"/>
<text text-anchor="middle" x="130.5" y="-56.5" font-family="Helvetica,sans-Serif" font-size="10.00">mmWaveMSG_t</text>
<polyline fill="none" stroke="black" points="86,-49.5 175,-49.5 "/>
<text text-anchor="start" x="94" y="-37.5" font-family="Helvetica,sans-Serif" font-size="10.00">+ subFrameNum</text>
<text text-anchor="start" x="94" y="-26.5" font-family="Helvetica,sans-Serif" font-size="10.00">+ type</text>
<polyline fill="none" stroke="black" points="86,-19.5 175,-19.5 "/>
<text text-anchor="middle" x="130.5" y="-7.5" font-family="Helvetica,sans-Serif" font-size="10.00"> </text>
</a>
</g>
</g>
<!-- Node2 -->
<g id="node2" class="node"><title>Node2</title>
<g id="a_node2"><a xlink:href="unionmm_wave_m_s_g__body__u.html" target="_top" xlink:title="The union defines the message body for various configuration messages. For passing configuration from...">
<polygon fill="white" stroke="black" points="64.5,-116.5 64.5,-184.5 196.5,-184.5 196.5,-116.5 64.5,-116.5"/>
<text text-anchor="middle" x="130.5" y="-172.5" font-family="Helvetica,sans-Serif" font-size="10.00">mmWaveMSG_body_u</text>
<polyline fill="none" stroke="black" points="64.5,-165.5 196.5,-165.5 "/>
<text text-anchor="start" x="72.5" y="-153.5" font-family="Helvetica,sans-Serif" font-size="10.00">+ dataLogger</text>
<text text-anchor="start" x="72.5" y="-142.5" font-family="Helvetica,sans-Serif" font-size="10.00">+ dss2mssISRinfoAddress</text>
<polyline fill="none" stroke="black" points="64.5,-135.5 196.5,-135.5 "/>
<text text-anchor="middle" x="130.5" y="-123.5" font-family="Helvetica,sans-Serif" font-size="10.00"> </text>
</a>
</g>
</g>
<!-- Node2&#45;&gt;Node1 -->
<g id="edge1" class="edge"><title>Node2&#45;&gt;Node1</title>
<path fill="none" stroke="#404040" d="M130.5,-116.22C130.5,-105.099 130.5,-92.5117 130.5,-80.6422"/>
<polygon fill="none" stroke="#404040" points="130.5,-80.6243 126.5,-74.6243 130.5,-68.6243 134.5,-74.6242 130.5,-80.6243"/>
<text text-anchor="middle" x="146" y="-90" font-family="Helvetica,sans-Serif" font-size="10.00"> +body</text>
</g>
<!-- Node3 -->
<g id="node3" class="node"><title>Node3</title>
<g id="a_node3"><a xlink:href="structmm_wave__dss_assert_info_msg__t.html" target="_top" xlink:title="The structure defines the message body for the information on a DSS exception that should be forwarde...">
<polygon fill="white" stroke="black" points="0,-232.5 0,-300.5 149,-300.5 149,-232.5 0,-232.5"/>
<text text-anchor="middle" x="74.5" y="-288.5" font-family="Helvetica,sans-Serif" font-size="10.00">mmWave_dssAssertInfoMsg_t</text>
<polyline fill="none" stroke="black" points="0,-281.5 149,-281.5 "/>
<text text-anchor="start" x="8" y="-269.5" font-family="Helvetica,sans-Serif" font-size="10.00">+ file</text>
<text text-anchor="start" x="8" y="-258.5" font-family="Helvetica,sans-Serif" font-size="10.00">+ line</text>
<polyline fill="none" stroke="black" points="0,-251.5 149,-251.5 "/>
<text text-anchor="middle" x="74.5" y="-239.5" font-family="Helvetica,sans-Serif" font-size="10.00"> </text>
</a>
</g>
</g>
<!-- Node3&#45;&gt;Node2 -->
<g id="edge2" class="edge"><title>Node3&#45;&gt;Node2</title>
<path fill="none" stroke="#404040" d="M90.8481,-232.22C96.4836,-220.748 102.885,-207.715 108.876,-195.52"/>
<polygon fill="none" stroke="#404040" points="108.938,-195.395 107.993,-188.246 114.228,-184.624 115.173,-191.773 108.938,-195.395"/>
<text text-anchor="middle" x="130.5" y="-206" font-family="Helvetica,sans-Serif" font-size="10.00"> +assertInfo</text>
</g>
<!-- Node4 -->
<g id="node4" class="node"><title>Node4</title>
<g id="a_node4"><a xlink:href="structmm_wave__det_obj_msg__t.html" target="_top" xlink:title="The structure defines the message body for for reporting detection information from data path to MSS.">
<polygon fill="white" stroke="black" points="167.5,-238 167.5,-295 285.5,-295 285.5,-238 167.5,-238"/>
<text text-anchor="middle" x="226.5" y="-283" font-family="Helvetica,sans-Serif" font-size="10.00">mmWave_detObjMsg_t</text>
<polyline fill="none" stroke="black" points="167.5,-276 285.5,-276 "/>
<text text-anchor="middle" x="226.5" y="-264" font-family="Helvetica,sans-Serif" font-size="10.00"> </text>
<polyline fill="none" stroke="black" points="167.5,-257 285.5,-257 "/>
<text text-anchor="middle" x="226.5" y="-245" font-family="Helvetica,sans-Serif" font-size="10.00"> </text>
</a>
</g>
</g>
<!-- Node4&#45;&gt;Node2 -->
<g id="edge3" class="edge"><title>Node4&#45;&gt;Node2</title>
<path fill="none" stroke="#404040" d="M203.261,-237.904C192.154,-224.714 178.612,-208.632 166.235,-193.935"/>
<polygon fill="none" stroke="#404040" points="166.037,-193.7 159.113,-191.687 158.307,-184.521 165.232,-186.534 166.037,-193.7"/>
<text text-anchor="middle" x="200.5" y="-206" font-family="Helvetica,sans-Serif" font-size="10.00"> +detObj</text>
</g>
<!-- Node5 -->
<g id="node5" class="node"><title>Node5</title>
<g id="a_node5"><a xlink:href="structmm_wave_m_s_g___t_l_v__t.html" target="_top" xlink:title="The structure describes the TLV part of the message from DSS to MSS on data path detection informatio...">
<polygon fill="white" stroke="black" points="96.5,-376 96.5,-455 206.5,-455 206.5,-376 96.5,-376"/>
<text text-anchor="middle" x="151.5" y="-443" font-family="Helvetica,sans-Serif" font-size="10.00">mmWaveMSG_TLV_t</text>
<polyline fill="none" stroke="black" points="96.5,-436 206.5,-436 "/>
<text text-anchor="start" x="104.5" y="-424" font-family="Helvetica,sans-Serif" font-size="10.00">+ type</text>
<text text-anchor="start" x="104.5" y="-413" font-family="Helvetica,sans-Serif" font-size="10.00">+ length</text>
<text text-anchor="start" x="104.5" y="-402" font-family="Helvetica,sans-Serif" font-size="10.00">+ address</text>
<polyline fill="none" stroke="black" points="96.5,-395 206.5,-395 "/>
<text text-anchor="middle" x="151.5" y="-383" font-family="Helvetica,sans-Serif" font-size="10.00"> </text>
</a>
</g>
</g>
<!-- Node5&#45;&gt;Node4 -->
<g id="edge4" class="edge"><title>Node5&#45;&gt;Node4</title>
<path fill="none" stroke="#404040" d="M171.205,-375.877C182.219,-354.291 195.899,-327.479 206.896,-305.924"/>
<polygon fill="none" stroke="#404040" points="206.92,-305.877 206.084,-298.714 212.374,-295.187 213.21,-302.35 206.92,-305.877"/>
<text text-anchor="middle" x="210" y="-322" font-family="Helvetica,sans-Serif" font-size="10.00"> +tlv</text>
</g>
<!-- Node6 -->
<g id="node6" class="node"><title>Node6</title>
<g id="a_node6"><a xlink:href="structmm_wave___o_u_t___m_s_g__header__t.html" target="_top" xlink:title="The structure defines the message header for reporting detection information from data path....">
<polygon fill="white" stroke="black" points="224.5,-348.5 224.5,-482.5 376.5,-482.5 376.5,-348.5 224.5,-348.5"/>
<text text-anchor="middle" x="300.5" y="-470.5" font-family="Helvetica,sans-Serif" font-size="10.00">mmWave_OUT_MSG_header_t</text>
<polyline fill="none" stroke="black" points="224.5,-463.5 376.5,-463.5 "/>
<text text-anchor="start" x="232.5" y="-451.5" font-family="Helvetica,sans-Serif" font-size="10.00">+ magicWord</text>
<text text-anchor="start" x="232.5" y="-440.5" font-family="Helvetica,sans-Serif" font-size="10.00">+ version</text>
<text text-anchor="start" x="232.5" y="-429.5" font-family="Helvetica,sans-Serif" font-size="10.00">+ totalPacketLen</text>
<text text-anchor="start" x="232.5" y="-418.5" font-family="Helvetica,sans-Serif" font-size="10.00">+ platform</text>
<text text-anchor="start" x="232.5" y="-407.5" font-family="Helvetica,sans-Serif" font-size="10.00">+ frameNumber</text>
<text text-anchor="start" x="232.5" y="-396.5" font-family="Helvetica,sans-Serif" font-size="10.00">+ timeCpuCycles</text>
<text text-anchor="start" x="232.5" y="-385.5" font-family="Helvetica,sans-Serif" font-size="10.00">+ numDetectedObj</text>
<text text-anchor="start" x="232.5" y="-374.5" font-family="Helvetica,sans-Serif" font-size="10.00">+ numTLVs</text>
<polyline fill="none" stroke="black" points="224.5,-367.5 376.5,-367.5 "/>
<text text-anchor="middle" x="300.5" y="-355.5" font-family="Helvetica,sans-Serif" font-size="10.00"> </text>
</a>
</g>
</g>
<!-- Node6&#45;&gt;Node4 -->
<g id="edge5" class="edge"><title>Node6&#45;&gt;Node4</title>
<path fill="none" stroke="#404040" d="M267.18,-348.311C259.881,-333.811 252.389,-318.928 245.856,-305.95"/>
<polygon fill="none" stroke="#404040" points="245.785,-305.81 239.515,-302.249 240.39,-295.092 246.66,-298.652 245.785,-305.81"/>
<text text-anchor="middle" x="276" y="-322" font-family="Helvetica,sans-Serif" font-size="10.00"> +header</text>
</g>
</g>
</svg>
