<?xml version="1.0" encoding="UTF-8" standalone="no"?>
<!DOCTYPE svg PUBLIC "-//W3C//DTD SVG 1.1//EN"
 "http://www.w3.org/Graphics/SVG/1.1/DTD/svg11.dtd">
<!-- Generated by graphviz version 2.38.0 (20140413.2041)
 -->
<!-- Title: ti_sysbios_knl_Event___S1 Pages: 1 -->
<svg width="170pt" height="414pt"
 viewBox="0.00 0.00 170.00 414.00" xmlns="http://www.w3.org/2000/svg" xmlns:xlink="http://www.w3.org/1999/xlink">
<g id="graph0" class="graph" transform="scale(1 1) rotate(0) translate(4 410)">
<title>ti_sysbios_knl_Event___S1</title>
<polygon fill="white" stroke="none" points="-4,4 -4,-410 166,-410 166,4 -4,4"/>
<!-- Node1 -->
<g id="node1" class="node"><title>Node1</title>
<g id="a_node1"><a xlink:title=" ">
<polygon fill="#bfbfbf" stroke="black" points="0,-0.5 0,-57.5 136,-57.5 136,-0.5 0,-0.5"/>
<text text-anchor="middle" x="68" y="-45.5" font-family="Helvetica,sans-Serif" font-size="10.00">ti_sysbios_knl_Event___S1</text>
<polyline fill="none" stroke="black" points="0,-38.5 136,-38.5 "/>
<text text-anchor="start" x="8" y="-26.5" font-family="Helvetica,sans-Serif" font-size="10.00">+ c</text>
<polyline fill="none" stroke="black" points="0,-19.5 136,-19.5 "/>
<text text-anchor="middle" x="68" y="-7.5" font-family="Helvetica,sans-Serif" font-size="10.00"> </text>
</a>
</g>
</g>
<!-- Node2 -->
<g id="node2" class="node"><title>Node2</title>
<g id="a_node2"><a xlink:href="structti__sysbios__knl___event___object2____.html" target="_top" xlink:title=" ">
<polygon fill="white" stroke="black" points="14,-105.5 14,-173.5 122,-173.5 122,-105.5 14,-105.5"/>
<text text-anchor="start" x="22" y="-161.5" font-family="Helvetica,sans-Serif" font-size="10.00">ti_sysbios_knl_Event</text>
<text text-anchor="middle" x="68" y="-150.5" font-family="Helvetica,sans-Serif" font-size="10.00">_Object2__</text>
<polyline fill="none" stroke="black" points="14,-143.5 122,-143.5 "/>
<text text-anchor="start" x="22" y="-131.5" font-family="Helvetica,sans-Serif" font-size="10.00">+ hdr</text>
<polyline fill="none" stroke="black" points="14,-124.5 122,-124.5 "/>
<text text-anchor="middle" x="68" y="-112.5" font-family="Helvetica,sans-Serif" font-size="10.00"> </text>
</a>
</g>
</g>
<!-- Node2&#45;&gt;Node1 -->
<g id="edge1" class="edge"><title>Node2&#45;&gt;Node1</title>
<path fill="none" stroke="#404040" d="M68,-105.357C68,-94.1899 68,-81.6093 68,-69.9724"/>
<polygon fill="none" stroke="#404040" points="68.0001,-69.827 64,-63.827 68,-57.827 72,-63.8269 68.0001,-69.827"/>
<text text-anchor="middle" x="78" y="-79" font-family="Helvetica,sans-Serif" font-size="10.00"> +s0</text>
</g>
<!-- Node3 -->
<g id="node3" class="node"><title>Node3</title>
<g id="a_node3"><a xlink:href="structti__sysbios__knl___event___object____.html" target="_top" xlink:title=" ">
<polygon fill="white" stroke="black" points="14,-221.5 14,-289.5 122,-289.5 122,-221.5 14,-221.5"/>
<text text-anchor="start" x="22" y="-277.5" font-family="Helvetica,sans-Serif" font-size="10.00">ti_sysbios_knl_Event</text>
<text text-anchor="middle" x="68" y="-266.5" font-family="Helvetica,sans-Serif" font-size="10.00">_Object__</text>
<polyline fill="none" stroke="black" points="14,-259.5 122,-259.5 "/>
<text text-anchor="start" x="22" y="-247.5" font-family="Helvetica,sans-Serif" font-size="10.00">+ postedEvents</text>
<polyline fill="none" stroke="black" points="14,-240.5 122,-240.5 "/>
<text text-anchor="middle" x="68" y="-228.5" font-family="Helvetica,sans-Serif" font-size="10.00"> </text>
</a>
</g>
</g>
<!-- Node3&#45;&gt;Node2 -->
<g id="edge2" class="edge"><title>Node3&#45;&gt;Node2</title>
<path fill="none" stroke="#404040" d="M68,-221.22C68,-210.099 68,-197.512 68,-185.642"/>
<polygon fill="none" stroke="#404040" points="68.0001,-185.624 64,-179.624 68,-173.624 72,-179.624 68.0001,-185.624"/>
<text text-anchor="middle" x="79" y="-195" font-family="Helvetica,sans-Serif" font-size="10.00"> +obj</text>
</g>
<!-- Node4 -->
<g id="node4" class="node"><title>Node4</title>
<g id="a_node4"><a xlink:href="structti__sysbios__knl___queue___object____.html" target="_top" xlink:title=" ">
<polygon fill="white" stroke="black" points="11.5,-337.5 11.5,-405.5 124.5,-405.5 124.5,-337.5 11.5,-337.5"/>
<text text-anchor="start" x="19.5" y="-393.5" font-family="Helvetica,sans-Serif" font-size="10.00">ti_sysbios_knl_Queue</text>
<text text-anchor="middle" x="68" y="-382.5" font-family="Helvetica,sans-Serif" font-size="10.00">_Object__</text>
<polyline fill="none" stroke="black" points="11.5,-375.5 124.5,-375.5 "/>
<text text-anchor="start" x="19.5" y="-363.5" font-family="Helvetica,sans-Serif" font-size="10.00">+ elem</text>
<polyline fill="none" stroke="black" points="11.5,-356.5 124.5,-356.5 "/>
<text text-anchor="middle" x="68" y="-344.5" font-family="Helvetica,sans-Serif" font-size="10.00"> </text>
</a>
</g>
</g>
<!-- Node4&#45;&gt;Node3 -->
<g id="edge3" class="edge"><title>Node4&#45;&gt;Node3</title>
<path fill="none" stroke="#404040" d="M68,-337.22C68,-326.099 68,-313.512 68,-301.642"/>
<polygon fill="none" stroke="#404040" points="68.0001,-301.624 64,-295.624 68,-289.624 72,-295.624 68.0001,-301.624"/>
<text text-anchor="middle" x="115" y="-311" font-family="Helvetica,sans-Serif" font-size="10.00"> +Object_field_pendQ</text>
</g>
</g>
</svg>
