<?xml version="1.0" encoding="UTF-8" standalone="no"?>
<!DOCTYPE svg PUBLIC "-//W3C//DTD SVG 1.1//EN"
 "http://www.w3.org/Graphics/SVG/1.1/DTD/svg11.dtd">
<!-- Generated by graphviz version 2.38.0 (20140413.2041)
 -->
<!-- Title: ti_sysbios_gates_GateMutex___S1 Pages: 1 -->
<svg width="188pt" height="574pt"
 viewBox="0.00 0.00 187.50 574.00" xmlns="http://www.w3.org/2000/svg" xmlns:xlink="http://www.w3.org/1999/xlink">
<g id="graph0" class="graph" transform="scale(1 1) rotate(0) translate(4 570)">
<title>ti_sysbios_gates_GateMutex___S1</title>
<polygon fill="white" stroke="none" points="-4,4 -4,-570 183.5,-570 183.5,4 -4,4"/>
<!-- Node1 -->
<g id="node1" class="node"><title>Node1</title>
<g id="a_node1"><a xlink:title=" ">
<polygon fill="#bfbfbf" stroke="black" points="0,-0.5 0,-57.5 171,-57.5 171,-0.5 0,-0.5"/>
<text text-anchor="middle" x="85.5" y="-45.5" font-family="Helvetica,sans-Serif" font-size="10.00">ti_sysbios_gates_GateMutex___S1</text>
<polyline fill="none" stroke="black" points="0,-38.5 171,-38.5 "/>
<text text-anchor="start" x="8" y="-26.5" font-family="Helvetica,sans-Serif" font-size="10.00">+ c</text>
<polyline fill="none" stroke="black" points="0,-19.5 171,-19.5 "/>
<text text-anchor="middle" x="85.5" y="-7.5" font-family="Helvetica,sans-Serif" font-size="10.00"> </text>
</a>
</g>
</g>
<!-- Node2 -->
<g id="node2" class="node"><title>Node2</title>
<g id="a_node2"><a xlink:href="structti__sysbios__gates___gate_mutex___object2____.html" target="_top" xlink:title=" ">
<polygon fill="white" stroke="black" points="14,-105.5 14,-173.5 157,-173.5 157,-105.5 14,-105.5"/>
<text text-anchor="start" x="22" y="-161.5" font-family="Helvetica,sans-Serif" font-size="10.00">ti_sysbios_gates_GateMutex</text>
<text text-anchor="middle" x="85.5" y="-150.5" font-family="Helvetica,sans-Serif" font-size="10.00">_Object2__</text>
<polyline fill="none" stroke="black" points="14,-143.5 157,-143.5 "/>
<text text-anchor="start" x="22" y="-131.5" font-family="Helvetica,sans-Serif" font-size="10.00">+ hdr</text>
<polyline fill="none" stroke="black" points="14,-124.5 157,-124.5 "/>
<text text-anchor="middle" x="85.5" y="-112.5" font-family="Helvetica,sans-Serif" font-size="10.00"> </text>
</a>
</g>
</g>
<!-- Node2&#45;&gt;Node1 -->
<g id="edge1" class="edge"><title>Node2&#45;&gt;Node1</title>
<path fill="none" stroke="#404040" d="M85.5,-105.357C85.5,-94.1899 85.5,-81.6093 85.5,-69.9724"/>
<polygon fill="none" stroke="#404040" points="85.5001,-69.827 81.5,-63.827 85.5,-57.827 89.5,-63.8269 85.5001,-69.827"/>
<text text-anchor="middle" x="95.5" y="-79" font-family="Helvetica,sans-Serif" font-size="10.00"> +s0</text>
</g>
<!-- Node3 -->
<g id="node3" class="node"><title>Node3</title>
<g id="a_node3"><a xlink:href="structti__sysbios__gates___gate_mutex___object____.html" target="_top" xlink:title=" ">
<polygon fill="white" stroke="black" points="14,-221.5 14,-300.5 157,-300.5 157,-221.5 14,-221.5"/>
<text text-anchor="start" x="22" y="-288.5" font-family="Helvetica,sans-Serif" font-size="10.00">ti_sysbios_gates_GateMutex</text>
<text text-anchor="middle" x="85.5" y="-277.5" font-family="Helvetica,sans-Serif" font-size="10.00">_Object__</text>
<polyline fill="none" stroke="black" points="14,-270.5 157,-270.5 "/>
<text text-anchor="start" x="22" y="-258.5" font-family="Helvetica,sans-Serif" font-size="10.00">+ __fxns</text>
<text text-anchor="start" x="22" y="-247.5" font-family="Helvetica,sans-Serif" font-size="10.00">+ owner</text>
<polyline fill="none" stroke="black" points="14,-240.5 157,-240.5 "/>
<text text-anchor="middle" x="85.5" y="-228.5" font-family="Helvetica,sans-Serif" font-size="10.00"> </text>
</a>
</g>
</g>
<!-- Node3&#45;&gt;Node2 -->
<g id="edge2" class="edge"><title>Node3&#45;&gt;Node2</title>
<path fill="none" stroke="#404040" d="M85.5,-221.202C85.5,-209.991 85.5,-197.653 85.5,-186.07"/>
<polygon fill="none" stroke="#404040" points="85.5001,-185.887 81.5,-179.887 85.5,-173.887 89.5,-179.887 85.5001,-185.887"/>
<text text-anchor="middle" x="96.5" y="-195" font-family="Helvetica,sans-Serif" font-size="10.00"> +obj</text>
</g>
<!-- Node4 -->
<g id="node4" class="node"><title>Node4</title>
<g id="a_node4"><a xlink:href="structti__sysbios__knl___semaphore___object____.html" target="_top" xlink:title=" ">
<polygon fill="white" stroke="black" points="18.5,-348.5 18.5,-449.5 152.5,-449.5 152.5,-348.5 18.5,-348.5"/>
<text text-anchor="start" x="26.5" y="-437.5" font-family="Helvetica,sans-Serif" font-size="10.00">ti_sysbios_knl_Semaphore</text>
<text text-anchor="middle" x="85.5" y="-426.5" font-family="Helvetica,sans-Serif" font-size="10.00">_Object__</text>
<polyline fill="none" stroke="black" points="18.5,-419.5 152.5,-419.5 "/>
<text text-anchor="start" x="26.5" y="-407.5" font-family="Helvetica,sans-Serif" font-size="10.00">+ event</text>
<text text-anchor="start" x="26.5" y="-396.5" font-family="Helvetica,sans-Serif" font-size="10.00">+ eventId</text>
<text text-anchor="start" x="26.5" y="-385.5" font-family="Helvetica,sans-Serif" font-size="10.00">+ mode</text>
<text text-anchor="start" x="26.5" y="-374.5" font-family="Helvetica,sans-Serif" font-size="10.00">+ count</text>
<polyline fill="none" stroke="black" points="18.5,-367.5 152.5,-367.5 "/>
<text text-anchor="middle" x="85.5" y="-355.5" font-family="Helvetica,sans-Serif" font-size="10.00"> </text>
</a>
</g>
</g>
<!-- Node4&#45;&gt;Node3 -->
<g id="edge3" class="edge"><title>Node4&#45;&gt;Node3</title>
<path fill="none" stroke="#404040" d="M85.5,-348.131C85.5,-336.662 85.5,-324.452 85.5,-312.938"/>
<polygon fill="none" stroke="#404040" points="85.5001,-312.787 81.5,-306.787 85.5,-300.787 89.5,-306.787 85.5001,-312.787"/>
<text text-anchor="middle" x="128" y="-322" font-family="Helvetica,sans-Serif" font-size="10.00"> +Object_field_sem</text>
</g>
<!-- Node5 -->
<g id="node5" class="node"><title>Node5</title>
<g id="a_node5"><a xlink:href="structti__sysbios__knl___queue___object____.html" target="_top" xlink:title=" ">
<polygon fill="white" stroke="black" points="29,-497.5 29,-565.5 142,-565.5 142,-497.5 29,-497.5"/>
<text text-anchor="start" x="37" y="-553.5" font-family="Helvetica,sans-Serif" font-size="10.00">ti_sysbios_knl_Queue</text>
<text text-anchor="middle" x="85.5" y="-542.5" font-family="Helvetica,sans-Serif" font-size="10.00">_Object__</text>
<polyline fill="none" stroke="black" points="29,-535.5 142,-535.5 "/>
<text text-anchor="start" x="37" y="-523.5" font-family="Helvetica,sans-Serif" font-size="10.00">+ elem</text>
<polyline fill="none" stroke="black" points="29,-516.5 142,-516.5 "/>
<text text-anchor="middle" x="85.5" y="-504.5" font-family="Helvetica,sans-Serif" font-size="10.00"> </text>
</a>
</g>
</g>
<!-- Node5&#45;&gt;Node4 -->
<g id="edge4" class="edge"><title>Node5&#45;&gt;Node4</title>
<path fill="none" stroke="#404040" d="M85.5,-497.232C85.5,-486.471 85.5,-474.168 85.5,-462.015"/>
<polygon fill="none" stroke="#404040" points="85.5001,-461.975 81.5,-455.975 85.5,-449.975 89.5,-455.975 85.5001,-461.975"/>
<text text-anchor="middle" x="132.5" y="-471" font-family="Helvetica,sans-Serif" font-size="10.00"> +Object_field_pendQ</text>
</g>
</g>
</svg>
