<?xml version="1.0" encoding="UTF-8" standalone="no"?>
<!DOCTYPE svg PUBLIC "-//W3C//DTD SVG 1.1//EN"
 "http://www.w3.org/Graphics/SVG/1.1/DTD/svg11.dtd">
<!-- Generated by graphviz version 2.38.0 (20140413.2041)
 -->
<!-- Title: ti_sysbios_heaps_HeapMem_Module_GateProxy_Object2__ Pages: 1 -->
<svg width="180pt" height="469pt"
 viewBox="0.00 0.00 179.50 469.00" xmlns="http://www.w3.org/2000/svg" xmlns:xlink="http://www.w3.org/1999/xlink">
<g id="graph0" class="graph" transform="scale(1 1) rotate(0) translate(4 465)">
<title>ti_sysbios_heaps_HeapMem_Module_GateProxy_Object2__</title>
<polygon fill="white" stroke="none" points="-4,4 -4,-465 175.5,-465 175.5,4 -4,4"/>
<!-- Node1 -->
<g id="node1" class="node"><title>Node1</title>
<g id="a_node1"><a xlink:title=" ">
<polygon fill="#bfbfbf" stroke="black" points="0,-0.5 0,-68.5 155,-68.5 155,-0.5 0,-0.5"/>
<text text-anchor="start" x="8" y="-56.5" font-family="Helvetica,sans-Serif" font-size="10.00">ti_sysbios_heaps_HeapMem</text>
<text text-anchor="middle" x="77.5" y="-45.5" font-family="Helvetica,sans-Serif" font-size="10.00">_Module_GateProxy_Object2__</text>
<polyline fill="none" stroke="black" points="0,-38.5 155,-38.5 "/>
<text text-anchor="start" x="8" y="-26.5" font-family="Helvetica,sans-Serif" font-size="10.00">+ hdr</text>
<polyline fill="none" stroke="black" points="0,-19.5 155,-19.5 "/>
<text text-anchor="middle" x="77.5" y="-7.5" font-family="Helvetica,sans-Serif" font-size="10.00"> </text>
</a>
</g>
</g>
<!-- Node2 -->
<g id="node2" class="node"><title>Node2</title>
<g id="a_node2"><a xlink:href="structti__sysbios__gates___gate_mutex___object____.html" target="_top" xlink:title=" ">
<polygon fill="white" stroke="black" points="6,-116.5 6,-195.5 149,-195.5 149,-116.5 6,-116.5"/>
<text text-anchor="start" x="14" y="-183.5" font-family="Helvetica,sans-Serif" font-size="10.00">ti_sysbios_gates_GateMutex</text>
<text text-anchor="middle" x="77.5" y="-172.5" font-family="Helvetica,sans-Serif" font-size="10.00">_Object__</text>
<polyline fill="none" stroke="black" points="6,-165.5 149,-165.5 "/>
<text text-anchor="start" x="14" y="-153.5" font-family="Helvetica,sans-Serif" font-size="10.00">+ __fxns</text>
<text text-anchor="start" x="14" y="-142.5" font-family="Helvetica,sans-Serif" font-size="10.00">+ owner</text>
<polyline fill="none" stroke="black" points="6,-135.5 149,-135.5 "/>
<text text-anchor="middle" x="77.5" y="-123.5" font-family="Helvetica,sans-Serif" font-size="10.00"> </text>
</a>
</g>
</g>
<!-- Node2&#45;&gt;Node1 -->
<g id="edge1" class="edge"><title>Node2&#45;&gt;Node1</title>
<path fill="none" stroke="#404040" d="M77.5,-116.202C77.5,-104.991 77.5,-92.6534 77.5,-81.0704"/>
<polygon fill="none" stroke="#404040" points="77.5001,-80.8867 73.5,-74.8867 77.5,-68.8867 81.5,-74.8867 77.5001,-80.8867"/>
<text text-anchor="middle" x="88.5" y="-90" font-family="Helvetica,sans-Serif" font-size="10.00"> +obj</text>
</g>
<!-- Node3 -->
<g id="node3" class="node"><title>Node3</title>
<g id="a_node3"><a xlink:href="structti__sysbios__knl___semaphore___object____.html" target="_top" xlink:title=" ">
<polygon fill="white" stroke="black" points="10.5,-243.5 10.5,-344.5 144.5,-344.5 144.5,-243.5 10.5,-243.5"/>
<text text-anchor="start" x="18.5" y="-332.5" font-family="Helvetica,sans-Serif" font-size="10.00">ti_sysbios_knl_Semaphore</text>
<text text-anchor="middle" x="77.5" y="-321.5" font-family="Helvetica,sans-Serif" font-size="10.00">_Object__</text>
<polyline fill="none" stroke="black" points="10.5,-314.5 144.5,-314.5 "/>
<text text-anchor="start" x="18.5" y="-302.5" font-family="Helvetica,sans-Serif" font-size="10.00">+ event</text>
<text text-anchor="start" x="18.5" y="-291.5" font-family="Helvetica,sans-Serif" font-size="10.00">+ eventId</text>
<text text-anchor="start" x="18.5" y="-280.5" font-family="Helvetica,sans-Serif" font-size="10.00">+ mode</text>
<text text-anchor="start" x="18.5" y="-269.5" font-family="Helvetica,sans-Serif" font-size="10.00">+ count</text>
<polyline fill="none" stroke="black" points="10.5,-262.5 144.5,-262.5 "/>
<text text-anchor="middle" x="77.5" y="-250.5" font-family="Helvetica,sans-Serif" font-size="10.00"> </text>
</a>
</g>
</g>
<!-- Node3&#45;&gt;Node2 -->
<g id="edge2" class="edge"><title>Node3&#45;&gt;Node2</title>
<path fill="none" stroke="#404040" d="M77.5,-243.131C77.5,-231.662 77.5,-219.452 77.5,-207.938"/>
<polygon fill="none" stroke="#404040" points="77.5001,-207.787 73.5,-201.787 77.5,-195.787 81.5,-201.787 77.5001,-207.787"/>
<text text-anchor="middle" x="120" y="-217" font-family="Helvetica,sans-Serif" font-size="10.00"> +Object_field_sem</text>
</g>
<!-- Node4 -->
<g id="node4" class="node"><title>Node4</title>
<g id="a_node4"><a xlink:href="structti__sysbios__knl___queue___object____.html" target="_top" xlink:title=" ">
<polygon fill="white" stroke="black" points="21,-392.5 21,-460.5 134,-460.5 134,-392.5 21,-392.5"/>
<text text-anchor="start" x="29" y="-448.5" font-family="Helvetica,sans-Serif" font-size="10.00">ti_sysbios_knl_Queue</text>
<text text-anchor="middle" x="77.5" y="-437.5" font-family="Helvetica,sans-Serif" font-size="10.00">_Object__</text>
<polyline fill="none" stroke="black" points="21,-430.5 134,-430.5 "/>
<text text-anchor="start" x="29" y="-418.5" font-family="Helvetica,sans-Serif" font-size="10.00">+ elem</text>
<polyline fill="none" stroke="black" points="21,-411.5 134,-411.5 "/>
<text text-anchor="middle" x="77.5" y="-399.5" font-family="Helvetica,sans-Serif" font-size="10.00"> </text>
</a>
</g>
</g>
<!-- Node4&#45;&gt;Node3 -->
<g id="edge3" class="edge"><title>Node4&#45;&gt;Node3</title>
<path fill="none" stroke="#404040" d="M77.5,-392.232C77.5,-381.471 77.5,-369.168 77.5,-357.015"/>
<polygon fill="none" stroke="#404040" points="77.5001,-356.975 73.5,-350.975 77.5,-344.975 81.5,-350.975 77.5001,-356.975"/>
<text text-anchor="middle" x="124.5" y="-366" font-family="Helvetica,sans-Serif" font-size="10.00"> +Object_field_pendQ</text>
</g>
</g>
</svg>
