<?xml version="1.0" encoding="UTF-8" standalone="no"?>
<!DOCTYPE svg PUBLIC "-//W3C//DTD SVG 1.1//EN"
 "http://www.w3.org/Graphics/SVG/1.1/DTD/svg11.dtd">
<!-- Generated by graphviz version 2.38.0 (20140413.2041)
 -->
<!-- Title: xdc_runtime_Memory_HeapProxy_Object2__ Pages: 1 -->
<svg width="150pt" height="237pt"
 viewBox="0.00 0.00 150.00 237.00" xmlns="http://www.w3.org/2000/svg" xmlns:xlink="http://www.w3.org/1999/xlink">
<g id="graph0" class="graph" transform="scale(1 1) rotate(0) translate(4 233)">
<title>xdc_runtime_Memory_HeapProxy_Object2__</title>
<polygon fill="white" stroke="none" points="-4,4 -4,-233 146,-233 146,4 -4,4"/>
<!-- Node1 -->
<g id="node1" class="node"><title>Node1</title>
<g id="a_node1"><a xlink:title=" ">
<polygon fill="#bfbfbf" stroke="black" points="11.5,-0.5 11.5,-68.5 130.5,-68.5 130.5,-0.5 11.5,-0.5"/>
<text text-anchor="start" x="19.5" y="-56.5" font-family="Helvetica,sans-Serif" font-size="10.00">xdc_runtime_Memory</text>
<text text-anchor="middle" x="71" y="-45.5" font-family="Helvetica,sans-Serif" font-size="10.00">_HeapProxy_Object2__</text>
<polyline fill="none" stroke="black" points="11.5,-38.5 130.5,-38.5 "/>
<text text-anchor="start" x="19.5" y="-26.5" font-family="Helvetica,sans-Serif" font-size="10.00">+ hdr</text>
<polyline fill="none" stroke="black" points="11.5,-19.5 130.5,-19.5 "/>
<text text-anchor="middle" x="71" y="-7.5" font-family="Helvetica,sans-Serif" font-size="10.00"> </text>
</a>
</g>
</g>
<!-- Node2 -->
<g id="node2" class="node"><title>Node2</title>
<g id="a_node2"><a xlink:href="structti__sysbios__heaps___heap_mem___object____.html" target="_top" xlink:title=" ">
<polygon fill="white" stroke="black" points="0,-116.5 0,-228.5 142,-228.5 142,-116.5 0,-116.5"/>
<text text-anchor="start" x="8" y="-216.5" font-family="Helvetica,sans-Serif" font-size="10.00">ti_sysbios_heaps_HeapMem</text>
<text text-anchor="middle" x="71" y="-205.5" font-family="Helvetica,sans-Serif" font-size="10.00">_Object__</text>
<polyline fill="none" stroke="black" points="0,-198.5 142,-198.5 "/>
<text text-anchor="start" x="8" y="-186.5" font-family="Helvetica,sans-Serif" font-size="10.00">+ __fxns</text>
<text text-anchor="start" x="8" y="-175.5" font-family="Helvetica,sans-Serif" font-size="10.00">+ align</text>
<text text-anchor="start" x="8" y="-164.5" font-family="Helvetica,sans-Serif" font-size="10.00">+ buf</text>
<text text-anchor="start" x="8" y="-153.5" font-family="Helvetica,sans-Serif" font-size="10.00">+ head</text>
<text text-anchor="start" x="8" y="-142.5" font-family="Helvetica,sans-Serif" font-size="10.00">+ minBlockAlign</text>
<polyline fill="none" stroke="black" points="0,-135.5 142,-135.5 "/>
<text text-anchor="middle" x="71" y="-123.5" font-family="Helvetica,sans-Serif" font-size="10.00"> </text>
</a>
</g>
</g>
<!-- Node2&#45;&gt;Node1 -->
<g id="edge1" class="edge"><title>Node2&#45;&gt;Node1</title>
<path fill="none" stroke="#404040" d="M71,-116.184C71,-104.429 71,-92.1496 71,-80.8193"/>
<polygon fill="none" stroke="#404040" points="71.0001,-80.5086 67,-74.5086 71,-68.5086 75,-74.5086 71.0001,-80.5086"/>
<text text-anchor="middle" x="82" y="-90" font-family="Helvetica,sans-Serif" font-size="10.00"> +obj</text>
</g>
</g>
</svg>
