<?xml version="1.0" encoding="UTF-8" standalone="no"?>
<!DOCTYPE svg PUBLIC "-//W3C//DTD SVG 1.1//EN"
 "http://www.w3.org/Graphics/SVG/1.1/DTD/svg11.dtd">
<!-- Generated by graphviz version 2.38.0 (20140413.2041)
 -->
<!-- Title: EKF_XYZ_Interface.h Pages: 1 -->
<svg width="323pt" height="95pt"
 viewBox="0.00 0.00 323.00 95.00" xmlns="http://www.w3.org/2000/svg" xmlns:xlink="http://www.w3.org/1999/xlink">
<g id="graph0" class="graph" transform="scale(1 1) rotate(0) translate(4 91)">
<title>EKF_XYZ_Interface.h</title>
<polygon fill="white" stroke="none" points="-4,4 -4,-91 319,-91 319,4 -4,4"/>
<!-- Node1 -->
<g id="node1" class="node"><title>Node1</title>
<g id="a_node1"><a xlink:title="Interface the Extended Kalman Filter.">
<polygon fill="#bfbfbf" stroke="black" points="86,-67.5 86,-86.5 195,-86.5 195,-67.5 86,-67.5"/>
<text text-anchor="middle" x="140.5" y="-74.5" font-family="Helvetica,sans-Serif" font-size="10.00">EKF_XYZ_Interface.h</text>
</a>
</g>
</g>
<!-- Node2 -->
<g id="node2" class="node"><title>Node2</title>
<g id="a_node2"><a xlink:href="dss__data__path_8c.html" target="_top" xlink:title="Implements Data path processing functionality.">
<polygon fill="white" stroke="black" points="0,-6 0,-25 89,-25 89,-6 0,-6"/>
<text text-anchor="middle" x="44.5" y="-13" font-family="Helvetica,sans-Serif" font-size="10.00">dss_data_path.c</text>
</a>
</g>
</g>
<!-- Node1&#45;&gt;Node2 -->
<g id="edge1" class="edge"><title>Node1&#45;&gt;Node2</title>
<path fill="none" stroke="midnightblue" d="M118.052,-62.0871C99.5253,-50.6042 73.8299,-34.6784 58.2289,-25.0091"/>
<polygon fill="midnightblue" stroke="midnightblue" points="116.402,-65.1819 126.746,-67.4751 120.09,-59.232 116.402,-65.1819"/>
</g>
<!-- Node3 -->
<g id="node3" class="node"><title>Node3</title>
<g id="a_node3"><a xlink:href="dss__main_8c.html" target="_top" xlink:title=" ">
<polygon fill="white" stroke="black" points="107,-6 107,-25 174,-25 174,-6 107,-6"/>
<text text-anchor="middle" x="140.5" y="-13" font-family="Helvetica,sans-Serif" font-size="10.00">dss_main.c</text>
</a>
</g>
</g>
<!-- Node1&#45;&gt;Node3 -->
<g id="edge2" class="edge"><title>Node1&#45;&gt;Node3</title>
<path fill="none" stroke="midnightblue" d="M140.5,-57.3165C140.5,-46.4962 140.5,-33.398 140.5,-25.0091"/>
<polygon fill="midnightblue" stroke="midnightblue" points="137,-57.4751 140.5,-67.4751 144,-57.4751 137,-57.4751"/>
</g>
<!-- Node4 -->
<g id="node4" class="node"><title>Node4</title>
<g id="a_node4"><a xlink:href="_extended___kalman___filter__xyz_8c.html" target="_top" xlink:title="Implements an &#39;Extended Kalman Filter&#39; for radar tracking.">
<polygon fill="white" stroke="black" points="192,-0.5 192,-30.5 315,-30.5 315,-0.5 192,-0.5"/>
<text text-anchor="start" x="200" y="-18.5" font-family="Helvetica,sans-Serif" font-size="10.00">Extended_Kalman_Filter</text>
<text text-anchor="middle" x="253.5" y="-7.5" font-family="Helvetica,sans-Serif" font-size="10.00">_xyz.c</text>
</a>
</g>
</g>
<!-- Node1&#45;&gt;Node4 -->
<g id="edge3" class="edge"><title>Node1&#45;&gt;Node4</title>
<path fill="none" stroke="midnightblue" d="M165.556,-62.8068C183.748,-53.2278 208.321,-40.2888 226.868,-30.523"/>
<polygon fill="midnightblue" stroke="midnightblue" points="163.908,-59.719 156.69,-67.4751 167.169,-65.9129 163.908,-59.719"/>
</g>
</g>
</svg>
