<?xml version="1.0" encoding="UTF-8" standalone="no"?>
<!DOCTYPE svg PUBLIC "-//W3C//DTD SVG 1.1//EN"
 "http://www.w3.org/Graphics/SVG/1.1/DTD/svg11.dtd">
<!-- Generated by graphviz version 2.38.0 (20140413.2041)
 -->
<!-- Title: ekfRun Pages: 1 -->
<svg width="368pt" height="686pt"
 viewBox="0.00 0.00 368.00 686.00" xmlns="http://www.w3.org/2000/svg" xmlns:xlink="http://www.w3.org/1999/xlink">
<g id="graph0" class="graph" transform="scale(1 1) rotate(0) translate(4 682)">
<title>ekfRun</title>
<polygon fill="white" stroke="none" points="-4,4 -4,-682 364,-682 364,4 -4,4"/>
<!-- Node1 -->
<g id="node1" class="node"><title>Node1</title>
<g id="a_node1"><a xlink:title=" ">
<polygon fill="#bfbfbf" stroke="black" points="0,-323.5 0,-342.5 47,-342.5 47,-323.5 0,-323.5"/>
<text text-anchor="middle" x="23.5" y="-330.5" font-family="Helvetica,sans-Serif" font-size="10.00">ekfRun</text>
</a>
</g>
</g>
<!-- Node2 -->
<g id="node2" class="node"><title>Node2</title>
<g id="a_node2"><a xlink:href="_extended___kalman___filter__xyz_8c.html#a47f69cf3e2249a65761b2d608ccb718d" target="_top" xlink:title=" ">
<polygon fill="white" stroke="black" points="110,-658.5 110,-677.5 217,-677.5 217,-658.5 110,-658.5"/>
<text text-anchor="middle" x="163.5" y="-665.5" font-family="Helvetica,sans-Serif" font-size="10.00">arrangeTracksByAge</text>
</a>
</g>
</g>
<!-- Node1&#45;&gt;Node2 -->
<g id="edge1" class="edge"><title>Node1&#45;&gt;Node2</title>
<path fill="none" stroke="midnightblue" d="M24.918,-342.796C27.1772,-391.073 39.4869,-603.184 83,-649 87.7931,-654.047 93.6678,-657.857 100.034,-660.72"/>
<polygon fill="midnightblue" stroke="midnightblue" points="99.0497,-664.087 109.643,-664.269 101.475,-657.521 99.0497,-664.087"/>
</g>
<!-- Node3 -->
<g id="node3" class="node"><title>Node3</title>
<g id="a_node3"><a xlink:href="_extended___kalman___filter__xyz_8c.html#a7d5dd7ea716c6b318fcad6973a4d9584" target="_top" xlink:title=" ">
<polygon fill="white" stroke="black" points="125,-620.5 125,-639.5 202,-639.5 202,-620.5 125,-620.5"/>
<text text-anchor="middle" x="163.5" y="-627.5" font-family="Helvetica,sans-Serif" font-size="10.00">computeHmat</text>
</a>
</g>
</g>
<!-- Node1&#45;&gt;Node3 -->
<g id="edge2" class="edge"><title>Node1&#45;&gt;Node3</title>
<path fill="none" stroke="midnightblue" d="M25.1854,-342.789C28.5087,-387.441 44.3884,-571.324 83,-611 91.428,-619.66 103.046,-624.661 114.798,-627.479"/>
<polygon fill="midnightblue" stroke="midnightblue" points="114.155,-630.92 124.636,-629.366 115.474,-624.045 114.155,-630.92"/>
</g>
<!-- Node4 -->
<g id="node4" class="node"><title>Node4</title>
<g id="a_node4"><a xlink:href="_extended___kalman___filter__xyz_8c.html#a0b4f0b9a4a18bb9a34f9d530b69fca5e" target="_top" xlink:title=" ">
<polygon fill="white" stroke="black" points="104,-582.5 104,-601.5 223,-601.5 223,-582.5 104,-582.5"/>
<text text-anchor="middle" x="163.5" y="-589.5" font-family="Helvetica,sans-Serif" font-size="10.00">computePredictedMeas</text>
</a>
</g>
</g>
<!-- Node1&#45;&gt;Node4 -->
<g id="edge3" class="edge"><title>Node1&#45;&gt;Node4</title>
<path fill="none" stroke="midnightblue" d="M25.5061,-342.525C29.9594,-382.893 49.1873,-539.339 83,-573 86.4634,-576.448 90.4335,-579.312 94.7116,-581.687"/>
<polygon fill="midnightblue" stroke="midnightblue" points="93.3145,-584.897 103.861,-585.905 96.2453,-578.54 93.3145,-584.897"/>
</g>
<!-- Node5 -->
<g id="node5" class="node"><title>Node5</title>
<g id="a_node5"><a xlink:href="_extended___kalman___filter__xyz_8c.html#ac95e4c0b8dda3b7be8ba399423427235" target="_top" xlink:title=" ">
<polygon fill="white" stroke="black" points="117.5,-544.5 117.5,-563.5 209.5,-563.5 209.5,-544.5 117.5,-544.5"/>
<text text-anchor="middle" x="163.5" y="-551.5" font-family="Helvetica,sans-Serif" font-size="10.00">createNewTracks</text>
</a>
</g>
</g>
<!-- Node1&#45;&gt;Node5 -->
<g id="edge4" class="edge"><title>Node1&#45;&gt;Node5</title>
<path fill="none" stroke="midnightblue" d="M24.1499,-342.715C23.543,-375.168 26.1968,-480.822 83,-535 89.7871,-541.473 98.3688,-545.871 107.366,-548.832"/>
<polygon fill="midnightblue" stroke="midnightblue" points="106.659,-552.267 117.227,-551.513 108.495,-545.512 106.659,-552.267"/>
</g>
<!-- Node7 -->
<g id="node7" class="node"><title>Node7</title>
<g id="a_node7"><a xlink:href="_extended___kalman___filter__xyz_8c.html#af46788e48ba5ede2c2663ca9a18cb8fd" target="_top" xlink:title=" ">
<polygon fill="white" stroke="black" points="86,-506.5 86,-525.5 241,-525.5 241,-506.5 86,-506.5"/>
<text text-anchor="middle" x="163.5" y="-513.5" font-family="Helvetica,sans-Serif" font-size="10.00">InitAssociatedMeasurementIndx</text>
</a>
</g>
</g>
<!-- Node1&#45;&gt;Node7 -->
<g id="edge6" class="edge"><title>Node1&#45;&gt;Node7</title>
<path fill="none" stroke="midnightblue" d="M24.9112,-342.876C26.6553,-371.405 35.7533,-454.601 83,-497 84.7163,-498.54 86.535,-499.961 88.4362,-501.272"/>
<polygon fill="midnightblue" stroke="midnightblue" points="86.8268,-504.385 97.2389,-506.344 90.3211,-498.319 86.8268,-504.385"/>
</g>
<!-- Node8 -->
<g id="node8" class="node"><title>Node8</title>
<g id="a_node8"><a xlink:href="_extended___kalman___filter__xyz_8c.html#ad8bcb03b6497736f827edccaea29aa89" target="_top" xlink:title=" ">
<polygon fill="white" stroke="black" points="99.5,-468.5 99.5,-487.5 227.5,-487.5 227.5,-468.5 99.5,-468.5"/>
<text text-anchor="middle" x="163.5" y="-475.5" font-family="Helvetica,sans-Serif" font-size="10.00">initAssociatedTrackerIndx</text>
</a>
</g>
</g>
<!-- Node1&#45;&gt;Node8 -->
<g id="edge7" class="edge"><title>Node1&#45;&gt;Node8</title>
<path fill="none" stroke="midnightblue" d="M26.0457,-342.63C30.3777,-366.338 44.9096,-427.859 83,-459 85.2659,-460.853 87.6828,-462.53 90.2115,-464.048"/>
<polygon fill="midnightblue" stroke="midnightblue" points="88.6848,-467.199 99.1836,-468.622 91.8639,-460.962 88.6848,-467.199"/>
</g>
<!-- Node9 -->
<g id="node9" class="node"><title>Node9</title>
<g id="a_node9"><a xlink:href="_extended___kalman___filter__xyz_8c.html#a0cb688c01c72e68805ba3a2937cd3907" target="_top" xlink:title=" ">
<polygon fill="white" stroke="black" points="114.5,-430.5 114.5,-449.5 212.5,-449.5 212.5,-430.5 114.5,-430.5"/>
<text text-anchor="middle" x="163.5" y="-437.5" font-family="Helvetica,sans-Serif" font-size="10.00">invalidateCurrTrack</text>
</a>
</g>
</g>
<!-- Node1&#45;&gt;Node9 -->
<g id="edge8" class="edge"><title>Node1&#45;&gt;Node9</title>
<path fill="none" stroke="midnightblue" d="M28.1097,-342.684C35.4597,-361.009 53.9656,-400.735 83,-421 89.4638,-425.511 96.8655,-428.96 104.494,-431.594"/>
<polygon fill="midnightblue" stroke="midnightblue" points="103.64,-434.991 114.224,-434.513 105.652,-428.287 103.64,-434.991"/>
</g>
<!-- Node10 -->
<g id="node10" class="node"><title>Node10</title>
<g id="a_node10"><a xlink:href="_extended___kalman___filter__xyz_8c.html#a126935d26cd74710f0f1aa80890acba9" target="_top" xlink:title=" ">
<polygon fill="white" stroke="black" points="88.5,-381 88.5,-411 238.5,-411 238.5,-381 88.5,-381"/>
<text text-anchor="start" x="96.5" y="-399" font-family="Helvetica,sans-Serif" font-size="10.00">isTargetWithinDataAssociation</text>
<text text-anchor="middle" x="163.5" y="-388" font-family="Helvetica,sans-Serif" font-size="10.00">Thresh</text>
</a>
</g>
</g>
<!-- Node1&#45;&gt;Node10 -->
<g id="edge9" class="edge"><title>Node1&#45;&gt;Node10</title>
<path fill="none" stroke="midnightblue" d="M36.9254,-342.504C48.3859,-350.913 66.1287,-363.05 83,-371 87.908,-373.313 93.084,-375.485 98.3442,-377.507"/>
<polygon fill="midnightblue" stroke="midnightblue" points="97.2698,-380.84 107.864,-380.984 99.6714,-374.265 97.2698,-380.84"/>
</g>
<!-- Node11 -->
<g id="node11" class="node"><title>Node11</title>
<g id="a_node11"><a xlink:href="_extended___kalman___filter__xyz_8c.html#a5d0c64f2115aa3793596ede54c039e3a" target="_top" xlink:title=" ">
<polygon fill="white" stroke="black" points="108.5,-342.5 108.5,-361.5 218.5,-361.5 218.5,-342.5 108.5,-342.5"/>
<text text-anchor="middle" x="163.5" y="-349.5" font-family="Helvetica,sans-Serif" font-size="10.00">isWithinBoundingBox</text>
</a>
</g>
</g>
<!-- Node1&#45;&gt;Node11 -->
<g id="edge10" class="edge"><title>Node1&#45;&gt;Node11</title>
<path fill="none" stroke="midnightblue" d="M47.2879,-336.137C61.3045,-338.067 80.0298,-340.645 98.3036,-343.161"/>
<polygon fill="midnightblue" stroke="midnightblue" points="97.9925,-346.651 108.376,-344.548 98.9473,-339.717 97.9925,-346.651"/>
</g>
<!-- Node12 -->
<g id="node12" class="node"><title>Node12</title>
<g id="a_node12"><a xlink:href="_extended___kalman___filter__xyz_8c.html#a3165705fd153e1d405f7f46f29ebb1b2" target="_top" xlink:title=" ">
<polygon fill="white" stroke="black" points="102,-304.5 102,-323.5 225,-323.5 225,-304.5 102,-304.5"/>
<text text-anchor="middle" x="163.5" y="-311.5" font-family="Helvetica,sans-Serif" font-size="10.00">kalmanGainComputation</text>
</a>
</g>
</g>
<!-- Node1&#45;&gt;Node12 -->
<g id="edge11" class="edge"><title>Node1&#45;&gt;Node12</title>
<path fill="none" stroke="midnightblue" d="M47.2879,-329.863C59.6502,-328.16 75.6753,-325.954 91.823,-323.731"/>
<polygon fill="midnightblue" stroke="midnightblue" points="92.4322,-327.18 101.861,-322.349 91.4774,-320.246 92.4322,-327.18"/>
</g>
<!-- Node13 -->
<g id="node13" class="node"><title>Node13</title>
<g id="a_node13"><a xlink:href="_extended___kalman___filter__xyz_8c.html#a679267ffcf59b07348b98db6a67da78a" target="_top" xlink:title=" ">
<polygon fill="white" stroke="black" points="87.5,-266.5 87.5,-285.5 239.5,-285.5 239.5,-266.5 87.5,-266.5"/>
<text text-anchor="middle" x="163.5" y="-273.5" font-family="Helvetica,sans-Serif" font-size="10.00">residualCovarianceComputation</text>
</a>
</g>
</g>
<!-- Node1&#45;&gt;Node13 -->
<g id="edge12" class="edge"><title>Node1&#45;&gt;Node13</title>
<path fill="none" stroke="midnightblue" d="M36.7977,-323.212C48.1722,-314.612 65.8605,-302.354 83,-295 88.8195,-292.503 95.0258,-290.299 101.307,-288.362"/>
<polygon fill="midnightblue" stroke="midnightblue" points="102.543,-291.649 111.195,-285.534 100.618,-284.919 102.543,-291.649"/>
</g>
<!-- Node14 -->
<g id="node14" class="node"><title>Node14</title>
<g id="a_node14"><a xlink:href="_extended___kalman___filter__xyz_8c.html#a83917a7f6d9275c50284b771aefc8d13" target="_top" xlink:title=" ">
<polygon fill="white" stroke="black" points="127,-228.5 127,-247.5 200,-247.5 200,-228.5 127,-228.5"/>
<text text-anchor="middle" x="163.5" y="-235.5" font-family="Helvetica,sans-Serif" font-size="10.00">select_QVec</text>
</a>
</g>
</g>
<!-- Node1&#45;&gt;Node14 -->
<g id="edge13" class="edge"><title>Node1&#45;&gt;Node14</title>
<path fill="none" stroke="midnightblue" d="M29.1284,-323.363C37.4921,-307.027 56.7253,-274.016 83,-257 93.0417,-250.497 105.091,-246.217 116.737,-243.4"/>
<polygon fill="midnightblue" stroke="midnightblue" points="117.741,-246.766 126.807,-241.283 116.301,-239.915 117.741,-246.766"/>
</g>
<!-- Node15 -->
<g id="node15" class="node"><title>Node15</title>
<g id="a_node15"><a xlink:href="_extended___kalman___filter__xyz_8c.html#ab9b0ea77408de969dc69d8730ed694d0" target="_top" xlink:title=" ">
<polygon fill="white" stroke="black" points="130,-190.5 130,-209.5 197,-209.5 197,-190.5 130,-190.5"/>
<text text-anchor="middle" x="163.5" y="-197.5" font-family="Helvetica,sans-Serif" font-size="10.00">selectMeas</text>
</a>
</g>
</g>
<!-- Node1&#45;&gt;Node15 -->
<g id="edge14" class="edge"><title>Node1&#45;&gt;Node15</title>
<path fill="none" stroke="midnightblue" d="M26.5706,-323.299C31.8252,-301.143 47.8319,-246.613 83,-219 93.4804,-210.771 106.968,-206.023 119.847,-203.308"/>
<polygon fill="midnightblue" stroke="midnightblue" points="120.727,-206.708 129.976,-201.54 119.523,-199.812 120.727,-206.708"/>
</g>
<!-- Node16 -->
<g id="node16" class="node"><title>Node16</title>
<g id="a_node16"><a xlink:href="_extended___kalman___filter__xyz_8c.html#a2a20b7327db5415d39343f8a6f9b4608" target="_top" xlink:title=" ">
<polygon fill="white" stroke="black" points="83,-152.5 83,-171.5 244,-171.5 244,-152.5 83,-152.5"/>
<text text-anchor="middle" x="163.5" y="-159.5" font-family="Helvetica,sans-Serif" font-size="10.00">stateCovmatMeasurementUpdate</text>
</a>
</g>
</g>
<!-- Node1&#45;&gt;Node16 -->
<g id="edge15" class="edge"><title>Node1&#45;&gt;Node16</title>
<path fill="none" stroke="midnightblue" d="M25.1949,-323.447C27.6805,-296.603 38.5319,-219.923 83,-181 84.7786,-179.443 86.6622,-178.009 88.6298,-176.687"/>
<polygon fill="midnightblue" stroke="midnightblue" points="90.7175,-179.529 97.7283,-171.585 87.2941,-173.423 90.7175,-179.529"/>
</g>
<!-- Node17 -->
<g id="node17" class="node"><title>Node17</title>
<g id="a_node17"><a xlink:href="_extended___kalman___filter__xyz_8c.html#a6b5a70d53d79e3339edcc2ee2c9da2d2" target="_top" xlink:title=" ">
<polygon fill="white" stroke="black" points="102.5,-114.5 102.5,-133.5 224.5,-133.5 224.5,-114.5 102.5,-114.5"/>
<text text-anchor="middle" x="163.5" y="-121.5" font-family="Helvetica,sans-Serif" font-size="10.00">stateCovmatTimeUpdate</text>
</a>
</g>
</g>
<!-- Node1&#45;&gt;Node17 -->
<g id="edge16" class="edge"><title>Node1&#45;&gt;Node17</title>
<path fill="none" stroke="midnightblue" d="M24.3569,-323.416C24.4434,-292.35 29.1262,-193.527 83,-143 86.0001,-140.186 89.34,-137.766 92.9042,-135.687"/>
<polygon fill="midnightblue" stroke="midnightblue" points="94.6959,-138.707 102.16,-131.188 91.6362,-132.411 94.6959,-138.707"/>
</g>
<!-- Node18 -->
<g id="node18" class="node"><title>Node18</title>
<g id="a_node18"><a xlink:href="_extended___kalman___filter__xyz_8c.html#a4c0bf6cb067e6753dd73472e0710380c" target="_top" xlink:title=" ">
<polygon fill="white" stroke="black" points="90.5,-76.5 90.5,-95.5 236.5,-95.5 236.5,-76.5 90.5,-76.5"/>
<text text-anchor="middle" x="163.5" y="-83.5" font-family="Helvetica,sans-Serif" font-size="10.00">stateVecMeasurementUpdate</text>
</a>
</g>
</g>
<!-- Node1&#45;&gt;Node18 -->
<g id="edge17" class="edge"><title>Node1&#45;&gt;Node18</title>
<path fill="none" stroke="midnightblue" d="M25.643,-323.423C30.5082,-284.242 50.7334,-136.736 83,-105 84.4417,-103.582 85.9692,-102.263 87.5686,-101.036"/>
<polygon fill="midnightblue" stroke="midnightblue" points="89.5175,-103.945 96.0987,-95.6421 85.7761,-98.0287 89.5175,-103.945"/>
</g>
<!-- Node19 -->
<g id="node19" class="node"><title>Node19</title>
<g id="a_node19"><a xlink:href="_extended___kalman___filter__xyz_8c.html#a1dc7786835499d701b46752ed8f10812" target="_top" xlink:title=" ">
<polygon fill="white" stroke="black" points="110,-38.5 110,-57.5 217,-57.5 217,-38.5 110,-38.5"/>
<text text-anchor="middle" x="163.5" y="-45.5" font-family="Helvetica,sans-Serif" font-size="10.00">stateVecTimeUpdate</text>
</a>
</g>
</g>
<!-- Node1&#45;&gt;Node19 -->
<g id="edge18" class="edge"><title>Node1&#45;&gt;Node19</title>
<path fill="none" stroke="midnightblue" d="M25.2743,-323.341C28.9343,-280.102 45.8935,-104.785 83,-67 87.8768,-62.0341 93.803,-58.2736 100.198,-55.4388"/>
<polygon fill="midnightblue" stroke="midnightblue" points="101.644,-58.6367 109.834,-51.9155 99.2401,-52.0624 101.644,-58.6367"/>
</g>
<!-- Node20 -->
<g id="node20" class="node"><title>Node20</title>
<g id="a_node20"><a xlink:href="_extended___kalman___filter__xyz_8c.html#a4f8b47000064776f91b9034115ad9aee" target="_top" xlink:title=" ">
<polygon fill="white" stroke="black" points="132,-0.5 132,-19.5 195,-19.5 195,-0.5 132,-0.5"/>
<text text-anchor="middle" x="163.5" y="-7.5" font-family="Helvetica,sans-Serif" font-size="10.00">symMatInv</text>
</a>
</g>
</g>
<!-- Node1&#45;&gt;Node20 -->
<g id="edge19" class="edge"><title>Node1&#45;&gt;Node20</title>
<path fill="none" stroke="midnightblue" d="M24.9923,-323.262C27.5687,-276.211 41.0209,-72.8892 83,-29 93.0241,-18.5198 107.714,-13.3791 121.747,-10.9851"/>
<polygon fill="midnightblue" stroke="midnightblue" points="122.304,-14.4423 131.774,-9.69014 121.408,-7.49995 122.304,-14.4423"/>
</g>
<!-- Node6 -->
<g id="node6" class="node"><title>Node6</title>
<g id="a_node6"><a xlink:href="_extended___kalman___filter__xyz_8c.html#a9e8bd913054328b86e6af6c351f4e5ab" target="_top" xlink:title=" ">
<polygon fill="white" stroke="black" points="280,-544.5 280,-563.5 360,-563.5 360,-544.5 280,-544.5"/>
<text text-anchor="middle" x="320" y="-551.5" font-family="Helvetica,sans-Serif" font-size="10.00">initNewTracker</text>
</a>
</g>
</g>
<!-- Node5&#45;&gt;Node6 -->
<g id="edge5" class="edge"><title>Node5&#45;&gt;Node6</title>
<path fill="none" stroke="midnightblue" d="M209.603,-554C228.478,-554 250.469,-554 269.763,-554"/>
<polygon fill="midnightblue" stroke="midnightblue" points="269.871,-557.5 279.871,-554 269.871,-550.5 269.871,-557.5"/>
</g>
</g>
</svg>
