<?xml version="1.0" encoding="UTF-8" standalone="no"?>
<!DOCTYPE svg PUBLIC "-//W3C//DTD SVG 1.1//EN"
 "http://www.w3.org/Graphics/SVG/1.1/DTD/svg11.dtd">
<!-- Generated by graphviz version 2.38.0 (20140413.2041)
 -->
<!-- Title: EKF_XYZ_Consts.h Pages: 1 -->
<svg width="554pt" height="207pt"
 viewBox="0.00 0.00 554.00 207.00" xmlns="http://www.w3.org/2000/svg" xmlns:xlink="http://www.w3.org/1999/xlink">
<g id="graph0" class="graph" transform="scale(1 1) rotate(0) translate(4 203)">
<title>EKF_XYZ_Consts.h</title>
<polygon fill="white" stroke="none" points="-4,4 -4,-203 550,-203 550,4 -4,4"/>
<!-- Node1 -->
<g id="node1" class="node"><title>Node1</title>
<g id="a_node1"><a xlink:title="Constants for the Extended Kalman Filter.">
<polygon fill="#bfbfbf" stroke="black" points="354,-179.5 354,-198.5 457,-198.5 457,-179.5 354,-179.5"/>
<text text-anchor="middle" x="405.5" y="-186.5" font-family="Helvetica,sans-Serif" font-size="10.00">EKF_XYZ_Consts.h</text>
</a>
</g>
</g>
<!-- Node2 -->
<g id="node2" class="node"><title>Node2</title>
<g id="a_node2"><a xlink:href="dss__data__path_8h.html" target="_top" xlink:title="This is the data path processing header.">
<polygon fill="white" stroke="black" points="225,-123.5 225,-142.5 314,-142.5 314,-123.5 225,-123.5"/>
<text text-anchor="middle" x="269.5" y="-130.5" font-family="Helvetica,sans-Serif" font-size="10.00">dss_data_path.h</text>
</a>
</g>
</g>
<!-- Node1&#45;&gt;Node2 -->
<g id="edge1" class="edge"><title>Node1&#45;&gt;Node2</title>
<path fill="none" stroke="midnightblue" d="M374.365,-175.638C348.843,-165.504 313.391,-151.427 290.949,-142.516"/>
<polygon fill="midnightblue" stroke="midnightblue" points="373.365,-179.006 383.95,-179.444 375.948,-172.5 373.365,-179.006"/>
</g>
<!-- Node7 -->
<g id="node7" class="node"><title>Node7</title>
<g id="a_node7"><a xlink:href="_extended___kalman___filter__xyz_8c.html" target="_top" xlink:title="Implements an &#39;Extended Kalman Filter&#39; for radar tracking.">
<polygon fill="white" stroke="black" points="344,-56.5 344,-86.5 467,-86.5 467,-56.5 344,-56.5"/>
<text text-anchor="start" x="352" y="-74.5" font-family="Helvetica,sans-Serif" font-size="10.00">Extended_Kalman_Filter</text>
<text text-anchor="middle" x="405.5" y="-63.5" font-family="Helvetica,sans-Serif" font-size="10.00">_xyz.c</text>
</a>
</g>
</g>
<!-- Node1&#45;&gt;Node7 -->
<g id="edge13" class="edge"><title>Node1&#45;&gt;Node7</title>
<path fill="none" stroke="midnightblue" d="M405.5,-169.068C405.5,-145.904 405.5,-107.223 405.5,-86.5453"/>
<polygon fill="midnightblue" stroke="midnightblue" points="402,-169.319 405.5,-179.319 409,-169.319 402,-169.319"/>
</g>
<!-- Node8 -->
<g id="node8" class="node"><title>Node8</title>
<g id="a_node8"><a xlink:href="_e_k_f___x_y_z___interface_8h.html" target="_top" xlink:title="Interface the Extended Kalman Filter.">
<polygon fill="white" stroke="black" points="437,-123.5 437,-142.5 546,-142.5 546,-123.5 437,-123.5"/>
<text text-anchor="middle" x="491.5" y="-130.5" font-family="Helvetica,sans-Serif" font-size="10.00">EKF_XYZ_Interface.h</text>
</a>
</g>
</g>
<!-- Node1&#45;&gt;Node8 -->
<g id="edge9" class="edge"><title>Node1&#45;&gt;Node8</title>
<path fill="none" stroke="midnightblue" d="M427.955,-173.901C443.724,-163.999 464.314,-151.071 477.717,-142.655"/>
<polygon fill="midnightblue" stroke="midnightblue" points="425.925,-171.042 419.317,-179.324 429.648,-176.97 425.925,-171.042"/>
</g>
<!-- Node3 -->
<g id="node3" class="node"><title>Node3</title>
<g id="a_node3"><a xlink:href="clustering_d_bscan_8c.html" target="_top" xlink:title="DBscan clustering module.">
<polygon fill="white" stroke="black" points="0,-62 0,-81 101,-81 101,-62 0,-62"/>
<text text-anchor="middle" x="50.5" y="-69" font-family="Helvetica,sans-Serif" font-size="10.00">clusteringDBscan.c</text>
</a>
</g>
</g>
<!-- Node2&#45;&gt;Node3 -->
<g id="edge2" class="edge"><title>Node2&#45;&gt;Node3</title>
<path fill="none" stroke="midnightblue" d="M228.359,-120.822C185.818,-109.264 120.334,-91.4732 81.8192,-81.0091"/>
<polygon fill="midnightblue" stroke="midnightblue" points="227.555,-124.231 238.123,-123.475 229.39,-117.476 227.555,-124.231"/>
</g>
<!-- Node4 -->
<g id="node4" class="node"><title>Node4</title>
<g id="a_node4"><a xlink:href="mm_wave___x_s_s_8h.html" target="_top" xlink:title=" ">
<polygon fill="white" stroke="black" points="157.5,-62 157.5,-81 287.5,-81 287.5,-62 157.5,-62"/>
<text text-anchor="middle" x="222.5" y="-69" font-family="Helvetica,sans-Serif" font-size="10.00">common/mmWave_XSS.h</text>
</a>
</g>
</g>
<!-- Node2&#45;&gt;Node4 -->
<g id="edge3" class="edge"><title>Node2&#45;&gt;Node4</title>
<path fill="none" stroke="midnightblue" d="M256.338,-115.338C247.516,-104.169 236.267,-89.9278 229.221,-81.0091"/>
<polygon fill="midnightblue" stroke="midnightblue" points="253.821,-117.797 262.766,-123.475 259.314,-113.458 253.821,-117.797"/>
</g>
<!-- Node5 -->
<g id="node5" class="node"><title>Node5</title>
<g id="a_node5"><a xlink:href="dss__data__path_8c.html" target="_top" xlink:title="Implements Data path processing functionality.">
<polygon fill="white" stroke="black" points="176,-0.5 176,-19.5 265,-19.5 265,-0.5 176,-0.5"/>
<text text-anchor="middle" x="220.5" y="-7.5" font-family="Helvetica,sans-Serif" font-size="10.00">dss_data_path.c</text>
</a>
</g>
</g>
<!-- Node2&#45;&gt;Node5 -->
<g id="edge6" class="edge"><title>Node2&#45;&gt;Node5</title>
<path fill="none" stroke="midnightblue" d="M214.941,-125.767C190.378,-119.931 163.565,-108.675 148.5,-87 140.637,-75.6864 141.821,-68.0506 148.5,-56 158.361,-38.208 178.513,-26.5215 194.996,-19.5282"/>
<polygon fill="midnightblue" stroke="midnightblue" points="214.421,-129.234 224.929,-127.884 215.872,-122.387 214.421,-129.234"/>
</g>
<!-- Node6 -->
<g id="node6" class="node"><title>Node6</title>
<g id="a_node6"><a xlink:href="dss__main_8c.html" target="_top" xlink:title=" ">
<polygon fill="white" stroke="black" points="283,-0.5 283,-19.5 350,-19.5 350,-0.5 283,-0.5"/>
<text text-anchor="middle" x="316.5" y="-7.5" font-family="Helvetica,sans-Serif" font-size="10.00">dss_main.c</text>
</a>
</g>
</g>
<!-- Node2&#45;&gt;Node6 -->
<g id="edge7" class="edge"><title>Node2&#45;&gt;Node6</title>
<path fill="none" stroke="midnightblue" d="M281.346,-114.871C286.569,-106.716 292.431,-96.655 296.5,-87 306.356,-63.6149 312.448,-34.0914 315.042,-19.6942"/>
<polygon fill="midnightblue" stroke="midnightblue" points="278.278,-113.164 275.655,-123.429 284.107,-117.04 278.278,-113.164"/>
</g>
<!-- Node2&#45;&gt;Node7 -->
<g id="edge8" class="edge"><title>Node2&#45;&gt;Node7</title>
<path fill="none" stroke="midnightblue" d="M298.162,-119.461C320.19,-109.823 350.614,-96.5127 373.447,-86.523"/>
<polygon fill="midnightblue" stroke="midnightblue" points="296.744,-116.26 288.985,-123.475 299.55,-122.673 296.744,-116.26"/>
</g>
<!-- Node4&#45;&gt;Node5 -->
<g id="edge4" class="edge"><title>Node4&#45;&gt;Node5</title>
<path fill="none" stroke="midnightblue" d="M221.872,-51.8165C221.508,-40.9962 221.068,-27.898 220.786,-19.5091"/>
<polygon fill="midnightblue" stroke="midnightblue" points="218.379,-52.0984 222.213,-61.9751 225.375,-51.8631 218.379,-52.0984"/>
</g>
<!-- Node4&#45;&gt;Node6 -->
<g id="edge5" class="edge"><title>Node4&#45;&gt;Node6</title>
<path fill="none" stroke="midnightblue" d="M244.729,-56.4295C262.851,-44.9589 287.851,-29.1343 303.057,-19.5091"/>
<polygon fill="midnightblue" stroke="midnightblue" points="242.546,-53.6693 235.968,-61.9751 246.289,-59.584 242.546,-53.6693"/>
</g>
<!-- Node8&#45;&gt;Node5 -->
<g id="edge10" class="edge"><title>Node8&#45;&gt;Node5</title>
<path fill="none" stroke="midnightblue" d="M492.999,-113.192C493.273,-95.8677 490.682,-70.6913 475.5,-56 474.552,-55.0829 337.837,-31.3067 265.007,-18.6943"/>
<polygon fill="midnightblue" stroke="midnightblue" points="489.5,-113.094 492.509,-123.253 496.492,-113.435 489.5,-113.094"/>
</g>
<!-- Node8&#45;&gt;Node6 -->
<g id="edge11" class="edge"><title>Node8&#45;&gt;Node6</title>
<path fill="none" stroke="midnightblue" d="M503.098,-114.754C512.735,-98.0604 522.888,-72.869 509.5,-56 489.983,-31.4086 400.208,-19.0096 350.266,-13.9169"/>
<polygon fill="midnightblue" stroke="midnightblue" points="499.983,-113.136 497.666,-123.474 505.924,-116.837 499.983,-113.136"/>
</g>
<!-- Node8&#45;&gt;Node7 -->
<g id="edge12" class="edge"><title>Node8&#45;&gt;Node7</title>
<path fill="none" stroke="midnightblue" d="M470.887,-117.739C457.219,-108.282 439.366,-95.9304 425.768,-86.523"/>
<polygon fill="midnightblue" stroke="midnightblue" points="468.963,-120.664 479.178,-123.475 472.946,-114.907 468.963,-120.664"/>
</g>
</g>
</svg>
