<?xml version="1.0" encoding="UTF-8" standalone="no"?>
<!DOCTYPE svg PUBLIC "-//W3C//DTD SVG 1.1//EN"
 "http://www.w3.org/Graphics/SVG/1.1/DTD/svg11.dtd">
<!-- Generated by graphviz version 2.38.0 (20140413.2041)
 -->
<!-- Title: initNewTracker Pages: 1 -->
<svg width="299pt" height="28pt"
 viewBox="0.00 0.00 299.00 28.00" xmlns="http://www.w3.org/2000/svg" xmlns:xlink="http://www.w3.org/1999/xlink">
<g id="graph0" class="graph" transform="scale(1 1) rotate(0) translate(4 24)">
<title>initNewTracker</title>
<polygon fill="white" stroke="none" points="-4,4 -4,-24 295,-24 295,4 -4,4"/>
<!-- Node1 -->
<g id="node1" class="node"><title>Node1</title>
<g id="a_node1"><a xlink:title=" ">
<polygon fill="#bfbfbf" stroke="black" points="211,-0.5 211,-19.5 291,-19.5 291,-0.5 211,-0.5"/>
<text text-anchor="middle" x="251" y="-7.5" font-family="Helvetica,sans-Serif" font-size="10.00">initNewTracker</text>
</a>
</g>
</g>
<!-- Node2 -->
<g id="node2" class="node"><title>Node2</title>
<g id="a_node2"><a xlink:href="_extended___kalman___filter__xyz_8c.html#ac95e4c0b8dda3b7be8ba399423427235" target="_top" xlink:title=" ">
<polygon fill="white" stroke="black" points="83,-0.5 83,-19.5 175,-19.5 175,-0.5 83,-0.5"/>
<text text-anchor="middle" x="129" y="-7.5" font-family="Helvetica,sans-Serif" font-size="10.00">createNewTracks</text>
</a>
</g>
</g>
<!-- Node1&#45;&gt;Node2 -->
<g id="edge1" class="edge"><title>Node1&#45;&gt;Node2</title>
<path fill="none" stroke="midnightblue" d="M200.632,-10C192.217,-10 183.513,-10 175.212,-10"/>
<polygon fill="midnightblue" stroke="midnightblue" points="200.708,-13.5001 210.708,-10 200.707,-6.5001 200.708,-13.5001"/>
</g>
<!-- Node3 -->
<g id="node3" class="node"><title>Node3</title>
<g id="a_node3"><a xlink:href="_extended___kalman___filter__xyz_8c.html#aecc3565592740ab1732d39bfbe44ad0b" target="_top" xlink:title=" ">
<polygon fill="white" stroke="black" points="0,-0.5 0,-19.5 47,-19.5 47,-0.5 0,-0.5"/>
<text text-anchor="middle" x="23.5" y="-7.5" font-family="Helvetica,sans-Serif" font-size="10.00">ekfRun</text>
</a>
</g>
</g>
<!-- Node2&#45;&gt;Node3 -->
<g id="edge2" class="edge"><title>Node2&#45;&gt;Node3</title>
<path fill="none" stroke="midnightblue" d="M72.6592,-10C63.5874,-10 54.6635,-10 47.0098,-10"/>
<polygon fill="midnightblue" stroke="midnightblue" points="72.9045,-13.5001 82.9045,-10 72.9044,-6.5001 72.9045,-13.5001"/>
</g>
</g>
</svg>
