<?xml version="1.0" encoding="UTF-8" standalone="no"?>
<!DOCTYPE svg PUBLIC "-//W3C//DTD SVG 1.1//EN"
 "http://www.w3.org/Graphics/SVG/1.1/DTD/svg11.dtd">
<!-- Generated by graphviz version 2.38.0 (20140413.2041)
 -->
<!-- Title: Extended_Kalman_Filter_xyz.c Pages: 1 -->
<svg width="1123pt" height="218pt"
 viewBox="0.00 0.00 1123.00 218.00" xmlns="http://www.w3.org/2000/svg" xmlns:xlink="http://www.w3.org/1999/xlink">
<g id="graph0" class="graph" transform="scale(1 1) rotate(0) translate(4 214)">
<title>Extended_Kalman_Filter_xyz.c</title>
<polygon fill="white" stroke="none" points="-4,4 -4,-214 1119,-214 1119,4 -4,4"/>
<!-- Node1 -->
<g id="node1" class="node"><title>Node1</title>
<g id="a_node1"><a xlink:title="Implements an &#39;Extended Kalman Filter&#39; for radar tracking.">
<polygon fill="#bfbfbf" stroke="black" points="390,-179.5 390,-209.5 513,-209.5 513,-179.5 390,-179.5"/>
<text text-anchor="start" x="398" y="-197.5" font-family="Helvetica,sans-Serif" font-size="10.00">Extended_Kalman_Filter</text>
<text text-anchor="middle" x="451.5" y="-186.5" font-family="Helvetica,sans-Serif" font-size="10.00">_xyz.c</text>
</a>
</g>
</g>
<!-- Node2 -->
<g id="node2" class="node"><title>Node2</title>
<g id="a_node2"><a xlink:title=" ">
<polygon fill="white" stroke="#bfbfbf" points="79.5,-123.5 79.5,-142.5 125.5,-142.5 125.5,-123.5 79.5,-123.5"/>
<text text-anchor="middle" x="102.5" y="-130.5" font-family="Helvetica,sans-Serif" font-size="10.00">stdio.h</text>
</a>
</g>
</g>
<!-- Node1&#45;&gt;Node2 -->
<g id="edge1" class="edge"><title>Node1&#45;&gt;Node2</title>
<path fill="none" stroke="midnightblue" d="M389.74,-185.824C327.756,-177.634 229.415,-163.317 135.763,-143.074"/>
<polygon fill="midnightblue" stroke="midnightblue" points="136.357,-139.621 125.84,-140.902 134.86,-146.459 136.357,-139.621"/>
</g>
<!-- Node3 -->
<g id="node3" class="node"><title>Node3</title>
<g id="a_node3"><a xlink:title=" ">
<polygon fill="white" stroke="#bfbfbf" points="143.5,-123.5 143.5,-142.5 191.5,-142.5 191.5,-123.5 143.5,-123.5"/>
<text text-anchor="middle" x="167.5" y="-130.5" font-family="Helvetica,sans-Serif" font-size="10.00">stdlib.h</text>
</a>
</g>
</g>
<!-- Node1&#45;&gt;Node3 -->
<g id="edge2" class="edge"><title>Node1&#45;&gt;Node3</title>
<path fill="none" stroke="midnightblue" d="M389.871,-182.306C341.194,-173.189 271.35,-159.5 201.462,-143.107"/>
<polygon fill="midnightblue" stroke="midnightblue" points="202.139,-139.67 191.602,-140.776 200.529,-146.483 202.139,-139.67"/>
</g>
<!-- Node4 -->
<g id="node4" class="node"><title>Node4</title>
<g id="a_node4"><a xlink:title=" ">
<polygon fill="white" stroke="#bfbfbf" points="210,-123.5 210,-142.5 257,-142.5 257,-123.5 210,-123.5"/>
<text text-anchor="middle" x="233.5" y="-130.5" font-family="Helvetica,sans-Serif" font-size="10.00">math.h</text>
</a>
</g>
</g>
<!-- Node1&#45;&gt;Node4 -->
<g id="edge3" class="edge"><title>Node1&#45;&gt;Node4</title>
<path fill="none" stroke="midnightblue" d="M399.352,-179.477C364.305,-170.021 316.824,-157.152 266.933,-143.381"/>
<polygon fill="midnightblue" stroke="midnightblue" points="267.83,-139.998 257.259,-140.708 265.966,-146.745 267.83,-139.998"/>
</g>
<!-- Node5 -->
<g id="node5" class="node"><title>Node5</title>
<g id="a_node5"><a xlink:title=" ">
<polygon fill="white" stroke="#bfbfbf" points="275,-123.5 275,-142.5 374,-142.5 374,-123.5 275,-123.5"/>
<text text-anchor="middle" x="324.5" y="-130.5" font-family="Helvetica,sans-Serif" font-size="10.00">ti/mathlib/mathlib.h</text>
</a>
</g>
</g>
<!-- Node1&#45;&gt;Node5 -->
<g id="edge4" class="edge"><title>Node1&#45;&gt;Node5</title>
<path fill="none" stroke="midnightblue" d="M421.403,-179.399C400.38,-169.55 372.528,-156.501 352.081,-146.922"/>
<polygon fill="midnightblue" stroke="midnightblue" points="353.52,-143.731 342.98,-142.658 350.55,-150.07 353.52,-143.731"/>
</g>
<!-- Node6 -->
<g id="node6" class="node"><title>Node6</title>
<g id="a_node6"><a xlink:title=" ">
<polygon fill="white" stroke="#bfbfbf" points="392,-123.5 392,-142.5 511,-142.5 511,-123.5 392,-123.5"/>
<text text-anchor="middle" x="451.5" y="-130.5" font-family="Helvetica,sans-Serif" font-size="10.00">ti/drivers/osal/DebugP.h</text>
</a>
</g>
</g>
<!-- Node1&#45;&gt;Node6 -->
<g id="edge5" class="edge"><title>Node1&#45;&gt;Node6</title>
<path fill="none" stroke="midnightblue" d="M451.5,-179.399C451.5,-171.466 451.5,-161.458 451.5,-152.858"/>
<polygon fill="midnightblue" stroke="midnightblue" points="455,-152.658 451.5,-142.658 448,-152.658 455,-152.658"/>
</g>
<!-- Node7 -->
<g id="node7" class="node"><title>Node7</title>
<g id="a_node7"><a xlink:title=" ">
<polygon fill="white" stroke="#bfbfbf" points="529.5,-123.5 529.5,-142.5 581.5,-142.5 581.5,-123.5 529.5,-123.5"/>
<text text-anchor="middle" x="555.5" y="-130.5" font-family="Helvetica,sans-Serif" font-size="10.00">assert.h</text>
</a>
</g>
</g>
<!-- Node1&#45;&gt;Node7 -->
<g id="edge6" class="edge"><title>Node1&#45;&gt;Node7</title>
<path fill="none" stroke="midnightblue" d="M476.147,-179.399C492.817,-169.862 514.731,-157.325 531.305,-147.842"/>
<polygon fill="midnightblue" stroke="midnightblue" points="533.425,-150.662 540.367,-142.658 529.949,-144.586 533.425,-150.662"/>
</g>
<!-- Node8 -->
<g id="node8" class="node"><title>Node8</title>
<g id="a_node8"><a xlink:href="dss__data__path_8h.html" target="_top" xlink:title="This is the data path processing header.">
<polygon fill="white" stroke="black" points="600,-123.5 600,-142.5 689,-142.5 689,-123.5 600,-123.5"/>
<text text-anchor="middle" x="644.5" y="-130.5" font-family="Helvetica,sans-Serif" font-size="10.00">dss_data_path.h</text>
</a>
</g>
</g>
<!-- Node1&#45;&gt;Node8 -->
<g id="edge7" class="edge"><title>Node1&#45;&gt;Node8</title>
<path fill="none" stroke="midnightblue" d="M497.238,-179.399C530.733,-169.073 575.634,-155.231 607.016,-145.556"/>
<polygon fill="midnightblue" stroke="midnightblue" points="608.173,-148.862 616.699,-142.571 606.111,-142.172 608.173,-148.862"/>
</g>
<!-- Node20 -->
<g id="node20" class="node"><title>Node20</title>
<g id="a_node20"><a xlink:href="_e_k_f___x_y_z___consts_8h.html" target="_top" xlink:title="Constants for the Extended Kalman Filter.">
<polygon fill="white" stroke="black" points="1012,-67.5 1012,-86.5 1115,-86.5 1115,-67.5 1012,-67.5"/>
<text text-anchor="middle" x="1063.5" y="-74.5" font-family="Helvetica,sans-Serif" font-size="10.00">EKF_XYZ_Consts.h</text>
</a>
</g>
</g>
<!-- Node1&#45;&gt;Node20 -->
<g id="edge22" class="edge"><title>Node1&#45;&gt;Node20</title>
<path fill="none" stroke="midnightblue" d="M513.266,-181.843C632.877,-159.27 894.361,-109.921 1008.44,-88.3914"/>
<polygon fill="midnightblue" stroke="midnightblue" points="1009.18,-91.8134 1018.36,-86.5195 1007.88,-84.9349 1009.18,-91.8134"/>
</g>
<!-- Node21 -->
<g id="node21" class="node"><title>Node21</title>
<g id="a_node21"><a xlink:href="_e_k_f___x_y_z___interface_8h.html" target="_top" xlink:title="Interface the Extended Kalman Filter.">
<polygon fill="white" stroke="black" points="943,-123.5 943,-142.5 1052,-142.5 1052,-123.5 943,-123.5"/>
<text text-anchor="middle" x="997.5" y="-130.5" font-family="Helvetica,sans-Serif" font-size="10.00">EKF_XYZ_Interface.h</text>
</a>
</g>
</g>
<!-- Node1&#45;&gt;Node21 -->
<g id="edge23" class="edge"><title>Node1&#45;&gt;Node21</title>
<path fill="none" stroke="midnightblue" d="M513.072,-186.79C616.985,-175.466 826.201,-152.667 932.427,-141.091"/>
<polygon fill="midnightblue" stroke="midnightblue" points="933.127,-144.536 942.689,-139.973 932.369,-137.577 933.127,-144.536"/>
</g>
<!-- Node9 -->
<g id="node9" class="node"><title>Node9</title>
<g id="a_node9"><a xlink:href="detected__obj_8h.html" target="_top" xlink:title=" ">
<polygon fill="white" stroke="black" points="0,-67.5 0,-86.5 121,-86.5 121,-67.5 0,-67.5"/>
<text text-anchor="middle" x="60.5" y="-74.5" font-family="Helvetica,sans-Serif" font-size="10.00">common/detected_obj.h</text>
</a>
</g>
</g>
<!-- Node8&#45;&gt;Node9 -->
<g id="edge8" class="edge"><title>Node8&#45;&gt;Node9</title>
<path fill="none" stroke="midnightblue" d="M599.754,-124.234C596.627,-123.786 593.519,-123.369 590.5,-123 390.225,-98.5207 336.213,-107.77 131.372,-87.0333"/>
<polygon fill="midnightblue" stroke="midnightblue" points="131.489,-83.5271 121.185,-85.9901 130.776,-90.4907 131.489,-83.5271"/>
</g>
<!-- Node10 -->
<g id="node10" class="node"><title>Node10</title>
<g id="a_node10"><a xlink:href="mrr__config_8h.html" target="_top" xlink:title=" ">
<polygon fill="white" stroke="black" points="139.5,-67.5 139.5,-86.5 249.5,-86.5 249.5,-67.5 139.5,-67.5"/>
<text text-anchor="middle" x="194.5" y="-74.5" font-family="Helvetica,sans-Serif" font-size="10.00">common/mrr_config.h</text>
</a>
</g>
</g>
<!-- Node8&#45;&gt;Node10 -->
<g id="edge9" class="edge"><title>Node8&#45;&gt;Node10</title>
<path fill="none" stroke="midnightblue" d="M599.74,-124.344C596.616,-123.87 593.513,-123.417 590.5,-123 445.667,-102.974 408.666,-104.456 263.5,-87 262.391,-86.8666 261.271,-86.7311 260.144,-86.5938"/>
<polygon fill="midnightblue" stroke="midnightblue" points="260.204,-83.0745 249.849,-85.3187 259.343,-90.0214 260.204,-83.0745"/>
</g>
<!-- Node12 -->
<g id="node12" class="node"><title>Node12</title>
<g id="a_node12"><a xlink:title=" ">
<polygon fill="white" stroke="#bfbfbf" points="191.5,-6 191.5,-25 323.5,-25 323.5,-6 191.5,-6"/>
<text text-anchor="middle" x="257.5" y="-13" font-family="Helvetica,sans-Serif" font-size="10.00">ti/common/sys_common.h</text>
</a>
</g>
</g>
<!-- Node8&#45;&gt;Node12 -->
<g id="edge17" class="edge"><title>Node8&#45;&gt;Node12</title>
<path fill="none" stroke="midnightblue" d="M599.734,-124.386C596.611,-123.902 593.51,-123.435 590.5,-123 525.355,-113.587 351.059,-123.821 296.5,-87 278.429,-74.8043 267.906,-51.3266 262.439,-34.825"/>
<polygon fill="midnightblue" stroke="midnightblue" points="265.771,-33.7514 259.547,-25.1771 259.066,-35.761 265.771,-33.7514"/>
</g>
<!-- Node13 -->
<g id="node13" class="node"><title>Node13</title>
<g id="a_node13"><a xlink:href="app__cfg_8h.html" target="_top" xlink:title=" ">
<polygon fill="white" stroke="black" points="306,-67.5 306,-86.5 405,-86.5 405,-67.5 306,-67.5"/>
<text text-anchor="middle" x="355.5" y="-74.5" font-family="Helvetica,sans-Serif" font-size="10.00">common/app_cfg.h</text>
</a>
</g>
</g>
<!-- Node8&#45;&gt;Node13 -->
<g id="edge12" class="edge"><title>Node8&#45;&gt;Node13</title>
<path fill="none" stroke="midnightblue" d="M599.977,-123.681C549.149,-114.184 465.95,-98.6377 410.954,-88.3617"/>
<polygon fill="midnightblue" stroke="midnightblue" points="411.5,-84.9032 401.028,-86.5069 410.215,-91.7842 411.5,-84.9032"/>
</g>
<!-- Node16 -->
<g id="node16" class="node"><title>Node16</title>
<g id="a_node16"><a xlink:title=" ">
<polygon fill="white" stroke="#bfbfbf" points="423,-67.5 423,-86.5 558,-86.5 558,-67.5 423,-67.5"/>
<text text-anchor="middle" x="490.5" y="-74.5" font-family="Helvetica,sans-Serif" font-size="10.00">ti/sysbios/knl/Semaphore.h</text>
</a>
</g>
</g>
<!-- Node8&#45;&gt;Node16 -->
<g id="edge16" class="edge"><title>Node8&#45;&gt;Node16</title>
<path fill="none" stroke="midnightblue" d="M620.098,-123.444C594.303,-114.399 553.423,-100.064 524.482,-89.9158"/>
<polygon fill="midnightblue" stroke="midnightblue" points="525.382,-86.5226 514.788,-86.5164 523.066,-93.1283 525.382,-86.5226"/>
</g>
<!-- Node17 -->
<g id="node17" class="node"><title>Node17</title>
<g id="a_node17"><a xlink:title=" ">
<polygon fill="white" stroke="#bfbfbf" points="576.5,-67.5 576.5,-86.5 712.5,-86.5 712.5,-67.5 576.5,-67.5"/>
<text text-anchor="middle" x="644.5" y="-74.5" font-family="Helvetica,sans-Serif" font-size="10.00">ti/common/mmwave_error.h</text>
</a>
</g>
</g>
<!-- Node8&#45;&gt;Node17 -->
<g id="edge18" class="edge"><title>Node8&#45;&gt;Node17</title>
<path fill="none" stroke="midnightblue" d="M644.5,-123.083C644.5,-116.006 644.5,-105.861 644.5,-96.9865"/>
<polygon fill="midnightblue" stroke="midnightblue" points="648,-96.751 644.5,-86.7511 641,-96.7511 648,-96.751"/>
</g>
<!-- Node18 -->
<g id="node18" class="node"><title>Node18</title>
<g id="a_node18"><a xlink:title=" ">
<polygon fill="white" stroke="#bfbfbf" points="730.5,-67.5 730.5,-86.5 860.5,-86.5 860.5,-67.5 730.5,-67.5"/>
<text text-anchor="middle" x="795.5" y="-74.5" font-family="Helvetica,sans-Serif" font-size="10.00">ti/drivers/adcbuf/ADCBuf.h</text>
</a>
</g>
</g>
<!-- Node8&#45;&gt;Node18 -->
<g id="edge19" class="edge"><title>Node8&#45;&gt;Node18</title>
<path fill="none" stroke="midnightblue" d="M668.426,-123.444C693.719,-114.399 733.802,-100.064 762.18,-89.9158"/>
<polygon fill="midnightblue" stroke="midnightblue" points="763.448,-93.1794 771.686,-86.5164 761.091,-86.5882 763.448,-93.1794"/>
</g>
<!-- Node19 -->
<g id="node19" class="node"><title>Node19</title>
<g id="a_node19"><a xlink:title=" ">
<polygon fill="white" stroke="#bfbfbf" points="879,-67.5 879,-86.5 994,-86.5 994,-67.5 879,-67.5"/>
<text text-anchor="middle" x="936.5" y="-74.5" font-family="Helvetica,sans-Serif" font-size="10.00">ti/drivers/edma/edma.h</text>
</a>
</g>
</g>
<!-- Node8&#45;&gt;Node19 -->
<g id="edge20" class="edge"><title>Node8&#45;&gt;Node19</title>
<path fill="none" stroke="midnightblue" d="M689.166,-123.74C740.453,-114.255 824.658,-98.683 880.341,-88.3855"/>
<polygon fill="midnightblue" stroke="midnightblue" points="881.195,-91.787 890.392,-86.5268 879.922,-84.9037 881.195,-91.787"/>
</g>
<!-- Node8&#45;&gt;Node20 -->
<g id="edge21" class="edge"><title>Node8&#45;&gt;Node20</title>
<path fill="none" stroke="midnightblue" d="M689.039,-126.768C755.086,-118.933 883.152,-103.445 1001.82,-87.2071"/>
<polygon fill="midnightblue" stroke="midnightblue" points="1002.37,-90.6641 1011.8,-85.836 1001.42,-83.7292 1002.37,-90.6641"/>
</g>
<!-- Node11 -->
<g id="node11" class="node"><title>Node11</title>
<g id="a_node11"><a xlink:title=" ">
<polygon fill="white" stroke="#bfbfbf" points="30,-6 30,-25 173,-25 173,-6 30,-6"/>
<text text-anchor="middle" x="101.5" y="-13" font-family="Helvetica,sans-Serif" font-size="10.00">ti/control/mmwave/mmwave.h</text>
</a>
</g>
</g>
<!-- Node10&#45;&gt;Node11 -->
<g id="edge10" class="edge"><title>Node10&#45;&gt;Node11</title>
<path fill="none" stroke="midnightblue" d="M181.175,-67.4751C166.12,-57.8431 141.384,-42.0175 123.463,-30.5517"/>
<polygon fill="midnightblue" stroke="midnightblue" points="125.11,-27.4501 114.8,-25.0091 121.337,-33.3466 125.11,-27.4501"/>
</g>
<!-- Node10&#45;&gt;Node12 -->
<g id="edge11" class="edge"><title>Node10&#45;&gt;Node12</title>
<path fill="none" stroke="midnightblue" d="M203.526,-67.4751C213.257,-58.285 228.958,-43.4563 240.923,-32.156"/>
<polygon fill="midnightblue" stroke="midnightblue" points="243.623,-34.4199 248.49,-25.0091 238.817,-29.3308 243.623,-34.4199"/>
</g>
<!-- Node13&#45;&gt;Node12 -->
<g id="edge14" class="edge"><title>Node13&#45;&gt;Node12</title>
<path fill="none" stroke="midnightblue" d="M341.459,-67.4751C325.449,-57.7548 299.05,-41.7266 280.126,-30.2372"/>
<polygon fill="midnightblue" stroke="midnightblue" points="281.879,-27.2072 271.515,-25.0091 278.246,-33.1907 281.879,-27.2072"/>
</g>
<!-- Node14 -->
<g id="node14" class="node"><title>Node14</title>
<g id="a_node14"><a xlink:href="device__cfg_8h.html" target="_top" xlink:title="This file holds constants related to the system chirp configuration as well as the calling the profil...">
<polygon fill="white" stroke="black" points="341.5,-6 341.5,-25 411.5,-25 411.5,-6 341.5,-6"/>
<text text-anchor="middle" x="376.5" y="-13" font-family="Helvetica,sans-Serif" font-size="10.00">device_cfg.h</text>
</a>
</g>
</g>
<!-- Node13&#45;&gt;Node14 -->
<g id="edge13" class="edge"><title>Node13&#45;&gt;Node14</title>
<path fill="none" stroke="midnightblue" d="M358.509,-67.4751C361.534,-58.9035 366.29,-45.4269 370.153,-34.483"/>
<polygon fill="midnightblue" stroke="midnightblue" points="373.469,-35.6039 373.497,-25.0091 366.868,-33.2741 373.469,-35.6039"/>
</g>
<!-- Node15 -->
<g id="node15" class="node"><title>Node15</title>
<g id="a_node15"><a xlink:href="config__chirp__design___u_s_r_r30_8h.html" target="_top" xlink:title=" ">
<polygon fill="white" stroke="black" points="429.5,-0.5 429.5,-30.5 557.5,-30.5 557.5,-0.5 429.5,-0.5"/>
<text text-anchor="start" x="437.5" y="-18.5" font-family="Helvetica,sans-Serif" font-size="10.00">common/profiles/config</text>
<text text-anchor="middle" x="493.5" y="-7.5" font-family="Helvetica,sans-Serif" font-size="10.00">_chirp_design_USRR30.h</text>
</a>
</g>
</g>
<!-- Node13&#45;&gt;Node15 -->
<g id="edge15" class="edge"><title>Node13&#45;&gt;Node15</title>
<path fill="none" stroke="midnightblue" d="M375.272,-67.4751C395.098,-58.9271 426.237,-45.5011 451.582,-34.5734"/>
<polygon fill="midnightblue" stroke="midnightblue" points="453.179,-37.6963 460.976,-30.523 450.408,-31.2683 453.179,-37.6963"/>
</g>
<!-- Node21&#45;&gt;Node20 -->
<g id="edge24" class="edge"><title>Node21&#45;&gt;Node20</title>
<path fill="none" stroke="midnightblue" d="M1008.1,-123.324C1017.96,-115.263 1032.85,-103.077 1044.72,-93.3695"/>
<polygon fill="midnightblue" stroke="midnightblue" points="1047.18,-95.8752 1052.7,-86.8339 1042.75,-90.4575 1047.18,-95.8752"/>
</g>
</g>
</svg>
