<?xml version="1.0" encoding="UTF-8" standalone="no"?>
<!DOCTYPE svg PUBLIC "-//W3C//DTD SVG 1.1//EN"
 "http://www.w3.org/Graphics/SVG/1.1/DTD/svg11.dtd">
<!-- Generated by graphviz version 2.38.0 (20140413.2041)
 -->
<!-- Title: clusteringDBscan.c Pages: 1 -->
<svg width="1123pt" height="207pt"
 viewBox="0.00 0.00 1123.00 207.00" xmlns="http://www.w3.org/2000/svg" xmlns:xlink="http://www.w3.org/1999/xlink">
<g id="graph0" class="graph" transform="scale(1 1) rotate(0) translate(4 203)">
<title>clusteringDBscan.c</title>
<polygon fill="white" stroke="none" points="-4,4 -4,-203 1119,-203 1119,4 -4,4"/>
<!-- Node1 -->
<g id="node1" class="node"><title>Node1</title>
<g id="a_node1"><a xlink:title="DBscan clustering module.">
<polygon fill="#bfbfbf" stroke="black" points="353,-179.5 353,-198.5 454,-198.5 454,-179.5 353,-179.5"/>
<text text-anchor="middle" x="403.5" y="-186.5" font-family="Helvetica,sans-Serif" font-size="10.00">clusteringDBscan.c</text>
</a>
</g>
</g>
<!-- Node2 -->
<g id="node2" class="node"><title>Node2</title>
<g id="a_node2"><a xlink:title=" ">
<polygon fill="white" stroke="#bfbfbf" points="195,-123.5 195,-142.5 294,-142.5 294,-123.5 195,-123.5"/>
<text text-anchor="middle" x="244.5" y="-130.5" font-family="Helvetica,sans-Serif" font-size="10.00">ti/mathlib/mathlib.h</text>
</a>
</g>
</g>
<!-- Node1&#45;&gt;Node2 -->
<g id="edge1" class="edge"><title>Node1&#45;&gt;Node2</title>
<path fill="none" stroke="midnightblue" d="M378.306,-179.444C351.557,-170.359 309.097,-155.939 279.195,-145.783"/>
<polygon fill="midnightblue" stroke="midnightblue" points="280.171,-142.418 269.576,-142.516 277.919,-149.046 280.171,-142.418"/>
</g>
<!-- Node3 -->
<g id="node3" class="node"><title>Node3</title>
<g id="a_node3"><a xlink:title=" ">
<polygon fill="white" stroke="#bfbfbf" points="312,-123.5 312,-142.5 361,-142.5 361,-123.5 312,-123.5"/>
<text text-anchor="middle" x="336.5" y="-130.5" font-family="Helvetica,sans-Serif" font-size="10.00">string.h</text>
</a>
</g>
</g>
<!-- Node1&#45;&gt;Node3 -->
<g id="edge2" class="edge"><title>Node1&#45;&gt;Node3</title>
<path fill="none" stroke="midnightblue" d="M392.735,-179.324C382.734,-171.263 367.613,-159.077 355.57,-149.369"/>
<polygon fill="midnightblue" stroke="midnightblue" points="357.443,-146.384 347.461,-142.834 353.05,-151.834 357.443,-146.384"/>
</g>
<!-- Node4 -->
<g id="node4" class="node"><title>Node4</title>
<g id="a_node4"><a xlink:title=" ">
<polygon fill="white" stroke="#bfbfbf" points="379,-123.5 379,-142.5 428,-142.5 428,-123.5 379,-123.5"/>
<text text-anchor="middle" x="403.5" y="-130.5" font-family="Helvetica,sans-Serif" font-size="10.00">stdint.h</text>
</a>
</g>
</g>
<!-- Node1&#45;&gt;Node4 -->
<g id="edge3" class="edge"><title>Node1&#45;&gt;Node4</title>
<path fill="none" stroke="midnightblue" d="M403.5,-179.083C403.5,-172.006 403.5,-161.861 403.5,-152.986"/>
<polygon fill="midnightblue" stroke="midnightblue" points="407,-152.751 403.5,-142.751 400,-152.751 407,-152.751"/>
</g>
<!-- Node5 -->
<g id="node5" class="node"><title>Node5</title>
<g id="a_node5"><a xlink:href="dss__data__path_8h.html" target="_top" xlink:title="This is the data path processing header.">
<polygon fill="white" stroke="black" points="446,-123.5 446,-142.5 535,-142.5 535,-123.5 446,-123.5"/>
<text text-anchor="middle" x="490.5" y="-130.5" font-family="Helvetica,sans-Serif" font-size="10.00">dss_data_path.h</text>
</a>
</g>
</g>
<!-- Node1&#45;&gt;Node5 -->
<g id="edge4" class="edge"><title>Node1&#45;&gt;Node5</title>
<path fill="none" stroke="midnightblue" d="M417.478,-179.324C431.05,-170.9 451.88,-157.971 467.825,-148.074"/>
<polygon fill="midnightblue" stroke="midnightblue" points="469.906,-150.902 476.557,-142.655 466.214,-144.954 469.906,-150.902"/>
</g>
<!-- Node18 -->
<g id="node18" class="node"><title>Node18</title>
<g id="a_node18"><a xlink:href="clustering_d_bscan_8h.html" target="_top" xlink:title="DBscan clustering module.">
<polygon fill="white" stroke="black" points="553,-123.5 553,-142.5 654,-142.5 654,-123.5 553,-123.5"/>
<text text-anchor="middle" x="603.5" y="-130.5" font-family="Helvetica,sans-Serif" font-size="10.00">clusteringDBscan.h</text>
</a>
</g>
</g>
<!-- Node1&#45;&gt;Node18 -->
<g id="edge19" class="edge"><title>Node1&#45;&gt;Node18</title>
<path fill="none" stroke="midnightblue" d="M435.191,-179.444C469.568,-170.162 524.577,-155.309 562.289,-145.127"/>
<polygon fill="midnightblue" stroke="midnightblue" points="563.216,-148.502 571.958,-142.516 561.391,-141.744 563.216,-148.502"/>
</g>
<!-- Node6 -->
<g id="node6" class="node"><title>Node6</title>
<g id="a_node6"><a xlink:href="detected__obj_8h.html" target="_top" xlink:title=" ">
<polygon fill="white" stroke="black" points="0,-67.5 0,-86.5 121,-86.5 121,-67.5 0,-67.5"/>
<text text-anchor="middle" x="60.5" y="-74.5" font-family="Helvetica,sans-Serif" font-size="10.00">common/detected_obj.h</text>
</a>
</g>
</g>
<!-- Node5&#45;&gt;Node6 -->
<g id="edge5" class="edge"><title>Node5&#45;&gt;Node6</title>
<path fill="none" stroke="midnightblue" d="M445.737,-124.369C442.613,-123.889 439.511,-123.428 436.5,-123 304.101,-104.19 268.085,-103.742 131.232,-87.0737"/>
<polygon fill="midnightblue" stroke="midnightblue" points="131.553,-83.5869 121.201,-85.845 130.702,-90.535 131.553,-83.5869"/>
</g>
<!-- Node7 -->
<g id="node7" class="node"><title>Node7</title>
<g id="a_node7"><a xlink:href="mrr__config_8h.html" target="_top" xlink:title=" ">
<polygon fill="white" stroke="black" points="139.5,-67.5 139.5,-86.5 249.5,-86.5 249.5,-67.5 139.5,-67.5"/>
<text text-anchor="middle" x="194.5" y="-74.5" font-family="Helvetica,sans-Serif" font-size="10.00">common/mrr_config.h</text>
</a>
</g>
</g>
<!-- Node5&#45;&gt;Node7 -->
<g id="edge6" class="edge"><title>Node5&#45;&gt;Node7</title>
<path fill="none" stroke="midnightblue" d="M445.865,-123.857C393.912,-114.379 308.015,-98.7089 251.337,-88.3689"/>
<polygon fill="midnightblue" stroke="midnightblue" points="251.923,-84.9182 241.458,-86.5666 250.667,-91.8046 251.923,-84.9182"/>
</g>
<!-- Node9 -->
<g id="node9" class="node"><title>Node9</title>
<g id="a_node9"><a xlink:title=" ">
<polygon fill="white" stroke="#bfbfbf" points="191.5,-6 191.5,-25 323.5,-25 323.5,-6 191.5,-6"/>
<text text-anchor="middle" x="257.5" y="-13" font-family="Helvetica,sans-Serif" font-size="10.00">ti/common/sys_common.h</text>
</a>
</g>
</g>
<!-- Node5&#45;&gt;Node9 -->
<g id="edge14" class="edge"><title>Node5&#45;&gt;Node9</title>
<path fill="none" stroke="midnightblue" d="M445.844,-123.628C392.347,-113.293 308.399,-95.9845 296.5,-87 279.449,-74.1255 268.861,-51.515 263.094,-35.3708"/>
<polygon fill="midnightblue" stroke="midnightblue" points="266.279,-33.8485 259.851,-25.4261 259.623,-36.0185 266.279,-33.8485"/>
</g>
<!-- Node10 -->
<g id="node10" class="node"><title>Node10</title>
<g id="a_node10"><a xlink:href="app__cfg_8h.html" target="_top" xlink:title=" ">
<polygon fill="white" stroke="black" points="306,-67.5 306,-86.5 405,-86.5 405,-67.5 306,-67.5"/>
<text text-anchor="middle" x="355.5" y="-74.5" font-family="Helvetica,sans-Serif" font-size="10.00">common/app_cfg.h</text>
</a>
</g>
</g>
<!-- Node5&#45;&gt;Node10 -->
<g id="edge9" class="edge"><title>Node5&#45;&gt;Node10</title>
<path fill="none" stroke="midnightblue" d="M469.109,-123.444C446.793,-114.517 411.597,-100.439 386.292,-90.3168"/>
<polygon fill="midnightblue" stroke="midnightblue" points="387.376,-86.9807 376.791,-86.5164 384.776,-93.4801 387.376,-86.9807"/>
</g>
<!-- Node13 -->
<g id="node13" class="node"><title>Node13</title>
<g id="a_node13"><a xlink:title=" ">
<polygon fill="white" stroke="#bfbfbf" points="423,-67.5 423,-86.5 558,-86.5 558,-67.5 423,-67.5"/>
<text text-anchor="middle" x="490.5" y="-74.5" font-family="Helvetica,sans-Serif" font-size="10.00">ti/sysbios/knl/Semaphore.h</text>
</a>
</g>
</g>
<!-- Node5&#45;&gt;Node13 -->
<g id="edge13" class="edge"><title>Node5&#45;&gt;Node13</title>
<path fill="none" stroke="midnightblue" d="M490.5,-123.083C490.5,-116.006 490.5,-105.861 490.5,-96.9865"/>
<polygon fill="midnightblue" stroke="midnightblue" points="494,-96.751 490.5,-86.7511 487,-96.7511 494,-96.751"/>
</g>
<!-- Node14 -->
<g id="node14" class="node"><title>Node14</title>
<g id="a_node14"><a xlink:title=" ">
<polygon fill="white" stroke="#bfbfbf" points="576.5,-67.5 576.5,-86.5 712.5,-86.5 712.5,-67.5 576.5,-67.5"/>
<text text-anchor="middle" x="644.5" y="-74.5" font-family="Helvetica,sans-Serif" font-size="10.00">ti/common/mmwave_error.h</text>
</a>
</g>
</g>
<!-- Node5&#45;&gt;Node14 -->
<g id="edge15" class="edge"><title>Node5&#45;&gt;Node14</title>
<path fill="none" stroke="midnightblue" d="M514.902,-123.444C540.697,-114.399 581.577,-100.064 610.518,-89.9158"/>
<polygon fill="midnightblue" stroke="midnightblue" points="611.934,-93.1283 620.212,-86.5164 609.618,-86.5226 611.934,-93.1283"/>
</g>
<!-- Node15 -->
<g id="node15" class="node"><title>Node15</title>
<g id="a_node15"><a xlink:title=" ">
<polygon fill="white" stroke="#bfbfbf" points="730.5,-67.5 730.5,-86.5 860.5,-86.5 860.5,-67.5 730.5,-67.5"/>
<text text-anchor="middle" x="795.5" y="-74.5" font-family="Helvetica,sans-Serif" font-size="10.00">ti/drivers/adcbuf/ADCBuf.h</text>
</a>
</g>
</g>
<!-- Node5&#45;&gt;Node15 -->
<g id="edge16" class="edge"><title>Node5&#45;&gt;Node15</title>
<path fill="none" stroke="midnightblue" d="M535.176,-124.09C588.748,-114.605 678.665,-98.6855 737.538,-88.2621"/>
<polygon fill="midnightblue" stroke="midnightblue" points="738.194,-91.7004 747.431,-86.5106 736.974,-84.8076 738.194,-91.7004"/>
</g>
<!-- Node16 -->
<g id="node16" class="node"><title>Node16</title>
<g id="a_node16"><a xlink:title=" ">
<polygon fill="white" stroke="#bfbfbf" points="879,-67.5 879,-86.5 994,-86.5 994,-67.5 879,-67.5"/>
<text text-anchor="middle" x="936.5" y="-74.5" font-family="Helvetica,sans-Serif" font-size="10.00">ti/drivers/edma/edma.h</text>
</a>
</g>
</g>
<!-- Node5&#45;&gt;Node16 -->
<g id="edge17" class="edge"><title>Node5&#45;&gt;Node16</title>
<path fill="none" stroke="midnightblue" d="M535.004,-124.249C537.876,-123.809 540.727,-123.388 543.5,-123 684.619,-103.243 723.096,-104.63 868.568,-87.0829"/>
<polygon fill="midnightblue" stroke="midnightblue" points="869.263,-90.5242 878.768,-85.8429 868.418,-83.5754 869.263,-90.5242"/>
</g>
<!-- Node17 -->
<g id="node17" class="node"><title>Node17</title>
<g id="a_node17"><a xlink:href="_e_k_f___x_y_z___consts_8h.html" target="_top" xlink:title="Constants for the Extended Kalman Filter.">
<polygon fill="white" stroke="black" points="1012,-67.5 1012,-86.5 1115,-86.5 1115,-67.5 1012,-67.5"/>
<text text-anchor="middle" x="1063.5" y="-74.5" font-family="Helvetica,sans-Serif" font-size="10.00">EKF_XYZ_Consts.h</text>
</a>
</g>
</g>
<!-- Node5&#45;&gt;Node17 -->
<g id="edge18" class="edge"><title>Node5&#45;&gt;Node17</title>
<path fill="none" stroke="midnightblue" d="M535.278,-124.105C538.056,-123.705 540.814,-123.332 543.5,-123 743.737,-98.2145 798.011,-109.834 1001.69,-87.1326"/>
<polygon fill="midnightblue" stroke="midnightblue" points="1002.28,-90.5889 1011.82,-85.9893 1001.49,-83.6331 1002.28,-90.5889"/>
</g>
<!-- Node8 -->
<g id="node8" class="node"><title>Node8</title>
<g id="a_node8"><a xlink:title=" ">
<polygon fill="white" stroke="#bfbfbf" points="30,-6 30,-25 173,-25 173,-6 30,-6"/>
<text text-anchor="middle" x="101.5" y="-13" font-family="Helvetica,sans-Serif" font-size="10.00">ti/control/mmwave/mmwave.h</text>
</a>
</g>
</g>
<!-- Node7&#45;&gt;Node8 -->
<g id="edge7" class="edge"><title>Node7&#45;&gt;Node8</title>
<path fill="none" stroke="midnightblue" d="M181.175,-67.4751C166.12,-57.8431 141.384,-42.0175 123.463,-30.5517"/>
<polygon fill="midnightblue" stroke="midnightblue" points="125.11,-27.4501 114.8,-25.0091 121.337,-33.3466 125.11,-27.4501"/>
</g>
<!-- Node7&#45;&gt;Node9 -->
<g id="edge8" class="edge"><title>Node7&#45;&gt;Node9</title>
<path fill="none" stroke="midnightblue" d="M203.526,-67.4751C213.257,-58.285 228.958,-43.4563 240.923,-32.156"/>
<polygon fill="midnightblue" stroke="midnightblue" points="243.623,-34.4199 248.49,-25.0091 238.817,-29.3308 243.623,-34.4199"/>
</g>
<!-- Node10&#45;&gt;Node9 -->
<g id="edge11" class="edge"><title>Node10&#45;&gt;Node9</title>
<path fill="none" stroke="midnightblue" d="M341.459,-67.4751C325.449,-57.7548 299.05,-41.7266 280.126,-30.2372"/>
<polygon fill="midnightblue" stroke="midnightblue" points="281.879,-27.2072 271.515,-25.0091 278.246,-33.1907 281.879,-27.2072"/>
</g>
<!-- Node11 -->
<g id="node11" class="node"><title>Node11</title>
<g id="a_node11"><a xlink:href="device__cfg_8h.html" target="_top" xlink:title="This file holds constants related to the system chirp configuration as well as the calling the profil...">
<polygon fill="white" stroke="black" points="341.5,-6 341.5,-25 411.5,-25 411.5,-6 341.5,-6"/>
<text text-anchor="middle" x="376.5" y="-13" font-family="Helvetica,sans-Serif" font-size="10.00">device_cfg.h</text>
</a>
</g>
</g>
<!-- Node10&#45;&gt;Node11 -->
<g id="edge10" class="edge"><title>Node10&#45;&gt;Node11</title>
<path fill="none" stroke="midnightblue" d="M358.509,-67.4751C361.534,-58.9035 366.29,-45.4269 370.153,-34.483"/>
<polygon fill="midnightblue" stroke="midnightblue" points="373.469,-35.6039 373.497,-25.0091 366.868,-33.2741 373.469,-35.6039"/>
</g>
<!-- Node12 -->
<g id="node12" class="node"><title>Node12</title>
<g id="a_node12"><a xlink:href="config__chirp__design___u_s_r_r30_8h.html" target="_top" xlink:title=" ">
<polygon fill="white" stroke="black" points="429.5,-0.5 429.5,-30.5 557.5,-30.5 557.5,-0.5 429.5,-0.5"/>
<text text-anchor="start" x="437.5" y="-18.5" font-family="Helvetica,sans-Serif" font-size="10.00">common/profiles/config</text>
<text text-anchor="middle" x="493.5" y="-7.5" font-family="Helvetica,sans-Serif" font-size="10.00">_chirp_design_USRR30.h</text>
</a>
</g>
</g>
<!-- Node10&#45;&gt;Node12 -->
<g id="edge12" class="edge"><title>Node10&#45;&gt;Node12</title>
<path fill="none" stroke="midnightblue" d="M375.272,-67.4751C395.098,-58.9271 426.237,-45.5011 451.582,-34.5734"/>
<polygon fill="midnightblue" stroke="midnightblue" points="453.179,-37.6963 460.976,-30.523 450.408,-31.2683 453.179,-37.6963"/>
</g>
</g>
</svg>
