<?xml version="1.0" encoding="UTF-8" standalone="no"?>
<!DOCTYPE svg PUBLIC "-//W3C//DTD SVG 1.1//EN"
 "http://www.w3.org/Graphics/SVG/1.1/DTD/svg11.dtd">
<!-- Generated by graphviz version 2.38.0 (20140413.2041)
 -->
<!-- Title: common/profiles/config_chirp_design_USRR30.h Pages: 1 -->
<svg width="653pt" height="274pt"
 viewBox="0.00 0.00 652.83 274.00" xmlns="http://www.w3.org/2000/svg" xmlns:xlink="http://www.w3.org/1999/xlink">
<g id="graph0" class="graph" transform="scale(1 1) rotate(0) translate(4 270)">
<title>common/profiles/config_chirp_design_USRR30.h</title>
<polygon fill="white" stroke="none" points="-4,4 -4,-270 648.827,-270 648.827,4 -4,4"/>
<!-- Node1 -->
<g id="node1" class="node"><title>Node1</title>
<g id="a_node1"><a xlink:title=" ">
<polygon fill="#bfbfbf" stroke="black" points="146.327,-235.5 146.327,-265.5 274.327,-265.5 274.327,-235.5 146.327,-235.5"/>
<text text-anchor="start" x="154.327" y="-253.5" font-family="Helvetica,sans-Serif" font-size="10.00">common/profiles/config</text>
<text text-anchor="middle" x="210.327" y="-242.5" font-family="Helvetica,sans-Serif" font-size="10.00">_chirp_design_USRR30.h</text>
</a>
</g>
</g>
<!-- Node2 -->
<g id="node2" class="node"><title>Node2</title>
<g id="a_node2"><a xlink:href="app__cfg_8h.html" target="_top" xlink:title=" ">
<polygon fill="white" stroke="black" points="160.827,-179.5 160.827,-198.5 259.827,-198.5 259.827,-179.5 160.827,-179.5"/>
<text text-anchor="middle" x="210.327" y="-186.5" font-family="Helvetica,sans-Serif" font-size="10.00">common/app_cfg.h</text>
</a>
</g>
</g>
<!-- Node1&#45;&gt;Node2 -->
<g id="edge1" class="edge"><title>Node1&#45;&gt;Node2</title>
<path fill="none" stroke="midnightblue" d="M210.327,-225.289C210.327,-215.857 210.327,-205.655 210.327,-198.658"/>
<polygon fill="midnightblue" stroke="midnightblue" points="206.827,-225.399 210.327,-235.399 213.827,-225.399 206.827,-225.399"/>
</g>
<!-- Node3 -->
<g id="node3" class="node"><title>Node3</title>
<g id="a_node3"><a xlink:href="dss__data__path_8h.html" target="_top" xlink:title="This is the data path processing header.">
<polygon fill="white" stroke="black" points="165.827,-123.5 165.827,-142.5 254.827,-142.5 254.827,-123.5 165.827,-123.5"/>
<text text-anchor="middle" x="210.327" y="-130.5" font-family="Helvetica,sans-Serif" font-size="10.00">dss_data_path.h</text>
</a>
</g>
</g>
<!-- Node2&#45;&gt;Node3 -->
<g id="edge2" class="edge"><title>Node2&#45;&gt;Node3</title>
<path fill="none" stroke="midnightblue" d="M210.327,-168.805C210.327,-159.91 210.327,-149.78 210.327,-142.751"/>
<polygon fill="midnightblue" stroke="midnightblue" points="206.827,-169.083 210.327,-179.083 213.827,-169.083 206.827,-169.083"/>
</g>
<!-- Node5 -->
<g id="node5" class="node"><title>Node5</title>
<g id="a_node5"><a xlink:href="mm_wave___x_s_s_8h.html" target="_top" xlink:title=" ">
<polygon fill="white" stroke="black" points="14.3271,-62 14.3271,-81 144.327,-81 144.327,-62 14.3271,-62"/>
<text text-anchor="middle" x="79.3271" y="-69" font-family="Helvetica,sans-Serif" font-size="10.00">common/mmWave_XSS.h</text>
</a>
</g>
</g>
<!-- Node2&#45;&gt;Node5 -->
<g id="edge11" class="edge"><title>Node2&#45;&gt;Node5</title>
<path fill="none" stroke="midnightblue" d="M191.403,-172.593C180.959,-164 167.815,-153.036 156.327,-143 131.485,-121.297 103.047,-94.82 88.6819,-81.3264"/>
<polygon fill="midnightblue" stroke="midnightblue" points="189.491,-175.552 199.445,-179.181 193.927,-170.137 189.491,-175.552"/>
</g>
<!-- Node6 -->
<g id="node6" class="node"><title>Node6</title>
<g id="a_node6"><a xlink:href="dss__data__path_8c.html" target="_top" xlink:title="Implements Data path processing functionality.">
<polygon fill="white" stroke="black" points="34.8271,-0.5 34.8271,-19.5 123.827,-19.5 123.827,-0.5 34.8271,-0.5"/>
<text text-anchor="middle" x="79.3271" y="-7.5" font-family="Helvetica,sans-Serif" font-size="10.00">dss_data_path.c</text>
</a>
</g>
</g>
<!-- Node2&#45;&gt;Node6 -->
<g id="edge12" class="edge"><title>Node2&#45;&gt;Node6</title>
<path fill="none" stroke="midnightblue" d="M152.563,-177.013C103.912,-164.381 37.2861,-138.373 5.32705,-87 -1.95073,-75.3012 -1.4256,-68.0095 5.32705,-56 15.3494,-38.1753 35.6078,-26.5891 52.3978,-19.6437"/>
<polygon fill="midnightblue" stroke="midnightblue" points="151.797,-180.429 162.345,-179.438 153.481,-173.635 151.797,-180.429"/>
</g>
<!-- Node7 -->
<g id="node7" class="node"><title>Node7</title>
<g id="a_node7"><a xlink:href="dss__main_8c.html" target="_top" xlink:title=" ">
<polygon fill="white" stroke="black" points="176.827,-0.5 176.827,-19.5 243.827,-19.5 243.827,-0.5 176.827,-0.5"/>
<text text-anchor="middle" x="210.327" y="-7.5" font-family="Helvetica,sans-Serif" font-size="10.00">dss_main.c</text>
</a>
</g>
</g>
<!-- Node2&#45;&gt;Node7 -->
<g id="edge13" class="edge"><title>Node2&#45;&gt;Node7</title>
<path fill="none" stroke="midnightblue" d="M270.192,-181.646C370.761,-168.687 556.461,-133.611 490.327,-56 458.993,-19.2278 311.151,-12.3894 243.845,-11.2003"/>
<polygon fill="midnightblue" stroke="midnightblue" points="269.633,-178.189 260.145,-182.904 270.502,-185.134 269.633,-178.189"/>
</g>
<!-- Node9 -->
<g id="node9" class="node"><title>Node9</title>
<g id="a_node9"><a xlink:href="frame__cfg_8c.html" target="_top" xlink:title=" ">
<polygon fill="white" stroke="black" points="537.827,-123.5 537.827,-142.5 644.827,-142.5 644.827,-123.5 537.827,-123.5"/>
<text text-anchor="middle" x="591.327" y="-130.5" font-family="Helvetica,sans-Serif" font-size="10.00">common/frame_cfg.c</text>
</a>
</g>
</g>
<!-- Node2&#45;&gt;Node9 -->
<g id="edge10" class="edge"><title>Node2&#45;&gt;Node9</title>
<path fill="none" stroke="midnightblue" d="M270.167,-179.519C343.692,-169.098 467.327,-151.575 537.824,-141.583"/>
<polygon fill="midnightblue" stroke="midnightblue" points="269.546,-176.072 260.136,-180.94 270.528,-183.002 269.546,-176.072"/>
</g>
<!-- Node4 -->
<g id="node4" class="node"><title>Node4</title>
<g id="a_node4"><a xlink:href="clustering_d_bscan_8c.html" target="_top" xlink:title="DBscan clustering module.">
<polygon fill="white" stroke="black" points="379.827,-62 379.827,-81 480.827,-81 480.827,-62 379.827,-62"/>
<text text-anchor="middle" x="430.327" y="-69" font-family="Helvetica,sans-Serif" font-size="10.00">clusteringDBscan.c</text>
</a>
</g>
</g>
<!-- Node3&#45;&gt;Node4 -->
<g id="edge3" class="edge"><title>Node3&#45;&gt;Node4</title>
<path fill="none" stroke="midnightblue" d="M251.656,-120.822C294.391,-109.264 360.174,-91.4732 398.865,-81.0091"/>
<polygon fill="midnightblue" stroke="midnightblue" points="250.587,-117.486 241.848,-123.475 252.415,-124.243 250.587,-117.486"/>
</g>
<!-- Node3&#45;&gt;Node5 -->
<g id="edge4" class="edge"><title>Node3&#45;&gt;Node5</title>
<path fill="none" stroke="midnightblue" d="M182.426,-119.327C156.994,-107.776 120.128,-91.0316 98.0613,-81.0091"/>
<polygon fill="midnightblue" stroke="midnightblue" points="181.006,-122.526 191.558,-123.475 183.9,-116.153 181.006,-122.526"/>
</g>
<!-- Node3&#45;&gt;Node6 -->
<g id="edge7" class="edge"><title>Node3&#45;&gt;Node6</title>
<path fill="none" stroke="midnightblue" d="M199.982,-114.548C189.632,-98.091 172.523,-73.4166 153.327,-56 136.401,-40.6428 113.486,-27.658 97.6622,-19.6424"/>
<polygon fill="midnightblue" stroke="midnightblue" points="197.054,-116.469 205.259,-123.172 203.025,-112.815 197.054,-116.469"/>
</g>
<!-- Node3&#45;&gt;Node7 -->
<g id="edge8" class="edge"><title>Node3&#45;&gt;Node7</title>
<path fill="none" stroke="midnightblue" d="M210.327,-112.988C210.327,-86.3457 210.327,-38.995 210.327,-19.6232"/>
<polygon fill="midnightblue" stroke="midnightblue" points="206.827,-113.298 210.327,-123.298 213.827,-113.298 206.827,-113.298"/>
</g>
<!-- Node8 -->
<g id="node8" class="node"><title>Node8</title>
<g id="a_node8"><a xlink:href="_extended___kalman___filter__xyz_8c.html" target="_top" xlink:title="Implements an &#39;Extended Kalman Filter&#39; for radar tracking.">
<polygon fill="white" stroke="black" points="238.827,-56.5 238.827,-86.5 361.827,-86.5 361.827,-56.5 238.827,-56.5"/>
<text text-anchor="start" x="246.827" y="-74.5" font-family="Helvetica,sans-Serif" font-size="10.00">Extended_Kalman_Filter</text>
<text text-anchor="middle" x="300.327" y="-63.5" font-family="Helvetica,sans-Serif" font-size="10.00">_xyz.c</text>
</a>
</g>
</g>
<!-- Node3&#45;&gt;Node8 -->
<g id="edge9" class="edge"><title>Node3&#45;&gt;Node8</title>
<path fill="none" stroke="midnightblue" d="M231.898,-117.739C246.202,-108.282 264.886,-95.9304 279.116,-86.523"/>
<polygon fill="midnightblue" stroke="midnightblue" points="229.633,-115.041 223.222,-123.475 233.494,-120.88 229.633,-115.041"/>
</g>
<!-- Node5&#45;&gt;Node6 -->
<g id="edge5" class="edge"><title>Node5&#45;&gt;Node6</title>
<path fill="none" stroke="midnightblue" d="M79.3271,-51.8165C79.3271,-40.9962 79.3271,-27.898 79.3271,-19.5091"/>
<polygon fill="midnightblue" stroke="midnightblue" points="75.8272,-51.9751 79.3271,-61.9751 82.8272,-51.9751 75.8272,-51.9751"/>
</g>
<!-- Node5&#45;&gt;Node7 -->
<g id="edge6" class="edge"><title>Node5&#45;&gt;Node7</title>
<path fill="none" stroke="midnightblue" d="M107.229,-57.8272C132.66,-46.2761 169.526,-29.5316 191.593,-19.5091"/>
<polygon fill="midnightblue" stroke="midnightblue" points="105.754,-54.6529 98.0962,-61.9751 108.648,-61.0263 105.754,-54.6529"/>
</g>
</g>
</svg>
