<?xml version="1.0" encoding="UTF-8" standalone="no"?>
<!DOCTYPE svg PUBLIC "-//W3C//DTD SVG 1.1//EN"
 "http://www.w3.org/Graphics/SVG/1.1/DTD/svg11.dtd">
<!-- Generated by graphviz version 2.38.0 (20140413.2041)
 -->
<!-- Title: common/detected_obj.h Pages: 1 -->
<svg width="475pt" height="207pt"
 viewBox="0.00 0.00 475.00 207.00" xmlns="http://www.w3.org/2000/svg" xmlns:xlink="http://www.w3.org/1999/xlink">
<g id="graph0" class="graph" transform="scale(1 1) rotate(0) translate(4 203)">
<title>common/detected_obj.h</title>
<polygon fill="white" stroke="none" points="-4,4 -4,-203 471,-203 471,4 -4,4"/>
<!-- Node1 -->
<g id="node1" class="node"><title>Node1</title>
<g id="a_node1"><a xlink:title=" ">
<polygon fill="#bfbfbf" stroke="black" points="162,-179.5 162,-198.5 283,-198.5 283,-179.5 162,-179.5"/>
<text text-anchor="middle" x="222.5" y="-186.5" font-family="Helvetica,sans-Serif" font-size="10.00">common/detected_obj.h</text>
</a>
</g>
</g>
<!-- Node2 -->
<g id="node2" class="node"><title>Node2</title>
<g id="a_node2"><a xlink:href="dss__data__path_8h.html" target="_top" xlink:title="This is the data path processing header.">
<polygon fill="white" stroke="black" points="178,-123.5 178,-142.5 267,-142.5 267,-123.5 178,-123.5"/>
<text text-anchor="middle" x="222.5" y="-130.5" font-family="Helvetica,sans-Serif" font-size="10.00">dss_data_path.h</text>
</a>
</g>
</g>
<!-- Node1&#45;&gt;Node2 -->
<g id="edge1" class="edge"><title>Node1&#45;&gt;Node2</title>
<path fill="none" stroke="midnightblue" d="M222.5,-168.805C222.5,-159.91 222.5,-149.78 222.5,-142.751"/>
<polygon fill="midnightblue" stroke="midnightblue" points="219,-169.083 222.5,-179.083 226,-169.083 219,-169.083"/>
</g>
<!-- Node3 -->
<g id="node3" class="node"><title>Node3</title>
<g id="a_node3"><a xlink:href="clustering_d_bscan_8c.html" target="_top" xlink:title="DBscan clustering module.">
<polygon fill="white" stroke="black" points="0,-62 0,-81 101,-81 101,-62 0,-62"/>
<text text-anchor="middle" x="50.5" y="-69" font-family="Helvetica,sans-Serif" font-size="10.00">clusteringDBscan.c</text>
</a>
</g>
</g>
<!-- Node2&#45;&gt;Node3 -->
<g id="edge2" class="edge"><title>Node2&#45;&gt;Node3</title>
<path fill="none" stroke="midnightblue" d="M188.05,-120.083C154.616,-108.517 104.709,-91.2524 75.0977,-81.0091"/>
<polygon fill="midnightblue" stroke="midnightblue" points="187.262,-123.513 197.857,-123.475 189.55,-116.898 187.262,-123.513"/>
</g>
<!-- Node4 -->
<g id="node4" class="node"><title>Node4</title>
<g id="a_node4"><a xlink:href="mm_wave___x_s_s_8h.html" target="_top" xlink:title=" ">
<polygon fill="white" stroke="black" points="157.5,-62 157.5,-81 287.5,-81 287.5,-62 157.5,-62"/>
<text text-anchor="middle" x="222.5" y="-69" font-family="Helvetica,sans-Serif" font-size="10.00">common/mmWave_XSS.h</text>
</a>
</g>
</g>
<!-- Node2&#45;&gt;Node4 -->
<g id="edge3" class="edge"><title>Node2&#45;&gt;Node4</title>
<path fill="none" stroke="midnightblue" d="M222.5,-113.317C222.5,-102.496 222.5,-89.398 222.5,-81.0091"/>
<polygon fill="midnightblue" stroke="midnightblue" points="219,-113.475 222.5,-123.475 226,-113.475 219,-113.475"/>
</g>
<!-- Node5 -->
<g id="node5" class="node"><title>Node5</title>
<g id="a_node5"><a xlink:href="dss__data__path_8c.html" target="_top" xlink:title="Implements Data path processing functionality.">
<polygon fill="white" stroke="black" points="107,-0.5 107,-19.5 196,-19.5 196,-0.5 107,-0.5"/>
<text text-anchor="middle" x="151.5" y="-7.5" font-family="Helvetica,sans-Serif" font-size="10.00">dss_data_path.c</text>
</a>
</g>
</g>
<!-- Node2&#45;&gt;Node5 -->
<g id="edge6" class="edge"><title>Node2&#45;&gt;Node5</title>
<path fill="none" stroke="midnightblue" d="M186.263,-119.154C171.831,-112.046 156.721,-101.622 148.5,-87 136.333,-65.3612 143.654,-34.5171 148.402,-19.6579"/>
<polygon fill="midnightblue" stroke="midnightblue" points="185.016,-122.431 195.571,-123.356 187.897,-116.051 185.016,-122.431"/>
</g>
<!-- Node6 -->
<g id="node6" class="node"><title>Node6</title>
<g id="a_node6"><a xlink:href="dss__main_8c.html" target="_top" xlink:title=" ">
<polygon fill="white" stroke="black" points="259,-0.5 259,-19.5 326,-19.5 326,-0.5 259,-0.5"/>
<text text-anchor="middle" x="292.5" y="-7.5" font-family="Helvetica,sans-Serif" font-size="10.00">dss_main.c</text>
</a>
</g>
</g>
<!-- Node2&#45;&gt;Node6 -->
<g id="edge7" class="edge"><title>Node2&#45;&gt;Node6</title>
<path fill="none" stroke="midnightblue" d="M258.737,-119.154C273.169,-112.046 288.279,-101.622 296.5,-87 308.674,-65.3481 300.81,-34.5101 295.774,-19.6551"/>
<polygon fill="midnightblue" stroke="midnightblue" points="257.103,-116.051 249.429,-123.356 259.984,-122.431 257.103,-116.051"/>
</g>
<!-- Node7 -->
<g id="node7" class="node"><title>Node7</title>
<g id="a_node7"><a xlink:href="_extended___kalman___filter__xyz_8c.html" target="_top" xlink:title="Implements an &#39;Extended Kalman Filter&#39; for radar tracking.">
<polygon fill="white" stroke="black" points="344,-56.5 344,-86.5 467,-86.5 467,-56.5 344,-56.5"/>
<text text-anchor="start" x="352" y="-74.5" font-family="Helvetica,sans-Serif" font-size="10.00">Extended_Kalman_Filter</text>
<text text-anchor="middle" x="405.5" y="-63.5" font-family="Helvetica,sans-Serif" font-size="10.00">_xyz.c</text>
</a>
</g>
</g>
<!-- Node2&#45;&gt;Node7 -->
<g id="edge8" class="edge"><title>Node2&#45;&gt;Node7</title>
<path fill="none" stroke="midnightblue" d="M258.31,-120.357C288.128,-110.662 330.681,-96.8263 362.371,-86.523"/>
<polygon fill="midnightblue" stroke="midnightblue" points="257.147,-117.055 248.719,-123.475 259.312,-123.711 257.147,-117.055"/>
</g>
<!-- Node4&#45;&gt;Node5 -->
<g id="edge4" class="edge"><title>Node4&#45;&gt;Node5</title>
<path fill="none" stroke="midnightblue" d="M204.568,-55.4727C190.989,-44.0925 172.823,-28.8694 161.654,-19.5091"/>
<polygon fill="midnightblue" stroke="midnightblue" points="202.415,-58.2346 212.327,-61.9751 206.911,-52.8694 202.415,-58.2346"/>
</g>
<!-- Node4&#45;&gt;Node6 -->
<g id="edge5" class="edge"><title>Node4&#45;&gt;Node6</title>
<path fill="none" stroke="midnightblue" d="M240.179,-55.4727C253.568,-44.0925 271.477,-28.8694 282.489,-19.5091"/>
<polygon fill="midnightblue" stroke="midnightblue" points="237.882,-52.8318 232.529,-61.9751 242.415,-58.1654 237.882,-52.8318"/>
</g>
</g>
</svg>
