<?xml version="1.0" encoding="UTF-8" standalone="no"?>
<!DOCTYPE svg PUBLIC "-//W3C//DTD SVG 1.1//EN"
 "http://www.w3.org/Graphics/SVG/1.1/DTD/svg11.dtd">
<!-- Generated by graphviz version 2.38.0 (20140413.2041)
 -->
<!-- Title: ti_sysbios_rts_MemAlloc_alloc Pages: 1 -->
<svg width="296pt" height="66pt"
 viewBox="0.00 0.00 296.00 66.00" xmlns="http://www.w3.org/2000/svg" xmlns:xlink="http://www.w3.org/1999/xlink">
<g id="graph0" class="graph" transform="scale(1 1) rotate(0) translate(4 62)">
<title>ti_sysbios_rts_MemAlloc_alloc</title>
<polygon fill="white" stroke="none" points="-4,4 -4,-62 292,-62 292,4 -4,4"/>
<!-- Node1 -->
<g id="node1" class="node"><title>Node1</title>
<g id="a_node1"><a xlink:title=" ">
<polygon fill="#bfbfbf" stroke="black" points="162,-14 162,-44 288,-44 288,-14 162,-14"/>
<text text-anchor="start" x="170" y="-32" font-family="Helvetica,sans-Serif" font-size="10.00">ti_sysbios_rts_MemAlloc</text>
<text text-anchor="middle" x="225" y="-21" font-family="Helvetica,sans-Serif" font-size="10.00">_alloc</text>
</a>
</g>
</g>
<!-- Node2 -->
<g id="node2" class="node"><title>Node2</title>
<g id="a_node2"><a xlink:href="dss__mrr__pe674_8c.html#ad5ca01d16b57a5ce2f76059d064dd3bf" target="_top" xlink:title=" ">
<polygon fill="white" stroke="black" points="82.5,-38.5 82.5,-57.5 124.5,-57.5 124.5,-38.5 82.5,-38.5"/>
<text text-anchor="middle" x="103.5" y="-45.5" font-family="Helvetica,sans-Serif" font-size="10.00">calloc</text>
</a>
</g>
</g>
<!-- Node1&#45;&gt;Node2 -->
<g id="edge1" class="edge"><title>Node1&#45;&gt;Node2</title>
<path fill="none" stroke="midnightblue" d="M151.751,-40.4872C141.82,-42.0662 132.372,-43.5685 124.57,-44.8089"/>
<polygon fill="midnightblue" stroke="midnightblue" points="152.474,-43.9165 161.8,-38.8896 151.374,-37.0033 152.474,-43.9165"/>
</g>
<!-- Node3 -->
<g id="node3" class="node"><title>Node3</title>
<g id="a_node3"><a xlink:href="dss__mrr__pe674_8c.html#a7eb63a8643e6c8cf8876a44f96e96008" target="_top" xlink:title=" ">
<polygon fill="white" stroke="black" points="81,-0.5 81,-19.5 126,-19.5 126,-0.5 81,-0.5"/>
<text text-anchor="middle" x="103.5" y="-7.5" font-family="Helvetica,sans-Serif" font-size="10.00">malloc</text>
</a>
</g>
</g>
<!-- Node1&#45;&gt;Node3 -->
<g id="edge2" class="edge"><title>Node1&#45;&gt;Node3</title>
<path fill="none" stroke="midnightblue" d="M151.663,-17.4987C142.432,-16.031 133.62,-14.63 126.165,-13.4447"/>
<polygon fill="midnightblue" stroke="midnightblue" points="151.374,-20.9967 161.8,-19.1104 152.474,-14.0835 151.374,-20.9967"/>
</g>
<!-- Node4 -->
<g id="node4" class="node"><title>Node4</title>
<g id="a_node4"><a xlink:href="dss__mrr__pe674_8c.html#a557df23fa0d900583a9076c0ce68ddd9" target="_top" xlink:title=" ">
<polygon fill="white" stroke="black" points="0,-0.5 0,-19.5 45,-19.5 45,-0.5 0,-0.5"/>
<text text-anchor="middle" x="22.5" y="-7.5" font-family="Helvetica,sans-Serif" font-size="10.00">realloc</text>
</a>
</g>
</g>
<!-- Node3&#45;&gt;Node4 -->
<g id="edge3" class="edge"><title>Node3&#45;&gt;Node4</title>
<path fill="none" stroke="midnightblue" d="M70.7578,-10C62.1276,-10 52.9831,-10 45.061,-10"/>
<polygon fill="midnightblue" stroke="midnightblue" points="70.9129,-13.5001 80.9129,-10 70.9129,-6.5001 70.9129,-13.5001"/>
</g>
</g>
</svg>
