<?xml version="1.0" encoding="UTF-8" standalone="no"?>
<!DOCTYPE svg PUBLIC "-//W3C//DTD SVG 1.1//EN"
 "http://www.w3.org/Graphics/SVG/1.1/DTD/svg11.dtd">
<!-- Generated by graphviz version 2.38.0 (20140413.2041)
 -->
<!-- Title: select_channel Pages: 1 -->
<svg width="481pt" height="104pt"
 viewBox="0.00 0.00 481.00 104.00" xmlns="http://www.w3.org/2000/svg" xmlns:xlink="http://www.w3.org/1999/xlink">
<g id="graph0" class="graph" transform="scale(1 1) rotate(0) translate(4 100)">
<title>select_channel</title>
<polygon fill="white" stroke="none" points="-4,4 -4,-100 477,-100 477,4 -4,4"/>
<!-- Node1 -->
<g id="node1" class="node"><title>Node1</title>
<g id="a_node1"><a xlink:title=" ">
<polygon fill="#bfbfbf" stroke="black" points="391,-38.5 391,-57.5 473,-57.5 473,-38.5 391,-38.5"/>
<text text-anchor="middle" x="432" y="-45.5" font-family="Helvetica,sans-Serif" font-size="10.00">select_channel</text>
</a>
</g>
</g>
<!-- Node2 -->
<g id="node2" class="node"><title>Node2</title>
<g id="a_node2"><a xlink:href="dss__data__path_8c.html#a389046b256f4569a688b52829dadddea" target="_top" xlink:title=" ">
<polygon fill="white" stroke="black" points="164,-76.5 164,-95.5 355,-95.5 355,-76.5 164,-76.5"/>
<text text-anchor="middle" x="259.5" y="-83.5" font-family="Helvetica,sans-Serif" font-size="10.00">MmwDemo_dataPathWait1DOutputData</text>
</a>
</g>
</g>
<!-- Node1&#45;&gt;Node2 -->
<g id="edge1" class="edge"><title>Node1&#45;&gt;Node2</title>
<path fill="none" stroke="midnightblue" d="M384.455,-60.0004C374.742,-62.4024 364.552,-64.847 355,-67 340.471,-70.2749 324.622,-73.5692 310.128,-76.4735"/>
<polygon fill="midnightblue" stroke="midnightblue" points="385.505,-63.3457 394.359,-57.5267 383.809,-56.5544 385.505,-63.3457"/>
</g>
<!-- Node4 -->
<g id="node4" class="node"><title>Node4</title>
<g id="a_node4"><a xlink:href="dss__data__path_8c.html#a49e705ab0439066d21aa01e8287ceb2b" target="_top" xlink:title=" ">
<polygon fill="white" stroke="black" points="168,-38.5 168,-57.5 351,-57.5 351,-38.5 168,-38.5"/>
<text text-anchor="middle" x="259.5" y="-45.5" font-family="Helvetica,sans-Serif" font-size="10.00">MmwDemo_dataPathWait2DInputData</text>
</a>
</g>
</g>
<!-- Node1&#45;&gt;Node4 -->
<g id="edge3" class="edge"><title>Node1&#45;&gt;Node4</title>
<path fill="none" stroke="midnightblue" d="M380.396,-48C371.087,-48 361.114,-48 351.043,-48"/>
<polygon fill="midnightblue" stroke="midnightblue" points="380.594,-51.5001 390.594,-48 380.594,-44.5001 380.594,-51.5001"/>
</g>
<!-- Node5 -->
<g id="node5" class="node"><title>Node5</title>
<g id="a_node5"><a xlink:href="dss__data__path_8c.html#a86be15e8167abfdbd63b3d869d26c7e6" target="_top" xlink:title=" ">
<polygon fill="white" stroke="black" points="168,-0.5 168,-19.5 351,-19.5 351,-0.5 168,-0.5"/>
<text text-anchor="middle" x="259.5" y="-7.5" font-family="Helvetica,sans-Serif" font-size="10.00">MmwDemo_dataPathWait3DInputData</text>
</a>
</g>
</g>
<!-- Node1&#45;&gt;Node5 -->
<g id="edge4" class="edge"><title>Node1&#45;&gt;Node5</title>
<path fill="none" stroke="midnightblue" d="M384.455,-35.9996C374.742,-33.5976 364.552,-31.153 355,-29 340.471,-25.7251 324.622,-22.4308 310.128,-19.5265"/>
<polygon fill="midnightblue" stroke="midnightblue" points="383.809,-39.4456 394.359,-38.4733 385.505,-32.6543 383.809,-39.4456"/>
</g>
<!-- Node3 -->
<g id="node3" class="node"><title>Node3</title>
<g id="a_node3"><a xlink:href="dss__data__path_8h.html#a00e9f13811147074e0e141e60ccb2213" target="_top" xlink:title=" ">
<polygon fill="white" stroke="black" points="0,-76.5 0,-95.5 128,-95.5 128,-76.5 0,-76.5"/>
<text text-anchor="middle" x="64" y="-83.5" font-family="Helvetica,sans-Serif" font-size="10.00">MmwDemo_processChirp</text>
</a>
</g>
</g>
<!-- Node2&#45;&gt;Node3 -->
<g id="edge2" class="edge"><title>Node2&#45;&gt;Node3</title>
<path fill="none" stroke="midnightblue" d="M153.561,-86C144.915,-86 136.357,-86 128.166,-86"/>
<polygon fill="midnightblue" stroke="midnightblue" points="153.734,-89.5001 163.734,-86 153.734,-82.5001 153.734,-89.5001"/>
</g>
</g>
</svg>
