<?xml version="1.0" encoding="UTF-8" standalone="no"?>
<!DOCTYPE svg PUBLIC "-//W3C//DTD SVG 1.1//EN"
 "http://www.w3.org/Graphics/SVG/1.1/DTD/svg11.dtd">
<!-- Generated by graphviz version 2.38.0 (20140413.2041)
 -->
<!-- Title: ti_sysbios_family_c64p_EventCombiner_Module__startupDone__F Pages: 1 -->
<svg width="292pt" height="50pt"
 viewBox="0.00 0.00 292.00 50.00" xmlns="http://www.w3.org/2000/svg" xmlns:xlink="http://www.w3.org/1999/xlink">
<g id="graph0" class="graph" transform="scale(1 1) rotate(0) translate(4 46)">
<title>ti_sysbios_family_c64p_EventCombiner_Module__startupDone__F</title>
<polygon fill="white" stroke="none" points="-4,4 -4,-46 288,-46 288,4 -4,4"/>
<!-- Node1 -->
<g id="node1" class="node"><title>Node1</title>
<g id="a_node1"><a xlink:title=" ">
<polygon fill="#bfbfbf" stroke="black" points="160,-0.5 160,-41.5 284,-41.5 284,-0.5 160,-0.5"/>
<text text-anchor="start" x="168" y="-29.5" font-family="Helvetica,sans-Serif" font-size="10.00">ti_sysbios_family_c64p</text>
<text text-anchor="start" x="168" y="-18.5" font-family="Helvetica,sans-Serif" font-size="10.00">_EventCombiner_Module</text>
<text text-anchor="middle" x="222" y="-7.5" font-family="Helvetica,sans-Serif" font-size="10.00">__startupDone__F</text>
</a>
</g>
</g>
<!-- Node2 -->
<g id="node2" class="node"><title>Node2</title>
<g id="a_node2"><a xlink:href="dss__mrr__pe674_8c.html#a1816a1d5ed9323ad2e7366775494570d" target="_top" xlink:title=" ">
<polygon fill="white" stroke="black" points="0,-0.5 0,-41.5 124,-41.5 124,-0.5 0,-0.5"/>
<text text-anchor="start" x="8" y="-29.5" font-family="Helvetica,sans-Serif" font-size="10.00">ti_sysbios_family_c64p</text>
<text text-anchor="start" x="8" y="-18.5" font-family="Helvetica,sans-Serif" font-size="10.00">_EventCombiner_Module</text>
<text text-anchor="middle" x="62" y="-7.5" font-family="Helvetica,sans-Serif" font-size="10.00">__startupDone__S</text>
</a>
</g>
</g>
<!-- Node1&#45;&gt;Node2 -->
<g id="edge1" class="edge"><title>Node1&#45;&gt;Node2</title>
<path fill="none" stroke="midnightblue" d="M149.634,-21C141.137,-21 132.522,-21 124.185,-21"/>
<polygon fill="midnightblue" stroke="midnightblue" points="149.913,-24.5001 159.913,-21 149.913,-17.5001 149.913,-24.5001"/>
</g>
</g>
</svg>
