<?xml version="1.0" encoding="UTF-8" standalone="no"?>
<!DOCTYPE svg PUBLIC "-//W3C//DTD SVG 1.1//EN"
 "http://www.w3.org/Graphics/SVG/1.1/DTD/svg11.dtd">
<!-- Generated by graphviz version 2.38.0 (20140413.2041)
 -->
<!-- Title: EDMA_setup_shadow_link Pages: 1 -->
<svg width="495pt" height="142pt"
 viewBox="0.00 0.00 495.00 142.00" xmlns="http://www.w3.org/2000/svg" xmlns:xlink="http://www.w3.org/1999/xlink">
<g id="graph0" class="graph" transform="scale(1 1) rotate(0) translate(4 138)">
<title>EDMA_setup_shadow_link</title>
<polygon fill="white" stroke="none" points="-4,4 -4,-138 491,-138 491,4 -4,4"/>
<!-- Node1 -->
<g id="node1" class="node"><title>Node1</title>
<g id="a_node1"><a xlink:title=" ">
<polygon fill="#bfbfbf" stroke="black" points="354,-57.5 354,-76.5 487,-76.5 487,-57.5 354,-57.5"/>
<text text-anchor="middle" x="420.5" y="-64.5" font-family="Helvetica,sans-Serif" font-size="10.00">EDMA_setup_shadow_link</text>
</a>
</g>
</g>
<!-- Node2 -->
<g id="node2" class="node"><title>Node2</title>
<g id="a_node2"><a xlink:href="dss__config__edma__util_8h.html#a150f2630da81f8aff78617b093f71a91" target="_top" xlink:title=" ">
<polygon fill="white" stroke="black" points="200.5,-114.5 200.5,-133.5 315.5,-133.5 315.5,-114.5 200.5,-114.5"/>
<text text-anchor="middle" x="258" y="-121.5" font-family="Helvetica,sans-Serif" font-size="10.00">EDMAutil_configType1</text>
</a>
</g>
</g>
<!-- Node1&#45;&gt;Node2 -->
<g id="edge1" class="edge"><title>Node1&#45;&gt;Node2</title>
<path fill="none" stroke="midnightblue" d="M385.563,-80.1577C365.909,-87.6637 340.651,-97.1174 318,-105 308.853,-108.183 298.845,-111.476 289.713,-114.409"/>
<polygon fill="midnightblue" stroke="midnightblue" points="386.921,-83.3855 395.004,-76.537 384.414,-76.8496 386.921,-83.3855"/>
</g>
<!-- Node4 -->
<g id="node4" class="node"><title>Node4</title>
<g id="a_node4"><a xlink:href="dss__config__edma__util_8h.html#ae85cd3acee5a1a6cafc9220e4bb76a51" target="_top" xlink:title=" ">
<polygon fill="white" stroke="black" points="198,-76.5 198,-95.5 318,-95.5 318,-76.5 198,-76.5"/>
<text text-anchor="middle" x="258" y="-83.5" font-family="Helvetica,sans-Serif" font-size="10.00">EDMAutil_configType2a</text>
</a>
</g>
</g>
<!-- Node1&#45;&gt;Node4 -->
<g id="edge3" class="edge"><title>Node1&#45;&gt;Node4</title>
<path fill="none" stroke="midnightblue" d="M343.743,-75.9681C335.166,-76.9834 326.522,-78.0068 318.201,-78.9917"/>
<polygon fill="midnightblue" stroke="midnightblue" points="344.236,-79.4343 353.755,-74.7828 343.413,-72.4828 344.236,-79.4343"/>
</g>
<!-- Node5 -->
<g id="node5" class="node"><title>Node5</title>
<g id="a_node5"><a xlink:href="dss__config__edma__util_8c.html#a78e519796d3ee3f89db452c3f22ee6e6" target="_top" xlink:title=" ">
<polygon fill="white" stroke="black" points="198,-38.5 198,-57.5 318,-57.5 318,-38.5 198,-38.5"/>
<text text-anchor="middle" x="258" y="-45.5" font-family="Helvetica,sans-Serif" font-size="10.00">EDMAutil_configType2b</text>
</a>
</g>
</g>
<!-- Node1&#45;&gt;Node5 -->
<g id="edge5" class="edge"><title>Node1&#45;&gt;Node5</title>
<path fill="none" stroke="midnightblue" d="M343.743,-58.0319C335.166,-57.0166 326.522,-55.9932 318.201,-55.0083"/>
<polygon fill="midnightblue" stroke="midnightblue" points="343.413,-61.5172 353.755,-59.2172 344.236,-54.5657 343.413,-61.5172"/>
</g>
<!-- Node6 -->
<g id="node6" class="node"><title>Node6</title>
<g id="a_node6"><a xlink:href="dss__config__edma__util_8h.html#a64366456ee6eb7aa4cd11cb71ace36c5" target="_top" xlink:title=" ">
<polygon fill="white" stroke="black" points="200.5,-0.5 200.5,-19.5 315.5,-19.5 315.5,-0.5 200.5,-0.5"/>
<text text-anchor="middle" x="258" y="-7.5" font-family="Helvetica,sans-Serif" font-size="10.00">EDMAutil_configType3</text>
</a>
</g>
</g>
<!-- Node1&#45;&gt;Node6 -->
<g id="edge6" class="edge"><title>Node1&#45;&gt;Node6</title>
<path fill="none" stroke="midnightblue" d="M385.563,-53.8423C365.909,-46.3363 340.651,-36.8826 318,-29 308.853,-25.8169 298.845,-22.5236 289.713,-19.591"/>
<polygon fill="midnightblue" stroke="midnightblue" points="384.414,-57.1504 395.004,-57.463 386.921,-50.6145 384.414,-57.1504"/>
</g>
<!-- Node3 -->
<g id="node3" class="node"><title>Node3</title>
<g id="a_node3"><a xlink:href="dss__data__path_8h.html#a78abff2ecdd14f7beb4283946419f134" target="_top" xlink:title=" ">
<polygon fill="white" stroke="black" points="0,-76.5 0,-95.5 162,-95.5 162,-76.5 0,-76.5"/>
<text text-anchor="middle" x="81" y="-83.5" font-family="Helvetica,sans-Serif" font-size="10.00">MmwDemo_dataPathConfigEdma</text>
</a>
</g>
</g>
<!-- Node2&#45;&gt;Node3 -->
<g id="edge2" class="edge"><title>Node2&#45;&gt;Node3</title>
<path fill="none" stroke="midnightblue" d="M202.876,-112.247C178.131,-106.874 149.197,-100.591 125.842,-95.5201"/>
<polygon fill="midnightblue" stroke="midnightblue" points="202.325,-115.709 212.84,-114.411 203.811,-108.869 202.325,-115.709"/>
</g>
<!-- Node4&#45;&gt;Node3 -->
<g id="edge4" class="edge"><title>Node4&#45;&gt;Node3</title>
<path fill="none" stroke="midnightblue" d="M187.706,-86C179.358,-86 170.778,-86 162.289,-86"/>
<polygon fill="midnightblue" stroke="midnightblue" points="187.753,-89.5001 197.753,-86 187.753,-82.5001 187.753,-89.5001"/>
</g>
<!-- Node6&#45;&gt;Node3 -->
<g id="edge7" class="edge"><title>Node6&#45;&gt;Node3</title>
<path fill="none" stroke="midnightblue" d="M214.975,-22.7033C209.224,-24.6826 203.433,-26.804 198,-29 162.01,-43.5479 121.688,-64.4642 99.3245,-76.4978"/>
<polygon fill="midnightblue" stroke="midnightblue" points="216.162,-25.9971 224.545,-19.5186 213.952,-19.3551 216.162,-25.9971"/>
</g>
</g>
</svg>
