<?xml version="1.0" encoding="UTF-8" standalone="no"?>
<!DOCTYPE svg PUBLIC "-//W3C//DTD SVG 1.1//EN"
 "http://www.w3.org/Graphics/SVG/1.1/DTD/svg11.dtd">
<!-- Generated by graphviz version 2.38.0 (20140413.2041)
 -->
<!-- Title: ti_sysbios_gates_GateMutex_create Pages: 1 -->
<svg width="343pt" height="88pt"
 viewBox="0.00 0.00 343.00 88.00" xmlns="http://www.w3.org/2000/svg" xmlns:xlink="http://www.w3.org/1999/xlink">
<g id="graph0" class="graph" transform="scale(1 1) rotate(0) translate(4 84)">
<title>ti_sysbios_gates_GateMutex_create</title>
<polygon fill="white" stroke="none" points="-4,4 -4,-84 339,-84 339,4 -4,4"/>
<!-- Node1 -->
<g id="node1" class="node"><title>Node1</title>
<g id="a_node1"><a xlink:title=" ">
<polygon fill="#bfbfbf" stroke="black" points="192,-24.5 192,-54.5 335,-54.5 335,-24.5 192,-24.5"/>
<text text-anchor="start" x="200" y="-42.5" font-family="Helvetica,sans-Serif" font-size="10.00">ti_sysbios_gates_GateMutex</text>
<text text-anchor="middle" x="263.5" y="-31.5" font-family="Helvetica,sans-Serif" font-size="10.00">_create</text>
</a>
</g>
</g>
<!-- Node2 -->
<g id="node2" class="node"><title>Node2</title>
<g id="a_node2"><a xlink:href="dss__mrr__pe674_8c.html#a54b1e82c2553b6f9e061eed4b0d7b7f1" target="_top" xlink:title=" ">
<polygon fill="white" stroke="black" points="0,-49.5 0,-79.5 156,-79.5 156,-49.5 0,-49.5"/>
<text text-anchor="start" x="8" y="-67.5" font-family="Helvetica,sans-Serif" font-size="10.00">ti_sysbios_BIOS_RtsGateProxy</text>
<text text-anchor="middle" x="78" y="-56.5" font-family="Helvetica,sans-Serif" font-size="10.00">_create</text>
</a>
</g>
</g>
<!-- Node1&#45;&gt;Node2 -->
<g id="edge1" class="edge"><title>Node1&#45;&gt;Node2</title>
<path fill="none" stroke="midnightblue" d="M181.838,-50.4893C173.271,-51.6565 164.574,-52.8414 156.05,-54.0027"/>
<polygon fill="midnightblue" stroke="midnightblue" points="182.381,-53.9479 191.817,-49.1299 181.436,-47.0119 182.381,-53.9479"/>
</g>
<!-- Node3 -->
<g id="node3" class="node"><title>Node3</title>
<g id="a_node3"><a xlink:href="dss__mrr__pe674_8c.html#a72c309fbe52a71dcdebf4b1b7460c6ec" target="_top" xlink:title=" ">
<polygon fill="white" stroke="black" points="7,-0.5 7,-30.5 149,-30.5 149,-0.5 7,-0.5"/>
<text text-anchor="start" x="15" y="-18.5" font-family="Helvetica,sans-Serif" font-size="10.00">ti_sysbios_heaps_HeapMem</text>
<text text-anchor="middle" x="78" y="-7.5" font-family="Helvetica,sans-Serif" font-size="10.00">_Module_GateProxy_create</text>
</a>
</g>
</g>
<!-- Node1&#45;&gt;Node3 -->
<g id="edge2" class="edge"><title>Node1&#45;&gt;Node3</title>
<path fill="none" stroke="midnightblue" d="M181.853,-28.9521C170.918,-27.522 159.77,-26.0639 149.042,-24.6608"/>
<polygon fill="midnightblue" stroke="midnightblue" points="181.447,-32.4288 191.817,-30.2553 182.355,-25.4879 181.447,-32.4288"/>
</g>
</g>
</svg>
