<?xml version="1.0" encoding="UTF-8" standalone="no"?>
<!DOCTYPE svg PUBLIC "-//W3C//DTD SVG 1.1//EN"
 "http://www.w3.org/Graphics/SVG/1.1/DTD/svg11.dtd">
<!-- Generated by graphviz version 2.38.0 (20140413.2041)
 -->
<!-- Title: Debug/configPkg/package/cfg/dss_mrr_pe674.c Pages: 1 -->
<svg width="5588pt" height="106pt"
 viewBox="0.00 0.00 5588.00 106.00" xmlns="http://www.w3.org/2000/svg" xmlns:xlink="http://www.w3.org/1999/xlink">
<g id="graph0" class="graph" transform="scale(1 1) rotate(0) translate(4 102)">
<title>Debug/configPkg/package/cfg/dss_mrr_pe674.c</title>
<polygon fill="white" stroke="none" points="-4,4 -4,-102 5584,-102 5584,4 -4,4"/>
<!-- Node1 -->
<g id="node1" class="node"><title>Node1</title>
<g id="a_node1"><a xlink:title=" ">
<polygon fill="#bfbfbf" stroke="black" points="2846.5,-67.5 2846.5,-97.5 2976.5,-97.5 2976.5,-67.5 2846.5,-67.5"/>
<text text-anchor="start" x="2854.5" y="-85.5" font-family="Helvetica,sans-Serif" font-size="10.00">Debug/configPkg/package</text>
<text text-anchor="middle" x="2911.5" y="-74.5" font-family="Helvetica,sans-Serif" font-size="10.00">/cfg/dss_mrr_pe674.c</text>
</a>
</g>
</g>
<!-- Node2 -->
<g id="node2" class="node"><title>Node2</title>
<g id="a_node2"><a xlink:title=" ">
<polygon fill="white" stroke="#bfbfbf" points="0,-6 0,-25 57,-25 57,-6 0,-6"/>
<text text-anchor="middle" x="28.5" y="-13" font-family="Helvetica,sans-Serif" font-size="10.00">xdc/std.h</text>
</a>
</g>
</g>
<!-- Node1&#45;&gt;Node2 -->
<g id="edge1" class="edge"><title>Node1&#45;&gt;Node2</title>
<path fill="none" stroke="midnightblue" d="M2846.32,-81.7275C2447.66,-82.9352 346.125,-86.6068 65.5,-31 62.4186,-30.3894 59.2629,-29.5373 56.1567,-28.549"/>
<polygon fill="midnightblue" stroke="midnightblue" points="57.1492,-25.1857 46.5552,-25.0563 54.7563,-31.764 57.1492,-25.1857"/>
</g>
<!-- Node3 -->
<g id="node3" class="node"><title>Node3</title>
<g id="a_node3"><a xlink:title=" ">
<polygon fill="white" stroke="#bfbfbf" points="75,-6 75,-25 168,-25 168,-6 75,-6"/>
<text text-anchor="middle" x="121.5" y="-13" font-family="Helvetica,sans-Serif" font-size="10.00">ti/sysbios/BIOS.h</text>
</a>
</g>
</g>
<!-- Node1&#45;&gt;Node3 -->
<g id="edge2" class="edge"><title>Node1&#45;&gt;Node3</title>
<path fill="none" stroke="midnightblue" d="M2846.46,-81.2136C2457.73,-79.3799 449.204,-68.1582 177.5,-31 171.508,-30.1805 165.236,-28.9443 159.148,-27.5327"/>
<polygon fill="midnightblue" stroke="midnightblue" points="159.708,-24.0648 149.157,-25.034 158.009,-30.8557 159.708,-24.0648"/>
</g>
<!-- Node4 -->
<g id="node4" class="node"><title>Node4</title>
<g id="a_node4"><a xlink:title=" ">
<polygon fill="white" stroke="#bfbfbf" points="186.5,-0.5 186.5,-30.5 292.5,-30.5 292.5,-0.5 186.5,-0.5"/>
<text text-anchor="start" x="194.5" y="-18.5" font-family="Helvetica,sans-Serif" font-size="10.00">ti/sysbios/family/c62</text>
<text text-anchor="middle" x="239.5" y="-7.5" font-family="Helvetica,sans-Serif" font-size="10.00">/IntrinsicsSupport.h</text>
</a>
</g>
</g>
<!-- Node1&#45;&gt;Node4 -->
<g id="edge3" class="edge"><title>Node1&#45;&gt;Node4</title>
<path fill="none" stroke="midnightblue" d="M2846.38,-81.0601C2472.46,-78.4267 605.065,-63.7823 302.889,-30.8947"/>
<polygon fill="midnightblue" stroke="midnightblue" points="303.144,-27.4007 292.805,-29.7171 302.332,-34.3535 303.144,-27.4007"/>
</g>
<!-- Node5 -->
<g id="node5" class="node"><title>Node5</title>
<g id="a_node5"><a xlink:title=" ">
<polygon fill="white" stroke="#bfbfbf" points="310.5,-0.5 310.5,-30.5 416.5,-30.5 416.5,-0.5 310.5,-0.5"/>
<text text-anchor="start" x="318.5" y="-18.5" font-family="Helvetica,sans-Serif" font-size="10.00">ti/sysbios/family/c62</text>
<text text-anchor="middle" x="363.5" y="-7.5" font-family="Helvetica,sans-Serif" font-size="10.00">/TaskSupport.h</text>
</a>
</g>
</g>
<!-- Node1&#45;&gt;Node5 -->
<g id="edge4" class="edge"><title>Node1&#45;&gt;Node5</title>
<path fill="none" stroke="midnightblue" d="M2846.21,-80.9913C2482.76,-78.0518 715.41,-62.3106 426.822,-30.886"/>
<polygon fill="midnightblue" stroke="midnightblue" points="427.145,-27.4 416.806,-29.7138 426.331,-34.3525 427.145,-27.4"/>
</g>
<!-- Node6 -->
<g id="node6" class="node"><title>Node6</title>
<g id="a_node6"><a xlink:title=" ">
<polygon fill="white" stroke="#bfbfbf" points="435,-0.5 435,-30.5 546,-30.5 546,-0.5 435,-0.5"/>
<text text-anchor="start" x="443" y="-18.5" font-family="Helvetica,sans-Serif" font-size="10.00">ti/sysbios/family/c64p</text>
<text text-anchor="middle" x="490.5" y="-7.5" font-family="Helvetica,sans-Serif" font-size="10.00">/Cache.h</text>
</a>
</g>
</g>
<!-- Node1&#45;&gt;Node6 -->
<g id="edge5" class="edge"><title>Node1&#45;&gt;Node6</title>
<path fill="none" stroke="midnightblue" d="M2846.43,-80.8886C2495.22,-77.4853 831.82,-60.0193 556.516,-30.9906"/>
<polygon fill="midnightblue" stroke="midnightblue" points="556.563,-27.4735 546.231,-29.821 555.772,-34.4287 556.563,-27.4735"/>
</g>
<!-- Node7 -->
<g id="node7" class="node"><title>Node7</title>
<g id="a_node7"><a xlink:title=" ">
<polygon fill="white" stroke="#bfbfbf" points="564,-0.5 564,-30.5 675,-30.5 675,-0.5 564,-0.5"/>
<text text-anchor="start" x="572" y="-18.5" font-family="Helvetica,sans-Serif" font-size="10.00">ti/sysbios/family/c64p</text>
<text text-anchor="middle" x="619.5" y="-7.5" font-family="Helvetica,sans-Serif" font-size="10.00">/EventCombiner.h</text>
</a>
</g>
</g>
<!-- Node1&#45;&gt;Node7 -->
<g id="edge6" class="edge"><title>Node1&#45;&gt;Node7</title>
<path fill="none" stroke="midnightblue" d="M2846.36,-81.7816C2528.69,-82.8883 1139.39,-84.5869 685.453,-31.0513"/>
<polygon fill="midnightblue" stroke="midnightblue" points="685.579,-27.5412 675.232,-29.8168 684.74,-34.4907 685.579,-27.5412"/>
</g>
<!-- Node8 -->
<g id="node8" class="node"><title>Node8</title>
<g id="a_node8"><a xlink:title=" ">
<polygon fill="white" stroke="#bfbfbf" points="693,-0.5 693,-30.5 804,-30.5 804,-0.5 693,-0.5"/>
<text text-anchor="start" x="701" y="-18.5" font-family="Helvetica,sans-Serif" font-size="10.00">ti/sysbios/family/c64p</text>
<text text-anchor="middle" x="748.5" y="-7.5" font-family="Helvetica,sans-Serif" font-size="10.00">/Exception.h</text>
</a>
</g>
</g>
<!-- Node1&#45;&gt;Node8 -->
<g id="edge7" class="edge"><title>Node1&#45;&gt;Node8</title>
<path fill="none" stroke="midnightblue" d="M2846.33,-81.6755C2540.09,-82.2355 1241.41,-81.5954 814.462,-31.0536"/>
<polygon fill="midnightblue" stroke="midnightblue" points="814.581,-27.5425 804.232,-29.8122 813.738,-34.4915 814.581,-27.5425"/>
</g>
<!-- Node9 -->
<g id="node9" class="node"><title>Node9</title>
<g id="a_node9"><a xlink:title=" ">
<polygon fill="white" stroke="#bfbfbf" points="822,-0.5 822,-30.5 933,-30.5 933,-0.5 822,-0.5"/>
<text text-anchor="start" x="830" y="-18.5" font-family="Helvetica,sans-Serif" font-size="10.00">ti/sysbios/family/c64p</text>
<text text-anchor="middle" x="877.5" y="-7.5" font-family="Helvetica,sans-Serif" font-size="10.00">/Hwi.h</text>
</a>
</g>
</g>
<!-- Node1&#45;&gt;Node9 -->
<g id="edge8" class="edge"><title>Node1&#45;&gt;Node9</title>
<path fill="none" stroke="midnightblue" d="M2846.17,-81.5555C2551.48,-81.5429 1343.26,-78.6049 943.391,-31.0465"/>
<polygon fill="midnightblue" stroke="midnightblue" points="943.583,-27.5442 933.233,-29.8069 942.735,-34.4926 943.583,-27.5442"/>
</g>
<!-- Node10 -->
<g id="node10" class="node"><title>Node10</title>
<g id="a_node10"><a xlink:title=" ">
<polygon fill="white" stroke="#bfbfbf" points="951,-0.5 951,-30.5 1062,-30.5 1062,-0.5 951,-0.5"/>
<text text-anchor="start" x="959" y="-18.5" font-family="Helvetica,sans-Serif" font-size="10.00">ti/sysbios/family/c64p</text>
<text text-anchor="middle" x="1006.5" y="-7.5" font-family="Helvetica,sans-Serif" font-size="10.00">/TimestampProvider.h</text>
</a>
</g>
</g>
<!-- Node1&#45;&gt;Node10 -->
<g id="edge9" class="edge"><title>Node1&#45;&gt;Node10</title>
<path fill="none" stroke="midnightblue" d="M2846.25,-81.3888C2563.98,-80.6518 1445.95,-75.0314 1072.08,-30.8453"/>
<polygon fill="midnightblue" stroke="midnightblue" points="1072.4,-27.3575 1062.05,-29.6273 1071.55,-34.3065 1072.4,-27.3575"/>
</g>
<!-- Node11 -->
<g id="node11" class="node"><title>Node11</title>
<g id="a_node11"><a xlink:title=" ">
<polygon fill="white" stroke="#bfbfbf" points="1080.5,-6 1080.5,-25 1214.5,-25 1214.5,-6 1080.5,-6"/>
<text text-anchor="middle" x="1147.5" y="-13" font-family="Helvetica,sans-Serif" font-size="10.00">ti/sysbios/gates/GateHwi.h</text>
</a>
</g>
</g>
<!-- Node1&#45;&gt;Node11 -->
<g id="edge10" class="edge"><title>Node1&#45;&gt;Node11</title>
<path fill="none" stroke="midnightblue" d="M2846.29,-80.9328C2576.51,-78.3722 1546.63,-66.4324 1223.5,-31 1214.57,-30.0213 1205.13,-28.5652 1196.04,-26.9476"/>
<polygon fill="midnightblue" stroke="midnightblue" points="1196.46,-23.4644 1185.98,-25.0695 1195.17,-30.3455 1196.46,-23.4644"/>
</g>
<!-- Node12 -->
<g id="node12" class="node"><title>Node12</title>
<g id="a_node12"><a xlink:title=" ">
<polygon fill="white" stroke="#bfbfbf" points="1233,-6 1233,-25 1378,-25 1378,-6 1233,-6"/>
<text text-anchor="middle" x="1305.5" y="-13" font-family="Helvetica,sans-Serif" font-size="10.00">ti/sysbios/gates/GateMutex.h</text>
</a>
</g>
</g>
<!-- Node1&#45;&gt;Node12 -->
<g id="edge11" class="edge"><title>Node1&#45;&gt;Node12</title>
<path fill="none" stroke="midnightblue" d="M2846.27,-80.5924C2593.21,-76.8772 1676.12,-61.5572 1386.5,-31 1376.8,-29.9765 1366.51,-28.4674 1356.64,-26.8046"/>
<polygon fill="midnightblue" stroke="midnightblue" points="1357,-23.3142 1346.54,-25.03 1355.79,-30.2085 1357,-23.3142"/>
</g>
<!-- Node13 -->
<g id="node13" class="node"><title>Node13</title>
<g id="a_node13"><a xlink:title=" ">
<polygon fill="white" stroke="#bfbfbf" points="1396,-6 1396,-25 1497,-25 1497,-6 1396,-6"/>
<text text-anchor="middle" x="1446.5" y="-13" font-family="Helvetica,sans-Serif" font-size="10.00">ti/sysbios/hal/Hwi.h</text>
</a>
</g>
</g>
<!-- Node1&#45;&gt;Node13 -->
<g id="edge12" class="edge"><title>Node1&#45;&gt;Node13</title>
<path fill="none" stroke="midnightblue" d="M2846.43,-80.9332C2606.23,-78.5652 1769.64,-67.8047 1505.5,-31 1499.12,-30.1116 1492.43,-28.8227 1485.94,-27.3747"/>
<polygon fill="midnightblue" stroke="midnightblue" points="1486.52,-23.9141 1475.98,-25.0031 1484.9,-30.7238 1486.52,-23.9141"/>
</g>
<!-- Node14 -->
<g id="node14" class="node"><title>Node14</title>
<g id="a_node14"><a xlink:title=" ">
<polygon fill="white" stroke="#bfbfbf" points="1515,-6 1515,-25 1658,-25 1658,-6 1515,-6"/>
<text text-anchor="middle" x="1586.5" y="-13" font-family="Helvetica,sans-Serif" font-size="10.00">ti/sysbios/heaps/HeapMem.h</text>
</a>
</g>
</g>
<!-- Node1&#45;&gt;Node14 -->
<g id="edge13" class="edge"><title>Node1&#45;&gt;Node14</title>
<path fill="none" stroke="midnightblue" d="M2846.18,-81.9825C2660.89,-82.677 2116.31,-80.0489 1667.5,-31 1657.91,-29.9518 1647.74,-28.4474 1637.97,-26.8005"/>
<polygon fill="midnightblue" stroke="midnightblue" points="1638.42,-23.3267 1627.97,-25.0458 1637.21,-30.2214 1638.42,-23.3267"/>
</g>
<!-- Node15 -->
<g id="node15" class="node"><title>Node15</title>
<g id="a_node15"><a xlink:title=" ">
<polygon fill="white" stroke="#bfbfbf" points="1676.5,-6 1676.5,-25 1786.5,-25 1786.5,-6 1676.5,-6"/>
<text text-anchor="middle" x="1731.5" y="-13" font-family="Helvetica,sans-Serif" font-size="10.00">ti/sysbios/knl/Clock.h</text>
</a>
</g>
</g>
<!-- Node1&#45;&gt;Node15 -->
<g id="edge14" class="edge"><title>Node1&#45;&gt;Node15</title>
<path fill="none" stroke="midnightblue" d="M2846.4,-80.0739C2639.84,-75.3091 2000.68,-58.6626 1795.5,-31 1788.52,-30.0591 1781.18,-28.7272 1774.06,-27.248"/>
<polygon fill="midnightblue" stroke="midnightblue" points="1774.37,-23.7331 1763.86,-25.0038 1772.87,-30.5698 1774.37,-23.7331"/>
</g>
<!-- Node16 -->
<g id="node16" class="node"><title>Node16</title>
<g id="a_node16"><a xlink:title=" ">
<polygon fill="white" stroke="#bfbfbf" points="1804.5,-6 1804.5,-25 1914.5,-25 1914.5,-6 1804.5,-6"/>
<text text-anchor="middle" x="1859.5" y="-13" font-family="Helvetica,sans-Serif" font-size="10.00">ti/sysbios/knl/Event.h</text>
</a>
</g>
</g>
<!-- Node1&#45;&gt;Node16 -->
<g id="edge15" class="edge"><title>Node1&#45;&gt;Node16</title>
<path fill="none" stroke="midnightblue" d="M2846.4,-82.0226C2687.77,-82.4613 2268.89,-78.5941 1923.5,-31 1916.6,-30.0491 1909.34,-28.7254 1902.3,-27.2611"/>
<polygon fill="midnightblue" stroke="midnightblue" points="1902.71,-23.7676 1892.19,-25.0423 1901.21,-30.6048 1902.71,-23.7676"/>
</g>
<!-- Node17 -->
<g id="node17" class="node"><title>Node17</title>
<g id="a_node17"><a xlink:title=" ">
<polygon fill="white" stroke="#bfbfbf" points="1933,-6 1933,-25 2034,-25 2034,-6 1933,-6"/>
<text text-anchor="middle" x="1983.5" y="-13" font-family="Helvetica,sans-Serif" font-size="10.00">ti/sysbios/knl/Idle.h</text>
</a>
</g>
</g>
<!-- Node1&#45;&gt;Node17 -->
<g id="edge16" class="edge"><title>Node1&#45;&gt;Node17</title>
<path fill="none" stroke="midnightblue" d="M2846.49,-81.7684C2701.39,-81.4854 2340.44,-75.8819 2042.5,-31 2036.27,-30.0617 2029.74,-28.7721 2023.38,-27.3462"/>
<polygon fill="midnightblue" stroke="midnightblue" points="2024.14,-23.9301 2013.61,-25.0241 2022.53,-30.7406 2024.14,-23.9301"/>
</g>
<!-- Node18 -->
<g id="node18" class="node"><title>Node18</title>
<g id="a_node18"><a xlink:title=" ">
<polygon fill="white" stroke="#bfbfbf" points="2052,-6 2052,-25 2177,-25 2177,-6 2052,-6"/>
<text text-anchor="middle" x="2114.5" y="-13" font-family="Helvetica,sans-Serif" font-size="10.00">ti/sysbios/knl/Intrinsics.h</text>
</a>
</g>
</g>
<!-- Node1&#45;&gt;Node18 -->
<g id="edge17" class="edge"><title>Node1&#45;&gt;Node18</title>
<path fill="none" stroke="midnightblue" d="M2846.22,-79.778C2718.85,-75.7945 2428.45,-63.6507 2186.5,-31 2178.59,-29.9329 2170.25,-28.521 2162.15,-26.9968"/>
<polygon fill="midnightblue" stroke="midnightblue" points="2162.57,-23.5123 2152.09,-25.0234 2161.23,-30.3816 2162.57,-23.5123"/>
</g>
<!-- Node19 -->
<g id="node19" class="node"><title>Node19</title>
<g id="a_node19"><a xlink:title=" ">
<polygon fill="white" stroke="#bfbfbf" points="2195.5,-6 2195.5,-25 2309.5,-25 2309.5,-6 2195.5,-6"/>
<text text-anchor="middle" x="2252.5" y="-13" font-family="Helvetica,sans-Serif" font-size="10.00">ti/sysbios/knl/Queue.h</text>
</a>
</g>
</g>
<!-- Node1&#45;&gt;Node19 -->
<g id="edge18" class="edge"><title>Node1&#45;&gt;Node19</title>
<path fill="none" stroke="midnightblue" d="M2846.24,-78.7477C2736.67,-73.5007 2509.02,-59.9125 2318.5,-31 2311.64,-29.9593 2304.43,-28.6258 2297.4,-27.1904"/>
<polygon fill="midnightblue" stroke="midnightblue" points="2297.79,-23.6952 2287.28,-25.0365 2296.33,-30.5418 2297.79,-23.6952"/>
</g>
<!-- Node20 -->
<g id="node20" class="node"><title>Node20</title>
<g id="a_node20"><a xlink:title=" ">
<polygon fill="white" stroke="#bfbfbf" points="2328,-6 2328,-25 2463,-25 2463,-6 2328,-6"/>
<text text-anchor="middle" x="2395.5" y="-13" font-family="Helvetica,sans-Serif" font-size="10.00">ti/sysbios/knl/Semaphore.h</text>
</a>
</g>
</g>
<!-- Node1&#45;&gt;Node20 -->
<g id="edge19" class="edge"><title>Node1&#45;&gt;Node20</title>
<path fill="none" stroke="midnightblue" d="M2846.44,-75.557C2760.39,-67.3487 2604.14,-51.2361 2471.5,-31 2463.66,-29.8035 2455.39,-28.3872 2447.31,-26.9164"/>
<polygon fill="midnightblue" stroke="midnightblue" points="2447.69,-23.4274 2437.22,-25.0365 2446.41,-30.3089 2447.69,-23.4274"/>
</g>
<!-- Node21 -->
<g id="node21" class="node"><title>Node21</title>
<g id="a_node21"><a xlink:title=" ">
<polygon fill="white" stroke="#bfbfbf" points="2481,-6 2481,-25 2588,-25 2588,-6 2481,-6"/>
<text text-anchor="middle" x="2534.5" y="-13" font-family="Helvetica,sans-Serif" font-size="10.00">ti/sysbios/knl/Task.h</text>
</a>
</g>
</g>
<!-- Node1&#45;&gt;Node21 -->
<g id="edge20" class="edge"><title>Node1&#45;&gt;Node21</title>
<path fill="none" stroke="midnightblue" d="M2846.41,-72.4384C2782.54,-63.2246 2682.5,-47.9276 2596.5,-31 2590.8,-29.8785 2584.83,-28.6067 2578.94,-27.2935"/>
<polygon fill="midnightblue" stroke="midnightblue" points="2579.69,-23.8751 2569.17,-25.0637 2578.14,-30.6998 2579.69,-23.8751"/>
</g>
<!-- Node22 -->
<g id="node22" class="node"><title>Node22</title>
<g id="a_node22"><a xlink:title=" ">
<polygon fill="white" stroke="#bfbfbf" points="2606,-0.5 2606,-30.5 2719,-30.5 2719,-0.5 2606,-0.5"/>
<text text-anchor="start" x="2614" y="-18.5" font-family="Helvetica,sans-Serif" font-size="10.00">ti/sysbios/rts/ti/Thread</text>
<text text-anchor="middle" x="2662.5" y="-7.5" font-family="Helvetica,sans-Serif" font-size="10.00">LocalStorage.h</text>
</a>
</g>
</g>
<!-- Node1&#45;&gt;Node22 -->
<g id="edge21" class="edge"><title>Node1&#45;&gt;Node22</title>
<path fill="none" stroke="midnightblue" d="M2857.78,-67.476C2819.21,-57.4084 2767.08,-43.7989 2726.38,-33.1744"/>
<polygon fill="midnightblue" stroke="midnightblue" points="2727.12,-29.7503 2716.56,-30.6109 2725.35,-36.5233 2727.12,-29.7503"/>
</g>
<!-- Node23 -->
<g id="node23" class="node"><title>Node23</title>
<g id="a_node23"><a xlink:title=" ">
<polygon fill="white" stroke="#bfbfbf" points="2737.5,-0.5 2737.5,-30.5 2837.5,-30.5 2837.5,-0.5 2737.5,-0.5"/>
<text text-anchor="start" x="2745.5" y="-18.5" font-family="Helvetica,sans-Serif" font-size="10.00">ti/sysbios/timers/rti</text>
<text text-anchor="middle" x="2787.5" y="-7.5" font-family="Helvetica,sans-Serif" font-size="10.00">/Timer.h</text>
</a>
</g>
</g>
<!-- Node1&#45;&gt;Node23 -->
<g id="edge22" class="edge"><title>Node1&#45;&gt;Node23</title>
<path fill="none" stroke="midnightblue" d="M2884.59,-67.396C2866.64,-57.9839 2842.83,-45.5026 2823.28,-35.2557"/>
<polygon fill="midnightblue" stroke="midnightblue" points="2824.84,-32.1194 2814.35,-30.5765 2821.59,-38.3192 2824.84,-32.1194"/>
</g>
<!-- Node24 -->
<g id="node24" class="node"><title>Node24</title>
<g id="a_node24"><a xlink:title=" ">
<polygon fill="white" stroke="#bfbfbf" points="2855.5,-6 2855.5,-25 2967.5,-25 2967.5,-6 2855.5,-6"/>
<text text-anchor="middle" x="2911.5" y="-13" font-family="Helvetica,sans-Serif" font-size="10.00">ti/sysbios/utils/Load.h</text>
</a>
</g>
</g>
<!-- Node1&#45;&gt;Node24 -->
<g id="edge23" class="edge"><title>Node1&#45;&gt;Node24</title>
<path fill="none" stroke="midnightblue" d="M2911.5,-67.396C2911.5,-58.0638 2911.5,-45.7143 2911.5,-35.5173"/>
<polygon fill="midnightblue" stroke="midnightblue" points="2915,-35.1945 2911.5,-25.1945 2908,-35.1946 2915,-35.1945"/>
</g>
<!-- Node25 -->
<g id="node25" class="node"><title>Node25</title>
<g id="a_node25"><a xlink:title=" ">
<polygon fill="white" stroke="#bfbfbf" points="2986,-6 2986,-25 3093,-25 3093,-6 2986,-6"/>
<text text-anchor="middle" x="3039.5" y="-13" font-family="Helvetica,sans-Serif" font-size="10.00">xdc/runtime/Assert.h</text>
</a>
</g>
</g>
<!-- Node1&#45;&gt;Node25 -->
<g id="edge24" class="edge"><title>Node1&#45;&gt;Node25</title>
<path fill="none" stroke="midnightblue" d="M2939.27,-67.396C2961.44,-56.1424 2992.24,-40.501 3013.83,-29.5375"/>
<polygon fill="midnightblue" stroke="midnightblue" points="3015.42,-32.6555 3022.75,-25.007 3012.25,-26.4141 3015.42,-32.6555"/>
</g>
<!-- Node26 -->
<g id="node26" class="node"><title>Node26</title>
<g id="a_node26"><a xlink:title=" ">
<polygon fill="white" stroke="#bfbfbf" points="3111,-6 3111,-25 3210,-25 3210,-6 3111,-6"/>
<text text-anchor="middle" x="3160.5" y="-13" font-family="Helvetica,sans-Serif" font-size="10.00">xdc/runtime/Core.h</text>
</a>
</g>
</g>
<!-- Node1&#45;&gt;Node26 -->
<g id="edge25" class="edge"><title>Node1&#45;&gt;Node26</title>
<path fill="none" stroke="midnightblue" d="M2965.22,-67.476C3011.02,-55.5214 3075.94,-38.5726 3118.14,-27.5578"/>
<polygon fill="midnightblue" stroke="midnightblue" points="3119.04,-30.9411 3127.83,-25.0287 3117.27,-24.168 3119.04,-30.9411"/>
</g>
<!-- Node27 -->
<g id="node27" class="node"><title>Node27</title>
<g id="a_node27"><a xlink:title=" ">
<polygon fill="white" stroke="#bfbfbf" points="3228.5,-6 3228.5,-25 3342.5,-25 3342.5,-6 3228.5,-6"/>
<text text-anchor="middle" x="3285.5" y="-13" font-family="Helvetica,sans-Serif" font-size="10.00">xdc/runtime/Defaults.h</text>
</a>
</g>
</g>
<!-- Node1&#45;&gt;Node27 -->
<g id="edge26" class="edge"><title>Node1&#45;&gt;Node27</title>
<path fill="none" stroke="midnightblue" d="M2976.57,-71.8697C3039.04,-62.3808 3135.95,-47.0156 3219.5,-31 3225.62,-29.826 3232.05,-28.5144 3238.39,-27.1729"/>
<polygon fill="midnightblue" stroke="midnightblue" points="3239.19,-30.5821 3248.22,-25.0558 3237.71,-23.7389 3239.19,-30.5821"/>
</g>
<!-- Node28 -->
<g id="node28" class="node"><title>Node28</title>
<g id="a_node28"><a xlink:title=" ">
<polygon fill="white" stroke="#bfbfbf" points="3360.5,-6 3360.5,-25 3464.5,-25 3464.5,-6 3360.5,-6"/>
<text text-anchor="middle" x="3412.5" y="-13" font-family="Helvetica,sans-Serif" font-size="10.00">xdc/runtime/Diags.h</text>
</a>
</g>
</g>
<!-- Node1&#45;&gt;Node28 -->
<g id="edge27" class="edge"><title>Node1&#45;&gt;Node28</title>
<path fill="none" stroke="midnightblue" d="M2976.71,-76.4597C3062.92,-69.2392 3219.35,-54.2052 3351.5,-31 3357.41,-29.9628 3363.6,-28.7005 3369.67,-27.3579"/>
<polygon fill="midnightblue" stroke="midnightblue" points="3370.76,-30.6989 3379.72,-25.0484 3369.2,-23.8767 3370.76,-30.6989"/>
</g>
<!-- Node29 -->
<g id="node29" class="node"><title>Node29</title>
<g id="a_node29"><a xlink:title=" ">
<polygon fill="white" stroke="#bfbfbf" points="3482.5,-6 3482.5,-25 3582.5,-25 3582.5,-6 3482.5,-6"/>
<text text-anchor="middle" x="3532.5" y="-13" font-family="Helvetica,sans-Serif" font-size="10.00">xdc/runtime/Error.h</text>
</a>
</g>
</g>
<!-- Node1&#45;&gt;Node29 -->
<g id="edge28" class="edge"><title>Node1&#45;&gt;Node29</title>
<path fill="none" stroke="midnightblue" d="M2976.81,-78.8424C3082.01,-73.8435 3295.22,-60.7409 3473.5,-31 3479.37,-30.0215 3485.51,-28.7708 3491.52,-27.4153"/>
<polygon fill="midnightblue" stroke="midnightblue" points="3492.53,-30.7745 3501.45,-25.0645 3490.91,-23.9628 3492.53,-30.7745"/>
</g>
<!-- Node30 -->
<g id="node30" class="node"><title>Node30</title>
<g id="a_node30"><a xlink:title=" ">
<polygon fill="white" stroke="#bfbfbf" points="3600.5,-6 3600.5,-25 3700.5,-25 3700.5,-6 3600.5,-6"/>
<text text-anchor="middle" x="3650.5" y="-13" font-family="Helvetica,sans-Serif" font-size="10.00">xdc/runtime/Gate.h</text>
</a>
</g>
</g>
<!-- Node1&#45;&gt;Node30 -->
<g id="edge29" class="edge"><title>Node1&#45;&gt;Node30</title>
<path fill="none" stroke="midnightblue" d="M2976.61,-80.2722C3098.17,-77.1827 3367.61,-66.5706 3591.5,-31 3597.51,-30.0458 3603.8,-28.7859 3609.95,-27.4064"/>
<polygon fill="midnightblue" stroke="midnightblue" points="3611.15,-30.7174 3620.08,-25.0048 3609.54,-23.9063 3611.15,-30.7174"/>
</g>
<!-- Node31 -->
<g id="node31" class="node"><title>Node31</title>
<g id="a_node31"><a xlink:title=" ">
<polygon fill="white" stroke="#bfbfbf" points="3719,-6 3719,-25 3814,-25 3814,-6 3719,-6"/>
<text text-anchor="middle" x="3766.5" y="-13" font-family="Helvetica,sans-Serif" font-size="10.00">xdc/runtime/Log.h</text>
</a>
</g>
</g>
<!-- Node1&#45;&gt;Node31 -->
<g id="edge30" class="edge"><title>Node1&#45;&gt;Node31</title>
<path fill="none" stroke="midnightblue" d="M2976.59,-81.4627C3113.25,-80.4908 3439.7,-73.4757 3709.5,-31 3715.38,-30.0743 3721.54,-28.8182 3727.54,-27.4303"/>
<polygon fill="midnightblue" stroke="midnightblue" points="3728.55,-30.7874 3737.43,-25.0051 3726.88,-23.9891 3728.55,-30.7874"/>
</g>
<!-- Node32 -->
<g id="node32" class="node"><title>Node32</title>
<g id="a_node32"><a xlink:title=" ">
<polygon fill="white" stroke="#bfbfbf" points="3832.5,-6 3832.5,-25 3932.5,-25 3932.5,-6 3832.5,-6"/>
<text text-anchor="middle" x="3882.5" y="-13" font-family="Helvetica,sans-Serif" font-size="10.00">xdc/runtime/Main.h</text>
</a>
</g>
</g>
<!-- Node1&#45;&gt;Node32 -->
<g id="edge31" class="edge"><title>Node1&#45;&gt;Node32</title>
<path fill="none" stroke="midnightblue" d="M2976.61,-82.0249C3126.77,-82.3373 3508.65,-77.9904 3823.5,-31 3829.73,-30.0702 3836.26,-28.7851 3842.62,-27.3612"/>
<polygon fill="midnightblue" stroke="midnightblue" points="3843.48,-30.7557 3852.4,-25.0402 3841.86,-23.9451 3843.48,-30.7557"/>
</g>
<!-- Node33 -->
<g id="node33" class="node"><title>Node33</title>
<g id="a_node33"><a xlink:title=" ">
<polygon fill="white" stroke="#bfbfbf" points="3950.5,-6 3950.5,-25 4064.5,-25 4064.5,-6 3950.5,-6"/>
<text text-anchor="middle" x="4007.5" y="-13" font-family="Helvetica,sans-Serif" font-size="10.00">xdc/runtime/Memory.h</text>
</a>
</g>
</g>
<!-- Node1&#45;&gt;Node33 -->
<g id="edge32" class="edge"><title>Node1&#45;&gt;Node33</title>
<path fill="none" stroke="midnightblue" d="M2976.62,-82.0726C3139.83,-82.6928 3579.26,-79.3265 3941.5,-31 3948.78,-30.0294 3956.44,-28.6673 3963.86,-27.1628"/>
<polygon fill="midnightblue" stroke="midnightblue" points="3964.73,-30.5564 3973.78,-25.0466 3963.27,-23.7105 3964.73,-30.5564"/>
</g>
<!-- Node34 -->
<g id="node34" class="node"><title>Node34</title>
<g id="a_node34"><a xlink:title=" ">
<polygon fill="white" stroke="#bfbfbf" points="4083,-6 4083,-25 4198,-25 4198,-6 4083,-6"/>
<text text-anchor="middle" x="4140.5" y="-13" font-family="Helvetica,sans-Serif" font-size="10.00">xdc/runtime/Registry.h</text>
</a>
</g>
</g>
<!-- Node1&#45;&gt;Node34 -->
<g id="edge33" class="edge"><title>Node1&#45;&gt;Node34</title>
<path fill="none" stroke="midnightblue" d="M2976.65,-80.125C3188.85,-75.4171 3858.84,-58.6892 4073.5,-31 4081.05,-30.0261 4089.01,-28.6335 4096.71,-27.0923"/>
<polygon fill="midnightblue" stroke="midnightblue" points="4097.55,-30.4918 4106.61,-25.0034 4096.1,-23.6425 4097.55,-30.4918"/>
</g>
<!-- Node35 -->
<g id="node35" class="node"><title>Node35</title>
<g id="a_node35"><a xlink:title=" ">
<polygon fill="white" stroke="#bfbfbf" points="4216.5,-6 4216.5,-25 4326.5,-25 4326.5,-6 4216.5,-6"/>
<text text-anchor="middle" x="4271.5" y="-13" font-family="Helvetica,sans-Serif" font-size="10.00">xdc/runtime/Startup.h</text>
</a>
</g>
</g>
<!-- Node1&#45;&gt;Node35 -->
<g id="edge34" class="edge"><title>Node1&#45;&gt;Node35</title>
<path fill="none" stroke="midnightblue" d="M2976.89,-80.5423C3205.13,-76.9507 3965.7,-62.8275 4207.5,-31 4214.48,-30.081 4221.82,-28.7604 4228.94,-27.2858"/>
<polygon fill="midnightblue" stroke="midnightblue" points="4230.13,-30.6079 4239.15,-25.0439 4228.63,-23.7709 4230.13,-30.6079"/>
</g>
<!-- Node36 -->
<g id="node36" class="node"><title>Node36</title>
<g id="a_node36"><a xlink:title=" ">
<polygon fill="white" stroke="#bfbfbf" points="4345,-6 4345,-25 4456,-25 4456,-6 4345,-6"/>
<text text-anchor="middle" x="4400.5" y="-13" font-family="Helvetica,sans-Serif" font-size="10.00">xdc/runtime/SysStd.h</text>
</a>
</g>
</g>
<!-- Node1&#45;&gt;Node36 -->
<g id="edge35" class="edge"><title>Node1&#45;&gt;Node36</title>
<path fill="none" stroke="midnightblue" d="M2976.54,-80.7832C3218.63,-77.8681 4067.28,-65.3754 4335.5,-31 4342.75,-30.0704 4350.39,-28.715 4357.78,-27.2009"/>
<polygon fill="midnightblue" stroke="midnightblue" points="4358.61,-30.6024 4367.64,-25.0631 4357.13,-23.7613 4358.61,-30.6024"/>
</g>
<!-- Node37 -->
<g id="node37" class="node"><title>Node37</title>
<g id="a_node37"><a xlink:title=" ">
<polygon fill="white" stroke="#bfbfbf" points="4474,-6 4474,-25 4587,-25 4587,-6 4474,-6"/>
<text text-anchor="middle" x="4530.5" y="-13" font-family="Helvetica,sans-Serif" font-size="10.00">xdc/runtime/System.h</text>
</a>
</g>
</g>
<!-- Node1&#45;&gt;Node37 -->
<g id="edge36" class="edge"><title>Node1&#45;&gt;Node37</title>
<path fill="none" stroke="midnightblue" d="M2976.7,-81.0058C3232.85,-78.8126 4170.59,-68.3517 4465.5,-31 4472.83,-30.0711 4480.56,-28.7017 4488.02,-27.1699"/>
<polygon fill="midnightblue" stroke="midnightblue" points="4488.95,-30.5505 4497.98,-25.0063 4487.46,-23.7102 4488.95,-30.5505"/>
</g>
<!-- Node38 -->
<g id="node38" class="node"><title>Node38</title>
<g id="a_node38"><a xlink:title=" ">
<polygon fill="white" stroke="#bfbfbf" points="4605.5,-6 4605.5,-25 4703.5,-25 4703.5,-6 4605.5,-6"/>
<text text-anchor="middle" x="4654.5" y="-13" font-family="Helvetica,sans-Serif" font-size="10.00">xdc/runtime/Text.h</text>
</a>
</g>
</g>
<!-- Node1&#45;&gt;Node38 -->
<g id="edge37" class="edge"><title>Node1&#45;&gt;Node38</title>
<path fill="none" stroke="midnightblue" d="M2976.65,-81.4179C3246.2,-80.7898 4275.07,-75.4678 4596.5,-31 4602.77,-30.1319 4609.35,-28.8536 4615.74,-27.41"/>
<polygon fill="midnightblue" stroke="midnightblue" points="4616.63,-30.7939 4625.53,-25.0407 4614.99,-23.9901 4616.63,-30.7939"/>
</g>
<!-- Node39 -->
<g id="node39" class="node"><title>Node39</title>
<g id="a_node39"><a xlink:title=" ">
<polygon fill="white" stroke="#bfbfbf" points="4722,-6 4722,-25 4849,-25 4849,-6 4722,-6"/>
<text text-anchor="middle" x="4785.5" y="-13" font-family="Helvetica,sans-Serif" font-size="10.00">xdc/runtime/Timestamp.h</text>
</a>
</g>
</g>
<!-- Node1&#45;&gt;Node39 -->
<g id="edge38" class="edge"><title>Node1&#45;&gt;Node39</title>
<path fill="none" stroke="midnightblue" d="M2976.76,-81.1401C3257.78,-79.3637 4366.11,-69.9777 4712.5,-31 4721.08,-30.0342 4730.16,-28.5842 4738.89,-26.9687"/>
<polygon fill="midnightblue" stroke="midnightblue" points="4739.78,-30.3613 4748.93,-25.0152 4738.44,-23.4903 4739.78,-30.3613"/>
</g>
<!-- Node40 -->
<g id="node40" class="node"><title>Node40</title>
<g id="a_node40"><a xlink:title=" ">
<polygon fill="white" stroke="#bfbfbf" points="4867,-6 4867,-25 5010,-25 5010,-6 4867,-6"/>
<text text-anchor="middle" x="4938.5" y="-13" font-family="Helvetica,sans-Serif" font-size="10.00">xdc/runtime/TimestampNull.h</text>
</a>
</g>
</g>
<!-- Node1&#45;&gt;Node40 -->
<g id="edge39" class="edge"><title>Node1&#45;&gt;Node40</title>
<path fill="none" stroke="midnightblue" d="M2976.51,-81.1545C3270.95,-79.3839 4481.36,-69.8375 4858.5,-31 4868.19,-30.002 4878.47,-28.488 4888.32,-26.8089"/>
<polygon fill="midnightblue" stroke="midnightblue" points="4889.15,-30.2156 4898.38,-25.014 4887.93,-23.3244 4889.15,-30.2156"/>
</g>
<!-- Node41 -->
<g id="node41" class="node"><title>Node41</title>
<g id="a_node41"><a xlink:title=" ">
<polygon fill="white" stroke="#bfbfbf" points="5028.5,-6 5028.5,-25 5076.5,-25 5076.5,-6 5028.5,-6"/>
<text text-anchor="middle" x="5052.5" y="-13" font-family="Helvetica,sans-Serif" font-size="10.00">limits.h</text>
</a>
</g>
</g>
<!-- Node1&#45;&gt;Node41 -->
<g id="edge40" class="edge"><title>Node1&#45;&gt;Node41</title>
<path fill="none" stroke="midnightblue" d="M2976.51,-81.4434C3309.48,-80.9522 4816.27,-76.2286 5019.5,-31 5022.01,-30.441 5024.57,-29.6873 5027.09,-28.8161"/>
<polygon fill="midnightblue" stroke="midnightblue" points="5028.51,-32.0178 5036.48,-25.0356 5025.89,-25.5245 5028.51,-32.0178"/>
</g>
<!-- Node42 -->
<g id="node42" class="node"><title>Node42</title>
<g id="a_node42"><a xlink:title=" ">
<polygon fill="white" stroke="#bfbfbf" points="5095,-6 5095,-25 5200,-25 5200,-6 5095,-6"/>
<text text-anchor="middle" x="5147.5" y="-13" font-family="Helvetica,sans-Serif" font-size="10.00">xdc/runtime/Types.h</text>
</a>
</g>
</g>
<!-- Node1&#45;&gt;Node42 -->
<g id="edge41" class="edge"><title>Node1&#45;&gt;Node42</title>
<path fill="none" stroke="midnightblue" d="M2976.63,-81.7991C3291.99,-82.9706 4662.3,-84.8155 5085.5,-31 5092.35,-30.1287 5099.55,-28.8189 5106.52,-27.3365"/>
<polygon fill="midnightblue" stroke="midnightblue" points="5107.53,-30.6978 5116.51,-25.0722 5105.98,-23.8713 5107.53,-30.6978"/>
</g>
<!-- Node43 -->
<g id="node43" class="node"><title>Node43</title>
<g id="a_node43"><a xlink:title=" ">
<polygon fill="white" stroke="#bfbfbf" points="5218.5,-0.5 5218.5,-30.5 5322.5,-30.5 5322.5,-0.5 5218.5,-0.5"/>
<text text-anchor="start" x="5226.5" y="-18.5" font-family="Helvetica,sans-Serif" font-size="10.00">xdc/runtime/System</text>
<text text-anchor="middle" x="5270.5" y="-7.5" font-family="Helvetica,sans-Serif" font-size="10.00">__internal.h</text>
</a>
</g>
</g>
<!-- Node1&#45;&gt;Node43 -->
<g id="edge42" class="edge"><title>Node1&#45;&gt;Node43</title>
<path fill="none" stroke="midnightblue" d="M2976.66,-80.8902C3322.78,-77.5424 4939.78,-60.5068 5208.35,-30.8473"/>
<polygon fill="midnightblue" stroke="midnightblue" points="5208.87,-34.3102 5218.39,-29.6518 5208.05,-27.3593 5208.87,-34.3102"/>
</g>
<!-- Node44 -->
<g id="node44" class="node"><title>Node44</title>
<g id="a_node44"><a xlink:title=" ">
<polygon fill="white" stroke="#bfbfbf" points="5340.5,-6 5340.5,-25 5388.5,-25 5388.5,-6 5340.5,-6"/>
<text text-anchor="middle" x="5364.5" y="-13" font-family="Helvetica,sans-Serif" font-size="10.00">_lock.h</text>
</a>
</g>
</g>
<!-- Node1&#45;&gt;Node44 -->
<g id="edge43" class="edge"><title>Node1&#45;&gt;Node44</title>
<path fill="none" stroke="midnightblue" d="M2976.65,-81.6612C3338.8,-82.3546 5096.13,-82.9981 5331.5,-31 5334.01,-30.4448 5336.57,-29.6938 5339.09,-28.8243"/>
<polygon fill="midnightblue" stroke="midnightblue" points="5340.51,-32.0265 5348.48,-25.0463 5337.9,-25.5326 5340.51,-32.0265"/>
</g>
<!-- Node45 -->
<g id="node45" class="node"><title>Node45</title>
<g id="a_node45"><a xlink:title=" ">
<polygon fill="white" stroke="#bfbfbf" points="5406.5,-6 5406.5,-25 5512.5,-25 5512.5,-6 5406.5,-6"/>
<text text-anchor="middle" x="5459.5" y="-13" font-family="Helvetica,sans-Serif" font-size="10.00">ti/sysbios/hal/Core.h</text>
</a>
</g>
</g>
<!-- Node1&#45;&gt;Node45 -->
<g id="edge44" class="edge"><title>Node1&#45;&gt;Node45</title>
<path fill="none" stroke="midnightblue" d="M2976.79,-80.9913C3344.73,-78.0154 5151.49,-61.9196 5397.5,-31 5404.43,-30.1294 5411.71,-28.8058 5418.75,-27.3058"/>
<polygon fill="midnightblue" stroke="midnightblue" points="5419.85,-30.6452 5428.82,-25.014 5418.3,-23.8196 5419.85,-30.6452"/>
</g>
<!-- Node46 -->
<g id="node46" class="node"><title>Node46</title>
<g id="a_node46"><a xlink:title=" ">
<polygon fill="white" stroke="#bfbfbf" points="5531,-6 5531,-25 5580,-25 5580,-6 5531,-6"/>
<text text-anchor="middle" x="5555.5" y="-13" font-family="Helvetica,sans-Serif" font-size="10.00">string.h</text>
</a>
</g>
</g>
<!-- Node1&#45;&gt;Node46 -->
<g id="edge45" class="edge"><title>Node1&#45;&gt;Node46</title>
<path fill="none" stroke="midnightblue" d="M2976.74,-81.7274C3355.73,-82.8505 5266.21,-85.7414 5521.5,-31 5524.17,-30.4269 5526.9,-29.6431 5529.58,-28.7346"/>
<polygon fill="midnightblue" stroke="midnightblue" points="5530.94,-31.9616 5538.97,-25.0514 5528.38,-25.445 5530.94,-31.9616"/>
</g>
</g>
</svg>
