<?xml version="1.0" encoding="UTF-8" standalone="no"?>
<!DOCTYPE svg PUBLIC "-//W3C//DTD SVG 1.1//EN"
 "http://www.w3.org/Graphics/SVG/1.1/DTD/svg11.dtd">
<!-- Generated by graphviz version 2.38.0 (20140413.2041)
 -->
<!-- Title: MmwDemo_processChirp Pages: 1 -->
<svg width="481pt" height="104pt"
 viewBox="0.00 0.00 481.00 104.00" xmlns="http://www.w3.org/2000/svg" xmlns:xlink="http://www.w3.org/1999/xlink">
<g id="graph0" class="graph" transform="scale(1 1) rotate(0) translate(4 100)">
<title>MmwDemo_processChirp</title>
<polygon fill="white" stroke="none" points="-4,4 -4,-100 477,-100 477,4 -4,4"/>
<!-- Node1 -->
<g id="node1" class="node"><title>Node1</title>
<g id="a_node1"><a xlink:title=" ">
<polygon fill="#bfbfbf" stroke="black" points="0,-38.5 0,-57.5 128,-57.5 128,-38.5 0,-38.5"/>
<text text-anchor="middle" x="64" y="-45.5" font-family="Helvetica,sans-Serif" font-size="10.00">MmwDemo_processChirp</text>
</a>
</g>
</g>
<!-- Node2 -->
<g id="node2" class="node"><title>Node2</title>
<g id="a_node2"><a xlink:href="dss__config__edma__util_8c.html#a1c927064bc77548e24ad97b91df3186a" target="_top" xlink:title=" ">
<polygon fill="white" stroke="black" points="201.5,-76.5 201.5,-95.5 317.5,-95.5 317.5,-76.5 201.5,-76.5"/>
<text text-anchor="middle" x="259.5" y="-83.5" font-family="Helvetica,sans-Serif" font-size="10.00">EDMAutil_triggerType3</text>
</a>
</g>
</g>
<!-- Node1&#45;&gt;Node2 -->
<g id="edge1" class="edge"><title>Node1&#45;&gt;Node2</title>
<path fill="none" stroke="midnightblue" d="M113.828,-57.589C140.053,-62.739 172.562,-69.1232 200.116,-74.5344"/>
<polygon fill="midnightblue" stroke="midnightblue" points="199.536,-77.9873 210.023,-76.4799 200.885,-71.1185 199.536,-77.9873"/>
</g>
<!-- Node3 -->
<g id="node3" class="node"><title>Node3</title>
<g id="a_node3"><a xlink:href="dss__data__path_8c.html#a389046b256f4569a688b52829dadddea" target="_top" xlink:title=" ">
<polygon fill="white" stroke="black" points="164,-38.5 164,-57.5 355,-57.5 355,-38.5 164,-38.5"/>
<text text-anchor="middle" x="259.5" y="-45.5" font-family="Helvetica,sans-Serif" font-size="10.00">MmwDemo_dataPathWait1DOutputData</text>
</a>
</g>
</g>
<!-- Node1&#45;&gt;Node3 -->
<g id="edge2" class="edge"><title>Node1&#45;&gt;Node3</title>
<path fill="none" stroke="midnightblue" d="M128.091,-48C136.335,-48 144.952,-48 153.656,-48"/>
<polygon fill="midnightblue" stroke="midnightblue" points="153.898,-51.5001 163.898,-48 153.898,-44.5001 153.898,-51.5001"/>
</g>
<!-- Node5 -->
<g id="node5" class="node"><title>Node5</title>
<g id="a_node5"><a xlink:href="dss__data__path_8c.html#ad2bf4fb7d93ecb03741191edab7f8c27" target="_top" xlink:title=" ">
<polygon fill="white" stroke="black" points="179,-0.5 179,-19.5 340,-19.5 340,-0.5 179,-0.5"/>
<text text-anchor="middle" x="259.5" y="-7.5" font-family="Helvetica,sans-Serif" font-size="10.00">MmwDemo_interChirpProcessing</text>
</a>
</g>
</g>
<!-- Node1&#45;&gt;Node5 -->
<g id="edge4" class="edge"><title>Node1&#45;&gt;Node5</title>
<path fill="none" stroke="midnightblue" d="M113.828,-38.411C140.053,-33.261 172.562,-26.8768 200.116,-21.4656"/>
<polygon fill="midnightblue" stroke="midnightblue" points="200.885,-24.8815 210.023,-19.5201 199.536,-18.0127 200.885,-24.8815"/>
</g>
<!-- Node4 -->
<g id="node4" class="node"><title>Node4</title>
<g id="a_node4"><a xlink:href="dss__data__path_8c.html#ac270a89f3946ebec88056e23c48bc47c" target="_top" xlink:title=" ">
<polygon fill="white" stroke="black" points="391,-38.5 391,-57.5 473,-57.5 473,-38.5 391,-38.5"/>
<text text-anchor="middle" x="432" y="-45.5" font-family="Helvetica,sans-Serif" font-size="10.00">select_channel</text>
</a>
</g>
</g>
<!-- Node3&#45;&gt;Node4 -->
<g id="edge3" class="edge"><title>Node3&#45;&gt;Node4</title>
<path fill="none" stroke="midnightblue" d="M355.223,-48C364.062,-48 372.763,-48 380.94,-48"/>
<polygon fill="midnightblue" stroke="midnightblue" points="380.988,-51.5001 390.988,-48 380.988,-44.5001 380.988,-51.5001"/>
</g>
</g>
</svg>
