<?xml version="1.0" encoding="UTF-8" standalone="no"?>
<!DOCTYPE svg PUBLIC "-//W3C//DTD SVG 1.1//EN"
 "http://www.w3.org/Graphics/SVG/1.1/DTD/svg11.dtd">
<!-- Generated by graphviz version 2.38.0 (20140413.2041)
 -->
<!-- Title: dss_config_edma_util.c Pages: 1 -->
<svg width="297pt" height="140pt"
 viewBox="0.00 0.00 297.00 140.00" xmlns="http://www.w3.org/2000/svg" xmlns:xlink="http://www.w3.org/1999/xlink">
<g id="graph0" class="graph" transform="scale(1 1) rotate(0) translate(4 136)">
<title>dss_config_edma_util.c</title>
<polygon fill="white" stroke="none" points="-4,4 -4,-136 293,-136 293,4 -4,4"/>
<!-- Node1 -->
<g id="node1" class="node"><title>Node1</title>
<g id="a_node1"><a xlink:title="EDMA Configuration Utility API implementation.">
<polygon fill="#bfbfbf" stroke="black" points="82,-112.5 82,-131.5 201,-131.5 201,-112.5 82,-112.5"/>
<text text-anchor="middle" x="141.5" y="-119.5" font-family="Helvetica,sans-Serif" font-size="10.00">dss_config_edma_util.c</text>
</a>
</g>
</g>
<!-- Node2 -->
<g id="node2" class="node"><title>Node2</title>
<g id="a_node2"><a xlink:title=" ">
<polygon fill="white" stroke="#bfbfbf" points="0,-56.5 0,-75.5 113,-75.5 113,-56.5 0,-56.5"/>
<text text-anchor="middle" x="56.5" y="-63.5" font-family="Helvetica,sans-Serif" font-size="10.00">xdc/runtime/System.h</text>
</a>
</g>
</g>
<!-- Node1&#45;&gt;Node2 -->
<g id="edge1" class="edge"><title>Node1&#45;&gt;Node2</title>
<path fill="none" stroke="midnightblue" d="M127.843,-112.324C114.584,-103.9 94.232,-90.9709 78.6538,-81.0741"/>
<polygon fill="midnightblue" stroke="midnightblue" points="80.4404,-78.0626 70.1228,-75.6545 76.6867,-83.9711 80.4404,-78.0626"/>
</g>
<!-- Node3 -->
<g id="node3" class="node"><title>Node3</title>
<g id="a_node3"><a xlink:title=" ">
<polygon fill="white" stroke="#bfbfbf" points="128,-0.5 128,-19.5 243,-19.5 243,-0.5 128,-0.5"/>
<text text-anchor="middle" x="185.5" y="-7.5" font-family="Helvetica,sans-Serif" font-size="10.00">ti/drivers/edma/edma.h</text>
</a>
</g>
</g>
<!-- Node1&#45;&gt;Node3 -->
<g id="edge2" class="edge"><title>Node1&#45;&gt;Node3</title>
<path fill="none" stroke="midnightblue" d="M143.583,-112.403C146.766,-99.7856 153.337,-75.6221 161.5,-56 165.368,-46.7009 170.538,-36.7812 175.088,-28.6282"/>
<polygon fill="midnightblue" stroke="midnightblue" points="178.258,-30.1352 180.202,-19.7202 172.188,-26.65 178.258,-30.1352"/>
</g>
<!-- Node4 -->
<g id="node4" class="node"><title>Node4</title>
<g id="a_node4"><a xlink:href="dss__config__edma__util_8h.html" target="_top" xlink:title="EDMA Configuration Utility API definitions.">
<polygon fill="white" stroke="black" points="170,-56.5 170,-75.5 289,-75.5 289,-56.5 170,-56.5"/>
<text text-anchor="middle" x="229.5" y="-63.5" font-family="Helvetica,sans-Serif" font-size="10.00">dss_config_edma_util.h</text>
</a>
</g>
</g>
<!-- Node1&#45;&gt;Node4 -->
<g id="edge3" class="edge"><title>Node1&#45;&gt;Node4</title>
<path fill="none" stroke="midnightblue" d="M155.639,-112.324C169.366,-103.9 190.436,-90.9709 206.564,-81.0741"/>
<polygon fill="midnightblue" stroke="midnightblue" points="208.704,-83.8678 215.396,-75.6545 205.043,-77.9016 208.704,-83.8678"/>
</g>
<!-- Node4&#45;&gt;Node3 -->
<g id="edge4" class="edge"><title>Node4&#45;&gt;Node3</title>
<path fill="none" stroke="midnightblue" d="M222.234,-56.083C215.955,-48.3768 206.712,-37.0333 199.069,-27.6531"/>
<polygon fill="midnightblue" stroke="midnightblue" points="201.661,-25.2926 192.631,-19.7511 196.234,-29.7143 201.661,-25.2926"/>
</g>
</g>
</svg>
