<?xml version="1.0" encoding="UTF-8" standalone="no"?>
<!DOCTYPE svg PUBLIC "-//W3C//DTD SVG 1.1//EN"
 "http://www.w3.org/Graphics/SVG/1.1/DTD/svg11.dtd">
<!-- Generated by graphviz version 2.38.0 (20140413.2041)
 -->
<!-- Title: MmwDemo_dataPathConfigEdma Pages: 1 -->
<svg width="495pt" height="104pt"
 viewBox="0.00 0.00 495.00 104.00" xmlns="http://www.w3.org/2000/svg" xmlns:xlink="http://www.w3.org/1999/xlink">
<g id="graph0" class="graph" transform="scale(1 1) rotate(0) translate(4 100)">
<title>MmwDemo_dataPathConfigEdma</title>
<polygon fill="white" stroke="none" points="-4,4 -4,-100 491,-100 491,4 -4,4"/>
<!-- Node1 -->
<g id="node1" class="node"><title>Node1</title>
<g id="a_node1"><a xlink:title=" ">
<polygon fill="#bfbfbf" stroke="black" points="0,-38.5 0,-57.5 162,-57.5 162,-38.5 0,-38.5"/>
<text text-anchor="middle" x="81" y="-45.5" font-family="Helvetica,sans-Serif" font-size="10.00">MmwDemo_dataPathConfigEdma</text>
</a>
</g>
</g>
<!-- Node2 -->
<g id="node2" class="node"><title>Node2</title>
<g id="a_node2"><a xlink:href="dss__config__edma__util_8c.html#a150f2630da81f8aff78617b093f71a91" target="_top" xlink:title=" ">
<polygon fill="white" stroke="black" points="200.5,-76.5 200.5,-95.5 315.5,-95.5 315.5,-76.5 200.5,-76.5"/>
<text text-anchor="middle" x="258" y="-83.5" font-family="Helvetica,sans-Serif" font-size="10.00">EDMAutil_configType1</text>
</a>
</g>
</g>
<!-- Node1&#45;&gt;Node2 -->
<g id="edge1" class="edge"><title>Node1&#45;&gt;Node2</title>
<path fill="none" stroke="midnightblue" d="M126.16,-57.589C149.565,-62.6713 178.505,-68.9554 203.212,-74.3203"/>
<polygon fill="midnightblue" stroke="midnightblue" points="202.643,-77.7782 213.158,-76.4799 204.128,-70.9376 202.643,-77.7782"/>
</g>
<!-- Node4 -->
<g id="node4" class="node"><title>Node4</title>
<g id="a_node4"><a xlink:href="dss__config__edma__util_8c.html#ae85cd3acee5a1a6cafc9220e4bb76a51" target="_top" xlink:title=" ">
<polygon fill="white" stroke="black" points="198,-38.5 198,-57.5 318,-57.5 318,-38.5 198,-38.5"/>
<text text-anchor="middle" x="258" y="-45.5" font-family="Helvetica,sans-Serif" font-size="10.00">EDMAutil_configType2a</text>
</a>
</g>
</g>
<!-- Node1&#45;&gt;Node4 -->
<g id="edge3" class="edge"><title>Node1&#45;&gt;Node4</title>
<path fill="none" stroke="midnightblue" d="M162.074,-48C170.648,-48 179.317,-48 187.75,-48"/>
<polygon fill="midnightblue" stroke="midnightblue" points="187.897,-51.5001 197.897,-48 187.897,-44.5001 187.897,-51.5001"/>
</g>
<!-- Node5 -->
<g id="node5" class="node"><title>Node5</title>
<g id="a_node5"><a xlink:href="dss__config__edma__util_8c.html#a64366456ee6eb7aa4cd11cb71ace36c5" target="_top" xlink:title=" ">
<polygon fill="white" stroke="black" points="200.5,-0.5 200.5,-19.5 315.5,-19.5 315.5,-0.5 200.5,-0.5"/>
<text text-anchor="middle" x="258" y="-7.5" font-family="Helvetica,sans-Serif" font-size="10.00">EDMAutil_configType3</text>
</a>
</g>
</g>
<!-- Node1&#45;&gt;Node5 -->
<g id="edge5" class="edge"><title>Node1&#45;&gt;Node5</title>
<path fill="none" stroke="midnightblue" d="M126.16,-38.411C149.565,-33.3287 178.505,-27.0446 203.212,-21.6797"/>
<polygon fill="midnightblue" stroke="midnightblue" points="204.128,-25.0624 213.158,-19.5201 202.643,-18.2218 204.128,-25.0624"/>
</g>
<!-- Node3 -->
<g id="node3" class="node"><title>Node3</title>
<g id="a_node3"><a xlink:href="dss__config__edma__util_8c.html#a53794c0681c33b0edc0048f899640661" target="_top" xlink:title=" ">
<polygon fill="white" stroke="black" points="354,-38.5 354,-57.5 487,-57.5 487,-38.5 354,-38.5"/>
<text text-anchor="middle" x="420.5" y="-45.5" font-family="Helvetica,sans-Serif" font-size="10.00">EDMA_setup_shadow_link</text>
</a>
</g>
</g>
<!-- Node2&#45;&gt;Node3 -->
<g id="edge2" class="edge"><title>Node2&#45;&gt;Node3</title>
<path fill="none" stroke="midnightblue" d="M299.501,-76.411C320.681,-71.3965 346.802,-65.2119 369.26,-59.8947"/>
<polygon fill="midnightblue" stroke="midnightblue" points="370.366,-63.2299 379.29,-57.5201 368.753,-56.4182 370.366,-63.2299"/>
</g>
<!-- Node4&#45;&gt;Node3 -->
<g id="edge4" class="edge"><title>Node4&#45;&gt;Node3</title>
<path fill="none" stroke="midnightblue" d="M318.308,-48C326.652,-48 335.321,-48 343.917,-48"/>
<polygon fill="midnightblue" stroke="midnightblue" points="343.953,-51.5001 353.953,-48 343.953,-44.5001 343.953,-51.5001"/>
</g>
<!-- Node5&#45;&gt;Node3 -->
<g id="edge6" class="edge"><title>Node5&#45;&gt;Node3</title>
<path fill="none" stroke="midnightblue" d="M299.501,-19.589C320.681,-24.6035 346.802,-30.7881 369.26,-36.1053"/>
<polygon fill="midnightblue" stroke="midnightblue" points="368.753,-39.5818 379.29,-38.4799 370.366,-32.7701 368.753,-39.5818"/>
</g>
</g>
</svg>
