<?xml version="1.0" encoding="UTF-8" standalone="no"?>
<!DOCTYPE svg PUBLIC "-//W3C//DTD SVG 1.1//EN"
 "http://www.w3.org/Graphics/SVG/1.1/DTD/svg11.dtd">
<!-- Generated by graphviz version 2.38.0 (20140413.2041)
 -->
<!-- Title: dss_data_path.c Pages: 1 -->
<svg width="3537pt" height="285pt"
 viewBox="0.00 0.00 3537.00 285.00" xmlns="http://www.w3.org/2000/svg" xmlns:xlink="http://www.w3.org/1999/xlink">
<g id="graph0" class="graph" transform="scale(1 1) rotate(0) translate(4 281)">
<title>dss_data_path.c</title>
<polygon fill="white" stroke="none" points="-4,4 -4,-281 3533,-281 3533,4 -4,4"/>
<!-- Node1 -->
<g id="node1" class="node"><title>Node1</title>
<g id="a_node1"><a xlink:title="Implements Data path processing functionality.">
<polygon fill="#bfbfbf" stroke="black" points="1475,-257.5 1475,-276.5 1564,-276.5 1564,-257.5 1475,-257.5"/>
<text text-anchor="middle" x="1519.5" y="-264.5" font-family="Helvetica,sans-Serif" font-size="10.00">dss_data_path.c</text>
</a>
</g>
</g>
<!-- Node2 -->
<g id="node2" class="node"><title>Node2</title>
<g id="a_node2"><a xlink:title=" ">
<polygon fill="white" stroke="#bfbfbf" points="0,-196 0,-215 49,-215 49,-196 0,-196"/>
<text text-anchor="middle" x="24.5" y="-203" font-family="Helvetica,sans-Serif" font-size="10.00">stdint.h</text>
</a>
</g>
</g>
<!-- Node1&#45;&gt;Node2 -->
<g id="edge1" class="edge"><title>Node1&#45;&gt;Node2</title>
<path fill="none" stroke="midnightblue" d="M1474.83,-265.61C1244.84,-263.468 199.524,-252.085 58.5,-221 55.8308,-220.412 53.1085,-219.618 50.4248,-218.703"/>
<polygon fill="midnightblue" stroke="midnightblue" points="51.6245,-215.414 41.0373,-215.011 49.0625,-221.928 51.6245,-215.414"/>
</g>
<!-- Node3 -->
<g id="node3" class="node"><title>Node3</title>
<g id="a_node3"><a xlink:title=" ">
<polygon fill="white" stroke="#bfbfbf" points="67.5,-196 67.5,-215 115.5,-215 115.5,-196 67.5,-196"/>
<text text-anchor="middle" x="91.5" y="-203" font-family="Helvetica,sans-Serif" font-size="10.00">stdlib.h</text>
</a>
</g>
</g>
<!-- Node1&#45;&gt;Node3 -->
<g id="edge2" class="edge"><title>Node1&#45;&gt;Node3</title>
<path fill="none" stroke="midnightblue" d="M1474.64,-265.566C1250.64,-263.263 258.53,-251.412 124.5,-221 121.99,-220.431 119.435,-219.67 116.914,-218.794"/>
<polygon fill="midnightblue" stroke="midnightblue" points="118.111,-215.503 107.528,-215.007 115.492,-221.994 118.111,-215.503"/>
</g>
<!-- Node4 -->
<g id="node4" class="node"><title>Node4</title>
<g id="a_node4"><a xlink:title=" ">
<polygon fill="white" stroke="#bfbfbf" points="134,-196 134,-215 185,-215 185,-196 134,-196"/>
<text text-anchor="middle" x="159.5" y="-203" font-family="Helvetica,sans-Serif" font-size="10.00">stddef.h</text>
</a>
</g>
</g>
<!-- Node1&#45;&gt;Node4 -->
<g id="edge3" class="edge"><title>Node1&#45;&gt;Node4</title>
<path fill="none" stroke="midnightblue" d="M1474.77,-265.43C1257.97,-262.54 321.666,-248.551 194.5,-221 191.82,-220.419 189.085,-219.643 186.384,-218.751"/>
<polygon fill="midnightblue" stroke="midnightblue" points="187.498,-215.43 176.907,-215.15 185.012,-221.974 187.498,-215.43"/>
</g>
<!-- Node5 -->
<g id="node5" class="node"><title>Node5</title>
<g id="a_node5"><a xlink:title=" ">
<polygon fill="white" stroke="#bfbfbf" points="203,-196 203,-215 252,-215 252,-196 203,-196"/>
<text text-anchor="middle" x="227.5" y="-203" font-family="Helvetica,sans-Serif" font-size="10.00">string.h</text>
</a>
</g>
</g>
<!-- Node1&#45;&gt;Node5 -->
<g id="edge4" class="edge"><title>Node1&#45;&gt;Node5</title>
<path fill="none" stroke="midnightblue" d="M1474.96,-265.373C1265.27,-262.29 381.682,-247.804 261.5,-221 258.979,-220.438 256.41,-219.694 253.871,-218.839"/>
<polygon fill="midnightblue" stroke="midnightblue" points="254.977,-215.514 244.388,-215.146 252.436,-222.037 254.977,-215.514"/>
</g>
<!-- Node6 -->
<g id="node6" class="node"><title>Node6</title>
<g id="a_node6"><a xlink:title=" ">
<polygon fill="white" stroke="#bfbfbf" points="270.5,-196 270.5,-215 316.5,-215 316.5,-196 270.5,-196"/>
<text text-anchor="middle" x="293.5" y="-203" font-family="Helvetica,sans-Serif" font-size="10.00">stdio.h</text>
</a>
</g>
</g>
<!-- Node1&#45;&gt;Node6 -->
<g id="edge5" class="edge"><title>Node1&#45;&gt;Node6</title>
<path fill="none" stroke="midnightblue" d="M1474.91,-265.307C1271.87,-262.018 439.873,-247.05 326.5,-221 324.133,-220.456 321.725,-219.744 319.343,-218.927"/>
<polygon fill="midnightblue" stroke="midnightblue" points="320.454,-215.602 309.869,-215.141 317.856,-222.102 320.454,-215.602"/>
</g>
<!-- Node7 -->
<g id="node7" class="node"><title>Node7</title>
<g id="a_node7"><a xlink:title=" ">
<polygon fill="white" stroke="#bfbfbf" points="335,-196 335,-215 382,-215 382,-196 335,-196"/>
<text text-anchor="middle" x="358.5" y="-203" font-family="Helvetica,sans-Serif" font-size="10.00">math.h</text>
</a>
</g>
</g>
<!-- Node1&#45;&gt;Node7 -->
<g id="edge6" class="edge"><title>Node1&#45;&gt;Node7</title>
<path fill="none" stroke="midnightblue" d="M1474.78,-266.432C1292.18,-267.854 602.873,-269.809 391.5,-221 389.133,-220.454 386.726,-219.739 384.344,-218.921"/>
<polygon fill="midnightblue" stroke="midnightblue" points="385.456,-215.596 374.871,-215.133 382.857,-222.096 385.456,-215.596"/>
</g>
<!-- Node8 -->
<g id="node8" class="node"><title>Node8</title>
<g id="a_node8"><a xlink:title=" ">
<polygon fill="white" stroke="#bfbfbf" points="400,-196 400,-215 457,-215 457,-196 400,-196"/>
<text text-anchor="middle" x="428.5" y="-203" font-family="Helvetica,sans-Serif" font-size="10.00">xdc/std.h</text>
</a>
</g>
</g>
<!-- Node1&#45;&gt;Node8 -->
<g id="edge7" class="edge"><title>Node1&#45;&gt;Node8</title>
<path fill="none" stroke="midnightblue" d="M1474.88,-265.996C1300.33,-265.685 663.731,-261.724 466.5,-221 463.418,-220.364 460.258,-219.51 457.14,-218.533"/>
<polygon fill="midnightblue" stroke="midnightblue" points="458.066,-215.148 447.471,-215.111 455.73,-221.747 458.066,-215.148"/>
</g>
<!-- Node9 -->
<g id="node9" class="node"><title>Node9</title>
<g id="a_node9"><a xlink:title=" ">
<polygon fill="white" stroke="#bfbfbf" points="475,-196 475,-215 560,-215 560,-196 475,-196"/>
<text text-anchor="middle" x="517.5" y="-203" font-family="Helvetica,sans-Serif" font-size="10.00">xdc/cfg/global.h</text>
</a>
</g>
</g>
<!-- Node1&#45;&gt;Node9 -->
<g id="edge8" class="edge"><title>Node1&#45;&gt;Node9</title>
<path fill="none" stroke="midnightblue" d="M1474.94,-265.216C1311.8,-262.14 747.289,-249.625 569.5,-221 564.313,-220.165 558.903,-219 553.618,-217.69"/>
<polygon fill="midnightblue" stroke="midnightblue" points="554.263,-214.24 543.699,-215.04 552.457,-221.003 554.263,-214.24"/>
</g>
<!-- Node10 -->
<g id="node10" class="node"><title>Node10</title>
<g id="a_node10"><a xlink:title=" ">
<polygon fill="white" stroke="#bfbfbf" points="578.5,-196 578.5,-215 682.5,-215 682.5,-196 578.5,-196"/>
<text text-anchor="middle" x="630.5" y="-203" font-family="Helvetica,sans-Serif" font-size="10.00">xdc/runtime/IHeap.h</text>
</a>
</g>
</g>
<!-- Node1&#45;&gt;Node10 -->
<g id="edge9" class="edge"><title>Node1&#45;&gt;Node10</title>
<path fill="none" stroke="midnightblue" d="M1474.86,-266.312C1350.34,-266.593 988.924,-263.393 692.5,-221 685.809,-220.043 678.778,-218.716 671.951,-217.251"/>
<polygon fill="midnightblue" stroke="midnightblue" points="672.683,-213.828 662.157,-215.031 671.136,-220.655 672.683,-213.828"/>
</g>
<!-- Node11 -->
<g id="node11" class="node"><title>Node11</title>
<g id="a_node11"><a xlink:title=" ">
<polygon fill="white" stroke="#bfbfbf" points="701,-196 701,-215 814,-215 814,-196 701,-196"/>
<text text-anchor="middle" x="757.5" y="-203" font-family="Helvetica,sans-Serif" font-size="10.00">xdc/runtime/System.h</text>
</a>
</g>
</g>
<!-- Node1&#45;&gt;Node11 -->
<g id="edge10" class="edge"><title>Node1&#45;&gt;Node11</title>
<path fill="none" stroke="midnightblue" d="M1474.88,-265.456C1364.1,-263.6 1067.78,-255.528 823.5,-221 816.313,-219.984 808.744,-218.612 801.398,-217.116"/>
<polygon fill="midnightblue" stroke="midnightblue" points="802.086,-213.684 791.576,-215.02 800.625,-220.53 802.086,-213.684"/>
</g>
<!-- Node12 -->
<g id="node12" class="node"><title>Node12</title>
<g id="a_node12"><a xlink:title=" ">
<polygon fill="white" stroke="#bfbfbf" points="832.5,-196 832.5,-215 932.5,-215 932.5,-196 832.5,-196"/>
<text text-anchor="middle" x="882.5" y="-203" font-family="Helvetica,sans-Serif" font-size="10.00">xdc/runtime/Error.h</text>
</a>
</g>
</g>
<!-- Node1&#45;&gt;Node12 -->
<g id="edge11" class="edge"><title>Node1&#45;&gt;Node12</title>
<path fill="none" stroke="midnightblue" d="M1474.97,-265.007C1377.62,-262.296 1138.76,-252.701 941.5,-221 935.562,-220.046 929.343,-218.797 923.262,-217.433"/>
<polygon fill="midnightblue" stroke="midnightblue" points="923.77,-213.957 913.232,-215.059 922.157,-220.769 923.77,-213.957"/>
</g>
<!-- Node13 -->
<g id="node13" class="node"><title>Node13</title>
<g id="a_node13"><a xlink:title=" ">
<polygon fill="white" stroke="#bfbfbf" points="950.5,-196 950.5,-215 1064.5,-215 1064.5,-196 950.5,-196"/>
<text text-anchor="middle" x="1007.5" y="-203" font-family="Helvetica,sans-Serif" font-size="10.00">xdc/runtime/Memory.h</text>
</a>
</g>
</g>
<!-- Node1&#45;&gt;Node13 -->
<g id="edge12" class="edge"><title>Node1&#45;&gt;Node13</title>
<path fill="none" stroke="midnightblue" d="M1474.76,-263.146C1394.3,-257.643 1220.03,-244.031 1074.5,-221 1067.71,-219.925 1060.57,-218.597 1053.58,-217.184"/>
<polygon fill="midnightblue" stroke="midnightblue" points="1054.03,-213.701 1043.52,-215.074 1052.59,-220.552 1054.03,-213.701"/>
</g>
<!-- Node14 -->
<g id="node14" class="node"><title>Node14</title>
<g id="a_node14"><a xlink:title=" ">
<polygon fill="white" stroke="#bfbfbf" points="1083,-196 1083,-215 1176,-215 1176,-196 1083,-196"/>
<text text-anchor="middle" x="1129.5" y="-203" font-family="Helvetica,sans-Serif" font-size="10.00">ti/sysbios/BIOS.h</text>
</a>
</g>
</g>
<!-- Node1&#45;&gt;Node14 -->
<g id="edge13" class="edge"><title>Node1&#45;&gt;Node14</title>
<path fill="none" stroke="midnightblue" d="M1474.92,-261.706C1410.62,-255.125 1288.28,-241.154 1185.5,-221 1180.4,-219.999 1175.06,-218.809 1169.81,-217.549"/>
<polygon fill="midnightblue" stroke="midnightblue" points="1170.42,-214.093 1159.87,-215.067 1168.72,-220.885 1170.42,-214.093"/>
</g>
<!-- Node15 -->
<g id="node15" class="node"><title>Node15</title>
<g id="a_node15"><a xlink:title=" ">
<polygon fill="white" stroke="#bfbfbf" points="1194,-196 1194,-215 1301,-215 1301,-196 1194,-196"/>
<text text-anchor="middle" x="1247.5" y="-203" font-family="Helvetica,sans-Serif" font-size="10.00">ti/sysbios/knl/Task.h</text>
</a>
</g>
</g>
<!-- Node1&#45;&gt;Node15 -->
<g id="edge14" class="edge"><title>Node1&#45;&gt;Node15</title>
<path fill="none" stroke="midnightblue" d="M1480.53,-257.475C1431.95,-246.849 1348.92,-228.685 1296.2,-217.152"/>
<polygon fill="midnightblue" stroke="midnightblue" points="1296.92,-213.727 1286.4,-215.009 1295.42,-220.565 1296.92,-213.727"/>
</g>
<!-- Node16 -->
<g id="node16" class="node"><title>Node16</title>
<g id="a_node16"><a xlink:title=" ">
<polygon fill="white" stroke="#bfbfbf" points="1270.5,-129 1270.5,-148 1380.5,-148 1380.5,-129 1270.5,-129"/>
<text text-anchor="middle" x="1325.5" y="-136" font-family="Helvetica,sans-Serif" font-size="10.00">ti/sysbios/knl/Event.h</text>
</a>
</g>
</g>
<!-- Node1&#45;&gt;Node16 -->
<g id="edge15" class="edge"><title>Node1&#45;&gt;Node16</title>
<path fill="none" stroke="midnightblue" d="M1514.49,-257.23C1505.17,-241.638 1483.72,-208.955 1457.5,-190 1432.02,-171.581 1398.98,-158.949 1372.33,-150.925"/>
<polygon fill="midnightblue" stroke="midnightblue" points="1373.04,-147.486 1362.46,-148.073 1371.09,-154.211 1373.04,-147.486"/>
</g>
<!-- Node17 -->
<g id="node17" class="node"><title>Node17</title>
<g id="a_node17"><a xlink:title=" ">
<polygon fill="white" stroke="#bfbfbf" points="996,-67.5 996,-86.5 1131,-86.5 1131,-67.5 996,-67.5"/>
<text text-anchor="middle" x="1063.5" y="-74.5" font-family="Helvetica,sans-Serif" font-size="10.00">ti/sysbios/knl/Semaphore.h</text>
</a>
</g>
</g>
<!-- Node1&#45;&gt;Node17 -->
<g id="edge16" class="edge"><title>Node1&#45;&gt;Node17</title>
<path fill="none" stroke="midnightblue" d="M1480.76,-257.455C1452.21,-250.202 1413.02,-238.208 1381.5,-221 1362.37,-210.555 1363.4,-198.89 1343.5,-190 1249.43,-147.979 1201.36,-209.41 1114.5,-154 1093,-140.284 1078.41,-113.893 1070.52,-96.112"/>
<polygon fill="midnightblue" stroke="midnightblue" points="1073.72,-94.6872 1066.65,-86.7985 1067.26,-97.3758 1073.72,-94.6872"/>
</g>
<!-- Node18 -->
<g id="node18" class="node"><title>Node18</title>
<g id="a_node18"><a xlink:title=" ">
<polygon fill="white" stroke="#bfbfbf" points="1885.5,-196 1885.5,-215 1995.5,-215 1995.5,-196 1885.5,-196"/>
<text text-anchor="middle" x="1940.5" y="-203" font-family="Helvetica,sans-Serif" font-size="10.00">ti/sysbios/knl/Clock.h</text>
</a>
</g>
</g>
<!-- Node1&#45;&gt;Node18 -->
<g id="edge17" class="edge"><title>Node1&#45;&gt;Node18</title>
<path fill="none" stroke="midnightblue" d="M1564.12,-261.453C1631.11,-254.365 1761.54,-239.551 1871.5,-221 1878.31,-219.851 1885.47,-218.503 1892.5,-217.101"/>
<polygon fill="midnightblue" stroke="midnightblue" points="1893.55,-220.46 1902.64,-215.024 1892.14,-213.602 1893.55,-220.46"/>
</g>
<!-- Node19 -->
<g id="node19" class="node"><title>Node19</title>
<g id="a_node19"><a xlink:title=" ">
<polygon fill="white" stroke="#bfbfbf" points="2013.5,-196 2013.5,-215 2149.5,-215 2149.5,-196 2013.5,-196"/>
<text text-anchor="middle" x="2081.5" y="-203" font-family="Helvetica,sans-Serif" font-size="10.00">ti/sysbios/heaps/HeapBuf.h</text>
</a>
</g>
</g>
<!-- Node1&#45;&gt;Node19 -->
<g id="edge18" class="edge"><title>Node1&#45;&gt;Node19</title>
<path fill="none" stroke="midnightblue" d="M1564.13,-263.262C1649.79,-257.696 1843.08,-243.636 2004.5,-221 2012.83,-219.832 2021.62,-218.383 2030.17,-216.856"/>
<polygon fill="midnightblue" stroke="midnightblue" points="2030.85,-220.29 2040.06,-215.041 2029.59,-213.405 2030.85,-220.29"/>
</g>
<!-- Node20 -->
<g id="node20" class="node"><title>Node20</title>
<g id="a_node20"><a xlink:title=" ">
<polygon fill="white" stroke="#bfbfbf" points="2168,-196 2168,-215 2311,-215 2311,-196 2168,-196"/>
<text text-anchor="middle" x="2239.5" y="-203" font-family="Helvetica,sans-Serif" font-size="10.00">ti/sysbios/heaps/HeapMem.h</text>
</a>
</g>
</g>
<!-- Node1&#45;&gt;Node20 -->
<g id="edge19" class="edge"><title>Node1&#45;&gt;Node20</title>
<path fill="none" stroke="midnightblue" d="M1564.2,-264.496C1668.59,-260.624 1936.4,-248.62 2158.5,-221 2167.66,-219.861 2177.36,-218.373 2186.74,-216.784"/>
<polygon fill="midnightblue" stroke="midnightblue" points="2187.5,-220.204 2196.75,-215.033 2186.3,-213.308 2187.5,-220.204"/>
</g>
<!-- Node21 -->
<g id="node21" class="node"><title>Node21</title>
<g id="a_node21"><a xlink:title=" ">
<polygon fill="white" stroke="#bfbfbf" points="2393,-129 2393,-148 2512,-148 2512,-129 2393,-129"/>
<text text-anchor="middle" x="2452.5" y="-136" font-family="Helvetica,sans-Serif" font-size="10.00">ti/drivers/osal/DebugP.h</text>
</a>
</g>
</g>
<!-- Node1&#45;&gt;Node21 -->
<g id="edge20" class="edge"><title>Node1&#45;&gt;Node21</title>
<path fill="none" stroke="midnightblue" d="M1564.33,-261.49C1607,-255.982 1672.27,-244.346 1724.5,-221 1746.01,-211.386 1745.3,-197.889 1767.5,-190 1896.92,-144.009 2248.39,-172.374 2384.5,-154 2391.99,-152.989 2399.88,-151.606 2407.52,-150.094"/>
<polygon fill="midnightblue" stroke="midnightblue" points="2408.3,-153.507 2417.38,-148.05 2406.88,-146.652 2408.3,-153.507"/>
</g>
<!-- Node22 -->
<g id="node22" class="node"><title>Node22</title>
<g id="a_node22"><a xlink:title=" ">
<polygon fill="white" stroke="#bfbfbf" points="2329.5,-196 2329.5,-215 2381.5,-215 2381.5,-196 2329.5,-196"/>
<text text-anchor="middle" x="2355.5" y="-203" font-family="Helvetica,sans-Serif" font-size="10.00">assert.h</text>
</a>
</g>
</g>
<!-- Node1&#45;&gt;Node22 -->
<g id="edge21" class="edge"><title>Node1&#45;&gt;Node22</title>
<path fill="none" stroke="midnightblue" d="M1564.09,-265.46C1710.39,-263.382 2174.78,-254.265 2320.5,-221 2323.17,-220.39 2325.9,-219.594 2328.6,-218.689"/>
<polygon fill="midnightblue" stroke="midnightblue" points="2329.98,-221.908 2338.08,-215.07 2327.48,-215.369 2329.98,-221.908"/>
</g>
<!-- Node23 -->
<g id="node23" class="node"><title>Node23</title>
<g id="a_node23"><a xlink:title=" ">
<polygon fill="white" stroke="#bfbfbf" points="1245.5,-6 1245.5,-25 1377.5,-25 1377.5,-6 1245.5,-6"/>
<text text-anchor="middle" x="1311.5" y="-13" font-family="Helvetica,sans-Serif" font-size="10.00">ti/common/sys_common.h</text>
</a>
</g>
</g>
<!-- Node1&#45;&gt;Node23 -->
<g id="edge22" class="edge"><title>Node1&#45;&gt;Node23</title>
<path fill="none" stroke="midnightblue" d="M1474.92,-260.9C1437.91,-255.232 1384.83,-243.698 1343.5,-221 1325.86,-211.313 1328.58,-198.838 1310.5,-190 1217.55,-144.557 1176.21,-193.316 1080.5,-154 1033.38,-134.642 1010.72,-132.344 987.5,-87 921.922,41.0684 752.362,-112.751 1236.5,-31 1243.86,-29.7564 1251.62,-28.3581 1259.24,-26.9335"/>
<polygon fill="midnightblue" stroke="midnightblue" points="1259.95,-30.3601 1269.12,-25.0563 1258.65,-23.483 1259.95,-30.3601"/>
</g>
<!-- Node24 -->
<g id="node24" class="node"><title>Node24</title>
<g id="a_node24"><a xlink:title=" ">
<polygon fill="white" stroke="#bfbfbf" points="2400,-196 2400,-215 2541,-215 2541,-196 2400,-196"/>
<text text-anchor="middle" x="2470.5" y="-203" font-family="Helvetica,sans-Serif" font-size="10.00">ti/drivers/osal/SemaphoreP.h</text>
</a>
</g>
</g>
<!-- Node1&#45;&gt;Node24 -->
<g id="edge23" class="edge"><title>Node1&#45;&gt;Node24</title>
<path fill="none" stroke="midnightblue" d="M1564.08,-265.702C1692.71,-264.413 2075.39,-257.545 2390.5,-221 2399.77,-219.925 2409.58,-218.439 2419.04,-216.825"/>
<polygon fill="midnightblue" stroke="midnightblue" points="2419.89,-220.229 2429.13,-215.038 2418.67,-213.337 2419.89,-220.229"/>
</g>
<!-- Node25 -->
<g id="node25" class="node"><title>Node25</title>
<g id="a_node25"><a xlink:title=" ">
<polygon fill="white" stroke="#bfbfbf" points="1573,-67.5 1573,-86.5 1688,-86.5 1688,-67.5 1573,-67.5"/>
<text text-anchor="middle" x="1630.5" y="-74.5" font-family="Helvetica,sans-Serif" font-size="10.00">ti/drivers/edma/edma.h</text>
</a>
</g>
</g>
<!-- Node1&#45;&gt;Node25 -->
<g id="edge24" class="edge"><title>Node1&#45;&gt;Node25</title>
<path fill="none" stroke="midnightblue" d="M1524.56,-257.434C1541.6,-228.561 1597.18,-134.439 1620.28,-95.3076"/>
<polygon fill="midnightblue" stroke="midnightblue" points="1623.34,-97.0074 1625.41,-86.6168 1617.31,-93.4484 1623.34,-97.0074"/>
</g>
<!-- Node26 -->
<g id="node26" class="node"><title>Node26</title>
<g id="a_node26"><a xlink:title=" ">
<polygon fill="white" stroke="#bfbfbf" points="2530.5,-129 2530.5,-148 2634.5,-148 2634.5,-129 2530.5,-129"/>
<text text-anchor="middle" x="2582.5" y="-136" font-family="Helvetica,sans-Serif" font-size="10.00">ti/drivers/esm/esm.h</text>
</a>
</g>
</g>
<!-- Node1&#45;&gt;Node26 -->
<g id="edge25" class="edge"><title>Node1&#45;&gt;Node26</title>
<path fill="none" stroke="midnightblue" d="M1564.39,-263.045C1613.79,-258.562 1694.78,-247.54 1759.5,-221 1782.31,-211.646 1782.11,-197.793 1805.5,-190 1956.64,-139.641 2363.79,-176.516 2521.5,-154 2527.94,-153.081 2534.69,-151.802 2541.26,-150.381"/>
<polygon fill="midnightblue" stroke="midnightblue" points="2542.4,-153.71 2551.36,-148.061 2540.84,-146.887 2542.4,-153.71"/>
</g>
<!-- Node27 -->
<g id="node27" class="node"><title>Node27</title>
<g id="a_node27"><a xlink:title=" ">
<polygon fill="white" stroke="#bfbfbf" points="2652.5,-129 2652.5,-148 2750.5,-148 2750.5,-129 2652.5,-129"/>
<text text-anchor="middle" x="2701.5" y="-136" font-family="Helvetica,sans-Serif" font-size="10.00">ti/drivers/soc/soc.h</text>
</a>
</g>
</g>
<!-- Node1&#45;&gt;Node27 -->
<g id="edge26" class="edge"><title>Node1&#45;&gt;Node27</title>
<path fill="none" stroke="midnightblue" d="M1564.18,-264.485C1620.23,-261.306 1718.43,-251.464 1796.5,-221 1819.81,-211.903 1819.7,-197.729 1843.5,-190 2012.76,-135.031 2467.41,-179.709 2643.5,-154 2649.55,-153.116 2655.89,-151.871 2662.07,-150.477"/>
<polygon fill="midnightblue" stroke="midnightblue" points="2663.32,-153.776 2672.22,-148.029 2661.68,-146.97 2663.32,-153.776"/>
</g>
<!-- Node28 -->
<g id="node28" class="node"><title>Node28</title>
<g id="a_node28"><a xlink:title=" ">
<polygon fill="white" stroke="#bfbfbf" points="2559.5,-190.5 2559.5,-220.5 2657.5,-220.5 2657.5,-190.5 2559.5,-190.5"/>
<text text-anchor="start" x="2567.5" y="-208.5" font-family="Helvetica,sans-Serif" font-size="10.00">ti/utils/cycleprofiler</text>
<text text-anchor="middle" x="2608.5" y="-197.5" font-family="Helvetica,sans-Serif" font-size="10.00">/cycle_profiler.h</text>
</a>
</g>
</g>
<!-- Node1&#45;&gt;Node28 -->
<g id="edge27" class="edge"><title>Node1&#45;&gt;Node28</title>
<path fill="none" stroke="midnightblue" d="M1564.24,-265.246C1733.57,-262.21 2335.95,-249.704 2549.12,-220.949"/>
<polygon fill="midnightblue" stroke="midnightblue" points="2549.86,-224.379 2559.27,-219.523 2548.88,-217.447 2549.86,-224.379"/>
</g>
<!-- Node29 -->
<g id="node29" class="node"><title>Node29</title>
<g id="a_node29"><a xlink:title=" ">
<polygon fill="white" stroke="#bfbfbf" points="2675.5,-196 2675.5,-215 2821.5,-215 2821.5,-196 2675.5,-196"/>
<text text-anchor="middle" x="2748.5" y="-203" font-family="Helvetica,sans-Serif" font-size="10.00">ti/alg/mmwavelib/mmwavelib.h</text>
</a>
</g>
</g>
<!-- Node1&#45;&gt;Node29 -->
<g id="edge28" class="edge"><title>Node1&#45;&gt;Node29</title>
<path fill="none" stroke="midnightblue" d="M1564.21,-266.423C1718,-267.416 2239.25,-266.941 2666.5,-221 2676.21,-219.956 2686.5,-218.454 2696.39,-216.808"/>
<polygon fill="midnightblue" stroke="midnightblue" points="2697.26,-220.209 2706.52,-215.053 2696.07,-213.312 2697.26,-220.209"/>
</g>
<!-- Node30 -->
<g id="node30" class="node"><title>Node30</title>
<g id="a_node30"><a xlink:title=" ">
<polygon fill="white" stroke="#bfbfbf" points="2840,-196 2840,-215 2955,-215 2955,-196 2840,-196"/>
<text text-anchor="middle" x="2897.5" y="-203" font-family="Helvetica,sans-Serif" font-size="10.00">gen_twiddle_fft32x32.h</text>
</a>
</g>
</g>
<!-- Node1&#45;&gt;Node30 -->
<g id="edge29" class="edge"><title>Node1&#45;&gt;Node30</title>
<path fill="none" stroke="midnightblue" d="M1564.3,-265.538C1764.39,-263.31 2577.52,-252.459 2830.5,-221 2838.05,-220.061 2846.02,-218.685 2853.71,-217.15"/>
<polygon fill="midnightblue" stroke="midnightblue" points="2854.55,-220.55 2863.62,-215.064 2853.11,-213.7 2854.55,-220.55"/>
</g>
<!-- Node31 -->
<g id="node31" class="node"><title>Node31</title>
<g id="a_node31"><a xlink:title=" ">
<polygon fill="white" stroke="#bfbfbf" points="2973,-196 2973,-215 3088,-215 3088,-196 2973,-196"/>
<text text-anchor="middle" x="3030.5" y="-203" font-family="Helvetica,sans-Serif" font-size="10.00">gen_twiddle_fft16x16.h</text>
</a>
</g>
</g>
<!-- Node1&#45;&gt;Node31 -->
<g id="edge30" class="edge"><title>Node1&#45;&gt;Node31</title>
<path fill="none" stroke="midnightblue" d="M1564.19,-265.723C1776.39,-264.236 2683.67,-255.916 2964.5,-221 2972.03,-220.064 2979.96,-218.676 2987.62,-217.123"/>
<polygon fill="midnightblue" stroke="midnightblue" points="2988.43,-220.531 2997.47,-215.012 2986.96,-213.686 2988.43,-220.531"/>
</g>
<!-- Node32 -->
<g id="node32" class="node"><title>Node32</title>
<g id="a_node32"><a xlink:title=" ">
<polygon fill="white" stroke="#bfbfbf" points="3106.5,-196 3106.5,-215 3190.5,-215 3190.5,-196 3106.5,-196"/>
<text text-anchor="middle" x="3148.5" y="-203" font-family="Helvetica,sans-Serif" font-size="10.00">DSP_fft32x32.h</text>
</a>
</g>
</g>
<!-- Node1&#45;&gt;Node32 -->
<g id="edge31" class="edge"><title>Node1&#45;&gt;Node32</title>
<path fill="none" stroke="midnightblue" d="M1564.2,-266.222C1788.21,-267.107 2790.22,-268.307 3097.5,-221 3102.66,-220.206 3108.03,-219.053 3113.27,-217.739"/>
<polygon fill="midnightblue" stroke="midnightblue" points="3114.36,-221.069 3123.09,-215.065 3112.52,-214.315 3114.36,-221.069"/>
</g>
<!-- Node33 -->
<g id="node33" class="node"><title>Node33</title>
<g id="a_node33"><a xlink:title=" ">
<polygon fill="white" stroke="#bfbfbf" points="3208.5,-196 3208.5,-215 3292.5,-215 3292.5,-196 3208.5,-196"/>
<text text-anchor="middle" x="3250.5" y="-203" font-family="Helvetica,sans-Serif" font-size="10.00">DSP_fft16x16.h</text>
</a>
</g>
</g>
<!-- Node1&#45;&gt;Node33 -->
<g id="edge32" class="edge"><title>Node1&#45;&gt;Node33</title>
<path fill="none" stroke="midnightblue" d="M1564.36,-266.314C1797.34,-267.712 2871.07,-271.273 3199.5,-221 3204.66,-220.211 3210.03,-219.06 3215.27,-217.747"/>
<polygon fill="midnightblue" stroke="midnightblue" points="3216.36,-221.077 3225.09,-215.074 3214.53,-214.323 3216.36,-221.077"/>
</g>
<!-- Node34 -->
<g id="node34" class="node"><title>Node34</title>
<g id="a_node34"><a xlink:title=" ">
<polygon fill="white" stroke="#bfbfbf" points="3311,-196 3311,-215 3410,-215 3410,-196 3311,-196"/>
<text text-anchor="middle" x="3360.5" y="-203" font-family="Helvetica,sans-Serif" font-size="10.00">ti/mathlib/mathlib.h</text>
</a>
</g>
</g>
<!-- Node1&#45;&gt;Node34 -->
<g id="edge33" class="edge"><title>Node1&#45;&gt;Node34</title>
<path fill="none" stroke="midnightblue" d="M1564.24,-266.177C1805.24,-266.932 2950.86,-267.953 3301.5,-221 3307.88,-220.146 3314.57,-218.874 3321.06,-217.434"/>
<polygon fill="midnightblue" stroke="midnightblue" points="3322.11,-220.783 3331.03,-215.066 3320.49,-213.973 3322.11,-220.783"/>
</g>
<!-- Node35 -->
<g id="node35" class="node"><title>Node35</title>
<g id="a_node35"><a xlink:href="app__cfg_8h.html" target="_top" xlink:title=" ">
<polygon fill="white" stroke="black" points="1149,-67.5 1149,-86.5 1248,-86.5 1248,-67.5 1149,-67.5"/>
<text text-anchor="middle" x="1198.5" y="-74.5" font-family="Helvetica,sans-Serif" font-size="10.00">common/app_cfg.h</text>
</a>
</g>
</g>
<!-- Node1&#45;&gt;Node35 -->
<g id="edge34" class="edge"><title>Node1&#45;&gt;Node35</title>
<path fill="none" stroke="midnightblue" d="M1496,-257.445C1475.16,-249.396 1444.28,-236.314 1419.5,-221 1400.96,-209.541 1401.47,-198.723 1381.5,-190 1328.65,-166.921 1162.34,-197.515 1124.5,-154 1115.46,-143.604 1117.75,-135.01 1124.5,-123 1132.72,-108.378 1147.83,-97.9543 1162.26,-90.8465"/>
<polygon fill="midnightblue" stroke="midnightblue" points="1163.9,-93.9491 1171.57,-86.6437 1161.02,-87.5693 1163.9,-93.9491"/>
</g>
<!-- Node38 -->
<g id="node38" class="node"><title>Node38</title>
<g id="a_node38"><a xlink:href="dss__data__path_8h.html" target="_top" xlink:title="This is the data path processing header.">
<polygon fill="white" stroke="black" points="1475,-129 1475,-148 1564,-148 1564,-129 1475,-129"/>
<text text-anchor="middle" x="1519.5" y="-136" font-family="Helvetica,sans-Serif" font-size="10.00">dss_data_path.h</text>
</a>
</g>
</g>
<!-- Node1&#45;&gt;Node38 -->
<g id="edge38" class="edge"><title>Node1&#45;&gt;Node38</title>
<path fill="none" stroke="midnightblue" d="M1519.5,-257.305C1519.5,-236.994 1519.5,-186.053 1519.5,-158.277"/>
<polygon fill="midnightblue" stroke="midnightblue" points="1523,-158.256 1519.5,-148.256 1516,-158.256 1523,-158.256"/>
</g>
<!-- Node45 -->
<g id="node45" class="node"><title>Node45</title>
<g id="a_node45"><a xlink:href="dss__config__edma__util_8h.html" target="_top" xlink:title="EDMA Configuration Utility API definitions.">
<polygon fill="white" stroke="black" points="1133,-129 1133,-148 1252,-148 1252,-129 1133,-129"/>
<text text-anchor="middle" x="1192.5" y="-136" font-family="Helvetica,sans-Serif" font-size="10.00">dss_config_edma_util.h</text>
</a>
</g>
</g>
<!-- Node1&#45;&gt;Node45 -->
<g id="edge50" class="edge"><title>Node1&#45;&gt;Node45</title>
<path fill="none" stroke="midnightblue" d="M1507,-257.238C1494.37,-248.314 1474.36,-233.981 1457.5,-221 1440.23,-207.704 1439.11,-199.512 1419.5,-190 1411.52,-186.127 1307.4,-163.748 1242.98,-150.114"/>
<polygon fill="midnightblue" stroke="midnightblue" points="1243.51,-146.648 1233,-148.005 1242.06,-153.497 1243.51,-146.648"/>
</g>
<!-- Node46 -->
<g id="node46" class="node"><title>Node46</title>
<g id="a_node46"><a xlink:href="clustering_d_bscan_8h.html" target="_top" xlink:title="DBscan clustering module.">
<polygon fill="white" stroke="black" points="3428,-196 3428,-215 3529,-215 3529,-196 3428,-196"/>
<text text-anchor="middle" x="3478.5" y="-203" font-family="Helvetica,sans-Serif" font-size="10.00">clusteringDBscan.h</text>
</a>
</g>
</g>
<!-- Node1&#45;&gt;Node46 -->
<g id="edge52" class="edge"><title>Node1&#45;&gt;Node46</title>
<path fill="none" stroke="midnightblue" d="M1564.3,-266.259C1814.8,-267.509 3044.19,-270.958 3419.5,-221 3425.88,-220.151 3432.57,-218.882 3439.06,-217.443"/>
<polygon fill="midnightblue" stroke="midnightblue" points="3440.11,-220.792 3449.03,-215.075 3438.49,-213.982 3440.11,-220.792"/>
</g>
<!-- Node47 -->
<g id="node47" class="node"><title>Node47</title>
<g id="a_node47"><a xlink:href="_e_k_f___x_y_z___interface_8h.html" target="_top" xlink:title="Interface the Extended Kalman Filter.">
<polygon fill="white" stroke="black" points="2769,-129 2769,-148 2878,-148 2878,-129 2769,-129"/>
<text text-anchor="middle" x="2823.5" y="-136" font-family="Helvetica,sans-Serif" font-size="10.00">EKF_XYZ_Interface.h</text>
</a>
</g>
</g>
<!-- Node1&#45;&gt;Node47 -->
<g id="edge53" class="edge"><title>Node1&#45;&gt;Node47</title>
<path fill="none" stroke="midnightblue" d="M1564.13,-266.223C1626.62,-265.085 1742.72,-257.626 1833.5,-221 1855.35,-212.185 1854.23,-197.694 1876.5,-190 2062.12,-125.863 2564.82,-179.804 2759.5,-154 2766.48,-153.075 2773.82,-151.751 2780.94,-150.275"/>
<polygon fill="midnightblue" stroke="midnightblue" points="2782.13,-153.597 2791.15,-148.032 2780.63,-146.76 2782.13,-153.597"/>
</g>
<!-- Node48 -->
<g id="node48" class="node"><title>Node48</title>
<g id="a_node48"><a xlink:href="mm_wave___x_s_s_8h.html" target="_top" xlink:title=" ">
<polygon fill="white" stroke="black" points="1585.5,-196 1585.5,-215 1715.5,-215 1715.5,-196 1585.5,-196"/>
<text text-anchor="middle" x="1650.5" y="-203" font-family="Helvetica,sans-Serif" font-size="10.00">common/mmWave_XSS.h</text>
</a>
</g>
</g>
<!-- Node1&#45;&gt;Node48 -->
<g id="edge55" class="edge"><title>Node1&#45;&gt;Node48</title>
<path fill="none" stroke="midnightblue" d="M1538.27,-257.475C1560.35,-247.445 1597.22,-230.7 1622.64,-219.155"/>
<polygon fill="midnightblue" stroke="midnightblue" points="1624.11,-222.331 1631.77,-215.009 1621.21,-215.958 1624.11,-222.331"/>
</g>
<!-- Node35&#45;&gt;Node23 -->
<g id="edge36" class="edge"><title>Node35&#45;&gt;Node23</title>
<path fill="none" stroke="midnightblue" d="M1214.69,-67.4751C1233.4,-57.6222 1264.42,-41.2883 1286.3,-29.7697"/>
<polygon fill="midnightblue" stroke="midnightblue" points="1288.12,-32.7651 1295.34,-25.0091 1284.86,-26.5713 1288.12,-32.7651"/>
</g>
<!-- Node36 -->
<g id="node36" class="node"><title>Node36</title>
<g id="a_node36"><a xlink:href="device__cfg_8h.html" target="_top" xlink:title="This file holds constants related to the system chirp configuration as well as the calling the profil...">
<polygon fill="white" stroke="black" points="1011.5,-6 1011.5,-25 1081.5,-25 1081.5,-6 1011.5,-6"/>
<text text-anchor="middle" x="1046.5" y="-13" font-family="Helvetica,sans-Serif" font-size="10.00">device_cfg.h</text>
</a>
</g>
</g>
<!-- Node35&#45;&gt;Node36 -->
<g id="edge35" class="edge"><title>Node35&#45;&gt;Node36</title>
<path fill="none" stroke="midnightblue" d="M1176.72,-67.4751C1150.76,-57.3129 1107.19,-40.2564 1077.67,-28.6996"/>
<polygon fill="midnightblue" stroke="midnightblue" points="1078.83,-25.3951 1068.24,-25.0091 1076.27,-31.9135 1078.83,-25.3951"/>
</g>
<!-- Node37 -->
<g id="node37" class="node"><title>Node37</title>
<g id="a_node37"><a xlink:href="config__chirp__design___u_s_r_r30_8h.html" target="_top" xlink:title=" ">
<polygon fill="white" stroke="black" points="1099.5,-0.5 1099.5,-30.5 1227.5,-30.5 1227.5,-0.5 1099.5,-0.5"/>
<text text-anchor="start" x="1107.5" y="-18.5" font-family="Helvetica,sans-Serif" font-size="10.00">common/profiles/config</text>
<text text-anchor="middle" x="1163.5" y="-7.5" font-family="Helvetica,sans-Serif" font-size="10.00">_chirp_design_USRR30.h</text>
</a>
</g>
</g>
<!-- Node35&#45;&gt;Node37 -->
<g id="edge37" class="edge"><title>Node35&#45;&gt;Node37</title>
<path fill="none" stroke="midnightblue" d="M1193.49,-67.4751C1189.14,-60.0945 1182.66,-49.0772 1176.84,-39.1714"/>
<polygon fill="midnightblue" stroke="midnightblue" points="1179.84,-37.3677 1171.75,-30.523 1173.8,-40.9169 1179.84,-37.3677"/>
</g>
<!-- Node38&#45;&gt;Node17 -->
<g id="edge44" class="edge"><title>Node38&#45;&gt;Node17</title>
<path fill="none" stroke="midnightblue" d="M1474.62,-130.565C1458.23,-128.092 1439.54,-125.341 1422.5,-123 1325.62,-109.689 1213.81,-95.9263 1141.05,-87.1834"/>
<polygon fill="midnightblue" stroke="midnightblue" points="1141.4,-83.6997 1131.05,-85.9837 1140.56,-90.6499 1141.4,-83.6997"/>
</g>
<!-- Node38&#45;&gt;Node23 -->
<g id="edge45" class="edge"><title>Node38&#45;&gt;Node23</title>
<path fill="none" stroke="midnightblue" d="M1485.53,-128.998C1477.34,-126.991 1468.62,-124.888 1460.5,-123 1387.82,-106.094 1343.27,-145.15 1296.5,-87 1284.53,-72.1221 1292.16,-49.9355 1300.27,-34.4373"/>
<polygon fill="midnightblue" stroke="midnightblue" points="1303.54,-35.7789 1305.48,-25.3626 1297.47,-32.2975 1303.54,-35.7789"/>
</g>
<!-- Node38&#45;&gt;Node25 -->
<g id="edge48" class="edge"><title>Node38&#45;&gt;Node25</title>
<path fill="none" stroke="midnightblue" d="M1535.4,-128.975C1553.78,-119.122 1584.26,-102.788 1605.74,-91.2697"/>
<polygon fill="midnightblue" stroke="midnightblue" points="1607.47,-94.3183 1614.63,-86.5091 1604.16,-88.1488 1607.47,-94.3183"/>
</g>
<!-- Node38&#45;&gt;Node35 -->
<g id="edge43" class="edge"><title>Node38&#45;&gt;Node35</title>
<path fill="none" stroke="midnightblue" d="M1486.52,-128.957C1478.06,-126.887 1468.97,-124.765 1460.5,-123 1391.53,-108.62 1311.64,-95.388 1258.39,-87.0485"/>
<polygon fill="midnightblue" stroke="midnightblue" points="1258.86,-83.5788 1248.44,-85.498 1257.78,-90.4954 1258.86,-83.5788"/>
</g>
<!-- Node39 -->
<g id="node39" class="node"><title>Node39</title>
<g id="a_node39"><a xlink:href="detected__obj_8h.html" target="_top" xlink:title=" ">
<polygon fill="white" stroke="black" points="1305,-67.5 1305,-86.5 1426,-86.5 1426,-67.5 1305,-67.5"/>
<text text-anchor="middle" x="1365.5" y="-74.5" font-family="Helvetica,sans-Serif" font-size="10.00">common/detected_obj.h</text>
</a>
</g>
</g>
<!-- Node38&#45;&gt;Node39 -->
<g id="edge39" class="edge"><title>Node38&#45;&gt;Node39</title>
<path fill="none" stroke="midnightblue" d="M1497.44,-128.975C1471.13,-118.813 1426.99,-101.756 1397.08,-90.1996"/>
<polygon fill="midnightblue" stroke="midnightblue" points="1398.11,-86.8483 1387.52,-86.5091 1395.59,-93.3779 1398.11,-86.8483"/>
</g>
<!-- Node40 -->
<g id="node40" class="node"><title>Node40</title>
<g id="a_node40"><a xlink:href="mrr__config_8h.html" target="_top" xlink:title=" ">
<polygon fill="white" stroke="black" points="1444.5,-67.5 1444.5,-86.5 1554.5,-86.5 1554.5,-67.5 1444.5,-67.5"/>
<text text-anchor="middle" x="1499.5" y="-74.5" font-family="Helvetica,sans-Serif" font-size="10.00">common/mrr_config.h</text>
</a>
</g>
</g>
<!-- Node38&#45;&gt;Node40 -->
<g id="edge40" class="edge"><title>Node38&#45;&gt;Node40</title>
<path fill="none" stroke="midnightblue" d="M1516.63,-128.975C1513.78,-120.492 1509.32,-107.204 1505.66,-96.3222"/>
<polygon fill="midnightblue" stroke="midnightblue" points="1508.86,-94.8727 1502.36,-86.5091 1502.23,-97.1031 1508.86,-94.8727"/>
</g>
<!-- Node42 -->
<g id="node42" class="node"><title>Node42</title>
<g id="a_node42"><a xlink:title=" ">
<polygon fill="white" stroke="#bfbfbf" points="1706.5,-67.5 1706.5,-86.5 1842.5,-86.5 1842.5,-67.5 1706.5,-67.5"/>
<text text-anchor="middle" x="1774.5" y="-74.5" font-family="Helvetica,sans-Serif" font-size="10.00">ti/common/mmwave_error.h</text>
</a>
</g>
</g>
<!-- Node38&#45;&gt;Node42 -->
<g id="edge46" class="edge"><title>Node38&#45;&gt;Node42</title>
<path fill="none" stroke="midnightblue" d="M1556.04,-128.975C1601.39,-118.393 1678.78,-100.336 1728.23,-88.7966"/>
<polygon fill="midnightblue" stroke="midnightblue" points="1729.09,-92.1899 1738.03,-86.5091 1727.5,-85.373 1729.09,-92.1899"/>
</g>
<!-- Node43 -->
<g id="node43" class="node"><title>Node43</title>
<g id="a_node43"><a xlink:title=" ">
<polygon fill="white" stroke="#bfbfbf" points="1860.5,-67.5 1860.5,-86.5 1990.5,-86.5 1990.5,-67.5 1860.5,-67.5"/>
<text text-anchor="middle" x="1925.5" y="-74.5" font-family="Helvetica,sans-Serif" font-size="10.00">ti/drivers/adcbuf/ADCBuf.h</text>
</a>
</g>
</g>
<!-- Node38&#45;&gt;Node43 -->
<g id="edge47" class="edge"><title>Node38&#45;&gt;Node43</title>
<path fill="none" stroke="midnightblue" d="M1564.11,-130.962C1635,-120.573 1773.87,-100.222 1857.3,-87.9948"/>
<polygon fill="midnightblue" stroke="midnightblue" points="1858.06,-91.4217 1867.44,-86.5085 1857.04,-84.4956 1858.06,-91.4217"/>
</g>
<!-- Node44 -->
<g id="node44" class="node"><title>Node44</title>
<g id="a_node44"><a xlink:href="_e_k_f___x_y_z___consts_8h.html" target="_top" xlink:title="Constants for the Extended Kalman Filter.">
<polygon fill="white" stroke="black" points="2409,-67.5 2409,-86.5 2512,-86.5 2512,-67.5 2409,-67.5"/>
<text text-anchor="middle" x="2460.5" y="-74.5" font-family="Helvetica,sans-Serif" font-size="10.00">EKF_XYZ_Consts.h</text>
</a>
</g>
</g>
<!-- Node38&#45;&gt;Node44 -->
<g id="edge49" class="edge"><title>Node38&#45;&gt;Node44</title>
<path fill="none" stroke="midnightblue" d="M1564.25,-134.67C1717.62,-124.973 2222.2,-93.0676 2398.8,-81.9012"/>
<polygon fill="midnightblue" stroke="midnightblue" points="2399.2,-85.3831 2408.96,-81.2589 2398.76,-78.3971 2399.2,-85.3831"/>
</g>
<!-- Node40&#45;&gt;Node23 -->
<g id="edge42" class="edge"><title>Node40&#45;&gt;Node23</title>
<path fill="none" stroke="midnightblue" d="M1472.56,-67.4751C1439.9,-57.1362 1384.68,-39.6611 1348.16,-28.1017"/>
<polygon fill="midnightblue" stroke="midnightblue" points="1348.98,-24.6897 1338.39,-25.0091 1346.86,-31.3634 1348.98,-24.6897"/>
</g>
<!-- Node41 -->
<g id="node41" class="node"><title>Node41</title>
<g id="a_node41"><a xlink:title=" ">
<polygon fill="white" stroke="#bfbfbf" points="1687,-6 1687,-25 1830,-25 1830,-6 1687,-6"/>
<text text-anchor="middle" x="1758.5" y="-13" font-family="Helvetica,sans-Serif" font-size="10.00">ti/control/mmwave/mmwave.h</text>
</a>
</g>
</g>
<!-- Node40&#45;&gt;Node41 -->
<g id="edge41" class="edge"><title>Node40&#45;&gt;Node41</title>
<path fill="none" stroke="midnightblue" d="M1536.61,-67.4751C1582.67,-56.8932 1661.27,-38.8356 1711.5,-27.2966"/>
<polygon fill="midnightblue" stroke="midnightblue" points="1712.5,-30.6593 1721.46,-25.0091 1710.93,-23.837 1712.5,-30.6593"/>
</g>
<!-- Node45&#45;&gt;Node25 -->
<g id="edge51" class="edge"><title>Node45&#45;&gt;Node25</title>
<path fill="none" stroke="midnightblue" d="M1229.99,-128.993C1240.18,-126.853 1251.23,-124.687 1261.5,-123 1391.63,-101.614 1427.66,-103.871 1562.45,-87.1061"/>
<polygon fill="midnightblue" stroke="midnightblue" points="1563.28,-90.5303 1572.76,-85.8111 1562.41,-83.5849 1563.28,-90.5303"/>
</g>
<!-- Node47&#45;&gt;Node44 -->
<g id="edge54" class="edge"><title>Node47&#45;&gt;Node44</title>
<path fill="none" stroke="midnightblue" d="M2788.05,-128.981C2778.79,-126.889 2768.79,-124.75 2759.5,-123 2677.82,-107.621 2582.79,-94.0513 2522.18,-85.9359"/>
<polygon fill="midnightblue" stroke="midnightblue" points="2522.39,-82.433 2512.01,-84.5829 2521.46,-89.3718 2522.39,-82.433"/>
</g>
<!-- Node48&#45;&gt;Node16 -->
<g id="edge69" class="edge"><title>Node48&#45;&gt;Node16</title>
<path fill="none" stroke="midnightblue" d="M1606.53,-195.997C1555.5,-186.091 1468.85,-169.145 1394.5,-154 1388.36,-152.749 1381.92,-151.419 1375.54,-150.091"/>
<polygon fill="midnightblue" stroke="midnightblue" points="1376.12,-146.638 1365.62,-148.018 1374.69,-153.49 1376.12,-146.638"/>
</g>
<!-- Node48&#45;&gt;Node17 -->
<g id="edge68" class="edge"><title>Node48&#45;&gt;Node17</title>
<path fill="none" stroke="midnightblue" d="M1585.41,-199.376C1537.99,-193.49 1473.4,-180.894 1422.5,-154 1404.71,-144.599 1407.66,-131.674 1389.5,-123 1378.37,-117.683 1233.88,-99.0592 1141.04,-87.5028"/>
<polygon fill="midnightblue" stroke="midnightblue" points="1141.46,-84.0283 1131.11,-86.2687 1140.6,-90.9749 1141.46,-84.0283"/>
</g>
<!-- Node48&#45;&gt;Node21 -->
<g id="edge67" class="edge"><title>Node48&#45;&gt;Node21</title>
<path fill="none" stroke="midnightblue" d="M1691.35,-195.983C1703.57,-193.712 1717.04,-191.48 1729.5,-190 2019.02,-155.615 2095.5,-192.517 2384.5,-154 2391.99,-153.002 2399.88,-151.626 2407.53,-150.115"/>
<polygon fill="midnightblue" stroke="midnightblue" points="2408.31,-153.528 2417.39,-148.073 2406.89,-146.674 2408.31,-153.528"/>
</g>
<!-- Node48&#45;&gt;Node25 -->
<g id="edge66" class="edge"><title>Node48&#45;&gt;Node25</title>
<path fill="none" stroke="midnightblue" d="M1649.13,-195.805C1645.91,-175.494 1637.86,-124.553 1633.47,-96.7768"/>
<polygon fill="midnightblue" stroke="midnightblue" points="1636.9,-96.0864 1631.88,-86.7557 1629.99,-97.1796 1636.9,-96.0864"/>
</g>
<!-- Node48&#45;&gt;Node26 -->
<g id="edge61" class="edge"><title>Node48&#45;&gt;Node26</title>
<path fill="none" stroke="midnightblue" d="M1712.04,-195.987C1729.9,-193.757 1749.45,-191.547 1767.5,-190 2101.77,-161.348 2189.32,-200.996 2521.5,-154 2528.01,-153.079 2534.84,-151.787 2541.48,-150.348"/>
<polygon fill="midnightblue" stroke="midnightblue" points="2542.72,-153.654 2551.68,-148.001 2541.15,-146.832 2542.72,-153.654"/>
</g>
<!-- Node48&#45;&gt;Node27 -->
<g id="edge57" class="edge"><title>Node48&#45;&gt;Node27</title>
<path fill="none" stroke="midnightblue" d="M1715.68,-197.668C1743.35,-194.958 1775.97,-192.014 1805.5,-190 2177.42,-164.631 2274.57,-207.48 2643.5,-154 2649.55,-153.122 2655.89,-151.88 2662.07,-150.488"/>
<polygon fill="midnightblue" stroke="midnightblue" points="2663.32,-153.787 2672.22,-148.041 2661.68,-146.981 2663.32,-153.787"/>
</g>
<!-- Node48&#45;&gt;Node35 -->
<g id="edge70" class="edge"><title>Node48&#45;&gt;Node35</title>
<path fill="none" stroke="midnightblue" d="M1602.01,-195.971C1563.94,-188.159 1510.24,-174.636 1466.5,-154 1444.87,-143.793 1444.48,-132.448 1422.5,-123 1393.6,-110.575 1314.51,-96.2701 1258.52,-87.1857"/>
<polygon fill="midnightblue" stroke="midnightblue" points="1258.79,-83.6829 1248.36,-85.5519 1257.68,-90.5943 1258.79,-83.6829"/>
</g>
<!-- Node48&#45;&gt;Node38 -->
<g id="edge71" class="edge"><title>Node48&#45;&gt;Node38</title>
<path fill="none" stroke="midnightblue" d="M1633.1,-195.869C1610.89,-184.845 1572.21,-165.655 1546.24,-152.768"/>
<polygon fill="midnightblue" stroke="midnightblue" points="1547.48,-149.477 1536.97,-148.167 1544.37,-155.747 1547.48,-149.477"/>
</g>
<!-- Node48&#45;&gt;Node41 -->
<g id="edge63" class="edge"><title>Node48&#45;&gt;Node41</title>
<path fill="none" stroke="midnightblue" d="M1664.79,-195.91C1680.53,-186.263 1706.43,-169.873 1727.5,-154 1744.36,-141.294 1744.32,-131.824 1763.5,-123 1859.89,-78.6589 1930.36,-167.484 1999.5,-87 2047.39,-31.2553 1927.7,-18.356 1840.38,-16.0468"/>
<polygon fill="midnightblue" stroke="midnightblue" points="1840.24,-12.5431 1830.17,-15.8203 1840.09,-19.5414 1840.24,-12.5431"/>
</g>
<!-- Node48&#45;&gt;Node42 -->
<g id="edge56" class="edge"><title>Node48&#45;&gt;Node42</title>
<path fill="none" stroke="midnightblue" d="M1653.06,-195.87C1658.21,-179.789 1671.17,-144.89 1692.5,-123 1706.24,-108.902 1725.35,-98.0656 1741.66,-90.5632"/>
<polygon fill="midnightblue" stroke="midnightblue" points="1743.13,-93.744 1750.89,-86.5317 1740.32,-87.33 1743.13,-93.744"/>
</g>
<!-- Node48&#45;&gt;Node43 -->
<g id="edge65" class="edge"><title>Node48&#45;&gt;Node43</title>
<path fill="none" stroke="midnightblue" d="M1657.83,-195.898C1674.1,-176.984 1713.2,-132.692 1730.5,-123 1753.14,-110.315 1815.75,-97.1125 1863.98,-88.315"/>
<polygon fill="midnightblue" stroke="midnightblue" points="1864.81,-91.7217 1874.03,-86.5063 1863.57,-84.8323 1864.81,-91.7217"/>
</g>
<!-- Node49 -->
<g id="node49" class="node"><title>Node49</title>
<g id="a_node49"><a xlink:title=" ">
<polygon fill="white" stroke="#bfbfbf" points="1772.5,-129 1772.5,-148 1866.5,-148 1866.5,-129 1772.5,-129"/>
<text text-anchor="middle" x="1819.5" y="-136" font-family="Helvetica,sans-Serif" font-size="10.00">ti/drivers/crc/crc.h</text>
</a>
</g>
</g>
<!-- Node48&#45;&gt;Node49 -->
<g id="edge58" class="edge"><title>Node48&#45;&gt;Node49</title>
<path fill="none" stroke="midnightblue" d="M1672.94,-195.869C1702.32,-184.571 1753.99,-164.696 1787.47,-151.818"/>
<polygon fill="midnightblue" stroke="midnightblue" points="1789.16,-154.92 1797.23,-148.064 1786.64,-148.387 1789.16,-154.92"/>
</g>
<!-- Node50 -->
<g id="node50" class="node"><title>Node50</title>
<g id="a_node50"><a xlink:title=" ">
<polygon fill="white" stroke="#bfbfbf" points="1885,-129 1885,-148 1994,-148 1994,-129 1885,-129"/>
<text text-anchor="middle" x="1939.5" y="-136" font-family="Helvetica,sans-Serif" font-size="10.00">ti/drivers/uart/UART.h</text>
</a>
</g>
</g>
<!-- Node48&#45;&gt;Node50 -->
<g id="edge59" class="edge"><title>Node48&#45;&gt;Node50</title>
<path fill="none" stroke="midnightblue" d="M1688.72,-195.945C1733.49,-185.92 1809.89,-168.795 1875.5,-154 1880.85,-152.794 1886.45,-151.529 1892.01,-150.27"/>
<polygon fill="midnightblue" stroke="midnightblue" points="1892.96,-153.645 1901.94,-148.023 1891.41,-146.817 1892.96,-153.645"/>
</g>
<!-- Node51 -->
<g id="node51" class="node"><title>Node51</title>
<g id="a_node51"><a xlink:title=" ">
<polygon fill="white" stroke="#bfbfbf" points="2012.5,-129 2012.5,-148 2142.5,-148 2142.5,-129 2012.5,-129"/>
<text text-anchor="middle" x="2077.5" y="-136" font-family="Helvetica,sans-Serif" font-size="10.00">ti/drivers/pinmux/pinmux.h</text>
</a>
</g>
</g>
<!-- Node48&#45;&gt;Node51 -->
<g id="edge60" class="edge"><title>Node48&#45;&gt;Node51</title>
<path fill="none" stroke="midnightblue" d="M1694.72,-195.973C1706.04,-193.904 1718.2,-191.777 1729.5,-190 1850.83,-170.907 1882.29,-173.819 2003.5,-154 2010.96,-152.781 2018.81,-151.375 2026.51,-149.927"/>
<polygon fill="midnightblue" stroke="midnightblue" points="2027.32,-153.335 2036.48,-148.014 2026,-146.46 2027.32,-153.335"/>
</g>
<!-- Node52 -->
<g id="node52" class="node"><title>Node52</title>
<g id="a_node52"><a xlink:title=" ">
<polygon fill="white" stroke="#bfbfbf" points="2161,-123.5 2161,-153.5 2250,-153.5 2250,-123.5 2161,-123.5"/>
<text text-anchor="start" x="2169" y="-141.5" font-family="Helvetica,sans-Serif" font-size="10.00">ti/drivers/mailbox</text>
<text text-anchor="middle" x="2205.5" y="-130.5" font-family="Helvetica,sans-Serif" font-size="10.00">/mailbox.h</text>
</a>
</g>
</g>
<!-- Node48&#45;&gt;Node52 -->
<g id="edge62" class="edge"><title>Node48&#45;&gt;Node52</title>
<path fill="none" stroke="midnightblue" d="M1692.61,-195.994C1704.5,-193.804 1717.48,-191.613 1729.5,-190 1912.88,-165.407 1964.35,-185.812 2150.99,-153.859"/>
<polygon fill="midnightblue" stroke="midnightblue" points="2151.6,-157.306 2160.85,-152.144 2150.4,-150.409 2151.6,-157.306"/>
</g>
<!-- Node53 -->
<g id="node53" class="node"><title>Node53</title>
<g id="a_node53"><a xlink:title=" ">
<polygon fill="white" stroke="#bfbfbf" points="2268,-129 2268,-148 2375,-148 2375,-129 2268,-129"/>
<text text-anchor="middle" x="2321.5" y="-136" font-family="Helvetica,sans-Serif" font-size="10.00">ti/drivers/cbuff/cbuff.h</text>
</a>
</g>
</g>
<!-- Node48&#45;&gt;Node53 -->
<g id="edge64" class="edge"><title>Node48&#45;&gt;Node53</title>
<path fill="none" stroke="midnightblue" d="M1692.18,-195.934C1704.18,-193.716 1717.32,-191.526 1729.5,-190 1963.77,-160.641 2026.01,-188.998 2259.5,-154 2265.96,-153.032 2272.73,-151.739 2279.34,-150.322"/>
<polygon fill="midnightblue" stroke="midnightblue" points="2280.53,-153.642 2289.51,-148.023 2278.99,-146.814 2280.53,-153.642"/>
</g>
</g>
</svg>
