<?xml version="1.0" encoding="UTF-8" standalone="no"?>
<!DOCTYPE svg PUBLIC "-//W3C//DTD SVG 1.1//EN"
 "http://www.w3.org/Graphics/SVG/1.1/DTD/svg11.dtd">
<!-- Generated by graphviz version 2.38.0 (20140413.2041)
 -->
<!-- Title: ti_sysbios_gates_GateMutex_Handle__label__S Pages: 1 -->
<svg width="343pt" height="100pt"
 viewBox="0.00 0.00 343.00 99.50" xmlns="http://www.w3.org/2000/svg" xmlns:xlink="http://www.w3.org/1999/xlink">
<g id="graph0" class="graph" transform="scale(1 1) rotate(0) translate(4 95.5)">
<title>ti_sysbios_gates_GateMutex_Handle__label__S</title>
<polygon fill="white" stroke="none" points="-4,4 -4,-95.5 339,-95.5 339,4 -4,4"/>
<!-- Node1 -->
<g id="node1" class="node"><title>Node1</title>
<g id="a_node1"><a xlink:title=" ">
<polygon fill="#bfbfbf" stroke="black" points="192,-33 192,-63 335,-63 335,-33 192,-33"/>
<text text-anchor="start" x="200" y="-51" font-family="Helvetica,sans-Serif" font-size="10.00">ti_sysbios_gates_GateMutex</text>
<text text-anchor="middle" x="263.5" y="-40" font-family="Helvetica,sans-Serif" font-size="10.00">_Handle__label__S</text>
</a>
</g>
</g>
<!-- Node2 -->
<g id="node2" class="node"><title>Node2</title>
<g id="a_node2"><a xlink:href="dss__mrr__pe674_8c.html#aa0a6f3540966dfe34b28b929fb3f0af6" target="_top" xlink:title=" ">
<polygon fill="white" stroke="black" points="0,-61 0,-91 156,-91 156,-61 0,-61"/>
<text text-anchor="start" x="8" y="-79" font-family="Helvetica,sans-Serif" font-size="10.00">ti_sysbios_BIOS_RtsGateProxy</text>
<text text-anchor="middle" x="78" y="-68" font-family="Helvetica,sans-Serif" font-size="10.00">_Handle__label__S</text>
</a>
</g>
</g>
<!-- Node1&#45;&gt;Node2 -->
<g id="edge1" class="edge"><title>Node1&#45;&gt;Node2</title>
<path fill="none" stroke="midnightblue" d="M181.838,-60.3081C173.271,-61.6153 164.574,-62.9424 156.05,-64.2431"/>
<polygon fill="midnightblue" stroke="midnightblue" points="182.459,-63.7539 191.817,-58.7855 181.403,-56.834 182.459,-63.7539"/>
</g>
<!-- Node3 -->
<g id="node3" class="node"><title>Node3</title>
<g id="a_node3"><a xlink:href="dss__mrr__pe674_8c.html#a5644d9c631e5afc160812c05062ceb78" target="_top" xlink:title=" ">
<polygon fill="white" stroke="black" points="7,-0.5 7,-41.5 149,-41.5 149,-0.5 7,-0.5"/>
<text text-anchor="start" x="15" y="-29.5" font-family="Helvetica,sans-Serif" font-size="10.00">ti_sysbios_heaps_HeapMem</text>
<text text-anchor="start" x="15" y="-18.5" font-family="Helvetica,sans-Serif" font-size="10.00">_Module_GateProxy_Handle</text>
<text text-anchor="middle" x="78" y="-7.5" font-family="Helvetica,sans-Serif" font-size="10.00">__label__S</text>
</a>
</g>
</g>
<!-- Node1&#45;&gt;Node3 -->
<g id="edge2" class="edge"><title>Node1&#45;&gt;Node3</title>
<path fill="none" stroke="midnightblue" d="M181.853,-36.1336C170.918,-34.5247 159.77,-32.8844 149.042,-31.3059"/>
<polygon fill="midnightblue" stroke="midnightblue" points="181.414,-39.6066 191.817,-37.5997 182.433,-32.6812 181.414,-39.6066"/>
</g>
</g>
</svg>
