<?xml version="1.0" encoding="UTF-8" standalone="no"?>
<!DOCTYPE svg PUBLIC "-//W3C//DTD SVG 1.1//EN"
 "http://www.w3.org/Graphics/SVG/1.1/DTD/svg11.dtd">
<!-- Generated by graphviz version 2.38.0 (20140413.2041)
 -->
<!-- Title: xdc_runtime_Timestamp_SupportProxy_Module__startupDone__S Pages: 1 -->
<svg width="485pt" height="50pt"
 viewBox="0.00 0.00 485.00 50.00" xmlns="http://www.w3.org/2000/svg" xmlns:xlink="http://www.w3.org/1999/xlink">
<g id="graph0" class="graph" transform="scale(1 1) rotate(0) translate(4 46)">
<title>xdc_runtime_Timestamp_SupportProxy_Module__startupDone__S</title>
<polygon fill="white" stroke="none" points="-4,4 -4,-46 481,-46 481,4 -4,4"/>
<!-- Node1 -->
<g id="node1" class="node"><title>Node1</title>
<g id="a_node1"><a xlink:title=" ">
<polygon fill="#bfbfbf" stroke="black" points="0,-0.5 0,-41.5 123,-41.5 123,-0.5 0,-0.5"/>
<text text-anchor="start" x="8" y="-29.5" font-family="Helvetica,sans-Serif" font-size="10.00">xdc_runtime_Timestamp</text>
<text text-anchor="start" x="8" y="-18.5" font-family="Helvetica,sans-Serif" font-size="10.00">_SupportProxy_Module</text>
<text text-anchor="middle" x="61.5" y="-7.5" font-family="Helvetica,sans-Serif" font-size="10.00">__startupDone__S</text>
</a>
</g>
</g>
<!-- Node2 -->
<g id="node2" class="node"><title>Node2</title>
<g id="a_node2"><a xlink:href="dss__mrr__pe674_8c.html#a44301a928819f38ceadbe2eae9fbcc39" target="_top" xlink:title=" ">
<polygon fill="white" stroke="black" points="159,-0.5 159,-41.5 300,-41.5 300,-0.5 159,-0.5"/>
<text text-anchor="start" x="167" y="-29.5" font-family="Helvetica,sans-Serif" font-size="10.00">ti_sysbios_family_c64p</text>
<text text-anchor="start" x="167" y="-18.5" font-family="Helvetica,sans-Serif" font-size="10.00">_TimestampProvider_Module</text>
<text text-anchor="middle" x="229.5" y="-7.5" font-family="Helvetica,sans-Serif" font-size="10.00">__startupDone__S</text>
</a>
</g>
</g>
<!-- Node1&#45;&gt;Node2 -->
<g id="edge1" class="edge"><title>Node1&#45;&gt;Node2</title>
<path fill="none" stroke="midnightblue" d="M123.37,-21C131.683,-21 140.316,-21 148.9,-21"/>
<polygon fill="midnightblue" stroke="midnightblue" points="148.933,-24.5001 158.933,-21 148.933,-17.5001 148.933,-24.5001"/>
</g>
<!-- Node3 -->
<g id="node3" class="node"><title>Node3</title>
<g id="a_node3"><a xlink:href="dss__mrr__pe674_8c.html#ab4281a4a457f32de5ee4f44b736c0303" target="_top" xlink:title=" ">
<polygon fill="white" stroke="black" points="336,-0.5 336,-41.5 477,-41.5 477,-0.5 336,-0.5"/>
<text text-anchor="start" x="344" y="-29.5" font-family="Helvetica,sans-Serif" font-size="10.00">ti_sysbios_family_c64p</text>
<text text-anchor="start" x="344" y="-18.5" font-family="Helvetica,sans-Serif" font-size="10.00">_TimestampProvider_Module</text>
<text text-anchor="middle" x="406.5" y="-7.5" font-family="Helvetica,sans-Serif" font-size="10.00">__startupDone__F</text>
</a>
</g>
</g>
<!-- Node2&#45;&gt;Node3 -->
<g id="edge2" class="edge"><title>Node2&#45;&gt;Node3</title>
<path fill="none" stroke="midnightblue" d="M300.167,-21C308.502,-21 317.063,-21 325.529,-21"/>
<polygon fill="midnightblue" stroke="midnightblue" points="325.786,-24.5001 335.786,-21 325.786,-17.5001 325.786,-24.5001"/>
</g>
</g>
</svg>
