<?xml version="1.0" encoding="UTF-8" standalone="no"?>
<!DOCTYPE svg PUBLIC "-//W3C//DTD SVG 1.1//EN"
 "http://www.w3.org/Graphics/SVG/1.1/DTD/svg11.dtd">
<!-- Generated by graphviz version 2.38.0 (20140413.2041)
 -->
<!-- Title: dss_main.c Pages: 1 -->
<svg width="3297pt" height="285pt"
 viewBox="0.00 0.00 3296.50 285.00" xmlns="http://www.w3.org/2000/svg" xmlns:xlink="http://www.w3.org/1999/xlink">
<g id="graph0" class="graph" transform="scale(1 1) rotate(0) translate(4 281)">
<title>dss_main.c</title>
<polygon fill="white" stroke="none" points="-4,4 -4,-281 3292.5,-281 3292.5,4 -4,4"/>
<!-- Node1 -->
<g id="node1" class="node"><title>Node1</title>
<g id="a_node1"><a xlink:title=" ">
<polygon fill="#bfbfbf" stroke="black" points="1538,-257.5 1538,-276.5 1605,-276.5 1605,-257.5 1538,-257.5"/>
<text text-anchor="middle" x="1571.5" y="-264.5" font-family="Helvetica,sans-Serif" font-size="10.00">dss_main.c</text>
</a>
</g>
</g>
<!-- Node2 -->
<g id="node2" class="node"><title>Node2</title>
<g id="a_node2"><a xlink:title=" ">
<polygon fill="white" stroke="#bfbfbf" points="94,-129 94,-148 143,-148 143,-129 94,-129"/>
<text text-anchor="middle" x="118.5" y="-136" font-family="Helvetica,sans-Serif" font-size="10.00">stdint.h</text>
</a>
</g>
</g>
<!-- Node1&#45;&gt;Node2 -->
<g id="edge1" class="edge"><title>Node1&#45;&gt;Node2</title>
<path fill="none" stroke="midnightblue" d="M1537.92,-265.685C1332.23,-263.656 249.1,-251.546 186.5,-221 158.732,-207.45 138.167,-176.688 127.282,-157.073"/>
<polygon fill="midnightblue" stroke="midnightblue" points="130.372,-155.429 122.606,-148.222 124.183,-158.699 130.372,-155.429"/>
</g>
<!-- Node3 -->
<g id="node3" class="node"><title>Node3</title>
<g id="a_node3"><a xlink:title=" ">
<polygon fill="white" stroke="#bfbfbf" points="195.5,-196 195.5,-215 243.5,-215 243.5,-196 195.5,-196"/>
<text text-anchor="middle" x="219.5" y="-203" font-family="Helvetica,sans-Serif" font-size="10.00">stdlib.h</text>
</a>
</g>
</g>
<!-- Node1&#45;&gt;Node3 -->
<g id="edge2" class="edge"><title>Node1&#45;&gt;Node3</title>
<path fill="none" stroke="midnightblue" d="M1537.74,-265.611C1344.32,-263.284 381.024,-250.288 252.5,-221 249.991,-220.428 247.436,-219.666 244.915,-218.789"/>
<polygon fill="midnightblue" stroke="midnightblue" points="246.113,-215.498 235.529,-215.001 243.492,-221.989 246.113,-215.498"/>
</g>
<!-- Node4 -->
<g id="node4" class="node"><title>Node4</title>
<g id="a_node4"><a xlink:title=" ">
<polygon fill="white" stroke="#bfbfbf" points="262,-196 262,-215 313,-215 313,-196 262,-196"/>
<text text-anchor="middle" x="287.5" y="-203" font-family="Helvetica,sans-Serif" font-size="10.00">stddef.h</text>
</a>
</g>
</g>
<!-- Node1&#45;&gt;Node4 -->
<g id="edge3" class="edge"><title>Node1&#45;&gt;Node4</title>
<path fill="none" stroke="midnightblue" d="M1538,-265.526C1351.28,-262.784 443.102,-248.135 321.5,-221 318.979,-220.437 316.41,-219.693 313.871,-218.839"/>
<polygon fill="midnightblue" stroke="midnightblue" points="314.977,-215.513 304.389,-215.145 312.436,-222.036 314.977,-215.513"/>
</g>
<!-- Node5 -->
<g id="node5" class="node"><title>Node5</title>
<g id="a_node5"><a xlink:title=" ">
<polygon fill="white" stroke="#bfbfbf" points="331,-196 331,-215 380,-215 380,-196 331,-196"/>
<text text-anchor="middle" x="355.5" y="-203" font-family="Helvetica,sans-Serif" font-size="10.00">string.h</text>
</a>
</g>
</g>
<!-- Node1&#45;&gt;Node5 -->
<g id="edge4" class="edge"><title>Node1&#45;&gt;Node5</title>
<path fill="none" stroke="midnightblue" d="M1537.77,-265.447C1356.72,-262.383 504.03,-246.681 389.5,-221 386.98,-220.435 384.411,-219.689 381.873,-218.833"/>
<polygon fill="midnightblue" stroke="midnightblue" points="382.979,-215.508 372.39,-215.138 380.437,-222.03 382.979,-215.508"/>
</g>
<!-- Node6 -->
<g id="node6" class="node"><title>Node6</title>
<g id="a_node6"><a xlink:title=" ">
<polygon fill="white" stroke="#bfbfbf" points="398.5,-196 398.5,-215 444.5,-215 444.5,-196 398.5,-196"/>
<text text-anchor="middle" x="421.5" y="-203" font-family="Helvetica,sans-Serif" font-size="10.00">stdio.h</text>
</a>
</g>
</g>
<!-- Node1&#45;&gt;Node6 -->
<g id="edge5" class="edge"><title>Node1&#45;&gt;Node6</title>
<path fill="none" stroke="midnightblue" d="M1537.88,-265.415C1363,-262.266 561.178,-246.535 453.5,-221 451.282,-220.474 449.029,-219.793 446.8,-219.012"/>
<polygon fill="midnightblue" stroke="midnightblue" points="447.93,-215.693 437.35,-215.134 445.272,-222.169 447.93,-215.693"/>
</g>
<!-- Node7 -->
<g id="node7" class="node"><title>Node7</title>
<g id="a_node7"><a xlink:title=" ">
<polygon fill="white" stroke="#bfbfbf" points="463,-196 463,-215 510,-215 510,-196 463,-196"/>
<text text-anchor="middle" x="486.5" y="-203" font-family="Helvetica,sans-Serif" font-size="10.00">math.h</text>
</a>
</g>
</g>
<!-- Node1&#45;&gt;Node7 -->
<g id="edge6" class="edge"><title>Node1&#45;&gt;Node7</title>
<path fill="none" stroke="midnightblue" d="M1537.99,-266.279C1381.15,-267.324 718.849,-268.773 518.5,-221 516.283,-220.471 514.031,-219.788 511.801,-219.006"/>
<polygon fill="midnightblue" stroke="midnightblue" points="512.932,-215.687 502.352,-215.125 510.272,-222.162 512.932,-215.687"/>
</g>
<!-- Node8 -->
<g id="node8" class="node"><title>Node8</title>
<g id="a_node8"><a xlink:title=" ">
<polygon fill="white" stroke="#bfbfbf" points="528,-196 528,-215 585,-215 585,-196 528,-196"/>
<text text-anchor="middle" x="556.5" y="-203" font-family="Helvetica,sans-Serif" font-size="10.00">xdc/std.h</text>
</a>
</g>
</g>
<!-- Node1&#45;&gt;Node8 -->
<g id="edge7" class="edge"><title>Node1&#45;&gt;Node8</title>
<path fill="none" stroke="midnightblue" d="M1537.95,-265.923C1388.15,-265.357 779.592,-260.613 593.5,-221 590.493,-220.36 587.412,-219.503 584.373,-218.525"/>
<polygon fill="midnightblue" stroke="midnightblue" points="585.549,-215.229 574.955,-215.101 583.158,-221.807 585.549,-215.229"/>
</g>
<!-- Node9 -->
<g id="node9" class="node"><title>Node9</title>
<g id="a_node9"><a xlink:title=" ">
<polygon fill="white" stroke="#bfbfbf" points="603,-196 603,-215 688,-215 688,-196 603,-196"/>
<text text-anchor="middle" x="645.5" y="-203" font-family="Helvetica,sans-Serif" font-size="10.00">xdc/cfg/global.h</text>
</a>
</g>
</g>
<!-- Node1&#45;&gt;Node9 -->
<g id="edge8" class="edge"><title>Node1&#45;&gt;Node9</title>
<path fill="none" stroke="midnightblue" d="M1537.68,-265.255C1397.77,-262.021 863.763,-248.12 697.5,-221 692.314,-220.154 686.906,-218.983 681.621,-217.671"/>
<polygon fill="midnightblue" stroke="midnightblue" points="682.267,-214.22 671.702,-215.019 680.459,-220.983 682.267,-214.22"/>
</g>
<!-- Node10 -->
<g id="node10" class="node"><title>Node10</title>
<g id="a_node10"><a xlink:title=" ">
<polygon fill="white" stroke="#bfbfbf" points="706.5,-196 706.5,-215 810.5,-215 810.5,-196 706.5,-196"/>
<text text-anchor="middle" x="758.5" y="-203" font-family="Helvetica,sans-Serif" font-size="10.00">xdc/runtime/IHeap.h</text>
</a>
</g>
</g>
<!-- Node1&#45;&gt;Node10 -->
<g id="edge9" class="edge"><title>Node1&#45;&gt;Node10</title>
<path fill="none" stroke="midnightblue" d="M1537.93,-266.061C1431.88,-265.811 1094.77,-261.638 819.5,-221 813.069,-220.051 806.319,-218.755 799.749,-217.327"/>
<polygon fill="midnightblue" stroke="midnightblue" points="800.174,-213.833 789.644,-215.003 798.605,-220.655 800.174,-213.833"/>
</g>
<!-- Node11 -->
<g id="node11" class="node"><title>Node11</title>
<g id="a_node11"><a xlink:title=" ">
<polygon fill="white" stroke="#bfbfbf" points="829,-196 829,-215 942,-215 942,-196 829,-196"/>
<text text-anchor="middle" x="885.5" y="-203" font-family="Helvetica,sans-Serif" font-size="10.00">xdc/runtime/System.h</text>
</a>
</g>
</g>
<!-- Node1&#45;&gt;Node11 -->
<g id="edge10" class="edge"><title>Node1&#45;&gt;Node11</title>
<path fill="none" stroke="midnightblue" d="M1537.71,-265.253C1444.1,-262.817 1173.64,-253.293 951.5,-221 944.558,-219.991 937.258,-218.662 930.146,-217.218"/>
<polygon fill="midnightblue" stroke="midnightblue" points="930.434,-213.701 919.924,-215.043 928.977,-220.548 930.434,-213.701"/>
</g>
<!-- Node12 -->
<g id="node12" class="node"><title>Node12</title>
<g id="a_node12"><a xlink:title=" ">
<polygon fill="white" stroke="#bfbfbf" points="960.5,-196 960.5,-215 1060.5,-215 1060.5,-196 960.5,-196"/>
<text text-anchor="middle" x="1010.5" y="-203" font-family="Helvetica,sans-Serif" font-size="10.00">xdc/runtime/Error.h</text>
</a>
</g>
</g>
<!-- Node1&#45;&gt;Node12 -->
<g id="edge11" class="edge"><title>Node1&#45;&gt;Node12</title>
<path fill="none" stroke="midnightblue" d="M1537.79,-264.743C1456.66,-261.336 1244.28,-250.138 1069.5,-221 1063.63,-220.022 1057.49,-218.772 1051.48,-217.416"/>
<polygon fill="midnightblue" stroke="midnightblue" points="1052.09,-213.964 1041.55,-215.066 1050.47,-220.776 1052.09,-213.964"/>
</g>
<!-- Node13 -->
<g id="node13" class="node"><title>Node13</title>
<g id="a_node13"><a xlink:title=" ">
<polygon fill="white" stroke="#bfbfbf" points="1078.5,-196 1078.5,-215 1192.5,-215 1192.5,-196 1078.5,-196"/>
<text text-anchor="middle" x="1135.5" y="-203" font-family="Helvetica,sans-Serif" font-size="10.00">xdc/runtime/Memory.h</text>
</a>
</g>
</g>
<!-- Node1&#45;&gt;Node13 -->
<g id="edge12" class="edge"><title>Node1&#45;&gt;Node13</title>
<path fill="none" stroke="midnightblue" d="M1537.93,-262.998C1472.78,-256.933 1324.78,-241.989 1201.5,-221 1194.9,-219.875 1187.95,-218.531 1181.15,-217.121"/>
<polygon fill="midnightblue" stroke="midnightblue" points="1181.86,-213.692 1171.34,-215.026 1180.39,-220.538 1181.86,-213.692"/>
</g>
<!-- Node14 -->
<g id="node14" class="node"><title>Node14</title>
<g id="a_node14"><a xlink:title=" ">
<polygon fill="white" stroke="#bfbfbf" points="1211,-196 1211,-215 1304,-215 1304,-196 1211,-196"/>
<text text-anchor="middle" x="1257.5" y="-203" font-family="Helvetica,sans-Serif" font-size="10.00">ti/sysbios/BIOS.h</text>
</a>
</g>
</g>
<!-- Node1&#45;&gt;Node14 -->
<g id="edge13" class="edge"><title>Node1&#45;&gt;Node14</title>
<path fill="none" stroke="midnightblue" d="M1537.79,-261.089C1488.2,-253.649 1392.76,-238.518 1312.5,-221 1307.75,-219.962 1302.78,-218.787 1297.87,-217.565"/>
<polygon fill="midnightblue" stroke="midnightblue" points="1298.49,-214.111 1287.93,-215.021 1296.75,-220.892 1298.49,-214.111"/>
</g>
<!-- Node15 -->
<g id="node15" class="node"><title>Node15</title>
<g id="a_node15"><a xlink:title=" ">
<polygon fill="white" stroke="#bfbfbf" points="1322,-196 1322,-215 1429,-215 1429,-196 1322,-196"/>
<text text-anchor="middle" x="1375.5" y="-203" font-family="Helvetica,sans-Serif" font-size="10.00">ti/sysbios/knl/Task.h</text>
</a>
</g>
</g>
<!-- Node1&#45;&gt;Node15 -->
<g id="edge14" class="edge"><title>Node1&#45;&gt;Node15</title>
<path fill="none" stroke="midnightblue" d="M1543.42,-257.475C1509.21,-247.092 1451.3,-229.512 1413.23,-217.954"/>
<polygon fill="midnightblue" stroke="midnightblue" points="1414.12,-214.565 1403.53,-215.009 1412.08,-221.263 1414.12,-214.565"/>
</g>
<!-- Node16 -->
<g id="node16" class="node"><title>Node16</title>
<g id="a_node16"><a xlink:title=" ">
<polygon fill="white" stroke="#bfbfbf" points="1554.5,-129 1554.5,-148 1664.5,-148 1664.5,-129 1554.5,-129"/>
<text text-anchor="middle" x="1609.5" y="-136" font-family="Helvetica,sans-Serif" font-size="10.00">ti/sysbios/knl/Event.h</text>
</a>
</g>
</g>
<!-- Node1&#45;&gt;Node16 -->
<g id="edge15" class="edge"><title>Node1&#45;&gt;Node16</title>
<path fill="none" stroke="midnightblue" d="M1574.22,-257.385C1577.07,-248.337 1581.66,-233.686 1585.5,-221 1592.03,-199.436 1599.31,-174.589 1604.12,-158.055"/>
<polygon fill="midnightblue" stroke="midnightblue" points="1607.59,-158.658 1607.02,-148.078 1600.87,-156.706 1607.59,-158.658"/>
</g>
<!-- Node17 -->
<g id="node17" class="node"><title>Node17</title>
<g id="a_node17"><a xlink:title=" ">
<polygon fill="white" stroke="#bfbfbf" points="1627,-67.5 1627,-86.5 1762,-86.5 1762,-67.5 1627,-67.5"/>
<text text-anchor="middle" x="1694.5" y="-74.5" font-family="Helvetica,sans-Serif" font-size="10.00">ti/sysbios/knl/Semaphore.h</text>
</a>
</g>
</g>
<!-- Node1&#45;&gt;Node17 -->
<g id="edge16" class="edge"><title>Node1&#45;&gt;Node17</title>
<path fill="none" stroke="midnightblue" d="M1568.33,-257.466C1558.39,-230.04 1529.4,-144.677 1545.5,-123 1556.47,-108.227 1597.94,-96.4357 1634.35,-88.6354"/>
<polygon fill="midnightblue" stroke="midnightblue" points="1635.38,-91.9976 1644.46,-86.542 1633.96,-85.1431 1635.38,-91.9976"/>
</g>
<!-- Node18 -->
<g id="node18" class="node"><title>Node18</title>
<g id="a_node18"><a xlink:title=" ">
<polygon fill="white" stroke="#bfbfbf" points="2013.5,-196 2013.5,-215 2123.5,-215 2123.5,-196 2013.5,-196"/>
<text text-anchor="middle" x="2068.5" y="-203" font-family="Helvetica,sans-Serif" font-size="10.00">ti/sysbios/knl/Clock.h</text>
</a>
</g>
</g>
<!-- Node1&#45;&gt;Node18 -->
<g id="edge17" class="edge"><title>Node1&#45;&gt;Node18</title>
<path fill="none" stroke="midnightblue" d="M1605.22,-263.635C1677.69,-258.294 1853.54,-243.947 1999.5,-221 2006.65,-219.876 2014.18,-218.498 2021.53,-217.043"/>
<polygon fill="midnightblue" stroke="midnightblue" points="2022.29,-220.459 2031.39,-215.027 2020.89,-213.601 2022.29,-220.459"/>
</g>
<!-- Node19 -->
<g id="node19" class="node"><title>Node19</title>
<g id="a_node19"><a xlink:title=" ">
<polygon fill="white" stroke="#bfbfbf" points="2141.5,-196 2141.5,-215 2277.5,-215 2277.5,-196 2141.5,-196"/>
<text text-anchor="middle" x="2209.5" y="-203" font-family="Helvetica,sans-Serif" font-size="10.00">ti/sysbios/heaps/HeapBuf.h</text>
</a>
</g>
</g>
<!-- Node1&#45;&gt;Node19 -->
<g id="edge18" class="edge"><title>Node1&#45;&gt;Node19</title>
<path fill="none" stroke="midnightblue" d="M1605.15,-264.548C1692.48,-260.509 1933.48,-247.644 2132.5,-221 2140.93,-219.871 2149.84,-218.429 2158.48,-216.893"/>
<polygon fill="midnightblue" stroke="midnightblue" points="2159.27,-220.308 2168.47,-215.061 2158,-213.423 2159.27,-220.308"/>
</g>
<!-- Node20 -->
<g id="node20" class="node"><title>Node20</title>
<g id="a_node20"><a xlink:title=" ">
<polygon fill="white" stroke="#bfbfbf" points="2296,-196 2296,-215 2439,-215 2439,-196 2296,-196"/>
<text text-anchor="middle" x="2367.5" y="-203" font-family="Helvetica,sans-Serif" font-size="10.00">ti/sysbios/heaps/HeapMem.h</text>
</a>
</g>
</g>
<!-- Node1&#45;&gt;Node20 -->
<g id="edge19" class="edge"><title>Node1&#45;&gt;Node20</title>
<path fill="none" stroke="midnightblue" d="M1605.13,-265.248C1707.67,-262.663 2025.33,-252.49 2286.5,-221 2295.77,-219.882 2305.59,-218.39 2315.07,-216.788"/>
<polygon fill="midnightblue" stroke="midnightblue" points="2315.93,-220.189 2325.18,-215.018 2314.72,-213.294 2315.93,-220.189"/>
</g>
<!-- Node21 -->
<g id="node21" class="node"><title>Node21</title>
<g id="a_node21"><a xlink:title=" ">
<polygon fill="white" stroke="#bfbfbf" points="2457,-190.5 2457,-220.5 2568,-220.5 2568,-190.5 2457,-190.5"/>
<text text-anchor="start" x="2465" y="-208.5" font-family="Helvetica,sans-Serif" font-size="10.00">ti/sysbios/family/c64p</text>
<text text-anchor="middle" x="2512.5" y="-197.5" font-family="Helvetica,sans-Serif" font-size="10.00">/Cache.h</text>
</a>
</g>
</g>
<!-- Node1&#45;&gt;Node21 -->
<g id="edge20" class="edge"><title>Node1&#45;&gt;Node21</title>
<path fill="none" stroke="midnightblue" d="M1605.15,-266.342C1721.01,-267.086 2114.1,-266.008 2446.45,-221.13"/>
<polygon fill="midnightblue" stroke="midnightblue" points="2447.32,-224.543 2456.76,-219.721 2446.37,-217.608 2447.32,-224.543"/>
</g>
<!-- Node22 -->
<g id="node22" class="node"><title>Node22</title>
<g id="a_node22"><a xlink:title=" ">
<polygon fill="white" stroke="#bfbfbf" points="2586,-190.5 2586,-220.5 2697,-220.5 2697,-190.5 2586,-190.5"/>
<text text-anchor="start" x="2594" y="-208.5" font-family="Helvetica,sans-Serif" font-size="10.00">ti/sysbios/family/c64p</text>
<text text-anchor="middle" x="2641.5" y="-197.5" font-family="Helvetica,sans-Serif" font-size="10.00">/Hwi.h</text>
</a>
</g>
</g>
<!-- Node1&#45;&gt;Node22 -->
<g id="edge21" class="edge"><title>Node1&#45;&gt;Node22</title>
<path fill="none" stroke="midnightblue" d="M1605.12,-265.301C1754.92,-262.067 2363.18,-247.617 2575.64,-221.058"/>
<polygon fill="midnightblue" stroke="midnightblue" points="2576.29,-224.503 2585.76,-219.743 2575.39,-217.561 2576.29,-224.503"/>
</g>
<!-- Node23 -->
<g id="node23" class="node"><title>Node23</title>
<g id="a_node23"><a xlink:title=" ">
<polygon fill="white" stroke="#bfbfbf" points="2715,-190.5 2715,-220.5 2826,-220.5 2826,-190.5 2715,-190.5"/>
<text text-anchor="start" x="2723" y="-208.5" font-family="Helvetica,sans-Serif" font-size="10.00">ti/sysbios/family/c64p</text>
<text text-anchor="middle" x="2770.5" y="-197.5" font-family="Helvetica,sans-Serif" font-size="10.00">/EventCombiner.h</text>
</a>
</g>
</g>
<!-- Node1&#45;&gt;Node23 -->
<g id="edge22" class="edge"><title>Node1&#45;&gt;Node23</title>
<path fill="none" stroke="midnightblue" d="M1605.23,-265.496C1767.03,-262.955 2465.28,-250.531 2704.73,-221.041"/>
<polygon fill="midnightblue" stroke="midnightblue" points="2705.29,-224.499 2714.76,-219.76 2704.4,-217.555 2705.29,-224.499"/>
</g>
<!-- Node24 -->
<g id="node24" class="node"><title>Node24</title>
<g id="a_node24"><a xlink:title=" ">
<polygon fill="white" stroke="#bfbfbf" points="2844.5,-196 2844.5,-215 2956.5,-215 2956.5,-196 2844.5,-196"/>
<text text-anchor="middle" x="2900.5" y="-203" font-family="Helvetica,sans-Serif" font-size="10.00">ti/sysbios/utils/Load.h</text>
</a>
</g>
</g>
<!-- Node1&#45;&gt;Node24 -->
<g id="edge23" class="edge"><title>Node1&#45;&gt;Node24</title>
<path fill="none" stroke="midnightblue" d="M1605.22,-265.639C1780.34,-263.636 2587.48,-252.804 2835.5,-221 2842.75,-220.07 2850.39,-218.714 2857.78,-217.2"/>
<polygon fill="midnightblue" stroke="midnightblue" points="2858.61,-220.602 2867.64,-215.062 2857.13,-213.76 2858.61,-220.602"/>
</g>
<!-- Node25 -->
<g id="node25" class="node"><title>Node25</title>
<g id="a_node25"><a xlink:title=" ">
<polygon fill="white" stroke="#bfbfbf" points="1653.5,-6 1653.5,-25 1785.5,-25 1785.5,-6 1653.5,-6"/>
<text text-anchor="middle" x="1719.5" y="-13" font-family="Helvetica,sans-Serif" font-size="10.00">ti/common/sys_common.h</text>
</a>
</g>
</g>
<!-- Node1&#45;&gt;Node25 -->
<g id="edge24" class="edge"><title>Node1&#45;&gt;Node25</title>
<path fill="none" stroke="midnightblue" d="M1560.67,-257.496C1525.02,-228.503 1416.52,-131.751 1469.5,-67 1491.16,-40.5288 1577.72,-27.616 1642.96,-21.5375"/>
<polygon fill="midnightblue" stroke="midnightblue" points="1643.59,-24.9956 1653.24,-20.6196 1642.96,-18.0234 1643.59,-24.9956"/>
</g>
<!-- Node26 -->
<g id="node26" class="node"><title>Node26</title>
<g id="a_node26"><a xlink:title=" ">
<polygon fill="white" stroke="#bfbfbf" points="2974.5,-190.5 2974.5,-220.5 3098.5,-220.5 3098.5,-190.5 2974.5,-190.5"/>
<text text-anchor="start" x="2982.5" y="-208.5" font-family="Helvetica,sans-Serif" font-size="10.00">ti/common/mmwave_sdk</text>
<text text-anchor="middle" x="3036.5" y="-197.5" font-family="Helvetica,sans-Serif" font-size="10.00">_version.h</text>
</a>
</g>
</g>
<!-- Node1&#45;&gt;Node26 -->
<g id="edge25" class="edge"><title>Node1&#45;&gt;Node26</title>
<path fill="none" stroke="midnightblue" d="M1605.25,-265.686C1788.8,-263.86 2669.02,-253.589 2964.01,-221"/>
<polygon fill="midnightblue" stroke="midnightblue" points="2964.72,-224.442 2974.26,-219.831 2963.93,-217.488 2964.72,-224.442"/>
</g>
<!-- Node27 -->
<g id="node27" class="node"><title>Node27</title>
<g id="a_node27"><a xlink:title=" ">
<polygon fill="white" stroke="#bfbfbf" points="3116.5,-190.5 3116.5,-220.5 3214.5,-220.5 3214.5,-190.5 3116.5,-190.5"/>
<text text-anchor="start" x="3124.5" y="-208.5" font-family="Helvetica,sans-Serif" font-size="10.00">ti/utils/cycleprofiler</text>
<text text-anchor="middle" x="3165.5" y="-197.5" font-family="Helvetica,sans-Serif" font-size="10.00">/cycle_profiler.h</text>
</a>
</g>
</g>
<!-- Node1&#45;&gt;Node27 -->
<g id="edge26" class="edge"><title>Node1&#45;&gt;Node27</title>
<path fill="none" stroke="midnightblue" d="M1605.12,-266.001C1799.47,-265.857 2781.5,-263.092 3105.95,-220.959"/>
<polygon fill="midnightblue" stroke="midnightblue" points="3106.83,-224.371 3116.28,-219.572 3105.9,-217.433 3106.83,-224.371"/>
</g>
<!-- Node28 -->
<g id="node28" class="node"><title>Node28</title>
<g id="a_node28"><a xlink:title=" ">
<polygon fill="white" stroke="#bfbfbf" points="2521,-123.5 2521,-153.5 2610,-153.5 2610,-123.5 2521,-123.5"/>
<text text-anchor="start" x="2529" y="-141.5" font-family="Helvetica,sans-Serif" font-size="10.00">ti/drivers/mailbox</text>
<text text-anchor="middle" x="2565.5" y="-130.5" font-family="Helvetica,sans-Serif" font-size="10.00">/mailbox.h</text>
</a>
</g>
</g>
<!-- Node1&#45;&gt;Node28 -->
<g id="edge27" class="edge"><title>Node1&#45;&gt;Node28</title>
<path fill="none" stroke="midnightblue" d="M1605.06,-264.427C1653.21,-261.157 1743.88,-251.181 1814.5,-221 1836.16,-211.741 1835.29,-197.857 1857.5,-190 1993.67,-141.827 2363.64,-175.328 2506.5,-154 2507.97,-153.781 2509.45,-153.542 2510.95,-153.287"/>
<polygon fill="midnightblue" stroke="midnightblue" points="2511.73,-156.7 2520.9,-151.385 2510.42,-149.825 2511.73,-156.7"/>
</g>
<!-- Node29 -->
<g id="node29" class="node"><title>Node29</title>
<g id="a_node29"><a xlink:title=" ">
<polygon fill="white" stroke="#bfbfbf" points="1478.5,-67.5 1478.5,-86.5 1608.5,-86.5 1608.5,-67.5 1478.5,-67.5"/>
<text text-anchor="middle" x="1543.5" y="-74.5" font-family="Helvetica,sans-Serif" font-size="10.00">ti/drivers/adcbuf/ADCBuf.h</text>
</a>
</g>
</g>
<!-- Node1&#45;&gt;Node29 -->
<g id="edge28" class="edge"><title>Node1&#45;&gt;Node29</title>
<path fill="none" stroke="midnightblue" d="M1565,-257.318C1551.93,-239.254 1522.84,-195.816 1512.5,-154 1509.19,-140.625 1508.41,-136.156 1512.5,-123 1515.73,-112.622 1522.28,-102.521 1528.52,-94.5268"/>
<polygon fill="midnightblue" stroke="midnightblue" points="1531.29,-96.6818 1535.02,-86.7661 1525.92,-92.1902 1531.29,-96.6818"/>
</g>
<!-- Node30 -->
<g id="node30" class="node"><title>Node30</title>
<g id="a_node30"><a xlink:title=" ">
<polygon fill="white" stroke="#bfbfbf" points="2628.5,-129 2628.5,-148 2732.5,-148 2732.5,-129 2628.5,-129"/>
<text text-anchor="middle" x="2680.5" y="-136" font-family="Helvetica,sans-Serif" font-size="10.00">ti/drivers/esm/esm.h</text>
</a>
</g>
</g>
<!-- Node1&#45;&gt;Node30 -->
<g id="edge29" class="edge"><title>Node1&#45;&gt;Node30</title>
<path fill="none" stroke="midnightblue" d="M1605.41,-265.301C1659.24,-263.157 1766.72,-254.617 1850.5,-221 1873.04,-211.956 1872.5,-197.788 1895.5,-190 2048.08,-138.341 2460.02,-176.722 2619.5,-154 2625.94,-153.083 2632.69,-151.805 2639.26,-150.384"/>
<polygon fill="midnightblue" stroke="midnightblue" points="2640.4,-153.713 2649.37,-148.065 2638.84,-146.89 2640.4,-153.713"/>
</g>
<!-- Node31 -->
<g id="node31" class="node"><title>Node31</title>
<g id="a_node31"><a xlink:title=" ">
<polygon fill="white" stroke="#bfbfbf" points="2750.5,-129 2750.5,-148 2880.5,-148 2880.5,-129 2750.5,-129"/>
<text text-anchor="middle" x="2815.5" y="-136" font-family="Helvetica,sans-Serif" font-size="10.00">ti/drivers/pinmux/pinmux.h</text>
</a>
</g>
</g>
<!-- Node1&#45;&gt;Node31 -->
<g id="edge30" class="edge"><title>Node1&#45;&gt;Node31</title>
<path fill="none" stroke="midnightblue" d="M1605.02,-266.093C1664.09,-265.21 1789.75,-258.602 1887.5,-221 1910.51,-212.149 1910.09,-197.726 1933.5,-190 2104.18,-133.673 2563.04,-175.34 2741.5,-154 2750,-152.983 2758.99,-151.54 2767.66,-149.954"/>
<polygon fill="midnightblue" stroke="midnightblue" points="2768.48,-153.36 2777.65,-148.043 2767.17,-146.485 2768.48,-153.36"/>
</g>
<!-- Node32 -->
<g id="node32" class="node"><title>Node32</title>
<g id="a_node32"><a xlink:title=" ">
<polygon fill="white" stroke="#bfbfbf" points="2898.5,-129 2898.5,-148 2996.5,-148 2996.5,-129 2898.5,-129"/>
<text text-anchor="middle" x="2947.5" y="-136" font-family="Helvetica,sans-Serif" font-size="10.00">ti/drivers/soc/soc.h</text>
</a>
</g>
</g>
<!-- Node1&#45;&gt;Node32 -->
<g id="edge31" class="edge"><title>Node1&#45;&gt;Node32</title>
<path fill="none" stroke="midnightblue" d="M1605.3,-266.696C1669.58,-266.949 1812.99,-262.331 1924.5,-221 1947.96,-212.304 1947.68,-197.661 1971.5,-190 2165.85,-127.499 2687.4,-182.911 2889.5,-154 2895.56,-153.134 2901.9,-151.898 2908.07,-150.508"/>
<polygon fill="midnightblue" stroke="midnightblue" points="2909.32,-153.807 2918.23,-148.063 2907.68,-147.002 2909.32,-153.807"/>
</g>
<!-- Node33 -->
<g id="node33" class="node"><title>Node33</title>
<g id="a_node33"><a xlink:href="mm_wave___x_s_s_8h.html" target="_top" xlink:title=" ">
<polygon fill="white" stroke="black" points="1675.5,-196 1675.5,-215 1805.5,-215 1805.5,-196 1675.5,-196"/>
<text text-anchor="middle" x="1740.5" y="-203" font-family="Helvetica,sans-Serif" font-size="10.00">common/mmWave_XSS.h</text>
</a>
</g>
</g>
<!-- Node1&#45;&gt;Node33 -->
<g id="edge32" class="edge"><title>Node1&#45;&gt;Node33</title>
<path fill="none" stroke="midnightblue" d="M1595.71,-257.475C1624.83,-247.225 1673.87,-229.959 1706.7,-218.399"/>
<polygon fill="midnightblue" stroke="midnightblue" points="1708.06,-221.631 1716.33,-215.009 1705.74,-215.029 1708.06,-221.631"/>
</g>
<!-- Node41 -->
<g id="node41" class="node"><title>Node41</title>
<g id="a_node41"><a xlink:href="app__cfg_8h.html" target="_top" xlink:title=" ">
<polygon fill="white" stroke="black" points="1323,-67.5 1323,-86.5 1422,-86.5 1422,-67.5 1323,-67.5"/>
<text text-anchor="middle" x="1372.5" y="-74.5" font-family="Helvetica,sans-Serif" font-size="10.00">common/app_cfg.h</text>
</a>
</g>
</g>
<!-- Node1&#45;&gt;Node41 -->
<g id="edge68" class="edge"><title>Node1&#45;&gt;Node41</title>
<path fill="none" stroke="midnightblue" d="M1547.2,-257.38C1528.02,-249.784 1501.28,-237.377 1481.5,-221 1436.76,-183.958 1399.48,-125.221 1382.44,-95.893"/>
<polygon fill="midnightblue" stroke="midnightblue" points="1385.27,-93.7885 1377.28,-86.8294 1379.19,-97.2515 1385.27,-93.7885"/>
</g>
<!-- Node44 -->
<g id="node44" class="node"><title>Node44</title>
<g id="a_node44"><a xlink:href="dss__data__path_8h.html" target="_top" xlink:title="This is the data path processing header.">
<polygon fill="white" stroke="black" points="1797,-129 1797,-148 1886,-148 1886,-129 1797,-129"/>
<text text-anchor="middle" x="1841.5" y="-136" font-family="Helvetica,sans-Serif" font-size="10.00">dss_data_path.h</text>
</a>
</g>
</g>
<!-- Node1&#45;&gt;Node44 -->
<g id="edge63" class="edge"><title>Node1&#45;&gt;Node44</title>
<path fill="none" stroke="midnightblue" d="M1579.83,-257.377C1595.43,-241.727 1630.68,-208.552 1666.5,-190 1704.45,-170.346 1751.11,-157.368 1786.7,-149.496"/>
<polygon fill="midnightblue" stroke="midnightblue" points="1787.85,-152.829 1796.9,-147.313 1786.39,-145.984 1787.85,-152.829"/>
</g>
<!-- Node48 -->
<g id="node48" class="node"><title>Node48</title>
<g id="a_node48"><a xlink:href="_e_k_f___x_y_z___interface_8h.html" target="_top" xlink:title="Interface the Extended Kalman Filter.">
<polygon fill="white" stroke="black" points="3015,-129 3015,-148 3124,-148 3124,-129 3015,-129"/>
<text text-anchor="middle" x="3069.5" y="-136" font-family="Helvetica,sans-Serif" font-size="10.00">EKF_XYZ_Interface.h</text>
</a>
</g>
</g>
<!-- Node1&#45;&gt;Node48 -->
<g id="edge64" class="edge"><title>Node1&#45;&gt;Node48</title>
<path fill="none" stroke="midnightblue" d="M1605.01,-264.362C1687.35,-259.985 1897.57,-246.573 1962.5,-221 1984.09,-212.498 1982.6,-197.647 2004.5,-190 2109.57,-153.316 2895.14,-168.359 3005.5,-154 3012.48,-153.091 3019.83,-151.776 3026.95,-150.304"/>
<polygon fill="midnightblue" stroke="midnightblue" points="3028.14,-153.626 3037.15,-148.063 3026.63,-146.789 3028.14,-153.626"/>
</g>
<!-- Node49 -->
<g id="node49" class="node"><title>Node49</title>
<g id="a_node49"><a xlink:href="mmw__messages_8h.html" target="_top" xlink:title=" ">
<polygon fill="white" stroke="black" points="0,-196 0,-215 139,-215 139,-196 0,-196"/>
<text text-anchor="middle" x="69.5" y="-203" font-family="Helvetica,sans-Serif" font-size="10.00">common/mmw_messages.h</text>
</a>
</g>
</g>
<!-- Node1&#45;&gt;Node49 -->
<g id="edge66" class="edge"><title>Node1&#45;&gt;Node49</title>
<path fill="none" stroke="midnightblue" d="M1537.8,-265.568C1350.34,-263.07 434.531,-249.575 153.5,-221 143.341,-219.967 132.556,-218.438 122.221,-216.754"/>
<polygon fill="midnightblue" stroke="midnightblue" points="122.519,-213.255 112.075,-215.032 121.348,-220.156 122.519,-213.255"/>
</g>
<!-- Node50 -->
<g id="node50" class="node"><title>Node50</title>
<g id="a_node50"><a xlink:title=" ">
<polygon fill="white" stroke="#bfbfbf" points="3232.5,-196 3232.5,-215 3288.5,-215 3288.5,-196 3232.5,-196"/>
<text text-anchor="middle" x="3260.5" y="-203" font-family="Helvetica,sans-Serif" font-size="10.00">cpy_tbl.h</text>
</a>
</g>
</g>
<!-- Node1&#45;&gt;Node50 -->
<g id="edge69" class="edge"><title>Node1&#45;&gt;Node50</title>
<path fill="none" stroke="midnightblue" d="M1605.14,-265.781C1825.58,-264.254 3059.72,-254.263 3223.5,-221 3226.58,-220.375 3229.73,-219.513 3232.84,-218.519"/>
<polygon fill="midnightblue" stroke="midnightblue" points="3234.24,-221.733 3242.44,-215.02 3231.84,-215.156 3234.24,-221.733"/>
</g>
<!-- Node33&#45;&gt;Node16 -->
<g id="edge46" class="edge"><title>Node33&#45;&gt;Node16</title>
<path fill="none" stroke="midnightblue" d="M1723.1,-195.869C1700.89,-184.845 1662.21,-165.655 1636.24,-152.768"/>
<polygon fill="midnightblue" stroke="midnightblue" points="1637.48,-149.477 1626.97,-148.167 1634.37,-155.747 1637.48,-149.477"/>
</g>
<!-- Node33&#45;&gt;Node17 -->
<g id="edge45" class="edge"><title>Node33&#45;&gt;Node17</title>
<path fill="none" stroke="midnightblue" d="M1743.34,-195.945C1747.94,-180.572 1755.45,-147.588 1744.5,-123 1738.93,-110.498 1727.98,-100.012 1717.75,-92.3167"/>
<polygon fill="midnightblue" stroke="midnightblue" points="1719.66,-89.3794 1709.45,-86.5256 1715.65,-95.1193 1719.66,-89.3794"/>
</g>
<!-- Node33&#45;&gt;Node28 -->
<g id="edge39" class="edge"><title>Node33&#45;&gt;Node28</title>
<path fill="none" stroke="midnightblue" d="M1781.35,-195.963C1793.57,-193.691 1807.04,-191.464 1819.5,-190 2123.16,-154.327 2204.03,-198.684 2506.5,-154 2507.97,-153.783 2509.45,-153.547 2510.95,-153.293"/>
<polygon fill="midnightblue" stroke="midnightblue" points="2511.73,-156.707 2520.9,-151.4 2510.42,-149.83 2511.73,-156.707"/>
</g>
<!-- Node33&#45;&gt;Node29 -->
<g id="edge42" class="edge"><title>Node33&#45;&gt;Node29</title>
<path fill="none" stroke="midnightblue" d="M1739.41,-195.935C1736.83,-179.33 1728.81,-142.667 1706.5,-123 1690.82,-109.176 1642.13,-96.8047 1602.02,-88.5491"/>
<polygon fill="midnightblue" stroke="midnightblue" points="1602.52,-85.0808 1592.03,-86.5405 1601.14,-91.9434 1602.52,-85.0808"/>
</g>
<!-- Node33&#45;&gt;Node30 -->
<g id="edge38" class="edge"><title>Node33&#45;&gt;Node30</title>
<path fill="none" stroke="midnightblue" d="M1802.04,-195.982C1819.9,-193.751 1839.45,-191.542 1857.5,-190 2195.31,-161.129 2283.79,-201.409 2619.5,-154 2626.01,-153.081 2632.84,-151.789 2639.48,-150.351"/>
<polygon fill="midnightblue" stroke="midnightblue" points="2640.72,-153.657 2649.68,-148.004 2639.15,-146.835 2640.72,-153.657"/>
</g>
<!-- Node33&#45;&gt;Node31 -->
<g id="edge37" class="edge"><title>Node33&#45;&gt;Node31</title>
<path fill="none" stroke="midnightblue" d="M1805.68,-197.662C1833.35,-194.951 1865.97,-192.008 1895.5,-190 2270.97,-164.465 2367.78,-198.309 2741.5,-154 2750,-152.992 2758.99,-151.552 2767.66,-149.968"/>
<polygon fill="midnightblue" stroke="midnightblue" points="2768.48,-153.374 2777.65,-148.058 2767.17,-146.499 2768.48,-153.374"/>
</g>
<!-- Node33&#45;&gt;Node32 -->
<g id="edge34" class="edge"><title>Node33&#45;&gt;Node32</title>
<path fill="none" stroke="midnightblue" d="M1805.68,-198.995C1843.06,-195.989 1890.89,-192.402 1933.5,-190 2358.02,-166.069 2468.55,-213.883 2889.5,-154 2895.56,-153.138 2901.9,-151.905 2908.07,-150.517"/>
<polygon fill="midnightblue" stroke="midnightblue" points="2909.32,-153.815 2918.23,-148.072 2907.69,-147.01 2909.32,-153.815"/>
</g>
<!-- Node34 -->
<g id="node34" class="node"><title>Node34</title>
<g id="a_node34"><a xlink:title=" ">
<polygon fill="white" stroke="#bfbfbf" points="2086.5,-67.5 2086.5,-86.5 2222.5,-86.5 2222.5,-67.5 2086.5,-67.5"/>
<text text-anchor="middle" x="2154.5" y="-74.5" font-family="Helvetica,sans-Serif" font-size="10.00">ti/common/mmwave_error.h</text>
</a>
</g>
</g>
<!-- Node33&#45;&gt;Node34 -->
<g id="edge33" class="edge"><title>Node33&#45;&gt;Node34</title>
<path fill="none" stroke="midnightblue" d="M1778.73,-195.993C1810.86,-187.917 1857.35,-174.021 1894.5,-154 1913.99,-143.497 1913.43,-132.356 1933.5,-123 1960.35,-110.482 2032.68,-97.0384 2087.34,-88.1383"/>
<polygon fill="midnightblue" stroke="midnightblue" points="2088.01,-91.5757 2097.33,-86.5306 2086.9,-84.6647 2088.01,-91.5757"/>
</g>
<!-- Node35 -->
<g id="node35" class="node"><title>Node35</title>
<g id="a_node35"><a xlink:title=" ">
<polygon fill="white" stroke="#bfbfbf" points="1942.5,-129 1942.5,-148 2036.5,-148 2036.5,-129 1942.5,-129"/>
<text text-anchor="middle" x="1989.5" y="-136" font-family="Helvetica,sans-Serif" font-size="10.00">ti/drivers/crc/crc.h</text>
</a>
</g>
</g>
<!-- Node33&#45;&gt;Node35 -->
<g id="edge35" class="edge"><title>Node33&#45;&gt;Node35</title>
<path fill="none" stroke="midnightblue" d="M1773.31,-195.936C1817.91,-184.293 1897.74,-163.454 1946.91,-150.617"/>
<polygon fill="midnightblue" stroke="midnightblue" points="1947.83,-153.996 1956.62,-148.083 1946.06,-147.223 1947.83,-153.996"/>
</g>
<!-- Node36 -->
<g id="node36" class="node"><title>Node36</title>
<g id="a_node36"><a xlink:title=" ">
<polygon fill="white" stroke="#bfbfbf" points="2055,-129 2055,-148 2164,-148 2164,-129 2055,-129"/>
<text text-anchor="middle" x="2109.5" y="-136" font-family="Helvetica,sans-Serif" font-size="10.00">ti/drivers/uart/UART.h</text>
</a>
</g>
</g>
<!-- Node33&#45;&gt;Node36 -->
<g id="edge36" class="edge"><title>Node33&#45;&gt;Node36</title>
<path fill="none" stroke="midnightblue" d="M1786,-195.959C1796.96,-193.954 1808.64,-191.861 1819.5,-190 1919.75,-172.818 1945.63,-173.247 2045.5,-154 2051.38,-152.867 2057.54,-151.589 2063.62,-150.273"/>
<polygon fill="midnightblue" stroke="midnightblue" points="2064.7,-153.618 2073.71,-148.04 2063.19,-146.783 2064.7,-153.618"/>
</g>
<!-- Node37 -->
<g id="node37" class="node"><title>Node37</title>
<g id="a_node37"><a xlink:title=" ">
<polygon fill="white" stroke="#bfbfbf" points="1873,-6 1873,-25 2016,-25 2016,-6 1873,-6"/>
<text text-anchor="middle" x="1944.5" y="-13" font-family="Helvetica,sans-Serif" font-size="10.00">ti/control/mmwave/mmwave.h</text>
</a>
</g>
</g>
<!-- Node33&#45;&gt;Node37 -->
<g id="edge40" class="edge"><title>Node33&#45;&gt;Node37</title>
<path fill="none" stroke="midnightblue" d="M1776.66,-195.945C1787.49,-193.672 1799.42,-191.449 1810.5,-190 1881.34,-180.729 2392.68,-193.07 2452.5,-154 2480.46,-135.739 2478.73,-119.476 2486.5,-87 2488.57,-78.355 2492.49,-73.5705 2486.5,-67 2456.14,-33.6794 2169.97,-21.9752 2026.16,-18.1746"/>
<polygon fill="midnightblue" stroke="midnightblue" points="2026.15,-14.6731 2016.06,-17.9144 2025.97,-21.6708 2026.15,-14.6731"/>
</g>
<!-- Node38 -->
<g id="node38" class="node"><title>Node38</title>
<g id="a_node38"><a xlink:title=" ">
<polygon fill="white" stroke="#bfbfbf" points="2182,-129 2182,-148 2289,-148 2289,-129 2182,-129"/>
<text text-anchor="middle" x="2235.5" y="-136" font-family="Helvetica,sans-Serif" font-size="10.00">ti/drivers/cbuff/cbuff.h</text>
</a>
</g>
</g>
<!-- Node33&#45;&gt;Node38 -->
<g id="edge41" class="edge"><title>Node33&#45;&gt;Node38</title>
<path fill="none" stroke="midnightblue" d="M1783.45,-195.971C1795.11,-193.831 1807.77,-191.671 1819.5,-190 1976.07,-167.707 2017.52,-180.061 2173.5,-154 2179.73,-152.96 2186.26,-151.663 2192.65,-150.274"/>
<polygon fill="midnightblue" stroke="midnightblue" points="2193.54,-153.663 2202.52,-148.042 2191.99,-146.835 2193.54,-153.663"/>
</g>
<!-- Node39 -->
<g id="node39" class="node"><title>Node39</title>
<g id="a_node39"><a xlink:title=" ">
<polygon fill="white" stroke="#bfbfbf" points="2241,-67.5 2241,-86.5 2356,-86.5 2356,-67.5 2241,-67.5"/>
<text text-anchor="middle" x="2298.5" y="-74.5" font-family="Helvetica,sans-Serif" font-size="10.00">ti/drivers/edma/edma.h</text>
</a>
</g>
</g>
<!-- Node33&#45;&gt;Node39 -->
<g id="edge43" class="edge"><title>Node33&#45;&gt;Node39</title>
<path fill="none" stroke="midnightblue" d="M1781.76,-195.935C1793.88,-193.69 1807.18,-191.485 1819.5,-190 1887.57,-181.796 2388.46,-203.874 2435.5,-154 2465.24,-122.466 2404.86,-100.74 2355.03,-88.831"/>
<polygon fill="midnightblue" stroke="midnightblue" points="2355.77,-85.4089 2345.24,-86.5802 2354.2,-92.2311 2355.77,-85.4089"/>
</g>
<!-- Node40 -->
<g id="node40" class="node"><title>Node40</title>
<g id="a_node40"><a xlink:title=" ">
<polygon fill="white" stroke="#bfbfbf" points="2307,-129 2307,-148 2426,-148 2426,-129 2307,-129"/>
<text text-anchor="middle" x="2366.5" y="-136" font-family="Helvetica,sans-Serif" font-size="10.00">ti/drivers/osal/DebugP.h</text>
</a>
</g>
</g>
<!-- Node33&#45;&gt;Node40 -->
<g id="edge44" class="edge"><title>Node33&#45;&gt;Node40</title>
<path fill="none" stroke="midnightblue" d="M1782.19,-195.99C1794.19,-193.774 1807.33,-191.57 1819.5,-190 2031.24,-162.691 2087.18,-184.33 2298.5,-154 2305.81,-152.951 2313.51,-151.575 2321,-150.088"/>
<polygon fill="midnightblue" stroke="midnightblue" points="2321.94,-153.468 2331.02,-148.012 2320.52,-146.614 2321.94,-153.468"/>
</g>
<!-- Node33&#45;&gt;Node41 -->
<g id="edge47" class="edge"><title>Node33&#45;&gt;Node41</title>
<path fill="none" stroke="midnightblue" d="M1734.57,-195.803C1721.37,-176.695 1689.44,-132.031 1673.5,-123 1652.95,-111.352 1514.2,-94.0154 1432.43,-84.6239"/>
<polygon fill="midnightblue" stroke="midnightblue" points="1432.6,-81.1204 1422.27,-83.4635 1431.81,-88.0753 1432.6,-81.1204"/>
</g>
<!-- Node33&#45;&gt;Node44 -->
<g id="edge51" class="edge"><title>Node33&#45;&gt;Node44</title>
<path fill="none" stroke="midnightblue" d="M1754.12,-195.734C1770.93,-184.916 1799.73,-166.383 1819.64,-153.566"/>
<polygon fill="midnightblue" stroke="midnightblue" points="1821.58,-156.482 1828.09,-148.127 1817.79,-150.596 1821.58,-156.482"/>
</g>
<!-- Node41&#45;&gt;Node25 -->
<g id="edge49" class="edge"><title>Node41&#45;&gt;Node25</title>
<path fill="none" stroke="midnightblue" d="M1422.22,-67.4751C1484.96,-56.7164 1592.77,-38.2304 1659.87,-26.724"/>
<polygon fill="midnightblue" stroke="midnightblue" points="1660.61,-30.1489 1669.88,-25.0091 1659.43,-23.2495 1660.61,-30.1489"/>
</g>
<!-- Node42 -->
<g id="node42" class="node"><title>Node42</title>
<g id="a_node42"><a xlink:href="device__cfg_8h.html" target="_top" xlink:title="This file holds constants related to the system chirp configuration as well as the calling the profil...">
<polygon fill="white" stroke="black" points="1279.5,-6 1279.5,-25 1349.5,-25 1349.5,-6 1279.5,-6"/>
<text text-anchor="middle" x="1314.5" y="-13" font-family="Helvetica,sans-Serif" font-size="10.00">device_cfg.h</text>
</a>
</g>
</g>
<!-- Node41&#45;&gt;Node42 -->
<g id="edge48" class="edge"><title>Node41&#45;&gt;Node42</title>
<path fill="none" stroke="midnightblue" d="M1364.19,-67.4751C1355.32,-58.3733 1341.05,-43.741 1330.08,-32.483"/>
<polygon fill="midnightblue" stroke="midnightblue" points="1332.28,-29.7268 1322.79,-25.0091 1327.27,-34.613 1332.28,-29.7268"/>
</g>
<!-- Node43 -->
<g id="node43" class="node"><title>Node43</title>
<g id="a_node43"><a xlink:href="config__chirp__design___u_s_r_r30_8h.html" target="_top" xlink:title=" ">
<polygon fill="white" stroke="black" points="1367.5,-0.5 1367.5,-30.5 1495.5,-30.5 1495.5,-0.5 1367.5,-0.5"/>
<text text-anchor="start" x="1375.5" y="-18.5" font-family="Helvetica,sans-Serif" font-size="10.00">common/profiles/config</text>
<text text-anchor="middle" x="1431.5" y="-7.5" font-family="Helvetica,sans-Serif" font-size="10.00">_chirp_design_USRR30.h</text>
</a>
</g>
</g>
<!-- Node41&#45;&gt;Node43 -->
<g id="edge50" class="edge"><title>Node41&#45;&gt;Node43</title>
<path fill="none" stroke="midnightblue" d="M1380.95,-67.4751C1388.65,-59.7179 1400.32,-47.9435 1410.51,-37.6645"/>
<polygon fill="midnightblue" stroke="midnightblue" points="1413.04,-40.0883 1417.59,-30.523 1408.07,-35.1594 1413.04,-40.0883"/>
</g>
<!-- Node44&#45;&gt;Node17 -->
<g id="edge57" class="edge"><title>Node44&#45;&gt;Node17</title>
<path fill="none" stroke="midnightblue" d="M1820.44,-128.975C1795.44,-118.857 1753.56,-101.905 1725.01,-90.3507"/>
<polygon fill="midnightblue" stroke="midnightblue" points="1726.11,-87.0168 1715.52,-86.5091 1723.48,-93.5054 1726.11,-87.0168"/>
</g>
<!-- Node44&#45;&gt;Node25 -->
<g id="edge58" class="edge"><title>Node44&#45;&gt;Node25</title>
<path fill="none" stroke="midnightblue" d="M1832.76,-128.813C1819.36,-115.502 1792.95,-89.2604 1770.5,-67 1758.77,-55.3696 1745.51,-42.2431 1735.46,-32.2885"/>
<polygon fill="midnightblue" stroke="midnightblue" points="1737.74,-29.6208 1728.17,-25.0743 1732.81,-34.5962 1737.74,-29.6208"/>
</g>
<!-- Node44&#45;&gt;Node29 -->
<g id="edge60" class="edge"><title>Node44&#45;&gt;Node29</title>
<path fill="none" stroke="midnightblue" d="M1798.8,-128.975C1745.36,-118.305 1653.85,-100.034 1596.13,-88.5089"/>
<polygon fill="midnightblue" stroke="midnightblue" points="1596.61,-85.0349 1586.12,-86.5091 1595.24,-91.8994 1596.61,-85.0349"/>
</g>
<!-- Node44&#45;&gt;Node34 -->
<g id="edge59" class="edge"><title>Node44&#45;&gt;Node34</title>
<path fill="none" stroke="midnightblue" d="M1874.49,-128.987C1882.94,-126.918 1892.04,-124.788 1900.5,-123 1964.79,-109.421 2038.82,-96.6255 2090.31,-88.1761"/>
<polygon fill="midnightblue" stroke="midnightblue" points="2090.99,-91.6111 2100.29,-86.5452 2089.86,-84.7026 2090.99,-91.6111"/>
</g>
<!-- Node44&#45;&gt;Node39 -->
<g id="edge61" class="edge"><title>Node44&#45;&gt;Node39</title>
<path fill="none" stroke="midnightblue" d="M1886.37,-130.095C1901.34,-127.713 1918.13,-125.14 1933.5,-123 2062.41,-105.061 2097.47,-103.927 2230.58,-87.0987"/>
<polygon fill="midnightblue" stroke="midnightblue" points="2231.28,-90.5378 2240.76,-85.8053 2230.4,-83.5936 2231.28,-90.5378"/>
</g>
<!-- Node44&#45;&gt;Node41 -->
<g id="edge56" class="edge"><title>Node44&#45;&gt;Node41</title>
<path fill="none" stroke="midnightblue" d="M1796.95,-131.849C1712.24,-121.101 1527.87,-97.7106 1432.43,-85.6027"/>
<polygon fill="midnightblue" stroke="midnightblue" points="1432.72,-82.1118 1422.36,-84.3253 1431.84,-89.0561 1432.72,-82.1118"/>
</g>
<!-- Node45 -->
<g id="node45" class="node"><title>Node45</title>
<g id="a_node45"><a xlink:href="detected__obj_8h.html" target="_top" xlink:title=" ">
<polygon fill="white" stroke="black" points="1947,-67.5 1947,-86.5 2068,-86.5 2068,-67.5 1947,-67.5"/>
<text text-anchor="middle" x="2007.5" y="-74.5" font-family="Helvetica,sans-Serif" font-size="10.00">common/detected_obj.h</text>
</a>
</g>
</g>
<!-- Node44&#45;&gt;Node45 -->
<g id="edge52" class="edge"><title>Node44&#45;&gt;Node45</title>
<path fill="none" stroke="midnightblue" d="M1865.28,-128.975C1893.88,-118.725 1942.05,-101.459 1974.3,-89.8994"/>
<polygon fill="midnightblue" stroke="midnightblue" points="1975.53,-93.178 1983.76,-86.5091 1973.17,-86.5885 1975.53,-93.178"/>
</g>
<!-- Node46 -->
<g id="node46" class="node"><title>Node46</title>
<g id="a_node46"><a xlink:href="mrr__config_8h.html" target="_top" xlink:title=" ">
<polygon fill="white" stroke="black" points="1818.5,-67.5 1818.5,-86.5 1928.5,-86.5 1928.5,-67.5 1818.5,-67.5"/>
<text text-anchor="middle" x="1873.5" y="-74.5" font-family="Helvetica,sans-Serif" font-size="10.00">common/mrr_config.h</text>
</a>
</g>
</g>
<!-- Node44&#45;&gt;Node46 -->
<g id="edge53" class="edge"><title>Node44&#45;&gt;Node46</title>
<path fill="none" stroke="midnightblue" d="M1846.08,-128.975C1850.74,-120.315 1858.09,-106.649 1864.01,-95.6453"/>
<polygon fill="midnightblue" stroke="midnightblue" points="1867.27,-96.974 1868.92,-86.5091 1861.1,-93.6584 1867.27,-96.974"/>
</g>
<!-- Node47 -->
<g id="node47" class="node"><title>Node47</title>
<g id="a_node47"><a xlink:href="_e_k_f___x_y_z___consts_8h.html" target="_top" xlink:title="Constants for the Extended Kalman Filter.">
<polygon fill="white" stroke="black" points="2374,-67.5 2374,-86.5 2477,-86.5 2477,-67.5 2374,-67.5"/>
<text text-anchor="middle" x="2425.5" y="-74.5" font-family="Helvetica,sans-Serif" font-size="10.00">EKF_XYZ_Consts.h</text>
</a>
</g>
</g>
<!-- Node44&#45;&gt;Node47 -->
<g id="edge62" class="edge"><title>Node44&#45;&gt;Node47</title>
<path fill="none" stroke="midnightblue" d="M1886.33,-129.761C1901.3,-127.357 1918.09,-124.854 1933.5,-123 2121.52,-100.38 2172.4,-108.993 2363.71,-87.1405"/>
<polygon fill="midnightblue" stroke="midnightblue" points="2364.29,-90.5974 2373.82,-85.9727 2363.48,-83.6436 2364.29,-90.5974"/>
</g>
<!-- Node46&#45;&gt;Node25 -->
<g id="edge55" class="edge"><title>Node46&#45;&gt;Node25</title>
<path fill="none" stroke="midnightblue" d="M1851.44,-67.4751C1825.13,-57.3129 1780.99,-40.2564 1751.08,-28.6996"/>
<polygon fill="midnightblue" stroke="midnightblue" points="1752.11,-25.3483 1741.52,-25.0091 1749.59,-31.8779 1752.11,-25.3483"/>
</g>
<!-- Node46&#45;&gt;Node37 -->
<g id="edge54" class="edge"><title>Node46&#45;&gt;Node37</title>
<path fill="none" stroke="midnightblue" d="M1883.67,-67.4751C1894.85,-58.1082 1913.02,-42.8839 1926.59,-31.5081"/>
<polygon fill="midnightblue" stroke="midnightblue" points="1928.93,-34.1148 1934.35,-25.0091 1924.43,-28.7496 1928.93,-34.1148"/>
</g>
<!-- Node48&#45;&gt;Node47 -->
<g id="edge65" class="edge"><title>Node48&#45;&gt;Node47</title>
<path fill="none" stroke="midnightblue" d="M3036.13,-128.975C3026.32,-126.731 3015.53,-124.516 3005.5,-123 2818.25,-94.6783 2594.15,-83.7034 2487.63,-79.858"/>
<polygon fill="midnightblue" stroke="midnightblue" points="2487.5,-76.3514 2477.38,-79.4972 2487.26,-83.3471 2487.5,-76.3514"/>
</g>
<!-- Node49&#45;&gt;Node2 -->
<g id="edge67" class="edge"><title>Node49&#45;&gt;Node2</title>
<path fill="none" stroke="midnightblue" d="M76.1084,-195.734C83.6758,-185.695 96.2506,-169.014 105.744,-156.421"/>
<polygon fill="midnightblue" stroke="midnightblue" points="108.772,-158.219 111.996,-148.127 103.182,-154.006 108.772,-158.219"/>
</g>
</g>
</svg>
