<?xml version="1.0" encoding="UTF-8" standalone="no"?>
<!DOCTYPE svg PUBLIC "-//W3C//DTD SVG 1.1//EN"
 "http://www.w3.org/Graphics/SVG/1.1/DTD/svg11.dtd">
<!-- Generated by graphviz version 2.38.0 (20140413.2041)
 -->
<!-- Title: ti_sysbios_gates_GateHwi_Params__init__S Pages: 1 -->
<svg width="324pt" height="100pt"
 viewBox="0.00 0.00 324.00 99.50" xmlns="http://www.w3.org/2000/svg" xmlns:xlink="http://www.w3.org/1999/xlink">
<g id="graph0" class="graph" transform="scale(1 1) rotate(0) translate(4 95.5)">
<title>ti_sysbios_gates_GateHwi_Params__init__S</title>
<polygon fill="white" stroke="none" points="-4,4 -4,-95.5 320,-95.5 320,4 -4,4"/>
<!-- Node1 -->
<g id="node1" class="node"><title>Node1</title>
<g id="a_node1"><a xlink:title=" ">
<polygon fill="#bfbfbf" stroke="black" points="184,-33 184,-63 316,-63 316,-33 184,-33"/>
<text text-anchor="start" x="192" y="-51" font-family="Helvetica,sans-Serif" font-size="10.00">ti_sysbios_gates_GateHwi</text>
<text text-anchor="middle" x="250" y="-40" font-family="Helvetica,sans-Serif" font-size="10.00">_Params__init__S</text>
</a>
</g>
</g>
<!-- Node2 -->
<g id="node2" class="node"><title>Node2</title>
<g id="a_node2"><a xlink:href="dss__mrr__pe674_8c.html#a9c4a9bee921b0f8028b88b0bbf41c04a" target="_top" xlink:title=" ">
<polygon fill="white" stroke="black" points="0,-61 0,-91 148,-91 148,-61 0,-61"/>
<text text-anchor="start" x="8" y="-79" font-family="Helvetica,sans-Serif" font-size="10.00">xdc_runtime_Main_Module</text>
<text text-anchor="middle" x="74" y="-68" font-family="Helvetica,sans-Serif" font-size="10.00">_GateProxy_Params__init__S</text>
</a>
</g>
</g>
<!-- Node1&#45;&gt;Node2 -->
<g id="edge1" class="edge"><title>Node1&#45;&gt;Node2</title>
<path fill="none" stroke="midnightblue" d="M173.84,-60.0947C165.352,-61.4606 156.711,-62.8511 148.248,-64.213"/>
<polygon fill="midnightblue" stroke="midnightblue" points="174.397,-63.5502 183.714,-58.5058 173.285,-56.6391 174.397,-63.5502"/>
</g>
<!-- Node3 -->
<g id="node3" class="node"><title>Node3</title>
<g id="a_node3"><a xlink:href="dss__mrr__pe674_8c.html#a02dbc5e2585869e5d29d6e7970e4ef46" target="_top" xlink:title=" ">
<polygon fill="white" stroke="black" points="2,-0.5 2,-41.5 146,-41.5 146,-0.5 2,-0.5"/>
<text text-anchor="start" x="10" y="-29.5" font-family="Helvetica,sans-Serif" font-size="10.00">xdc_runtime_System</text>
<text text-anchor="start" x="10" y="-18.5" font-family="Helvetica,sans-Serif" font-size="10.00">_Module_GateProxy_Params</text>
<text text-anchor="middle" x="74" y="-7.5" font-family="Helvetica,sans-Serif" font-size="10.00">__init__S</text>
</a>
</g>
</g>
<!-- Node1&#45;&gt;Node3 -->
<g id="edge2" class="edge"><title>Node1&#45;&gt;Node3</title>
<path fill="none" stroke="midnightblue" d="M173.552,-36.2925C164.467,-34.8828 155.212,-33.4467 146.191,-32.0469"/>
<polygon fill="midnightblue" stroke="midnightblue" points="173.295,-39.7945 183.714,-37.8694 174.369,-32.8773 173.295,-39.7945"/>
</g>
</g>
</svg>
