<?xml version="1.0" encoding="UTF-8" standalone="no"?>
<!DOCTYPE svg PUBLIC "-//W3C//DTD SVG 1.1//EN"
 "http://www.w3.org/Graphics/SVG/1.1/DTD/svg11.dtd">
<!-- Generated by graphviz version 2.38.0 (20140413.2041)
 -->
<!-- Title: dss_data_path.h Pages: 1 -->
<svg width="1123pt" height="151pt"
 viewBox="0.00 0.00 1123.00 151.00" xmlns="http://www.w3.org/2000/svg" xmlns:xlink="http://www.w3.org/1999/xlink">
<g id="graph0" class="graph" transform="scale(1 1) rotate(0) translate(4 147)">
<title>dss_data_path.h</title>
<polygon fill="white" stroke="none" points="-4,4 -4,-147 1119,-147 1119,4 -4,4"/>
<!-- Node1 -->
<g id="node1" class="node"><title>Node1</title>
<g id="a_node1"><a xlink:title="This is the data path processing header.">
<polygon fill="#bfbfbf" stroke="black" points="446,-123.5 446,-142.5 535,-142.5 535,-123.5 446,-123.5"/>
<text text-anchor="middle" x="490.5" y="-130.5" font-family="Helvetica,sans-Serif" font-size="10.00">dss_data_path.h</text>
</a>
</g>
</g>
<!-- Node2 -->
<g id="node2" class="node"><title>Node2</title>
<g id="a_node2"><a xlink:href="detected__obj_8h.html" target="_top" xlink:title=" ">
<polygon fill="white" stroke="black" points="0,-67.5 0,-86.5 121,-86.5 121,-67.5 0,-67.5"/>
<text text-anchor="middle" x="60.5" y="-74.5" font-family="Helvetica,sans-Serif" font-size="10.00">common/detected_obj.h</text>
</a>
</g>
</g>
<!-- Node1&#45;&gt;Node2 -->
<g id="edge1" class="edge"><title>Node1&#45;&gt;Node2</title>
<path fill="none" stroke="midnightblue" d="M445.876,-126.473C379.695,-118.265 251.335,-102.302 131.306,-87.0984"/>
<polygon fill="midnightblue" stroke="midnightblue" points="131.565,-83.6034 121.205,-85.8181 130.685,-90.5478 131.565,-83.6034"/>
</g>
<!-- Node3 -->
<g id="node3" class="node"><title>Node3</title>
<g id="a_node3"><a xlink:href="mrr__config_8h.html" target="_top" xlink:title=" ">
<polygon fill="white" stroke="black" points="139.5,-67.5 139.5,-86.5 249.5,-86.5 249.5,-67.5 139.5,-67.5"/>
<text text-anchor="middle" x="194.5" y="-74.5" font-family="Helvetica,sans-Serif" font-size="10.00">common/mrr_config.h</text>
</a>
</g>
</g>
<!-- Node1&#45;&gt;Node3 -->
<g id="edge2" class="edge"><title>Node1&#45;&gt;Node3</title>
<path fill="none" stroke="midnightblue" d="M445.865,-123.857C393.912,-114.379 308.015,-98.7089 251.337,-88.3689"/>
<polygon fill="midnightblue" stroke="midnightblue" points="251.923,-84.9182 241.458,-86.5666 250.667,-91.8046 251.923,-84.9182"/>
</g>
<!-- Node5 -->
<g id="node5" class="node"><title>Node5</title>
<g id="a_node5"><a xlink:title=" ">
<polygon fill="white" stroke="#bfbfbf" points="191.5,-6 191.5,-25 323.5,-25 323.5,-6 191.5,-6"/>
<text text-anchor="middle" x="257.5" y="-13" font-family="Helvetica,sans-Serif" font-size="10.00">ti/common/sys_common.h</text>
</a>
</g>
</g>
<!-- Node1&#45;&gt;Node5 -->
<g id="edge10" class="edge"><title>Node1&#45;&gt;Node5</title>
<path fill="none" stroke="midnightblue" d="M445.741,-131.714C403.375,-129.284 339.959,-119.813 296.5,-87 279.449,-74.1255 268.861,-51.515 263.094,-35.3708"/>
<polygon fill="midnightblue" stroke="midnightblue" points="266.279,-33.8485 259.851,-25.4261 259.623,-36.0185 266.279,-33.8485"/>
</g>
<!-- Node6 -->
<g id="node6" class="node"><title>Node6</title>
<g id="a_node6"><a xlink:href="app__cfg_8h.html" target="_top" xlink:title=" ">
<polygon fill="white" stroke="black" points="306,-67.5 306,-86.5 405,-86.5 405,-67.5 306,-67.5"/>
<text text-anchor="middle" x="355.5" y="-74.5" font-family="Helvetica,sans-Serif" font-size="10.00">common/app_cfg.h</text>
</a>
</g>
</g>
<!-- Node1&#45;&gt;Node6 -->
<g id="edge5" class="edge"><title>Node1&#45;&gt;Node6</title>
<path fill="none" stroke="midnightblue" d="M469.109,-123.444C446.793,-114.517 411.597,-100.439 386.292,-90.3168"/>
<polygon fill="midnightblue" stroke="midnightblue" points="387.376,-86.9807 376.791,-86.5164 384.776,-93.4801 387.376,-86.9807"/>
</g>
<!-- Node9 -->
<g id="node9" class="node"><title>Node9</title>
<g id="a_node9"><a xlink:title=" ">
<polygon fill="white" stroke="#bfbfbf" points="423,-67.5 423,-86.5 558,-86.5 558,-67.5 423,-67.5"/>
<text text-anchor="middle" x="490.5" y="-74.5" font-family="Helvetica,sans-Serif" font-size="10.00">ti/sysbios/knl/Semaphore.h</text>
</a>
</g>
</g>
<!-- Node1&#45;&gt;Node9 -->
<g id="edge9" class="edge"><title>Node1&#45;&gt;Node9</title>
<path fill="none" stroke="midnightblue" d="M490.5,-123.083C490.5,-116.006 490.5,-105.861 490.5,-96.9865"/>
<polygon fill="midnightblue" stroke="midnightblue" points="494,-96.751 490.5,-86.7511 487,-96.7511 494,-96.751"/>
</g>
<!-- Node10 -->
<g id="node10" class="node"><title>Node10</title>
<g id="a_node10"><a xlink:title=" ">
<polygon fill="white" stroke="#bfbfbf" points="576.5,-67.5 576.5,-86.5 712.5,-86.5 712.5,-67.5 576.5,-67.5"/>
<text text-anchor="middle" x="644.5" y="-74.5" font-family="Helvetica,sans-Serif" font-size="10.00">ti/common/mmwave_error.h</text>
</a>
</g>
</g>
<!-- Node1&#45;&gt;Node10 -->
<g id="edge11" class="edge"><title>Node1&#45;&gt;Node10</title>
<path fill="none" stroke="midnightblue" d="M514.902,-123.444C540.697,-114.399 581.577,-100.064 610.518,-89.9158"/>
<polygon fill="midnightblue" stroke="midnightblue" points="611.934,-93.1283 620.212,-86.5164 609.618,-86.5226 611.934,-93.1283"/>
</g>
<!-- Node11 -->
<g id="node11" class="node"><title>Node11</title>
<g id="a_node11"><a xlink:title=" ">
<polygon fill="white" stroke="#bfbfbf" points="730.5,-67.5 730.5,-86.5 860.5,-86.5 860.5,-67.5 730.5,-67.5"/>
<text text-anchor="middle" x="795.5" y="-74.5" font-family="Helvetica,sans-Serif" font-size="10.00">ti/drivers/adcbuf/ADCBuf.h</text>
</a>
</g>
</g>
<!-- Node1&#45;&gt;Node11 -->
<g id="edge12" class="edge"><title>Node1&#45;&gt;Node11</title>
<path fill="none" stroke="midnightblue" d="M535.176,-124.09C588.748,-114.605 678.665,-98.6855 737.538,-88.2621"/>
<polygon fill="midnightblue" stroke="midnightblue" points="738.194,-91.7004 747.431,-86.5106 736.974,-84.8076 738.194,-91.7004"/>
</g>
<!-- Node12 -->
<g id="node12" class="node"><title>Node12</title>
<g id="a_node12"><a xlink:title=" ">
<polygon fill="white" stroke="#bfbfbf" points="879,-67.5 879,-86.5 994,-86.5 994,-67.5 879,-67.5"/>
<text text-anchor="middle" x="936.5" y="-74.5" font-family="Helvetica,sans-Serif" font-size="10.00">ti/drivers/edma/edma.h</text>
</a>
</g>
</g>
<!-- Node1&#45;&gt;Node12 -->
<g id="edge13" class="edge"><title>Node1&#45;&gt;Node12</title>
<path fill="none" stroke="midnightblue" d="M535.161,-126.922C604.259,-119.016 741.511,-103.117 868.834,-87.0674"/>
<polygon fill="midnightblue" stroke="midnightblue" points="869.281,-90.5388 878.764,-85.8128 868.404,-83.594 869.281,-90.5388"/>
</g>
<!-- Node13 -->
<g id="node13" class="node"><title>Node13</title>
<g id="a_node13"><a xlink:href="_e_k_f___x_y_z___consts_8h.html" target="_top" xlink:title="Constants for the Extended Kalman Filter.">
<polygon fill="white" stroke="black" points="1012,-67.5 1012,-86.5 1115,-86.5 1115,-67.5 1012,-67.5"/>
<text text-anchor="middle" x="1063.5" y="-74.5" font-family="Helvetica,sans-Serif" font-size="10.00">EKF_XYZ_Consts.h</text>
</a>
</g>
</g>
<!-- Node1&#45;&gt;Node13 -->
<g id="edge14" class="edge"><title>Node1&#45;&gt;Node13</title>
<path fill="none" stroke="midnightblue" d="M535.197,-129.007C622.752,-122.943 823.202,-108.07 1001.72,-87.1513"/>
<polygon fill="midnightblue" stroke="midnightblue" points="1002.3,-90.6072 1011.82,-85.9583 1001.47,-83.6555 1002.3,-90.6072"/>
</g>
<!-- Node4 -->
<g id="node4" class="node"><title>Node4</title>
<g id="a_node4"><a xlink:title=" ">
<polygon fill="white" stroke="#bfbfbf" points="30,-6 30,-25 173,-25 173,-6 30,-6"/>
<text text-anchor="middle" x="101.5" y="-13" font-family="Helvetica,sans-Serif" font-size="10.00">ti/control/mmwave/mmwave.h</text>
</a>
</g>
</g>
<!-- Node3&#45;&gt;Node4 -->
<g id="edge3" class="edge"><title>Node3&#45;&gt;Node4</title>
<path fill="none" stroke="midnightblue" d="M181.175,-67.4751C166.12,-57.8431 141.384,-42.0175 123.463,-30.5517"/>
<polygon fill="midnightblue" stroke="midnightblue" points="125.11,-27.4501 114.8,-25.0091 121.337,-33.3466 125.11,-27.4501"/>
</g>
<!-- Node3&#45;&gt;Node5 -->
<g id="edge4" class="edge"><title>Node3&#45;&gt;Node5</title>
<path fill="none" stroke="midnightblue" d="M203.526,-67.4751C213.257,-58.285 228.958,-43.4563 240.923,-32.156"/>
<polygon fill="midnightblue" stroke="midnightblue" points="243.623,-34.4199 248.49,-25.0091 238.817,-29.3308 243.623,-34.4199"/>
</g>
<!-- Node6&#45;&gt;Node5 -->
<g id="edge7" class="edge"><title>Node6&#45;&gt;Node5</title>
<path fill="none" stroke="midnightblue" d="M341.459,-67.4751C325.449,-57.7548 299.05,-41.7266 280.126,-30.2372"/>
<polygon fill="midnightblue" stroke="midnightblue" points="281.879,-27.2072 271.515,-25.0091 278.246,-33.1907 281.879,-27.2072"/>
</g>
<!-- Node7 -->
<g id="node7" class="node"><title>Node7</title>
<g id="a_node7"><a xlink:href="device__cfg_8h.html" target="_top" xlink:title="This file holds constants related to the system chirp configuration as well as the calling the profil...">
<polygon fill="white" stroke="black" points="341.5,-6 341.5,-25 411.5,-25 411.5,-6 341.5,-6"/>
<text text-anchor="middle" x="376.5" y="-13" font-family="Helvetica,sans-Serif" font-size="10.00">device_cfg.h</text>
</a>
</g>
</g>
<!-- Node6&#45;&gt;Node7 -->
<g id="edge6" class="edge"><title>Node6&#45;&gt;Node7</title>
<path fill="none" stroke="midnightblue" d="M358.509,-67.4751C361.534,-58.9035 366.29,-45.4269 370.153,-34.483"/>
<polygon fill="midnightblue" stroke="midnightblue" points="373.469,-35.6039 373.497,-25.0091 366.868,-33.2741 373.469,-35.6039"/>
</g>
<!-- Node8 -->
<g id="node8" class="node"><title>Node8</title>
<g id="a_node8"><a xlink:href="config__chirp__design___u_s_r_r30_8h.html" target="_top" xlink:title=" ">
<polygon fill="white" stroke="black" points="429.5,-0.5 429.5,-30.5 557.5,-30.5 557.5,-0.5 429.5,-0.5"/>
<text text-anchor="start" x="437.5" y="-18.5" font-family="Helvetica,sans-Serif" font-size="10.00">common/profiles/config</text>
<text text-anchor="middle" x="493.5" y="-7.5" font-family="Helvetica,sans-Serif" font-size="10.00">_chirp_design_USRR30.h</text>
</a>
</g>
</g>
<!-- Node6&#45;&gt;Node8 -->
<g id="edge8" class="edge"><title>Node6&#45;&gt;Node8</title>
<path fill="none" stroke="midnightblue" d="M375.272,-67.4751C395.098,-58.9271 426.237,-45.5011 451.582,-34.5734"/>
<polygon fill="midnightblue" stroke="midnightblue" points="453.179,-37.6963 460.976,-30.523 450.408,-31.2683 453.179,-37.6963"/>
</g>
</g>
</svg>
