<?xml version="1.0" encoding="UTF-8" standalone="no"?>
<!DOCTYPE svg PUBLIC "-//W3C//DTD SVG 1.1//EN"
 "http://www.w3.org/Graphics/SVG/1.1/DTD/svg11.dtd">
<!-- Generated by graphviz version 2.38.0 (20140413.2041)
 -->
<!-- Title: ti_sysbios_knl_Intrinsics_SupportProxy_Module__startupDone__S Pages: 1 -->
<svg width="373pt" height="50pt"
 viewBox="0.00 0.00 373.00 50.00" xmlns="http://www.w3.org/2000/svg" xmlns:xlink="http://www.w3.org/1999/xlink">
<g id="graph0" class="graph" transform="scale(1 1) rotate(0) translate(4 46)">
<title>ti_sysbios_knl_Intrinsics_SupportProxy_Module__startupDone__S</title>
<polygon fill="white" stroke="none" points="-4,4 -4,-46 369,-46 369,4 -4,4"/>
<!-- Node1 -->
<g id="node1" class="node"><title>Node1</title>
<g id="a_node1"><a xlink:title=" ">
<polygon fill="#bfbfbf" stroke="black" points="0,-6 0,-36 198,-36 198,-6 0,-6"/>
<text text-anchor="start" x="8" y="-24" font-family="Helvetica,sans-Serif" font-size="10.00">ti_sysbios_knl_Intrinsics</text>
<text text-anchor="middle" x="99" y="-13" font-family="Helvetica,sans-Serif" font-size="10.00">_SupportProxy_Module__startupDone__S</text>
</a>
</g>
</g>
<!-- Node2 -->
<g id="node2" class="node"><title>Node2</title>
<g id="a_node2"><a xlink:href="dss__mrr__pe674_8c.html#a1cbe203f5dcabfbe5db3b60e578fcf79" target="_top" xlink:title=" ">
<polygon fill="white" stroke="black" points="234,-0.5 234,-41.5 365,-41.5 365,-0.5 234,-0.5"/>
<text text-anchor="start" x="242" y="-29.5" font-family="Helvetica,sans-Serif" font-size="10.00">ti_sysbios_family_c62</text>
<text text-anchor="start" x="242" y="-18.5" font-family="Helvetica,sans-Serif" font-size="10.00">_IntrinsicsSupport_Module</text>
<text text-anchor="middle" x="299.5" y="-7.5" font-family="Helvetica,sans-Serif" font-size="10.00">__startupDone__S</text>
</a>
</g>
</g>
<!-- Node1&#45;&gt;Node2 -->
<g id="edge1" class="edge"><title>Node1&#45;&gt;Node2</title>
<path fill="none" stroke="midnightblue" d="M198.087,-21C206.698,-21 215.32,-21 223.695,-21"/>
<polygon fill="midnightblue" stroke="midnightblue" points="223.77,-24.5001 233.77,-21 223.77,-17.5001 223.77,-24.5001"/>
</g>
</g>
</svg>
