<?xml version="1.0" encoding="UTF-8" standalone="no"?>
<!DOCTYPE svg PUBLIC "-//W3C//DTD SVG 1.1//EN"
 "http://www.w3.org/Graphics/SVG/1.1/DTD/svg11.dtd">
<!-- Generated by graphviz version 2.38.0 (20140413.2041)
 -->
<!-- Title: ti_sysbios_gates_GateHwi_Handle__label__S Pages: 1 -->
<svg width="328pt" height="100pt"
 viewBox="0.00 0.00 328.00 99.50" xmlns="http://www.w3.org/2000/svg" xmlns:xlink="http://www.w3.org/1999/xlink">
<g id="graph0" class="graph" transform="scale(1 1) rotate(0) translate(4 95.5)">
<title>ti_sysbios_gates_GateHwi_Handle__label__S</title>
<polygon fill="white" stroke="none" points="-4,4 -4,-95.5 324,-95.5 324,4 -4,4"/>
<!-- Node1 -->
<g id="node1" class="node"><title>Node1</title>
<g id="a_node1"><a xlink:title=" ">
<polygon fill="#bfbfbf" stroke="black" points="188,-33 188,-63 320,-63 320,-33 188,-33"/>
<text text-anchor="start" x="196" y="-51" font-family="Helvetica,sans-Serif" font-size="10.00">ti_sysbios_gates_GateHwi</text>
<text text-anchor="middle" x="254" y="-40" font-family="Helvetica,sans-Serif" font-size="10.00">_Handle__label__S</text>
</a>
</g>
</g>
<!-- Node2 -->
<g id="node2" class="node"><title>Node2</title>
<g id="a_node2"><a xlink:href="dss__mrr__pe674_8c.html#aa4054af5069f3ea0398070481bd63324" target="_top" xlink:title=" ">
<polygon fill="white" stroke="black" points="0,-61 0,-91 152,-91 152,-61 0,-61"/>
<text text-anchor="start" x="8" y="-79" font-family="Helvetica,sans-Serif" font-size="10.00">xdc_runtime_Main_Module</text>
<text text-anchor="middle" x="76" y="-68" font-family="Helvetica,sans-Serif" font-size="10.00">_GateProxy_Handle__label__S</text>
</a>
</g>
</g>
<!-- Node1&#45;&gt;Node2 -->
<g id="edge1" class="edge"><title>Node1&#45;&gt;Node2</title>
<path fill="none" stroke="midnightblue" d="M178.015,-59.9294C169.457,-61.2909 160.732,-62.6791 152.171,-64.0409"/>
<polygon fill="midnightblue" stroke="midnightblue" points="178.638,-63.3744 187.964,-58.3466 177.538,-56.4613 178.638,-63.3744"/>
</g>
<!-- Node3 -->
<g id="node3" class="node"><title>Node3</title>
<g id="a_node3"><a xlink:href="dss__mrr__pe674_8c.html#aeefad31f2db4ff46a919dd9fbc76de3b" target="_top" xlink:title=" ">
<polygon fill="white" stroke="black" points="6,-0.5 6,-41.5 146,-41.5 146,-0.5 6,-0.5"/>
<text text-anchor="start" x="14" y="-29.5" font-family="Helvetica,sans-Serif" font-size="10.00">xdc_runtime_System</text>
<text text-anchor="start" x="14" y="-18.5" font-family="Helvetica,sans-Serif" font-size="10.00">_Module_GateProxy_Handle</text>
<text text-anchor="middle" x="76" y="-7.5" font-family="Helvetica,sans-Serif" font-size="10.00">__label__S</text>
</a>
</g>
</g>
<!-- Node1&#45;&gt;Node3 -->
<g id="edge2" class="edge"><title>Node1&#45;&gt;Node3</title>
<path fill="none" stroke="midnightblue" d="M177.956,-36.4876C167.416,-34.8707 156.622,-33.2148 146.198,-31.6156"/>
<polygon fill="midnightblue" stroke="midnightblue" points="177.549,-39.966 187.964,-38.0229 178.611,-33.0469 177.549,-39.966"/>
</g>
</g>
</svg>
