<?xml version="1.0" encoding="UTF-8" standalone="no"?>
<!DOCTYPE svg PUBLIC "-//W3C//DTD SVG 1.1//EN"
 "http://www.w3.org/Graphics/SVG/1.1/DTD/svg11.dtd">
<!-- Generated by graphviz version 2.38.0 (20140413.2041)
 -->
<!-- Title: common/mmWave_XSS.h Pages: 1 -->
<svg width="182pt" height="84pt"
 viewBox="0.00 0.00 182.00 84.00" xmlns="http://www.w3.org/2000/svg" xmlns:xlink="http://www.w3.org/1999/xlink">
<g id="graph0" class="graph" transform="scale(1 1) rotate(0) translate(4 80)">
<title>common/mmWave_XSS.h</title>
<polygon fill="white" stroke="none" points="-4,4 -4,-80 178,-80 178,4 -4,4"/>
<!-- Node1 -->
<g id="node1" class="node"><title>Node1</title>
<g id="a_node1"><a xlink:title=" ">
<polygon fill="#bfbfbf" stroke="black" points="27.5,-56.5 27.5,-75.5 157.5,-75.5 157.5,-56.5 27.5,-56.5"/>
<text text-anchor="middle" x="92.5" y="-63.5" font-family="Helvetica,sans-Serif" font-size="10.00">common/mmWave_XSS.h</text>
</a>
</g>
</g>
<!-- Node2 -->
<g id="node2" class="node"><title>Node2</title>
<g id="a_node2"><a xlink:href="dss__data__path_8c.html" target="_top" xlink:title="Implements Data path processing functionality.">
<polygon fill="white" stroke="black" points="0,-0.5 0,-19.5 89,-19.5 89,-0.5 0,-0.5"/>
<text text-anchor="middle" x="44.5" y="-7.5" font-family="Helvetica,sans-Serif" font-size="10.00">dss_data_path.c</text>
</a>
</g>
</g>
<!-- Node1&#45;&gt;Node2 -->
<g id="edge1" class="edge"><title>Node1&#45;&gt;Node2</title>
<path fill="none" stroke="midnightblue" d="M77.7723,-48.4314C69.3599,-38.9673 59.1513,-27.4827 52.2787,-19.7511"/>
<polygon fill="midnightblue" stroke="midnightblue" points="75.3142,-50.9342 84.5738,-56.083 80.546,-46.2836 75.3142,-50.9342"/>
</g>
<!-- Node3 -->
<g id="node3" class="node"><title>Node3</title>
<g id="a_node3"><a xlink:href="dss__main_8c.html" target="_top" xlink:title=" ">
<polygon fill="white" stroke="black" points="107,-0.5 107,-19.5 174,-19.5 174,-0.5 107,-0.5"/>
<text text-anchor="middle" x="140.5" y="-7.5" font-family="Helvetica,sans-Serif" font-size="10.00">dss_main.c</text>
</a>
</g>
</g>
<!-- Node1&#45;&gt;Node3 -->
<g id="edge2" class="edge"><title>Node1&#45;&gt;Node3</title>
<path fill="none" stroke="midnightblue" d="M107.228,-48.4314C115.64,-38.9673 125.849,-27.4827 132.721,-19.7511"/>
<polygon fill="midnightblue" stroke="midnightblue" points="104.454,-46.2836 100.426,-56.083 109.686,-50.9342 104.454,-46.2836"/>
</g>
</g>
</svg>
