<?xml version="1.0" encoding="UTF-8" standalone="no"?>
<!DOCTYPE svg PUBLIC "-//W3C//DTD SVG 1.1//EN"
 "http://www.w3.org/Graphics/SVG/1.1/DTD/svg11.dtd">
<!-- Generated by graphviz version 2.38.0 (20140413.2041)
 -->
<!-- Title: common/mmWave_XSS.h Pages: 1 -->
<svg width="1844pt" height="218pt"
 viewBox="0.00 0.00 1843.69 218.00" xmlns="http://www.w3.org/2000/svg" xmlns:xlink="http://www.w3.org/1999/xlink">
<g id="graph0" class="graph" transform="scale(1 1) rotate(0) translate(4 214)">
<title>common/mmWave_XSS.h</title>
<polygon fill="white" stroke="none" points="-4,4 -4,-214 1839.69,-214 1839.69,4 -4,4"/>
<!-- Node1 -->
<g id="node1" class="node"><title>Node1</title>
<g id="a_node1"><a xlink:title=" ">
<polygon fill="#bfbfbf" stroke="black" points="738.69,-190.5 738.69,-209.5 868.69,-209.5 868.69,-190.5 738.69,-190.5"/>
<text text-anchor="middle" x="803.69" y="-197.5" font-family="Helvetica,sans-Serif" font-size="10.00">common/mmWave_XSS.h</text>
</a>
</g>
</g>
<!-- Node2 -->
<g id="node2" class="node"><title>Node2</title>
<g id="a_node2"><a xlink:title=" ">
<polygon fill="white" stroke="#bfbfbf" points="637.69,-67.5 637.69,-86.5 773.69,-86.5 773.69,-67.5 637.69,-67.5"/>
<text text-anchor="middle" x="705.69" y="-74.5" font-family="Helvetica,sans-Serif" font-size="10.00">ti/common/mmwave_error.h</text>
</a>
</g>
</g>
<!-- Node1&#45;&gt;Node2 -->
<g id="edge1" class="edge"><title>Node1&#45;&gt;Node2</title>
<path fill="none" stroke="midnightblue" d="M796.587,-190.08C785.244,-175.853 762.319,-147.162 742.69,-123 734.942,-113.462 726.214,-102.841 719.182,-94.3139"/>
<polygon fill="midnightblue" stroke="midnightblue" points="721.88,-92.0845 712.814,-86.6021 716.482,-96.5416 721.88,-92.0845"/>
</g>
<!-- Node3 -->
<g id="node3" class="node"><title>Node3</title>
<g id="a_node3"><a xlink:title=" ">
<polygon fill="white" stroke="#bfbfbf" points="18.6903,-129 18.6903,-148 116.69,-148 116.69,-129 18.6903,-129"/>
<text text-anchor="middle" x="67.6903" y="-136" font-family="Helvetica,sans-Serif" font-size="10.00">ti/drivers/soc/soc.h</text>
</a>
</g>
</g>
<!-- Node1&#45;&gt;Node3 -->
<g id="edge2" class="edge"><title>Node1&#45;&gt;Node3</title>
<path fill="none" stroke="midnightblue" d="M738.286,-198.531C616.841,-196.805 348.576,-188.97 125.69,-154 119.778,-153.072 113.587,-151.827 107.543,-150.454"/>
<polygon fill="midnightblue" stroke="midnightblue" points="108.125,-146.995 97.584,-148.057 106.487,-153.8 108.125,-146.995"/>
</g>
<!-- Node4 -->
<g id="node4" class="node"><title>Node4</title>
<g id="a_node4"><a xlink:title=" ">
<polygon fill="white" stroke="#bfbfbf" points="134.69,-129 134.69,-148 228.69,-148 228.69,-129 134.69,-129"/>
<text text-anchor="middle" x="181.69" y="-136" font-family="Helvetica,sans-Serif" font-size="10.00">ti/drivers/crc/crc.h</text>
</a>
</g>
</g>
<!-- Node1&#45;&gt;Node4 -->
<g id="edge3" class="edge"><title>Node1&#45;&gt;Node4</title>
<path fill="none" stroke="midnightblue" d="M738.302,-197.491C632.449,-194.223 417.292,-184.156 237.69,-154 232.181,-153.075 226.422,-151.867 220.782,-150.544"/>
<polygon fill="midnightblue" stroke="midnightblue" points="221.387,-147.088 210.838,-148.071 219.698,-153.881 221.387,-147.088"/>
</g>
<!-- Node5 -->
<g id="node5" class="node"><title>Node5</title>
<g id="a_node5"><a xlink:title=" ">
<polygon fill="white" stroke="#bfbfbf" points="247.19,-129 247.19,-148 356.19,-148 356.19,-129 247.19,-129"/>
<text text-anchor="middle" x="301.69" y="-136" font-family="Helvetica,sans-Serif" font-size="10.00">ti/drivers/uart/UART.h</text>
</a>
</g>
</g>
<!-- Node1&#45;&gt;Node5 -->
<g id="edge4" class="edge"><title>Node1&#45;&gt;Node5</title>
<path fill="none" stroke="midnightblue" d="M738.433,-194.76C652.566,-188.62 497.134,-175.562 365.69,-154 359.272,-152.947 352.533,-151.643 345.935,-150.251"/>
<polygon fill="midnightblue" stroke="midnightblue" points="346.269,-146.741 335.752,-148.017 344.769,-153.579 346.269,-146.741"/>
</g>
<!-- Node6 -->
<g id="node6" class="node"><title>Node6</title>
<g id="a_node6"><a xlink:title=" ">
<polygon fill="white" stroke="#bfbfbf" points="374.69,-129 374.69,-148 504.69,-148 504.69,-129 374.69,-129"/>
<text text-anchor="middle" x="439.69" y="-136" font-family="Helvetica,sans-Serif" font-size="10.00">ti/drivers/pinmux/pinmux.h</text>
</a>
</g>
</g>
<!-- Node1&#45;&gt;Node6 -->
<g id="edge5" class="edge"><title>Node1&#45;&gt;Node6</title>
<path fill="none" stroke="midnightblue" d="M744.148,-190.464C685.444,-181.882 593.23,-167.958 513.69,-154 506.598,-152.755 499.138,-151.376 491.795,-149.978"/>
<polygon fill="midnightblue" stroke="midnightblue" points="492.382,-146.527 481.9,-148.07 491.056,-153.4 492.382,-146.527"/>
</g>
<!-- Node7 -->
<g id="node7" class="node"><title>Node7</title>
<g id="a_node7"><a xlink:title=" ">
<polygon fill="white" stroke="#bfbfbf" points="522.69,-129 522.69,-148 626.69,-148 626.69,-129 522.69,-129"/>
<text text-anchor="middle" x="574.69" y="-136" font-family="Helvetica,sans-Serif" font-size="10.00">ti/drivers/esm/esm.h</text>
</a>
</g>
</g>
<!-- Node1&#45;&gt;Node7 -->
<g id="edge6" class="edge"><title>Node1&#45;&gt;Node7</title>
<path fill="none" stroke="midnightblue" d="M770.88,-190.475C730.493,-179.982 661.813,-162.137 617.361,-150.587"/>
<polygon fill="midnightblue" stroke="midnightblue" points="617.998,-147.136 607.44,-148.009 616.238,-153.911 617.998,-147.136"/>
</g>
<!-- Node8 -->
<g id="node8" class="node"><title>Node8</title>
<g id="a_node8"><a xlink:title=" ">
<polygon fill="white" stroke="#bfbfbf" points="645.19,-123.5 645.19,-153.5 734.19,-153.5 734.19,-123.5 645.19,-123.5"/>
<text text-anchor="start" x="653.19" y="-141.5" font-family="Helvetica,sans-Serif" font-size="10.00">ti/drivers/mailbox</text>
<text text-anchor="middle" x="689.69" y="-130.5" font-family="Helvetica,sans-Serif" font-size="10.00">/mailbox.h</text>
</a>
</g>
</g>
<!-- Node1&#45;&gt;Node8 -->
<g id="edge7" class="edge"><title>Node1&#45;&gt;Node8</title>
<path fill="none" stroke="midnightblue" d="M787.357,-190.475C771.268,-182.078 746.159,-168.973 725.43,-158.153"/>
<polygon fill="midnightblue" stroke="midnightblue" points="727.042,-155.047 716.558,-153.523 723.804,-161.253 727.042,-155.047"/>
</g>
<!-- Node9 -->
<g id="node9" class="node"><title>Node9</title>
<g id="a_node9"><a xlink:title=" ">
<polygon fill="white" stroke="#bfbfbf" points="565.19,-6 565.19,-25 708.19,-25 708.19,-6 565.19,-6"/>
<text text-anchor="middle" x="636.69" y="-13" font-family="Helvetica,sans-Serif" font-size="10.00">ti/control/mmwave/mmwave.h</text>
</a>
</g>
</g>
<!-- Node1&#45;&gt;Node9 -->
<g id="edge8" class="edge"><title>Node1&#45;&gt;Node9</title>
<path fill="none" stroke="midnightblue" d="M738.405,-197.715C552.928,-193.748 34.5823,-180.343 9.69029,-154 -67.6734,-72.1276 368.131,-33.8175 554.878,-21.3239"/>
<polygon fill="midnightblue" stroke="midnightblue" points="555.181,-24.8116 564.928,-20.6604 554.719,-17.8268 555.181,-24.8116"/>
</g>
<!-- Node10 -->
<g id="node10" class="node"><title>Node10</title>
<g id="a_node10"><a xlink:title=" ">
<polygon fill="white" stroke="#bfbfbf" points="791.19,-129 791.19,-148 898.19,-148 898.19,-129 791.19,-129"/>
<text text-anchor="middle" x="844.69" y="-136" font-family="Helvetica,sans-Serif" font-size="10.00">ti/drivers/cbuff/cbuff.h</text>
</a>
</g>
</g>
<!-- Node1&#45;&gt;Node10 -->
<g id="edge9" class="edge"><title>Node1&#45;&gt;Node10</title>
<path fill="none" stroke="midnightblue" d="M809.565,-190.475C815.654,-181.638 825.335,-167.589 832.993,-156.475"/>
<polygon fill="midnightblue" stroke="midnightblue" points="836.035,-158.229 838.827,-148.009 830.271,-154.258 836.035,-158.229"/>
</g>
<!-- Node11 -->
<g id="node11" class="node"><title>Node11</title>
<g id="a_node11"><a xlink:title=" ">
<polygon fill="white" stroke="#bfbfbf" points="791.69,-67.5 791.69,-86.5 921.69,-86.5 921.69,-67.5 791.69,-67.5"/>
<text text-anchor="middle" x="856.69" y="-74.5" font-family="Helvetica,sans-Serif" font-size="10.00">ti/drivers/adcbuf/ADCBuf.h</text>
</a>
</g>
</g>
<!-- Node1&#45;&gt;Node11 -->
<g id="edge10" class="edge"><title>Node1&#45;&gt;Node11</title>
<path fill="none" stroke="midnightblue" d="M851.023,-190.422C871.793,-184.051 894.242,-173.023 906.69,-154 914.234,-142.471 912.296,-135.586 906.69,-123 901.122,-110.498 890.175,-100.012 879.939,-92.3167"/>
<polygon fill="midnightblue" stroke="midnightblue" points="881.846,-89.3794 871.643,-86.5256 877.839,-95.1193 881.846,-89.3794"/>
</g>
<!-- Node12 -->
<g id="node12" class="node"><title>Node12</title>
<g id="a_node12"><a xlink:title=" ">
<polygon fill="white" stroke="#bfbfbf" points="940.19,-67.5 940.19,-86.5 1055.19,-86.5 1055.19,-67.5 940.19,-67.5"/>
<text text-anchor="middle" x="997.69" y="-74.5" font-family="Helvetica,sans-Serif" font-size="10.00">ti/drivers/edma/edma.h</text>
</a>
</g>
</g>
<!-- Node1&#45;&gt;Node12 -->
<g id="edge11" class="edge"><title>Node1&#45;&gt;Node12</title>
<path fill="none" stroke="midnightblue" d="M838.151,-190.458C863.212,-183.237 897.241,-171.282 923.69,-154 948.634,-137.702 971.607,-111.647 985.137,-94.6789"/>
<polygon fill="midnightblue" stroke="midnightblue" points="987.939,-96.7772 991.312,-86.7335 982.412,-92.4817 987.939,-96.7772"/>
</g>
<!-- Node13 -->
<g id="node13" class="node"><title>Node13</title>
<g id="a_node13"><a xlink:title=" ">
<polygon fill="white" stroke="#bfbfbf" points="993.19,-129 993.19,-148 1112.19,-148 1112.19,-129 993.19,-129"/>
<text text-anchor="middle" x="1052.69" y="-136" font-family="Helvetica,sans-Serif" font-size="10.00">ti/drivers/osal/DebugP.h</text>
</a>
</g>
</g>
<!-- Node1&#45;&gt;Node13 -->
<g id="edge12" class="edge"><title>Node1&#45;&gt;Node13</title>
<path fill="none" stroke="midnightblue" d="M839.366,-190.475C883.557,-179.915 958.903,-161.911 1007.21,-150.369"/>
<polygon fill="midnightblue" stroke="midnightblue" points="1008.17,-153.737 1017.08,-148.009 1006.54,-146.929 1008.17,-153.737"/>
</g>
<!-- Node14 -->
<g id="node14" class="node"><title>Node14</title>
<g id="a_node14"><a xlink:title=" ">
<polygon fill="white" stroke="#bfbfbf" points="1073.19,-67.5 1073.19,-86.5 1208.19,-86.5 1208.19,-67.5 1073.19,-67.5"/>
<text text-anchor="middle" x="1140.69" y="-74.5" font-family="Helvetica,sans-Serif" font-size="10.00">ti/sysbios/knl/Semaphore.h</text>
</a>
</g>
</g>
<!-- Node1&#45;&gt;Node14 -->
<g id="edge13" class="edge"><title>Node1&#45;&gt;Node14</title>
<path fill="none" stroke="midnightblue" d="M868.955,-198.014C950.718,-195.412 1084.51,-186.197 1120.69,-154 1136.74,-139.714 1140.61,-114.239 1141.22,-96.751"/>
<polygon fill="midnightblue" stroke="midnightblue" points="1144.72,-96.6162 1141.23,-86.6096 1137.72,-96.6031 1144.72,-96.6162"/>
</g>
<!-- Node15 -->
<g id="node15" class="node"><title>Node15</title>
<g id="a_node15"><a xlink:title=" ">
<polygon fill="white" stroke="#bfbfbf" points="1168.69,-129 1168.69,-148 1278.69,-148 1278.69,-129 1168.69,-129"/>
<text text-anchor="middle" x="1223.69" y="-136" font-family="Helvetica,sans-Serif" font-size="10.00">ti/sysbios/knl/Event.h</text>
</a>
</g>
</g>
<!-- Node1&#45;&gt;Node15 -->
<g id="edge14" class="edge"><title>Node1&#45;&gt;Node15</title>
<path fill="none" stroke="midnightblue" d="M868.934,-192.208C939.587,-184.487 1055.49,-170.754 1154.69,-154 1161.5,-152.849 1168.66,-151.501 1175.69,-150.099"/>
<polygon fill="midnightblue" stroke="midnightblue" points="1176.74,-153.457 1185.83,-148.022 1175.33,-146.6 1176.74,-153.457"/>
</g>
<!-- Node16 -->
<g id="node16" class="node"><title>Node16</title>
<g id="a_node16"><a xlink:href="app__cfg_8h.html" target="_top" xlink:title=" ">
<polygon fill="white" stroke="black" points="1654.19,-67.5 1654.19,-86.5 1753.19,-86.5 1753.19,-67.5 1654.19,-67.5"/>
<text text-anchor="middle" x="1703.69" y="-74.5" font-family="Helvetica,sans-Serif" font-size="10.00">common/app_cfg.h</text>
</a>
</g>
</g>
<!-- Node1&#45;&gt;Node16 -->
<g id="edge15" class="edge"><title>Node1&#45;&gt;Node16</title>
<path fill="none" stroke="midnightblue" d="M868.815,-197.552C978.132,-194.338 1205.19,-184.306 1394.69,-154 1493.75,-138.157 1607.76,-106.548 1665.66,-89.5129"/>
<polygon fill="midnightblue" stroke="midnightblue" points="1666.87,-92.8041 1675.47,-86.6086 1664.89,-86.0922 1666.87,-92.8041"/>
</g>
<!-- Node20 -->
<g id="node20" class="node"><title>Node20</title>
<g id="a_node20"><a xlink:href="dss__data__path_8h.html" target="_top" xlink:title="This is the data path processing header.">
<polygon fill="white" stroke="black" points="1297.19,-129 1297.19,-148 1386.19,-148 1386.19,-129 1297.19,-129"/>
<text text-anchor="middle" x="1341.69" y="-136" font-family="Helvetica,sans-Serif" font-size="10.00">dss_data_path.h</text>
</a>
</g>
</g>
<!-- Node1&#45;&gt;Node20 -->
<g id="edge19" class="edge"><title>Node1&#45;&gt;Node20</title>
<path fill="none" stroke="midnightblue" d="M868.748,-196.457C962.112,-192.016 1139.21,-180.638 1287.69,-154 1292.87,-153.07 1298.28,-151.884 1303.59,-150.591"/>
<polygon fill="midnightblue" stroke="midnightblue" points="1304.78,-153.899 1313.59,-148.013 1303.03,-147.121 1304.78,-153.899"/>
</g>
<!-- Node17 -->
<g id="node17" class="node"><title>Node17</title>
<g id="a_node17"><a xlink:href="device__cfg_8h.html" target="_top" xlink:title="This file holds constants related to the system chirp configuration as well as the calling the profil...">
<polygon fill="white" stroke="black" points="1619.69,-6 1619.69,-25 1689.69,-25 1689.69,-6 1619.69,-6"/>
<text text-anchor="middle" x="1654.69" y="-13" font-family="Helvetica,sans-Serif" font-size="10.00">device_cfg.h</text>
</a>
</g>
</g>
<!-- Node16&#45;&gt;Node17 -->
<g id="edge16" class="edge"><title>Node16&#45;&gt;Node17</title>
<path fill="none" stroke="midnightblue" d="M1696.67,-67.4751C1689.25,-58.4617 1677.36,-44.0246 1668.12,-32.8118"/>
<polygon fill="midnightblue" stroke="midnightblue" points="1670.76,-30.5034 1661.7,-25.0091 1665.35,-34.9534 1670.76,-30.5034"/>
</g>
<!-- Node18 -->
<g id="node18" class="node"><title>Node18</title>
<g id="a_node18"><a xlink:title=" ">
<polygon fill="white" stroke="#bfbfbf" points="1420.69,-6 1420.69,-25 1552.69,-25 1552.69,-6 1420.69,-6"/>
<text text-anchor="middle" x="1486.69" y="-13" font-family="Helvetica,sans-Serif" font-size="10.00">ti/common/sys_common.h</text>
</a>
</g>
</g>
<!-- Node16&#45;&gt;Node18 -->
<g id="edge17" class="edge"><title>Node16&#45;&gt;Node18</title>
<path fill="none" stroke="midnightblue" d="M1672.6,-67.4751C1634.41,-57.0036 1569.52,-39.2118 1527.39,-27.6601"/>
<polygon fill="midnightblue" stroke="midnightblue" points="1528.29,-24.2781 1517.72,-25.0091 1526.44,-31.0289 1528.29,-24.2781"/>
</g>
<!-- Node19 -->
<g id="node19" class="node"><title>Node19</title>
<g id="a_node19"><a xlink:href="config__chirp__design___u_s_r_r30_8h.html" target="_top" xlink:title=" ">
<polygon fill="white" stroke="black" points="1707.69,-0.5 1707.69,-30.5 1835.69,-30.5 1835.69,-0.5 1707.69,-0.5"/>
<text text-anchor="start" x="1715.69" y="-18.5" font-family="Helvetica,sans-Serif" font-size="10.00">common/profiles/config</text>
<text text-anchor="middle" x="1771.69" y="-7.5" font-family="Helvetica,sans-Serif" font-size="10.00">_chirp_design_USRR30.h</text>
</a>
</g>
</g>
<!-- Node16&#45;&gt;Node19 -->
<g id="edge18" class="edge"><title>Node16&#45;&gt;Node19</title>
<path fill="none" stroke="midnightblue" d="M1713.43,-67.4751C1722.38,-59.6426 1736.02,-47.7145 1747.84,-37.3656"/>
<polygon fill="midnightblue" stroke="midnightblue" points="1750.44,-39.7421 1755.66,-30.523 1745.83,-34.474 1750.44,-39.7421"/>
</g>
<!-- Node20&#45;&gt;Node2 -->
<g id="edge27" class="edge"><title>Node20&#45;&gt;Node2</title>
<path fill="none" stroke="midnightblue" d="M1313.89,-128.945C1305.54,-126.673 1296.31,-124.45 1287.69,-123 1069.05,-86.1999 1008.48,-107.423 783.822,-87.0535"/>
<polygon fill="midnightblue" stroke="midnightblue" points="783.973,-83.5526 773.693,-86.1172 783.328,-90.5229 783.973,-83.5526"/>
</g>
<!-- Node20&#45;&gt;Node11 -->
<g id="edge28" class="edge"><title>Node20&#45;&gt;Node11</title>
<path fill="none" stroke="midnightblue" d="M1313.3,-128.953C1305.1,-126.736 1296.09,-124.541 1287.69,-123 1134.05,-94.8179 1090.94,-104.217 932.178,-87.1318"/>
<polygon fill="midnightblue" stroke="midnightblue" points="932.373,-83.6323 922.052,-86.0232 931.611,-90.5907 932.373,-83.6323"/>
</g>
<!-- Node20&#45;&gt;Node12 -->
<g id="edge29" class="edge"><title>Node20&#45;&gt;Node12</title>
<path fill="none" stroke="midnightblue" d="M1312.12,-128.941C1304.22,-126.825 1295.67,-124.685 1287.69,-123 1246.45,-114.29 1137.36,-98.0393 1065.37,-87.635"/>
<polygon fill="midnightblue" stroke="midnightblue" points="1065.87,-84.1704 1055.47,-86.2071 1064.87,-91.0987 1065.87,-84.1704"/>
</g>
<!-- Node20&#45;&gt;Node14 -->
<g id="edge25" class="edge"><title>Node20&#45;&gt;Node14</title>
<path fill="none" stroke="midnightblue" d="M1312.89,-128.975C1277.82,-118.592 1218.43,-101.012 1179.38,-89.4538"/>
<polygon fill="midnightblue" stroke="midnightblue" points="1180.02,-85.9916 1169.44,-86.5091 1178.03,-92.7036 1180.02,-85.9916"/>
</g>
<!-- Node20&#45;&gt;Node16 -->
<g id="edge24" class="edge"><title>Node20&#45;&gt;Node16</title>
<path fill="none" stroke="midnightblue" d="M1386.44,-130.144C1451.39,-119.469 1571.9,-99.6615 1644.24,-87.7709"/>
<polygon fill="midnightblue" stroke="midnightblue" points="1644.82,-91.2231 1654.12,-86.1474 1643.69,-84.3157 1644.82,-91.2231"/>
</g>
<!-- Node20&#45;&gt;Node18 -->
<g id="edge26" class="edge"><title>Node20&#45;&gt;Node18</title>
<path fill="none" stroke="midnightblue" d="M1386.43,-129.692C1413.21,-122.793 1445.97,-110.076 1466.69,-87 1479.55,-72.6787 1484.19,-50.6641 1485.84,-35.0498"/>
<polygon fill="midnightblue" stroke="midnightblue" points="1489.34,-35.2449 1486.59,-25.013 1482.36,-34.7262 1489.34,-35.2449"/>
</g>
<!-- Node21 -->
<g id="node21" class="node"><title>Node21</title>
<g id="a_node21"><a xlink:href="detected__obj_8h.html" target="_top" xlink:title=" ">
<polygon fill="white" stroke="black" points="1515.19,-67.5 1515.19,-86.5 1636.19,-86.5 1636.19,-67.5 1515.19,-67.5"/>
<text text-anchor="middle" x="1575.69" y="-74.5" font-family="Helvetica,sans-Serif" font-size="10.00">common/detected_obj.h</text>
</a>
</g>
</g>
<!-- Node20&#45;&gt;Node21 -->
<g id="edge20" class="edge"><title>Node20&#45;&gt;Node21</title>
<path fill="none" stroke="midnightblue" d="M1375.22,-128.975C1416.57,-118.459 1486.96,-100.562 1532.37,-89.0142"/>
<polygon fill="midnightblue" stroke="midnightblue" points="1533.4,-92.3655 1542.23,-86.5091 1531.67,-85.5814 1533.4,-92.3655"/>
</g>
<!-- Node22 -->
<g id="node22" class="node"><title>Node22</title>
<g id="a_node22"><a xlink:href="mrr__config_8h.html" target="_top" xlink:title=" ">
<polygon fill="white" stroke="black" points="1226.69,-67.5 1226.69,-86.5 1336.69,-86.5 1336.69,-67.5 1226.69,-67.5"/>
<text text-anchor="middle" x="1281.69" y="-74.5" font-family="Helvetica,sans-Serif" font-size="10.00">common/mrr_config.h</text>
</a>
</g>
</g>
<!-- Node20&#45;&gt;Node22 -->
<g id="edge21" class="edge"><title>Node20&#45;&gt;Node22</title>
<path fill="none" stroke="midnightblue" d="M1333.09,-128.975C1323.83,-119.785 1308.87,-104.956 1297.48,-93.656"/>
<polygon fill="midnightblue" stroke="midnightblue" points="1299.84,-91.0653 1290.27,-86.5091 1294.91,-96.0358 1299.84,-91.0653"/>
</g>
<!-- Node23 -->
<g id="node23" class="node"><title>Node23</title>
<g id="a_node23"><a xlink:href="_e_k_f___x_y_z___consts_8h.html" target="_top" xlink:title="Constants for the Extended Kalman Filter.">
<polygon fill="white" stroke="black" points="1355.19,-67.5 1355.19,-86.5 1458.19,-86.5 1458.19,-67.5 1355.19,-67.5"/>
<text text-anchor="middle" x="1406.69" y="-74.5" font-family="Helvetica,sans-Serif" font-size="10.00">EKF_XYZ_Consts.h</text>
</a>
</g>
</g>
<!-- Node20&#45;&gt;Node23 -->
<g id="edge30" class="edge"><title>Node20&#45;&gt;Node23</title>
<path fill="none" stroke="midnightblue" d="M1351,-128.975C1361.14,-119.697 1377.55,-104.671 1389.94,-93.331"/>
<polygon fill="midnightblue" stroke="midnightblue" points="1392.38,-95.8429 1397.39,-86.5091 1387.66,-90.6795 1392.38,-95.8429"/>
</g>
<!-- Node22&#45;&gt;Node9 -->
<g id="edge22" class="edge"><title>Node22&#45;&gt;Node9</title>
<path fill="none" stroke="midnightblue" d="M1226.4,-68.1495C1223.11,-67.7439 1219.86,-67.3572 1216.69,-67 1039.42,-47.0236 830.908,-30.5889 718.484,-22.3072"/>
<polygon fill="midnightblue" stroke="midnightblue" points="718.469,-18.7968 708.239,-21.5556 717.956,-25.778 718.469,-18.7968"/>
</g>
<!-- Node22&#45;&gt;Node18 -->
<g id="edge23" class="edge"><title>Node22&#45;&gt;Node18</title>
<path fill="none" stroke="midnightblue" d="M1311.06,-67.4751C1346.99,-57.0478 1407.92,-39.3618 1447.73,-27.8066"/>
<polygon fill="midnightblue" stroke="midnightblue" points="1448.75,-31.1578 1457.37,-25.0091 1446.79,-24.4353 1448.75,-31.1578"/>
</g>
</g>
</svg>
