<?xml version="1.0" encoding="UTF-8" standalone="no"?>
<!DOCTYPE svg PUBLIC "-//W3C//DTD SVG 1.1//EN"
 "http://www.w3.org/Graphics/SVG/1.1/DTD/svg11.dtd">
<!-- Generated by graphviz version 2.38.0 (20140413.2041)
 -->
<!-- Title: MCB_t Pages: 1 -->
<svg width="2955pt" height="887pt"
 viewBox="0.00 0.00 2954.50 887.00" xmlns="http://www.w3.org/2000/svg" xmlns:xlink="http://www.w3.org/1999/xlink">
<g id="graph0" class="graph" transform="scale(1 1) rotate(0) translate(4 883)">
<title>MCB_t</title>
<polygon fill="white" stroke="none" points="-4,4 -4,-883 2950.5,-883 2950.5,4 -4,4"/>
<!-- Node1 -->
<g id="node1" class="node"><title>Node1</title>
<g id="a_node1"><a xlink:title="DSP&#45;Subsystem (DSS) Master control block (MCB) The structure is used to hold handling information,...">
<polygon fill="#bfbfbf" stroke="black" points="1259.5,-0.5 1259.5,-211.5 1378.5,-211.5 1378.5,-0.5 1259.5,-0.5"/>
<text text-anchor="middle" x="1319" y="-199.5" font-family="Helvetica,sans-Serif" font-size="10.00">MCB_t</text>
<polyline fill="none" stroke="black" points="1259.5,-192.5 1378.5,-192.5 "/>
<text text-anchor="start" x="1267.5" y="-180.5" font-family="Helvetica,sans-Serif" font-size="10.00">+ socHandle</text>
<text text-anchor="start" x="1267.5" y="-169.5" font-family="Helvetica,sans-Serif" font-size="10.00">+ mboxHandle</text>
<text text-anchor="start" x="1267.5" y="-158.5" font-family="Helvetica,sans-Serif" font-size="10.00">+ mboxSemHandle</text>
<text text-anchor="start" x="1267.5" y="-147.5" font-family="Helvetica,sans-Serif" font-size="10.00">+ chirpIntHandle</text>
<text text-anchor="start" x="1267.5" y="-136.5" font-family="Helvetica,sans-Serif" font-size="10.00">+ frameStartIntHandle</text>
<text text-anchor="start" x="1267.5" y="-125.5" font-family="Helvetica,sans-Serif" font-size="10.00">+ ctrlHandle</text>
<text text-anchor="start" x="1267.5" y="-114.5" font-family="Helvetica,sans-Serif" font-size="10.00">+ adcBufHandle</text>
<text text-anchor="start" x="1267.5" y="-103.5" font-family="Helvetica,sans-Serif" font-size="10.00">+ state</text>
<text text-anchor="start" x="1267.5" y="-92.5" font-family="Helvetica,sans-Serif" font-size="10.00">+ loggingBufferAvailable</text>
<text text-anchor="start" x="1267.5" y="-81.5" font-family="Helvetica,sans-Serif" font-size="10.00">+ subframeIndx</text>
<text text-anchor="start" x="1267.5" y="-70.5" font-family="Helvetica,sans-Serif" font-size="10.00">+ interFrameProcToken</text>
<text text-anchor="start" x="1267.5" y="-59.5" font-family="Helvetica,sans-Serif" font-size="10.00">+ frameStartIntToken</text>
<text text-anchor="start" x="1267.5" y="-48.5" font-family="Helvetica,sans-Serif" font-size="10.00">+ chirpProcToken</text>
<text text-anchor="start" x="1267.5" y="-37.5" font-family="Helvetica,sans-Serif" font-size="10.00">+ mboxProcToken</text>
<text text-anchor="start" x="1267.5" y="-26.5" font-family="Helvetica,sans-Serif" font-size="10.00">+ frameProcToken</text>
<polyline fill="none" stroke="black" points="1259.5,-19.5 1378.5,-19.5 "/>
<text text-anchor="middle" x="1319" y="-7.5" font-family="Helvetica,sans-Serif" font-size="10.00"> </text>
</a>
</g>
</g>
<!-- Node2 -->
<g id="node2" class="node"><title>Node2</title>
<g id="a_node2"><a xlink:href="struct_mmw_demo___d_s_s___s_t_a_t_s__t.html" target="_top" xlink:title=" ">
<polygon fill="white" stroke="black" points="1195.5,-259.5 1195.5,-459.5 1330.5,-459.5 1330.5,-259.5 1195.5,-259.5"/>
<text text-anchor="middle" x="1263" y="-447.5" font-family="Helvetica,sans-Serif" font-size="10.00">MmwDemo_DSS_STATS_t</text>
<polyline fill="none" stroke="black" points="1195.5,-440.5 1330.5,-440.5 "/>
<text text-anchor="start" x="1203.5" y="-428.5" font-family="Helvetica,sans-Serif" font-size="10.00">+ configEvt</text>
<text text-anchor="start" x="1203.5" y="-417.5" font-family="Helvetica,sans-Serif" font-size="10.00">+ startEvt</text>
<text text-anchor="start" x="1203.5" y="-406.5" font-family="Helvetica,sans-Serif" font-size="10.00">+ stopEvt</text>
<text text-anchor="start" x="1203.5" y="-395.5" font-family="Helvetica,sans-Serif" font-size="10.00">+ chirpIntSkipCounter</text>
<text text-anchor="start" x="1203.5" y="-384.5" font-family="Helvetica,sans-Serif" font-size="10.00">+ frameIntSkipCounter</text>
<text text-anchor="start" x="1203.5" y="-373.5" font-family="Helvetica,sans-Serif" font-size="10.00">+ chirpIntCounter</text>
<text text-anchor="start" x="1203.5" y="-362.5" font-family="Helvetica,sans-Serif" font-size="10.00">+ frameStartIntCounter</text>
<text text-anchor="start" x="1203.5" y="-351.5" font-family="Helvetica,sans-Serif" font-size="10.00">+ chirpEvt</text>
<text text-anchor="start" x="1203.5" y="-340.5" font-family="Helvetica,sans-Serif" font-size="10.00">+ frameStartEvt</text>
<text text-anchor="start" x="1203.5" y="-329.5" font-family="Helvetica,sans-Serif" font-size="10.00">+ frameTrigEvt</text>
<text text-anchor="start" x="1203.5" y="-318.5" font-family="Helvetica,sans-Serif" font-size="10.00">+ numFailedTimingReports</text>
<text text-anchor="start" x="1203.5" y="-307.5" font-family="Helvetica,sans-Serif" font-size="10.00">+ numCalibrationReports</text>
<text text-anchor="start" x="1203.5" y="-296.5" font-family="Helvetica,sans-Serif" font-size="10.00">+ detObjLoggingSkip</text>
<text text-anchor="start" x="1203.5" y="-285.5" font-family="Helvetica,sans-Serif" font-size="10.00">+ detObjLoggingErr</text>
<polyline fill="none" stroke="black" points="1195.5,-278.5 1330.5,-278.5 "/>
<text text-anchor="middle" x="1263" y="-266.5" font-family="Helvetica,sans-Serif" font-size="10.00"> </text>
</a>
</g>
</g>
<!-- Node2&#45;&gt;Node1 -->
<g id="edge1" class="edge"><title>Node2&#45;&gt;Node1</title>
<path fill="none" stroke="#404040" d="M1285.05,-259.462C1287.67,-247.709 1290.36,-235.63 1293.02,-223.661"/>
<polygon fill="none" stroke="#404040" points="1293.07,-223.458 1290.47,-216.732 1295.68,-211.745 1298.28,-218.471 1293.07,-223.458"/>
<text text-anchor="middle" x="1306.5" y="-233" font-family="Helvetica,sans-Serif" font-size="10.00"> +stats</text>
</g>
<!-- Node3 -->
<g id="node3" class="node"><title>Node3</title>
<g id="a_node3"><a xlink:href="struct_d_s_s___data_path_obj__t.html" target="_top" xlink:title="Millimeter Wave Demo Data Path Information.">
<polygon fill="white" stroke="black" points="1348.5,-276 1348.5,-443 1517.5,-443 1517.5,-276 1348.5,-276"/>
<text text-anchor="middle" x="1433" y="-431" font-family="Helvetica,sans-Serif" font-size="10.00">DSS_DataPathObj_t</text>
<polyline fill="none" stroke="black" points="1348.5,-424 1517.5,-424 "/>
<text text-anchor="start" x="1356.5" y="-412" font-family="Helvetica,sans-Serif" font-size="10.00">+ adcbufHandle</text>
<text text-anchor="start" x="1356.5" y="-401" font-family="Helvetica,sans-Serif" font-size="10.00">+ edmaHandle</text>
<text text-anchor="start" x="1356.5" y="-390" font-family="Helvetica,sans-Serif" font-size="10.00">+ EDMA_errorInfo</text>
<text text-anchor="start" x="1356.5" y="-379" font-family="Helvetica,sans-Serif" font-size="10.00">+ EDMA_transferControllerErrorInfo</text>
<text text-anchor="start" x="1356.5" y="-368" font-family="Helvetica,sans-Serif" font-size="10.00">+ ADCdataBuf</text>
<text text-anchor="start" x="1356.5" y="-357" font-family="Helvetica,sans-Serif" font-size="10.00">+ twiddle16x16_1D</text>
<text text-anchor="start" x="1356.5" y="-346" font-family="Helvetica,sans-Serif" font-size="10.00">+ window1D</text>
<text text-anchor="start" x="1356.5" y="-335" font-family="Helvetica,sans-Serif" font-size="10.00">+ adcDataIn</text>
<text text-anchor="start" x="1356.5" y="-324" font-family="Helvetica,sans-Serif" font-size="10.00">+ fftOut1D</text>
<text text-anchor="start" x="1356.5" y="-313" font-family="Helvetica,sans-Serif" font-size="10.00">+ twiddle32x32_2D</text>
<text text-anchor="start" x="1356.5" y="-302" font-family="Helvetica,sans-Serif" font-size="10.00">and 75 more...</text>
<polyline fill="none" stroke="black" points="1348.5,-295 1517.5,-295 "/>
<text text-anchor="middle" x="1433" y="-283" font-family="Helvetica,sans-Serif" font-size="10.00"> </text>
</a>
</g>
</g>
<!-- Node3&#45;&gt;Node1 -->
<g id="edge2" class="edge"><title>Node3&#45;&gt;Node1</title>
<path fill="none" stroke="#404040" d="M1395.51,-275.801C1387.83,-258.847 1379.61,-240.705 1371.5,-222.832"/>
<polygon fill="none" stroke="#404040" points="1371.44,-222.681 1365.32,-218.868 1366.48,-211.752 1372.6,-215.565 1371.44,-222.681"/>
<text text-anchor="middle" x="1412" y="-233" font-family="Helvetica,sans-Serif" font-size="10.00"> +dataPathObj</text>
</g>
<!-- Node4 -->
<g id="node4" class="node"><title>Node4</title>
<g id="a_node4"><a xlink:href="structclustering_d_bscan_instance.html" target="_top" xlink:title="error code for clusteringDBscan.">
<polygon fill="white" stroke="black" points="0,-518.5 0,-718.5 130,-718.5 130,-518.5 0,-518.5"/>
<text text-anchor="middle" x="65" y="-706.5" font-family="Helvetica,sans-Serif" font-size="10.00">clusteringDBscanInstance</text>
<polyline fill="none" stroke="black" points="0,-699.5 130,-699.5 "/>
<text text-anchor="start" x="8" y="-687.5" font-family="Helvetica,sans-Serif" font-size="10.00">+ epsilon</text>
<text text-anchor="start" x="8" y="-676.5" font-family="Helvetica,sans-Serif" font-size="10.00">+ weight</text>
<text text-anchor="start" x="8" y="-665.5" font-family="Helvetica,sans-Serif" font-size="10.00">+ vFactor</text>
<text text-anchor="start" x="8" y="-654.5" font-family="Helvetica,sans-Serif" font-size="10.00">+ minPointsInCluster</text>
<text text-anchor="start" x="8" y="-643.5" font-family="Helvetica,sans-Serif" font-size="10.00">+ maxClusters</text>
<text text-anchor="start" x="8" y="-632.5" font-family="Helvetica,sans-Serif" font-size="10.00">+ pointIndex</text>
<text text-anchor="start" x="8" y="-621.5" font-family="Helvetica,sans-Serif" font-size="10.00">+ maxPoints</text>
<text text-anchor="start" x="8" y="-610.5" font-family="Helvetica,sans-Serif" font-size="10.00">+ dBScanNeighbourLim</text>
<text text-anchor="start" x="8" y="-599.5" font-family="Helvetica,sans-Serif" font-size="10.00">+ fixedPointScale</text>
<text text-anchor="start" x="8" y="-588.5" font-family="Helvetica,sans-Serif" font-size="10.00">+ scratchPad</text>
<text text-anchor="start" x="8" y="-577.5" font-family="Helvetica,sans-Serif" font-size="10.00">+ visited</text>
<text text-anchor="start" x="8" y="-566.5" font-family="Helvetica,sans-Serif" font-size="10.00">+ scope</text>
<text text-anchor="start" x="8" y="-555.5" font-family="Helvetica,sans-Serif" font-size="10.00">+ neighbors</text>
<text text-anchor="start" x="8" y="-544.5" font-family="Helvetica,sans-Serif" font-size="10.00">+ distances</text>
<polyline fill="none" stroke="black" points="0,-537.5 130,-537.5 "/>
<text text-anchor="middle" x="65" y="-525.5" font-family="Helvetica,sans-Serif" font-size="10.00"> </text>
</a>
</g>
</g>
<!-- Node4&#45;&gt;Node3 -->
<g id="edge3" class="edge"><title>Node4&#45;&gt;Node3</title>
<path fill="none" stroke="#404040" d="M111.764,-518.364C123.865,-502.211 138.529,-487.636 156,-478 213.557,-446.257 1278.84,-486.472 1339,-460 1345.12,-457.308 1351.03,-454.007 1356.7,-450.263"/>
<polygon fill="none" stroke="#404040" points="1356.91,-450.106 1359.43,-443.35 1366.64,-443.08 1364.12,-449.836 1356.91,-450.106"/>
<text text-anchor="middle" x="195.5" y="-486.5" font-family="Helvetica,sans-Serif" font-size="10.00"> +dbScanInstance</text>
</g>
<!-- Node5 -->
<g id="node5" class="node"><title>Node5</title>
<g id="a_node5"><a xlink:href="struct_k_fstate.html" target="_top" xlink:title="Kalman filter state.">
<polygon fill="white" stroke="black" points="148,-557 148,-680 204,-680 204,-557 148,-557"/>
<text text-anchor="middle" x="176" y="-668" font-family="Helvetica,sans-Serif" font-size="10.00">KFstate</text>
<polyline fill="none" stroke="black" points="148,-661 204,-661 "/>
<text text-anchor="start" x="156" y="-649" font-family="Helvetica,sans-Serif" font-size="10.00">+ age</text>
<text text-anchor="start" x="156" y="-638" font-family="Helvetica,sans-Serif" font-size="10.00">+ tick</text>
<text text-anchor="start" x="156" y="-627" font-family="Helvetica,sans-Serif" font-size="10.00">+ validity</text>
<text text-anchor="start" x="156" y="-616" font-family="Helvetica,sans-Serif" font-size="10.00">+ xSize</text>
<text text-anchor="start" x="156" y="-605" font-family="Helvetica,sans-Serif" font-size="10.00">+ ySize</text>
<text text-anchor="start" x="156" y="-594" font-family="Helvetica,sans-Serif" font-size="10.00">+ vec</text>
<text text-anchor="start" x="156" y="-583" font-family="Helvetica,sans-Serif" font-size="10.00">+ covmat</text>
<polyline fill="none" stroke="black" points="148,-576 204,-576 "/>
<text text-anchor="middle" x="176" y="-564" font-family="Helvetica,sans-Serif" font-size="10.00"> </text>
</a>
</g>
</g>
<!-- Node5&#45;&gt;Node3 -->
<g id="edge4" class="edge"><title>Node5&#45;&gt;Node3</title>
<path fill="none" stroke="#404040" d="M188.406,-556.757C193.871,-542.43 201.724,-528.337 213,-518 262.279,-472.825 291.838,-487.577 358,-478 411.947,-470.191 1289.14,-482.031 1339,-460 1345.11,-457.299 1351.02,-453.99 1356.69,-450.24"/>
<polygon fill="none" stroke="#404040" points="1356.9,-450.082 1359.42,-443.324 1366.63,-443.049 1364.11,-449.806 1356.9,-450.082"/>
<text text-anchor="middle" x="389.5" y="-486.5" font-family="Helvetica,sans-Serif" font-size="10.00"> +trackerState</text>
</g>
<!-- Node6 -->
<g id="node6" class="node"><title>Node6</title>
<g id="a_node6"><a xlink:href="struct_mmw_demo___calib_dc_range_sig_cfg__t.html" target="_top" xlink:title="Millimeter Wave Demo DC range signature compensation.">
<polygon fill="white" stroke="black" points="222.5,-573.5 222.5,-663.5 391.5,-663.5 391.5,-573.5 222.5,-573.5"/>
<text text-anchor="middle" x="307" y="-651.5" font-family="Helvetica,sans-Serif" font-size="10.00">MmwDemo_CalibDcRangeSigCfg_t</text>
<polyline fill="none" stroke="black" points="222.5,-644.5 391.5,-644.5 "/>
<text text-anchor="start" x="230.5" y="-632.5" font-family="Helvetica,sans-Serif" font-size="10.00">+ enabled</text>
<text text-anchor="start" x="230.5" y="-621.5" font-family="Helvetica,sans-Serif" font-size="10.00">+ negativeBinIdx</text>
<text text-anchor="start" x="230.5" y="-610.5" font-family="Helvetica,sans-Serif" font-size="10.00">+ positiveBinIdx</text>
<text text-anchor="start" x="230.5" y="-599.5" font-family="Helvetica,sans-Serif" font-size="10.00">+ numAvgChirps</text>
<polyline fill="none" stroke="black" points="222.5,-592.5 391.5,-592.5 "/>
<text text-anchor="middle" x="307" y="-580.5" font-family="Helvetica,sans-Serif" font-size="10.00"> </text>
</a>
</g>
</g>
<!-- Node6&#45;&gt;Node3 -->
<g id="edge5" class="edge"><title>Node6&#45;&gt;Node3</title>
<path fill="none" stroke="#404040" d="M342.327,-573.364C358.601,-554.804 378.956,-533.882 400,-518 431.097,-494.531 440.227,-487.54 478,-478 570.775,-454.57 1251.53,-498.787 1339,-460 1345.11,-457.291 1351.01,-453.976 1356.68,-450.221"/>
<polygon fill="none" stroke="#404040" points="1356.9,-450.062 1359.41,-443.303 1366.62,-443.023 1364.1,-449.782 1356.9,-450.062"/>
<text text-anchor="middle" x="527" y="-486.5" font-family="Helvetica,sans-Serif" font-size="10.00"> +calibDcRangeSigCfg</text>
</g>
<!-- Node7 -->
<g id="node7" class="node"><title>Node7</title>
<g id="a_node7"><a xlink:href="struct_mmw_demo___multi_obj_beam_forming_cfg__t.html" target="_top" xlink:title="Millimeter Wave Demo multi object beam formaing Configuration.">
<polygon fill="white" stroke="black" points="409.5,-579 409.5,-658 576.5,-658 576.5,-579 409.5,-579"/>
<text text-anchor="start" x="417.5" y="-646" font-family="Helvetica,sans-Serif" font-size="10.00">MmwDemo_MultiObjBeamForming</text>
<text text-anchor="middle" x="493" y="-635" font-family="Helvetica,sans-Serif" font-size="10.00">Cfg_t</text>
<polyline fill="none" stroke="black" points="409.5,-628 576.5,-628 "/>
<text text-anchor="start" x="417.5" y="-616" font-family="Helvetica,sans-Serif" font-size="10.00">+ enabled</text>
<text text-anchor="start" x="417.5" y="-605" font-family="Helvetica,sans-Serif" font-size="10.00">+ multiPeakThrsScal</text>
<polyline fill="none" stroke="black" points="409.5,-598 576.5,-598 "/>
<text text-anchor="middle" x="493" y="-586" font-family="Helvetica,sans-Serif" font-size="10.00"> </text>
</a>
</g>
</g>
<!-- Node7&#45;&gt;Node3 -->
<g id="edge6" class="edge"><title>Node7&#45;&gt;Node3</title>
<path fill="none" stroke="#404040" d="M513.797,-578.745C534.148,-545.273 568.543,-499.071 613,-478 685.916,-443.441 1265.3,-492.851 1339,-460 1345.04,-457.309 1350.87,-454.029 1356.48,-450.318"/>
<polygon fill="none" stroke="#404040" points="1356.59,-450.239 1359.11,-443.483 1366.31,-443.21 1363.79,-449.966 1356.59,-450.239"/>
<text text-anchor="middle" x="673.5" y="-486.5" font-family="Helvetica,sans-Serif" font-size="10.00"> +multiObjBeamFormingCfg</text>
</g>
<!-- Node8 -->
<g id="node8" class="node"><title>Node8</title>
<g id="a_node8"><a xlink:href="struct_mmw_demo___cfar_cfg__t.html" target="_top" xlink:title="Millimeter Wave Demo CFAR Configuration.">
<polygon fill="white" stroke="black" points="595,-562.5 595,-674.5 705,-674.5 705,-562.5 595,-562.5"/>
<text text-anchor="middle" x="650" y="-662.5" font-family="Helvetica,sans-Serif" font-size="10.00">MmwDemo_CfarCfg_t</text>
<polyline fill="none" stroke="black" points="595,-655.5 705,-655.5 "/>
<text text-anchor="start" x="603" y="-643.5" font-family="Helvetica,sans-Serif" font-size="10.00">+ thresholdScale</text>
<text text-anchor="start" x="603" y="-632.5" font-family="Helvetica,sans-Serif" font-size="10.00">+ averageMode</text>
<text text-anchor="start" x="603" y="-621.5" font-family="Helvetica,sans-Serif" font-size="10.00">+ winLen</text>
<text text-anchor="start" x="603" y="-610.5" font-family="Helvetica,sans-Serif" font-size="10.00">+ guardLen</text>
<text text-anchor="start" x="603" y="-599.5" font-family="Helvetica,sans-Serif" font-size="10.00">+ noiseDivShift</text>
<text text-anchor="start" x="603" y="-588.5" font-family="Helvetica,sans-Serif" font-size="10.00">+ cyclicMode</text>
<polyline fill="none" stroke="black" points="595,-581.5 705,-581.5 "/>
<text text-anchor="middle" x="650" y="-569.5" font-family="Helvetica,sans-Serif" font-size="10.00"> </text>
</a>
</g>
</g>
<!-- Node8&#45;&gt;Node3 -->
<g id="edge7" class="edge"><title>Node8&#45;&gt;Node3</title>
<path fill="none" stroke="#404040" d="M678.153,-562.338C687.982,-546.665 700.09,-530.484 714,-518 743.585,-491.448 755.467,-487.771 794,-478 852.73,-463.108 1283.76,-484.894 1339,-460 1345.03,-457.284 1350.85,-453.984 1356.45,-450.259"/>
<polygon fill="none" stroke="#404040" points="1356.56,-450.177 1359.07,-443.415 1366.28,-443.129 1363.77,-449.89 1356.56,-450.177"/>
<text text-anchor="middle" x="830.5" y="-492" font-family="Helvetica,sans-Serif" font-size="10.00"> +cfarCfgDoppler</text>
<text text-anchor="middle" x="830.5" y="-481" font-family="Helvetica,sans-Serif" font-size="10.00">+cfarCfgRange</text>
</g>
<!-- Node9 -->
<g id="node9" class="node"><title>Node9</title>
<g id="a_node9"><a xlink:href="structtracking_report_for_tx__t.html" target="_top" xlink:title="Structure for tracking report.">
<polygon fill="white" stroke="black" points="723.5,-562.5 723.5,-674.5 836.5,-674.5 836.5,-562.5 723.5,-562.5"/>
<text text-anchor="middle" x="780" y="-662.5" font-family="Helvetica,sans-Serif" font-size="10.00">trackingReportForTx_t</text>
<polyline fill="none" stroke="black" points="723.5,-655.5 836.5,-655.5 "/>
<text text-anchor="start" x="731.5" y="-643.5" font-family="Helvetica,sans-Serif" font-size="10.00">+ x</text>
<text text-anchor="start" x="731.5" y="-632.5" font-family="Helvetica,sans-Serif" font-size="10.00">+ y</text>
<text text-anchor="start" x="731.5" y="-621.5" font-family="Helvetica,sans-Serif" font-size="10.00">+ xd</text>
<text text-anchor="start" x="731.5" y="-610.5" font-family="Helvetica,sans-Serif" font-size="10.00">+ yd</text>
<text text-anchor="start" x="731.5" y="-599.5" font-family="Helvetica,sans-Serif" font-size="10.00">+ xSize</text>
<text text-anchor="start" x="731.5" y="-588.5" font-family="Helvetica,sans-Serif" font-size="10.00">+ ySize</text>
<polyline fill="none" stroke="black" points="723.5,-581.5 836.5,-581.5 "/>
<text text-anchor="middle" x="780" y="-569.5" font-family="Helvetica,sans-Serif" font-size="10.00"> </text>
</a>
</g>
</g>
<!-- Node9&#45;&gt;Node3 -->
<g id="edge8" class="edge"><title>Node9&#45;&gt;Node3</title>
<path fill="none" stroke="#404040" d="M807.991,-562.392C818.021,-546.54 830.495,-530.246 845,-518 879.069,-489.238 893.562,-488.053 937,-478 1024.12,-457.837 1257.69,-497.219 1339,-460 1345.01,-457.249 1350.82,-453.921 1356.41,-450.175"/>
<polygon fill="none" stroke="#404040" points="1356.53,-450.088 1359.02,-443.32 1366.22,-443.013 1363.74,-449.781 1356.53,-450.088"/>
<text text-anchor="middle" x="973.5" y="-486.5" font-family="Helvetica,sans-Serif" font-size="10.00"> +trackerOpFinal</text>
</g>
<!-- Node10 -->
<g id="node10" class="node"><title>Node10</title>
<g id="a_node10"><a xlink:href="struct_mmw_demo__obj_raw1_d.html" target="_top" xlink:title="Parameters of CFAR detected object during the first round of CFAR detections.">
<polygon fill="white" stroke="black" points="854.5,-573.5 854.5,-663.5 973.5,-663.5 973.5,-573.5 854.5,-573.5"/>
<text text-anchor="middle" x="914" y="-651.5" font-family="Helvetica,sans-Serif" font-size="10.00">MmwDemo_objRaw1D</text>
<polyline fill="none" stroke="black" points="854.5,-644.5 973.5,-644.5 "/>
<text text-anchor="start" x="862.5" y="-632.5" font-family="Helvetica,sans-Serif" font-size="10.00">+ rangeIdx</text>
<text text-anchor="start" x="862.5" y="-621.5" font-family="Helvetica,sans-Serif" font-size="10.00">+ dopplerIdx</text>
<text text-anchor="start" x="862.5" y="-610.5" font-family="Helvetica,sans-Serif" font-size="10.00">+ velDisambFacValidity</text>
<text text-anchor="start" x="862.5" y="-599.5" font-family="Helvetica,sans-Serif" font-size="10.00">+ dopplerSNRdB</text>
<polyline fill="none" stroke="black" points="854.5,-592.5 973.5,-592.5 "/>
<text text-anchor="middle" x="914" y="-580.5" font-family="Helvetica,sans-Serif" font-size="10.00"> </text>
</a>
</g>
</g>
<!-- Node10&#45;&gt;Node3 -->
<g id="edge9" class="edge"><title>Node10&#45;&gt;Node3</title>
<path fill="none" stroke="#404040" d="M936.053,-573.284C947.67,-553.92 963.568,-532.38 983,-518 1029.89,-483.302 1050.76,-489.23 1108,-478 1158.53,-468.087 1292.54,-482.201 1339,-460 1344.68,-457.284 1350.2,-454.064 1355.52,-450.472"/>
<polygon fill="none" stroke="#404040" points="1355.83,-450.246 1358.3,-443.47 1365.5,-443.144 1363.03,-449.919 1355.83,-450.246"/>
<text text-anchor="middle" x="1142.5" y="-486.5" font-family="Helvetica,sans-Serif" font-size="10.00"> +detObj1DRaw</text>
</g>
<!-- Node11 -->
<g id="node11" class="node"><title>Node11</title>
<g id="a_node11"><a xlink:href="struct_mmw_demo__detected_obj_for_tx__t.html" target="_top" xlink:title="Detected object estimated parameters to be transmitted out.">
<polygon fill="white" stroke="black" points="992,-568 992,-669 1148,-669 1148,-568 992,-568"/>
<text text-anchor="middle" x="1070" y="-657" font-family="Helvetica,sans-Serif" font-size="10.00">MmwDemo_detectedObjForTx_t</text>
<polyline fill="none" stroke="black" points="992,-650 1148,-650 "/>
<text text-anchor="start" x="1000" y="-638" font-family="Helvetica,sans-Serif" font-size="10.00">+ speed</text>
<text text-anchor="start" x="1000" y="-627" font-family="Helvetica,sans-Serif" font-size="10.00">+ peakVal</text>
<text text-anchor="start" x="1000" y="-616" font-family="Helvetica,sans-Serif" font-size="10.00">+ x</text>
<text text-anchor="start" x="1000" y="-605" font-family="Helvetica,sans-Serif" font-size="10.00">+ y</text>
<text text-anchor="start" x="1000" y="-594" font-family="Helvetica,sans-Serif" font-size="10.00">+ z</text>
<polyline fill="none" stroke="black" points="992,-587 1148,-587 "/>
<text text-anchor="middle" x="1070" y="-575" font-family="Helvetica,sans-Serif" font-size="10.00"> </text>
</a>
</g>
</g>
<!-- Node11&#45;&gt;Node3 -->
<g id="edge10" class="edge"><title>Node11&#45;&gt;Node3</title>
<path fill="none" stroke="#404040" d="M1107.76,-567.873C1122.08,-550.892 1139.24,-532.531 1157,-518 1184.73,-495.31 1193.21,-489.924 1227,-478 1274.54,-461.222 1294.44,-483.575 1339,-460 1344.24,-457.229 1349.35,-454.053 1354.3,-450.579"/>
<polygon fill="none" stroke="#404040" points="1354.68,-450.294 1357.06,-443.486 1364.26,-443.06 1361.88,-449.869 1354.68,-450.294"/>
<text text-anchor="middle" x="1256.5" y="-486.5" font-family="Helvetica,sans-Serif" font-size="10.00"> +detObjFinal</text>
</g>
<!-- Node12 -->
<g id="node12" class="node"><title>Node12</title>
<g id="a_node12"><a xlink:href="struct_mmw_demo__1_d___doppler_lines.html" target="_top" xlink:title="Active Doppler lines, lines (bins) on which the CFAR detector detected objects during the detections ...">
<polygon fill="white" stroke="black" points="1166,-579 1166,-658 1310,-658 1310,-579 1166,-579"/>
<text text-anchor="middle" x="1238" y="-646" font-family="Helvetica,sans-Serif" font-size="10.00">MmwDemo_1D_DopplerLines</text>
<polyline fill="none" stroke="black" points="1166,-639 1310,-639 "/>
<text text-anchor="start" x="1174" y="-627" font-family="Helvetica,sans-Serif" font-size="10.00">+ dopplerLineMask</text>
<text text-anchor="start" x="1174" y="-616" font-family="Helvetica,sans-Serif" font-size="10.00">+ currentIndex</text>
<text text-anchor="start" x="1174" y="-605" font-family="Helvetica,sans-Serif" font-size="10.00">+ dopplerLineMaskLen</text>
<polyline fill="none" stroke="black" points="1166,-598 1310,-598 "/>
<text text-anchor="middle" x="1238" y="-586" font-family="Helvetica,sans-Serif" font-size="10.00"> </text>
</a>
</g>
</g>
<!-- Node12&#45;&gt;Node3 -->
<g id="edge11" class="edge"><title>Node12&#45;&gt;Node3</title>
<path fill="none" stroke="#404040" d="M1249.1,-578.959C1259.47,-548.524 1277.53,-506.565 1305,-478 1316.85,-465.675 1325.39,-470.352 1339,-460 1342.72,-457.167 1346.43,-454.182 1350.1,-451.084"/>
<polygon fill="none" stroke="#404040" points="1350.11,-451.077 1351.99,-444.115 1359.14,-443.174 1357.26,-450.136 1350.11,-451.077"/>
<text text-anchor="middle" x="1344.5" y="-486.5" font-family="Helvetica,sans-Serif" font-size="10.00"> +detDopplerLines</text>
</g>
<!-- Node13 -->
<g id="node13" class="node"><title>Node13</title>
<g id="a_node13"><a xlink:href="struct_k_ftracker_instance.html" target="_top" xlink:title="Struct for the tracker configuration, and pointers to scratch buffers.">
<polygon fill="white" stroke="black" points="1328.5,-535 1328.5,-702 1443.5,-702 1443.5,-535 1328.5,-535"/>
<text text-anchor="middle" x="1386" y="-690" font-family="Helvetica,sans-Serif" font-size="10.00">KFtrackerInstance</text>
<polyline fill="none" stroke="black" points="1328.5,-683 1443.5,-683 "/>
<text text-anchor="start" x="1336.5" y="-671" font-family="Helvetica,sans-Serif" font-size="10.00">+ rangeAssocThresh</text>
<text text-anchor="start" x="1336.5" y="-660" font-family="Helvetica,sans-Serif" font-size="10.00">+ velAssocThresh</text>
<text text-anchor="start" x="1336.5" y="-649" font-family="Helvetica,sans-Serif" font-size="10.00">+ azimAssocThresh</text>
<text text-anchor="start" x="1336.5" y="-638" font-family="Helvetica,sans-Serif" font-size="10.00">+ distAssocThreshSq</text>
<text text-anchor="start" x="1336.5" y="-627" font-family="Helvetica,sans-Serif" font-size="10.00">+ maxTrackers</text>
<text text-anchor="start" x="1336.5" y="-616" font-family="Helvetica,sans-Serif" font-size="10.00">+ fixedPointScale</text>
<text text-anchor="start" x="1336.5" y="-605" font-family="Helvetica,sans-Serif" font-size="10.00">+ scratchPadFlt</text>
<text text-anchor="start" x="1336.5" y="-594" font-family="Helvetica,sans-Serif" font-size="10.00">+ scratchPadShort</text>
<text text-anchor="start" x="1336.5" y="-583" font-family="Helvetica,sans-Serif" font-size="10.00">+ assocMeasIndx</text>
<text text-anchor="start" x="1336.5" y="-572" font-family="Helvetica,sans-Serif" font-size="10.00">+ freeTrackerIndxArray</text>
<text text-anchor="start" x="1336.5" y="-561" font-family="Helvetica,sans-Serif" font-size="10.00">and 11 more...</text>
<polyline fill="none" stroke="black" points="1328.5,-554 1443.5,-554 "/>
<text text-anchor="middle" x="1386" y="-542" font-family="Helvetica,sans-Serif" font-size="10.00"> </text>
</a>
</g>
</g>
<!-- Node13&#45;&gt;Node3 -->
<g id="edge12" class="edge"><title>Node13&#45;&gt;Node3</title>
<path fill="none" stroke="#404040" d="M1383.99,-534.773C1384.74,-515.983 1386.5,-496.202 1390,-478 1391.47,-470.35 1393.37,-462.538 1395.55,-454.759"/>
<polygon fill="none" stroke="#404040" points="1395.63,-454.502 1393.52,-447.609 1399.07,-443.004 1401.18,-449.898 1395.63,-454.502"/>
<text text-anchor="middle" x="1428" y="-486.5" font-family="Helvetica,sans-Serif" font-size="10.00"> +trackerInstance</text>
</g>
<!-- Node14 -->
<g id="node14" class="node"><title>Node14</title>
<g id="a_node14"><a xlink:href="structclustering_d_bscan_report.html" target="_top" xlink:title="Structure for each cluster information report .">
<polygon fill="white" stroke="black" points="1476,-766.5 1476,-878.5 1598,-878.5 1598,-766.5 1476,-766.5"/>
<text text-anchor="middle" x="1537" y="-866.5" font-family="Helvetica,sans-Serif" font-size="10.00">clusteringDBscanReport</text>
<polyline fill="none" stroke="black" points="1476,-859.5 1598,-859.5 "/>
<text text-anchor="start" x="1484" y="-847.5" font-family="Helvetica,sans-Serif" font-size="10.00">+ numPoints</text>
<text text-anchor="start" x="1484" y="-836.5" font-family="Helvetica,sans-Serif" font-size="10.00">+ xCenter</text>
<text text-anchor="start" x="1484" y="-825.5" font-family="Helvetica,sans-Serif" font-size="10.00">+ yCenter</text>
<text text-anchor="start" x="1484" y="-814.5" font-family="Helvetica,sans-Serif" font-size="10.00">+ xSize</text>
<text text-anchor="start" x="1484" y="-803.5" font-family="Helvetica,sans-Serif" font-size="10.00">+ ySize</text>
<text text-anchor="start" x="1484" y="-792.5" font-family="Helvetica,sans-Serif" font-size="10.00">+ avgVel</text>
<polyline fill="none" stroke="black" points="1476,-785.5 1598,-785.5 "/>
<text text-anchor="middle" x="1537" y="-773.5" font-family="Helvetica,sans-Serif" font-size="10.00"> </text>
</a>
</g>
</g>
<!-- Node14&#45;&gt;Node3 -->
<g id="edge13" class="edge"><title>Node14&#45;&gt;Node3</title>
<path fill="none" stroke="#404040" d="M1507,-766.429C1500.01,-751.432 1493.35,-734.923 1489,-719 1460.66,-615.202 1485.74,-583.772 1466,-478 1464.59,-470.462 1462.92,-462.706 1461.1,-454.946"/>
<polygon fill="none" stroke="#404040" points="1461.07,-454.847 1455.76,-449.973 1458.21,-443.193 1463.53,-448.066 1461.07,-454.847"/>
<text text-anchor="middle" x="1548.5" y="-621.5" font-family="Helvetica,sans-Serif" font-size="10.00"> +dbscanOutputDataReport</text>
<text text-anchor="middle" x="1548.5" y="-610.5" font-family="Helvetica,sans-Serif" font-size="10.00">+dbScanState</text>
</g>
<!-- Node15 -->
<g id="node15" class="node"><title>Node15</title>
<g id="a_node15"><a xlink:href="structclustering_d_bscan_output.html" target="_top" xlink:title="Structure of clustering output.">
<polygon fill="white" stroke="black" points="1617,-584.5 1617,-652.5 1739,-652.5 1739,-584.5 1617,-584.5"/>
<text text-anchor="middle" x="1678" y="-640.5" font-family="Helvetica,sans-Serif" font-size="10.00">clusteringDBscanOutput</text>
<polyline fill="none" stroke="black" points="1617,-633.5 1739,-633.5 "/>
<text text-anchor="start" x="1625" y="-621.5" font-family="Helvetica,sans-Serif" font-size="10.00">+ IndexArray</text>
<text text-anchor="start" x="1625" y="-610.5" font-family="Helvetica,sans-Serif" font-size="10.00">+ numCluster</text>
<polyline fill="none" stroke="black" points="1617,-603.5 1739,-603.5 "/>
<text text-anchor="middle" x="1678" y="-591.5" font-family="Helvetica,sans-Serif" font-size="10.00"> </text>
</a>
</g>
</g>
<!-- Node14&#45;&gt;Node15 -->
<g id="edge15" class="edge"><title>Node14&#45;&gt;Node15</title>
<path fill="none" stroke="#404040" d="M1575.53,-766.303C1598.39,-733.558 1626.93,-692.665 1648.08,-662.361"/>
<polygon fill="none" stroke="#404040" points="1648.08,-662.357 1648.24,-655.148 1654.95,-652.517 1654.8,-659.727 1648.08,-662.357"/>
<text text-anchor="middle" x="1612" y="-740" font-family="Helvetica,sans-Serif" font-size="10.00"> +report</text>
</g>
<!-- Node15&#45;&gt;Node3 -->
<g id="edge14" class="edge"><title>Node15&#45;&gt;Node3</title>
<path fill="none" stroke="#404040" d="M1655.08,-584.081C1640.9,-564.199 1621.85,-538.867 1603,-518 1579.48,-491.962 1552.25,-465.385 1526.57,-441.658"/>
<polygon fill="none" stroke="#404040" points="1526.4,-441.504 1519.28,-440.394 1517.56,-433.39 1524.69,-434.5 1526.4,-441.504"/>
<text text-anchor="middle" x="1621.5" y="-486.5" font-family="Helvetica,sans-Serif" font-size="10.00"> +dbScanReport</text>
</g>
<!-- Node16 -->
<g id="node16" class="node"><title>Node16</title>
<g id="a_node16"><a xlink:href="structmax_vel_enh_struct__t__.html" target="_top" xlink:title="pre&#45;computed parameters of the max&#45;velocity&#45;enhancement.">
<polygon fill="white" stroke="black" points="1757,-573.5 1757,-663.5 1897,-663.5 1897,-573.5 1757,-573.5"/>
<text text-anchor="middle" x="1827" y="-651.5" font-family="Helvetica,sans-Serif" font-size="10.00">maxVelEnhStruct_t_</text>
<polyline fill="none" stroke="black" points="1757,-644.5 1897,-644.5 "/>
<text text-anchor="start" x="1765" y="-632.5" font-family="Helvetica,sans-Serif" font-size="10.00">+ velResolutionFastChirp</text>
<text text-anchor="start" x="1765" y="-621.5" font-family="Helvetica,sans-Serif" font-size="10.00">+ invVelResolutionSlowChirp</text>
<text text-anchor="start" x="1765" y="-610.5" font-family="Helvetica,sans-Serif" font-size="10.00">+ maxVelAssocThresh</text>
<text text-anchor="start" x="1765" y="-599.5" font-family="Helvetica,sans-Serif" font-size="10.00">+ padding</text>
<polyline fill="none" stroke="black" points="1757,-592.5 1897,-592.5 "/>
<text text-anchor="middle" x="1827" y="-580.5" font-family="Helvetica,sans-Serif" font-size="10.00"> </text>
</a>
</g>
</g>
<!-- Node16&#45;&gt;Node3 -->
<g id="edge16" class="edge"><title>Node16&#45;&gt;Node3</title>
<path fill="none" stroke="#404040" d="M1798.34,-573.246C1784.7,-554.557 1767.18,-533.566 1748,-518 1682.02,-464.463 1594.86,-422.64 1528.95,-395.589"/>
<polygon fill="none" stroke="#404040" points="1528.85,-395.55 1521.79,-397.004 1517.73,-391.043 1524.79,-389.59 1528.85,-395.55"/>
<text text-anchor="middle" x="1761" y="-486.5" font-family="Helvetica,sans-Serif" font-size="10.00"> +maxVelEnhStruct</text>
</g>
<!-- Node17 -->
<g id="node17" class="node"><title>Node17</title>
<g id="a_node17"><a xlink:href="struct_mmw_demo__obj_raw2_d.html" target="_top" xlink:title="Parameters of CFAR detected object during the second round of CFAR detections.">
<polygon fill="white" stroke="black" points="1915,-557 1915,-680 2029,-680 2029,-557 1915,-557"/>
<text text-anchor="middle" x="1972" y="-668" font-family="Helvetica,sans-Serif" font-size="10.00">MmwDemo_objRaw2D</text>
<polyline fill="none" stroke="black" points="1915,-661 2029,-661 "/>
<text text-anchor="start" x="1923" y="-649" font-family="Helvetica,sans-Serif" font-size="10.00">+ rangeIdx</text>
<text text-anchor="start" x="1923" y="-638" font-family="Helvetica,sans-Serif" font-size="10.00">+ dopplerIdx</text>
<text text-anchor="start" x="1923" y="-627" font-family="Helvetica,sans-Serif" font-size="10.00">+ range</text>
<text text-anchor="start" x="1923" y="-616" font-family="Helvetica,sans-Serif" font-size="10.00">+ speed</text>
<text text-anchor="start" x="1923" y="-605" font-family="Helvetica,sans-Serif" font-size="10.00">+ peakVal</text>
<text text-anchor="start" x="1923" y="-594" font-family="Helvetica,sans-Serif" font-size="10.00">+ rangeSNRdB</text>
<text text-anchor="start" x="1923" y="-583" font-family="Helvetica,sans-Serif" font-size="10.00">+ dopplerSNRdB</text>
<polyline fill="none" stroke="black" points="1915,-576 2029,-576 "/>
<text text-anchor="middle" x="1972" y="-564" font-family="Helvetica,sans-Serif" font-size="10.00"> </text>
</a>
</g>
</g>
<!-- Node17&#45;&gt;Node3 -->
<g id="edge17" class="edge"><title>Node17&#45;&gt;Node3</title>
<path fill="none" stroke="#404040" d="M1940.03,-556.756C1930.51,-542.68 1919.07,-528.706 1906,-518 1796.19,-428.048 1632.95,-388.708 1529.8,-372.051"/>
<polygon fill="none" stroke="#404040" points="1529.69,-372.034 1523.15,-375.057 1517.84,-370.177 1524.39,-367.154 1529.69,-372.034"/>
<text text-anchor="middle" x="1908.5" y="-486.5" font-family="Helvetica,sans-Serif" font-size="10.00"> +detObj2DRaw</text>
</g>
<!-- Node18 -->
<g id="node18" class="node"><title>Node18</title>
<g id="a_node18"><a xlink:href="struct_mmw_demo__timing_info.html" target="_top" xlink:title="Timing information.">
<polygon fill="white" stroke="black" points="2047.5,-546 2047.5,-691 2214.5,-691 2214.5,-546 2047.5,-546"/>
<text text-anchor="middle" x="2131" y="-679" font-family="Helvetica,sans-Serif" font-size="10.00">MmwDemo_timingInfo</text>
<polyline fill="none" stroke="black" points="2047.5,-672 2214.5,-672 "/>
<text text-anchor="start" x="2055.5" y="-660" font-family="Helvetica,sans-Serif" font-size="10.00">+ interFrameProcCycles</text>
<text text-anchor="start" x="2055.5" y="-649" font-family="Helvetica,sans-Serif" font-size="10.00">+ transmitOutputCycles</text>
<text text-anchor="start" x="2055.5" y="-638" font-family="Helvetica,sans-Serif" font-size="10.00">+ chirpProcessingEndTime</text>
<text text-anchor="start" x="2055.5" y="-627" font-family="Helvetica,sans-Serif" font-size="10.00">+ chirpProcessingEndMarginMin</text>
<text text-anchor="start" x="2055.5" y="-616" font-family="Helvetica,sans-Serif" font-size="10.00">+ chirpProcessingEndMarginMax</text>
<text text-anchor="start" x="2055.5" y="-605" font-family="Helvetica,sans-Serif" font-size="10.00">+ interFrameProcessingEndTime</text>
<text text-anchor="start" x="2055.5" y="-594" font-family="Helvetica,sans-Serif" font-size="10.00">+ interFrameProcessingEndMargin</text>
<text text-anchor="start" x="2055.5" y="-583" font-family="Helvetica,sans-Serif" font-size="10.00">+ activeFrameCPULoad</text>
<text text-anchor="start" x="2055.5" y="-572" font-family="Helvetica,sans-Serif" font-size="10.00">+ interFrameCPULoad</text>
<polyline fill="none" stroke="black" points="2047.5,-565 2214.5,-565 "/>
<text text-anchor="middle" x="2131" y="-553" font-family="Helvetica,sans-Serif" font-size="10.00"> </text>
</a>
</g>
</g>
<!-- Node18&#45;&gt;Node3 -->
<g id="edge18" class="edge"><title>Node18&#45;&gt;Node3</title>
<path fill="none" stroke="#404040" d="M2070.76,-545.751C2060.46,-535.702 2049.38,-526.068 2038,-518 1882.95,-408.095 1656.96,-374.853 1529.62,-364.818"/>
<polygon fill="none" stroke="#404040" points="1529.57,-364.815 1523.29,-368.355 1517.61,-363.918 1523.89,-360.378 1529.57,-364.815"/>
<text text-anchor="middle" x="2036.5" y="-486.5" font-family="Helvetica,sans-Serif" font-size="10.00"> +timingInfo</text>
</g>
<!-- Node19 -->
<g id="node19" class="node"><title>Node19</title>
<g id="a_node19"><a xlink:href="structclustering_d_bscan_report_for_tx__t.html" target="_top" xlink:title="Structure for each cluster information report .">
<polygon fill="white" stroke="black" points="2232.5,-573.5 2232.5,-663.5 2387.5,-663.5 2387.5,-573.5 2232.5,-573.5"/>
<text text-anchor="middle" x="2310" y="-651.5" font-family="Helvetica,sans-Serif" font-size="10.00">clusteringDBscanReportForTx_t</text>
<polyline fill="none" stroke="black" points="2232.5,-644.5 2387.5,-644.5 "/>
<text text-anchor="start" x="2240.5" y="-632.5" font-family="Helvetica,sans-Serif" font-size="10.00">+ xCenter</text>
<text text-anchor="start" x="2240.5" y="-621.5" font-family="Helvetica,sans-Serif" font-size="10.00">+ yCenter</text>
<text text-anchor="start" x="2240.5" y="-610.5" font-family="Helvetica,sans-Serif" font-size="10.00">+ xSize</text>
<text text-anchor="start" x="2240.5" y="-599.5" font-family="Helvetica,sans-Serif" font-size="10.00">+ ySize</text>
<polyline fill="none" stroke="black" points="2232.5,-592.5 2387.5,-592.5 "/>
<text text-anchor="middle" x="2310" y="-580.5" font-family="Helvetica,sans-Serif" font-size="10.00"> </text>
</a>
</g>
</g>
<!-- Node19&#45;&gt;Node3 -->
<g id="edge19" class="edge"><title>Node19&#45;&gt;Node3</title>
<path fill="none" stroke="#404040" d="M2280.75,-573.275C2265.67,-553.669 2245.68,-531.933 2223,-518 2107.55,-447.074 1714.26,-393.282 1529.88,-371.322"/>
<polygon fill="none" stroke="#404040" points="1529.69,-371.3 1523.26,-374.567 1517.77,-369.89 1524.2,-366.623 1529.69,-371.3"/>
<text text-anchor="middle" x="2214.5" y="-486.5" font-family="Helvetica,sans-Serif" font-size="10.00"> +clusterOpFinal</text>
</g>
<!-- Node20 -->
<g id="node20" class="node"><title>Node20</title>
<g id="a_node20"><a xlink:href="structcycle_log__t__.html" target="_top" xlink:title="DSP cycle profiling structure to accumulate different processing times in chirp and frame processing ...">
<polygon fill="white" stroke="black" points="2406,-573.5 2406,-663.5 2548,-663.5 2548,-573.5 2406,-573.5"/>
<text text-anchor="middle" x="2477" y="-651.5" font-family="Helvetica,sans-Serif" font-size="10.00">cycleLog_t_</text>
<polyline fill="none" stroke="black" points="2406,-644.5 2548,-644.5 "/>
<text text-anchor="start" x="2414" y="-632.5" font-family="Helvetica,sans-Serif" font-size="10.00">+ interChirpProcessingTime</text>
<text text-anchor="start" x="2414" y="-621.5" font-family="Helvetica,sans-Serif" font-size="10.00">+ interChirpWaitTime</text>
<text text-anchor="start" x="2414" y="-610.5" font-family="Helvetica,sans-Serif" font-size="10.00">+ interFrameProcessingTime</text>
<text text-anchor="start" x="2414" y="-599.5" font-family="Helvetica,sans-Serif" font-size="10.00">+ interFrameWaitTime</text>
<polyline fill="none" stroke="black" points="2406,-592.5 2548,-592.5 "/>
<text text-anchor="middle" x="2477" y="-580.5" font-family="Helvetica,sans-Serif" font-size="10.00"> </text>
</a>
</g>
</g>
<!-- Node20&#45;&gt;Node3 -->
<g id="edge20" class="edge"><title>Node20&#45;&gt;Node3</title>
<path fill="none" stroke="#404040" d="M2450.01,-573.264C2436.08,-553.776 2417.49,-532.142 2396,-518 2341.58,-482.194 2318.72,-491.528 2255,-478 1995.51,-422.907 1684.35,-386.306 1529.87,-370.078"/>
<polygon fill="none" stroke="#404040" points="1529.61,-370.051 1523.23,-373.406 1517.67,-368.805 1524.06,-365.449 1529.61,-370.051"/>
<text text-anchor="middle" x="2386.5" y="-486.5" font-family="Helvetica,sans-Serif" font-size="10.00"> +cycleLog</text>
</g>
<!-- Node21 -->
<g id="node21" class="node"><title>Node21</title>
<g id="a_node21"><a xlink:href="struct_s_n_r_thresholds.html" target="_top" xlink:title="These parameters allow the SNR requirements to be varied as a function of range.">
<polygon fill="white" stroke="black" points="2566,-584.5 2566,-652.5 2650,-652.5 2650,-584.5 2566,-584.5"/>
<text text-anchor="middle" x="2608" y="-640.5" font-family="Helvetica,sans-Serif" font-size="10.00">SNRThresholds</text>
<polyline fill="none" stroke="black" points="2566,-633.5 2650,-633.5 "/>
<text text-anchor="start" x="2574" y="-621.5" font-family="Helvetica,sans-Serif" font-size="10.00">+ rangelim</text>
<text text-anchor="start" x="2574" y="-610.5" font-family="Helvetica,sans-Serif" font-size="10.00">+ threshold</text>
<polyline fill="none" stroke="black" points="2566,-603.5 2650,-603.5 "/>
<text text-anchor="middle" x="2608" y="-591.5" font-family="Helvetica,sans-Serif" font-size="10.00"> </text>
</a>
</g>
</g>
<!-- Node21&#45;&gt;Node3 -->
<g id="edge21" class="edge"><title>Node21&#45;&gt;Node3</title>
<path fill="none" stroke="#404040" d="M2598.7,-584.382C2590.93,-562.554 2577.73,-534.966 2557,-518 2506.26,-476.474 2479.3,-490.823 2415,-478 2094.18,-414.024 1706.97,-380.193 1529.89,-367.072"/>
<polygon fill="none" stroke="#404040" points="1529.73,-367.061 1523.46,-370.61 1517.77,-366.182 1524.04,-362.632 1529.73,-367.061"/>
<text text-anchor="middle" x="2573.5" y="-492" font-family="Helvetica,sans-Serif" font-size="10.00"> +SNRThresholds</text>
<text text-anchor="middle" x="2573.5" y="-481" font-family="Helvetica,sans-Serif" font-size="10.00">+peakValThresholds</text>
</g>
<!-- Node22 -->
<g id="node22" class="node"><title>Node22</title>
<g id="a_node22"><a xlink:href="struct_mmw_demo__detected_obj_actual__t.html" target="_top" xlink:title="Detected object estimated parameters.">
<polygon fill="white" stroke="black" points="2668.5,-529.5 2668.5,-707.5 2827.5,-707.5 2827.5,-529.5 2668.5,-529.5"/>
<text text-anchor="middle" x="2748" y="-695.5" font-family="Helvetica,sans-Serif" font-size="10.00">MmwDemo_detectedObjActual_t</text>
<polyline fill="none" stroke="black" points="2668.5,-688.5 2827.5,-688.5 "/>
<text text-anchor="start" x="2676.5" y="-676.5" font-family="Helvetica,sans-Serif" font-size="10.00">+ rangeIdx</text>
<text text-anchor="start" x="2676.5" y="-665.5" font-family="Helvetica,sans-Serif" font-size="10.00">+ dopplerIdx</text>
<text text-anchor="start" x="2676.5" y="-654.5" font-family="Helvetica,sans-Serif" font-size="10.00">+ range</text>
<text text-anchor="start" x="2676.5" y="-643.5" font-family="Helvetica,sans-Serif" font-size="10.00">+ speed</text>
<text text-anchor="start" x="2676.5" y="-632.5" font-family="Helvetica,sans-Serif" font-size="10.00">+ sinAzim</text>
<text text-anchor="start" x="2676.5" y="-621.5" font-family="Helvetica,sans-Serif" font-size="10.00">+ peakVal</text>
<text text-anchor="start" x="2676.5" y="-610.5" font-family="Helvetica,sans-Serif" font-size="10.00">+ rangeSNRdB</text>
<text text-anchor="start" x="2676.5" y="-599.5" font-family="Helvetica,sans-Serif" font-size="10.00">+ dopplerSNRdB</text>
<text text-anchor="start" x="2676.5" y="-588.5" font-family="Helvetica,sans-Serif" font-size="10.00">+ sinAzimSNRLin</text>
<text text-anchor="start" x="2676.5" y="-577.5" font-family="Helvetica,sans-Serif" font-size="10.00">+ x</text>
<text text-anchor="start" x="2676.5" y="-566.5" font-family="Helvetica,sans-Serif" font-size="10.00">+ y</text>
<text text-anchor="start" x="2676.5" y="-555.5" font-family="Helvetica,sans-Serif" font-size="10.00">+ z</text>
<polyline fill="none" stroke="black" points="2668.5,-548.5 2827.5,-548.5 "/>
<text text-anchor="middle" x="2748" y="-536.5" font-family="Helvetica,sans-Serif" font-size="10.00"> </text>
</a>
</g>
</g>
<!-- Node22&#45;&gt;Node3 -->
<g id="edge22" class="edge"><title>Node22&#45;&gt;Node3</title>
<path fill="none" stroke="#404040" d="M2686.71,-529.368C2668.29,-509.192 2646.4,-490.132 2622,-478 2430.79,-382.924 1778.01,-364.777 1529.82,-361.315"/>
<polygon fill="none" stroke="#404040" points="1529.6,-361.312 1523.55,-365.232 1517.6,-361.152 1523.66,-357.233 1529.6,-361.312"/>
<text text-anchor="middle" x="2677" y="-486.5" font-family="Helvetica,sans-Serif" font-size="10.00"> +detObj2D</text>
</g>
<!-- Node23 -->
<g id="node23" class="node"><title>Node23</title>
<g id="a_node23"><a xlink:href="structtracking_input_report.html" target="_top" xlink:title="Input to tracking from the clustering output.">
<polygon fill="white" stroke="black" points="2845.5,-573.5 2845.5,-663.5 2946.5,-663.5 2946.5,-573.5 2845.5,-573.5"/>
<text text-anchor="middle" x="2896" y="-651.5" font-family="Helvetica,sans-Serif" font-size="10.00">trackingInputReport</text>
<polyline fill="none" stroke="black" points="2845.5,-644.5 2946.5,-644.5 "/>
<text text-anchor="start" x="2853.5" y="-632.5" font-family="Helvetica,sans-Serif" font-size="10.00">+ xSize</text>
<text text-anchor="start" x="2853.5" y="-621.5" font-family="Helvetica,sans-Serif" font-size="10.00">+ ySize</text>
<text text-anchor="start" x="2853.5" y="-610.5" font-family="Helvetica,sans-Serif" font-size="10.00">+ measVec</text>
<text text-anchor="start" x="2853.5" y="-599.5" font-family="Helvetica,sans-Serif" font-size="10.00">+ measCovVec</text>
<polyline fill="none" stroke="black" points="2845.5,-592.5 2946.5,-592.5 "/>
<text text-anchor="middle" x="2896" y="-580.5" font-family="Helvetica,sans-Serif" font-size="10.00"> </text>
</a>
</g>
</g>
<!-- Node23&#45;&gt;Node3 -->
<g id="edge23" class="edge"><title>Node23&#45;&gt;Node3</title>
<path fill="none" stroke="#404040" d="M2878.67,-573.435C2869.03,-553.984 2855.24,-532.331 2837,-518 2789.13,-480.39 2765.73,-489.748 2706,-478 2272.6,-392.762 1743.73,-369.041 1529.73,-362.704"/>
<polygon fill="none" stroke="#404040" points="1529.63,-362.701 1523.51,-366.526 1517.63,-362.354 1523.74,-358.529 1529.63,-362.701"/>
<text text-anchor="middle" x="2840.5" y="-486.5" font-family="Helvetica,sans-Serif" font-size="10.00"> +trackingInput</text>
</g>
</g>
</svg>
