<?xml version="1.0" encoding="UTF-8" standalone="no"?>
<!DOCTYPE svg PUBLIC "-//W3C//DTD SVG 1.1//EN"
 "http://www.w3.org/Graphics/SVG/1.1/DTD/svg11.dtd">
<!-- Generated by graphviz version 2.38.0 (20140413.2041)
 -->
<!-- Title: ti_sysbios_BIOS_RtsGateProxy_Object2__ Pages: 1 -->
<svg width="180pt" height="469pt"
 viewBox="0.00 0.00 180.00 469.00" xmlns="http://www.w3.org/2000/svg" xmlns:xlink="http://www.w3.org/1999/xlink">
<g id="graph0" class="graph" transform="scale(1 1) rotate(0) translate(4 465)">
<title>ti_sysbios_BIOS_RtsGateProxy_Object2__</title>
<polygon fill="white" stroke="none" points="-4,4 -4,-465 176,-465 176,4 -4,4"/>
<!-- Node1 -->
<g id="node1" class="node"><title>Node1</title>
<g id="a_node1"><a xlink:title=" ">
<polygon fill="#bfbfbf" stroke="black" points="0,-0.5 0,-68.5 156,-68.5 156,-0.5 0,-0.5"/>
<text text-anchor="start" x="8" y="-56.5" font-family="Helvetica,sans-Serif" font-size="10.00">ti_sysbios_BIOS_RtsGateProxy</text>
<text text-anchor="middle" x="78" y="-45.5" font-family="Helvetica,sans-Serif" font-size="10.00">_Object2__</text>
<polyline fill="none" stroke="black" points="0,-38.5 156,-38.5 "/>
<text text-anchor="start" x="8" y="-26.5" font-family="Helvetica,sans-Serif" font-size="10.00">+ hdr</text>
<polyline fill="none" stroke="black" points="0,-19.5 156,-19.5 "/>
<text text-anchor="middle" x="78" y="-7.5" font-family="Helvetica,sans-Serif" font-size="10.00"> </text>
</a>
</g>
</g>
<!-- Node2 -->
<g id="node2" class="node"><title>Node2</title>
<g id="a_node2"><a xlink:href="structti__sysbios__gates___gate_mutex___object____.html" target="_top" xlink:title=" ">
<polygon fill="white" stroke="black" points="6.5,-116.5 6.5,-195.5 149.5,-195.5 149.5,-116.5 6.5,-116.5"/>
<text text-anchor="start" x="14.5" y="-183.5" font-family="Helvetica,sans-Serif" font-size="10.00">ti_sysbios_gates_GateMutex</text>
<text text-anchor="middle" x="78" y="-172.5" font-family="Helvetica,sans-Serif" font-size="10.00">_Object__</text>
<polyline fill="none" stroke="black" points="6.5,-165.5 149.5,-165.5 "/>
<text text-anchor="start" x="14.5" y="-153.5" font-family="Helvetica,sans-Serif" font-size="10.00">+ __fxns</text>
<text text-anchor="start" x="14.5" y="-142.5" font-family="Helvetica,sans-Serif" font-size="10.00">+ owner</text>
<polyline fill="none" stroke="black" points="6.5,-135.5 149.5,-135.5 "/>
<text text-anchor="middle" x="78" y="-123.5" font-family="Helvetica,sans-Serif" font-size="10.00"> </text>
</a>
</g>
</g>
<!-- Node2&#45;&gt;Node1 -->
<g id="edge1" class="edge"><title>Node2&#45;&gt;Node1</title>
<path fill="none" stroke="#404040" d="M78,-116.202C78,-104.991 78,-92.6534 78,-81.0704"/>
<polygon fill="none" stroke="#404040" points="78.0001,-80.8867 74,-74.8867 78,-68.8867 82,-74.8867 78.0001,-80.8867"/>
<text text-anchor="middle" x="89" y="-90" font-family="Helvetica,sans-Serif" font-size="10.00"> +obj</text>
</g>
<!-- Node3 -->
<g id="node3" class="node"><title>Node3</title>
<g id="a_node3"><a xlink:href="structti__sysbios__knl___semaphore___object____.html" target="_top" xlink:title=" ">
<polygon fill="white" stroke="black" points="11,-243.5 11,-344.5 145,-344.5 145,-243.5 11,-243.5"/>
<text text-anchor="start" x="19" y="-332.5" font-family="Helvetica,sans-Serif" font-size="10.00">ti_sysbios_knl_Semaphore</text>
<text text-anchor="middle" x="78" y="-321.5" font-family="Helvetica,sans-Serif" font-size="10.00">_Object__</text>
<polyline fill="none" stroke="black" points="11,-314.5 145,-314.5 "/>
<text text-anchor="start" x="19" y="-302.5" font-family="Helvetica,sans-Serif" font-size="10.00">+ event</text>
<text text-anchor="start" x="19" y="-291.5" font-family="Helvetica,sans-Serif" font-size="10.00">+ eventId</text>
<text text-anchor="start" x="19" y="-280.5" font-family="Helvetica,sans-Serif" font-size="10.00">+ mode</text>
<text text-anchor="start" x="19" y="-269.5" font-family="Helvetica,sans-Serif" font-size="10.00">+ count</text>
<polyline fill="none" stroke="black" points="11,-262.5 145,-262.5 "/>
<text text-anchor="middle" x="78" y="-250.5" font-family="Helvetica,sans-Serif" font-size="10.00"> </text>
</a>
</g>
</g>
<!-- Node3&#45;&gt;Node2 -->
<g id="edge2" class="edge"><title>Node3&#45;&gt;Node2</title>
<path fill="none" stroke="#404040" d="M78,-243.131C78,-231.662 78,-219.452 78,-207.938"/>
<polygon fill="none" stroke="#404040" points="78.0001,-207.787 74,-201.787 78,-195.787 82,-201.787 78.0001,-207.787"/>
<text text-anchor="middle" x="120.5" y="-217" font-family="Helvetica,sans-Serif" font-size="10.00"> +Object_field_sem</text>
</g>
<!-- Node4 -->
<g id="node4" class="node"><title>Node4</title>
<g id="a_node4"><a xlink:href="structti__sysbios__knl___queue___object____.html" target="_top" xlink:title=" ">
<polygon fill="white" stroke="black" points="21.5,-392.5 21.5,-460.5 134.5,-460.5 134.5,-392.5 21.5,-392.5"/>
<text text-anchor="start" x="29.5" y="-448.5" font-family="Helvetica,sans-Serif" font-size="10.00">ti_sysbios_knl_Queue</text>
<text text-anchor="middle" x="78" y="-437.5" font-family="Helvetica,sans-Serif" font-size="10.00">_Object__</text>
<polyline fill="none" stroke="black" points="21.5,-430.5 134.5,-430.5 "/>
<text text-anchor="start" x="29.5" y="-418.5" font-family="Helvetica,sans-Serif" font-size="10.00">+ elem</text>
<polyline fill="none" stroke="black" points="21.5,-411.5 134.5,-411.5 "/>
<text text-anchor="middle" x="78" y="-399.5" font-family="Helvetica,sans-Serif" font-size="10.00"> </text>
</a>
</g>
</g>
<!-- Node4&#45;&gt;Node3 -->
<g id="edge3" class="edge"><title>Node4&#45;&gt;Node3</title>
<path fill="none" stroke="#404040" d="M78,-392.232C78,-381.471 78,-369.168 78,-357.015"/>
<polygon fill="none" stroke="#404040" points="78.0001,-356.975 74,-350.975 78,-344.975 82,-350.975 78.0001,-356.975"/>
<text text-anchor="middle" x="125" y="-366" font-family="Helvetica,sans-Serif" font-size="10.00"> +Object_field_pendQ</text>
</g>
</g>
</svg>
