<?xml version="1.0" encoding="UTF-8" standalone="no"?>
<!DOCTYPE svg PUBLIC "-//W3C//DTD SVG 1.1//EN"
 "http://www.w3.org/Graphics/SVG/1.1/DTD/svg11.dtd">
<!-- Generated by graphviz version 2.38.0 (20140413.2041)
 -->
<!-- Title: ti_sysbios_knl_Semaphore_Object2__ Pages: 1 -->
<svg width="169pt" height="342pt"
 viewBox="0.00 0.00 169.00 342.00" xmlns="http://www.w3.org/2000/svg" xmlns:xlink="http://www.w3.org/1999/xlink">
<g id="graph0" class="graph" transform="scale(1 1) rotate(0) translate(4 338)">
<title>ti_sysbios_knl_Semaphore_Object2__</title>
<polygon fill="white" stroke="none" points="-4,4 -4,-338 165,-338 165,4 -4,4"/>
<!-- Node1 -->
<g id="node1" class="node"><title>Node1</title>
<g id="a_node1"><a xlink:title=" ">
<polygon fill="#bfbfbf" stroke="black" points="0,-0.5 0,-68.5 134,-68.5 134,-0.5 0,-0.5"/>
<text text-anchor="start" x="8" y="-56.5" font-family="Helvetica,sans-Serif" font-size="10.00">ti_sysbios_knl_Semaphore</text>
<text text-anchor="middle" x="67" y="-45.5" font-family="Helvetica,sans-Serif" font-size="10.00">_Object2__</text>
<polyline fill="none" stroke="black" points="0,-38.5 134,-38.5 "/>
<text text-anchor="start" x="8" y="-26.5" font-family="Helvetica,sans-Serif" font-size="10.00">+ hdr</text>
<polyline fill="none" stroke="black" points="0,-19.5 134,-19.5 "/>
<text text-anchor="middle" x="67" y="-7.5" font-family="Helvetica,sans-Serif" font-size="10.00"> </text>
</a>
</g>
</g>
<!-- Node2 -->
<g id="node2" class="node"><title>Node2</title>
<g id="a_node2"><a xlink:href="structti__sysbios__knl___semaphore___object____.html" target="_top" xlink:title=" ">
<polygon fill="white" stroke="black" points="0,-116.5 0,-217.5 134,-217.5 134,-116.5 0,-116.5"/>
<text text-anchor="start" x="8" y="-205.5" font-family="Helvetica,sans-Serif" font-size="10.00">ti_sysbios_knl_Semaphore</text>
<text text-anchor="middle" x="67" y="-194.5" font-family="Helvetica,sans-Serif" font-size="10.00">_Object__</text>
<polyline fill="none" stroke="black" points="0,-187.5 134,-187.5 "/>
<text text-anchor="start" x="8" y="-175.5" font-family="Helvetica,sans-Serif" font-size="10.00">+ event</text>
<text text-anchor="start" x="8" y="-164.5" font-family="Helvetica,sans-Serif" font-size="10.00">+ eventId</text>
<text text-anchor="start" x="8" y="-153.5" font-family="Helvetica,sans-Serif" font-size="10.00">+ mode</text>
<text text-anchor="start" x="8" y="-142.5" font-family="Helvetica,sans-Serif" font-size="10.00">+ count</text>
<polyline fill="none" stroke="black" points="0,-135.5 134,-135.5 "/>
<text text-anchor="middle" x="67" y="-123.5" font-family="Helvetica,sans-Serif" font-size="10.00"> </text>
</a>
</g>
</g>
<!-- Node2&#45;&gt;Node1 -->
<g id="edge1" class="edge"><title>Node2&#45;&gt;Node1</title>
<path fill="none" stroke="#404040" d="M67,-116.291C67,-104.548 67,-92.092 67,-80.5675"/>
<polygon fill="none" stroke="#404040" points="67.0001,-80.5058 63,-74.5058 67,-68.5058 71,-74.5057 67.0001,-80.5058"/>
<text text-anchor="middle" x="78" y="-90" font-family="Helvetica,sans-Serif" font-size="10.00"> +obj</text>
</g>
<!-- Node3 -->
<g id="node3" class="node"><title>Node3</title>
<g id="a_node3"><a xlink:href="structti__sysbios__knl___queue___object____.html" target="_top" xlink:title=" ">
<polygon fill="white" stroke="black" points="10.5,-265.5 10.5,-333.5 123.5,-333.5 123.5,-265.5 10.5,-265.5"/>
<text text-anchor="start" x="18.5" y="-321.5" font-family="Helvetica,sans-Serif" font-size="10.00">ti_sysbios_knl_Queue</text>
<text text-anchor="middle" x="67" y="-310.5" font-family="Helvetica,sans-Serif" font-size="10.00">_Object__</text>
<polyline fill="none" stroke="black" points="10.5,-303.5 123.5,-303.5 "/>
<text text-anchor="start" x="18.5" y="-291.5" font-family="Helvetica,sans-Serif" font-size="10.00">+ elem</text>
<polyline fill="none" stroke="black" points="10.5,-284.5 123.5,-284.5 "/>
<text text-anchor="middle" x="67" y="-272.5" font-family="Helvetica,sans-Serif" font-size="10.00"> </text>
</a>
</g>
</g>
<!-- Node3&#45;&gt;Node2 -->
<g id="edge2" class="edge"><title>Node3&#45;&gt;Node2</title>
<path fill="none" stroke="#404040" d="M67,-265.232C67,-254.471 67,-242.168 67,-230.015"/>
<polygon fill="none" stroke="#404040" points="67.0001,-229.975 63,-223.975 67,-217.975 71,-223.975 67.0001,-229.975"/>
<text text-anchor="middle" x="114" y="-239" font-family="Helvetica,sans-Serif" font-size="10.00"> +Object_field_pendQ</text>
</g>
</g>
</svg>
