<?xml version="1.0" encoding="UTF-8" standalone="no"?>
<!DOCTYPE svg PUBLIC "-//W3C//DTD SVG 1.1//EN"
 "http://www.w3.org/Graphics/SVG/1.1/DTD/svg11.dtd">
<!-- Generated by graphviz version 2.38.0 (20140413.2041)
 -->
<!-- Title: MmwDemo_DSS_DataPathObj_t Pages: 1 -->
<svg width="2955pt" height="595pt"
 viewBox="0.00 0.00 2954.50 595.00" xmlns="http://www.w3.org/2000/svg" xmlns:xlink="http://www.w3.org/1999/xlink">
<g id="graph0" class="graph" transform="scale(1 1) rotate(0) translate(4 591)">
<title>MmwDemo_DSS_DataPathObj_t</title>
<polygon fill="white" stroke="none" points="-4,4 -4,-591 2950.5,-591 2950.5,4 -4,4"/>
<!-- Node1 -->
<g id="node1" class="node"><title>Node1</title>
<g id="a_node1"><a xlink:title="Millimeter Wave Demo Data Path Information.">
<polygon fill="#bfbfbf" stroke="black" points="1348.5,-0.5 1348.5,-167.5 1517.5,-167.5 1517.5,-0.5 1348.5,-0.5"/>
<text text-anchor="middle" x="1433" y="-155.5" font-family="Helvetica,sans-Serif" font-size="10.00">MmwDemo_DSS_DataPathObj_t</text>
<polyline fill="none" stroke="black" points="1348.5,-148.5 1517.5,-148.5 "/>
<text text-anchor="start" x="1356.5" y="-136.5" font-family="Helvetica,sans-Serif" font-size="10.00">+ adcbufHandle</text>
<text text-anchor="start" x="1356.5" y="-125.5" font-family="Helvetica,sans-Serif" font-size="10.00">+ edmaHandle</text>
<text text-anchor="start" x="1356.5" y="-114.5" font-family="Helvetica,sans-Serif" font-size="10.00">+ EDMA_errorInfo</text>
<text text-anchor="start" x="1356.5" y="-103.5" font-family="Helvetica,sans-Serif" font-size="10.00">+ EDMA_transferControllerErrorInfo</text>
<text text-anchor="start" x="1356.5" y="-92.5" font-family="Helvetica,sans-Serif" font-size="10.00">+ ADCdataBuf</text>
<text text-anchor="start" x="1356.5" y="-81.5" font-family="Helvetica,sans-Serif" font-size="10.00">+ twiddle16x16_1D</text>
<text text-anchor="start" x="1356.5" y="-70.5" font-family="Helvetica,sans-Serif" font-size="10.00">+ window1D</text>
<text text-anchor="start" x="1356.5" y="-59.5" font-family="Helvetica,sans-Serif" font-size="10.00">+ adcDataIn</text>
<text text-anchor="start" x="1356.5" y="-48.5" font-family="Helvetica,sans-Serif" font-size="10.00">+ fftOut1D</text>
<text text-anchor="start" x="1356.5" y="-37.5" font-family="Helvetica,sans-Serif" font-size="10.00">+ twiddle32x32_2D</text>
<text text-anchor="start" x="1356.5" y="-26.5" font-family="Helvetica,sans-Serif" font-size="10.00">and 75 more...</text>
<polyline fill="none" stroke="black" points="1348.5,-19.5 1517.5,-19.5 "/>
<text text-anchor="middle" x="1433" y="-7.5" font-family="Helvetica,sans-Serif" font-size="10.00"> </text>
</a>
</g>
</g>
<!-- Node2 -->
<g id="node2" class="node"><title>Node2</title>
<g id="a_node2"><a xlink:href="structclustering_d_bscan_instance.html" target="_top" xlink:title="error code for clusteringDBscan.">
<polygon fill="white" stroke="black" points="0,-226.5 0,-426.5 130,-426.5 130,-226.5 0,-226.5"/>
<text text-anchor="middle" x="65" y="-414.5" font-family="Helvetica,sans-Serif" font-size="10.00">clusteringDBscanInstance</text>
<polyline fill="none" stroke="black" points="0,-407.5 130,-407.5 "/>
<text text-anchor="start" x="8" y="-395.5" font-family="Helvetica,sans-Serif" font-size="10.00">+ epsilon</text>
<text text-anchor="start" x="8" y="-384.5" font-family="Helvetica,sans-Serif" font-size="10.00">+ weight</text>
<text text-anchor="start" x="8" y="-373.5" font-family="Helvetica,sans-Serif" font-size="10.00">+ vFactor</text>
<text text-anchor="start" x="8" y="-362.5" font-family="Helvetica,sans-Serif" font-size="10.00">+ minPointsInCluster</text>
<text text-anchor="start" x="8" y="-351.5" font-family="Helvetica,sans-Serif" font-size="10.00">+ maxClusters</text>
<text text-anchor="start" x="8" y="-340.5" font-family="Helvetica,sans-Serif" font-size="10.00">+ pointIndex</text>
<text text-anchor="start" x="8" y="-329.5" font-family="Helvetica,sans-Serif" font-size="10.00">+ maxPoints</text>
<text text-anchor="start" x="8" y="-318.5" font-family="Helvetica,sans-Serif" font-size="10.00">+ dBScanNeighbourLim</text>
<text text-anchor="start" x="8" y="-307.5" font-family="Helvetica,sans-Serif" font-size="10.00">+ fixedPointScale</text>
<text text-anchor="start" x="8" y="-296.5" font-family="Helvetica,sans-Serif" font-size="10.00">+ scratchPad</text>
<text text-anchor="start" x="8" y="-285.5" font-family="Helvetica,sans-Serif" font-size="10.00">+ visited</text>
<text text-anchor="start" x="8" y="-274.5" font-family="Helvetica,sans-Serif" font-size="10.00">+ scope</text>
<text text-anchor="start" x="8" y="-263.5" font-family="Helvetica,sans-Serif" font-size="10.00">+ neighbors</text>
<text text-anchor="start" x="8" y="-252.5" font-family="Helvetica,sans-Serif" font-size="10.00">+ distances</text>
<polyline fill="none" stroke="black" points="0,-245.5 130,-245.5 "/>
<text text-anchor="middle" x="65" y="-233.5" font-family="Helvetica,sans-Serif" font-size="10.00"> </text>
</a>
</g>
</g>
<!-- Node2&#45;&gt;Node1 -->
<g id="edge1" class="edge"><title>Node2&#45;&gt;Node1</title>
<path fill="none" stroke="#404040" d="M113.059,-226.19C124.959,-210.374 139.217,-195.966 156,-186 256.687,-126.211 1056.08,-96.437 1336.33,-87.7598"/>
<polygon fill="none" stroke="#404040" points="1336.49,-87.7551 1342.36,-83.5729 1348.48,-87.3868 1342.61,-91.5691 1336.49,-87.7551"/>
<text text-anchor="middle" x="195.5" y="-194.5" font-family="Helvetica,sans-Serif" font-size="10.00"> +dbScanInstance</text>
</g>
<!-- Node3 -->
<g id="node3" class="node"><title>Node3</title>
<g id="a_node3"><a xlink:href="struct_k_fstate.html" target="_top" xlink:title="Kalman filter state.">
<polygon fill="white" stroke="black" points="148,-265 148,-388 204,-388 204,-265 148,-265"/>
<text text-anchor="middle" x="176" y="-376" font-family="Helvetica,sans-Serif" font-size="10.00">KFstate</text>
<polyline fill="none" stroke="black" points="148,-369 204,-369 "/>
<text text-anchor="start" x="156" y="-357" font-family="Helvetica,sans-Serif" font-size="10.00">+ age</text>
<text text-anchor="start" x="156" y="-346" font-family="Helvetica,sans-Serif" font-size="10.00">+ tick</text>
<text text-anchor="start" x="156" y="-335" font-family="Helvetica,sans-Serif" font-size="10.00">+ validity</text>
<text text-anchor="start" x="156" y="-324" font-family="Helvetica,sans-Serif" font-size="10.00">+ xSize</text>
<text text-anchor="start" x="156" y="-313" font-family="Helvetica,sans-Serif" font-size="10.00">+ ySize</text>
<text text-anchor="start" x="156" y="-302" font-family="Helvetica,sans-Serif" font-size="10.00">+ vec</text>
<text text-anchor="start" x="156" y="-291" font-family="Helvetica,sans-Serif" font-size="10.00">+ covmat</text>
<polyline fill="none" stroke="black" points="148,-284 204,-284 "/>
<text text-anchor="middle" x="176" y="-272" font-family="Helvetica,sans-Serif" font-size="10.00"> </text>
</a>
</g>
</g>
<!-- Node3&#45;&gt;Node1 -->
<g id="edge2" class="edge"><title>Node3&#45;&gt;Node1</title>
<path fill="none" stroke="#404040" d="M188.282,-264.989C193.752,-250.573 201.638,-236.379 213,-226 262.99,-180.333 293.382,-198.106 360,-186 716.223,-121.265 1146.97,-96.6874 1336.06,-88.5451"/>
<polygon fill="none" stroke="#404040" points="1336.18,-88.5404 1342,-84.29 1348.16,-88.0323 1342.34,-92.2828 1336.18,-88.5404"/>
<text text-anchor="middle" x="391.5" y="-194.5" font-family="Helvetica,sans-Serif" font-size="10.00"> +trackerState</text>
</g>
<!-- Node4 -->
<g id="node4" class="node"><title>Node4</title>
<g id="a_node4"><a xlink:href="struct_mmw_demo___calib_dc_range_sig_cfg__t.html" target="_top" xlink:title="Millimeter Wave Demo DC range signature compensation.">
<polygon fill="white" stroke="black" points="222.5,-281.5 222.5,-371.5 391.5,-371.5 391.5,-281.5 222.5,-281.5"/>
<text text-anchor="middle" x="307" y="-359.5" font-family="Helvetica,sans-Serif" font-size="10.00">MmwDemo_CalibDcRangeSigCfg_t</text>
<polyline fill="none" stroke="black" points="222.5,-352.5 391.5,-352.5 "/>
<text text-anchor="start" x="230.5" y="-340.5" font-family="Helvetica,sans-Serif" font-size="10.00">+ enabled</text>
<text text-anchor="start" x="230.5" y="-329.5" font-family="Helvetica,sans-Serif" font-size="10.00">+ negativeBinIdx</text>
<text text-anchor="start" x="230.5" y="-318.5" font-family="Helvetica,sans-Serif" font-size="10.00">+ positiveBinIdx</text>
<text text-anchor="start" x="230.5" y="-307.5" font-family="Helvetica,sans-Serif" font-size="10.00">+ numAvgChirps</text>
<polyline fill="none" stroke="black" points="222.5,-300.5 391.5,-300.5 "/>
<text text-anchor="middle" x="307" y="-288.5" font-family="Helvetica,sans-Serif" font-size="10.00"> </text>
</a>
</g>
</g>
<!-- Node4&#45;&gt;Node1 -->
<g id="edge3" class="edge"><title>Node4&#45;&gt;Node1</title>
<path fill="none" stroke="#404040" d="M341.923,-281.364C358.198,-262.696 378.666,-241.69 400,-226 432.988,-201.739 443.617,-197.218 483,-186 785.79,-99.7499 1161.86,-85.8762 1336.06,-84.4673"/>
<polygon fill="none" stroke="#404040" points="1336.25,-84.4661 1342.23,-80.4264 1348.25,-84.3866 1342.28,-88.4263 1336.25,-84.4661"/>
<text text-anchor="middle" x="532" y="-194.5" font-family="Helvetica,sans-Serif" font-size="10.00"> +calibDcRangeSigCfg</text>
</g>
<!-- Node5 -->
<g id="node5" class="node"><title>Node5</title>
<g id="a_node5"><a xlink:href="struct_mmw_demo___multi_obj_beam_forming_cfg__t.html" target="_top" xlink:title="Millimeter Wave Demo multi object beam formaing Configuration.">
<polygon fill="white" stroke="black" points="409.5,-287 409.5,-366 576.5,-366 576.5,-287 409.5,-287"/>
<text text-anchor="start" x="417.5" y="-354" font-family="Helvetica,sans-Serif" font-size="10.00">MmwDemo_MultiObjBeamForming</text>
<text text-anchor="middle" x="493" y="-343" font-family="Helvetica,sans-Serif" font-size="10.00">Cfg_t</text>
<polyline fill="none" stroke="black" points="409.5,-336 576.5,-336 "/>
<text text-anchor="start" x="417.5" y="-324" font-family="Helvetica,sans-Serif" font-size="10.00">+ enabled</text>
<text text-anchor="start" x="417.5" y="-313" font-family="Helvetica,sans-Serif" font-size="10.00">+ multiPeakThrsScal</text>
<polyline fill="none" stroke="black" points="409.5,-306 576.5,-306 "/>
<text text-anchor="middle" x="493" y="-294" font-family="Helvetica,sans-Serif" font-size="10.00"> </text>
</a>
</g>
</g>
<!-- Node5&#45;&gt;Node1 -->
<g id="edge4" class="edge"><title>Node5&#45;&gt;Node1</title>
<path fill="none" stroke="#404040" d="M514.922,-286.806C535.686,-254.094 570.048,-208.992 613,-186 736.201,-120.052 1146.89,-95.983 1336.07,-88.247"/>
<polygon fill="none" stroke="#404040" points="1336.22,-88.2413 1342.05,-84.0043 1348.21,-87.7608 1342.37,-91.9979 1336.22,-88.2413"/>
<text text-anchor="middle" x="673.5" y="-194.5" font-family="Helvetica,sans-Serif" font-size="10.00"> +multiObjBeamFormingCfg</text>
</g>
<!-- Node6 -->
<g id="node6" class="node"><title>Node6</title>
<g id="a_node6"><a xlink:href="struct_mmw_demo___cfar_cfg__t.html" target="_top" xlink:title="Millimeter Wave Demo CFAR Configuration.">
<polygon fill="white" stroke="black" points="595,-270.5 595,-382.5 705,-382.5 705,-270.5 595,-270.5"/>
<text text-anchor="middle" x="650" y="-370.5" font-family="Helvetica,sans-Serif" font-size="10.00">MmwDemo_CfarCfg_t</text>
<polyline fill="none" stroke="black" points="595,-363.5 705,-363.5 "/>
<text text-anchor="start" x="603" y="-351.5" font-family="Helvetica,sans-Serif" font-size="10.00">+ thresholdScale</text>
<text text-anchor="start" x="603" y="-340.5" font-family="Helvetica,sans-Serif" font-size="10.00">+ averageMode</text>
<text text-anchor="start" x="603" y="-329.5" font-family="Helvetica,sans-Serif" font-size="10.00">+ winLen</text>
<text text-anchor="start" x="603" y="-318.5" font-family="Helvetica,sans-Serif" font-size="10.00">+ guardLen</text>
<text text-anchor="start" x="603" y="-307.5" font-family="Helvetica,sans-Serif" font-size="10.00">+ noiseDivShift</text>
<text text-anchor="start" x="603" y="-296.5" font-family="Helvetica,sans-Serif" font-size="10.00">+ cyclicMode</text>
<polyline fill="none" stroke="black" points="595,-289.5 705,-289.5 "/>
<text text-anchor="middle" x="650" y="-277.5" font-family="Helvetica,sans-Serif" font-size="10.00"> </text>
</a>
</g>
</g>
<!-- Node6&#45;&gt;Node1 -->
<g id="edge5" class="edge"><title>Node6&#45;&gt;Node1</title>
<path fill="none" stroke="#404040" d="M678.077,-270.253C687.904,-254.577 700.029,-238.416 714,-226 744.31,-199.064 757.329,-198.198 796,-186 981.89,-127.366 1209.52,-101.772 1336.16,-91.3958"/>
<polygon fill="none" stroke="#404040" points="1336.51,-91.3679 1342.17,-86.9013 1348.47,-90.4092 1342.81,-94.8758 1336.51,-91.3679"/>
<text text-anchor="middle" x="832.5" y="-200" font-family="Helvetica,sans-Serif" font-size="10.00"> +cfarCfgDoppler</text>
<text text-anchor="middle" x="832.5" y="-189" font-family="Helvetica,sans-Serif" font-size="10.00">+cfarCfgRange</text>
</g>
<!-- Node7 -->
<g id="node7" class="node"><title>Node7</title>
<g id="a_node7"><a xlink:href="structtracking_report_for_tx__t.html" target="_top" xlink:title="Structure for tracking report.">
<polygon fill="white" stroke="black" points="723.5,-270.5 723.5,-382.5 836.5,-382.5 836.5,-270.5 723.5,-270.5"/>
<text text-anchor="middle" x="780" y="-370.5" font-family="Helvetica,sans-Serif" font-size="10.00">trackingReportForTx_t</text>
<polyline fill="none" stroke="black" points="723.5,-363.5 836.5,-363.5 "/>
<text text-anchor="start" x="731.5" y="-351.5" font-family="Helvetica,sans-Serif" font-size="10.00">+ x</text>
<text text-anchor="start" x="731.5" y="-340.5" font-family="Helvetica,sans-Serif" font-size="10.00">+ y</text>
<text text-anchor="start" x="731.5" y="-329.5" font-family="Helvetica,sans-Serif" font-size="10.00">+ xd</text>
<text text-anchor="start" x="731.5" y="-318.5" font-family="Helvetica,sans-Serif" font-size="10.00">+ yd</text>
<text text-anchor="start" x="731.5" y="-307.5" font-family="Helvetica,sans-Serif" font-size="10.00">+ xSize</text>
<text text-anchor="start" x="731.5" y="-296.5" font-family="Helvetica,sans-Serif" font-size="10.00">+ ySize</text>
<polyline fill="none" stroke="black" points="723.5,-289.5 836.5,-289.5 "/>
<text text-anchor="middle" x="780" y="-277.5" font-family="Helvetica,sans-Serif" font-size="10.00"> </text>
</a>
</g>
</g>
<!-- Node7&#45;&gt;Node1 -->
<g id="edge6" class="edge"><title>Node7&#45;&gt;Node1</title>
<path fill="none" stroke="#404040" d="M807.961,-270.357C817.99,-254.503 830.471,-238.217 845,-226 879.438,-197.043 895.065,-199.457 938,-186 1073.51,-143.525 1235.63,-114.376 1336.48,-98.6871"/>
<polygon fill="none" stroke="#404040" points="1336.61,-98.6673 1341.93,-93.8006 1348.47,-96.8406 1343.15,-101.707 1336.61,-98.6673"/>
<text text-anchor="middle" x="974.5" y="-194.5" font-family="Helvetica,sans-Serif" font-size="10.00"> +trackerOpFinal</text>
</g>
<!-- Node8 -->
<g id="node8" class="node"><title>Node8</title>
<g id="a_node8"><a xlink:href="struct_mmw_demo__obj_raw1_d.html" target="_top" xlink:title="Parameters of CFAR detected object during the first round of CFAR detections.">
<polygon fill="white" stroke="black" points="854.5,-281.5 854.5,-371.5 973.5,-371.5 973.5,-281.5 854.5,-281.5"/>
<text text-anchor="middle" x="914" y="-359.5" font-family="Helvetica,sans-Serif" font-size="10.00">MmwDemo_objRaw1D</text>
<polyline fill="none" stroke="black" points="854.5,-352.5 973.5,-352.5 "/>
<text text-anchor="start" x="862.5" y="-340.5" font-family="Helvetica,sans-Serif" font-size="10.00">+ rangeIdx</text>
<text text-anchor="start" x="862.5" y="-329.5" font-family="Helvetica,sans-Serif" font-size="10.00">+ dopplerIdx</text>
<text text-anchor="start" x="862.5" y="-318.5" font-family="Helvetica,sans-Serif" font-size="10.00">+ velDisambFacValidity</text>
<text text-anchor="start" x="862.5" y="-307.5" font-family="Helvetica,sans-Serif" font-size="10.00">+ dopplerSNRdB</text>
<polyline fill="none" stroke="black" points="854.5,-300.5 973.5,-300.5 "/>
<text text-anchor="middle" x="914" y="-288.5" font-family="Helvetica,sans-Serif" font-size="10.00"> </text>
</a>
</g>
</g>
<!-- Node8&#45;&gt;Node1 -->
<g id="edge7" class="edge"><title>Node8&#45;&gt;Node1</title>
<path fill="none" stroke="#404040" d="M935.862,-281.483C947.484,-262.042 963.439,-240.384 983,-226 1089.05,-148.013 1239.41,-112.367 1336.58,-96.6406"/>
<polygon fill="none" stroke="#404040" points="1336.6,-96.6377 1341.91,-91.7548 1348.45,-94.7751 1343.15,-99.6579 1336.6,-96.6377"/>
<text text-anchor="middle" x="1071.5" y="-194.5" font-family="Helvetica,sans-Serif" font-size="10.00"> +detObj1DRaw</text>
</g>
<!-- Node9 -->
<g id="node9" class="node"><title>Node9</title>
<g id="a_node9"><a xlink:href="struct_mmw_demo__detected_obj_for_tx__t.html" target="_top" xlink:title="Detected object estimated parameters to be transmitted out.">
<polygon fill="white" stroke="black" points="992,-276 992,-377 1148,-377 1148,-276 992,-276"/>
<text text-anchor="middle" x="1070" y="-365" font-family="Helvetica,sans-Serif" font-size="10.00">MmwDemo_detectedObjForTx_t</text>
<polyline fill="none" stroke="black" points="992,-358 1148,-358 "/>
<text text-anchor="start" x="1000" y="-346" font-family="Helvetica,sans-Serif" font-size="10.00">+ speed</text>
<text text-anchor="start" x="1000" y="-335" font-family="Helvetica,sans-Serif" font-size="10.00">+ peakVal</text>
<text text-anchor="start" x="1000" y="-324" font-family="Helvetica,sans-Serif" font-size="10.00">+ x</text>
<text text-anchor="start" x="1000" y="-313" font-family="Helvetica,sans-Serif" font-size="10.00">+ y</text>
<text text-anchor="start" x="1000" y="-302" font-family="Helvetica,sans-Serif" font-size="10.00">+ z</text>
<polyline fill="none" stroke="black" points="992,-295 1148,-295 "/>
<text text-anchor="middle" x="1070" y="-283" font-family="Helvetica,sans-Serif" font-size="10.00"> </text>
</a>
</g>
</g>
<!-- Node9&#45;&gt;Node1 -->
<g id="edge8" class="edge"><title>Node9&#45;&gt;Node1</title>
<path fill="none" stroke="#404040" d="M1107.76,-275.873C1122.08,-258.892 1139.24,-240.531 1157,-226 1210.96,-181.85 1281,-146.271 1337.03,-121.897"/>
<polygon fill="none" stroke="#404040" points="1337.37,-121.751 1341.3,-115.709 1348.39,-117.02 1344.46,-123.061 1337.37,-121.751"/>
<text text-anchor="middle" x="1242.5" y="-194.5" font-family="Helvetica,sans-Serif" font-size="10.00"> +detObjFinal</text>
</g>
<!-- Node10 -->
<g id="node10" class="node"><title>Node10</title>
<g id="a_node10"><a xlink:href="struct_mmw_demo__1_d___doppler_lines.html" target="_top" xlink:title="Active Doppler lines, lines (bins) on which the CFAR detector detected objects during the detections ...">
<polygon fill="white" stroke="black" points="1166,-287 1166,-366 1310,-366 1310,-287 1166,-287"/>
<text text-anchor="middle" x="1238" y="-354" font-family="Helvetica,sans-Serif" font-size="10.00">MmwDemo_1D_DopplerLines</text>
<polyline fill="none" stroke="black" points="1166,-347 1310,-347 "/>
<text text-anchor="start" x="1174" y="-335" font-family="Helvetica,sans-Serif" font-size="10.00">+ dopplerLineMask</text>
<text text-anchor="start" x="1174" y="-324" font-family="Helvetica,sans-Serif" font-size="10.00">+ currentIndex</text>
<text text-anchor="start" x="1174" y="-313" font-family="Helvetica,sans-Serif" font-size="10.00">+ dopplerLineMaskLen</text>
<polyline fill="none" stroke="black" points="1166,-306 1310,-306 "/>
<text text-anchor="middle" x="1238" y="-294" font-family="Helvetica,sans-Serif" font-size="10.00"> </text>
</a>
</g>
</g>
<!-- Node10&#45;&gt;Node1 -->
<g id="edge9" class="edge"><title>Node10&#45;&gt;Node1</title>
<path fill="none" stroke="#404040" d="M1250.67,-286.987C1261.67,-257.353 1279.66,-216.453 1304,-186 1314.22,-173.216 1326.36,-161.076 1339.04,-149.938"/>
<polygon fill="none" stroke="#404040" points="1339.22,-149.789 1341.19,-142.853 1348.35,-142.009 1346.38,-148.944 1339.22,-149.789"/>
<text text-anchor="middle" x="1343.5" y="-194.5" font-family="Helvetica,sans-Serif" font-size="10.00"> +detDopplerLines</text>
</g>
<!-- Node11 -->
<g id="node11" class="node"><title>Node11</title>
<g id="a_node11"><a xlink:href="struct_k_ftracker_instance.html" target="_top" xlink:title="Struct for the tracker configuration, and pointers to scratch buffers.">
<polygon fill="white" stroke="black" points="1328.5,-243 1328.5,-410 1443.5,-410 1443.5,-243 1328.5,-243"/>
<text text-anchor="middle" x="1386" y="-398" font-family="Helvetica,sans-Serif" font-size="10.00">KFtrackerInstance</text>
<polyline fill="none" stroke="black" points="1328.5,-391 1443.5,-391 "/>
<text text-anchor="start" x="1336.5" y="-379" font-family="Helvetica,sans-Serif" font-size="10.00">+ rangeAssocThresh</text>
<text text-anchor="start" x="1336.5" y="-368" font-family="Helvetica,sans-Serif" font-size="10.00">+ velAssocThresh</text>
<text text-anchor="start" x="1336.5" y="-357" font-family="Helvetica,sans-Serif" font-size="10.00">+ azimAssocThresh</text>
<text text-anchor="start" x="1336.5" y="-346" font-family="Helvetica,sans-Serif" font-size="10.00">+ distAssocThreshSq</text>
<text text-anchor="start" x="1336.5" y="-335" font-family="Helvetica,sans-Serif" font-size="10.00">+ maxTrackers</text>
<text text-anchor="start" x="1336.5" y="-324" font-family="Helvetica,sans-Serif" font-size="10.00">+ fixedPointScale</text>
<text text-anchor="start" x="1336.5" y="-313" font-family="Helvetica,sans-Serif" font-size="10.00">+ scratchPadFlt</text>
<text text-anchor="start" x="1336.5" y="-302" font-family="Helvetica,sans-Serif" font-size="10.00">+ scratchPadShort</text>
<text text-anchor="start" x="1336.5" y="-291" font-family="Helvetica,sans-Serif" font-size="10.00">+ assocMeasIndx</text>
<text text-anchor="start" x="1336.5" y="-280" font-family="Helvetica,sans-Serif" font-size="10.00">+ freeTrackerIndxArray</text>
<text text-anchor="start" x="1336.5" y="-269" font-family="Helvetica,sans-Serif" font-size="10.00">and 11 more...</text>
<polyline fill="none" stroke="black" points="1328.5,-262 1443.5,-262 "/>
<text text-anchor="middle" x="1386" y="-250" font-family="Helvetica,sans-Serif" font-size="10.00"> </text>
</a>
</g>
</g>
<!-- Node11&#45;&gt;Node1 -->
<g id="edge10" class="edge"><title>Node11&#45;&gt;Node1</title>
<path fill="none" stroke="#404040" d="M1383.28,-242.999C1384.06,-224.106 1386.01,-204.224 1390,-186 1390.48,-183.826 1391,-181.639 1391.56,-179.447"/>
<polygon fill="none" stroke="#404040" points="1391.62,-179.23 1389.43,-172.359 1394.93,-167.695 1397.12,-174.565 1391.62,-179.23"/>
<text text-anchor="middle" x="1428" y="-194.5" font-family="Helvetica,sans-Serif" font-size="10.00"> +trackerInstance</text>
</g>
<!-- Node12 -->
<g id="node12" class="node"><title>Node12</title>
<g id="a_node12"><a xlink:href="structclustering_d_bscan_report.html" target="_top" xlink:title="Structure for each cluster information report .">
<polygon fill="white" stroke="black" points="1476,-474.5 1476,-586.5 1598,-586.5 1598,-474.5 1476,-474.5"/>
<text text-anchor="middle" x="1537" y="-574.5" font-family="Helvetica,sans-Serif" font-size="10.00">clusteringDBscanReport</text>
<polyline fill="none" stroke="black" points="1476,-567.5 1598,-567.5 "/>
<text text-anchor="start" x="1484" y="-555.5" font-family="Helvetica,sans-Serif" font-size="10.00">+ numPoints</text>
<text text-anchor="start" x="1484" y="-544.5" font-family="Helvetica,sans-Serif" font-size="10.00">+ xCenter</text>
<text text-anchor="start" x="1484" y="-533.5" font-family="Helvetica,sans-Serif" font-size="10.00">+ yCenter</text>
<text text-anchor="start" x="1484" y="-522.5" font-family="Helvetica,sans-Serif" font-size="10.00">+ xSize</text>
<text text-anchor="start" x="1484" y="-511.5" font-family="Helvetica,sans-Serif" font-size="10.00">+ ySize</text>
<text text-anchor="start" x="1484" y="-500.5" font-family="Helvetica,sans-Serif" font-size="10.00">+ avgVel</text>
<polyline fill="none" stroke="black" points="1476,-493.5 1598,-493.5 "/>
<text text-anchor="middle" x="1537" y="-481.5" font-family="Helvetica,sans-Serif" font-size="10.00"> </text>
</a>
</g>
</g>
<!-- Node12&#45;&gt;Node1 -->
<g id="edge11" class="edge"><title>Node12&#45;&gt;Node1</title>
<path fill="none" stroke="#404040" d="M1507,-474.429C1500.01,-459.432 1493.35,-442.923 1489,-427 1460.66,-323.202 1487.95,-291.334 1466,-186 1465.55,-183.826 1465.06,-181.633 1464.55,-179.428"/>
<polygon fill="none" stroke="#404040" points="1464.5,-179.198 1459.16,-174.343 1461.6,-167.554 1466.93,-172.409 1464.5,-179.198"/>
<text text-anchor="middle" x="1548.5" y="-329.5" font-family="Helvetica,sans-Serif" font-size="10.00"> +dbscanOutputDataReport</text>
<text text-anchor="middle" x="1548.5" y="-318.5" font-family="Helvetica,sans-Serif" font-size="10.00">+dbScanState</text>
</g>
<!-- Node13 -->
<g id="node13" class="node"><title>Node13</title>
<g id="a_node13"><a xlink:href="structclustering_d_bscan_output.html" target="_top" xlink:title="Structure of clustering output.">
<polygon fill="white" stroke="black" points="1617,-292.5 1617,-360.5 1739,-360.5 1739,-292.5 1617,-292.5"/>
<text text-anchor="middle" x="1678" y="-348.5" font-family="Helvetica,sans-Serif" font-size="10.00">clusteringDBscanOutput</text>
<polyline fill="none" stroke="black" points="1617,-341.5 1739,-341.5 "/>
<text text-anchor="start" x="1625" y="-329.5" font-family="Helvetica,sans-Serif" font-size="10.00">+ IndexArray</text>
<text text-anchor="start" x="1625" y="-318.5" font-family="Helvetica,sans-Serif" font-size="10.00">+ numCluster</text>
<polyline fill="none" stroke="black" points="1617,-311.5 1739,-311.5 "/>
<text text-anchor="middle" x="1678" y="-299.5" font-family="Helvetica,sans-Serif" font-size="10.00"> </text>
</a>
</g>
</g>
<!-- Node12&#45;&gt;Node13 -->
<g id="edge13" class="edge"><title>Node12&#45;&gt;Node13</title>
<path fill="none" stroke="#404040" d="M1575.53,-474.303C1598.39,-441.558 1626.93,-400.665 1648.08,-370.361"/>
<polygon fill="none" stroke="#404040" points="1648.08,-370.357 1648.24,-363.148 1654.95,-360.517 1654.8,-367.727 1648.08,-370.357"/>
<text text-anchor="middle" x="1612" y="-448" font-family="Helvetica,sans-Serif" font-size="10.00"> +report</text>
</g>
<!-- Node13&#45;&gt;Node1 -->
<g id="edge12" class="edge"><title>Node13&#45;&gt;Node1</title>
<path fill="none" stroke="#404040" d="M1655.81,-292.16C1641.75,-272.073 1622.57,-246.498 1603,-226 1579.89,-201.791 1552.78,-177.7 1527.08,-156.46"/>
<polygon fill="none" stroke="#404040" points="1526.97,-156.37 1519.79,-155.665 1517.69,-148.769 1524.86,-149.475 1526.97,-156.37"/>
<text text-anchor="middle" x="1617.5" y="-194.5" font-family="Helvetica,sans-Serif" font-size="10.00"> +dbScanReport</text>
</g>
<!-- Node14 -->
<g id="node14" class="node"><title>Node14</title>
<g id="a_node14"><a xlink:href="structmax_vel_enh_struct__t__.html" target="_top" xlink:title="pre&#45;computed parameters of the max&#45;velocity&#45;enhancement.">
<polygon fill="white" stroke="black" points="1757,-281.5 1757,-371.5 1897,-371.5 1897,-281.5 1757,-281.5"/>
<text text-anchor="middle" x="1827" y="-359.5" font-family="Helvetica,sans-Serif" font-size="10.00">maxVelEnhStruct_t_</text>
<polyline fill="none" stroke="black" points="1757,-352.5 1897,-352.5 "/>
<text text-anchor="start" x="1765" y="-340.5" font-family="Helvetica,sans-Serif" font-size="10.00">+ velResolutionFastChirp</text>
<text text-anchor="start" x="1765" y="-329.5" font-family="Helvetica,sans-Serif" font-size="10.00">+ invVelResolutionSlowChirp</text>
<text text-anchor="start" x="1765" y="-318.5" font-family="Helvetica,sans-Serif" font-size="10.00">+ maxVelAssocThresh</text>
<text text-anchor="start" x="1765" y="-307.5" font-family="Helvetica,sans-Serif" font-size="10.00">+ padding</text>
<polyline fill="none" stroke="black" points="1757,-300.5 1897,-300.5 "/>
<text text-anchor="middle" x="1827" y="-288.5" font-family="Helvetica,sans-Serif" font-size="10.00"> </text>
</a>
</g>
</g>
<!-- Node14&#45;&gt;Node1 -->
<g id="edge14" class="edge"><title>Node14&#45;&gt;Node1</title>
<path fill="none" stroke="#404040" d="M1799.02,-281.355C1785.38,-262.466 1767.69,-241.288 1748,-226 1682.27,-174.95 1595.12,-137.787 1529.16,-114.47"/>
<polygon fill="none" stroke="#404040" points="1528.85,-114.362 1521.87,-116.169 1517.51,-110.42 1524.5,-108.613 1528.85,-114.362"/>
<text text-anchor="middle" x="1761" y="-194.5" font-family="Helvetica,sans-Serif" font-size="10.00"> +maxVelEnhStruct</text>
</g>
<!-- Node15 -->
<g id="node15" class="node"><title>Node15</title>
<g id="a_node15"><a xlink:href="struct_mmw_demo__obj_raw2_d.html" target="_top" xlink:title="Parameters of CFAR detected object during the second round of CFAR detections.">
<polygon fill="white" stroke="black" points="1915,-265 1915,-388 2029,-388 2029,-265 1915,-265"/>
<text text-anchor="middle" x="1972" y="-376" font-family="Helvetica,sans-Serif" font-size="10.00">MmwDemo_objRaw2D</text>
<polyline fill="none" stroke="black" points="1915,-369 2029,-369 "/>
<text text-anchor="start" x="1923" y="-357" font-family="Helvetica,sans-Serif" font-size="10.00">+ rangeIdx</text>
<text text-anchor="start" x="1923" y="-346" font-family="Helvetica,sans-Serif" font-size="10.00">+ dopplerIdx</text>
<text text-anchor="start" x="1923" y="-335" font-family="Helvetica,sans-Serif" font-size="10.00">+ range</text>
<text text-anchor="start" x="1923" y="-324" font-family="Helvetica,sans-Serif" font-size="10.00">+ speed</text>
<text text-anchor="start" x="1923" y="-313" font-family="Helvetica,sans-Serif" font-size="10.00">+ peakVal</text>
<text text-anchor="start" x="1923" y="-302" font-family="Helvetica,sans-Serif" font-size="10.00">+ rangeSNRdB</text>
<text text-anchor="start" x="1923" y="-291" font-family="Helvetica,sans-Serif" font-size="10.00">+ dopplerSNRdB</text>
<polyline fill="none" stroke="black" points="1915,-284 2029,-284 "/>
<text text-anchor="middle" x="1972" y="-272" font-family="Helvetica,sans-Serif" font-size="10.00"> </text>
</a>
</g>
</g>
<!-- Node15&#45;&gt;Node1 -->
<g id="edge15" class="edge"><title>Node15&#45;&gt;Node1</title>
<path fill="none" stroke="#404040" d="M1940.03,-264.756C1930.51,-250.68 1919.07,-236.706 1906,-226 1797.12,-136.813 1633.25,-104.028 1529.77,-91.9839"/>
<polygon fill="none" stroke="#404040" points="1529.7,-91.9757 1523.29,-95.2876 1517.77,-90.6486 1524.17,-87.3367 1529.7,-91.9757"/>
<text text-anchor="middle" x="1909.5" y="-194.5" font-family="Helvetica,sans-Serif" font-size="10.00"> +detObj2DRaw</text>
</g>
<!-- Node16 -->
<g id="node16" class="node"><title>Node16</title>
<g id="a_node16"><a xlink:href="struct_mmw_demo__timing_info.html" target="_top" xlink:title="Timing information.">
<polygon fill="white" stroke="black" points="2047.5,-254 2047.5,-399 2214.5,-399 2214.5,-254 2047.5,-254"/>
<text text-anchor="middle" x="2131" y="-387" font-family="Helvetica,sans-Serif" font-size="10.00">MmwDemo_timingInfo</text>
<polyline fill="none" stroke="black" points="2047.5,-380 2214.5,-380 "/>
<text text-anchor="start" x="2055.5" y="-368" font-family="Helvetica,sans-Serif" font-size="10.00">+ interFrameProcCycles</text>
<text text-anchor="start" x="2055.5" y="-357" font-family="Helvetica,sans-Serif" font-size="10.00">+ transmitOutputCycles</text>
<text text-anchor="start" x="2055.5" y="-346" font-family="Helvetica,sans-Serif" font-size="10.00">+ chirpProcessingEndTime</text>
<text text-anchor="start" x="2055.5" y="-335" font-family="Helvetica,sans-Serif" font-size="10.00">+ chirpProcessingEndMarginMin</text>
<text text-anchor="start" x="2055.5" y="-324" font-family="Helvetica,sans-Serif" font-size="10.00">+ chirpProcessingEndMarginMax</text>
<text text-anchor="start" x="2055.5" y="-313" font-family="Helvetica,sans-Serif" font-size="10.00">+ interFrameProcessingEndTime</text>
<text text-anchor="start" x="2055.5" y="-302" font-family="Helvetica,sans-Serif" font-size="10.00">+ interFrameProcessingEndMargin</text>
<text text-anchor="start" x="2055.5" y="-291" font-family="Helvetica,sans-Serif" font-size="10.00">+ activeFrameCPULoad</text>
<text text-anchor="start" x="2055.5" y="-280" font-family="Helvetica,sans-Serif" font-size="10.00">+ interFrameCPULoad</text>
<polyline fill="none" stroke="black" points="2047.5,-273 2214.5,-273 "/>
<text text-anchor="middle" x="2131" y="-261" font-family="Helvetica,sans-Serif" font-size="10.00"> </text>
</a>
</g>
</g>
<!-- Node16&#45;&gt;Node1 -->
<g id="edge16" class="edge"><title>Node16&#45;&gt;Node1</title>
<path fill="none" stroke="#404040" d="M2070.73,-253.793C2060.43,-243.737 2049.36,-234.091 2038,-226 2002.34,-200.613 1989.74,-199.184 1948,-186 1805.72,-141.059 1634.72,-112.284 1529.97,-97.3834"/>
<polygon fill="none" stroke="#404040" points="1529.73,-97.3496 1523.23,-100.475 1517.85,-95.6786 1524.35,-92.5531 1529.73,-97.3496"/>
<text text-anchor="middle" x="2035.5" y="-194.5" font-family="Helvetica,sans-Serif" font-size="10.00"> +timingInfo</text>
</g>
<!-- Node17 -->
<g id="node17" class="node"><title>Node17</title>
<g id="a_node17"><a xlink:href="structclustering_d_bscan_report_for_tx__t.html" target="_top" xlink:title="Structure for each cluster information report .">
<polygon fill="white" stroke="black" points="2232.5,-281.5 2232.5,-371.5 2387.5,-371.5 2387.5,-281.5 2232.5,-281.5"/>
<text text-anchor="middle" x="2310" y="-359.5" font-family="Helvetica,sans-Serif" font-size="10.00">clusteringDBscanReportForTx_t</text>
<polyline fill="none" stroke="black" points="2232.5,-352.5 2387.5,-352.5 "/>
<text text-anchor="start" x="2240.5" y="-340.5" font-family="Helvetica,sans-Serif" font-size="10.00">+ xCenter</text>
<text text-anchor="start" x="2240.5" y="-329.5" font-family="Helvetica,sans-Serif" font-size="10.00">+ yCenter</text>
<text text-anchor="start" x="2240.5" y="-318.5" font-family="Helvetica,sans-Serif" font-size="10.00">+ xSize</text>
<text text-anchor="start" x="2240.5" y="-307.5" font-family="Helvetica,sans-Serif" font-size="10.00">+ ySize</text>
<polyline fill="none" stroke="black" points="2232.5,-300.5 2387.5,-300.5 "/>
<text text-anchor="middle" x="2310" y="-288.5" font-family="Helvetica,sans-Serif" font-size="10.00"> </text>
</a>
</g>
</g>
<!-- Node17&#45;&gt;Node1 -->
<g id="edge17" class="edge"><title>Node17&#45;&gt;Node1</title>
<path fill="none" stroke="#404040" d="M2280.76,-281.26C2265.68,-261.65 2245.69,-239.916 2223,-226 2107.93,-155.431 1714.45,-110.909 1529.95,-93.4344"/>
<polygon fill="none" stroke="#404040" points="1529.78,-93.419 1523.43,-96.8408 1517.83,-92.2976 1524.18,-88.8758 1529.78,-93.419"/>
<text text-anchor="middle" x="2214.5" y="-194.5" font-family="Helvetica,sans-Serif" font-size="10.00"> +clusterOpFinal</text>
</g>
<!-- Node18 -->
<g id="node18" class="node"><title>Node18</title>
<g id="a_node18"><a xlink:href="structcycle_log__t__.html" target="_top" xlink:title="DSP cycle profiling structure to accumulate different processing times in chirp and frame processing ...">
<polygon fill="white" stroke="black" points="2406,-281.5 2406,-371.5 2548,-371.5 2548,-281.5 2406,-281.5"/>
<text text-anchor="middle" x="2477" y="-359.5" font-family="Helvetica,sans-Serif" font-size="10.00">cycleLog_t_</text>
<polyline fill="none" stroke="black" points="2406,-352.5 2548,-352.5 "/>
<text text-anchor="start" x="2414" y="-340.5" font-family="Helvetica,sans-Serif" font-size="10.00">+ interChirpProcessingTime</text>
<text text-anchor="start" x="2414" y="-329.5" font-family="Helvetica,sans-Serif" font-size="10.00">+ interChirpWaitTime</text>
<text text-anchor="start" x="2414" y="-318.5" font-family="Helvetica,sans-Serif" font-size="10.00">+ interFrameProcessingTime</text>
<text text-anchor="start" x="2414" y="-307.5" font-family="Helvetica,sans-Serif" font-size="10.00">+ interFrameWaitTime</text>
<polyline fill="none" stroke="black" points="2406,-300.5 2548,-300.5 "/>
<text text-anchor="middle" x="2477" y="-288.5" font-family="Helvetica,sans-Serif" font-size="10.00"> </text>
</a>
</g>
</g>
<!-- Node18&#45;&gt;Node1 -->
<g id="edge18" class="edge"><title>Node18&#45;&gt;Node1</title>
<path fill="none" stroke="#404040" d="M2450.01,-281.264C2436.08,-261.776 2417.49,-240.142 2396,-226 2341.58,-190.194 2318.85,-198.899 2255,-186 1995.66,-133.606 1684.43,-104.349 1529.91,-92.0384"/>
<polygon fill="none" stroke="#404040" points="1529.67,-92.0193 1523.37,-95.5349 1517.71,-91.0753 1524,-87.5597 1529.67,-92.0193"/>
<text text-anchor="middle" x="2386.5" y="-194.5" font-family="Helvetica,sans-Serif" font-size="10.00"> +cycleLog</text>
</g>
<!-- Node19 -->
<g id="node19" class="node"><title>Node19</title>
<g id="a_node19"><a xlink:href="struct_s_n_r_thresholds.html" target="_top" xlink:title="These parameters allow the SNR requirements to be varied as a function of range.">
<polygon fill="white" stroke="black" points="2566,-292.5 2566,-360.5 2650,-360.5 2650,-292.5 2566,-292.5"/>
<text text-anchor="middle" x="2608" y="-348.5" font-family="Helvetica,sans-Serif" font-size="10.00">SNRThresholds</text>
<polyline fill="none" stroke="black" points="2566,-341.5 2650,-341.5 "/>
<text text-anchor="start" x="2574" y="-329.5" font-family="Helvetica,sans-Serif" font-size="10.00">+ rangelim</text>
<text text-anchor="start" x="2574" y="-318.5" font-family="Helvetica,sans-Serif" font-size="10.00">+ threshold</text>
<polyline fill="none" stroke="black" points="2566,-311.5 2650,-311.5 "/>
<text text-anchor="middle" x="2608" y="-299.5" font-family="Helvetica,sans-Serif" font-size="10.00"> </text>
</a>
</g>
</g>
<!-- Node19&#45;&gt;Node1 -->
<g id="edge19" class="edge"><title>Node19&#45;&gt;Node1</title>
<path fill="none" stroke="#404040" d="M2598.7,-292.382C2590.93,-270.554 2577.73,-242.966 2557,-226 2506.26,-184.474 2479.41,-198.288 2415,-186 2094.25,-124.802 1707.01,-98.7528 1529.91,-89.4313"/>
<polygon fill="none" stroke="#404040" points="1529.76,-89.4239 1523.56,-93.1075 1517.78,-88.8019 1523.98,-85.1183 1529.76,-89.4239"/>
<text text-anchor="middle" x="2573.5" y="-200" font-family="Helvetica,sans-Serif" font-size="10.00"> +SNRThresholds</text>
<text text-anchor="middle" x="2573.5" y="-189" font-family="Helvetica,sans-Serif" font-size="10.00">+peakValThresholds</text>
</g>
<!-- Node20 -->
<g id="node20" class="node"><title>Node20</title>
<g id="a_node20"><a xlink:href="struct_mmw_demo__detected_obj_actual__t.html" target="_top" xlink:title="Detected object estimated parameters.">
<polygon fill="white" stroke="black" points="2668.5,-237.5 2668.5,-415.5 2827.5,-415.5 2827.5,-237.5 2668.5,-237.5"/>
<text text-anchor="middle" x="2748" y="-403.5" font-family="Helvetica,sans-Serif" font-size="10.00">MmwDemo_detectedObjActual_t</text>
<polyline fill="none" stroke="black" points="2668.5,-396.5 2827.5,-396.5 "/>
<text text-anchor="start" x="2676.5" y="-384.5" font-family="Helvetica,sans-Serif" font-size="10.00">+ rangeIdx</text>
<text text-anchor="start" x="2676.5" y="-373.5" font-family="Helvetica,sans-Serif" font-size="10.00">+ dopplerIdx</text>
<text text-anchor="start" x="2676.5" y="-362.5" font-family="Helvetica,sans-Serif" font-size="10.00">+ range</text>
<text text-anchor="start" x="2676.5" y="-351.5" font-family="Helvetica,sans-Serif" font-size="10.00">+ speed</text>
<text text-anchor="start" x="2676.5" y="-340.5" font-family="Helvetica,sans-Serif" font-size="10.00">+ sinAzim</text>
<text text-anchor="start" x="2676.5" y="-329.5" font-family="Helvetica,sans-Serif" font-size="10.00">+ peakVal</text>
<text text-anchor="start" x="2676.5" y="-318.5" font-family="Helvetica,sans-Serif" font-size="10.00">+ rangeSNRdB</text>
<text text-anchor="start" x="2676.5" y="-307.5" font-family="Helvetica,sans-Serif" font-size="10.00">+ dopplerSNRdB</text>
<text text-anchor="start" x="2676.5" y="-296.5" font-family="Helvetica,sans-Serif" font-size="10.00">+ sinAzimSNRLin</text>
<text text-anchor="start" x="2676.5" y="-285.5" font-family="Helvetica,sans-Serif" font-size="10.00">+ x</text>
<text text-anchor="start" x="2676.5" y="-274.5" font-family="Helvetica,sans-Serif" font-size="10.00">+ y</text>
<text text-anchor="start" x="2676.5" y="-263.5" font-family="Helvetica,sans-Serif" font-size="10.00">+ z</text>
<polyline fill="none" stroke="black" points="2668.5,-256.5 2827.5,-256.5 "/>
<text text-anchor="middle" x="2748" y="-244.5" font-family="Helvetica,sans-Serif" font-size="10.00"> </text>
</a>
</g>
</g>
<!-- Node20&#45;&gt;Node1 -->
<g id="edge20" class="edge"><title>Node20&#45;&gt;Node1</title>
<path fill="none" stroke="#404040" d="M2686.82,-237.139C2668.4,-216.965 2646.48,-197.964 2622,-186 2430.38,-92.3606 1777.85,-84.0126 1529.78,-84.3316"/>
<polygon fill="none" stroke="#404040" points="1529.56,-84.3319 1523.57,-88.3434 1517.56,-84.3548 1523.56,-80.3434 1529.56,-84.3319"/>
<text text-anchor="middle" x="2682" y="-194.5" font-family="Helvetica,sans-Serif" font-size="10.00"> +detObj2D</text>
</g>
<!-- Node21 -->
<g id="node21" class="node"><title>Node21</title>
<g id="a_node21"><a xlink:href="structtracking_input_report.html" target="_top" xlink:title="Input to tracking from the clustering output.">
<polygon fill="white" stroke="black" points="2845.5,-281.5 2845.5,-371.5 2946.5,-371.5 2946.5,-281.5 2845.5,-281.5"/>
<text text-anchor="middle" x="2896" y="-359.5" font-family="Helvetica,sans-Serif" font-size="10.00">trackingInputReport</text>
<polyline fill="none" stroke="black" points="2845.5,-352.5 2946.5,-352.5 "/>
<text text-anchor="start" x="2853.5" y="-340.5" font-family="Helvetica,sans-Serif" font-size="10.00">+ xSize</text>
<text text-anchor="start" x="2853.5" y="-329.5" font-family="Helvetica,sans-Serif" font-size="10.00">+ ySize</text>
<text text-anchor="start" x="2853.5" y="-318.5" font-family="Helvetica,sans-Serif" font-size="10.00">+ measVec</text>
<text text-anchor="start" x="2853.5" y="-307.5" font-family="Helvetica,sans-Serif" font-size="10.00">+ measCovVec</text>
<polyline fill="none" stroke="black" points="2845.5,-300.5 2946.5,-300.5 "/>
<text text-anchor="middle" x="2896" y="-288.5" font-family="Helvetica,sans-Serif" font-size="10.00"> </text>
</a>
</g>
</g>
<!-- Node21&#45;&gt;Node1 -->
<g id="edge21" class="edge"><title>Node21&#45;&gt;Node1</title>
<path fill="none" stroke="#404040" d="M2878.01,-281.289C2868.15,-261.926 2854.2,-240.386 2836,-226 2790.24,-189.826 2768.23,-197.262 2711,-186 2276.13,-100.433 1744.51,-86.8725 1529.79,-85.0704"/>
<polygon fill="none" stroke="#404040" points="1529.65,-85.0694 1523.62,-89.0237 1517.65,-84.9783 1523.68,-81.024 1529.65,-85.0694"/>
<text text-anchor="middle" x="2841.5" y="-194.5" font-family="Helvetica,sans-Serif" font-size="10.00"> +trackingInput</text>
</g>
</g>
</svg>
