<?xml version="1.0" encoding="UTF-8" standalone="no"?>
<!DOCTYPE svg PUBLIC "-//W3C//DTD SVG 1.1//EN"
 "http://www.w3.org/Graphics/SVG/1.1/DTD/svg11.dtd">
<!-- Generated by graphviz version 2.38.0 (20140413.2041)
 -->
<!-- Title: mmWave_detObjMsg_t Pages: 1 -->
<svg width="288pt" height="248pt"
 viewBox="0.00 0.00 288.00 248.00" xmlns="http://www.w3.org/2000/svg" xmlns:xlink="http://www.w3.org/1999/xlink">
<g id="graph0" class="graph" transform="scale(1 1) rotate(0) translate(4 244)">
<title>mmWave_detObjMsg_t</title>
<polygon fill="white" stroke="none" points="-4,4 -4,-244 284,-244 284,4 -4,4"/>
<!-- Node1 -->
<g id="node1" class="node"><title>Node1</title>
<g id="a_node1"><a xlink:title="The structure defines the message body for for reporting detection information from data path to MSS.">
<polygon fill="#bfbfbf" stroke="black" points="70,-0.5 70,-57.5 188,-57.5 188,-0.5 70,-0.5"/>
<text text-anchor="middle" x="129" y="-45.5" font-family="Helvetica,sans-Serif" font-size="10.00">mmWave_detObjMsg_t</text>
<polyline fill="none" stroke="black" points="70,-38.5 188,-38.5 "/>
<text text-anchor="middle" x="129" y="-26.5" font-family="Helvetica,sans-Serif" font-size="10.00"> </text>
<polyline fill="none" stroke="black" points="70,-19.5 188,-19.5 "/>
<text text-anchor="middle" x="129" y="-7.5" font-family="Helvetica,sans-Serif" font-size="10.00"> </text>
</a>
</g>
</g>
<!-- Node2 -->
<g id="node2" class="node"><title>Node2</title>
<g id="a_node2"><a xlink:href="structmm_wave_m_s_g___t_l_v__t.html" target="_top" xlink:title="The structure describes the TLV part of the message from DSS to MSS on data path detection informatio...">
<polygon fill="white" stroke="black" points="0,-133 0,-212 110,-212 110,-133 0,-133"/>
<text text-anchor="middle" x="55" y="-200" font-family="Helvetica,sans-Serif" font-size="10.00">mmWaveMSG_TLV_t</text>
<polyline fill="none" stroke="black" points="0,-193 110,-193 "/>
<text text-anchor="start" x="8" y="-181" font-family="Helvetica,sans-Serif" font-size="10.00">+ type</text>
<text text-anchor="start" x="8" y="-170" font-family="Helvetica,sans-Serif" font-size="10.00">+ length</text>
<text text-anchor="start" x="8" y="-159" font-family="Helvetica,sans-Serif" font-size="10.00">+ address</text>
<polyline fill="none" stroke="black" points="0,-152 110,-152 "/>
<text text-anchor="middle" x="55" y="-140" font-family="Helvetica,sans-Serif" font-size="10.00"> </text>
</a>
</g>
</g>
<!-- Node2&#45;&gt;Node1 -->
<g id="edge1" class="edge"><title>Node2&#45;&gt;Node1</title>
<path fill="none" stroke="#404040" d="M75.2208,-132.835C85.6433,-112.905 98.3193,-88.6665 108.746,-68.7281"/>
<polygon fill="none" stroke="#404040" points="108.874,-68.484 108.11,-61.3134 114.435,-57.8503 115.199,-65.0208 108.874,-68.484"/>
<text text-anchor="middle" x="112.5" y="-79" font-family="Helvetica,sans-Serif" font-size="10.00"> +tlv</text>
</g>
<!-- Node3 -->
<g id="node3" class="node"><title>Node3</title>
<g id="a_node3"><a xlink:href="structmm_wave___o_u_t___m_s_g__header__t.html" target="_top" xlink:title="The structure defines the message header for reporting detection information from data path....">
<polygon fill="white" stroke="black" points="128,-105.5 128,-239.5 280,-239.5 280,-105.5 128,-105.5"/>
<text text-anchor="middle" x="204" y="-227.5" font-family="Helvetica,sans-Serif" font-size="10.00">mmWave_OUT_MSG_header_t</text>
<polyline fill="none" stroke="black" points="128,-220.5 280,-220.5 "/>
<text text-anchor="start" x="136" y="-208.5" font-family="Helvetica,sans-Serif" font-size="10.00">+ magicWord</text>
<text text-anchor="start" x="136" y="-197.5" font-family="Helvetica,sans-Serif" font-size="10.00">+ version</text>
<text text-anchor="start" x="136" y="-186.5" font-family="Helvetica,sans-Serif" font-size="10.00">+ totalPacketLen</text>
<text text-anchor="start" x="136" y="-175.5" font-family="Helvetica,sans-Serif" font-size="10.00">+ platform</text>
<text text-anchor="start" x="136" y="-164.5" font-family="Helvetica,sans-Serif" font-size="10.00">+ frameNumber</text>
<text text-anchor="start" x="136" y="-153.5" font-family="Helvetica,sans-Serif" font-size="10.00">+ timeCpuCycles</text>
<text text-anchor="start" x="136" y="-142.5" font-family="Helvetica,sans-Serif" font-size="10.00">+ numDetectedObj</text>
<text text-anchor="start" x="136" y="-131.5" font-family="Helvetica,sans-Serif" font-size="10.00">+ numTLVs</text>
<polyline fill="none" stroke="black" points="128,-124.5 280,-124.5 "/>
<text text-anchor="middle" x="204" y="-112.5" font-family="Helvetica,sans-Serif" font-size="10.00"> </text>
</a>
</g>
</g>
<!-- Node3&#45;&gt;Node1 -->
<g id="edge2" class="edge"><title>Node3&#45;&gt;Node1</title>
<path fill="none" stroke="#404040" d="M168.916,-105.307C162.225,-92.684 155.431,-79.8664 149.391,-68.4709"/>
<polygon fill="none" stroke="#404040" points="149.254,-68.2121 142.91,-64.784 143.634,-57.6093 149.978,-61.0374 149.254,-68.2121"/>
<text text-anchor="middle" x="177.5" y="-79" font-family="Helvetica,sans-Serif" font-size="10.00"> +header</text>
</g>
</g>
</svg>
