<?xml version="1.0" encoding="UTF-8" standalone="no"?>
<!DOCTYPE svg PUBLIC "-//W3C//DTD SVG 1.1//EN"
 "http://www.w3.org/Graphics/SVG/1.1/DTD/svg11.dtd">
<!-- Generated by graphviz version 2.38.0 (20140413.2041)
 -->
<!-- Title: xdc_runtime_System_Module_GateProxy_Object2__ Pages: 1 -->
<svg width="163pt" height="193pt"
 viewBox="0.00 0.00 163.00 193.00" xmlns="http://www.w3.org/2000/svg" xmlns:xlink="http://www.w3.org/1999/xlink">
<g id="graph0" class="graph" transform="scale(1 1) rotate(0) translate(4 189)">
<title>xdc_runtime_System_Module_GateProxy_Object2__</title>
<polygon fill="white" stroke="none" points="-4,4 -4,-189 159,-189 159,4 -4,4"/>
<!-- Node1 -->
<g id="node1" class="node"><title>Node1</title>
<g id="a_node1"><a xlink:title=" ">
<polygon fill="#bfbfbf" stroke="black" points="0,-0.5 0,-68.5 155,-68.5 155,-0.5 0,-0.5"/>
<text text-anchor="start" x="8" y="-56.5" font-family="Helvetica,sans-Serif" font-size="10.00">xdc_runtime_System</text>
<text text-anchor="middle" x="77.5" y="-45.5" font-family="Helvetica,sans-Serif" font-size="10.00">_Module_GateProxy_Object2__</text>
<polyline fill="none" stroke="black" points="0,-38.5 155,-38.5 "/>
<text text-anchor="start" x="8" y="-26.5" font-family="Helvetica,sans-Serif" font-size="10.00">+ hdr</text>
<polyline fill="none" stroke="black" points="0,-19.5 155,-19.5 "/>
<text text-anchor="middle" x="77.5" y="-7.5" font-family="Helvetica,sans-Serif" font-size="10.00"> </text>
</a>
</g>
</g>
<!-- Node2 -->
<g id="node2" class="node"><title>Node2</title>
<g id="a_node2"><a xlink:href="structti__sysbios__gates___gate_hwi___object____.html" target="_top" xlink:title=" ">
<polygon fill="white" stroke="black" points="11.5,-116.5 11.5,-184.5 143.5,-184.5 143.5,-116.5 11.5,-116.5"/>
<text text-anchor="start" x="19.5" y="-172.5" font-family="Helvetica,sans-Serif" font-size="10.00">ti_sysbios_gates_GateHwi</text>
<text text-anchor="middle" x="77.5" y="-161.5" font-family="Helvetica,sans-Serif" font-size="10.00">_Object__</text>
<polyline fill="none" stroke="black" points="11.5,-154.5 143.5,-154.5 "/>
<text text-anchor="start" x="19.5" y="-142.5" font-family="Helvetica,sans-Serif" font-size="10.00">+ __fxns</text>
<polyline fill="none" stroke="black" points="11.5,-135.5 143.5,-135.5 "/>
<text text-anchor="middle" x="77.5" y="-123.5" font-family="Helvetica,sans-Serif" font-size="10.00"> </text>
</a>
</g>
</g>
<!-- Node2&#45;&gt;Node1 -->
<g id="edge1" class="edge"><title>Node2&#45;&gt;Node1</title>
<path fill="none" stroke="#404040" d="M77.5,-116.22C77.5,-105.099 77.5,-92.5117 77.5,-80.6422"/>
<polygon fill="none" stroke="#404040" points="77.5001,-80.6243 73.5,-74.6243 77.5,-68.6243 81.5,-74.6242 77.5001,-80.6243"/>
<text text-anchor="middle" x="88.5" y="-90" font-family="Helvetica,sans-Serif" font-size="10.00"> +obj</text>
</g>
</g>
</svg>
