<?xml version="1.0" encoding="UTF-8" standalone="no"?>
<!DOCTYPE svg PUBLIC "-//W3C//DTD SVG 1.1//EN"
 "http://www.w3.org/Graphics/SVG/1.1/DTD/svg11.dtd">
<!-- Generated by graphviz version 2.38.0 (20140413.2041)
 -->
<!-- Title: MmwDemo_CliCfg_t_ Pages: 1 -->
<svg width="1652pt" height="237pt"
 viewBox="0.00 0.00 1652.00 237.00" xmlns="http://www.w3.org/2000/svg" xmlns:xlink="http://www.w3.org/1999/xlink">
<g id="graph0" class="graph" transform="scale(1 1) rotate(0) translate(4 233)">
<title>MmwDemo_CliCfg_t_</title>
<polygon fill="white" stroke="none" points="-4,4 -4,-233 1648,-233 1648,4 -4,4"/>
<!-- Node1 -->
<g id="node1" class="node"><title>Node1</title>
<g id="a_node1"><a xlink:title="Millimeter Wave Demo CLI related configuration.">
<polygon fill="#bfbfbf" stroke="black" points="797,-0.5 797,-57.5 907,-57.5 907,-0.5 797,-0.5"/>
<text text-anchor="middle" x="852" y="-45.5" font-family="Helvetica,sans-Serif" font-size="10.00">MmwDemo_CliCfg_t_</text>
<polyline fill="none" stroke="black" points="797,-38.5 907,-38.5 "/>
<text text-anchor="middle" x="852" y="-26.5" font-family="Helvetica,sans-Serif" font-size="10.00"> </text>
<polyline fill="none" stroke="black" points="797,-19.5 907,-19.5 "/>
<text text-anchor="middle" x="852" y="-7.5" font-family="Helvetica,sans-Serif" font-size="10.00"> </text>
</a>
</g>
</g>
<!-- Node2 -->
<g id="node2" class="node"><title>Node2</title>
<g id="a_node2"><a xlink:href="struct_mmw_demo___clutter_removal_cfg__t.html" target="_top" xlink:title="Clutter removal configuration.">
<polygon fill="white" stroke="black" points="0,-144 0,-201 158,-201 158,-144 0,-144"/>
<text text-anchor="middle" x="79" y="-189" font-family="Helvetica,sans-Serif" font-size="10.00">MmwDemo_ClutterRemovalCfg_t</text>
<polyline fill="none" stroke="black" points="0,-182 158,-182 "/>
<text text-anchor="start" x="8" y="-170" font-family="Helvetica,sans-Serif" font-size="10.00">+ enabled</text>
<polyline fill="none" stroke="black" points="0,-163 158,-163 "/>
<text text-anchor="middle" x="79" y="-151" font-family="Helvetica,sans-Serif" font-size="10.00"> </text>
</a>
</g>
</g>
<!-- Node2&#45;&gt;Node1 -->
<g id="edge1" class="edge"><title>Node2&#45;&gt;Node1</title>
<path fill="none" stroke="#404040" d="M118.123,-143.926C132.973,-134.247 150.329,-123.843 167,-116 218.633,-91.7079 233.066,-87.2903 289,-76 465.384,-40.3968 678.147,-32.1991 784.529,-30.4116"/>
<polygon fill="none" stroke="#404040" points="784.658,-30.4098 790.596,-26.3194 796.656,-30.2282 790.717,-34.3185 784.658,-30.4098"/>
<text text-anchor="middle" x="333" y="-84.5" font-family="Helvetica,sans-Serif" font-size="10.00"> +clutterRemovalCfg</text>
</g>
<!-- Node3 -->
<g id="node3" class="node"><title>Node3</title>
<g id="a_node3"><a xlink:href="struct_mmw_demo___calib_dc_range_sig_cfg__t.html" target="_top" xlink:title="Millimeter Wave Demo DC range signature compensation.">
<polygon fill="white" stroke="black" points="176.5,-127.5 176.5,-217.5 345.5,-217.5 345.5,-127.5 176.5,-127.5"/>
<text text-anchor="middle" x="261" y="-205.5" font-family="Helvetica,sans-Serif" font-size="10.00">MmwDemo_CalibDcRangeSigCfg_t</text>
<polyline fill="none" stroke="black" points="176.5,-198.5 345.5,-198.5 "/>
<text text-anchor="start" x="184.5" y="-186.5" font-family="Helvetica,sans-Serif" font-size="10.00">+ enabled</text>
<text text-anchor="start" x="184.5" y="-175.5" font-family="Helvetica,sans-Serif" font-size="10.00">+ negativeBinIdx</text>
<text text-anchor="start" x="184.5" y="-164.5" font-family="Helvetica,sans-Serif" font-size="10.00">+ positiveBinIdx</text>
<text text-anchor="start" x="184.5" y="-153.5" font-family="Helvetica,sans-Serif" font-size="10.00">+ numAvgChirps</text>
<polyline fill="none" stroke="black" points="176.5,-146.5 345.5,-146.5 "/>
<text text-anchor="middle" x="261" y="-134.5" font-family="Helvetica,sans-Serif" font-size="10.00"> </text>
</a>
</g>
</g>
<!-- Node3&#45;&gt;Node1 -->
<g id="edge2" class="edge"><title>Node3&#45;&gt;Node1</title>
<path fill="none" stroke="#404040" d="M325.759,-127.328C357.549,-108.006 397.27,-87.2203 436,-76 555.615,-41.3467 701.523,-32.4754 784.907,-30.3968"/>
<polygon fill="none" stroke="#404040" points="784.996,-30.3949 790.907,-26.2646 796.993,-30.1325 791.082,-34.2627 784.996,-30.3949"/>
<text text-anchor="middle" x="485" y="-84.5" font-family="Helvetica,sans-Serif" font-size="10.00"> +calibDcRangeSigCfg</text>
</g>
<!-- Node4 -->
<g id="node4" class="node"><title>Node4</title>
<g id="a_node4"><a xlink:href="struct_mmw_demo___multi_obj_beam_forming_cfg__t.html" target="_top" xlink:title="Millimeter Wave Demo multi object beam formaing Configuration.">
<polygon fill="white" stroke="black" points="363.5,-133 363.5,-212 530.5,-212 530.5,-133 363.5,-133"/>
<text text-anchor="start" x="371.5" y="-200" font-family="Helvetica,sans-Serif" font-size="10.00">MmwDemo_MultiObjBeamForming</text>
<text text-anchor="middle" x="447" y="-189" font-family="Helvetica,sans-Serif" font-size="10.00">Cfg_t</text>
<polyline fill="none" stroke="black" points="363.5,-182 530.5,-182 "/>
<text text-anchor="start" x="371.5" y="-170" font-family="Helvetica,sans-Serif" font-size="10.00">+ enabled</text>
<text text-anchor="start" x="371.5" y="-159" font-family="Helvetica,sans-Serif" font-size="10.00">+ multiPeakThrsScal</text>
<polyline fill="none" stroke="black" points="363.5,-152 530.5,-152 "/>
<text text-anchor="middle" x="447" y="-140" font-family="Helvetica,sans-Serif" font-size="10.00"> </text>
</a>
</g>
</g>
<!-- Node4&#45;&gt;Node1 -->
<g id="edge3" class="edge"><title>Node4&#45;&gt;Node1</title>
<path fill="none" stroke="#404040" d="M488.292,-132.998C512.175,-112.875 543.806,-89.6572 576,-76 643.494,-47.3677 727.336,-36.5076 784.79,-32.4161"/>
<polygon fill="none" stroke="#404040" points="785.02,-32.4013 790.747,-28.0194 796.994,-31.6205 791.267,-36.0024 785.02,-32.4013"/>
<text text-anchor="middle" x="636.5" y="-84.5" font-family="Helvetica,sans-Serif" font-size="10.00"> +multiObjBeamFormingCfg</text>
</g>
<!-- Node5 -->
<g id="node5" class="node"><title>Node5</title>
<g id="a_node5"><a xlink:href="struct_mmw_demo___peak_grouping_cfg__t.html" target="_top" xlink:title="Millimeter Wave Demo Peak grouping Configuration.">
<polygon fill="white" stroke="black" points="548.5,-122 548.5,-223 703.5,-223 703.5,-122 548.5,-122"/>
<text text-anchor="middle" x="626" y="-211" font-family="Helvetica,sans-Serif" font-size="10.00">MmwDemo_PeakGroupingCfg_t</text>
<polyline fill="none" stroke="black" points="548.5,-204 703.5,-204 "/>
<text text-anchor="start" x="556.5" y="-192" font-family="Helvetica,sans-Serif" font-size="10.00">+ minRangeIndex</text>
<text text-anchor="start" x="556.5" y="-181" font-family="Helvetica,sans-Serif" font-size="10.00">+ maxRangeIndex</text>
<text text-anchor="start" x="556.5" y="-170" font-family="Helvetica,sans-Serif" font-size="10.00">+ scheme</text>
<text text-anchor="start" x="556.5" y="-159" font-family="Helvetica,sans-Serif" font-size="10.00">+ inRangeDirectionEn</text>
<text text-anchor="start" x="556.5" y="-148" font-family="Helvetica,sans-Serif" font-size="10.00">+ inDopplerDirectionEn</text>
<polyline fill="none" stroke="black" points="548.5,-141 703.5,-141 "/>
<text text-anchor="middle" x="626" y="-129" font-family="Helvetica,sans-Serif" font-size="10.00"> </text>
</a>
</g>
</g>
<!-- Node5&#45;&gt;Node1 -->
<g id="edge4" class="edge"><title>Node5&#45;&gt;Node1</title>
<path fill="none" stroke="#404040" d="M671.775,-121.855C688.597,-105.656 708.557,-88.6112 729,-76 746.355,-65.2936 766.598,-56.4532 785.592,-49.4819"/>
<polygon fill="none" stroke="#404040" points="785.592,-49.4818 789.919,-43.7131 796.908,-45.4884 792.581,-51.2571 785.592,-49.4818"/>
<text text-anchor="middle" x="771" y="-84.5" font-family="Helvetica,sans-Serif" font-size="10.00"> +peakGroupingCfg</text>
</g>
<!-- Node6 -->
<g id="node6" class="node"><title>Node6</title>
<g id="a_node6"><a xlink:href="struct_mmw_demo___cfar_cfg__t.html" target="_top" xlink:title="Millimeter Wave Demo CFAR Configuration.">
<polygon fill="white" stroke="black" points="722,-116.5 722,-228.5 832,-228.5 832,-116.5 722,-116.5"/>
<text text-anchor="middle" x="777" y="-216.5" font-family="Helvetica,sans-Serif" font-size="10.00">MmwDemo_CfarCfg_t</text>
<polyline fill="none" stroke="black" points="722,-209.5 832,-209.5 "/>
<text text-anchor="start" x="730" y="-197.5" font-family="Helvetica,sans-Serif" font-size="10.00">+ thresholdScale</text>
<text text-anchor="start" x="730" y="-186.5" font-family="Helvetica,sans-Serif" font-size="10.00">+ averageMode</text>
<text text-anchor="start" x="730" y="-175.5" font-family="Helvetica,sans-Serif" font-size="10.00">+ winLen</text>
<text text-anchor="start" x="730" y="-164.5" font-family="Helvetica,sans-Serif" font-size="10.00">+ guardLen</text>
<text text-anchor="start" x="730" y="-153.5" font-family="Helvetica,sans-Serif" font-size="10.00">+ noiseDivShift</text>
<text text-anchor="start" x="730" y="-142.5" font-family="Helvetica,sans-Serif" font-size="10.00">+ cyclicMode</text>
<polyline fill="none" stroke="black" points="722,-135.5 832,-135.5 "/>
<text text-anchor="middle" x="777" y="-123.5" font-family="Helvetica,sans-Serif" font-size="10.00"> </text>
</a>
</g>
</g>
<!-- Node6&#45;&gt;Node1 -->
<g id="edge5" class="edge"><title>Node6&#45;&gt;Node1</title>
<path fill="none" stroke="#404040" d="M806.212,-116.387C814.733,-100.31 823.856,-83.098 831.698,-68.3028"/>
<polygon fill="none" stroke="#404040" points="831.794,-68.1214 831.07,-60.9467 837.414,-57.5187 838.138,-64.6933 831.794,-68.1214"/>
<text text-anchor="middle" x="862.5" y="-90" font-family="Helvetica,sans-Serif" font-size="10.00"> +cfarCfgDoppler</text>
<text text-anchor="middle" x="862.5" y="-79" font-family="Helvetica,sans-Serif" font-size="10.00">+cfarCfgRange</text>
</g>
<!-- Node7 -->
<g id="node7" class="node"><title>Node7</title>
<g id="a_node7"><a xlink:href="struct_mmw_demo___near_field_correction_cfg__t.html" target="_top" xlink:title="Millimeter Wave Demo near field correction.">
<polygon fill="white" stroke="black" points="850,-127.5 850,-217.5 1006,-217.5 1006,-127.5 850,-127.5"/>
<text text-anchor="start" x="858" y="-205.5" font-family="Helvetica,sans-Serif" font-size="10.00">MmwDemo_NearFieldCorrection</text>
<text text-anchor="middle" x="928" y="-194.5" font-family="Helvetica,sans-Serif" font-size="10.00">Cfg_t</text>
<polyline fill="none" stroke="black" points="850,-187.5 1006,-187.5 "/>
<text text-anchor="start" x="858" y="-175.5" font-family="Helvetica,sans-Serif" font-size="10.00">+ enabled</text>
<text text-anchor="start" x="858" y="-164.5" font-family="Helvetica,sans-Serif" font-size="10.00">+ endRangeIdx</text>
<text text-anchor="start" x="858" y="-153.5" font-family="Helvetica,sans-Serif" font-size="10.00">+ startRangeIdx</text>
<polyline fill="none" stroke="black" points="850,-146.5 1006,-146.5 "/>
<text text-anchor="middle" x="928" y="-134.5" font-family="Helvetica,sans-Serif" font-size="10.00"> </text>
</a>
</g>
</g>
<!-- Node7&#45;&gt;Node1 -->
<g id="edge6" class="edge"><title>Node7&#45;&gt;Node1</title>
<path fill="none" stroke="#404040" d="M921.928,-127.066C918.238,-110.203 912.352,-91.3747 903,-76 901.049,-72.7926 898.807,-69.6784 896.374,-66.6829"/>
<polygon fill="none" stroke="#404040" points="896.148,-66.4342 889.153,-64.6822 888.08,-57.5513 895.075,-59.3034 896.148,-66.4342"/>
<text text-anchor="middle" x="968" y="-84.5" font-family="Helvetica,sans-Serif" font-size="10.00"> +nearFieldCorrectionCfg</text>
</g>
<!-- Node8 -->
<g id="node8" class="node"><title>Node8</title>
<g id="a_node8"><a xlink:href="struct_mmw_demo___extended_max_velocity_cfg__t.html" target="_top" xlink:title="Millimeter Wave Demo Velocity Disambiguation.">
<polygon fill="white" stroke="black" points="1024,-138.5 1024,-206.5 1190,-206.5 1190,-138.5 1024,-138.5"/>
<text text-anchor="start" x="1032" y="-194.5" font-family="Helvetica,sans-Serif" font-size="10.00">MmwDemo_ExtendedMaxVelocity</text>
<text text-anchor="middle" x="1107" y="-183.5" font-family="Helvetica,sans-Serif" font-size="10.00">Cfg_t</text>
<polyline fill="none" stroke="black" points="1024,-176.5 1190,-176.5 "/>
<text text-anchor="start" x="1032" y="-164.5" font-family="Helvetica,sans-Serif" font-size="10.00">+ enabled</text>
<polyline fill="none" stroke="black" points="1024,-157.5 1190,-157.5 "/>
<text text-anchor="middle" x="1107" y="-145.5" font-family="Helvetica,sans-Serif" font-size="10.00"> </text>
</a>
</g>
</g>
<!-- Node8&#45;&gt;Node1 -->
<g id="edge7" class="edge"><title>Node8&#45;&gt;Node1</title>
<path fill="none" stroke="#404040" d="M1086.45,-138.16C1071.99,-117.364 1050.82,-91.6624 1026,-76 993.993,-55.803 953.321,-44.4204 919.349,-38.0326"/>
<polygon fill="none" stroke="#404040" points="918.985,-37.9688 912.385,-40.8735 907.165,-35.8981 913.765,-32.9935 918.985,-37.9688"/>
<text text-anchor="middle" x="1112" y="-84.5" font-family="Helvetica,sans-Serif" font-size="10.00"> +extendedMaxVelocityCfg</text>
</g>
<!-- Node9 -->
<g id="node9" class="node"><title>Node9</title>
<g id="a_node9"><a xlink:href="struct_mmw_demo___gui_mon_sel__t.html" target="_top" xlink:title="Millimeter Wave Demo Gui Monitor Selection.">
<polygon fill="white" stroke="black" points="1208.5,-116.5 1208.5,-228.5 1335.5,-228.5 1335.5,-116.5 1208.5,-116.5"/>
<text text-anchor="middle" x="1272" y="-216.5" font-family="Helvetica,sans-Serif" font-size="10.00">MmwDemo_GuiMonSel_t</text>
<polyline fill="none" stroke="black" points="1208.5,-209.5 1335.5,-209.5 "/>
<text text-anchor="start" x="1216.5" y="-197.5" font-family="Helvetica,sans-Serif" font-size="10.00">+ detectedObjects</text>
<text text-anchor="start" x="1216.5" y="-186.5" font-family="Helvetica,sans-Serif" font-size="10.00">+ logMagRange</text>
<text text-anchor="start" x="1216.5" y="-175.5" font-family="Helvetica,sans-Serif" font-size="10.00">+ noiseProfile</text>
<text text-anchor="start" x="1216.5" y="-164.5" font-family="Helvetica,sans-Serif" font-size="10.00">+ rangeAzimuthHeatMap</text>
<text text-anchor="start" x="1216.5" y="-153.5" font-family="Helvetica,sans-Serif" font-size="10.00">+ rangeDopplerHeatMap</text>
<text text-anchor="start" x="1216.5" y="-142.5" font-family="Helvetica,sans-Serif" font-size="10.00">+ statsInfo</text>
<polyline fill="none" stroke="black" points="1208.5,-135.5 1335.5,-135.5 "/>
<text text-anchor="middle" x="1272" y="-123.5" font-family="Helvetica,sans-Serif" font-size="10.00"> </text>
</a>
</g>
</g>
<!-- Node9&#45;&gt;Node1 -->
<g id="edge8" class="edge"><title>Node9&#45;&gt;Node1</title>
<path fill="none" stroke="#404040" d="M1227.57,-116.009C1212.49,-100.689 1194.49,-85.6431 1175,-76 1131.3,-54.3742 1000.29,-41.0312 919.176,-34.6111"/>
<polygon fill="none" stroke="#404040" points="919.06,-34.6022 912.769,-38.1277 907.096,-33.6769 913.386,-30.1515 919.06,-34.6022"/>
<text text-anchor="middle" x="1233.5" y="-84.5" font-family="Helvetica,sans-Serif" font-size="10.00"> +guiMonSel</text>
</g>
<!-- Node10 -->
<g id="node10" class="node"><title>Node10</title>
<g id="a_node10"><a xlink:href="struct_mmw_demo___a_d_c_buf_cfg__t.html" target="_top" xlink:title="ADCBUF configuration.">
<polygon fill="white" stroke="black" points="1354,-127.5 1354,-217.5 1482,-217.5 1482,-127.5 1354,-127.5"/>
<text text-anchor="middle" x="1418" y="-205.5" font-family="Helvetica,sans-Serif" font-size="10.00">MmwDemo_ADCBufCfg_t</text>
<polyline fill="none" stroke="black" points="1354,-198.5 1482,-198.5 "/>
<text text-anchor="start" x="1362" y="-186.5" font-family="Helvetica,sans-Serif" font-size="10.00">+ adcFmt</text>
<text text-anchor="start" x="1362" y="-175.5" font-family="Helvetica,sans-Serif" font-size="10.00">+ iqSwapSel</text>
<text text-anchor="start" x="1362" y="-164.5" font-family="Helvetica,sans-Serif" font-size="10.00">+ chInterleave</text>
<text text-anchor="start" x="1362" y="-153.5" font-family="Helvetica,sans-Serif" font-size="10.00">+ chirpThreshold</text>
<polyline fill="none" stroke="black" points="1354,-146.5 1482,-146.5 "/>
<text text-anchor="middle" x="1418" y="-134.5" font-family="Helvetica,sans-Serif" font-size="10.00"> </text>
</a>
</g>
</g>
<!-- Node10&#45;&gt;Node1 -->
<g id="edge9" class="edge"><title>Node10&#45;&gt;Node1</title>
<path fill="none" stroke="#404040" d="M1363.42,-127.37C1335.68,-107.674 1300.41,-86.5588 1265,-76 1146.67,-40.7145 1001.97,-32.0491 919.041,-30.1813"/>
<polygon fill="none" stroke="#404040" points="919.015,-30.1809 912.939,-34.064 907.018,-29.9487 913.094,-26.0655 919.015,-30.1809"/>
<text text-anchor="middle" x="1342" y="-84.5" font-family="Helvetica,sans-Serif" font-size="10.00"> +adcBufCfg</text>
</g>
<!-- Node11 -->
<g id="node11" class="node"><title>Node11</title>
<g id="a_node11"><a xlink:href="struct_mmw_demo___lvds_stream_cfg__t.html" target="_top" xlink:title="LVDS streaming configuration.">
<polygon fill="white" stroke="black" points="1500,-133 1500,-212 1644,-212 1644,-133 1500,-133"/>
<text text-anchor="middle" x="1572" y="-200" font-family="Helvetica,sans-Serif" font-size="10.00">MmwDemo_LvdsStreamCfg_t</text>
<polyline fill="none" stroke="black" points="1500,-193 1644,-193 "/>
<text text-anchor="start" x="1508" y="-181" font-family="Helvetica,sans-Serif" font-size="10.00">+ isHeaderEnabled</text>
<text text-anchor="start" x="1508" y="-170" font-family="Helvetica,sans-Serif" font-size="10.00">+ dataFmt</text>
<text text-anchor="start" x="1508" y="-159" font-family="Helvetica,sans-Serif" font-size="10.00">+ isSwEnabled</text>
<polyline fill="none" stroke="black" points="1500,-152 1644,-152 "/>
<text text-anchor="middle" x="1572" y="-140" font-family="Helvetica,sans-Serif" font-size="10.00"> </text>
</a>
</g>
</g>
<!-- Node11&#45;&gt;Node1 -->
<g id="edge10" class="edge"><title>Node11&#45;&gt;Node1</title>
<path fill="none" stroke="#404040" d="M1520.12,-132.907C1510.7,-126.789 1500.76,-120.88 1491,-116 1441.47,-91.2292 1427.19,-87.4052 1373,-76 1212.43,-42.2034 1018.93,-33.1993 919.015,-30.8263"/>
<polygon fill="none" stroke="#404040" points="919.007,-30.8262 912.921,-34.6935 907.01,-30.5627 913.096,-26.6954 919.007,-30.8262"/>
<text text-anchor="middle" x="1488" y="-84.5" font-family="Helvetica,sans-Serif" font-size="10.00"> +lvdsStreamCfg</text>
</g>
</g>
</svg>
