<?xml version="1.0" encoding="UTF-8" standalone="no"?>
<!DOCTYPE svg PUBLIC "-//W3C//DTD SVG 1.1//EN"
 "http://www.w3.org/Graphics/SVG/1.1/DTD/svg11.dtd">
<!-- Generated by graphviz version 2.38.0 (20140413.2041)
 -->
<!-- Title: clusteringDBscanOutput Pages: 1 -->
<svg width="130pt" height="237pt"
 viewBox="0.00 0.00 130.00 237.00" xmlns="http://www.w3.org/2000/svg" xmlns:xlink="http://www.w3.org/1999/xlink">
<g id="graph0" class="graph" transform="scale(1 1) rotate(0) translate(4 233)">
<title>clusteringDBscanOutput</title>
<polygon fill="white" stroke="none" points="-4,4 -4,-233 126,-233 126,4 -4,4"/>
<!-- Node1 -->
<g id="node1" class="node"><title>Node1</title>
<g id="a_node1"><a xlink:title="Structure of clustering output.">
<polygon fill="#bfbfbf" stroke="black" points="0,-0.5 0,-68.5 122,-68.5 122,-0.5 0,-0.5"/>
<text text-anchor="middle" x="61" y="-56.5" font-family="Helvetica,sans-Serif" font-size="10.00">clusteringDBscanOutput</text>
<polyline fill="none" stroke="black" points="0,-49.5 122,-49.5 "/>
<text text-anchor="start" x="8" y="-37.5" font-family="Helvetica,sans-Serif" font-size="10.00">+ IndexArray</text>
<text text-anchor="start" x="8" y="-26.5" font-family="Helvetica,sans-Serif" font-size="10.00">+ numCluster</text>
<polyline fill="none" stroke="black" points="0,-19.5 122,-19.5 "/>
<text text-anchor="middle" x="61" y="-7.5" font-family="Helvetica,sans-Serif" font-size="10.00"> </text>
</a>
</g>
</g>
<!-- Node2 -->
<g id="node2" class="node"><title>Node2</title>
<g id="a_node2"><a xlink:href="structclustering_d_bscan_report.html" target="_top" xlink:title="Structure for each cluster information report .">
<polygon fill="white" stroke="black" points="0,-116.5 0,-228.5 122,-228.5 122,-116.5 0,-116.5"/>
<text text-anchor="middle" x="61" y="-216.5" font-family="Helvetica,sans-Serif" font-size="10.00">clusteringDBscanReport</text>
<polyline fill="none" stroke="black" points="0,-209.5 122,-209.5 "/>
<text text-anchor="start" x="8" y="-197.5" font-family="Helvetica,sans-Serif" font-size="10.00">+ numPoints</text>
<text text-anchor="start" x="8" y="-186.5" font-family="Helvetica,sans-Serif" font-size="10.00">+ xCenter</text>
<text text-anchor="start" x="8" y="-175.5" font-family="Helvetica,sans-Serif" font-size="10.00">+ yCenter</text>
<text text-anchor="start" x="8" y="-164.5" font-family="Helvetica,sans-Serif" font-size="10.00">+ xSize</text>
<text text-anchor="start" x="8" y="-153.5" font-family="Helvetica,sans-Serif" font-size="10.00">+ ySize</text>
<text text-anchor="start" x="8" y="-142.5" font-family="Helvetica,sans-Serif" font-size="10.00">+ avgVel</text>
<polyline fill="none" stroke="black" points="0,-135.5 122,-135.5 "/>
<text text-anchor="middle" x="61" y="-123.5" font-family="Helvetica,sans-Serif" font-size="10.00"> </text>
</a>
</g>
</g>
<!-- Node2&#45;&gt;Node1 -->
<g id="edge1" class="edge"><title>Node2&#45;&gt;Node1</title>
<path fill="none" stroke="#404040" d="M61,-116.184C61,-104.429 61,-92.1496 61,-80.8193"/>
<polygon fill="none" stroke="#404040" points="61.0001,-80.5086 57,-74.5086 61,-68.5086 65,-74.5086 61.0001,-80.5086"/>
<text text-anchor="middle" x="78" y="-90" font-family="Helvetica,sans-Serif" font-size="10.00"> +report</text>
</g>
</g>
</svg>
