<?xml version="1.0" encoding="UTF-8" standalone="no"?>
<!DOCTYPE svg PUBLIC "-//W3C//DTD SVG 1.1//EN"
 "http://www.w3.org/Graphics/SVG/1.1/DTD/svg11.dtd">
<!-- Generated by graphviz version 2.38.0 (20140413.2041)
 -->
<!-- Title: ti_sysbios_knl_Task_Module_State__ Pages: 1 -->
<svg width="181pt" height="347pt"
 viewBox="0.00 0.00 180.50 347.00" xmlns="http://www.w3.org/2000/svg" xmlns:xlink="http://www.w3.org/1999/xlink">
<g id="graph0" class="graph" transform="scale(1 1) rotate(0) translate(4 343)">
<title>ti_sysbios_knl_Task_Module_State__</title>
<polygon fill="white" stroke="none" points="-4,4 -4,-343 176.5,-343 176.5,4 -4,4"/>
<!-- Node1 -->
<g id="node1" class="node"><title>Node1</title>
<g id="a_node1"><a xlink:title=" ">
<polygon fill="#bfbfbf" stroke="black" points="4,-0.5 4,-211.5 109,-211.5 109,-0.5 4,-0.5"/>
<text text-anchor="start" x="12" y="-199.5" font-family="Helvetica,sans-Serif" font-size="10.00">ti_sysbios_knl_Task</text>
<text text-anchor="middle" x="56.5" y="-188.5" font-family="Helvetica,sans-Serif" font-size="10.00">_Module_State__</text>
<polyline fill="none" stroke="black" points="4,-181.5 109,-181.5 "/>
<text text-anchor="start" x="12" y="-169.5" font-family="Helvetica,sans-Serif" font-size="10.00">+ locked</text>
<text text-anchor="start" x="12" y="-158.5" font-family="Helvetica,sans-Serif" font-size="10.00">+ curSet</text>
<text text-anchor="start" x="12" y="-147.5" font-family="Helvetica,sans-Serif" font-size="10.00">+ workFlag</text>
<text text-anchor="start" x="12" y="-136.5" font-family="Helvetica,sans-Serif" font-size="10.00">+ vitalTasks</text>
<text text-anchor="start" x="12" y="-125.5" font-family="Helvetica,sans-Serif" font-size="10.00">+ curTask</text>
<text text-anchor="start" x="12" y="-114.5" font-family="Helvetica,sans-Serif" font-size="10.00">+ curQ</text>
<text text-anchor="start" x="12" y="-103.5" font-family="Helvetica,sans-Serif" font-size="10.00">+ readyQ</text>
<text text-anchor="start" x="12" y="-92.5" font-family="Helvetica,sans-Serif" font-size="10.00">+ smpCurSet</text>
<text text-anchor="start" x="12" y="-81.5" font-family="Helvetica,sans-Serif" font-size="10.00">+ smpCurMask</text>
<text text-anchor="start" x="12" y="-70.5" font-family="Helvetica,sans-Serif" font-size="10.00">+ smpCurTask</text>
<text text-anchor="start" x="12" y="-59.5" font-family="Helvetica,sans-Serif" font-size="10.00">+ smpReadyQ</text>
<text text-anchor="start" x="12" y="-48.5" font-family="Helvetica,sans-Serif" font-size="10.00">+ idleTask</text>
<text text-anchor="start" x="12" y="-37.5" font-family="Helvetica,sans-Serif" font-size="10.00">+ constructedTasks</text>
<text text-anchor="start" x="12" y="-26.5" font-family="Helvetica,sans-Serif" font-size="10.00">+ curTaskPrivileged</text>
<polyline fill="none" stroke="black" points="4,-19.5 109,-19.5 "/>
<text text-anchor="middle" x="56.5" y="-7.5" font-family="Helvetica,sans-Serif" font-size="10.00"> </text>
</a>
</g>
</g>
<!-- Node2 -->
<g id="node2" class="node"><title>Node2</title>
<g id="a_node2"><a xlink:href="structti__sysbios__knl___queue___object____.html" target="_top" xlink:title=" ">
<polygon fill="white" stroke="black" points="0,-270.5 0,-338.5 113,-338.5 113,-270.5 0,-270.5"/>
<text text-anchor="start" x="8" y="-326.5" font-family="Helvetica,sans-Serif" font-size="10.00">ti_sysbios_knl_Queue</text>
<text text-anchor="middle" x="56.5" y="-315.5" font-family="Helvetica,sans-Serif" font-size="10.00">_Object__</text>
<polyline fill="none" stroke="black" points="0,-308.5 113,-308.5 "/>
<text text-anchor="start" x="8" y="-296.5" font-family="Helvetica,sans-Serif" font-size="10.00">+ elem</text>
<polyline fill="none" stroke="black" points="0,-289.5 113,-289.5 "/>
<text text-anchor="middle" x="56.5" y="-277.5" font-family="Helvetica,sans-Serif" font-size="10.00"> </text>
</a>
</g>
</g>
<!-- Node2&#45;&gt;Node1 -->
<g id="edge1" class="edge"><title>Node2&#45;&gt;Node1</title>
<path fill="none" stroke="#404040" d="M56.5,-270.166C56.5,-256.95 56.5,-240.896 56.5,-224.078"/>
<polygon fill="none" stroke="#404040" points="56.5001,-223.727 52.5,-217.727 56.5,-211.727 60.5,-217.727 56.5001,-223.727"/>
<text text-anchor="middle" x="114.5" y="-244" font-family="Helvetica,sans-Serif" font-size="10.00"> +Object_field_inactiveQ</text>
<text text-anchor="middle" x="114.5" y="-233" font-family="Helvetica,sans-Serif" font-size="10.00">+Object_field_terminatedQ</text>
</g>
</g>
</svg>
