<?xml version="1.0" encoding="UTF-8" standalone="no"?>
<!DOCTYPE svg PUBLIC "-//W3C//DTD SVG 1.1//EN"
 "http://www.w3.org/Graphics/SVG/1.1/DTD/svg11.dtd">
<!-- Generated by graphviz version 2.38.0 (20140413.2041)
 -->
<!-- Title: ti_sysbios_gates_GateMutex_Object2__ Pages: 1 -->
<svg width="174pt" height="469pt"
 viewBox="0.00 0.00 173.50 469.00" xmlns="http://www.w3.org/2000/svg" xmlns:xlink="http://www.w3.org/1999/xlink">
<g id="graph0" class="graph" transform="scale(1 1) rotate(0) translate(4 465)">
<title>ti_sysbios_gates_GateMutex_Object2__</title>
<polygon fill="white" stroke="none" points="-4,4 -4,-465 169.5,-465 169.5,4 -4,4"/>
<!-- Node1 -->
<g id="node1" class="node"><title>Node1</title>
<g id="a_node1"><a xlink:title=" ">
<polygon fill="#bfbfbf" stroke="black" points="0,-0.5 0,-68.5 143,-68.5 143,-0.5 0,-0.5"/>
<text text-anchor="start" x="8" y="-56.5" font-family="Helvetica,sans-Serif" font-size="10.00">ti_sysbios_gates_GateMutex</text>
<text text-anchor="middle" x="71.5" y="-45.5" font-family="Helvetica,sans-Serif" font-size="10.00">_Object2__</text>
<polyline fill="none" stroke="black" points="0,-38.5 143,-38.5 "/>
<text text-anchor="start" x="8" y="-26.5" font-family="Helvetica,sans-Serif" font-size="10.00">+ hdr</text>
<polyline fill="none" stroke="black" points="0,-19.5 143,-19.5 "/>
<text text-anchor="middle" x="71.5" y="-7.5" font-family="Helvetica,sans-Serif" font-size="10.00"> </text>
</a>
</g>
</g>
<!-- Node2 -->
<g id="node2" class="node"><title>Node2</title>
<g id="a_node2"><a xlink:href="structti__sysbios__gates___gate_mutex___object____.html" target="_top" xlink:title=" ">
<polygon fill="white" stroke="black" points="0,-116.5 0,-195.5 143,-195.5 143,-116.5 0,-116.5"/>
<text text-anchor="start" x="8" y="-183.5" font-family="Helvetica,sans-Serif" font-size="10.00">ti_sysbios_gates_GateMutex</text>
<text text-anchor="middle" x="71.5" y="-172.5" font-family="Helvetica,sans-Serif" font-size="10.00">_Object__</text>
<polyline fill="none" stroke="black" points="0,-165.5 143,-165.5 "/>
<text text-anchor="start" x="8" y="-153.5" font-family="Helvetica,sans-Serif" font-size="10.00">+ __fxns</text>
<text text-anchor="start" x="8" y="-142.5" font-family="Helvetica,sans-Serif" font-size="10.00">+ owner</text>
<polyline fill="none" stroke="black" points="0,-135.5 143,-135.5 "/>
<text text-anchor="middle" x="71.5" y="-123.5" font-family="Helvetica,sans-Serif" font-size="10.00"> </text>
</a>
</g>
</g>
<!-- Node2&#45;&gt;Node1 -->
<g id="edge1" class="edge"><title>Node2&#45;&gt;Node1</title>
<path fill="none" stroke="#404040" d="M71.5,-116.202C71.5,-104.991 71.5,-92.6534 71.5,-81.0704"/>
<polygon fill="none" stroke="#404040" points="71.5001,-80.8867 67.5,-74.8867 71.5,-68.8867 75.5,-74.8867 71.5001,-80.8867"/>
<text text-anchor="middle" x="82.5" y="-90" font-family="Helvetica,sans-Serif" font-size="10.00"> +obj</text>
</g>
<!-- Node3 -->
<g id="node3" class="node"><title>Node3</title>
<g id="a_node3"><a xlink:href="structti__sysbios__knl___semaphore___object____.html" target="_top" xlink:title=" ">
<polygon fill="white" stroke="black" points="4.5,-243.5 4.5,-344.5 138.5,-344.5 138.5,-243.5 4.5,-243.5"/>
<text text-anchor="start" x="12.5" y="-332.5" font-family="Helvetica,sans-Serif" font-size="10.00">ti_sysbios_knl_Semaphore</text>
<text text-anchor="middle" x="71.5" y="-321.5" font-family="Helvetica,sans-Serif" font-size="10.00">_Object__</text>
<polyline fill="none" stroke="black" points="4.5,-314.5 138.5,-314.5 "/>
<text text-anchor="start" x="12.5" y="-302.5" font-family="Helvetica,sans-Serif" font-size="10.00">+ event</text>
<text text-anchor="start" x="12.5" y="-291.5" font-family="Helvetica,sans-Serif" font-size="10.00">+ eventId</text>
<text text-anchor="start" x="12.5" y="-280.5" font-family="Helvetica,sans-Serif" font-size="10.00">+ mode</text>
<text text-anchor="start" x="12.5" y="-269.5" font-family="Helvetica,sans-Serif" font-size="10.00">+ count</text>
<polyline fill="none" stroke="black" points="4.5,-262.5 138.5,-262.5 "/>
<text text-anchor="middle" x="71.5" y="-250.5" font-family="Helvetica,sans-Serif" font-size="10.00"> </text>
</a>
</g>
</g>
<!-- Node3&#45;&gt;Node2 -->
<g id="edge2" class="edge"><title>Node3&#45;&gt;Node2</title>
<path fill="none" stroke="#404040" d="M71.5,-243.131C71.5,-231.662 71.5,-219.452 71.5,-207.938"/>
<polygon fill="none" stroke="#404040" points="71.5001,-207.787 67.5,-201.787 71.5,-195.787 75.5,-201.787 71.5001,-207.787"/>
<text text-anchor="middle" x="114" y="-217" font-family="Helvetica,sans-Serif" font-size="10.00"> +Object_field_sem</text>
</g>
<!-- Node4 -->
<g id="node4" class="node"><title>Node4</title>
<g id="a_node4"><a xlink:href="structti__sysbios__knl___queue___object____.html" target="_top" xlink:title=" ">
<polygon fill="white" stroke="black" points="15,-392.5 15,-460.5 128,-460.5 128,-392.5 15,-392.5"/>
<text text-anchor="start" x="23" y="-448.5" font-family="Helvetica,sans-Serif" font-size="10.00">ti_sysbios_knl_Queue</text>
<text text-anchor="middle" x="71.5" y="-437.5" font-family="Helvetica,sans-Serif" font-size="10.00">_Object__</text>
<polyline fill="none" stroke="black" points="15,-430.5 128,-430.5 "/>
<text text-anchor="start" x="23" y="-418.5" font-family="Helvetica,sans-Serif" font-size="10.00">+ elem</text>
<polyline fill="none" stroke="black" points="15,-411.5 128,-411.5 "/>
<text text-anchor="middle" x="71.5" y="-399.5" font-family="Helvetica,sans-Serif" font-size="10.00"> </text>
</a>
</g>
</g>
<!-- Node4&#45;&gt;Node3 -->
<g id="edge3" class="edge"><title>Node4&#45;&gt;Node3</title>
<path fill="none" stroke="#404040" d="M71.5,-392.232C71.5,-381.471 71.5,-369.168 71.5,-357.015"/>
<polygon fill="none" stroke="#404040" points="71.5001,-356.975 67.5,-350.975 71.5,-344.975 75.5,-350.975 71.5001,-356.975"/>
<text text-anchor="middle" x="118.5" y="-366" font-family="Helvetica,sans-Serif" font-size="10.00"> +Object_field_pendQ</text>
</g>
</g>
</svg>
