<?xml version="1.0" encoding="UTF-8" standalone="no"?>
<!DOCTYPE svg PUBLIC "-//W3C//DTD SVG 1.1//EN"
 "http://www.w3.org/Graphics/SVG/1.1/DTD/svg11.dtd">
<!-- Generated by graphviz version 2.38.0 (20140413.2041)
 -->
<!-- Title: ti_sysbios_family_c64p_Hwi___S1 Pages: 1 -->
<svg width="126pt" height="375pt"
 viewBox="0.00 0.00 126.00 375.00" xmlns="http://www.w3.org/2000/svg" xmlns:xlink="http://www.w3.org/1999/xlink">
<g id="graph0" class="graph" transform="scale(1 1) rotate(0) translate(4 371)">
<title>ti_sysbios_family_c64p_Hwi___S1</title>
<polygon fill="white" stroke="none" points="-4,4 -4,-371 122,-371 122,4 -4,4"/>
<!-- Node1 -->
<g id="node1" class="node"><title>Node1</title>
<g id="a_node1"><a xlink:title=" ">
<polygon fill="#bfbfbf" stroke="black" points="0,-0.5 0,-68.5 118,-68.5 118,-0.5 0,-0.5"/>
<text text-anchor="start" x="8" y="-56.5" font-family="Helvetica,sans-Serif" font-size="10.00">ti_sysbios_family_c64p</text>
<text text-anchor="middle" x="59" y="-45.5" font-family="Helvetica,sans-Serif" font-size="10.00">_Hwi___S1</text>
<polyline fill="none" stroke="black" points="0,-38.5 118,-38.5 "/>
<text text-anchor="start" x="8" y="-26.5" font-family="Helvetica,sans-Serif" font-size="10.00">+ c</text>
<polyline fill="none" stroke="black" points="0,-19.5 118,-19.5 "/>
<text text-anchor="middle" x="59" y="-7.5" font-family="Helvetica,sans-Serif" font-size="10.00"> </text>
</a>
</g>
</g>
<!-- Node2 -->
<g id="node2" class="node"><title>Node2</title>
<g id="a_node2"><a xlink:href="structti__sysbios__family__c64p___hwi___object2____.html" target="_top" xlink:title=" ">
<polygon fill="white" stroke="black" points="0,-116.5 0,-184.5 118,-184.5 118,-116.5 0,-116.5"/>
<text text-anchor="start" x="8" y="-172.5" font-family="Helvetica,sans-Serif" font-size="10.00">ti_sysbios_family_c64p</text>
<text text-anchor="middle" x="59" y="-161.5" font-family="Helvetica,sans-Serif" font-size="10.00">_Hwi_Object2__</text>
<polyline fill="none" stroke="black" points="0,-154.5 118,-154.5 "/>
<text text-anchor="start" x="8" y="-142.5" font-family="Helvetica,sans-Serif" font-size="10.00">+ hdr</text>
<polyline fill="none" stroke="black" points="0,-135.5 118,-135.5 "/>
<text text-anchor="middle" x="59" y="-123.5" font-family="Helvetica,sans-Serif" font-size="10.00"> </text>
</a>
</g>
</g>
<!-- Node2&#45;&gt;Node1 -->
<g id="edge1" class="edge"><title>Node2&#45;&gt;Node1</title>
<path fill="none" stroke="#404040" d="M59,-116.22C59,-105.099 59,-92.5117 59,-80.6422"/>
<polygon fill="none" stroke="#404040" points="59.0001,-80.6243 55,-74.6243 59,-68.6243 63,-74.6242 59.0001,-80.6243"/>
<text text-anchor="middle" x="69" y="-90" font-family="Helvetica,sans-Serif" font-size="10.00"> +s0</text>
</g>
<!-- Node3 -->
<g id="node3" class="node"><title>Node3</title>
<g id="a_node3"><a xlink:href="structti__sysbios__family__c64p___hwi___object____.html" target="_top" xlink:title=" ">
<polygon fill="white" stroke="black" points="0,-232.5 0,-366.5 118,-366.5 118,-232.5 0,-232.5"/>
<text text-anchor="start" x="8" y="-354.5" font-family="Helvetica,sans-Serif" font-size="10.00">ti_sysbios_family_c64p</text>
<text text-anchor="middle" x="59" y="-343.5" font-family="Helvetica,sans-Serif" font-size="10.00">_Hwi_Object__</text>
<polyline fill="none" stroke="black" points="0,-336.5 118,-336.5 "/>
<text text-anchor="start" x="8" y="-324.5" font-family="Helvetica,sans-Serif" font-size="10.00">+ __fxns</text>
<text text-anchor="start" x="8" y="-313.5" font-family="Helvetica,sans-Serif" font-size="10.00">+ disableMask</text>
<text text-anchor="start" x="8" y="-302.5" font-family="Helvetica,sans-Serif" font-size="10.00">+ restoreMask</text>
<text text-anchor="start" x="8" y="-291.5" font-family="Helvetica,sans-Serif" font-size="10.00">+ arg</text>
<text text-anchor="start" x="8" y="-280.5" font-family="Helvetica,sans-Serif" font-size="10.00">+ fxn</text>
<text text-anchor="start" x="8" y="-269.5" font-family="Helvetica,sans-Serif" font-size="10.00">+ irp</text>
<text text-anchor="start" x="8" y="-258.5" font-family="Helvetica,sans-Serif" font-size="10.00">+ hookEnv</text>
<polyline fill="none" stroke="black" points="0,-251.5 118,-251.5 "/>
<text text-anchor="middle" x="59" y="-239.5" font-family="Helvetica,sans-Serif" font-size="10.00"> </text>
</a>
</g>
</g>
<!-- Node3&#45;&gt;Node2 -->
<g id="edge2" class="edge"><title>Node3&#45;&gt;Node2</title>
<path fill="none" stroke="#404040" d="M59,-232.311C59,-220.351 59,-208.131 59,-196.933"/>
<polygon fill="none" stroke="#404040" points="59.0001,-196.793 55,-190.793 59,-184.793 63,-190.793 59.0001,-196.793"/>
<text text-anchor="middle" x="70" y="-206" font-family="Helvetica,sans-Serif" font-size="10.00"> +obj</text>
</g>
</g>
</svg>
