<?xml version="1.0" encoding="UTF-8" standalone="no"?>
<!DOCTYPE svg PUBLIC "-//W3C//DTD SVG 1.1//EN"
 "http://www.w3.org/Graphics/SVG/1.1/DTD/svg11.dtd">
<!-- Generated by graphviz version 2.38.0 (20140413.2041)
 -->
<!-- Title: mmWaveMSG_body_u Pages: 1 -->
<svg width="385pt" height="375pt"
 viewBox="0.00 0.00 384.50 375.00" xmlns="http://www.w3.org/2000/svg" xmlns:xlink="http://www.w3.org/1999/xlink">
<g id="graph0" class="graph" transform="scale(1 1) rotate(0) translate(4 371)">
<title>mmWaveMSG_body_u</title>
<polygon fill="white" stroke="none" points="-4,4 -4,-371 380.5,-371 380.5,4 -4,4"/>
<!-- Node1 -->
<g id="node1" class="node"><title>Node1</title>
<g id="a_node1"><a xlink:title="The union defines the message body for various configuration messages. For passing configuration from...">
<polygon fill="#bfbfbf" stroke="black" points="64.5,-0.5 64.5,-68.5 196.5,-68.5 196.5,-0.5 64.5,-0.5"/>
<text text-anchor="middle" x="130.5" y="-56.5" font-family="Helvetica,sans-Serif" font-size="10.00">mmWaveMSG_body_u</text>
<polyline fill="none" stroke="black" points="64.5,-49.5 196.5,-49.5 "/>
<text text-anchor="start" x="72.5" y="-37.5" font-family="Helvetica,sans-Serif" font-size="10.00">+ dataLogger</text>
<text text-anchor="start" x="72.5" y="-26.5" font-family="Helvetica,sans-Serif" font-size="10.00">+ dss2mssISRinfoAddress</text>
<polyline fill="none" stroke="black" points="64.5,-19.5 196.5,-19.5 "/>
<text text-anchor="middle" x="130.5" y="-7.5" font-family="Helvetica,sans-Serif" font-size="10.00"> </text>
</a>
</g>
</g>
<!-- Node2 -->
<g id="node2" class="node"><title>Node2</title>
<g id="a_node2"><a xlink:href="structmm_wave__dss_assert_info_msg__t.html" target="_top" xlink:title="The structure defines the message body for the information on a DSS exception that should be forwarde...">
<polygon fill="white" stroke="black" points="0,-116.5 0,-184.5 149,-184.5 149,-116.5 0,-116.5"/>
<text text-anchor="middle" x="74.5" y="-172.5" font-family="Helvetica,sans-Serif" font-size="10.00">mmWave_dssAssertInfoMsg_t</text>
<polyline fill="none" stroke="black" points="0,-165.5 149,-165.5 "/>
<text text-anchor="start" x="8" y="-153.5" font-family="Helvetica,sans-Serif" font-size="10.00">+ file</text>
<text text-anchor="start" x="8" y="-142.5" font-family="Helvetica,sans-Serif" font-size="10.00">+ line</text>
<polyline fill="none" stroke="black" points="0,-135.5 149,-135.5 "/>
<text text-anchor="middle" x="74.5" y="-123.5" font-family="Helvetica,sans-Serif" font-size="10.00"> </text>
</a>
</g>
</g>
<!-- Node2&#45;&gt;Node1 -->
<g id="edge1" class="edge"><title>Node2&#45;&gt;Node1</title>
<path fill="none" stroke="#404040" d="M90.8481,-116.22C96.4836,-104.748 102.885,-91.7152 108.876,-79.5199"/>
<polygon fill="none" stroke="#404040" points="108.938,-79.3949 107.993,-72.246 114.228,-68.6243 115.173,-75.7732 108.938,-79.3949"/>
<text text-anchor="middle" x="130.5" y="-90" font-family="Helvetica,sans-Serif" font-size="10.00"> +assertInfo</text>
</g>
<!-- Node3 -->
<g id="node3" class="node"><title>Node3</title>
<g id="a_node3"><a xlink:href="structmm_wave__det_obj_msg__t.html" target="_top" xlink:title="The structure defines the message body for for reporting detection information from data path to MSS.">
<polygon fill="white" stroke="black" points="167.5,-122 167.5,-179 285.5,-179 285.5,-122 167.5,-122"/>
<text text-anchor="middle" x="226.5" y="-167" font-family="Helvetica,sans-Serif" font-size="10.00">mmWave_detObjMsg_t</text>
<polyline fill="none" stroke="black" points="167.5,-160 285.5,-160 "/>
<text text-anchor="middle" x="226.5" y="-148" font-family="Helvetica,sans-Serif" font-size="10.00"> </text>
<polyline fill="none" stroke="black" points="167.5,-141 285.5,-141 "/>
<text text-anchor="middle" x="226.5" y="-129" font-family="Helvetica,sans-Serif" font-size="10.00"> </text>
</a>
</g>
</g>
<!-- Node3&#45;&gt;Node1 -->
<g id="edge2" class="edge"><title>Node3&#45;&gt;Node1</title>
<path fill="none" stroke="#404040" d="M203.261,-121.904C192.154,-108.714 178.612,-92.6324 166.235,-77.9352"/>
<polygon fill="none" stroke="#404040" points="166.037,-77.7003 159.113,-75.6874 158.307,-68.5214 165.232,-70.5343 166.037,-77.7003"/>
<text text-anchor="middle" x="200.5" y="-90" font-family="Helvetica,sans-Serif" font-size="10.00"> +detObj</text>
</g>
<!-- Node4 -->
<g id="node4" class="node"><title>Node4</title>
<g id="a_node4"><a xlink:href="structmm_wave_m_s_g___t_l_v__t.html" target="_top" xlink:title="The structure describes the TLV part of the message from DSS to MSS on data path detection informatio...">
<polygon fill="white" stroke="black" points="96.5,-260 96.5,-339 206.5,-339 206.5,-260 96.5,-260"/>
<text text-anchor="middle" x="151.5" y="-327" font-family="Helvetica,sans-Serif" font-size="10.00">mmWaveMSG_TLV_t</text>
<polyline fill="none" stroke="black" points="96.5,-320 206.5,-320 "/>
<text text-anchor="start" x="104.5" y="-308" font-family="Helvetica,sans-Serif" font-size="10.00">+ type</text>
<text text-anchor="start" x="104.5" y="-297" font-family="Helvetica,sans-Serif" font-size="10.00">+ length</text>
<text text-anchor="start" x="104.5" y="-286" font-family="Helvetica,sans-Serif" font-size="10.00">+ address</text>
<polyline fill="none" stroke="black" points="96.5,-279 206.5,-279 "/>
<text text-anchor="middle" x="151.5" y="-267" font-family="Helvetica,sans-Serif" font-size="10.00"> </text>
</a>
</g>
</g>
<!-- Node4&#45;&gt;Node3 -->
<g id="edge3" class="edge"><title>Node4&#45;&gt;Node3</title>
<path fill="none" stroke="#404040" d="M171.205,-259.877C182.219,-238.291 195.899,-211.479 206.896,-189.924"/>
<polygon fill="none" stroke="#404040" points="206.92,-189.877 206.084,-182.714 212.374,-179.187 213.21,-186.35 206.92,-189.877"/>
<text text-anchor="middle" x="210" y="-206" font-family="Helvetica,sans-Serif" font-size="10.00"> +tlv</text>
</g>
<!-- Node5 -->
<g id="node5" class="node"><title>Node5</title>
<g id="a_node5"><a xlink:href="structmm_wave___o_u_t___m_s_g__header__t.html" target="_top" xlink:title="The structure defines the message header for reporting detection information from data path....">
<polygon fill="white" stroke="black" points="224.5,-232.5 224.5,-366.5 376.5,-366.5 376.5,-232.5 224.5,-232.5"/>
<text text-anchor="middle" x="300.5" y="-354.5" font-family="Helvetica,sans-Serif" font-size="10.00">mmWave_OUT_MSG_header_t</text>
<polyline fill="none" stroke="black" points="224.5,-347.5 376.5,-347.5 "/>
<text text-anchor="start" x="232.5" y="-335.5" font-family="Helvetica,sans-Serif" font-size="10.00">+ magicWord</text>
<text text-anchor="start" x="232.5" y="-324.5" font-family="Helvetica,sans-Serif" font-size="10.00">+ version</text>
<text text-anchor="start" x="232.5" y="-313.5" font-family="Helvetica,sans-Serif" font-size="10.00">+ totalPacketLen</text>
<text text-anchor="start" x="232.5" y="-302.5" font-family="Helvetica,sans-Serif" font-size="10.00">+ platform</text>
<text text-anchor="start" x="232.5" y="-291.5" font-family="Helvetica,sans-Serif" font-size="10.00">+ frameNumber</text>
<text text-anchor="start" x="232.5" y="-280.5" font-family="Helvetica,sans-Serif" font-size="10.00">+ timeCpuCycles</text>
<text text-anchor="start" x="232.5" y="-269.5" font-family="Helvetica,sans-Serif" font-size="10.00">+ numDetectedObj</text>
<text text-anchor="start" x="232.5" y="-258.5" font-family="Helvetica,sans-Serif" font-size="10.00">+ numTLVs</text>
<polyline fill="none" stroke="black" points="224.5,-251.5 376.5,-251.5 "/>
<text text-anchor="middle" x="300.5" y="-239.5" font-family="Helvetica,sans-Serif" font-size="10.00"> </text>
</a>
</g>
</g>
<!-- Node5&#45;&gt;Node3 -->
<g id="edge4" class="edge"><title>Node5&#45;&gt;Node3</title>
<path fill="none" stroke="#404040" d="M267.18,-232.311C259.881,-217.811 252.389,-202.928 245.856,-189.95"/>
<polygon fill="none" stroke="#404040" points="245.785,-189.81 239.515,-186.249 240.39,-179.092 246.66,-182.652 245.785,-189.81"/>
<text text-anchor="middle" x="276" y="-206" font-family="Helvetica,sans-Serif" font-size="10.00"> +header</text>
</g>
</g>
</svg>
